<svg width="104" height="35" viewBox="0 0 104 35" fill="none" xmlns="http://www.w3.org/2000/svg">
<path d="M41.22 32.7265C52.0126 34.2138 62.9857 34.2704 73.7961 32.8946C82.8804 31.6708 92.8531 29.2435 99.3313 22.8489C103.514 18.7204 104.758 12.2855 98.7242 9.30008C92.4904 6.20704 84.8942 5.26568 77.994 4.01502C69.8895 2.51157 61.6823 1.50741 53.4287 1.00939C39.7467 0.276471 25.8945 0.706807 12.9899 5.21861C8.79942 6.68445 -3.29815 10.7188 1.69191 16.6023C7.38532 23.3264 18.9572 26.5808 27.6047 28.3761C44.3187 31.8434 61.7404 31.2825 78.1421 26.7489" fill="black"/>
<path d="M41.22 32.7265C52.0126 34.2138 62.9857 34.2704 73.7961 32.8946C82.8804 31.6708 92.8531 29.2435 99.3313 22.8489C103.514 18.7204 104.758 12.2855 98.7242 9.30008C92.4904 6.20704 84.8942 5.26568 77.994 4.01502C69.8895 2.51157 61.6823 1.50741 53.4287 1.00939C39.7467 0.276471 25.8945 0.706807 12.9899 5.21861C8.79942 6.68445 -3.29815 10.7188 1.69191 16.6023C7.38532 23.3264 18.9572 26.5808 27.6047 28.3761C44.3187 31.8434 61.7404 31.2825 78.1421 26.7489" stroke="white" stroke-width="0.5" stroke-linecap="round" stroke-linejoin="round"/>
</svg>
