<svg width="843" height="316" viewBox="0 0 843 316" fill="none" xmlns="http://www.w3.org/2000/svg">
<path d="M204.699 9.49609H204.98L217.461 52H221.891L235.883 1.26953H230.855L219.711 44.6172H219.465L207.23 1.26953H202.449L190.18 44.6172H189.969L178.789 1.26953H173.797L187.754 52H192.219L204.699 9.49609ZM272.797 47.6406H246.957V28.1641H271.496V23.875H246.957V5.62891H272.797V1.26953H242.176V52H272.797V47.6406ZM313.895 52V5.62891H330.664V1.26953H292.344V5.62891H309.078V52H313.895ZM376.016 52V1.26953H371.199V23.8398H341.527V1.26953H336.746V52H341.527V28.1992H371.199V52H376.016ZM419.258 52H424.32L405.371 1.26953H400.59L381.605 52H386.703L392.328 36.4609H413.633L419.258 52ZM402.875 7.21094H403.086L412.191 32.3125H393.77L402.875 7.21094ZM434.656 52V9.60156H434.902L464.75 52H469.391V1.26953H464.645V43.6328H464.398L434.656 1.26953H429.91V52H434.656ZM483.699 52V33.8945L489.957 27.1094L510.102 52H516.254L493.332 23.6992L514.18 1.26953H508.098L483.98 27.5664H483.699V1.26953H478.918V52H483.699ZM555.312 52V30.0625L573.488 1.26953H568.004L552.992 25.3516H552.816L537.805 1.26953H532.32L550.496 30.0625V52H555.312ZM597.219 0.460938C583.086 0.460938 574.191 10.5859 574.191 26.6523C574.191 42.7188 583.086 52.8086 597.219 52.8086C611.387 52.8086 620.281 42.7188 620.281 26.6523C620.281 10.5859 611.352 0.460938 597.219 0.460938ZM597.219 4.92578C608.328 4.92578 615.359 13.3281 615.359 26.6523C615.359 39.9414 608.328 48.3438 597.219 48.3438C586.109 48.3438 579.113 39.9414 579.113 26.6523C579.113 13.3281 586.109 4.92578 597.219 4.92578ZM632.551 1.26953H627.77V34.2812C627.77 45.2148 635.188 52.8086 647.387 52.8086C659.586 52.8086 667.039 45.2148 667.039 34.2812V1.26953H662.223V34C662.223 42.5078 656.703 48.3438 647.387 48.3438C638.105 48.3438 632.551 42.5078 632.551 34V1.26953ZM105.57 86.264C105.93 85.112 105.57 83.672 104.922 82.808C104.274 81.944 101.826 80.504 98.8736 80.504C90.8096 80.504 88.1456 85.544 88.1456 100.736H83.4656L83.5376 101.528H88.1456V128.816C88.1456 132.272 88.0736 132.776 85.3376 133.28V134H96.8576V133.28C94.2656 132.848 93.1136 132.56 93.1136 128.816V101.528H101.178L101.322 100.736H93.1136C93.1136 84.392 95.1296 81.224 98.8736 81.224C100.674 81.224 101.826 82.304 101.25 82.52C100.602 82.736 100.026 83.312 99.7376 84.104C99.0896 85.832 99.9536 87.488 101.538 88.136C103.194 88.712 104.994 87.848 105.57 86.264ZM131.816 117.368C131.816 130.4 126.992 133.856 121.304 133.856C115.616 133.856 110.72 130.4 110.72 117.368C110.72 104.336 115.616 100.88 121.304 100.88C126.992 100.88 131.816 104.336 131.816 117.368ZM137.648 117.368C137.648 107.864 132.32 100.088 121.304 100.088C110.36 100.088 104.96 107.864 104.96 117.368C104.96 126.8 110.36 134.648 121.304 134.648C132.32 134.648 137.648 126.8 137.648 117.368ZM160.341 100.232C156.813 100.232 152.133 103.04 150.045 107.288V100.088L141.477 101.744V102.464C144.501 102.824 145.077 103.904 145.077 106.352V128.384C145.077 132.056 144.933 132.416 142.197 133.208V134H152.997V133.208C150.405 132.56 150.045 132.344 150.045 128.384V108.872C152.133 103.832 157.893 101.6 157.533 103.04C157.317 103.832 157.461 104.696 157.893 105.416C158.973 107 161.061 107.432 162.573 106.424C164.157 105.416 164.589 103.4 163.581 101.816C162.789 100.736 161.493 100.232 160.341 100.232ZM195.27 133.208C192.678 132.56 192.318 132.344 192.318 128.384V81.152L183.75 82.736V83.528C186.774 83.816 187.35 84.824 187.35 87.344V128.384C187.35 132.056 187.206 132.416 184.47 133.208V134H195.27V133.208ZM205.417 115.856C205.417 105.776 210.745 100.88 214.849 100.88C218.017 100.88 223.561 104.696 223.561 115.856H205.417ZM226.729 125.36C225.577 129.032 220.897 132.272 216.289 132.056C210.241 131.768 205.561 127.736 205.417 116.72H228.457C228.457 105.344 222.337 100.088 214.921 100.088C206.569 100.088 199.873 106.856 199.873 117.728C199.873 127.808 206.281 134.648 214.993 134.648C222.913 134.648 226.801 128.816 227.305 125.576L226.729 125.36ZM252.553 115.928V127.088C251.761 128.816 249.889 131.984 245.425 131.984C241.177 131.984 239.233 128.96 239.233 125.864C239.233 121.184 243.553 118.088 252.553 115.928ZM260.833 131.768C257.665 131.768 257.737 127.448 257.737 127.448V114.488C257.737 105.92 255.793 100.088 248.737 100.088C248.737 100.088 245.281 99.944 242.257 101.456C238.441 103.544 237.073 105.776 236.641 106.784C236.209 107.72 236.353 108.944 237.073 109.88C238.081 111.248 239.953 111.392 241.177 110.384C242.473 109.304 242.761 107.432 241.681 106.136C241.177 105.488 240.457 105.2 239.737 105.056C239.305 104.984 239.809 103.472 242.905 102.032C249.025 99.296 252.553 103.688 252.553 111.104V115.136C240.385 118.304 234.265 120.32 234.265 127.16C234.265 134.648 242.401 134.648 242.401 134.648C247.441 134.648 251.545 132.056 252.553 128.456C252.769 134.864 258.097 134.648 258.097 134.648C261.481 134.648 263.425 131.984 263.857 129.824L263.137 129.536C262.633 131.768 260.833 131.768 260.833 131.768ZM286 100.736V101.456C293.92 101.456 290.392 110.456 290.392 110.456L284.056 127.88L274.192 106.28C274.192 106.28 271.672 101.456 276.856 101.456V100.736H262.96V101.456C264.112 101.6 266.2 101.528 268 105.056C268 105.056 269.08 107 281.824 134.648H282.4L291.472 109.808C294.856 101.528 296.584 101.456 299.824 101.456V100.736H286ZM307.143 93.968C308.799 93.968 310.239 92.6 310.239 90.944C310.239 89.216 308.799 87.848 307.143 87.848C305.415 87.848 304.119 89.216 304.119 90.944C304.119 92.6 305.415 93.968 307.143 93.968ZM313.263 133.208C310.671 132.56 310.311 132.344 310.311 128.384V100.088L301.815 101.744V102.464C304.839 102.896 305.415 103.904 305.415 106.352V128.384C305.415 132.056 305.271 132.416 302.535 133.208V134H313.263V133.208ZM349.233 133.28C346.641 132.632 346.281 132.344 346.281 128.384V111.824C346.281 103.184 341.817 100.088 335.913 100.088C331.377 100.088 326.697 103.472 325.257 107.504V100.088L316.689 101.744V102.464C319.713 102.896 320.289 103.904 320.289 106.424V128.384C320.289 132.056 320.145 132.416 317.409 133.208V134H328.209V133.208C325.617 132.56 325.257 132.344 325.257 128.384V109.16C326.121 106.712 329.073 102.824 333.177 102.824C338.505 102.824 341.385 106.496 341.385 112.112V128.384C341.385 132.056 341.241 132.488 338.505 133.28V134H349.233V133.28ZM376.904 111.176C376.904 119.24 372.008 121.616 368.696 121.616C365.528 121.616 360.632 119.24 360.632 111.176C360.632 103.112 365.096 100.88 368.696 100.88C371.792 100.88 376.904 103.112 376.904 111.176ZM387.488 104.84C388.784 103.904 389.072 102.104 388.064 100.808C387.416 99.944 386.264 99.584 385.112 99.656C383.456 99.728 380.576 100.88 378.776 103.544C376.472 101.384 372.728 100.088 368.696 100.088C360.704 100.088 355.448 105.344 355.448 111.176C355.448 114.992 357.104 119.024 360.992 120.752C354.44 122.336 354.872 128.168 354.872 128.168C354.872 130.4 355.664 132.344 357.824 133.424C352.856 136.52 350.192 141.632 352.928 146.312C355.952 151.568 366.464 152.864 376.112 147.392C383.672 143.144 383.888 137.744 383.888 137.744C385.112 129.032 376.256 129.68 371.288 129.68H363.368C354.368 129.68 357.68 121.544 361.712 121.112C363.656 121.976 365.888 122.408 368.696 122.408C376.832 122.408 382.088 117.008 382.088 111.176C382.088 108.584 381.152 105.776 379.28 103.976C380.648 101.888 383.168 101.672 383.024 102.248C382.808 102.968 383.024 103.76 383.456 104.408C384.464 105.632 386.264 105.848 387.488 104.84ZM357.248 145.016C357.464 145.232 351.632 138.752 358.616 133.856C360.992 134.72 363.728 134.648 364.52 134.648H374.6C381.224 134.648 381.296 138.32 381.296 138.32C381.296 138.32 381.728 142.856 375.68 146.672C369.488 150.56 360.344 148.688 357.248 145.016ZM429.717 100.736V101.456C438.069 101.384 433.677 112.976 433.677 112.976L428.421 127.736L418.845 107.144C418.845 107.144 416.037 101.456 421.149 101.456V100.736H407.253V101.456C408.405 101.6 411.069 102.032 412.653 105.56C412.653 105.56 415.317 110.888 426.045 134.144L422.517 144.152C421.581 146.672 420.141 147.896 419.853 146.816C419.637 146.024 419.061 145.232 418.197 144.872C416.613 144.152 414.741 144.872 413.949 146.528C413.301 148.112 413.949 149.984 415.605 150.776C416.757 151.28 418.413 150.992 419.277 150.344C420.141 149.624 421.941 148.112 423.237 144.296L434.469 113.12C438.429 102.32 440.517 101.456 443.541 101.456V100.736H429.717ZM471.847 117.368C471.847 130.4 467.023 133.856 461.335 133.856C455.647 133.856 450.751 130.4 450.751 117.368C450.751 104.336 455.647 100.88 461.335 100.88C467.023 100.88 471.847 104.336 471.847 117.368ZM477.679 117.368C477.679 107.864 472.351 100.088 461.335 100.088C450.391 100.088 444.991 107.864 444.991 117.368C444.991 126.8 450.391 134.648 461.335 134.648C472.351 134.648 477.679 126.8 477.679 117.368ZM515.348 132.704C512.324 132.344 511.676 131.768 511.676 128.312V100.088L503.324 101.384V102.176C506.78 102.248 506.708 102.536 506.708 106.928V125.936C505.628 129.032 503.036 131.912 498.716 131.912C494.54 131.912 490.58 129.752 490.58 123.632V100.088L481.724 101.384V102.176C485.756 102.176 485.756 102.464 485.756 107.288V123.848C485.756 132.992 491.66 134.648 496.628 134.648C501.596 134.648 505.7 131.336 506.708 127.664V133.64C506.708 133.64 506.708 134.936 508.364 134.576L515.348 133.424V132.704ZM536.442 100.232C532.914 100.232 528.234 103.04 526.146 107.288V100.088L517.578 101.744V102.464C520.602 102.824 521.178 103.904 521.178 106.352V128.384C521.178 132.056 521.034 132.416 518.298 133.208V134H529.098V133.208C526.506 132.56 526.146 132.344 526.146 128.384V108.872C528.234 103.832 533.994 101.6 533.634 103.04C533.418 103.832 533.562 104.696 533.994 105.416C535.074 107 537.162 107.432 538.674 106.424C540.258 105.416 540.69 103.4 539.682 101.816C538.89 100.736 537.594 100.232 536.442 100.232ZM589.227 124.856C588.075 128.024 584.259 132.128 578.139 131.84C572.955 131.624 566.979 127.52 566.979 116.936C566.979 103.04 575.331 100.88 578.355 100.88C584.115 100.88 586.347 103.472 585.627 103.328C585.123 103.184 584.331 103.544 583.755 104.12C582.603 105.2 582.675 106.928 583.827 108.08C584.835 109.088 586.779 108.944 587.787 107.936C588.579 107.144 588.651 105.992 588.363 105.056C588.075 103.832 586.419 100.088 578.355 100.088C567.987 100.088 561.435 108.44 561.435 117.512C561.435 129.176 569.715 134.648 576.987 134.648C585.771 134.648 589.155 128.6 589.803 125.072L589.227 124.856ZM622.035 117.368C622.035 130.4 617.211 133.856 611.523 133.856C605.835 133.856 600.939 130.4 600.939 117.368C600.939 104.336 605.835 100.88 611.523 100.88C617.211 100.88 622.035 104.336 622.035 117.368ZM627.867 117.368C627.867 107.864 622.539 100.088 611.523 100.088C600.579 100.088 595.179 107.864 595.179 117.368C595.179 126.8 600.579 134.648 611.523 134.648C622.539 134.648 627.867 126.8 627.867 117.368ZM663.952 133.28C661.36 132.632 661 132.344 661 128.384V111.824C661 103.184 656.536 100.088 650.632 100.088C646.096 100.088 641.416 103.472 639.976 107.504V100.088L631.408 101.744V102.464C634.432 102.896 635.008 103.904 635.008 106.424V128.384C635.008 132.056 634.864 132.416 632.128 133.208V134H642.928V133.208C640.336 132.56 639.976 132.344 639.976 128.384V109.16C640.84 106.712 643.792 102.824 647.896 102.824C653.224 102.824 656.104 106.496 656.104 112.112V128.384C656.104 132.056 655.96 132.488 653.224 133.28V134H663.952V133.28ZM685.575 128.6C684.999 130.328 683.271 131.912 681.183 131.912C677.871 131.912 675.639 129.968 675.639 123.416V101.528H683.991L684.135 100.736H675.639V89.504L670.671 90.152V100.736H666.927L667.071 101.528H670.671V123.632C670.671 132.344 673.839 134.648 678.807 134.648C682.623 134.648 685.359 131.912 686.151 128.888L685.575 128.6ZM708.388 115.928V127.088C707.596 128.816 705.724 131.984 701.26 131.984C697.012 131.984 695.068 128.96 695.068 125.864C695.068 121.184 699.388 118.088 708.388 115.928ZM716.668 131.768C713.5 131.768 713.572 127.448 713.572 127.448V114.488C713.572 105.92 711.628 100.088 704.572 100.088C704.572 100.088 701.116 99.944 698.092 101.456C694.276 103.544 692.908 105.776 692.476 106.784C692.044 107.72 692.188 108.944 692.908 109.88C693.916 111.248 695.788 111.392 697.012 110.384C698.308 109.304 698.596 107.432 697.516 106.136C697.012 105.488 696.292 105.2 695.572 105.056C695.14 104.984 695.644 103.472 698.74 102.032C704.86 99.296 708.388 103.688 708.388 111.104V115.136C696.22 118.304 690.1 120.32 690.1 127.16C690.1 134.648 698.236 134.648 698.236 134.648C703.276 134.648 707.38 132.056 708.388 128.456C708.604 134.864 713.932 134.648 713.932 134.648C717.316 134.648 719.26 131.984 719.692 129.824L718.972 129.536C718.468 131.768 716.668 131.768 716.668 131.768ZM751.72 124.856C750.568 128.024 746.752 132.128 740.632 131.84C735.448 131.624 729.472 127.52 729.472 116.936C729.472 103.04 737.824 100.88 740.848 100.88C746.608 100.88 748.84 103.472 748.12 103.328C747.616 103.184 746.824 103.544 746.248 104.12C745.096 105.2 745.168 106.928 746.32 108.08C747.328 109.088 749.272 108.944 750.28 107.936C751.072 107.144 751.144 105.992 750.856 105.056C750.568 103.832 748.912 100.088 740.848 100.088C730.48 100.088 723.928 108.44 723.928 117.512C723.928 129.176 732.208 134.648 739.48 134.648C748.264 134.648 751.648 128.6 752.296 125.072L751.72 124.856ZM774.591 128.6C774.015 130.328 772.287 131.912 770.199 131.912C766.887 131.912 764.655 129.968 764.655 123.416V101.528H773.007L773.151 100.736H764.655V89.504L759.687 90.152V100.736H755.943L756.087 101.528H759.687V123.632C759.687 132.344 762.855 134.648 767.823 134.648C771.639 134.648 774.375 131.912 775.167 128.888L774.591 128.6ZM6.09959 175.968C7.75559 175.968 9.19559 174.6 9.19559 172.944C9.19559 171.216 7.75559 169.848 6.09959 169.848C4.37159 169.848 3.07559 171.216 3.07559 172.944C3.07559 174.6 4.37159 175.968 6.09959 175.968ZM12.2196 215.208C9.62759 214.56 9.26759 214.344 9.26759 210.384V182.088L0.771594 183.744V184.464C3.79559 184.896 4.37159 185.904 4.37159 188.352V210.384C4.37159 214.056 4.22759 214.416 1.49159 215.208V216H12.2196V215.208ZM48.1898 215.28C45.5978 214.632 45.2378 214.344 45.2378 210.384V193.824C45.2378 185.184 40.7738 182.088 34.8698 182.088C30.3338 182.088 25.6538 185.472 24.2138 189.504V182.088L15.6458 183.744V184.464C18.6698 184.896 19.2458 185.904 19.2458 188.424V210.384C19.2458 214.056 19.1018 214.416 16.3658 215.208V216H27.1658V215.208C24.5738 214.56 24.2138 214.344 24.2138 210.384V191.16C25.0778 188.712 28.0298 184.824 32.1338 184.824C37.4618 184.824 40.3418 188.496 40.3418 194.112V210.384C40.3418 214.056 40.1978 214.488 37.4618 215.28V216H48.1898V215.28ZM72.9094 168.264C73.2694 167.112 72.9094 165.672 72.2614 164.808C71.6134 163.944 69.1654 162.504 66.2134 162.504C58.1494 162.504 55.4854 167.544 55.4854 182.736H50.8054L50.8774 183.528H55.4854V210.816C55.4854 214.272 55.4134 214.776 52.6774 215.28V216H64.1974V215.28C61.6054 214.848 60.4534 214.56 60.4534 210.816V183.528H68.5174L68.6614 182.736H60.4534C60.4534 166.392 62.4694 163.224 66.2134 163.224C68.0134 163.224 69.1654 164.304 68.5894 164.52C67.9414 164.736 67.3654 165.312 67.0774 166.104C66.4294 167.832 67.2934 169.488 68.8774 170.136C70.5334 170.712 72.3334 169.848 72.9094 168.264ZM99.1557 199.368C99.1557 212.4 94.3317 215.856 88.6437 215.856C82.9557 215.856 78.0597 212.4 78.0597 199.368C78.0597 186.336 82.9557 182.88 88.6437 182.88C94.3317 182.88 99.1557 186.336 99.1557 199.368ZM104.988 199.368C104.988 189.864 99.6597 182.088 88.6437 182.088C77.6997 182.088 72.2997 189.864 72.2997 199.368C72.2997 208.8 77.6997 216.648 88.6437 216.648C99.6597 216.648 104.988 208.8 104.988 199.368ZM127.681 182.232C124.153 182.232 119.473 185.04 117.385 189.288V182.088L108.817 183.744V184.464C111.841 184.824 112.417 185.904 112.417 188.352V210.384C112.417 214.056 112.273 214.416 109.537 215.208V216H120.337V215.208C117.745 214.56 117.385 214.344 117.385 210.384V190.872C119.473 185.832 125.233 183.6 124.873 185.04C124.657 185.832 124.801 186.696 125.233 187.416C126.313 189 128.401 189.432 129.913 188.424C131.497 187.416 131.929 185.4 130.921 183.816C130.129 182.736 128.833 182.232 127.681 182.232ZM182.9 215.28C180.308 214.632 179.948 214.344 179.948 210.384V193.824C179.948 185.184 176.276 182.088 170.3 182.088C165.692 182.088 161.66 185.616 160.364 189.864C159.428 184.32 156.188 182.088 151.148 182.088C146.612 182.088 142.652 185.4 141.284 189.432V182.088L132.716 183.744V184.464C135.74 184.896 136.316 185.976 136.316 188.496V210.384C136.316 214.056 136.172 214.416 133.436 215.208V216H144.236V215.208C141.644 214.56 141.284 214.344 141.284 210.384V191.16C142.004 188.784 144.452 184.824 148.628 184.824C153.884 184.824 155.756 188.352 155.756 194.112V210.384C155.756 214.056 155.612 214.488 152.876 215.28V216H163.604V215.28C161.084 214.632 160.652 214.344 160.652 210.384V193.968C160.652 192.96 160.652 191.952 160.652 191.304C161.372 188.856 163.676 184.824 167.852 184.824C173.036 184.824 175.052 188.352 175.052 194.112V210.384C175.052 214.056 174.908 214.488 172.172 215.28V216H182.9V215.28ZM205.127 197.928V209.088C204.335 210.816 202.463 213.984 197.999 213.984C193.751 213.984 191.807 210.96 191.807 207.864C191.807 203.184 196.127 200.088 205.127 197.928ZM213.407 213.768C210.239 213.768 210.311 209.448 210.311 209.448V196.488C210.311 187.92 208.367 182.088 201.311 182.088C201.311 182.088 197.855 181.944 194.831 183.456C191.015 185.544 189.647 187.776 189.215 188.784C188.783 189.72 188.927 190.944 189.647 191.88C190.655 193.248 192.527 193.392 193.751 192.384C195.047 191.304 195.335 189.432 194.255 188.136C193.751 187.488 193.031 187.2 192.311 187.056C191.879 186.984 192.383 185.472 195.479 184.032C201.599 181.296 205.127 185.688 205.127 193.104V197.136C192.959 200.304 186.839 202.32 186.839 209.16C186.839 216.648 194.975 216.648 194.975 216.648C200.015 216.648 204.119 214.056 205.127 210.456C205.343 216.864 210.671 216.648 210.671 216.648C214.055 216.648 215.999 213.984 216.431 211.824L215.711 211.536C215.207 213.768 213.407 213.768 213.407 213.768ZM237.298 210.6C236.722 212.328 234.994 213.912 232.906 213.912C229.594 213.912 227.362 211.968 227.362 205.416V183.528H235.714L235.858 182.736H227.362V171.504L222.394 172.152V182.736H218.65L218.794 183.528H222.394V205.632C222.394 214.344 225.562 216.648 230.53 216.648C234.346 216.648 237.082 213.912 237.874 210.888L237.298 210.6ZM246.287 175.968C247.943 175.968 249.383 174.6 249.383 172.944C249.383 171.216 247.943 169.848 246.287 169.848C244.559 169.848 243.263 171.216 243.263 172.944C243.263 174.6 244.559 175.968 246.287 175.968ZM252.407 215.208C249.815 214.56 249.455 214.344 249.455 210.384V182.088L240.959 183.744V184.464C243.983 184.896 244.559 185.904 244.559 188.352V210.384C244.559 214.056 244.415 214.416 241.679 215.208V216H252.407V215.208ZM284.921 199.368C284.921 212.4 280.097 215.856 274.409 215.856C268.721 215.856 263.825 212.4 263.825 199.368C263.825 186.336 268.721 182.88 274.409 182.88C280.097 182.88 284.921 186.336 284.921 199.368ZM290.753 199.368C290.753 189.864 285.425 182.088 274.409 182.088C263.465 182.088 258.065 189.864 258.065 199.368C258.065 208.8 263.465 216.648 274.409 216.648C285.425 216.648 290.753 208.8 290.753 199.368ZM326.838 215.28C324.246 214.632 323.886 214.344 323.886 210.384V193.824C323.886 185.184 319.422 182.088 313.518 182.088C308.982 182.088 304.302 185.472 302.862 189.504V182.088L294.294 183.744V184.464C297.318 184.896 297.894 185.904 297.894 188.424V210.384C297.894 214.056 297.75 214.416 295.014 215.208V216H305.814V215.208C303.222 214.56 302.862 214.344 302.862 210.384V191.16C303.726 188.712 306.678 184.824 310.782 184.824C316.11 184.824 318.99 188.496 318.99 194.112V210.384C318.99 214.056 318.846 214.488 316.11 215.28V216H326.838V215.28ZM335.862 216.36C337.662 216.36 339.174 214.848 339.174 213.048C339.174 211.104 337.662 209.664 335.862 209.664C333.99 209.664 332.55 211.104 332.55 213.048C332.55 214.848 333.99 216.36 335.862 216.36ZM408.15 165.312V166.104C417.15 166.104 414.63 172.872 411.534 183.168L402.75 208.872L390.15 171.216C389.934 170.496 388.638 166.104 395.046 166.104V165.312H377.478V166.104C380.142 166.104 382.59 166.752 384.462 171.648L388.062 182.376L379.566 208.656L366.174 171.216C365.886 170.496 364.734 166.104 371.07 166.104V165.312H353.43V166.104C356.166 166.104 358.614 166.752 360.486 171.648L376.974 216H377.91L388.494 183.528L400.014 216H400.878L412.398 183.312C417.942 167.832 418.734 166.104 424.998 166.104V165.312H408.15ZM427.429 197.856C427.429 187.776 432.757 182.88 436.861 182.88C440.029 182.88 445.573 186.696 445.573 197.856H427.429ZM448.741 207.36C447.589 211.032 442.909 214.272 438.301 214.056C432.253 213.768 427.573 209.736 427.429 198.72H450.469C450.469 187.344 444.349 182.088 436.933 182.088C428.581 182.088 421.885 188.856 421.885 199.728C421.885 209.808 428.293 216.648 437.005 216.648C444.925 216.648 448.813 210.816 449.317 207.576L448.741 207.36ZM458.004 181.656C461.028 180.072 461.964 178.488 462.756 177.048C464.628 174.024 465.06 169.632 463.044 167.616C461.748 166.32 459.66 166.248 458.292 167.616C456.996 168.912 457.068 171 458.364 172.296C459.084 172.944 459.876 173.16 460.668 173.304C461.82 173.52 462.828 177.696 457.644 181.296L458.004 181.656ZM481.406 215.208C478.814 214.56 478.454 214.344 478.454 210.384V163.152L469.886 164.736V165.528C472.91 165.816 473.486 166.824 473.486 169.344V210.384C473.486 214.056 473.342 214.416 470.606 215.208V216H481.406V215.208ZM496.594 215.208C494.002 214.56 493.642 214.344 493.642 210.384V163.152L485.074 164.736V165.528C488.098 165.816 488.674 166.824 488.674 169.344V210.384C488.674 214.056 488.53 214.416 485.794 215.208V216H496.594V215.208ZM541.963 193.176C541.963 201.24 537.067 203.616 533.755 203.616C530.587 203.616 525.691 201.24 525.691 193.176C525.691 185.112 530.155 182.88 533.755 182.88C536.851 182.88 541.963 185.112 541.963 193.176ZM552.547 186.84C553.843 185.904 554.131 184.104 553.123 182.808C552.475 181.944 551.323 181.584 550.171 181.656C548.515 181.728 545.635 182.88 543.835 185.544C541.531 183.384 537.787 182.088 533.755 182.088C525.763 182.088 520.507 187.344 520.507 193.176C520.507 196.992 522.163 201.024 526.051 202.752C519.499 204.336 519.931 210.168 519.931 210.168C519.931 212.4 520.723 214.344 522.883 215.424C517.915 218.52 515.251 223.632 517.987 228.312C521.011 233.568 531.523 234.864 541.171 229.392C548.731 225.144 548.947 219.744 548.947 219.744C550.171 211.032 541.315 211.68 536.347 211.68H528.427C519.427 211.68 522.739 203.544 526.771 203.112C528.715 203.976 530.947 204.408 533.755 204.408C541.891 204.408 547.147 199.008 547.147 193.176C547.147 190.584 546.211 187.776 544.339 185.976C545.707 183.888 548.227 183.672 548.083 184.248C547.867 184.968 548.083 185.76 548.515 186.408C549.523 187.632 551.323 187.848 552.547 186.84ZM522.307 227.016C522.523 227.232 516.691 220.752 523.675 215.856C526.051 216.72 528.787 216.648 529.579 216.648H539.659C546.283 216.648 546.355 220.32 546.355 220.32C546.355 220.32 546.787 224.856 540.739 228.672C534.547 232.56 525.403 230.688 522.307 227.016ZM562.218 197.856C562.218 187.776 567.546 182.88 571.65 182.88C574.818 182.88 580.362 186.696 580.362 197.856H562.218ZM583.53 207.36C582.378 211.032 577.698 214.272 573.09 214.056C567.042 213.768 562.362 209.736 562.218 198.72H585.258C585.258 187.344 579.138 182.088 571.722 182.088C563.37 182.088 556.674 188.856 556.674 199.728C556.674 209.808 563.082 216.648 571.794 216.648C579.714 216.648 583.602 210.816 584.106 207.576L583.53 207.36ZM607.985 210.6C607.409 212.328 605.681 213.912 603.593 213.912C600.281 213.912 598.049 211.968 598.049 205.416V183.528H606.401L606.545 182.736H598.049V171.504L593.081 172.152V182.736H589.337L589.481 183.528H593.081V205.632C593.081 214.344 596.249 216.648 601.217 216.648C605.033 216.648 607.769 213.912 608.561 210.888L607.985 210.6ZM656.012 200.736C656.012 212.472 650.036 215.856 645.5 215.856C640.244 215.856 636.572 211.968 636.572 205.344V193.536C636.572 187.848 639.884 184.104 645.212 184.104C651.764 184.104 656.012 189.648 656.012 200.736ZM662.132 199.584C662.132 190.44 657.524 182.088 647.156 182.088C643.34 182.088 638.732 183.96 636.572 187.632V163.152L628.004 164.736V165.528C631.028 165.816 631.676 166.824 631.676 169.272V215.64C631.676 216.792 634.268 214.92 635.852 213.12C638.3 215.28 641.612 216.648 645.716 216.648C655.148 216.648 662.132 210.456 662.132 199.584ZM687.4 197.928V209.088C686.608 210.816 684.736 213.984 680.272 213.984C676.024 213.984 674.08 210.96 674.08 207.864C674.08 203.184 678.4 200.088 687.4 197.928ZM695.68 213.768C692.512 213.768 692.584 209.448 692.584 209.448V196.488C692.584 187.92 690.64 182.088 683.584 182.088C683.584 182.088 680.128 181.944 677.104 183.456C673.288 185.544 671.92 187.776 671.488 188.784C671.056 189.72 671.2 190.944 671.92 191.88C672.928 193.248 674.8 193.392 676.024 192.384C677.32 191.304 677.608 189.432 676.528 188.136C676.024 187.488 675.304 187.2 674.584 187.056C674.152 186.984 674.656 185.472 677.752 184.032C683.872 181.296 687.4 185.688 687.4 193.104V197.136C675.232 200.304 669.112 202.32 669.112 209.16C669.112 216.648 677.248 216.648 677.248 216.648C682.288 216.648 686.392 214.056 687.4 210.456C687.616 216.864 692.944 216.648 692.944 216.648C696.328 216.648 698.272 213.984 698.704 211.824L697.984 211.536C697.48 213.768 695.68 213.768 695.68 213.768ZM730.731 206.856C729.579 210.024 725.763 214.128 719.643 213.84C714.459 213.624 708.483 209.52 708.483 198.936C708.483 185.04 716.835 182.88 719.859 182.88C725.619 182.88 727.851 185.472 727.131 185.328C726.627 185.184 725.835 185.544 725.259 186.12C724.107 187.2 724.179 188.928 725.331 190.08C726.339 191.088 728.283 190.944 729.291 189.936C730.083 189.144 730.155 187.992 729.867 187.056C729.579 185.832 727.923 182.088 719.859 182.088C709.491 182.088 702.939 190.44 702.939 199.512C702.939 211.176 711.219 216.648 718.491 216.648C727.275 216.648 730.659 210.6 731.307 207.072L730.731 206.856ZM766.737 215.208C764.865 215.208 763.137 214.992 761.121 212.688C761.121 212.688 750.609 201.528 747.945 197.784C760.617 184.536 763.065 183.528 767.457 183.456V182.736H751.833V183.456C761.625 183.384 750.681 193.176 750.681 193.176L743.913 200.088C743.913 200.088 749.529 206.712 750.105 207.504C755.505 214.632 757.233 216 762.201 216H766.737V215.208ZM744.705 215.208C742.113 214.56 741.753 214.344 741.753 210.384V163.152L733.185 164.736V165.528C736.209 165.816 736.785 166.824 736.785 169.344V210.384C736.785 214.056 736.641 214.416 733.905 215.208V216H744.705V215.208ZM805.282 210.6C804.706 212.328 802.978 213.912 800.89 213.912C797.578 213.912 795.346 211.968 795.346 205.416V183.528H803.698L803.842 182.736H795.346V171.504L790.378 172.152V182.736H786.634L786.778 183.528H790.378V205.632C790.378 214.344 793.546 216.648 798.514 216.648C802.33 216.648 805.066 213.912 805.858 210.888L805.282 210.6ZM836.663 199.368C836.663 212.4 831.839 215.856 826.151 215.856C820.463 215.856 815.567 212.4 815.567 199.368C815.567 186.336 820.463 182.88 826.151 182.88C831.839 182.88 836.663 186.336 836.663 199.368ZM842.495 199.368C842.495 189.864 837.167 182.088 826.151 182.088C815.207 182.088 809.807 189.864 809.807 199.368C809.807 208.8 815.207 216.648 826.151 216.648C837.167 216.648 842.495 208.8 842.495 199.368ZM89.5451 264.736V265.456C97.8971 265.384 93.5051 276.976 93.5051 276.976L88.2491 291.736L78.6731 271.144C78.6731 271.144 75.8651 265.456 80.9771 265.456V264.736H67.0811V265.456C68.2331 265.6 70.8971 266.032 72.4811 269.56C72.4811 269.56 75.1451 274.888 85.8731 298.144L82.3451 308.152C81.4091 310.672 79.9691 311.896 79.6811 310.816C79.4651 310.024 78.8891 309.232 78.0251 308.872C76.4411 308.152 74.5691 308.872 73.7771 310.528C73.1291 312.112 73.7771 313.984 75.4331 314.776C76.5851 315.28 78.2411 314.992 79.1051 314.344C79.9691 313.624 81.7691 312.112 83.0651 308.296L94.2971 277.12C98.2571 266.32 100.345 265.456 103.369 265.456V264.736H89.5451ZM131.675 281.368C131.675 294.4 126.851 297.856 121.163 297.856C115.475 297.856 110.579 294.4 110.579 281.368C110.579 268.336 115.475 264.88 121.163 264.88C126.851 264.88 131.675 268.336 131.675 281.368ZM137.507 281.368C137.507 271.864 132.179 264.088 121.163 264.088C110.219 264.088 104.819 271.864 104.819 281.368C104.819 290.8 110.219 298.648 121.163 298.648C132.179 298.648 137.507 290.8 137.507 281.368ZM175.176 296.704C172.152 296.344 171.504 295.768 171.504 292.312V264.088L163.152 265.384V266.176C166.608 266.248 166.536 266.536 166.536 270.928V289.936C165.456 293.032 162.864 295.912 158.544 295.912C154.368 295.912 150.408 293.752 150.408 287.632V264.088L141.552 265.384V266.176C145.584 266.176 145.584 266.464 145.584 271.288V287.848C145.584 296.992 151.488 298.648 156.456 298.648C161.424 298.648 165.528 295.336 166.536 291.664V297.64C166.536 297.64 166.536 298.936 168.192 298.576L175.176 297.424V296.704ZM201.252 257.968C202.908 257.968 204.348 256.6 204.348 254.944C204.348 253.216 202.908 251.848 201.252 251.848C199.524 251.848 198.228 253.216 198.228 254.944C198.228 256.6 199.524 257.968 201.252 257.968ZM207.372 297.208C204.78 296.56 204.42 296.344 204.42 292.384V264.088L195.924 265.744V266.464C198.948 266.896 199.524 267.904 199.524 270.352V292.384C199.524 296.056 199.38 296.416 196.644 297.208V298H207.372V297.208ZM243.342 297.28C240.75 296.632 240.39 296.344 240.39 292.384V275.824C240.39 267.184 235.926 264.088 230.022 264.088C225.486 264.088 220.806 267.472 219.366 271.504V264.088L210.798 265.744V266.464C213.822 266.896 214.398 267.904 214.398 270.424V292.384C214.398 296.056 214.254 296.416 211.518 297.208V298H222.318V297.208C219.726 296.56 219.366 296.344 219.366 292.384V273.16C220.23 270.712 223.182 266.824 227.286 266.824C232.614 266.824 235.494 270.496 235.494 276.112V292.384C235.494 296.056 235.35 296.488 232.614 297.28V298H243.342V297.28ZM275.707 297.208C273.115 296.56 272.755 296.344 272.755 292.384V245.152L264.187 246.736V247.528C267.211 247.816 267.787 248.824 267.787 251.344V292.384C267.787 296.056 267.643 296.416 264.907 297.208V298H275.707V297.208ZM285.855 279.856C285.855 269.776 291.183 264.88 295.287 264.88C298.455 264.88 303.999 268.696 303.999 279.856H285.855ZM307.167 289.36C306.015 293.032 301.335 296.272 296.727 296.056C290.679 295.768 285.999 291.736 285.855 280.72H308.895C308.895 269.344 302.775 264.088 295.359 264.088C287.007 264.088 280.311 270.856 280.311 281.728C280.311 291.808 286.719 298.648 295.431 298.648C303.351 298.648 307.239 292.816 307.743 289.576L307.167 289.36ZM336.086 295.264C339.47 290.44 337.454 284.752 330.902 280.72L323.63 276.184C317.366 272.224 317.15 264.88 324.998 264.88C333.854 264.88 335.726 270.496 336.014 275.536H336.734V266.392C336.734 266.392 333.278 264.088 324.998 264.088C317.654 264.088 315.782 268.48 315.782 268.48C313.406 273.232 314.846 276.832 321.686 281.584L328.958 285.976C334.43 289.576 336.302 297.856 327.446 297.856C317.582 297.856 316.07 291.592 315.782 285.832H315.062V295.984C315.062 295.984 318.734 298.648 327.446 298.648C333.782 298.648 336.086 295.264 336.086 295.264ZM366.109 295.264C369.493 290.44 367.477 284.752 360.925 280.72L353.653 276.184C347.389 272.224 347.173 264.88 355.021 264.88C363.877 264.88 365.749 270.496 366.037 275.536H366.757V266.392C366.757 266.392 363.301 264.088 355.021 264.088C347.677 264.088 345.805 268.48 345.805 268.48C343.429 273.232 344.869 276.832 351.709 281.584L358.981 285.976C364.453 289.576 366.325 297.856 357.469 297.856C347.605 297.856 346.093 291.592 345.805 285.832H345.085V295.984C345.085 295.984 348.757 298.648 357.469 298.648C363.805 298.648 366.109 295.264 366.109 295.264ZM409.106 292.6C408.53 294.328 406.802 295.912 404.714 295.912C401.402 295.912 399.17 293.968 399.17 287.416V265.528H407.522L407.666 264.736H399.17V253.504L394.202 254.152V264.736H390.458L390.602 265.528H394.202V287.632C394.202 296.344 397.37 298.648 402.338 298.648C406.154 298.648 408.89 295.912 409.682 292.888L409.106 292.6ZM444.592 297.28C442.072 296.632 441.64 296.272 441.64 292.312V275.896C441.64 267.256 437.248 264.088 431.272 264.088C426.376 264.088 421.408 268.192 420.4 272.44V245.152L411.832 246.808V247.6C414.856 247.888 415.432 248.824 415.432 251.344V292.312C415.432 295.984 415.288 296.416 412.552 297.208V298H423.352V297.208C420.76 296.56 420.4 296.272 420.4 292.312V273.376C421.336 271.144 424.216 266.896 428.536 266.896C434.008 266.896 436.744 270.424 436.744 276.184V292.312C436.744 295.984 436.6 296.488 433.864 297.28V298H444.592V297.28ZM466.865 279.928V291.088C466.073 292.816 464.201 295.984 459.737 295.984C455.489 295.984 453.545 292.96 453.545 289.864C453.545 285.184 457.865 282.088 466.865 279.928ZM475.145 295.768C471.977 295.768 472.049 291.448 472.049 291.448V278.488C472.049 269.92 470.105 264.088 463.049 264.088C463.049 264.088 459.593 263.944 456.569 265.456C452.753 267.544 451.385 269.776 450.953 270.784C450.521 271.72 450.665 272.944 451.385 273.88C452.393 275.248 454.265 275.392 455.489 274.384C456.785 273.304 457.073 271.432 455.993 270.136C455.489 269.488 454.769 269.2 454.049 269.056C453.617 268.984 454.121 267.472 457.217 266.032C463.337 263.296 466.865 267.688 466.865 275.104V279.136C454.697 282.304 448.577 284.32 448.577 291.16C448.577 298.648 456.713 298.648 456.713 298.648C461.753 298.648 465.857 296.056 466.865 292.456C467.081 298.864 472.409 298.648 472.409 298.648C475.793 298.648 477.737 295.984 478.169 293.824L477.449 293.536C476.945 295.768 475.145 295.768 475.145 295.768ZM512.428 297.28C509.836 296.632 509.476 296.344 509.476 292.384V275.824C509.476 267.184 505.012 264.088 499.108 264.088C494.572 264.088 489.892 267.472 488.452 271.504V264.088L479.884 265.744V266.464C482.908 266.896 483.484 267.904 483.484 270.424V292.384C483.484 296.056 483.34 296.416 480.604 297.208V298H491.404V297.208C488.812 296.56 488.452 296.344 488.452 292.384V273.16C489.316 270.712 492.268 266.824 496.372 266.824C501.7 266.824 504.58 270.496 504.58 276.112V292.384C504.58 296.056 504.436 296.488 501.7 297.28V298H512.428V297.28ZM535.66 261.473V261.508H540.301V261.473C540.371 255.285 545.258 250.68 551.762 250.68C557.984 250.68 562.906 255.039 562.906 260.594C562.906 265.023 561.078 268.047 553.836 275.676L535.906 294.625V298H568.988V293.711H542.621V293.57L556.754 278.805C565.191 270.051 567.688 265.867 567.688 260.312C567.688 252.543 560.762 246.461 551.902 246.461C542.621 246.461 535.73 252.824 535.66 261.473ZM598.379 298H603.055V286.539H610.613V282.285H603.055V247.199H596.023C584.809 262.914 578.164 272.863 572.645 282.145V286.539H598.379V298ZM577.496 282.145C582.559 273.918 588.957 264.355 598.309 251.418H598.379V282.285H577.496V282.145ZM671.469 298V247.27H666.652V269.84H636.98V247.27H632.199V298H636.98V274.199H666.652V298H671.469ZM685.777 251.559H698.328C705.711 251.559 710.176 255.531 710.176 262.246C710.176 269.031 705.887 272.969 698.504 272.969H685.777V251.559ZM685.777 277.223H698.504C698.75 277.223 699.102 277.223 699.277 277.223L710.949 298H716.574L704.27 276.449C711.055 274.691 715.133 269.277 715.133 262.105C715.133 253.07 708.805 247.27 698.891 247.27H680.996V298H685.777V277.223ZM720.512 284.219C721.039 292.938 728.492 298.809 739.109 298.809C750.324 298.809 757.496 292.973 757.496 284.078C757.496 277.012 753.207 273.109 743.012 270.543L737.527 269.137C730.074 267.238 726.91 264.672 726.91 260.312C726.91 254.723 732.113 250.82 739.145 250.82C746.352 250.82 751.414 254.617 751.871 260.348H756.688C756.406 252.297 749.164 246.461 739.285 246.461C729.301 246.461 721.918 252.297 721.918 260.488C721.918 267.168 726.102 271.141 735.488 273.531L741.781 275.148C749.305 277.047 752.574 279.859 752.574 284.605C752.574 290.301 747.125 294.449 739.531 294.449C731.586 294.449 725.855 290.301 725.328 284.219H720.512ZM768.746 298.316C770.574 298.316 772.016 296.875 772.016 295.047C772.016 293.184 770.574 291.742 768.746 291.742C766.918 291.742 765.441 293.184 765.441 295.047C765.441 296.875 766.918 298.316 768.746 298.316Z" fill="white"/>
<path d="M172.25 64.9727H671.75V68.3125H172.25V64.9727ZM531.617 310.973H777.676V314.312H531.617V310.973Z" fill="white"/>
</svg>
