<svg width="963" height="234" viewBox="0 0 963 234" fill="none" xmlns="http://www.w3.org/2000/svg">
<path d="M46.6836 32.3984V27.5117H26.1523V31.7305H41.9023V33.5234C41.9023 43.0859 35.4336 49.3438 25.625 49.3438C14.7617 49.3438 7.76562 40.7305 7.76562 27.3359C7.76562 14.1172 14.6211 5.92578 25.625 5.92578C33.3594 5.92578 39.3008 10.2852 41.375 17.5273H46.3672C44.4688 7.82422 36.2773 1.46094 25.625 1.46094C11.7734 1.46094 2.84375 11.6211 2.84375 27.3359C2.84375 43.332 11.8789 53.8086 25.625 53.8086C38.8086 53.8086 46.6836 45.793 46.6836 32.3984ZM59.2344 6.55859H71.7852C79.168 6.55859 83.6328 10.5312 83.6328 17.2461C83.6328 24.0312 79.3438 27.9688 71.9609 27.9688H59.2344V6.55859ZM59.2344 32.2227H71.9609C72.207 32.2227 72.5586 32.2227 72.7344 32.2227L84.4062 53H90.0312L77.7266 31.4492C84.5117 29.6914 88.5898 24.2773 88.5898 17.1055C88.5898 8.07031 82.2617 2.26953 72.3477 2.26953H54.4531V53H59.2344V32.2227ZM130.145 53H135.207L116.258 2.26953H111.477L92.4922 53H97.5898L103.215 37.4609H124.52L130.145 53ZM113.762 8.21094H113.973L123.078 33.3125H104.656L113.762 8.21094ZM159.746 53.8086C170.75 53.8086 178.52 47.8672 180.312 37.9883H175.496C173.984 45.0195 167.867 49.3438 159.781 49.3438C148.988 49.3438 142.062 40.8711 142.062 27.5117C142.062 14.3281 148.988 5.92578 159.746 5.92578C167.621 5.92578 174.09 11.0586 175.496 18.3711H180.312C178.941 8.45703 170.469 1.46094 159.746 1.46094C145.965 1.46094 137.141 11.6211 137.141 27.5117C137.141 43.5781 145.93 53.8086 159.746 53.8086ZM192.195 53V2.26953H187.414V53H192.195ZM235.402 53H240.465L221.516 2.26953H216.734L197.75 53H202.848L208.473 37.4609H229.777L235.402 53ZM219.02 8.21094H219.23L228.336 33.3125H209.914L219.02 8.21094ZM243.594 39.2188C244.121 47.9375 251.574 53.8086 262.191 53.8086C273.406 53.8086 280.578 47.9727 280.578 39.0781C280.578 32.0117 276.289 28.1094 266.094 25.543L260.609 24.1367C253.156 22.2383 249.992 19.6719 249.992 15.3125C249.992 9.72266 255.195 5.82031 262.227 5.82031C269.434 5.82031 274.496 9.61719 274.953 15.3477H279.77C279.488 7.29688 272.246 1.46094 262.367 1.46094C252.383 1.46094 245 7.29688 245 15.4883C245 22.168 249.184 26.1406 258.57 28.5312L264.863 30.1484C272.387 32.0469 275.656 34.8594 275.656 39.6055C275.656 45.3008 270.207 49.4492 262.613 49.4492C254.668 49.4492 248.938 45.3008 248.41 39.2188H243.594ZM329.461 37.88C329.461 49.688 323.485 52.856 318.877 52.856C313.909 52.856 310.309 49.4 310.021 43.424V29.672C310.309 24.488 313.549 21.032 318.661 21.032C325.069 21.032 329.461 26.504 329.461 37.88ZM335.581 36.656C335.581 27.368 330.901 19.088 320.533 19.088C316.717 19.088 312.109 20.96 310.021 24.56V19.088L301.453 20.744V21.464C304.477 21.752 305.053 22.688 305.053 25.208V66.608C305.053 70.28 304.909 70.496 302.173 71.288V72.08H312.973V71.288C310.381 70.64 310.021 70.568 310.021 66.608V50.696C312.325 52.496 315.349 53.648 319.165 53.648C328.525 53.648 335.581 47.672 335.581 36.656ZM369.484 36.368C369.484 49.4 364.66 52.856 358.972 52.856C353.284 52.856 348.388 49.4 348.388 36.368C348.388 23.336 353.284 19.88 358.972 19.88C364.66 19.88 369.484 23.336 369.484 36.368ZM375.316 36.368C375.316 26.864 369.988 19.088 358.972 19.088C348.028 19.088 342.628 26.864 342.628 36.368C342.628 45.8 348.028 53.648 358.972 53.648C369.988 53.648 375.316 45.8 375.316 36.368ZM398.009 19.232C394.481 19.232 389.801 22.04 387.713 26.288V19.088L379.145 20.744V21.464C382.169 21.824 382.745 22.904 382.745 25.352V47.384C382.745 51.056 382.601 51.416 379.865 52.208V53H390.665V52.208C388.073 51.56 387.713 51.344 387.713 47.384V27.872C389.801 22.832 395.561 20.6 395.201 22.04C394.985 22.832 395.129 23.696 395.561 24.416C396.641 26 398.729 26.432 400.241 25.424C401.825 24.416 402.257 22.4 401.249 20.816C400.457 19.736 399.161 19.232 398.009 19.232ZM447.914 43.352C447.914 48.392 444.026 51.776 439.346 51.776C432.866 51.776 428.618 46.088 428.618 34.784C428.618 22.904 434.666 19.88 439.202 19.88C443.666 19.88 447.914 23.624 447.914 29.528V43.352ZM456.482 51.632C453.602 51.776 452.81 51.56 452.81 48.032V0.151998L444.242 1.736V2.528C447.194 2.816 447.914 3.896 447.914 6.416V21.968C445.61 20.24 442.586 19.088 438.986 19.088C429.626 19.088 422.498 24.992 422.498 36.008C422.498 45.368 427.178 53.648 437.546 53.648C441.218 53.648 445.754 51.992 447.914 48.608V52.28C447.914 52.28 447.914 53.936 449.93 53.576L456.482 52.352V51.632ZM465.515 34.856C465.515 24.776 470.843 19.88 474.947 19.88C478.115 19.88 483.659 23.696 483.659 34.856H465.515ZM486.827 44.36C485.675 48.032 480.995 51.272 476.387 51.056C470.339 50.768 465.659 46.736 465.515 35.72H488.555C488.555 24.344 482.435 19.088 475.019 19.088C466.667 19.088 459.971 25.856 459.971 36.728C459.971 46.808 466.379 53.648 475.091 53.648C483.011 53.648 486.899 47.816 487.403 44.576L486.827 44.36ZM498.754 12.968C500.41 12.968 501.85 11.6 501.85 9.944C501.85 8.144 500.41 6.848 498.754 6.848C497.026 6.848 495.73 8.144 495.73 9.944C495.73 11.6 497.026 12.968 498.754 12.968ZM496.954 51.056C496.954 54.872 496.954 66.536 490.474 68.696V69.416C497.602 67.616 501.922 63.008 501.922 49.4V19.088L493.426 20.744V21.464C496.522 21.896 496.954 23.264 496.954 25.712V51.056ZM528.822 34.928V46.088C528.03 47.816 526.158 50.984 521.694 50.984C517.446 50.984 515.502 47.96 515.502 44.864C515.502 40.184 519.822 37.088 528.822 34.928ZM537.102 50.768C533.934 50.768 534.006 46.448 534.006 46.448V33.488C534.006 24.92 532.062 19.088 525.006 19.088C525.006 19.088 521.55 18.944 518.526 20.456C514.71 22.544 513.342 24.776 512.91 25.784C512.478 26.72 512.622 27.944 513.342 28.88C514.35 30.248 516.222 30.392 517.446 29.384C518.742 28.304 519.03 26.432 517.95 25.136C517.446 24.488 516.726 24.2 516.006 24.056C515.574 23.984 516.078 22.472 519.174 21.032C525.294 18.296 528.822 22.688 528.822 30.104V34.136C516.654 37.304 510.534 39.32 510.534 46.16C510.534 53.648 518.67 53.648 518.67 53.648C523.71 53.648 527.814 51.056 528.822 47.456C529.038 53.864 534.366 53.648 534.366 53.648C537.75 53.648 539.694 50.984 540.126 48.824L539.406 48.536C538.902 50.768 537.102 50.768 537.102 50.768ZM560.993 19.232C557.465 19.232 552.785 22.04 550.697 26.288V19.088L542.129 20.744V21.464C545.153 21.824 545.729 22.904 545.729 25.352V47.384C545.729 51.056 545.585 51.416 542.849 52.208V53H553.649V52.208C551.057 51.56 550.697 51.344 550.697 47.384V27.872C552.785 22.832 558.545 20.6 558.185 22.04C557.969 22.832 558.113 23.696 558.545 24.416C559.625 26 561.713 26.432 563.225 25.424C564.809 24.416 565.241 22.4 564.233 20.816C563.441 19.736 562.145 19.232 560.993 19.232ZM598.573 52.28C595.981 51.632 595.621 51.344 595.621 47.384V30.824C595.621 22.184 591.157 19.088 585.253 19.088C580.717 19.088 576.037 22.472 574.597 26.504V19.088L566.029 20.744V21.464C569.053 21.896 569.629 22.904 569.629 25.424V47.384C569.629 51.056 569.485 51.416 566.749 52.208V53H577.549V52.208C574.957 51.56 574.597 51.344 574.597 47.384V28.16C575.461 25.712 578.413 21.824 582.517 21.824C587.845 21.824 590.725 25.496 590.725 31.112V47.384C590.725 51.056 590.581 51.488 587.845 52.28V53H598.573V52.28ZM630.132 36.368C630.132 49.4 625.308 52.856 619.62 52.856C613.932 52.856 609.036 49.4 609.036 36.368C609.036 23.336 613.932 19.88 619.62 19.88C625.308 19.88 630.132 23.336 630.132 36.368ZM635.964 36.368C635.964 26.864 630.636 19.088 619.62 19.088C608.676 19.088 603.276 26.864 603.276 36.368C603.276 45.8 608.676 53.648 619.62 53.648C630.636 53.648 635.964 45.8 635.964 36.368ZM663.121 50.264C666.505 45.44 664.489 39.752 657.937 35.72L650.665 31.184C644.401 27.224 644.185 19.88 652.033 19.88C660.889 19.88 662.761 25.496 663.049 30.536H663.769V21.392C663.769 21.392 660.313 19.088 652.033 19.088C644.689 19.088 642.817 23.48 642.817 23.48C640.441 28.232 641.881 31.832 648.721 36.584L655.993 40.976C661.465 44.576 663.337 52.856 654.481 52.856C644.617 52.856 643.105 46.592 642.817 40.832H642.097V50.984C642.097 50.984 645.769 53.648 654.481 53.648C660.817 53.648 663.121 50.264 663.121 50.264ZM706.118 47.6C705.542 49.328 703.814 50.912 701.726 50.912C698.414 50.912 696.182 48.968 696.182 42.416V20.528H704.534L704.678 19.736H696.182V8.504L691.214 9.152V19.736H687.47L687.614 20.528H691.214V42.632C691.214 51.344 694.382 53.648 699.35 53.648C703.166 53.648 705.902 50.912 706.694 47.888L706.118 47.6ZM742.539 51.704C739.515 51.344 738.867 50.768 738.867 47.312V19.088L730.515 20.384V21.176C733.971 21.248 733.899 21.536 733.899 25.928V44.936C732.819 48.032 730.227 50.912 725.907 50.912C721.731 50.912 717.771 48.752 717.771 42.632V19.088L708.915 20.384V21.176C712.947 21.176 712.947 21.464 712.947 26.288V42.848C712.947 51.992 718.851 53.648 723.819 53.648C728.787 53.648 732.891 50.336 733.899 46.664V52.64C733.899 52.64 733.899 53.936 735.555 53.576L742.539 52.424V51.704ZM768.098 50.264C771.482 45.44 769.466 39.752 762.914 35.72L755.642 31.184C749.378 27.224 749.162 19.88 757.01 19.88C765.866 19.88 767.738 25.496 768.026 30.536H768.746V21.392C768.746 21.392 765.29 19.088 757.01 19.088C749.666 19.088 747.794 23.48 747.794 23.48C745.418 28.232 746.858 31.832 753.698 36.584L760.97 40.976C766.442 44.576 768.314 52.856 759.458 52.856C749.594 52.856 748.082 46.592 747.794 40.832H747.074V50.984C747.074 50.984 750.746 53.648 759.458 53.648C765.794 53.648 768.098 50.264 768.098 50.264ZM819.375 43.352C819.375 48.392 815.487 51.776 810.807 51.776C804.327 51.776 800.079 46.088 800.079 34.784C800.079 22.904 806.127 19.88 810.663 19.88C815.127 19.88 819.375 23.624 819.375 29.528V43.352ZM827.943 51.632C825.063 51.776 824.271 51.56 824.271 48.032V0.151998L815.703 1.736V2.528C818.655 2.816 819.375 3.896 819.375 6.416V21.968C817.071 20.24 814.047 19.088 810.447 19.088C801.087 19.088 793.959 24.992 793.959 36.008C793.959 45.368 798.639 53.648 809.007 53.648C812.679 53.648 817.215 51.992 819.375 48.608V52.28C819.375 52.28 819.375 53.936 821.391 53.576L827.943 52.352V51.632ZM850.08 34.928V46.088C849.288 47.816 847.416 50.984 842.952 50.984C838.704 50.984 836.76 47.96 836.76 44.864C836.76 40.184 841.08 37.088 850.08 34.928ZM858.36 50.768C855.192 50.768 855.264 46.448 855.264 46.448V33.488C855.264 24.92 853.32 19.088 846.264 19.088C846.264 19.088 842.808 18.944 839.784 20.456C835.968 22.544 834.6 24.776 834.168 25.784C833.736 26.72 833.88 27.944 834.6 28.88C835.608 30.248 837.48 30.392 838.704 29.384C840 28.304 840.288 26.432 839.208 25.136C838.704 24.488 837.984 24.2 837.264 24.056C836.832 23.984 837.336 22.472 840.432 21.032C846.552 18.296 850.08 22.688 850.08 30.104V34.136C837.912 37.304 831.792 39.32 831.792 46.16C831.792 53.648 839.928 53.648 839.928 53.648C844.968 53.648 849.072 51.056 850.08 47.456C850.296 53.864 855.624 53.648 855.624 53.648C859.008 53.648 860.952 50.984 861.384 48.824L860.664 48.536C860.16 50.768 858.36 50.768 858.36 50.768ZM882.251 47.6C881.675 49.328 879.947 50.912 877.859 50.912C874.547 50.912 872.315 48.968 872.315 42.416V20.528H880.667L880.811 19.736H872.315V8.504L867.347 9.152V19.736H863.603L863.747 20.528H867.347V42.632C867.347 51.344 870.515 53.648 875.483 53.648C879.299 53.648 882.035 50.912 882.827 47.888L882.251 47.6ZM913.632 36.368C913.632 49.4 908.808 52.856 903.12 52.856C897.432 52.856 892.536 49.4 892.536 36.368C892.536 23.336 897.432 19.88 903.12 19.88C908.808 19.88 913.632 23.336 913.632 36.368ZM919.464 36.368C919.464 26.864 914.136 19.088 903.12 19.088C892.176 19.088 886.776 26.864 886.776 36.368C886.776 45.8 892.176 53.648 903.12 53.648C914.136 53.648 919.464 45.8 919.464 36.368ZM946.621 50.264C950.005 45.44 947.989 39.752 941.437 35.72L934.165 31.184C927.901 27.224 927.685 19.88 935.533 19.88C944.389 19.88 946.261 25.496 946.549 30.536H947.269V21.392C947.269 21.392 943.813 19.088 935.533 19.088C928.189 19.088 926.317 23.48 926.317 23.48C923.941 28.232 925.381 31.832 932.221 36.584L939.493 40.976C944.965 44.576 946.837 52.856 937.981 52.856C928.117 52.856 926.605 46.592 926.317 40.832H925.597V50.984C925.597 50.984 929.269 53.648 937.981 53.648C944.317 53.648 946.621 50.264 946.621 50.264ZM959.581 53.36C961.381 53.36 962.893 51.848 962.893 50.048C962.893 48.104 961.381 46.664 959.581 46.664C957.709 46.664 956.269 48.104 956.269 50.048C956.269 51.848 957.709 53.36 959.581 53.36ZM99.0996 84.312V85.032C108.316 85.032 108.316 92.016 108.316 102.024V126.648L76.1316 84.312H64.9716V85.032C66.8436 85.176 68.9316 84.888 73.5396 90.648L76.5636 94.608V117.144C76.5636 126.864 76.4916 134.208 66.3396 134.208V135H86.6436V134.208C77.3556 134.208 77.3556 126.72 77.3556 117.144V95.544L107.596 135H109.108V102.024C109.108 92.016 108.892 85.032 119.044 85.032V84.312H99.0996ZM150.038 118.368C150.038 131.4 145.214 134.856 139.526 134.856C133.838 134.856 128.942 131.4 128.942 118.368C128.942 105.336 133.838 101.88 139.526 101.88C145.214 101.88 150.038 105.336 150.038 118.368ZM155.87 118.368C155.87 108.864 150.542 101.088 139.526 101.088C128.582 101.088 123.182 108.864 123.182 118.368C123.182 127.8 128.582 135.648 139.526 135.648C150.542 135.648 155.87 127.8 155.87 118.368ZM183.027 132.264C186.411 127.44 184.395 121.752 177.843 117.72L170.571 113.184C164.307 109.224 164.091 101.88 171.939 101.88C180.795 101.88 182.667 107.496 182.955 112.536H183.675V103.392C183.675 103.392 180.219 101.088 171.939 101.088C164.595 101.088 162.723 105.48 162.723 105.48C160.347 110.232 161.787 113.832 168.627 118.584L175.899 122.976C181.371 126.576 183.243 134.856 174.387 134.856C164.523 134.856 163.011 128.592 162.723 122.832H162.003V132.984C162.003 132.984 165.675 135.648 174.387 135.648C180.723 135.648 183.027 132.264 183.027 132.264ZM237.184 125.856C236.032 129.024 232.216 133.128 226.096 132.84C220.912 132.624 214.936 128.52 214.936 117.936C214.936 104.04 223.288 101.88 226.312 101.88C232.072 101.88 234.304 104.472 233.584 104.328C233.08 104.184 232.288 104.544 231.712 105.12C230.56 106.2 230.632 107.928 231.784 109.08C232.792 110.088 234.736 109.944 235.744 108.936C236.536 108.144 236.608 106.992 236.32 106.056C236.032 104.832 234.376 101.088 226.312 101.088C215.944 101.088 209.392 109.44 209.392 118.512C209.392 130.176 217.672 135.648 224.944 135.648C233.728 135.648 237.112 129.6 237.76 126.072L237.184 125.856ZM269.992 118.368C269.992 131.4 265.168 134.856 259.48 134.856C253.792 134.856 248.896 131.4 248.896 118.368C248.896 105.336 253.792 101.88 259.48 101.88C265.168 101.88 269.992 105.336 269.992 118.368ZM275.824 118.368C275.824 108.864 270.496 101.088 259.48 101.088C248.536 101.088 243.136 108.864 243.136 118.368C243.136 127.8 248.536 135.648 259.48 135.648C270.496 135.648 275.824 127.8 275.824 118.368ZM329.549 134.28C326.957 133.632 326.597 133.344 326.597 129.384V112.824C326.597 104.184 322.925 101.088 316.949 101.088C312.341 101.088 308.309 104.616 307.013 108.864C306.077 103.32 302.837 101.088 297.797 101.088C293.261 101.088 289.301 104.4 287.933 108.432V101.088L279.365 102.744V103.464C282.389 103.896 282.965 104.976 282.965 107.496V129.384C282.965 133.056 282.821 133.416 280.085 134.208V135H290.885V134.208C288.293 133.56 287.933 133.344 287.933 129.384V110.16C288.653 107.784 291.101 103.824 295.277 103.824C300.533 103.824 302.405 107.352 302.405 113.112V129.384C302.405 133.056 302.261 133.488 299.525 134.28V135H310.253V134.28C307.733 133.632 307.301 133.344 307.301 129.384V112.968C307.301 111.96 307.301 110.952 307.301 110.304C308.021 107.856 310.325 103.824 314.501 103.824C319.685 103.824 321.701 107.352 321.701 113.112V129.384C321.701 133.056 321.557 133.488 318.821 134.28V135H329.549V134.28ZM364.539 133.704C361.515 133.344 360.867 132.768 360.867 129.312V101.088L352.515 102.384V103.176C355.971 103.248 355.899 103.536 355.899 107.928V126.936C354.819 130.032 352.227 132.912 347.907 132.912C343.731 132.912 339.771 130.752 339.771 124.632V101.088L330.915 102.384V103.176C334.947 103.176 334.947 103.464 334.947 108.288V124.848C334.947 133.992 340.851 135.648 345.819 135.648C350.787 135.648 354.891 132.336 355.899 128.664V134.64C355.899 134.64 355.899 135.936 357.555 135.576L364.539 134.424V133.704ZM399.026 134.28C396.434 133.632 396.074 133.344 396.074 129.384V112.824C396.074 104.184 391.61 101.088 385.706 101.088C381.17 101.088 376.49 104.472 375.05 108.504V101.088L366.482 102.744V103.464C369.506 103.896 370.082 104.904 370.082 107.424V129.384C370.082 133.056 369.938 133.416 367.202 134.208V135H378.002V134.208C375.41 133.56 375.05 133.344 375.05 129.384V110.16C375.914 107.712 378.866 103.824 382.97 103.824C388.298 103.824 391.178 107.496 391.178 113.112V129.384C391.178 133.056 391.034 133.488 388.298 134.28V135H399.026V134.28ZM408.193 94.968C409.849 94.968 411.289 93.6 411.289 91.944C411.289 90.216 409.849 88.848 408.193 88.848C406.465 88.848 405.169 90.216 405.169 91.944C405.169 93.6 406.465 94.968 408.193 94.968ZM414.313 134.208C411.721 133.56 411.361 133.344 411.361 129.384V101.088L402.865 102.744V103.464C405.889 103.896 406.465 104.904 406.465 107.352V129.384C406.465 133.056 406.321 133.416 403.585 134.208V135H414.313V134.208ZM448.052 125.856C446.9 129.024 443.084 133.128 436.964 132.84C431.78 132.624 425.804 128.52 425.804 117.936C425.804 104.04 434.156 101.88 437.18 101.88C442.94 101.88 445.172 104.472 444.452 104.328C443.948 104.184 443.156 104.544 442.58 105.12C441.428 106.2 441.5 107.928 442.652 109.08C443.66 110.088 445.604 109.944 446.612 108.936C447.404 108.144 447.476 106.992 447.188 106.056C446.9 104.832 445.244 101.088 437.18 101.088C426.812 101.088 420.26 109.44 420.26 118.512C420.26 130.176 428.54 135.648 435.812 135.648C444.596 135.648 447.98 129.6 448.628 126.072L448.052 125.856ZM472.291 116.928V128.088C471.499 129.816 469.627 132.984 465.163 132.984C460.915 132.984 458.971 129.96 458.971 126.864C458.971 122.184 463.291 119.088 472.291 116.928ZM480.571 132.768C477.403 132.768 477.475 128.448 477.475 128.448V115.488C477.475 106.92 475.531 101.088 468.475 101.088C468.475 101.088 465.019 100.944 461.995 102.456C458.179 104.544 456.811 106.776 456.379 107.784C455.947 108.72 456.091 109.944 456.811 110.88C457.819 112.248 459.691 112.392 460.915 111.384C462.211 110.304 462.499 108.432 461.419 107.136C460.915 106.488 460.195 106.2 459.475 106.056C459.043 105.984 459.547 104.472 462.643 103.032C468.763 100.296 472.291 104.688 472.291 112.104V116.136C460.123 119.304 454.003 121.32 454.003 128.16C454.003 135.648 462.139 135.648 462.139 135.648C467.179 135.648 471.283 133.056 472.291 129.456C472.507 135.864 477.835 135.648 477.835 135.648C481.219 135.648 483.163 132.984 483.595 130.824L482.875 130.536C482.371 132.768 480.571 132.768 480.571 132.768ZM504.462 101.232C500.934 101.232 496.254 104.04 494.166 108.288V101.088L485.598 102.744V103.464C488.622 103.824 489.198 104.904 489.198 107.352V129.384C489.198 133.056 489.054 133.416 486.318 134.208V135H497.118V134.208C494.526 133.56 494.166 133.344 494.166 129.384V109.872C496.254 104.832 502.014 102.6 501.654 104.04C501.438 104.832 501.582 105.696 502.014 106.416C503.094 108 505.182 108.432 506.694 107.424C508.278 106.416 508.71 104.4 507.702 102.816C506.91 101.736 505.614 101.232 504.462 101.232ZM516.913 116.856C516.913 106.776 522.241 101.88 526.345 101.88C529.513 101.88 535.057 105.696 535.057 116.856H516.913ZM538.225 126.36C537.073 130.032 532.393 133.272 527.785 133.056C521.737 132.768 517.057 128.736 516.913 117.72H539.953C539.953 106.344 533.833 101.088 526.417 101.088C518.065 101.088 511.369 107.856 511.369 118.728C511.369 128.808 517.777 135.648 526.489 135.648C534.409 135.648 538.297 129.816 538.801 126.576L538.225 126.36ZM593.713 134.28C591.121 133.632 590.761 133.344 590.761 129.384V112.824C590.761 104.184 587.089 101.088 581.113 101.088C576.505 101.088 572.473 104.616 571.177 108.864C570.241 103.32 567.001 101.088 561.961 101.088C557.425 101.088 553.465 104.4 552.097 108.432V101.088L543.529 102.744V103.464C546.553 103.896 547.129 104.976 547.129 107.496V129.384C547.129 133.056 546.985 133.416 544.249 134.208V135H555.049V134.208C552.457 133.56 552.097 133.344 552.097 129.384V110.16C552.817 107.784 555.265 103.824 559.441 103.824C564.697 103.824 566.569 107.352 566.569 113.112V129.384C566.569 133.056 566.425 133.488 563.689 134.28V135H574.417V134.28C571.897 133.632 571.465 133.344 571.465 129.384V112.968C571.465 111.96 571.465 110.952 571.465 110.304C572.185 107.856 574.489 103.824 578.665 103.824C583.849 103.824 585.865 107.352 585.865 113.112V129.384C585.865 133.056 585.721 133.488 582.985 134.28V135H593.713V134.28ZM624.507 118.368C624.507 131.4 619.683 134.856 613.995 134.856C608.307 134.856 603.411 131.4 603.411 118.368C603.411 105.336 608.307 101.88 613.995 101.88C619.683 101.88 624.507 105.336 624.507 118.368ZM630.339 118.368C630.339 108.864 625.011 101.088 613.995 101.088C603.051 101.088 597.651 108.864 597.651 118.368C597.651 127.8 603.051 135.648 613.995 135.648C625.011 135.648 630.339 127.8 630.339 118.368ZM657.496 132.264C660.88 127.44 658.864 121.752 652.312 117.72L645.04 113.184C638.776 109.224 638.56 101.88 646.408 101.88C655.264 101.88 657.136 107.496 657.424 112.536H658.144V103.392C658.144 103.392 654.688 101.088 646.408 101.088C639.064 101.088 637.192 105.48 637.192 105.48C634.816 110.232 636.256 113.832 643.096 118.584L650.368 122.976C655.84 126.576 657.712 134.856 648.856 134.856C638.992 134.856 637.48 128.592 637.192 122.832H636.472V132.984C636.472 132.984 640.144 135.648 648.856 135.648C655.192 135.648 657.496 132.264 657.496 132.264ZM711.653 125.856C710.501 129.024 706.685 133.128 700.565 132.84C695.381 132.624 689.405 128.52 689.405 117.936C689.405 104.04 697.757 101.88 700.781 101.88C706.541 101.88 708.773 104.472 708.053 104.328C707.549 104.184 706.757 104.544 706.181 105.12C705.029 106.2 705.101 107.928 706.253 109.08C707.261 110.088 709.205 109.944 710.213 108.936C711.005 108.144 711.077 106.992 710.789 106.056C710.501 104.832 708.845 101.088 700.781 101.088C690.413 101.088 683.861 109.44 683.861 118.512C683.861 130.176 692.141 135.648 699.413 135.648C708.197 135.648 711.581 129.6 712.229 126.072L711.653 125.856ZM744.46 118.368C744.46 131.4 739.636 134.856 733.948 134.856C728.26 134.856 723.364 131.4 723.364 118.368C723.364 105.336 728.26 101.88 733.948 101.88C739.636 101.88 744.46 105.336 744.46 118.368ZM750.292 118.368C750.292 108.864 744.964 101.088 733.948 101.088C723.004 101.088 717.604 108.864 717.604 118.368C717.604 127.8 723.004 135.648 733.948 135.648C744.964 135.648 750.292 127.8 750.292 118.368ZM786.377 134.28C783.785 133.632 783.425 133.344 783.425 129.384V112.824C783.425 104.184 778.961 101.088 773.057 101.088C768.521 101.088 763.841 104.472 762.401 108.504V101.088L753.833 102.744V103.464C756.857 103.896 757.433 104.904 757.433 107.424V129.384C757.433 133.056 757.289 133.416 754.553 134.208V135H765.353V134.208C762.761 133.56 762.401 133.344 762.401 129.384V110.16C763.265 107.712 766.217 103.824 770.321 103.824C775.649 103.824 778.529 107.496 778.529 113.112V129.384C778.529 133.056 778.385 133.488 775.649 134.28V135H786.377V134.28ZM808.001 129.6C807.425 131.328 805.697 132.912 803.609 132.912C800.297 132.912 798.065 130.968 798.065 124.416V102.528H806.417L806.561 101.736H798.065V90.504L793.097 91.152V101.736H789.353L789.497 102.528H793.097V124.632C793.097 133.344 796.265 135.648 801.233 135.648C805.049 135.648 807.785 132.912 808.577 129.888L808.001 129.6ZM816.99 94.968C818.646 94.968 820.086 93.6 820.086 91.944C820.086 90.216 818.646 88.848 816.99 88.848C815.262 88.848 813.966 90.216 813.966 91.944C813.966 93.6 815.262 94.968 816.99 94.968ZM823.11 134.208C820.518 133.56 820.158 133.344 820.158 129.384V101.088L811.662 102.744V103.464C814.686 103.896 815.262 104.904 815.262 107.352V129.384C815.262 133.056 815.118 133.416 812.382 134.208V135H823.11V134.208ZM851.736 112.176C851.736 120.24 846.84 122.616 843.528 122.616C840.36 122.616 835.464 120.24 835.464 112.176C835.464 104.112 839.928 101.88 843.528 101.88C846.624 101.88 851.736 104.112 851.736 112.176ZM862.32 105.84C863.616 104.904 863.904 103.104 862.896 101.808C862.248 100.944 861.096 100.584 859.944 100.656C858.288 100.728 855.408 101.88 853.608 104.544C851.304 102.384 847.56 101.088 843.528 101.088C835.536 101.088 830.28 106.344 830.28 112.176C830.28 115.992 831.936 120.024 835.824 121.752C829.272 123.336 829.704 129.168 829.704 129.168C829.704 131.4 830.496 133.344 832.656 134.424C827.688 137.52 825.024 142.632 827.76 147.312C830.784 152.568 841.296 153.864 850.944 148.392C858.504 144.144 858.72 138.744 858.72 138.744C859.944 130.032 851.088 130.68 846.12 130.68H838.2C829.2 130.68 832.512 122.544 836.544 122.112C838.488 122.976 840.72 123.408 843.528 123.408C851.664 123.408 856.92 118.008 856.92 112.176C856.92 109.584 855.984 106.776 854.112 104.976C855.48 102.888 858 102.672 857.856 103.248C857.64 103.968 857.856 104.76 858.288 105.408C859.296 106.632 861.096 106.848 862.32 105.84ZM832.08 146.016C832.296 146.232 826.464 139.752 833.448 134.856C835.824 135.72 838.56 135.648 839.352 135.648H849.432C856.056 135.648 856.128 139.32 856.128 139.32C856.128 139.32 856.56 143.856 850.512 147.672C844.32 151.56 835.176 149.688 832.08 146.016ZM893.663 118.368C893.663 131.4 888.839 134.856 883.151 134.856C877.463 134.856 872.567 131.4 872.567 118.368C872.567 105.336 877.463 101.88 883.151 101.88C888.839 101.88 893.663 105.336 893.663 118.368ZM899.495 118.368C899.495 108.864 894.167 101.088 883.151 101.088C872.207 101.088 866.807 108.864 866.807 118.368C866.807 127.8 872.207 135.648 883.151 135.648C894.167 135.648 899.495 127.8 899.495 118.368ZM147.562 198.856C147.562 188.776 152.89 183.88 156.994 183.88C160.162 183.88 165.706 187.696 165.706 198.856H147.562ZM168.874 208.36C167.722 212.032 163.042 215.272 158.434 215.056C152.386 214.768 147.706 210.736 147.562 199.72H170.602C170.602 188.344 164.482 183.088 157.066 183.088C148.714 183.088 142.018 189.856 142.018 200.728C142.018 210.808 148.426 217.648 157.138 217.648C165.058 217.648 168.946 211.816 169.45 208.576L168.874 208.36ZM206.721 216.28C204.129 215.632 203.769 215.344 203.769 211.384V194.824C203.769 186.184 199.305 183.088 193.401 183.088C188.865 183.088 184.185 186.472 182.745 190.504V183.088L174.177 184.744V185.464C177.201 185.896 177.777 186.904 177.777 189.424V211.384C177.777 215.056 177.633 215.416 174.897 216.208V217H185.697V216.208C183.105 215.56 182.745 215.344 182.745 211.384V192.16C183.609 189.712 186.561 185.824 190.665 185.824C195.993 185.824 198.873 189.496 198.873 195.112V211.384C198.873 215.056 198.729 215.488 195.993 216.28V217H206.721V216.28ZM279.523 217V166.27H273.969L255.195 210.672H254.984L236.176 166.27H230.656V217H235.156V175.375H235.367L252.98 216.754H257.164L274.812 175.375H275.023V217H279.523ZM319.637 212.641H293.797V193.164H318.336V188.875H293.797V170.629H319.637V166.27H289.016V217H319.637V212.641ZM332.574 217V174.602H332.82L362.668 217H367.309V166.27H362.562V208.633H362.316L332.574 166.27H327.828V217H332.574ZM397.824 165.461C383.691 165.461 374.797 175.586 374.797 191.652C374.797 207.719 383.691 217.809 397.824 217.809C411.992 217.809 420.887 207.719 420.887 191.652C420.887 175.586 411.957 165.461 397.824 165.461ZM397.824 169.926C408.934 169.926 415.965 178.328 415.965 191.652C415.965 204.941 408.934 213.344 397.824 213.344C386.715 213.344 379.719 204.941 379.719 191.652C379.719 178.328 386.715 169.926 397.824 169.926ZM425.914 203.219C426.441 211.938 433.895 217.809 444.512 217.809C455.727 217.809 462.898 211.973 462.898 203.078C462.898 196.012 458.609 192.109 448.414 189.543L442.93 188.137C435.477 186.238 432.312 183.672 432.312 179.312C432.312 173.723 437.516 169.82 444.547 169.82C451.754 169.82 456.816 173.617 457.273 179.348H462.09C461.809 171.297 454.566 165.461 444.688 165.461C434.703 165.461 427.32 171.297 427.32 179.488C427.32 186.168 431.504 190.141 440.891 192.531L447.184 194.148C454.707 196.047 457.977 198.859 457.977 203.605C457.977 209.301 452.527 213.449 444.934 213.449C436.988 213.449 431.258 209.301 430.73 203.219H425.914ZM484.695 166.27V217H501.148C516.371 217 525.195 207.684 525.195 191.617C525.195 175.586 516.336 166.27 501.148 166.27H484.695ZM489.512 170.629H500.867C513.348 170.629 520.309 178.152 520.309 191.652C520.309 205.117 513.348 212.641 500.867 212.641H489.512V170.629ZM563.27 212.641H537.43V193.164H561.969V188.875H537.43V170.629H563.27V166.27H532.648V217H563.27V212.641ZM585.523 180.473V180.508H590.164V180.473C590.234 174.285 595.121 169.68 601.625 169.68C607.848 169.68 612.77 174.039 612.77 179.594C612.77 184.023 610.941 187.047 603.699 194.676L585.77 213.625V217H618.852V212.711H592.484V212.57L606.617 197.805C615.055 189.051 617.551 184.867 617.551 179.312C617.551 171.543 610.625 165.461 601.766 165.461C592.484 165.461 585.594 171.824 585.523 180.473ZM648.242 217H652.918V205.539H660.477V201.285H652.918V166.199H645.887C634.672 181.914 628.027 191.863 622.508 201.145V205.539H648.242V217ZM627.359 201.145C632.422 192.918 638.82 183.355 648.172 170.418H648.242V201.285H627.359V201.145ZM721.332 217V166.27H716.516V188.84H686.844V166.27H682.062V217H686.844V193.199H716.516V217H721.332ZM735.641 170.559H748.191C755.574 170.559 760.039 174.531 760.039 181.246C760.039 188.031 755.75 191.969 748.367 191.969H735.641V170.559ZM735.641 196.223H748.367C748.613 196.223 748.965 196.223 749.141 196.223L760.812 217H766.438L754.133 195.449C760.918 193.691 764.996 188.277 764.996 181.105C764.996 172.07 758.668 166.27 748.754 166.27H730.859V217H735.641V196.223ZM770.375 203.219C770.902 211.938 778.355 217.809 788.973 217.809C800.188 217.809 807.359 211.973 807.359 203.078C807.359 196.012 803.07 192.109 792.875 189.543L787.391 188.137C779.938 186.238 776.773 183.672 776.773 179.312C776.773 173.723 781.977 169.82 789.008 169.82C796.215 169.82 801.277 173.617 801.734 179.348H806.551C806.27 171.297 799.027 165.461 789.148 165.461C779.164 165.461 771.781 171.297 771.781 179.488C771.781 186.168 775.965 190.141 785.352 192.531L791.645 194.148C799.168 196.047 802.438 198.859 802.438 203.605C802.438 209.301 796.988 213.449 789.395 213.449C781.449 213.449 775.719 209.301 775.191 203.219H770.375ZM818.609 217.316C820.438 217.316 821.879 215.875 821.879 214.047C821.879 212.184 820.438 210.742 818.609 210.742C816.781 210.742 815.305 212.184 815.305 214.047C815.305 215.875 816.781 217.316 818.609 217.316Z" fill="white"/>
<path d="M0.136719 65.9727H282.863V69.3125H0.136719V65.9727ZM225.91 229.973H827.539V233.312H225.91V229.973Z" fill="white"/>
</svg>
