<svg width="89" height="28" viewBox="0 0 89 28" fill="none" xmlns="http://www.w3.org/2000/svg">
<path d="M36.6802 23.9149C44.8899 24.8834 53.237 24.9203 61.4603 24.0244C68.3706 23.2275 75.9567 21.6469 80.8845 17.483C84.0665 14.7947 85.0127 10.6046 80.4227 8.66053C75.6807 6.64646 69.9025 6.03348 64.6536 5.21909C58.4886 4.24011 52.2456 3.58623 45.9671 3.26194C35.5595 2.78469 25.0223 3.06491 15.206 6.00283C12.0184 6.95733 2.81595 9.58438 6.61181 13.4155C10.9427 17.7939 19.7453 19.9131 26.3233 21.0821C39.0373 23.3399 52.2897 22.9747 64.7662 20.0225" stroke="black" stroke-width="0.5" stroke-linecap="round" stroke-linejoin="round"/>
<g filter="url(#filter0_d)">
<path d="M19.6573 16H21.132V13.2266H23.9982V12.0596H21.132V10.1699H24.2716V8.9541H19.6573V16ZM29.3243 16.1221C31.4191 16.1221 32.7228 14.7207 32.7228 12.4795V12.4697C32.7228 10.2334 31.4142 8.83203 29.3243 8.83203C27.2394 8.83203 25.9259 10.2285 25.9259 12.4697V12.4795C25.9259 14.7207 27.2296 16.1221 29.3243 16.1221ZM29.3243 14.8721C28.1671 14.8721 27.4298 13.9541 27.4298 12.4795V12.4697C27.4298 10.9951 28.172 10.082 29.3243 10.082C30.4816 10.082 31.2189 11 31.2189 12.4697V12.4795C31.2189 13.9395 30.4962 14.8721 29.3243 14.8721ZM34.6749 16H36.1495V13.4463H37.3312L38.6447 16H40.3146L38.8302 13.2266C39.6115 12.9189 40.1046 12.1475 40.1046 11.2197V11.21C40.1046 9.79395 39.1671 8.9541 37.5851 8.9541H34.6749V16ZM36.1495 12.3281V10.1064H37.4044C38.132 10.1064 38.5958 10.5361 38.5958 11.21V11.2197C38.5958 11.9131 38.1564 12.3281 37.424 12.3281H36.1495ZM47.0656 16H48.5402V13.3682L50.9962 8.9541H49.3995L47.8224 11.9619H47.7882L46.2062 8.9541H44.6144L47.0656 13.3682V16ZM55.2579 16.1221C57.3527 16.1221 58.6564 14.7207 58.6564 12.4795V12.4697C58.6564 10.2334 57.3478 8.83203 55.2579 8.83203C53.173 8.83203 51.8595 10.2285 51.8595 12.4697V12.4795C51.8595 14.7207 53.1632 16.1221 55.2579 16.1221ZM55.2579 14.8721C54.1007 14.8721 53.3634 13.9541 53.3634 12.4795V12.4697C53.3634 10.9951 54.1056 10.082 55.2579 10.082C56.4152 10.082 57.1525 11 57.1525 12.4697V12.4795C57.1525 13.9395 56.4298 14.8721 55.2579 14.8721ZM63.5626 16.1221C65.379 16.1221 66.5118 15.0723 66.5118 13.5098V8.9541H65.0372V13.3779C65.0372 14.291 64.5099 14.8721 63.5626 14.8721C62.6154 14.8721 62.0831 14.291 62.0831 13.3779V8.9541H60.6085V13.5098C60.6085 15.0771 61.756 16.1221 63.5626 16.1221Z" fill="black"/>
</g>
<defs>
<filter id="filter0_d" x="13.6573" y="6.83203" width="54.8545" height="15.29" filterUnits="userSpaceOnUse" color-interpolation-filters="sRGB">
<feFlood flood-opacity="0" result="BackgroundImageFix"/>
<feColorMatrix in="SourceAlpha" type="matrix" values="0 0 0 0 0 0 0 0 0 0 0 0 0 0 0 0 0 0 127 0" result="hardAlpha"/>
<feOffset dx="-2" dy="2"/>
<feGaussianBlur stdDeviation="2"/>
<feComposite in2="hardAlpha" operator="out"/>
<feColorMatrix type="matrix" values="0 0 0 0 0 0 0 0 0 0 0 0 0 0 0 0 0 0 0.25 0"/>
<feBlend mode="normal" in2="BackgroundImageFix" result="effect1_dropShadow"/>
<feBlend mode="normal" in="SourceGraphic" in2="effect1_dropShadow" result="shape"/>
</filter>
</defs>
</svg>
