<svg width="84" height="28" viewBox="0 0 84 28" fill="none" xmlns="http://www.w3.org/2000/svg">
<path d="M34.6195 23.9149C42.368 24.8834 50.2461 24.9203 58.0075 24.0244C64.5295 23.2275 71.6894 21.6469 76.3405 17.483C79.3437 14.7947 80.2367 10.6046 75.9046 8.66053C71.429 6.64646 65.9753 6.03348 61.0213 5.21909C55.2027 4.24011 49.3104 3.58623 43.3847 3.26194C33.5618 2.78469 23.6166 3.06491 14.3517 6.00283C11.3432 6.95733 2.65775 9.58438 6.24036 13.4155C10.3279 17.7939 18.636 19.9131 24.8444 21.0821C36.8442 23.3399 49.3521 22.9747 61.1277 20.0225" stroke="black" stroke-width="0.5" stroke-linecap="round" stroke-linejoin="round"/>
<g filter="url(#filter0_d)">
<path d="M21.7207 16.1221C23.4248 16.1221 24.6602 15.0527 24.7969 13.5537L24.8018 13.5H23.3662L23.3564 13.5488C23.166 14.3838 22.5703 14.8721 21.7207 14.8721C20.5928 14.8721 19.8701 13.9541 19.8701 12.4697V12.4648C19.8701 10.9902 20.5928 10.082 21.7207 10.082C22.5996 10.082 23.1758 10.5898 23.3418 11.3662L23.3613 11.4492H24.7969L24.792 11.4053C24.6553 9.91113 23.4297 8.83203 21.7207 8.83203C19.665 8.83203 18.3662 10.1992 18.3662 12.4697V12.4746C18.3662 14.7451 19.6602 16.1221 21.7207 16.1221ZM29.8936 16.1221C31.9883 16.1221 33.292 14.7207 33.292 12.4795V12.4697C33.292 10.2334 31.9834 8.83203 29.8936 8.83203C27.8086 8.83203 26.4951 10.2285 26.4951 12.4697V12.4795C26.4951 14.7207 27.7988 16.1221 29.8936 16.1221ZM29.8936 14.8721C28.7363 14.8721 27.999 13.9541 27.999 12.4795V12.4697C27.999 10.9951 28.7412 10.082 29.8936 10.082C31.0508 10.082 31.7881 11 31.7881 12.4697V12.4795C31.7881 13.9395 31.0654 14.8721 29.8936 14.8721ZM36.5381 16H38.0127V10.1699H40.0537V8.9541H34.502V10.1699H36.5381V16ZM41.8691 16H43.3438V8.9541H41.8691V16ZM45.3643 16H50.8037V14.7842H47.1367V14.7549L50.7061 9.91113V8.9541H45.4473V10.1699H48.9482V10.1992L45.3643 15.0381V16ZM52.375 16H53.9229L54.4551 14.291H56.9453L57.4775 16H59.0254L56.5693 8.9541H54.8359L52.375 16ZM55.6855 10.3213H55.7148L56.6035 13.1875H54.7969L55.6855 10.3213ZM60.748 16H62.2227V13.4463H63.4043L64.7178 16H66.3877L64.9033 13.2266C65.6846 12.9189 66.1777 12.1475 66.1777 11.2197V11.21C66.1777 9.79395 65.2402 8.9541 63.6582 8.9541H60.748V16ZM62.2227 12.3281V10.1064H63.4775C64.2051 10.1064 64.6689 10.5361 64.6689 11.21V11.2197C64.6689 11.9131 64.2295 12.3281 63.4971 12.3281H62.2227Z" fill="black"/>
</g>
<defs>
<filter id="filter0_d" x="12.3662" y="6.83203" width="56.0215" height="15.29" filterUnits="userSpaceOnUse" color-interpolation-filters="sRGB">
<feFlood flood-opacity="0" result="BackgroundImageFix"/>
<feColorMatrix in="SourceAlpha" type="matrix" values="0 0 0 0 0 0 0 0 0 0 0 0 0 0 0 0 0 0 127 0" result="hardAlpha"/>
<feOffset dx="-2" dy="2"/>
<feGaussianBlur stdDeviation="2"/>
<feComposite in2="hardAlpha" operator="out"/>
<feColorMatrix type="matrix" values="0 0 0 0 0 0 0 0 0 0 0 0 0 0 0 0 0 0 0.2 0"/>
<feBlend mode="normal" in2="BackgroundImageFix" result="effect1_dropShadow"/>
<feBlend mode="normal" in="SourceGraphic" in2="effect1_dropShadow" result="shape"/>
</filter>
</defs>
</svg>
