<svg width="288" height="167" viewBox="0 0 288 167" fill="none" xmlns="http://www.w3.org/2000/svg">
<path d="M21.7314 20.21C21.7314 27.658 15.5374 28 13.9794 28C10.3694 28 3.68144 27.506 3.68144 14.624C3.68144 2.08401 10.2554 1.24801 13.9794 1.24801C15.7654 1.24801 21.7314 1.59001 21.7314 9.00002H22.0734L22.4154 3.22401C20.0214 1.28601 17.8934 0.906013 13.9794 0.906013C6.34144 0.906013 0.793438 5.08601 0.793438 14.624C0.793438 23.972 6.34144 28.342 13.9794 28.342C18.0454 28.342 19.6034 27.848 22.4154 25.986L22.0734 20.21H21.7314ZM34.2067 10.14C32.0407 9.87401 29.2667 11.774 28.4687 13.75V10.102L24.6687 10.748V11.052C26.2647 11.052 26.5687 11.584 26.5687 12.914V25.568C26.5687 27.506 26.4927 27.24 25.0487 27.658V28H30.0267V27.658C28.6587 27.316 28.4687 27.658 28.4687 25.568V14.51C29.4567 11.698 33.0667 10.292 32.7247 11.128C32.6107 11.47 32.6107 11.85 32.7247 12.192C33.0667 12.952 33.9407 13.294 34.6627 12.99C35.4227 12.648 35.7647 11.85 35.4607 11.09C35.1947 10.558 34.7387 10.216 34.2067 10.14ZM46.0366 27.582C42.6166 27.582 39.9566 25.378 39.9566 18.88H52.1546C52.1546 12.838 48.6966 10.102 45.3526 10.102C41.2106 10.102 37.7146 13.56 37.7146 19.45C37.7146 25.036 41.0586 28.342 45.5426 28.342C49.4186 28.342 51.3946 25.226 51.5846 23.63L51.3566 23.592C50.9006 25.568 48.5826 27.582 46.0366 27.582ZM39.9566 18.5C39.9566 12.61 43.2246 10.444 45.3526 10.444C46.8726 10.444 50.2546 12.23 50.2546 18.5H39.9566ZM64.8098 24.466C64.3918 25.378 63.3658 27.24 60.6678 27.24C58.5018 27.24 57.1338 25.986 57.1338 23.782C57.1338 21.122 59.7558 19.564 64.8098 18.31V24.466ZM68.4578 27.088C66.8618 27.088 66.8618 24.96 66.8618 24.96V17.702C66.8618 13.18 65.9878 10.102 62.6818 10.102C62.6818 10.102 60.8958 10.064 59.3378 10.824C57.3238 11.926 56.5638 13.18 56.3738 13.636C56.1838 14.092 56.2978 14.662 56.6398 15.08C57.1338 15.688 57.9698 15.726 58.5398 15.232C59.1098 14.7 59.1858 13.826 58.6918 13.256C58.4258 12.952 58.1218 12.838 57.7798 12.762C57.5898 12.724 57.8938 11.888 59.6418 11.052C63.0998 9.60801 64.8098 12.04 64.8098 15.916V17.968C58.4638 19.64 55.2338 20.932 55.2338 24.39C55.2338 28.38 59.5278 28.342 59.5278 28.342C62.1498 28.342 64.3158 27.012 64.8098 25.036C64.8098 28.532 67.4318 28.342 67.4318 28.342C69.0278 28.342 69.8258 26.974 70.0158 25.872L69.7118 25.758C69.4458 27.088 68.4578 27.088 68.4578 27.088ZM94.9937 25.568V16.448C94.9937 11.888 93.0557 10.102 89.8257 10.102C87.3557 10.102 85.3797 12.002 84.7717 14.206C84.2397 11.28 82.4917 10.102 79.8317 10.102C77.4377 10.102 75.4617 11.85 74.8157 13.978V10.102L71.0157 10.748V11.052C72.6117 11.052 72.9157 11.622 72.9157 12.952V25.568C72.9157 27.506 72.8397 27.24 71.3957 27.658V28H76.3737V27.658C75.0057 27.316 74.8157 27.658 74.8157 25.568V14.548C75.3477 13.332 76.5257 11.128 78.9577 11.128C82.1117 11.128 83.0997 13.256 83.0997 16.6V25.568C83.0997 27.506 83.0237 27.278 81.5797 27.696V28H86.5197V27.696C85.1897 27.354 84.9617 27.658 84.9617 25.568V16.448C84.9617 15.764 84.9237 15.118 84.8477 14.586C85.3417 13.37 86.5577 11.128 88.9897 11.128C92.1057 11.128 93.1317 13.256 93.1317 16.6V25.568C93.1317 27.506 93.0557 27.278 91.6117 27.696V28H96.5517V27.696C95.2217 27.354 94.9937 27.658 94.9937 25.568ZM107.274 10.102C101.498 10.102 98.8002 14.206 98.8002 19.222C98.8002 24.2 101.498 28.342 107.274 28.342C113.088 28.342 115.748 24.2 115.748 19.222C115.748 14.206 113.088 10.102 107.274 10.102ZM107.274 28C104.196 28 100.966 26.1 100.966 19.222C100.966 12.344 104.196 10.444 107.274 10.444C110.352 10.444 113.544 12.344 113.544 19.222C113.544 26.1 110.352 28 107.274 28ZM127.269 19.108L123.431 16.714C120.125 14.624 119.631 10.444 124.343 10.444C129.283 10.444 130.195 13.256 130.195 16.372H130.499V11.356C130.499 11.356 128.713 10.102 124.343 10.102C120.429 10.102 119.593 12.534 119.593 12.534C118.605 15.004 119.327 16.486 122.899 19.108L126.737 21.426C129.625 23.326 131.107 28 125.749 28C120.277 28 119.631 25.036 119.631 21.502H119.327V27.05C119.327 27.05 121.151 28.342 125.749 28.342C128.903 28.342 130.081 26.632 130.081 26.632C131.829 24.162 130.765 21.274 127.269 19.108ZM169.847 28V1.2256H166.915L157.007 24.6602H156.896L146.969 1.2256H144.056V28H146.431V6.03127H146.542L155.838 27.8701H158.046L167.36 6.03127H167.472V28H169.847ZM192.65 28H195.322L185.321 1.2256H182.798L172.778 28H175.469L178.438 19.7988H189.682L192.65 28ZM184.004 4.36134H184.115L188.921 17.6094H179.198L184.004 4.36134ZM200.796 3.48927H207.42C211.316 3.48927 213.673 5.58595 213.673 9.1299C213.673 12.711 211.409 14.7891 207.513 14.7891H200.796V3.48927ZM200.796 17.0342H207.513C207.643 17.0342 207.828 17.0342 207.921 17.0342L214.081 28H217.05L210.556 16.626C214.137 15.6983 216.289 12.8408 216.289 9.05568C216.289 4.28712 212.949 1.2256 207.717 1.2256H198.272V28H200.796V17.0342ZM231.281 28.4268C237.089 28.4268 241.189 25.291 242.136 20.0772H239.594C238.796 23.7881 235.567 26.0703 231.3 26.0703C225.604 26.0703 221.948 21.5986 221.948 14.5479C221.948 7.58986 225.604 3.15529 231.281 3.15529C235.438 3.15529 238.852 5.86427 239.594 9.72365H242.136C241.412 4.49123 236.94 0.798843 231.281 0.798843C224.008 0.798843 219.351 6.16115 219.351 14.5479C219.351 23.0274 223.989 28.4268 231.281 28.4268ZM263.678 28H266.35L256.349 1.2256H253.825L243.806 28H246.496L249.465 19.7988H260.709L263.678 28ZM255.031 4.36134H255.143L259.948 17.6094H250.226L255.031 4.36134ZM268.001 20.7266C268.279 25.3281 272.213 28.4268 277.816 28.4268C283.735 28.4268 287.521 25.3467 287.521 20.6524C287.521 16.9229 285.257 14.8633 279.876 13.5088L276.981 12.7666C273.048 11.7647 271.378 10.4102 271.378 8.10939C271.378 5.15919 274.124 3.09962 277.835 3.09962C281.639 3.09962 284.311 5.10353 284.552 8.12794H287.094C286.945 3.87892 283.123 0.798843 277.909 0.798843C272.64 0.798843 268.743 3.87892 268.743 8.20216C268.743 11.7276 270.951 13.8242 275.905 15.086L279.227 15.9395C283.197 16.9414 284.923 18.4258 284.923 20.9307C284.923 23.9365 282.047 26.126 278.039 26.126C273.846 26.126 270.821 23.9365 270.543 20.7266H268.001ZM63.872 54.088C62.048 51.39 61.516 47.59 64.556 46.412C66.342 45.728 68.394 46.298 69.534 47.514C71.776 50.326 71.7 54.81 66.532 57.85L63.872 54.088ZM60.338 71.112C56.614 66.856 59.996 62.068 62.39 60.586L64.936 59.066L71.548 68.49C69.42 73.848 63.34 74.494 60.338 71.112ZM80.44 71.264C80.478 72.48 79.452 73.012 78.578 73.012C78.578 73.012 77.058 72.936 75.804 71.15L72.764 66.856C73.98 62.486 76.906 61.916 76.906 62.828C76.944 63.208 76.982 63.398 77.4 63.74C78.008 64.234 78.882 64.158 79.376 63.588C80.06 62.866 79.642 61.954 79.224 61.65C78.73 61.232 77.97 61.156 77.286 61.308C76.336 61.498 73.942 62.144 72.498 66.514L66.722 58.116C72.802 54.468 71.776 49.452 69.838 47.324C68.736 46.108 66.798 45.424 64.442 45.804C60.186 46.526 58.932 51.01 63.074 56.406L64.708 58.762L62.162 60.358C59.008 62.068 54.752 67.426 59.008 72.138C63.378 76.926 70.712 73.05 71.776 68.794L74.208 72.442C75.614 74.532 77.856 74.342 77.856 74.342C78.882 74.342 80.63 73.468 80.706 71.264H80.44ZM106.606 69.06C106.606 71.72 104.402 73.468 101.97 73.468C98.4362 73.468 95.8522 70.238 95.8522 64.31C95.8522 57.888 99.6902 56.444 101.97 56.444C104.402 56.444 106.606 58.534 106.606 61.118V69.06ZM108.468 71.72V46.26L104.668 46.906V47.248C106.226 47.248 106.606 47.894 106.606 49.224V57.736C105.352 56.748 103.794 56.102 101.818 56.102C96.9922 56.102 93.3442 59.332 93.3442 65.032C93.3442 69.63 95.3582 74.342 101.248 74.342C103.224 74.342 105.466 73.43 106.606 71.796V73.62C106.606 73.62 106.606 74.494 107.67 74.304L110.406 73.734V73.43C108.886 73.582 108.468 73.582 108.468 71.72ZM120.515 73.582C117.095 73.582 114.435 71.378 114.435 64.88H126.633C126.633 58.838 123.175 56.102 119.831 56.102C115.689 56.102 112.193 59.56 112.193 65.45C112.193 71.036 115.537 74.342 120.021 74.342C123.897 74.342 125.873 71.226 126.063 69.63L125.835 69.592C125.379 71.568 123.061 73.582 120.515 73.582ZM114.435 64.5C114.435 58.61 117.703 56.444 119.831 56.444C121.351 56.444 124.733 58.23 124.733 64.5H114.435ZM144.114 73.658C142.746 73.316 142.556 73.658 142.556 71.568V56.444H138.756H133.208C133.208 46.64 136.02 45.994 138.186 45.994C141.454 45.994 142.366 48.54 141.416 48.312C141.15 48.236 140.732 48.236 140.39 48.426C139.668 48.844 139.44 49.68 139.82 50.402C140.2 51.048 141.074 51.314 141.796 50.934C142.252 50.668 142.594 50.06 142.594 49.528C142.784 46.412 140.01 45.69 138.186 45.69C134.12 45.69 131.308 47.704 131.308 56.444H128.838L128.876 56.786H131.308V71.796C131.308 73.734 131.27 73.506 129.826 73.696V74H135.336V73.696C133.968 73.582 133.208 73.886 133.208 71.796V56.786H138.756C140.352 56.786 140.656 57.28 140.656 58.61V71.568C140.656 73.506 140.58 73.24 139.136 73.658V74H144.114V73.658ZM160.873 71.568V62.448C160.873 57.888 158.365 56.102 155.173 56.102C152.779 56.102 150.499 57.888 149.777 59.978V56.102L145.977 56.748V57.052C147.573 57.052 147.877 57.622 147.877 58.952V71.568C147.877 73.506 147.801 73.24 146.357 73.658V74H151.335V73.658C149.967 73.316 149.777 73.658 149.777 71.568V60.548C150.385 59.332 151.867 57.128 154.299 57.128C157.415 57.128 159.011 59.256 159.011 62.6V71.568C159.011 73.506 158.935 73.278 157.491 73.696V74H162.431V73.696C161.101 73.354 160.873 73.658 160.873 71.568ZM168.236 56.102L164.474 56.748V57.052C166.07 57.052 166.336 57.584 166.336 58.914V71.568C166.336 73.506 166.26 73.24 164.816 73.658V74H169.794V73.658C168.426 73.316 168.236 73.658 168.236 71.568V56.102ZM168.198 51.542C168.198 50.782 167.59 50.212 166.906 50.212C166.184 50.212 165.652 50.782 165.652 51.542C165.652 52.226 166.184 52.796 166.906 52.796C167.59 52.796 168.198 52.226 168.198 51.542ZM195.634 71.568V62.448C195.634 57.888 193.696 56.102 190.466 56.102C187.996 56.102 186.02 58.002 185.412 60.206C184.88 57.28 183.132 56.102 180.472 56.102C178.078 56.102 176.102 57.85 175.456 59.978V56.102L171.656 56.748V57.052C173.252 57.052 173.556 57.622 173.556 58.952V71.568C173.556 73.506 173.48 73.24 172.036 73.658V74H177.014V73.658C175.646 73.316 175.456 73.658 175.456 71.568V60.548C175.988 59.332 177.166 57.128 179.598 57.128C182.752 57.128 183.74 59.256 183.74 62.6V71.568C183.74 73.506 183.664 73.278 182.22 73.696V74H187.16V73.696C185.83 73.354 185.602 73.658 185.602 71.568V62.448C185.602 61.764 185.564 61.118 185.488 60.586C185.982 59.37 187.198 57.128 189.63 57.128C192.746 57.128 193.772 59.256 193.772 62.6V71.568C193.772 73.506 193.696 73.278 192.252 73.696V74H197.192V73.696C195.862 73.354 195.634 73.658 195.634 71.568ZM207.915 56.102C202.139 56.102 199.441 60.206 199.441 65.222C199.441 70.2 202.139 74.342 207.915 74.342C213.729 74.342 216.389 70.2 216.389 65.222C216.389 60.206 213.729 56.102 207.915 56.102ZM207.915 74C204.837 74 201.607 72.1 201.607 65.222C201.607 58.344 204.837 56.444 207.915 56.444C210.993 56.444 214.185 58.344 214.185 65.222C214.185 72.1 210.993 74 207.915 74ZM227.91 65.108L224.072 62.714C220.766 60.624 220.272 56.444 224.984 56.444C229.924 56.444 230.836 59.256 230.836 62.372H231.14V57.356C231.14 57.356 229.354 56.102 224.984 56.102C221.07 56.102 220.234 58.534 220.234 58.534C219.246 61.004 219.968 62.486 223.54 65.108L227.378 67.426C230.266 69.326 231.748 74 226.39 74C220.918 74 220.272 71.036 220.272 67.502H219.968V73.05C219.968 73.05 221.792 74.342 226.39 74.342C229.544 74.342 230.722 72.632 230.722 72.632C232.47 70.162 231.406 67.274 227.91 65.108ZM26.8271 117.699H13.1895V107.42H26.1406V105.156H13.1895V95.5264H26.8271V93.2256H10.666V120H26.8271V117.699ZM29.4434 112.727C29.7217 117.328 33.6553 120.427 39.2588 120.427C45.1777 120.427 48.9629 117.347 48.9629 112.652C48.9629 108.923 46.6992 106.863 41.3184 105.509L38.4238 104.767C34.4902 103.765 32.8203 102.41 32.8203 100.109C32.8203 97.1592 35.5664 95.0996 39.2773 95.0996C43.0811 95.0996 45.7529 97.1035 45.9941 100.128H48.5361C48.3877 95.8789 44.5654 92.7988 39.3516 92.7988C34.082 92.7988 30.1855 95.8789 30.1855 100.202C30.1855 103.728 32.3936 105.824 37.3477 107.086L40.6689 107.939C44.6396 108.941 46.3652 110.426 46.3652 112.931C46.3652 115.937 43.4893 118.126 39.4814 118.126C35.2881 118.126 32.2637 115.937 31.9854 112.727H29.4434ZM62.0625 120V95.5264H70.9131V93.2256H50.6885V95.5264H59.5205V120H62.0625ZM76.6465 95.4893H83.2705C87.167 95.4893 89.5234 97.586 89.5234 101.13C89.5234 104.711 87.2598 106.789 83.3633 106.789H76.6465V95.4893ZM76.6465 109.034H83.3633C83.4932 109.034 83.6787 109.034 83.7715 109.034L89.9316 120H92.9004L86.4062 108.626C89.9873 107.698 92.1396 104.841 92.1396 101.056C92.1396 96.2871 88.7998 93.2256 83.5674 93.2256H74.123V120H76.6465V109.034ZM114.071 120H116.743L106.742 93.2256H104.219L94.1992 120H96.8896L99.8584 111.799H111.103L114.071 120ZM105.425 96.3613H105.536L110.342 109.609H100.619L105.425 96.3613ZM125.482 120V95.5264H134.333V93.2256H114.108V95.5264H122.94V120H125.482ZM153.704 117.699H140.066V107.42H153.018V105.156H140.066V95.5264H153.704V93.2256H137.543V120H153.704V117.699ZM180.089 109.127V106.548H169.253V108.774H177.565V109.721C177.565 114.768 174.151 118.07 168.975 118.07C163.241 118.07 159.549 113.524 159.549 106.455C159.549 99.4785 163.167 95.1553 168.975 95.1553C173.057 95.1553 176.192 97.4561 177.287 101.278H179.922C178.92 96.1572 174.597 92.7988 168.975 92.7988C161.664 92.7988 156.951 98.1611 156.951 106.455C156.951 114.897 161.72 120.427 168.975 120.427C175.933 120.427 180.089 116.196 180.089 109.127ZM186.713 120V93.2256H184.189V120H186.713ZM209.517 120H212.188L202.188 93.2256H199.664L189.645 120H192.335L195.304 111.799H206.548L209.517 120ZM200.87 96.3613H200.981L205.787 109.609H196.064L200.87 96.3613ZM213.84 112.727C214.118 117.328 218.052 120.427 223.655 120.427C229.574 120.427 233.359 117.347 233.359 112.652C233.359 108.923 231.096 106.863 225.715 105.509L222.82 104.767C218.887 103.765 217.217 102.41 217.217 100.109C217.217 97.1592 219.963 95.0996 223.674 95.0996C227.478 95.0996 230.149 97.1035 230.391 100.128H232.933C232.784 95.8789 228.962 92.7988 223.748 92.7988C218.479 92.7988 214.582 95.8789 214.582 100.202C214.582 103.728 216.79 105.824 221.744 107.086L225.065 107.939C229.036 108.941 230.762 110.426 230.762 112.931C230.762 115.937 227.886 118.126 223.878 118.126C219.685 118.126 216.66 115.937 216.382 112.727H213.84ZM258.291 115.06C258.291 117.72 256.087 119.468 253.655 119.468C250.121 119.468 247.537 116.238 247.537 110.31C247.537 103.888 251.375 102.444 253.655 102.444C256.087 102.444 258.291 104.534 258.291 107.118V115.06ZM260.153 117.72V92.26L256.353 92.906V93.248C257.911 93.248 258.291 93.894 258.291 95.224V103.736C257.037 102.748 255.479 102.102 253.503 102.102C248.677 102.102 245.029 105.332 245.029 111.032C245.029 115.63 247.043 120.342 252.933 120.342C254.909 120.342 257.151 119.43 258.291 117.796V119.62C258.291 119.62 258.291 120.494 259.355 120.304L262.091 119.734V119.43C260.571 119.582 260.153 119.582 260.153 117.72ZM272.2 119.582C268.78 119.582 266.12 117.378 266.12 110.88H278.318C278.318 104.838 274.86 102.102 271.516 102.102C267.374 102.102 263.878 105.56 263.878 111.45C263.878 117.036 267.222 120.342 271.706 120.342C275.582 120.342 277.558 117.226 277.748 115.63L277.52 115.592C277.064 117.568 274.746 119.582 272.2 119.582ZM266.12 110.5C266.12 104.61 269.388 102.444 271.516 102.444C273.036 102.444 276.418 104.23 276.418 110.5H266.12ZM15.8057 166.427C21.6133 166.427 25.7139 163.291 26.6602 158.077H24.1182C23.3203 161.788 20.0918 164.07 15.8242 164.07C10.1279 164.07 6.47266 159.599 6.47266 152.548C6.47266 145.59 10.1279 141.155 15.8057 141.155C19.9619 141.155 23.376 143.864 24.1182 147.724H26.6602C25.9365 142.491 21.4648 138.799 15.8057 138.799C8.53223 138.799 3.875 144.161 3.875 152.548C3.875 161.027 8.51367 166.427 15.8057 166.427ZM41.4854 138.799C34.0264 138.799 29.332 144.143 29.332 152.622C29.332 161.102 34.0264 166.427 41.4854 166.427C48.9629 166.427 53.6572 161.102 53.6572 152.622C53.6572 144.143 48.9443 138.799 41.4854 138.799ZM41.4854 141.155C47.3486 141.155 51.0596 145.59 51.0596 152.622C51.0596 159.636 47.3486 164.07 41.4854 164.07C35.6221 164.07 31.9297 159.636 31.9297 152.622C31.9297 145.59 35.6221 141.155 41.4854 141.155ZM83.4004 166V139.226H80.4688L70.5605 162.66H70.4492L60.5225 139.226H57.6094V166H59.9844V144.031H60.0957L69.3916 165.87H71.5996L80.9141 144.031H81.0254V166H83.4004ZM90.9336 139.226H88.4102V156.648C88.4102 162.419 92.3252 166.427 98.7637 166.427C105.202 166.427 109.136 162.419 109.136 156.648V139.226H106.594V156.5C106.594 160.99 103.681 164.07 98.7637 164.07C93.8652 164.07 90.9336 160.99 90.9336 156.5V139.226ZM116.632 166V143.623H116.762L132.515 166H134.964V139.226H132.459V161.584H132.329L116.632 139.226H114.127V166H116.632ZM142.516 166V139.226H139.992V166H142.516ZM158.38 166.427C164.188 166.427 168.288 163.291 169.234 158.077H166.692C165.895 161.788 162.666 164.07 158.398 164.07C152.702 164.07 149.047 159.599 149.047 152.548C149.047 145.59 152.702 141.155 158.38 141.155C162.536 141.155 165.95 143.864 166.692 147.724H169.234C168.511 142.491 164.039 138.799 158.38 138.799C151.106 138.799 146.449 144.161 146.449 152.548C146.449 161.027 151.088 166.427 158.38 166.427ZM190.776 166H193.448L183.447 139.226H180.924L170.904 166H173.595L176.563 157.799H187.808L190.776 166ZM182.13 142.361H182.241L187.047 155.609H177.324L182.13 142.361ZM206.399 166.427C212.207 166.427 216.308 163.291 217.254 158.077H214.712C213.914 161.788 210.686 164.07 206.418 164.07C200.722 164.07 197.066 159.599 197.066 152.548C197.066 145.59 200.722 141.155 206.399 141.155C210.556 141.155 213.97 143.864 214.712 147.724H217.254C216.53 142.491 212.059 138.799 206.399 138.799C199.126 138.799 194.469 144.161 194.469 152.548C194.469 161.027 199.107 166.427 206.399 166.427ZM223.525 166V139.226H221.002V166H223.525ZM239.612 138.799C232.153 138.799 227.459 144.143 227.459 152.622C227.459 161.102 232.153 166.427 239.612 166.427C247.09 166.427 251.784 161.102 251.784 152.622C251.784 144.143 247.071 138.799 239.612 138.799ZM239.612 141.155C245.476 141.155 249.187 145.59 249.187 152.622C249.187 159.636 245.476 164.07 239.612 164.07C233.749 164.07 230.057 159.636 230.057 152.622C230.057 145.59 233.749 141.155 239.612 141.155ZM240.837 137.092L245.921 131.748H243.119L238.592 137.092H240.837ZM258.241 166V143.623H258.371L274.124 166H276.573V139.226H274.068V161.584H273.938L258.241 139.226H255.736V166H258.241ZM283.771 164.936C283.771 164.176 283.163 163.606 282.479 163.606C281.757 163.606 281.225 164.176 281.225 164.936C281.225 165.62 281.757 166.19 282.479 166.19C283.163 166.19 283.771 165.62 283.771 164.936Z" fill="black"/>
<path d="M91.8242 77.8H233.23V79.7H91.8242V77.8Z" fill="black"/>
</svg>
