<svg width="273" height="166" viewBox="0 0 273 166" fill="none" xmlns="http://www.w3.org/2000/svg">
<path d="M87.6211 0.247967V0.589967C91.8011 0.589967 91.2311 2.37597 89.0651 9.63397L84.0491 24.53L76.9811 2.71797C76.8671 2.18597 76.5251 0.589967 79.8691 0.589967V0.247967H71.5471V0.589967C73.1051 0.589967 74.3971 1.04597 75.3091 3.43997L77.0951 9.10197L72.3071 24.416L64.7071 2.71797C64.5171 2.18597 64.2511 0.589967 67.5951 0.589967V0.247967H59.2351V0.589967C60.8311 0.589967 62.0851 1.04597 62.9971 3.43997L71.4331 27H71.8891L77.2851 9.59597L83.1371 27H83.5551L89.4451 9.67197C92.1811 1.50197 91.9151 0.589967 95.7151 0.589967V0.247967H87.6211ZM102.572 26.582C99.1518 26.582 96.4918 24.378 96.4918 17.88H108.69C108.69 11.838 105.232 9.10197 101.888 9.10197C97.7458 9.10197 94.2498 12.56 94.2498 18.45C94.2498 24.036 97.5938 27.342 102.078 27.342C105.954 27.342 107.93 24.226 108.12 22.63L107.892 22.592C107.436 24.568 105.118 26.582 102.572 26.582ZM96.4918 17.5C96.4918 11.61 99.7598 9.44397 101.888 9.44397C103.408 9.44397 106.79 11.23 106.79 17.5H96.4918ZM135.266 22.174C134.772 23.998 133.062 26.506 129.414 26.506C126.64 26.506 123.144 24.226 123.144 18.184C123.144 10.546 127.818 9.44397 129.49 9.44397C133.024 9.44397 134.316 11.002 133.936 10.888C133.746 10.812 133.366 10.812 132.986 10.964C132.34 11.268 132.112 12.028 132.454 12.712C132.72 13.32 133.594 13.472 134.202 13.206C134.658 12.94 134.886 12.522 134.886 12.028C134.886 11.382 134.24 9.10197 129.49 9.10197C124.36 9.10197 120.864 13.396 120.864 18.336C120.864 25.062 125.538 27.342 129.034 27.342C133.632 27.342 135.228 24.074 135.532 22.212L135.266 22.174ZM146.888 9.13997C144.722 8.87397 141.948 10.774 141.15 12.75V9.10197L137.35 9.74797V10.052C138.946 10.052 139.25 10.584 139.25 11.914V24.568C139.25 26.506 139.174 26.24 137.73 26.658V27H142.708V26.658C141.34 26.316 141.15 26.658 141.15 24.568V13.51C142.138 10.698 145.748 9.29197 145.406 10.128C145.292 10.47 145.292 10.85 145.406 11.192C145.748 11.952 146.622 12.294 147.344 11.99C148.104 11.648 148.446 10.85 148.142 10.09C147.876 9.55797 147.42 9.21597 146.888 9.13997ZM158.718 26.582C155.298 26.582 152.638 24.378 152.638 17.88H164.836C164.836 11.838 161.378 9.10197 158.034 9.10197C153.892 9.10197 150.396 12.56 150.396 18.45C150.396 24.036 153.74 27.342 158.224 27.342C162.1 27.342 164.076 24.226 164.266 22.63L164.038 22.592C163.582 24.568 161.264 26.582 158.718 26.582ZM152.638 17.5C152.638 11.61 155.906 9.44397 158.034 9.44397C159.554 9.44397 162.936 11.23 162.936 17.5H152.638ZM177.491 23.466C177.073 24.378 176.047 26.24 173.349 26.24C171.183 26.24 169.815 24.986 169.815 22.782C169.815 20.122 172.437 18.564 177.491 17.31V23.466ZM181.139 26.088C179.543 26.088 179.543 23.96 179.543 23.96V16.702C179.543 12.18 178.669 9.10197 175.363 9.10197C175.363 9.10197 173.577 9.06397 172.019 9.82397C170.005 10.926 169.245 12.18 169.055 12.636C168.865 13.092 168.979 13.662 169.321 14.08C169.815 14.688 170.651 14.726 171.221 14.232C171.791 13.7 171.867 12.826 171.373 12.256C171.107 11.952 170.803 11.838 170.461 11.762C170.271 11.724 170.575 10.888 172.323 10.052C175.781 8.60797 177.491 11.04 177.491 14.916V16.968C171.145 18.64 167.915 19.932 167.915 23.39C167.915 27.38 172.209 27.342 172.209 27.342C174.831 27.342 176.997 26.012 177.491 24.036C177.491 27.532 180.113 27.342 180.113 27.342C181.709 27.342 182.507 25.974 182.697 24.872L182.393 24.758C182.127 26.088 181.139 26.088 181.139 26.088ZM190.803 26.316C189.093 26.316 187.839 25.328 187.839 21.414V9.78597H192.247L192.323 9.44397H187.839V3.47797L185.939 3.70597V9.44397H183.963L184.001 9.78597H185.939V21.528C185.939 26.126 187.535 27.342 190.043 27.342C191.905 27.342 193.045 26.05 193.349 24.492L193.121 24.416C192.855 25.442 191.905 26.316 190.803 26.316ZM203.658 26.582C200.238 26.582 197.578 24.378 197.578 17.88H209.776C209.776 11.838 206.318 9.10197 202.974 9.10197C198.832 9.10197 195.336 12.56 195.336 18.45C195.336 24.036 198.68 27.342 203.164 27.342C207.04 27.342 209.016 24.226 209.206 22.63L208.978 22.592C208.522 24.568 206.204 26.582 203.658 26.582ZM197.578 17.5C197.578 11.61 200.846 9.44397 202.974 9.44397C204.494 9.44397 207.876 11.23 207.876 17.5H197.578ZM9.79297 73C15.4521 73 18.8477 70.2168 18.8477 65.6523C18.8477 61.9414 16.2686 59.4365 12.5576 58.9912V58.8613C15.415 58.3418 17.4561 55.7998 17.4561 52.831C17.4561 48.8789 14.3389 46.2256 9.7373 46.2256H0.107422V73H9.79297ZM2.63086 48.4707H9.19922C12.7617 48.4707 14.8955 50.1963 14.8955 53.1093C14.8955 56.2636 12.5205 58.1191 8.45703 58.1191H2.63086V48.4707ZM2.63086 70.7549V60.3086H9.10645C13.7266 60.3086 16.25 62.1826 16.25 65.5224C16.25 68.8437 13.8193 70.7549 9.44043 70.7549H2.63086ZM25.0078 48.4892H31.6318C35.5283 48.4892 37.8848 50.5859 37.8848 54.1299C37.8848 57.7109 35.6211 59.789 31.7246 59.789H25.0078V48.4892ZM25.0078 62.0341H31.7246C31.8545 62.0341 32.04 62.0341 32.1328 62.0341L38.293 73H41.2617L34.7676 61.6259C38.3486 60.6982 40.501 57.8408 40.501 54.0556C40.501 49.2871 37.1611 46.2256 31.9287 46.2256H22.4844V73H25.0078V62.0341ZM62.4326 73H65.1045L55.1035 46.2256H52.5801L42.5605 73H45.251L48.2197 64.7988H59.4639L62.4326 73ZM53.7861 49.3613H53.8975L58.7031 62.6093H48.9805L53.7861 49.3613ZM70.5596 73V50.623H70.6895L86.4424 73H88.8916V46.2256H86.3867V68.584H86.2568L70.5596 46.2256H68.0547V73H70.5596ZM93.9199 46.2256V73H102.604C110.638 73 115.295 68.083 115.295 59.6035C115.295 51.1425 110.619 46.2256 102.604 46.2256H93.9199ZM96.4619 48.5263H102.455C109.042 48.5263 112.716 52.497 112.716 59.622C112.716 66.7285 109.042 70.6992 102.455 70.6992H96.4619V48.5263ZM117.93 65.7265C118.208 70.3281 122.142 73.4267 127.745 73.4267C133.664 73.4267 137.449 70.3466 137.449 65.6523C137.449 61.9228 135.186 59.8633 129.805 58.5088L126.91 57.7666C122.977 56.7646 121.307 55.4101 121.307 53.1093C121.307 50.1591 124.053 48.0996 127.764 48.0996C131.567 48.0996 134.239 50.1035 134.48 53.1279H137.022C136.874 48.8789 133.052 45.7988 127.838 45.7988C122.568 45.7988 118.672 48.8789 118.672 53.2021C118.672 56.7275 120.88 58.8242 125.834 60.0859L129.155 60.9394C133.126 61.9414 134.852 63.4258 134.852 65.9306C134.852 68.9365 131.976 71.1259 127.968 71.1259C123.774 71.1259 120.75 68.9365 120.472 65.7265H117.93ZM155.568 53.088C153.744 50.39 153.212 46.59 156.252 45.412C158.038 44.728 160.09 45.298 161.23 46.514C163.472 49.326 163.396 53.81 158.228 56.85L155.568 53.088ZM152.034 70.112C148.31 65.856 151.692 61.068 154.086 59.586L156.632 58.066L163.244 67.49C161.116 72.848 155.036 73.494 152.034 70.112ZM172.136 70.264C172.174 71.48 171.148 72.012 170.274 72.012C170.274 72.012 168.754 71.936 167.5 70.15L164.46 65.856C165.676 61.486 168.602 60.916 168.602 61.828C168.64 62.208 168.678 62.398 169.096 62.74C169.704 63.234 170.578 63.158 171.072 62.588C171.756 61.866 171.338 60.954 170.92 60.65C170.426 60.232 169.666 60.156 168.982 60.308C168.032 60.498 165.638 61.144 164.194 65.514L158.418 57.116C164.498 53.468 163.472 48.452 161.534 46.324C160.432 45.108 158.494 44.424 156.138 44.804C151.882 45.526 150.628 50.01 154.77 55.406L156.404 57.762L153.858 59.358C150.704 61.068 146.448 66.426 150.704 71.138C155.074 75.926 162.408 72.05 163.472 67.794L165.904 71.442C167.31 73.532 169.552 73.342 169.552 73.342C170.578 73.342 172.326 72.468 172.402 70.264H172.136ZM198.303 68.06C198.303 70.72 196.099 72.468 193.667 72.468C190.133 72.468 187.549 69.238 187.549 63.31C187.549 56.888 191.387 55.444 193.667 55.444C196.099 55.444 198.303 57.534 198.303 60.118V68.06ZM200.165 70.72V45.26L196.365 45.906V46.248C197.923 46.248 198.303 46.894 198.303 48.224V56.736C197.049 55.748 195.491 55.102 193.515 55.102C188.689 55.102 185.041 58.332 185.041 64.032C185.041 68.63 187.055 73.342 192.945 73.342C194.921 73.342 197.163 72.43 198.303 70.796V72.62C198.303 72.62 198.303 73.494 199.367 73.304L202.103 72.734V72.43C200.583 72.582 200.165 72.582 200.165 70.72ZM212.211 72.582C208.791 72.582 206.131 70.378 206.131 63.88H218.329C218.329 57.838 214.871 55.102 211.527 55.102C207.385 55.102 203.889 58.56 203.889 64.45C203.889 70.036 207.233 73.342 211.717 73.342C215.593 73.342 217.569 70.226 217.759 68.63L217.531 68.592C217.075 70.568 214.757 72.582 212.211 72.582ZM206.131 63.5C206.131 57.61 209.399 55.444 211.527 55.444C213.047 55.444 216.429 57.23 216.429 63.5H206.131ZM235.811 72.658C234.443 72.316 234.253 72.658 234.253 70.568V55.444H230.453H224.905C224.905 45.64 227.717 44.994 229.883 44.994C233.151 44.994 234.063 47.54 233.113 47.312C232.847 47.236 232.429 47.236 232.087 47.426C231.365 47.844 231.137 48.68 231.517 49.402C231.897 50.048 232.771 50.314 233.493 49.934C233.949 49.668 234.291 49.06 234.291 48.528C234.481 45.412 231.707 44.69 229.883 44.69C225.817 44.69 223.005 46.704 223.005 55.444H220.535L220.573 55.786H223.005V70.796C223.005 72.734 222.967 72.506 221.523 72.696V73H227.033V72.696C225.665 72.582 224.905 72.886 224.905 70.796V55.786H230.453C232.049 55.786 232.353 56.28 232.353 57.61V70.568C232.353 72.506 232.277 72.24 230.833 72.658V73H235.811V72.658ZM252.569 70.568V61.448C252.569 56.888 250.061 55.102 246.869 55.102C244.475 55.102 242.195 56.888 241.473 58.978V55.102L237.673 55.748V56.052C239.269 56.052 239.573 56.622 239.573 57.952V70.568C239.573 72.506 239.497 72.24 238.053 72.658V73H243.031V72.658C241.663 72.316 241.473 72.658 241.473 70.568V59.548C242.081 58.332 243.563 56.128 245.995 56.128C249.111 56.128 250.707 58.256 250.707 61.6V70.568C250.707 72.506 250.631 72.278 249.187 72.696V73H254.127V72.696C252.797 72.354 252.569 72.658 252.569 70.568ZM264.758 72.582C261.338 72.582 258.678 70.378 258.678 63.88H270.876C270.876 57.838 267.418 55.102 264.074 55.102C259.932 55.102 256.436 58.56 256.436 64.45C256.436 70.036 259.78 73.342 264.264 73.342C268.14 73.342 270.116 70.226 270.306 68.63L270.078 68.592C269.622 70.568 267.304 72.582 264.758 72.582ZM258.678 63.5C258.678 57.61 261.946 55.444 264.074 55.444C265.594 55.444 268.976 57.23 268.976 63.5H258.678ZM38.0954 114.174C37.6014 115.998 35.8914 118.506 32.2434 118.506C29.4694 118.506 25.9734 116.226 25.9734 110.184C25.9734 102.546 30.6474 101.444 32.3194 101.444C35.8534 101.444 37.1454 103.002 36.7654 102.888C36.5754 102.812 36.1954 102.812 35.8154 102.964C35.1694 103.268 34.9414 104.028 35.2834 104.712C35.5494 105.32 36.4234 105.472 37.0314 105.206C37.4874 104.94 37.7154 104.522 37.7154 104.028C37.7154 103.382 37.0694 101.102 32.3194 101.102C27.1894 101.102 23.6934 105.396 23.6934 110.336C23.6934 117.062 28.3674 119.342 31.8634 119.342C36.4614 119.342 38.0574 116.074 38.3614 114.212L38.0954 114.174ZM49.6795 101.102C43.9035 101.102 41.2055 105.206 41.2055 110.222C41.2055 115.2 43.9035 119.342 49.6795 119.342C55.4935 119.342 58.1535 115.2 58.1535 110.222C58.1535 105.206 55.4935 101.102 49.6795 101.102ZM49.6795 119C46.6015 119 43.3715 117.1 43.3715 110.222C43.3715 103.344 46.6015 101.444 49.6795 101.444C52.7575 101.444 55.9495 103.344 55.9495 110.222C55.9495 117.1 52.7575 119 49.6795 119ZM84.3423 116.568V107.448C84.3423 102.888 82.4043 101.102 79.1743 101.102C76.7043 101.102 74.7283 103.002 74.1203 105.206C73.5883 102.28 71.8403 101.102 69.1803 101.102C66.7863 101.102 64.8103 102.85 64.1643 104.978V101.102L60.3643 101.748V102.052C61.9603 102.052 62.2643 102.622 62.2643 103.952V116.568C62.2643 118.506 62.1883 118.24 60.7443 118.658V119H65.7223V118.658C64.3543 118.316 64.1643 118.658 64.1643 116.568V105.548C64.6963 104.332 65.8743 102.128 68.3063 102.128C71.4603 102.128 72.4483 104.256 72.4483 107.6V116.568C72.4483 118.506 72.3723 118.278 70.9283 118.696V119H75.8683V118.696C74.5383 118.354 74.3103 118.658 74.3103 116.568V107.448C74.3103 106.764 74.2723 106.118 74.1963 105.586C74.6903 104.37 75.9063 102.128 78.3383 102.128C81.4543 102.128 82.4803 104.256 82.4803 107.6V116.568C82.4803 118.506 82.4043 118.278 80.9603 118.696V119H85.9003V118.696C84.5703 118.354 84.3423 118.658 84.3423 116.568ZM110.987 116.568V107.448C110.987 102.888 109.049 101.102 105.819 101.102C103.349 101.102 101.373 103.002 100.765 105.206C100.233 102.28 98.4848 101.102 95.8248 101.102C93.4308 101.102 91.4548 102.85 90.8088 104.978V101.102L87.0088 101.748V102.052C88.6048 102.052 88.9088 102.622 88.9088 103.952V116.568C88.9088 118.506 88.8328 118.24 87.3888 118.658V119H92.3668V118.658C90.9988 118.316 90.8088 118.658 90.8088 116.568V105.548C91.3408 104.332 92.5188 102.128 94.9508 102.128C98.1048 102.128 99.0928 104.256 99.0928 107.6V116.568C99.0928 118.506 99.0168 118.278 97.5728 118.696V119H102.513V118.696C101.183 118.354 100.955 118.658 100.955 116.568V107.448C100.955 106.764 100.917 106.118 100.841 105.586C101.335 104.37 102.551 102.128 104.983 102.128C108.099 102.128 109.125 104.256 109.125 107.6V116.568C109.125 118.506 109.049 118.278 107.605 118.696V119H112.545V118.696C111.215 118.354 110.987 118.658 110.987 116.568ZM128.484 116.15V101.102L124.798 101.786V102.09C126.584 102.09 126.584 102.128 126.584 104.446V114.972C126.052 116.644 124.722 118.354 122.024 118.354C119.82 118.354 117.388 117.176 117.388 113.566V101.102L113.436 101.786V102.09C115.564 102.09 115.564 102.09 115.564 104.712V113.68C115.564 118.582 119.136 119.342 121.606 119.342C124.342 119.342 126.166 117.632 126.584 115.77V118.886C126.584 118.886 126.546 119.494 127.382 119.304L130.422 118.81V118.506C128.826 118.316 128.484 117.974 128.484 116.15ZM146.436 116.568V107.448C146.436 102.888 143.928 101.102 140.736 101.102C138.342 101.102 136.062 102.888 135.34 104.978V101.102L131.54 101.748V102.052C133.136 102.052 133.44 102.622 133.44 103.952V116.568C133.44 118.506 133.364 118.24 131.92 118.658V119H136.898V118.658C135.53 118.316 135.34 118.658 135.34 116.568V105.548C135.948 104.332 137.43 102.128 139.862 102.128C142.978 102.128 144.574 104.256 144.574 107.6V116.568C144.574 118.506 144.498 118.278 143.054 118.696V119H147.994V118.696C146.664 118.354 146.436 118.658 146.436 116.568ZM153.799 101.102L150.037 101.748V102.052C151.633 102.052 151.899 102.584 151.899 103.914V116.568C151.899 118.506 151.823 118.24 150.379 118.658V119H155.357V118.658C153.989 118.316 153.799 118.658 153.799 116.568V101.102ZM153.761 96.542C153.761 95.782 153.153 95.212 152.469 95.212C151.747 95.212 151.215 95.782 151.215 96.542C151.215 97.226 151.747 97.796 152.469 97.796C153.153 97.796 153.761 97.226 153.761 96.542ZM172.914 114.174C172.42 115.998 170.71 118.506 167.062 118.506C164.288 118.506 160.792 116.226 160.792 110.184C160.792 102.546 165.466 101.444 167.138 101.444C170.672 101.444 171.964 103.002 171.584 102.888C171.394 102.812 171.014 102.812 170.634 102.964C169.988 103.268 169.76 104.028 170.102 104.712C170.368 105.32 171.242 105.472 171.85 105.206C172.306 104.94 172.534 104.522 172.534 104.028C172.534 103.382 171.888 101.102 167.138 101.102C162.008 101.102 158.512 105.396 158.512 110.336C158.512 117.062 163.186 119.342 166.682 119.342C171.28 119.342 172.876 116.074 173.18 114.212L172.914 114.174ZM185.6 115.466C185.182 116.378 184.156 118.24 181.458 118.24C179.292 118.24 177.924 116.986 177.924 114.782C177.924 112.122 180.546 110.564 185.6 109.31V115.466ZM189.248 118.088C187.652 118.088 187.652 115.96 187.652 115.96V108.702C187.652 104.18 186.778 101.102 183.472 101.102C183.472 101.102 181.686 101.064 180.128 101.824C178.114 102.926 177.354 104.18 177.164 104.636C176.974 105.092 177.088 105.662 177.43 106.08C177.924 106.688 178.76 106.726 179.33 106.232C179.9 105.7 179.976 104.826 179.482 104.256C179.216 103.952 178.912 103.838 178.57 103.762C178.38 103.724 178.684 102.888 180.432 102.052C183.89 100.608 185.6 103.04 185.6 106.916V108.968C179.254 110.64 176.024 111.932 176.024 115.39C176.024 119.38 180.318 119.342 180.318 119.342C182.94 119.342 185.106 118.012 185.6 116.036C185.6 119.532 188.222 119.342 188.222 119.342C189.818 119.342 190.616 117.974 190.806 116.872L190.502 116.758C190.236 118.088 189.248 118.088 189.248 118.088ZM198.912 118.316C197.202 118.316 195.948 117.328 195.948 113.414V101.786H200.356L200.432 101.444H195.948V95.478L194.048 95.706V101.444H192.072L192.11 101.786H194.048V113.528C194.048 118.126 195.644 119.342 198.152 119.342C200.014 119.342 201.154 118.05 201.458 116.492L201.23 116.416C200.964 117.442 200.014 118.316 198.912 118.316ZM206.94 101.102L203.178 101.748V102.052C204.774 102.052 205.04 102.584 205.04 103.914V116.568C205.04 118.506 204.964 118.24 203.52 118.658V119H208.498V118.658C207.13 118.316 206.94 118.658 206.94 116.568V101.102ZM206.902 96.542C206.902 95.782 206.294 95.212 205.61 95.212C204.888 95.212 204.356 95.782 204.356 96.542C204.356 97.226 204.888 97.796 205.61 97.796C206.294 97.796 206.902 97.226 206.902 96.542ZM219.974 101.102C214.198 101.102 211.5 105.206 211.5 110.222C211.5 115.2 214.198 119.342 219.974 119.342C225.788 119.342 228.448 115.2 228.448 110.222C228.448 105.206 225.788 101.102 219.974 101.102ZM219.974 119C216.896 119 213.666 117.1 213.666 110.222C213.666 103.344 216.896 101.444 219.974 101.444C223.052 101.444 226.244 103.344 226.244 110.222C226.244 117.1 223.052 119 219.974 119ZM245.555 116.568V107.448C245.555 102.888 243.047 101.102 239.855 101.102C237.461 101.102 235.181 102.888 234.459 104.978V101.102L230.659 101.748V102.052C232.255 102.052 232.559 102.622 232.559 103.952V116.568C232.559 118.506 232.483 118.24 231.039 118.658V119H236.017V118.658C234.649 118.316 234.459 118.658 234.459 116.568V105.548C235.067 104.332 236.549 102.128 238.981 102.128C242.097 102.128 243.693 104.256 243.693 107.6V116.568C243.693 118.506 243.617 118.278 242.173 118.696V119H247.113V118.696C245.783 118.354 245.555 118.658 245.555 116.568ZM31.4834 157.727C31.7617 162.328 35.6953 165.427 41.2988 165.427C47.2178 165.427 51.0029 162.347 51.0029 157.652C51.0029 153.923 48.7393 151.863 43.3584 150.509L40.4639 149.767C36.5303 148.765 34.8604 147.41 34.8604 145.109C34.8604 142.159 37.6064 140.1 41.3174 140.1C45.1211 140.1 47.793 142.103 48.0342 145.128H50.5762C50.4277 140.879 46.6055 137.799 41.3916 137.799C36.1221 137.799 32.2256 140.879 32.2256 145.202C32.2256 148.728 34.4336 150.824 39.3877 152.086L42.709 152.939C46.6797 153.941 48.4053 155.426 48.4053 157.931C48.4053 160.936 45.5293 163.126 41.5215 163.126C37.3281 163.126 34.3037 160.936 34.0254 157.727H31.4834ZM64.1025 165V140.526H72.9531V138.226H52.7285V140.526H61.5605V165H64.1025ZM78.6865 140.489H85.3105C89.207 140.489 91.5635 142.586 91.5635 146.13C91.5635 149.711 89.2998 151.789 85.4033 151.789H78.6865V140.489ZM78.6865 154.034H85.4033C85.5332 154.034 85.7188 154.034 85.8115 154.034L91.9717 165H94.9404L88.4463 153.626C92.0273 152.698 94.1797 149.841 94.1797 146.056C94.1797 141.287 90.8398 138.226 85.6074 138.226H76.1631V165H78.6865V154.034ZM116.111 165H118.783L108.782 138.226H106.259L96.2393 165H98.9297L101.898 156.799H113.143L116.111 165ZM107.465 141.361H107.576L112.382 154.609H102.659L107.465 141.361ZM127.522 165V140.526H136.373V138.226H116.148V140.526H124.98V165H127.522ZM155.744 162.699H142.106V152.42H155.058V150.156H142.106V140.526H155.744V138.226H139.583V165H155.744V162.699ZM182.129 154.127V151.548H171.293V153.774H179.605V154.721C179.605 159.768 176.191 163.07 171.015 163.07C165.281 163.07 161.589 158.524 161.589 151.455C161.589 144.478 165.207 140.155 171.015 140.155C175.097 140.155 178.232 142.456 179.327 146.278H181.962C180.96 141.157 176.637 137.799 171.015 137.799C163.704 137.799 158.991 143.161 158.991 151.455C158.991 159.897 163.76 165.427 171.015 165.427C177.973 165.427 182.129 161.196 182.129 154.127ZM188.753 165V138.226H186.229V165H188.753ZM209.924 162.699H196.286V152.42H209.237V150.156H196.286V140.526H209.924V138.226H193.763V165H209.924V162.699ZM212.54 157.727C212.818 162.328 216.752 165.427 222.355 165.427C228.274 165.427 232.06 162.347 232.06 157.652C232.06 153.923 229.796 151.863 224.415 150.509L221.521 149.767C217.587 148.765 215.917 147.41 215.917 145.109C215.917 142.159 218.663 140.1 222.374 140.1C226.178 140.1 228.85 142.103 229.091 145.128H231.633C231.484 140.879 227.662 137.799 222.448 137.799C217.179 137.799 213.282 140.879 213.282 145.202C213.282 148.728 215.49 150.824 220.444 152.086L223.766 152.939C227.736 153.941 229.462 155.426 229.462 157.931C229.462 160.936 226.586 163.126 222.578 163.126C218.385 163.126 215.36 160.936 215.082 157.727H212.54ZM237.94 163.936C237.94 163.176 237.332 162.606 236.648 162.606C235.926 162.606 235.394 163.176 235.394 163.936C235.394 164.62 235.926 165.19 236.648 165.19C237.332 165.19 237.94 164.62 237.94 163.936Z" fill="black"/>
<path d="M183.521 76.8H272.396V78.7H183.521V76.8Z" fill="black"/>
</svg>
