<svg width="508" height="153" viewBox="0 0 508 153" fill="none" xmlns="http://www.w3.org/2000/svg">
<path d="M85.6141 26.16C85.6141 35.568 77.7901 36 75.8221 36C71.2621 36 62.8141 35.376 62.8141 19.104C62.8141 3.264 71.1181 2.208 75.8221 2.208C78.0781 2.208 85.6141 2.64 85.6141 12H86.0461L86.4781 4.704C83.4541 2.256 80.7661 1.776 75.8221 1.776C66.1741 1.776 59.1661 7.056 59.1661 19.104C59.1661 30.912 66.1741 36.432 75.8221 36.432C80.9581 36.432 82.9261 35.808 86.4781 33.456L86.0461 26.16H85.6141ZM101.372 13.44C98.6363 13.104 95.1323 15.504 94.1243 18V13.392L89.3243 14.208V14.592C91.3403 14.592 91.7243 15.264 91.7243 16.944V32.928C91.7243 35.376 91.6283 35.04 89.8043 35.568V36H96.0923V35.568C94.3643 35.136 94.1243 35.568 94.1243 32.928V18.96C95.3723 15.408 99.9323 13.632 99.5003 14.688C99.3563 15.12 99.3563 15.6 99.5003 16.032C99.9323 16.992 101.036 17.424 101.948 17.04C102.908 16.608 103.34 15.6 102.956 14.64C102.62 13.968 102.044 13.536 101.372 13.44ZM116.315 35.472C111.995 35.472 108.635 32.688 108.635 24.48H124.043C124.043 16.848 119.675 13.392 115.451 13.392C110.219 13.392 105.803 17.76 105.803 25.2C105.803 32.256 110.027 36.432 115.691 36.432C120.587 36.432 123.083 32.496 123.323 30.48L123.035 30.432C122.459 32.928 119.531 35.472 116.315 35.472ZM108.635 24C108.635 16.56 112.763 13.824 115.451 13.824C117.371 13.824 121.643 16.08 121.643 24H108.635ZM140.029 31.536C139.501 32.688 138.205 35.04 134.797 35.04C132.061 35.04 130.333 33.456 130.333 30.672C130.333 27.312 133.645 25.344 140.029 23.76V31.536ZM144.637 34.848C142.621 34.848 142.621 32.16 142.621 32.16V22.992C142.621 17.28 141.517 13.392 137.341 13.392C137.341 13.392 135.085 13.344 133.117 14.304C130.573 15.696 129.613 17.28 129.373 17.856C129.133 18.432 129.277 19.152 129.709 19.68C130.333 20.448 131.389 20.496 132.109 19.872C132.829 19.2 132.925 18.096 132.301 17.376C131.965 16.992 131.581 16.848 131.149 16.752C130.909 16.704 131.293 15.648 133.501 14.592C137.869 12.768 140.029 15.84 140.029 20.736V23.328C132.013 25.44 127.933 27.072 127.933 31.44C127.933 36.48 133.357 36.432 133.357 36.432C136.669 36.432 139.405 34.752 140.029 32.256C140.029 36.672 143.341 36.432 143.341 36.432C145.357 36.432 146.365 34.704 146.605 33.312L146.221 33.168C145.885 34.848 144.637 34.848 144.637 34.848ZM178.156 32.928V21.408C178.156 15.648 175.708 13.392 171.628 13.392C168.508 13.392 166.012 15.792 165.244 18.576C164.572 14.88 162.364 13.392 159.004 13.392C155.98 13.392 153.484 15.6 152.668 18.288V13.392L147.868 14.208V14.592C149.884 14.592 150.268 15.312 150.268 16.992V32.928C150.268 35.376 150.172 35.04 148.348 35.568V36H154.636V35.568C152.908 35.136 152.668 35.568 152.668 32.928V19.008C153.34 17.472 154.828 14.688 157.9 14.688C161.884 14.688 163.132 17.376 163.132 21.6V32.928C163.132 35.376 163.036 35.088 161.212 35.616V36H167.452V35.616C165.772 35.184 165.484 35.568 165.484 32.928V21.408C165.484 20.544 165.436 19.728 165.34 19.056C165.964 17.52 167.5 14.688 170.572 14.688C174.508 14.688 175.804 17.376 175.804 21.6V32.928C175.804 35.376 175.708 35.088 173.884 35.616V36H180.124V35.616C178.444 35.184 178.156 35.568 178.156 32.928ZM193.668 13.392C186.372 13.392 182.964 18.576 182.964 24.912C182.964 31.2 186.372 36.432 193.668 36.432C201.012 36.432 204.372 31.2 204.372 24.912C204.372 18.576 201.012 13.392 193.668 13.392ZM193.668 36C189.78 36 185.7 33.6 185.7 24.912C185.7 16.224 189.78 13.824 193.668 13.824C197.556 13.824 201.588 16.224 201.588 24.912C201.588 33.6 197.556 36 193.668 36ZM218.925 24.768L214.077 21.744C209.901 19.104 209.277 13.824 215.229 13.824C221.469 13.824 222.621 17.376 222.621 21.312H223.005V14.976C223.005 14.976 220.749 13.392 215.229 13.392C210.285 13.392 209.229 16.464 209.229 16.464C207.981 19.584 208.893 21.456 213.405 24.768L218.253 27.696C221.901 30.096 223.773 36 217.005 36C210.093 36 209.277 32.256 209.277 27.792H208.893V34.8C208.893 34.8 211.197 36.432 217.005 36.432C220.989 36.432 222.477 34.272 222.477 34.272C224.685 31.152 223.341 27.504 218.925 24.768ZM269.729 36V4.99805H266.334L254.861 32.1328H254.732L243.238 4.99805H239.865V36H242.615V10.5625H242.744L253.508 35.8496H256.064L266.85 10.5625H266.979V36H269.729ZM296.133 36H299.227L287.646 4.99805H284.725L273.123 36H276.238L279.676 26.5039H292.695L296.133 36ZM286.121 8.62891H286.25L291.814 23.9688H280.557L286.121 8.62891ZM305.564 7.61914H313.234C317.746 7.61914 320.475 10.0469 320.475 14.1504C320.475 18.2969 317.854 20.7031 313.342 20.7031H305.564V7.61914ZM305.564 23.3027H313.342C313.492 23.3027 313.707 23.3027 313.814 23.3027L320.947 36H324.385L316.865 22.8301C321.012 21.7559 323.504 18.4473 323.504 14.0645C323.504 8.54297 319.637 4.99805 313.578 4.99805H302.643V36H305.564V23.3027ZM340.863 36.4941C347.588 36.4941 352.336 32.8633 353.432 26.8262H350.488C349.564 31.123 345.826 33.7656 340.885 33.7656C334.289 33.7656 330.057 28.5879 330.057 20.4238C330.057 12.3672 334.289 7.23242 340.863 7.23242C345.676 7.23242 349.629 10.3691 350.488 14.8379H353.432C352.594 8.7793 347.416 4.50391 340.863 4.50391C332.441 4.50391 327.049 10.7129 327.049 20.4238C327.049 30.2422 332.42 36.4941 340.863 36.4941ZM378.375 36H381.469L369.889 4.99805H366.967L355.365 36H358.48L361.918 26.5039H374.938L378.375 36ZM368.363 8.62891H368.492L374.057 23.9688H362.799L368.363 8.62891ZM383.381 27.5781C383.703 32.9062 388.258 36.4941 394.746 36.4941C401.6 36.4941 405.982 32.9277 405.982 27.4922C405.982 23.1738 403.361 20.7891 397.131 19.2207L393.779 18.3613C389.225 17.2012 387.291 15.6328 387.291 12.9688C387.291 9.55273 390.471 7.16797 394.768 7.16797C399.172 7.16797 402.266 9.48828 402.545 12.9902H405.488C405.316 8.07031 400.891 4.50391 394.854 4.50391C388.752 4.50391 384.24 8.07031 384.24 13.0762C384.24 17.1582 386.797 19.5859 392.533 21.0469L396.379 22.0352C400.977 23.1953 402.975 24.9141 402.975 27.8145C402.975 31.2949 399.645 33.8301 395.004 33.8301C390.148 33.8301 386.646 31.2949 386.324 27.5781H383.381ZM428.743 10.848C426.439 7.44 425.767 2.64 429.607 1.152C431.863 0.287999 434.455 1.008 435.895 2.544C438.727 6.096 438.631 11.76 432.103 15.6L428.743 10.848ZM424.279 32.352C419.575 26.976 423.847 20.928 426.871 19.056L430.087 17.136L438.439 29.04C435.751 35.808 428.071 36.624 424.279 32.352ZM449.671 32.544C449.719 34.08 448.423 34.752 447.319 34.752C447.319 34.752 445.399 34.656 443.815 32.4L439.975 26.976C441.511 21.456 445.207 20.736 445.207 21.888C445.255 22.368 445.303 22.608 445.831 23.04C446.599 23.664 447.703 23.568 448.327 22.848C449.191 21.936 448.663 20.784 448.135 20.4C447.511 19.872 446.551 19.776 445.687 19.968C444.487 20.208 441.463 21.024 439.639 26.544L432.343 15.936C440.023 11.328 438.727 4.992 436.279 2.304C434.887 0.767999 432.439 -0.0960016 429.463 0.383998C424.087 1.296 422.503 6.96 427.735 13.776L429.799 16.752L426.583 18.768C422.599 20.928 417.223 27.696 422.599 33.648C428.119 39.696 437.383 34.8 438.727 29.424L441.799 34.032C443.575 36.672 446.407 36.432 446.407 36.432C447.703 36.432 449.911 35.328 450.007 32.544H449.671ZM19.0333 87.76C19.0333 91.12 16.2493 93.328 13.1773 93.328C8.71333 93.328 5.44933 89.248 5.44933 81.76C5.44933 73.648 10.2973 71.824 13.1773 71.824C16.2493 71.824 19.0333 74.464 19.0333 77.728V87.76ZM21.3853 91.12V58.96L16.5853 59.776V60.208C18.5533 60.208 19.0333 61.024 19.0333 62.704V73.456C17.4493 72.208 15.4813 71.392 12.9853 71.392C6.88933 71.392 2.28133 75.472 2.28133 82.672C2.28133 88.48 4.82533 94.432 12.2653 94.432C14.7613 94.432 17.5933 93.28 19.0333 91.216V93.52C19.0333 93.52 19.0333 94.624 20.3773 94.384L23.8333 93.664V93.28C21.9133 93.472 21.3853 93.472 21.3853 91.12ZM36.6025 93.472C32.2825 93.472 28.9225 90.688 28.9225 82.48H44.3305C44.3305 74.848 39.9625 71.392 35.7385 71.392C30.5065 71.392 26.0905 75.76 26.0905 83.2C26.0905 90.256 30.3145 94.432 35.9785 94.432C40.8745 94.432 43.3705 90.496 43.6105 88.48L43.3225 88.432C42.7465 90.928 39.8185 93.472 36.6025 93.472ZM28.9225 82C28.9225 74.56 33.0505 71.824 35.7385 71.824C37.6585 71.824 41.9305 74.08 41.9305 82H28.9225ZM66.412 93.568C64.684 93.136 64.444 93.568 64.444 90.928V71.824H59.644H52.636C52.636 59.44 56.188 58.624 58.924 58.624C63.052 58.624 64.204 61.84 63.004 61.552C62.668 61.456 62.14 61.456 61.708 61.696C60.796 62.224 60.508 63.28 60.988 64.192C61.468 65.008 62.572 65.344 63.484 64.864C64.06 64.528 64.492 63.76 64.492 63.088C64.732 59.152 61.228 58.24 58.924 58.24C53.788 58.24 50.236 60.784 50.236 71.824H47.116L47.164 72.256H50.236V91.216C50.236 93.664 50.188 93.376 48.364 93.616V94H55.324V93.616C53.596 93.472 52.636 93.856 52.636 91.216V72.256H59.644C61.66 72.256 62.044 72.88 62.044 74.56V90.928C62.044 93.376 61.948 93.04 60.124 93.568V94H66.412V93.568ZM87.5803 90.928V79.408C87.5803 73.648 84.4123 71.392 80.3803 71.392C77.3563 71.392 74.4763 73.648 73.5643 76.288V71.392L68.7643 72.208V72.592C70.7803 72.592 71.1643 73.312 71.1643 74.992V90.928C71.1643 93.376 71.0683 93.04 69.2443 93.568V94H75.5323V93.568C73.8043 93.136 73.5643 93.568 73.5643 90.928V77.008C74.3323 75.472 76.2043 72.688 79.2763 72.688C83.2123 72.688 85.2283 75.376 85.2283 79.6V90.928C85.2283 93.376 85.1323 93.088 83.3083 93.616V94H89.5483V93.616C87.8683 93.184 87.5803 93.568 87.5803 90.928ZM96.8815 71.392L92.1295 72.208V72.592C94.1455 72.592 94.4815 73.264 94.4815 74.944V90.928C94.4815 93.376 94.3855 93.04 92.5615 93.568V94H98.8495V93.568C97.1215 93.136 96.8815 93.568 96.8815 90.928V71.392ZM96.8335 65.632C96.8335 64.672 96.0655 63.952 95.2015 63.952C94.2895 63.952 93.6175 64.672 93.6175 65.632C93.6175 66.496 94.2895 67.216 95.2015 67.216C96.0655 67.216 96.8335 66.496 96.8335 65.632ZM131.49 90.928V79.408C131.49 73.648 129.042 71.392 124.962 71.392C121.842 71.392 119.346 73.792 118.578 76.576C117.906 72.88 115.698 71.392 112.338 71.392C109.314 71.392 106.818 73.6 106.002 76.288V71.392L101.202 72.208V72.592C103.218 72.592 103.602 73.312 103.602 74.992V90.928C103.602 93.376 103.506 93.04 101.682 93.568V94H107.97V93.568C106.242 93.136 106.002 93.568 106.002 90.928V77.008C106.674 75.472 108.162 72.688 111.234 72.688C115.218 72.688 116.466 75.376 116.466 79.6V90.928C116.466 93.376 116.37 93.088 114.546 93.616V94H120.786V93.616C119.106 93.184 118.818 93.568 118.818 90.928V79.408C118.818 78.544 118.77 77.728 118.674 77.056C119.298 75.52 120.834 72.688 123.906 72.688C127.842 72.688 129.138 75.376 129.138 79.6V90.928C129.138 93.376 129.042 93.088 127.218 93.616V94H133.458V93.616C131.778 93.184 131.49 93.568 131.49 90.928ZM147.002 71.392C139.706 71.392 136.298 76.576 136.298 82.912C136.298 89.2 139.706 94.432 147.002 94.432C154.346 94.432 157.706 89.2 157.706 82.912C157.706 76.576 154.346 71.392 147.002 71.392ZM147.002 94C143.114 94 139.034 91.6 139.034 82.912C139.034 74.224 143.114 71.824 147.002 71.824C150.89 71.824 154.922 74.224 154.922 82.912C154.922 91.6 150.89 94 147.002 94ZM172.259 82.768L167.411 79.744C163.235 77.104 162.611 71.824 168.563 71.824C174.803 71.824 175.955 75.376 175.955 79.312H176.339V72.976C176.339 72.976 174.083 71.392 168.563 71.392C163.619 71.392 162.563 74.464 162.563 74.464C161.315 77.584 162.227 79.456 166.739 82.768L171.587 85.696C175.235 88.096 177.107 94 170.339 94C163.427 94 162.611 90.256 162.611 85.792H162.227V92.8C162.227 92.8 164.531 94.432 170.339 94.432C174.323 94.432 175.811 92.272 175.811 92.272C178.019 89.152 176.675 85.504 172.259 82.768ZM211.912 91.3359H196.121V79.4336H211.117V76.8125H196.121V65.6621H211.912V62.998H193.199V94H211.912V91.3359ZM214.941 85.5781C215.264 90.9062 219.818 94.4941 226.307 94.4941C233.16 94.4941 237.543 90.9277 237.543 85.4922C237.543 81.1738 234.922 78.7891 228.691 77.2207L225.34 76.3613C220.785 75.2012 218.852 73.6328 218.852 70.9688C218.852 67.5527 222.031 65.168 226.328 65.168C230.732 65.168 233.826 67.4883 234.105 70.9902H237.049C236.877 66.0703 232.451 62.5039 226.414 62.5039C220.312 62.5039 215.801 66.0703 215.801 71.0762C215.801 75.1582 218.357 77.5859 224.094 79.0469L227.939 80.0352C232.537 81.1953 234.535 82.9141 234.535 85.8145C234.535 89.2949 231.205 91.8301 226.564 91.8301C221.709 91.8301 218.207 89.2949 217.885 85.5781H214.941ZM252.711 94V65.6621H262.959V62.998H239.541V65.6621H249.768V94H252.711ZM269.598 65.6191H277.268C281.779 65.6191 284.508 68.0469 284.508 72.1504C284.508 76.2969 281.887 78.7031 277.375 78.7031H269.598V65.6191ZM269.598 81.3027H277.375C277.525 81.3027 277.74 81.3027 277.848 81.3027L284.98 94H288.418L280.898 80.8301C285.045 79.7559 287.537 76.4473 287.537 72.0645C287.537 66.543 283.67 62.998 277.611 62.998H266.676V94H269.598V81.3027ZM312.932 94H316.025L304.445 62.998H301.523L289.922 94H293.037L296.475 84.5039H309.494L312.932 94ZM302.92 66.6289H303.049L308.613 81.9688H297.355L302.92 66.6289ZM326.145 94V65.6621H336.393V62.998H312.975V65.6621H323.201V94H326.145ZM358.822 91.3359H343.031V79.4336H358.027V76.8125H343.031V65.6621H358.822V62.998H340.109V94H358.822V91.3359ZM389.373 81.4102V78.4238H376.826V81.002H386.451V82.0977C386.451 87.9414 382.498 91.7656 376.504 91.7656C369.865 91.7656 365.59 86.502 365.59 78.3164C365.59 70.2383 369.779 65.2324 376.504 65.2324C381.23 65.2324 384.861 67.8965 386.129 72.3223H389.18C388.02 66.3926 383.014 62.5039 376.504 62.5039C368.039 62.5039 362.582 68.7129 362.582 78.3164C362.582 88.0918 368.104 94.4941 376.504 94.4941C384.561 94.4941 389.373 89.5957 389.373 81.4102ZM397.043 94V62.998H394.121V94H397.043ZM423.447 94H426.541L414.961 62.998H412.039L400.438 94H403.553L406.99 84.5039H420.01L423.447 94ZM413.436 66.6289H413.564L419.129 81.9688H407.871L413.436 66.6289ZM428.453 85.5781C428.775 90.9062 433.33 94.4941 439.818 94.4941C446.672 94.4941 451.055 90.9277 451.055 85.4922C451.055 81.1738 448.434 78.7891 442.203 77.2207L438.852 76.3613C434.297 75.2012 432.363 73.6328 432.363 70.9688C432.363 67.5527 435.543 65.168 439.84 65.168C444.244 65.168 447.338 67.4883 447.617 70.9902H450.561C450.389 66.0703 445.963 62.5039 439.926 62.5039C433.824 62.5039 429.312 66.0703 429.312 71.0762C429.312 75.1582 431.869 77.5859 437.605 79.0469L441.451 80.0352C446.049 81.1953 448.047 82.9141 448.047 85.8145C448.047 89.2949 444.717 91.8301 440.076 91.8301C435.221 91.8301 431.719 89.2949 431.396 85.5781H428.453ZM482.42 87.76C482.42 91.12 479.636 93.328 476.564 93.328C472.1 93.328 468.836 89.248 468.836 81.76C468.836 73.648 473.684 71.824 476.564 71.824C479.636 71.824 482.42 74.464 482.42 77.728V87.76ZM484.772 91.12V58.96L479.972 59.776V60.208C481.94 60.208 482.42 61.024 482.42 62.704V73.456C480.836 72.208 478.868 71.392 476.372 71.392C470.276 71.392 465.668 75.472 465.668 82.672C465.668 88.48 468.212 94.432 475.652 94.432C478.148 94.432 480.98 93.28 482.42 91.216V93.52C482.42 93.52 482.42 94.624 483.764 94.384L487.22 93.664V93.28C485.3 93.472 484.772 93.472 484.772 91.12ZM499.989 93.472C495.669 93.472 492.309 90.688 492.309 82.48H507.717C507.717 74.848 503.349 71.392 499.125 71.392C493.893 71.392 489.477 75.76 489.477 83.2C489.477 90.256 493.701 94.432 499.365 94.432C504.261 94.432 506.757 90.496 506.997 88.48L506.709 88.432C506.133 90.928 503.205 93.472 499.989 93.472ZM492.309 82C492.309 74.56 496.437 71.824 499.125 71.824C501.045 71.824 505.317 74.08 505.317 82H492.309ZM78.8618 126.848C76.5578 123.44 75.8858 118.64 79.7258 117.152C81.9818 116.288 84.5738 117.008 86.0138 118.544C88.8458 122.096 88.7498 127.76 82.2218 131.6L78.8618 126.848ZM74.3978 148.352C69.6938 142.976 73.9658 136.928 76.9898 135.056L80.2058 133.136L88.5578 145.04C85.8698 151.808 78.1898 152.624 74.3978 148.352ZM99.7898 148.544C99.8378 150.08 98.5418 150.752 97.4378 150.752C97.4378 150.752 95.5178 150.656 93.9338 148.4L90.0938 142.976C91.6298 137.456 95.3258 136.736 95.3258 137.888C95.3738 138.368 95.4218 138.608 95.9498 139.04C96.7178 139.664 97.8218 139.568 98.4458 138.848C99.3098 137.936 98.7818 136.784 98.2538 136.4C97.6298 135.872 96.6698 135.776 95.8058 135.968C94.6058 136.208 91.5818 137.024 89.7578 142.544L82.4618 131.936C90.1418 127.328 88.8458 120.992 86.3978 118.304C85.0058 116.768 82.5578 115.904 79.5818 116.384C74.2058 117.296 72.6218 122.96 77.8538 129.776L79.9178 132.752L76.7018 134.768C72.7178 136.928 67.3418 143.696 72.7178 149.648C78.2378 155.696 87.5018 150.8 88.8458 145.424L91.9178 150.032C93.6938 152.672 96.5258 152.432 96.5258 152.432C97.8218 152.432 100.03 151.328 100.126 148.544H99.7898ZM129.639 152.494C136.363 152.494 141.111 148.863 142.207 142.826H139.264C138.34 147.123 134.602 149.766 129.66 149.766C123.064 149.766 118.832 144.588 118.832 136.424C118.832 128.367 123.064 123.232 129.639 123.232C134.451 123.232 138.404 126.369 139.264 130.838H142.207C141.369 124.779 136.191 120.504 129.639 120.504C121.217 120.504 115.824 126.713 115.824 136.424C115.824 146.242 121.195 152.494 129.639 152.494ZM159.373 120.504C150.736 120.504 145.301 126.691 145.301 136.51C145.301 146.328 150.736 152.494 159.373 152.494C168.031 152.494 173.467 146.328 173.467 136.51C173.467 126.691 168.01 120.504 159.373 120.504ZM159.373 123.232C166.162 123.232 170.459 128.367 170.459 136.51C170.459 144.631 166.162 149.766 159.373 149.766C152.584 149.766 148.309 144.631 148.309 136.51C148.309 128.367 152.584 123.232 159.373 123.232ZM207.906 152V120.998H204.512L193.039 148.133H192.91L181.416 120.998H178.043V152H180.793V126.562H180.922L191.686 151.85H194.242L205.027 126.562H205.156V152H207.906ZM216.629 120.998H213.707V141.172C213.707 147.854 218.24 152.494 225.695 152.494C233.15 152.494 237.705 147.854 237.705 141.172V120.998H234.762V141C234.762 146.199 231.389 149.766 225.695 149.766C220.023 149.766 216.629 146.199 216.629 141V120.998ZM246.385 152V126.09H246.535L264.775 152H267.611V120.998H264.711V146.887H264.561L246.385 120.998H243.484V152H246.385ZM276.355 152V120.998H273.434V152H276.355ZM294.725 152.494C301.449 152.494 306.197 148.863 307.293 142.826H304.35C303.426 147.123 299.688 149.766 294.746 149.766C288.15 149.766 283.918 144.588 283.918 136.424C283.918 128.367 288.15 123.232 294.725 123.232C299.537 123.232 303.49 126.369 304.35 130.838H307.293C306.455 124.779 301.277 120.504 294.725 120.504C286.303 120.504 280.91 126.713 280.91 136.424C280.91 146.242 286.281 152.494 294.725 152.494ZM332.236 152H335.33L323.75 120.998H320.828L309.227 152H312.342L315.779 142.504H328.799L332.236 152ZM322.225 124.629H322.354L327.918 139.969H316.66L322.225 124.629ZM350.326 152.494C357.051 152.494 361.799 148.863 362.895 142.826H359.951C359.027 147.123 355.289 149.766 350.348 149.766C343.752 149.766 339.52 144.588 339.52 136.424C339.52 128.367 343.752 123.232 350.326 123.232C355.139 123.232 359.092 126.369 359.951 130.838H362.895C362.057 124.779 356.879 120.504 350.326 120.504C341.904 120.504 336.512 126.713 336.512 136.424C336.512 146.242 341.883 152.494 350.326 152.494ZM370.156 152V120.998H367.234V152H370.156ZM388.783 120.504C380.146 120.504 374.711 126.691 374.711 136.51C374.711 146.328 380.146 152.494 388.783 152.494C397.441 152.494 402.877 146.328 402.877 136.51C402.877 126.691 397.42 120.504 388.783 120.504ZM388.783 123.232C395.572 123.232 399.869 128.367 399.869 136.51C399.869 144.631 395.572 149.766 388.783 149.766C381.994 149.766 377.719 144.631 377.719 136.51C377.719 128.367 381.994 123.232 388.783 123.232ZM390.201 118.527L396.088 112.34H392.844L387.602 118.527H390.201ZM410.354 152V126.09H410.504L428.744 152H431.58V120.998H428.68V146.887H428.529L410.354 120.998H407.453V152H410.354ZM440.406 150.656C440.406 149.696 439.638 148.976 438.774 148.976C437.862 148.976 437.19 149.696 437.19 150.656C437.19 151.52 437.862 152.24 438.774 152.24C439.638 152.24 440.406 151.52 440.406 150.656Z" fill="black"/>
<path d="M0.361328 98.8H178.979V101.2H0.361328V98.8Z" fill="black"/>
</svg>
