<svg width="413" height="260" viewBox="0 0 413 260" fill="none" xmlns="http://www.w3.org/2000/svg">
<path d="M290.972 19.8185C271.186 17.025 251.64 16.5521 231.839 19.4882C215.353 21.9328 197.259 26.7783 185.504 39.557C177.915 47.8069 175.657 60.6613 186.598 66.6338C197.918 72.8126 211.702 74.7437 224.163 77.1825C238.999 80.0864 253.706 82.3109 268.806 83.1995C293.639 84.661 318.779 83.8658 342.254 74.7799C349.795 71.8615 371.712 63.7922 362.695 52.0358C352.358 38.5592 331.368 32.0946 315.626 28.5187C285.404 21.6539 253.375 22.6888 224 31.7708" stroke="black" stroke-linecap="round" stroke-linejoin="round"/>
<path d="M36.655 33.208V33.64C41.935 33.64 41.215 35.896 38.479 45.064L32.143 63.88L23.215 36.328C23.071 35.656 22.639 33.64 26.863 33.64V33.208H16.351V33.64C18.319 33.64 19.951 34.216 21.103 37.24L23.359 44.392L17.311 63.736L7.71095 36.328C7.47095 35.656 7.13495 33.64 11.359 33.64V33.208H0.798953V33.64C2.81495 33.64 4.39895 34.216 5.55095 37.24L16.207 67H16.783L23.599 45.016L30.991 67H31.519L38.959 45.112C42.415 34.792 42.079 33.64 46.879 33.64V33.208H36.655ZM55.54 66.472C51.22 66.472 47.86 63.688 47.86 55.48H63.268C63.268 47.848 58.9 44.392 54.676 44.392C49.444 44.392 45.028 48.76 45.028 56.2C45.028 63.256 49.252 67.432 54.916 67.432C59.812 67.432 62.308 63.496 62.548 61.48L62.26 61.432C61.684 63.928 58.756 66.472 55.54 66.472ZM47.86 55C47.86 47.56 51.988 44.824 54.676 44.824C56.596 44.824 60.868 47.08 60.868 55H47.86ZM96.8383 60.904C96.2143 63.208 94.0543 66.376 89.4463 66.376C85.9423 66.376 81.5263 63.496 81.5263 55.864C81.5263 46.216 87.4303 44.824 89.5423 44.824C94.0063 44.824 95.6383 46.792 95.1583 46.648C94.9183 46.552 94.4383 46.552 93.9583 46.744C93.1423 47.128 92.8543 48.088 93.2863 48.952C93.6223 49.72 94.7263 49.912 95.4943 49.576C96.0703 49.24 96.3583 48.712 96.3583 48.088C96.3583 47.272 95.5423 44.392 89.5423 44.392C83.0623 44.392 78.6463 49.816 78.6463 56.056C78.6463 64.552 84.5503 67.432 88.9663 67.432C94.7743 67.432 96.7903 63.304 97.1743 60.952L96.8383 60.904ZM111.519 44.44C108.783 44.104 105.279 46.504 104.271 49V44.392L99.4708 45.208V45.592C101.487 45.592 101.871 46.264 101.871 47.944V63.928C101.871 66.376 101.775 66.04 99.9508 66.568V67H106.239V66.568C104.511 66.136 104.271 66.568 104.271 63.928V49.96C105.519 46.408 110.079 44.632 109.647 45.688C109.503 46.12 109.503 46.6 109.647 47.032C110.079 47.992 111.183 48.424 112.095 48.04C113.055 47.608 113.487 46.6 113.103 45.64C112.767 44.968 112.191 44.536 111.519 44.44ZM126.462 66.472C122.142 66.472 118.782 63.688 118.782 55.48H134.19C134.19 47.848 129.822 44.392 125.598 44.392C120.366 44.392 115.95 48.76 115.95 56.2C115.95 63.256 120.174 67.432 125.838 67.432C130.734 67.432 133.23 63.496 133.47 61.48L133.182 61.432C132.606 63.928 129.678 66.472 126.462 66.472ZM118.782 55C118.782 47.56 122.91 44.824 125.598 44.824C127.518 44.824 131.79 47.08 131.79 55H118.782ZM150.175 62.536C149.647 63.688 148.351 66.04 144.943 66.04C142.207 66.04 140.479 64.456 140.479 61.672C140.479 58.312 143.791 56.344 150.175 54.76V62.536ZM154.783 65.848C152.767 65.848 152.767 63.16 152.767 63.16V53.992C152.767 48.28 151.663 44.392 147.487 44.392C147.487 44.392 145.231 44.344 143.263 45.304C140.719 46.696 139.759 48.28 139.519 48.856C139.279 49.432 139.423 50.152 139.855 50.68C140.479 51.448 141.535 51.496 142.255 50.872C142.975 50.2 143.071 49.096 142.447 48.376C142.111 47.992 141.727 47.848 141.295 47.752C141.055 47.704 141.439 46.648 143.647 45.592C148.015 43.768 150.175 46.84 150.175 51.736V54.328C142.159 56.44 138.079 58.072 138.079 62.44C138.079 67.48 143.503 67.432 143.503 67.432C146.815 67.432 149.551 65.752 150.175 63.256C150.175 67.672 153.487 67.432 153.487 67.432C155.503 67.432 156.511 65.704 156.751 64.312L156.367 64.168C156.031 65.848 154.783 65.848 154.783 65.848ZM166.99 66.136C164.83 66.136 163.246 64.888 163.246 59.944V45.256H168.814L168.91 44.824H163.246V37.288L160.846 37.576V44.824H158.35L158.398 45.256H160.846V60.088C160.846 65.896 162.862 67.432 166.03 67.432C168.382 67.432 169.822 65.8 170.206 63.832L169.918 63.736C169.582 65.032 168.382 66.136 166.99 66.136ZM183.227 66.472C178.907 66.472 175.547 63.688 175.547 55.48H190.955C190.955 47.848 186.587 44.392 182.363 44.392C177.131 44.392 172.715 48.76 172.715 56.2C172.715 63.256 176.939 67.432 182.603 67.432C187.499 67.432 189.995 63.496 190.235 61.48L189.947 61.432C189.371 63.928 186.443 66.472 183.227 66.472ZM175.547 55C175.547 47.56 179.675 44.824 182.363 44.824C184.283 44.824 188.555 47.08 188.555 55H175.547ZM218.289 67C224.842 67 228.773 63.7774 228.773 58.4922C228.773 54.1953 225.787 51.2949 221.49 50.7793V50.6289C224.799 50.0274 227.162 47.084 227.162 43.6465C227.162 39.0703 223.553 35.9981 218.225 35.9981H207.074V67H218.289ZM209.996 38.5977H217.602C221.727 38.5977 224.197 40.5957 224.197 43.9688C224.197 47.6211 221.447 49.7695 216.742 49.7695H209.996V38.5977ZM209.996 64.4004V52.3047H217.494C222.844 52.3047 225.766 54.4746 225.766 58.3418C225.766 62.1875 222.951 64.4004 217.881 64.4004H209.996ZM235.906 38.6192H243.576C248.088 38.6192 250.816 41.0469 250.816 45.1504C250.816 49.2969 248.195 51.7031 243.684 51.7031H235.906V38.6192ZM235.906 54.3027H243.684C243.834 54.3027 244.049 54.3027 244.156 54.3027L251.289 67H254.727L247.207 53.8301C251.354 52.7559 253.846 49.4473 253.846 45.0645C253.846 39.543 249.979 35.9981 243.92 35.9981H232.984V67H235.906V54.3027ZM279.24 67H282.334L270.754 35.9981H267.832L256.23 67H259.346L262.783 57.5039H275.803L279.24 67ZM269.229 39.6289H269.357L274.922 54.9688H263.664L269.229 39.6289ZM288.65 67V41.0899H288.801L307.041 67H309.877V35.9981H306.977V61.8867H306.826L288.65 35.9981H285.75V67H288.65ZM315.699 35.9981V67H325.754C335.057 67 340.449 61.3067 340.449 51.4883C340.449 41.6914 335.035 35.9981 325.754 35.9981H315.699ZM318.643 38.6621H325.582C333.209 38.6621 337.463 43.2598 337.463 51.5098C337.463 59.7383 333.209 64.336 325.582 64.336H318.643V38.6621ZM343.5 58.5781C343.822 63.9063 348.377 67.4942 354.865 67.4942C361.719 67.4942 366.102 63.9277 366.102 58.4922C366.102 54.1738 363.48 51.7891 357.25 50.2207L353.898 49.3613C349.344 48.2012 347.41 46.6328 347.41 43.9688C347.41 40.5527 350.59 38.168 354.887 38.168C359.291 38.168 362.385 40.4883 362.664 43.9902H365.607C365.436 39.0703 361.01 35.5039 354.973 35.5039C348.871 35.5039 344.359 39.0703 344.359 44.0762C344.359 48.1582 346.916 50.586 352.652 52.0469L356.498 53.0352C361.096 54.1953 363.094 55.9141 363.094 58.8145C363.094 62.2949 359.764 64.8301 355.123 64.8301C350.268 64.8301 346.766 62.2949 346.443 58.5781H343.5ZM388.862 41.848C386.558 38.44 385.886 33.64 389.726 32.152C391.982 31.288 394.574 32.008 396.014 33.544C398.846 37.096 398.75 42.76 392.222 46.6L388.862 41.848ZM384.398 63.352C379.694 57.976 383.966 51.928 386.99 50.056L390.206 48.136L398.558 60.04C395.87 66.808 388.19 67.624 384.398 63.352ZM409.79 63.544C409.838 65.08 408.542 65.752 407.438 65.752C407.438 65.752 405.518 65.656 403.934 63.4L400.094 57.976C401.63 52.456 405.326 51.736 405.326 52.888C405.374 53.368 405.422 53.608 405.95 54.04C406.718 54.664 407.822 54.568 408.446 53.848C409.31 52.936 408.782 51.784 408.254 51.4C407.63 50.872 406.67 50.776 405.806 50.968C404.606 51.208 401.582 52.024 399.758 57.544L392.462 46.936C400.142 42.328 398.846 35.992 396.398 33.304C395.006 31.768 392.558 30.904 389.582 31.384C384.206 32.296 382.622 37.96 387.854 44.776L389.918 47.752L386.702 49.768C382.718 51.928 377.342 58.696 382.718 64.648C388.238 70.696 397.502 65.8 398.846 60.424L401.918 65.032C403.694 67.672 406.526 67.432 406.526 67.432C407.822 67.432 410.03 66.328 410.126 63.544H409.79ZM20.6329 118.76C20.6329 122.12 17.8489 124.328 14.7769 124.328C10.3129 124.328 7.04894 120.248 7.04894 112.76C7.04894 104.648 11.8969 102.824 14.7769 102.824C17.8489 102.824 20.6329 105.464 20.6329 108.728V118.76ZM22.9849 122.12V89.96L18.1849 90.776V91.208C20.1529 91.208 20.6329 92.024 20.6329 93.704V104.456C19.0489 103.208 17.0809 102.392 14.5849 102.392C8.48894 102.392 3.88094 106.472 3.88094 113.672C3.88094 119.48 6.42494 125.432 13.8649 125.432C16.3609 125.432 19.1929 124.28 20.6329 122.216V124.52C20.6329 124.52 20.6329 125.624 21.9769 125.384L25.4329 124.664V124.28C23.5129 124.472 22.9849 124.472 22.9849 122.12ZM38.2021 124.472C33.8821 124.472 30.5221 121.688 30.5221 113.48H45.9301C45.9301 105.848 41.5621 102.392 37.3381 102.392C32.1061 102.392 27.6901 106.76 27.6901 114.2C27.6901 121.256 31.9141 125.432 37.5781 125.432C42.4741 125.432 44.9701 121.496 45.2101 119.48L44.9221 119.432C44.3461 121.928 41.4181 124.472 38.2021 124.472ZM30.5221 113C30.5221 105.56 34.6501 102.824 37.3381 102.824C39.2581 102.824 43.5301 105.08 43.5301 113H30.5221ZM68.0116 124.568C66.2836 124.136 66.0436 124.568 66.0436 121.928V102.824H61.2436H54.2356C54.2356 90.44 57.7876 89.624 60.5236 89.624C64.6516 89.624 65.8036 92.84 64.6036 92.552C64.2676 92.456 63.7396 92.456 63.3076 92.696C62.3956 93.224 62.1076 94.28 62.5876 95.192C63.0676 96.008 64.1716 96.344 65.0836 95.864C65.6596 95.528 66.0916 94.76 66.0916 94.088C66.3316 90.152 62.8276 89.24 60.5236 89.24C55.3876 89.24 51.8356 91.784 51.8356 102.824H48.7156L48.7636 103.256H51.8356V122.216C51.8356 124.664 51.7876 124.376 49.9636 124.616V125H56.9236V124.616C55.1956 124.472 54.2356 124.856 54.2356 122.216V103.256H61.2436C63.2596 103.256 63.6436 103.88 63.6436 105.56V121.928C63.6436 124.376 63.5476 124.04 61.7236 124.568V125H68.0116V124.568ZM89.1799 121.928V110.408C89.1799 104.648 86.0119 102.392 81.9799 102.392C78.9559 102.392 76.0759 104.648 75.1639 107.288V102.392L70.3639 103.208V103.592C72.3799 103.592 72.7639 104.312 72.7639 105.992V121.928C72.7639 124.376 72.6679 124.04 70.8439 124.568V125H77.1319V124.568C75.4039 124.136 75.1639 124.568 75.1639 121.928V108.008C75.9319 106.472 77.8039 103.688 80.8759 103.688C84.8119 103.688 86.8279 106.376 86.8279 110.6V121.928C86.8279 124.376 86.7319 124.088 84.9079 124.616V125H91.1479V124.616C89.4679 124.184 89.1799 124.568 89.1799 121.928ZM104.577 124.472C100.257 124.472 96.8971 121.688 96.8971 113.48H112.305C112.305 105.848 107.937 102.392 103.713 102.392C98.4811 102.392 94.0651 106.76 94.0651 114.2C94.0651 121.256 98.2891 125.432 103.953 125.432C108.849 125.432 111.345 121.496 111.585 119.48L111.297 119.432C110.721 121.928 107.793 124.472 104.577 124.472ZM96.8971 113C96.8971 105.56 101.025 102.824 103.713 102.824C105.633 102.824 109.905 105.08 109.905 113H96.8971ZM145.875 118.904C145.251 121.208 143.091 124.376 138.483 124.376C134.979 124.376 130.563 121.496 130.563 113.864C130.563 104.216 136.467 102.824 138.579 102.824C143.043 102.824 144.675 104.792 144.195 104.648C143.955 104.552 143.475 104.552 142.995 104.744C142.179 105.128 141.891 106.088 142.323 106.952C142.659 107.72 143.763 107.912 144.531 107.576C145.107 107.24 145.395 106.712 145.395 106.088C145.395 105.272 144.579 102.392 138.579 102.392C132.099 102.392 127.683 107.816 127.683 114.056C127.683 122.552 133.587 125.432 138.003 125.432C143.811 125.432 145.827 121.304 146.211 118.952L145.875 118.904ZM160.508 102.392C153.212 102.392 149.804 107.576 149.804 113.912C149.804 120.2 153.212 125.432 160.508 125.432C167.852 125.432 171.212 120.2 171.212 113.912C171.212 107.576 167.852 102.392 160.508 102.392ZM160.508 125C156.62 125 152.54 122.6 152.54 113.912C152.54 105.224 156.62 102.824 160.508 102.824C164.396 102.824 168.428 105.224 168.428 113.912C168.428 122.6 164.396 125 160.508 125ZM204.293 121.928V110.408C204.293 104.648 201.845 102.392 197.765 102.392C194.645 102.392 192.149 104.792 191.381 107.576C190.709 103.88 188.501 102.392 185.141 102.392C182.117 102.392 179.621 104.6 178.805 107.288V102.392L174.005 103.208V103.592C176.021 103.592 176.405 104.312 176.405 105.992V121.928C176.405 124.376 176.309 124.04 174.485 124.568V125H180.773V124.568C179.045 124.136 178.805 124.568 178.805 121.928V108.008C179.477 106.472 180.965 103.688 184.037 103.688C188.021 103.688 189.269 106.376 189.269 110.6V121.928C189.269 124.376 189.173 124.088 187.349 124.616V125H193.589V124.616C191.909 124.184 191.621 124.568 191.621 121.928V110.408C191.621 109.544 191.573 108.728 191.477 108.056C192.101 106.52 193.637 103.688 196.709 103.688C200.645 103.688 201.941 106.376 201.941 110.6V121.928C201.941 124.376 201.845 124.088 200.021 124.616V125H206.261V124.616C204.581 124.184 204.293 124.568 204.293 121.928ZM237.949 121.928V110.408C237.949 104.648 235.501 102.392 231.421 102.392C228.301 102.392 225.805 104.792 225.037 107.576C224.365 103.88 222.157 102.392 218.797 102.392C215.773 102.392 213.277 104.6 212.461 107.288V102.392L207.661 103.208V103.592C209.677 103.592 210.061 104.312 210.061 105.992V121.928C210.061 124.376 209.965 124.04 208.141 124.568V125H214.429V124.568C212.701 124.136 212.461 124.568 212.461 121.928V108.008C213.133 106.472 214.621 103.688 217.693 103.688C221.677 103.688 222.925 106.376 222.925 110.6V121.928C222.925 124.376 222.829 124.088 221.005 124.616V125H227.245V124.616C225.565 124.184 225.277 124.568 225.277 121.928V110.408C225.277 109.544 225.229 108.728 225.133 108.056C225.757 106.52 227.293 103.688 230.365 103.688C234.301 103.688 235.597 106.376 235.597 110.6V121.928C235.597 124.376 235.501 124.088 233.677 124.616V125H239.917V124.616C238.237 124.184 237.949 124.568 237.949 121.928ZM260.051 121.4V102.392L255.395 103.256V103.64C257.651 103.64 257.651 103.688 257.651 106.616V119.912C256.979 122.024 255.299 124.184 251.891 124.184C249.107 124.184 246.035 122.696 246.035 118.136V102.392L241.043 103.256V103.64C243.731 103.64 243.731 103.64 243.731 106.952V118.28C243.731 124.472 248.243 125.432 251.363 125.432C254.819 125.432 257.123 123.272 257.651 120.92V124.856C257.651 124.856 257.603 125.624 258.659 125.384L262.499 124.76V124.376C260.483 124.136 260.051 123.704 260.051 121.4ZM282.727 121.928V110.408C282.727 104.648 279.559 102.392 275.527 102.392C272.503 102.392 269.623 104.648 268.711 107.288V102.392L263.911 103.208V103.592C265.927 103.592 266.311 104.312 266.311 105.992V121.928C266.311 124.376 266.215 124.04 264.391 124.568V125H270.679V124.568C268.951 124.136 268.711 124.568 268.711 121.928V108.008C269.479 106.472 271.351 103.688 274.423 103.688C278.359 103.688 280.375 106.376 280.375 110.6V121.928C280.375 124.376 280.279 124.088 278.455 124.616V125H284.695V124.616C283.015 124.184 282.727 124.568 282.727 121.928ZM292.028 102.392L287.276 103.208V103.592C289.292 103.592 289.628 104.264 289.628 105.944V121.928C289.628 124.376 289.532 124.04 287.708 124.568V125H293.996V124.568C292.268 124.136 292.028 124.568 292.028 121.928V102.392ZM291.98 96.632C291.98 95.672 291.212 94.952 290.348 94.952C289.436 94.952 288.764 95.672 288.764 96.632C288.764 97.496 289.436 98.216 290.348 98.216C291.212 98.216 291.98 97.496 291.98 96.632ZM316.172 118.904C315.548 121.208 313.388 124.376 308.78 124.376C305.276 124.376 300.86 121.496 300.86 113.864C300.86 104.216 306.764 102.824 308.876 102.824C313.34 102.824 314.972 104.792 314.492 104.648C314.252 104.552 313.772 104.552 313.292 104.744C312.476 105.128 312.188 106.088 312.62 106.952C312.956 107.72 314.06 107.912 314.828 107.576C315.404 107.24 315.692 106.712 315.692 106.088C315.692 105.272 314.876 102.392 308.876 102.392C302.396 102.392 297.98 107.816 297.98 114.056C297.98 122.552 303.884 125.432 308.3 125.432C314.108 125.432 316.124 121.304 316.508 118.952L316.172 118.904ZM332.197 120.536C331.669 121.688 330.373 124.04 326.965 124.04C324.229 124.04 322.501 122.456 322.501 119.672C322.501 116.312 325.813 114.344 332.197 112.76V120.536ZM336.805 123.848C334.789 123.848 334.789 121.16 334.789 121.16V111.992C334.789 106.28 333.685 102.392 329.509 102.392C329.509 102.392 327.253 102.344 325.285 103.304C322.741 104.696 321.781 106.28 321.541 106.856C321.301 107.432 321.445 108.152 321.877 108.68C322.501 109.448 323.557 109.496 324.277 108.872C324.997 108.2 325.093 107.096 324.469 106.376C324.133 105.992 323.749 105.848 323.317 105.752C323.077 105.704 323.461 104.648 325.669 103.592C330.037 101.768 332.197 104.84 332.197 109.736V112.328C324.181 114.44 320.101 116.072 320.101 120.44C320.101 125.48 325.525 125.432 325.525 125.432C328.837 125.432 331.573 123.752 332.197 121.256C332.197 125.672 335.509 125.432 335.509 125.432C337.525 125.432 338.533 123.704 338.773 122.312L338.389 122.168C338.053 123.848 336.805 123.848 336.805 123.848ZM349.012 124.136C346.852 124.136 345.268 122.888 345.268 117.944V103.256H350.836L350.932 102.824H345.268V95.288L342.868 95.576V102.824H340.372L340.42 103.256H342.868V118.088C342.868 123.896 344.884 125.432 348.052 125.432C350.404 125.432 351.844 123.8 352.228 121.832L351.94 121.736C351.604 123.032 350.404 124.136 349.012 124.136ZM359.153 102.392L354.401 103.208V103.592C356.417 103.592 356.753 104.264 356.753 105.944V121.928C356.753 124.376 356.657 124.04 354.833 124.568V125H361.121V124.568C359.393 124.136 359.153 124.568 359.153 121.928V102.392ZM359.105 96.632C359.105 95.672 358.337 94.952 357.473 94.952C356.561 94.952 355.889 95.672 355.889 96.632C355.889 97.496 356.561 98.216 357.473 98.216C358.337 98.216 359.105 97.496 359.105 96.632ZM375.617 102.392C368.321 102.392 364.913 107.576 364.913 113.912C364.913 120.2 368.321 125.432 375.617 125.432C382.961 125.432 386.321 120.2 386.321 113.912C386.321 107.576 382.961 102.392 375.617 102.392ZM375.617 125C371.729 125 367.649 122.6 367.649 113.912C367.649 105.224 371.729 102.824 375.617 102.824C379.505 102.824 383.537 105.224 383.537 113.912C383.537 122.6 379.505 125 375.617 125ZM407.93 121.928V110.408C407.93 104.648 404.762 102.392 400.73 102.392C397.706 102.392 394.826 104.648 393.914 107.288V102.392L389.114 103.208V103.592C391.13 103.592 391.514 104.312 391.514 105.992V121.928C391.514 124.376 391.418 124.04 389.594 124.568V125H395.882V124.568C394.154 124.136 393.914 124.568 393.914 121.928V108.008C394.682 106.472 396.554 103.688 399.626 103.688C403.562 103.688 405.578 106.376 405.578 110.6V121.928C405.578 124.376 405.482 124.088 403.658 124.616V125H409.898V124.616C408.218 124.184 407.93 124.568 407.93 121.928ZM86.2988 174.578C86.6211 179.906 91.1758 183.494 97.6641 183.494C104.518 183.494 108.9 179.928 108.9 174.492C108.9 170.174 106.279 167.789 100.049 166.221L96.6973 165.361C92.1426 164.201 90.209 162.633 90.209 159.969C90.209 156.553 93.3887 154.168 97.6855 154.168C102.09 154.168 105.184 156.488 105.463 159.99H108.406C108.234 155.07 103.809 151.504 97.7715 151.504C91.6699 151.504 87.1582 155.07 87.1582 160.076C87.1582 164.158 89.7148 166.586 95.4512 168.047L99.2969 169.035C103.895 170.195 105.893 171.914 105.893 174.814C105.893 178.295 102.562 180.83 97.9219 180.83C93.0664 180.83 89.5645 178.295 89.2422 174.578H86.2988ZM124.068 183V154.662H134.316V151.998H110.898V154.662H121.125V183H124.068ZM140.955 154.619H148.625C153.137 154.619 155.865 157.047 155.865 161.15C155.865 165.297 153.244 167.703 148.732 167.703H140.955V154.619ZM140.955 170.303H148.732C148.883 170.303 149.098 170.303 149.205 170.303L156.338 183H159.775L152.256 169.83C156.402 168.756 158.895 165.447 158.895 161.064C158.895 155.543 155.027 151.998 148.969 151.998H138.033V183H140.955V170.303ZM184.289 183H187.383L175.803 151.998H172.881L161.279 183H164.395L167.832 173.504H180.852L184.289 183ZM174.277 155.629H174.406L179.971 170.969H168.713L174.277 155.629ZM197.502 183V154.662H207.75V151.998H184.332V154.662H194.559V183H197.502ZM230.18 180.336H214.389V168.434H229.385V165.813H214.389V154.662H230.18V151.998H211.467V183H230.18V180.336ZM260.73 170.41V167.424H248.184V170.002H257.809V171.098C257.809 176.941 253.855 180.766 247.861 180.766C241.223 180.766 236.947 175.502 236.947 167.316C236.947 159.238 241.137 154.232 247.861 154.232C252.588 154.232 256.219 156.896 257.486 161.322H260.537C259.377 155.393 254.371 151.504 247.861 151.504C239.396 151.504 233.939 157.713 233.939 167.316C233.939 177.092 239.461 183.494 247.861 183.494C255.918 183.494 260.73 178.596 260.73 170.41ZM268.4 183V151.998H265.479V183H268.4ZM292.914 180.336H277.123V168.434H292.119V165.813H277.123V154.662H292.914V151.998H274.201V183H292.914V180.336ZM295.943 174.578C296.266 179.906 300.82 183.494 307.309 183.494C314.162 183.494 318.545 179.928 318.545 174.492C318.545 170.174 315.924 167.789 309.693 166.221L306.342 165.361C301.787 164.201 299.854 162.633 299.854 159.969C299.854 156.553 303.033 154.168 307.33 154.168C311.734 154.168 314.828 156.488 315.107 159.99H318.051C317.879 155.07 313.453 151.504 307.416 151.504C301.314 151.504 296.803 155.07 296.803 160.076C296.803 164.158 299.359 166.586 305.096 168.047L308.941 169.035C313.539 170.195 315.537 171.914 315.537 174.814C315.537 178.295 312.207 180.83 307.566 180.83C302.711 180.83 299.209 178.295 298.887 174.578H295.943ZM325.845 181.656C325.845 180.696 325.077 179.976 324.213 179.976C323.301 179.976 322.629 180.696 322.629 181.656C322.629 182.52 323.301 183.24 324.213 183.24C325.077 183.24 325.845 182.52 325.845 181.656Z" fill="black"/>
<path d="M1.96094 129.8H114.225V132.2H1.96094V129.8Z" fill="black"/>
</svg>
