<svg width="510" height="260" viewBox="0 0 510 260" fill="none" xmlns="http://www.w3.org/2000/svg">
<path d="M339.972 19.8185C320.186 17.025 300.64 16.5521 280.839 19.4882C264.353 21.9328 246.259 26.7783 234.504 39.557C226.915 47.8069 224.657 60.6613 235.598 66.6338C246.918 72.8126 260.702 74.7437 273.163 77.1825C287.999 80.0864 302.706 82.3109 317.806 83.1995C342.639 84.661 367.779 83.8658 391.254 74.7799C398.795 71.8615 420.712 63.7922 411.695 52.0358C401.358 38.5592 380.368 32.0946 364.626 28.5187C334.404 21.6539 302.375 22.6888 273 31.7708" stroke="black" stroke-linecap="round" stroke-linejoin="round"/>
<path d="M85.6141 57.16C85.6141 66.568 77.7901 67 75.8221 67C71.2621 67 62.8141 66.376 62.8141 50.104C62.8141 34.264 71.1181 33.208 75.8221 33.208C78.0781 33.208 85.6141 33.64 85.6141 43H86.0461L86.4781 35.704C83.4541 33.256 80.7661 32.776 75.8221 32.776C66.1741 32.776 59.1661 38.056 59.1661 50.104C59.1661 61.912 66.1741 67.432 75.8221 67.432C80.9581 67.432 82.9261 66.808 86.4781 64.456L86.0461 57.16H85.6141ZM101.372 44.44C98.6363 44.104 95.1323 46.504 94.1243 49V44.392L89.3243 45.208V45.592C91.3403 45.592 91.7243 46.264 91.7243 47.944V63.928C91.7243 66.376 91.6283 66.04 89.8043 66.568V67H96.0923V66.568C94.3643 66.136 94.1243 66.568 94.1243 63.928V49.96C95.3723 46.408 99.9323 44.632 99.5003 45.688C99.3563 46.12 99.3563 46.6 99.5003 47.032C99.9323 47.992 101.036 48.424 101.948 48.04C102.908 47.608 103.34 46.6 102.956 45.64C102.62 44.968 102.044 44.536 101.372 44.44ZM116.315 66.472C111.995 66.472 108.635 63.688 108.635 55.48H124.043C124.043 47.848 119.675 44.392 115.451 44.392C110.219 44.392 105.803 48.76 105.803 56.2C105.803 63.256 110.027 67.432 115.691 67.432C120.587 67.432 123.083 63.496 123.323 61.48L123.035 61.432C122.459 63.928 119.531 66.472 116.315 66.472ZM108.635 55C108.635 47.56 112.763 44.824 115.451 44.824C117.371 44.824 121.643 47.08 121.643 55H108.635ZM140.029 62.536C139.501 63.688 138.205 66.04 134.797 66.04C132.061 66.04 130.333 64.456 130.333 61.672C130.333 58.312 133.645 56.344 140.029 54.76V62.536ZM144.637 65.848C142.621 65.848 142.621 63.16 142.621 63.16V53.992C142.621 48.28 141.517 44.392 137.341 44.392C137.341 44.392 135.085 44.344 133.117 45.304C130.573 46.696 129.613 48.28 129.373 48.856C129.133 49.432 129.277 50.152 129.709 50.68C130.333 51.448 131.389 51.496 132.109 50.872C132.829 50.2 132.925 49.096 132.301 48.376C131.965 47.992 131.581 47.848 131.149 47.752C130.909 47.704 131.293 46.648 133.501 45.592C137.869 43.768 140.029 46.84 140.029 51.736V54.328C132.013 56.44 127.933 58.072 127.933 62.44C127.933 67.48 133.357 67.432 133.357 67.432C136.669 67.432 139.405 65.752 140.029 63.256C140.029 67.672 143.341 67.432 143.341 67.432C145.357 67.432 146.365 65.704 146.605 64.312L146.221 64.168C145.885 65.848 144.637 65.848 144.637 65.848ZM178.156 63.928V52.408C178.156 46.648 175.708 44.392 171.628 44.392C168.508 44.392 166.012 46.792 165.244 49.576C164.572 45.88 162.364 44.392 159.004 44.392C155.98 44.392 153.484 46.6 152.668 49.288V44.392L147.868 45.208V45.592C149.884 45.592 150.268 46.312 150.268 47.992V63.928C150.268 66.376 150.172 66.04 148.348 66.568V67H154.636V66.568C152.908 66.136 152.668 66.568 152.668 63.928V50.008C153.34 48.472 154.828 45.688 157.9 45.688C161.884 45.688 163.132 48.376 163.132 52.6V63.928C163.132 66.376 163.036 66.088 161.212 66.616V67H167.452V66.616C165.772 66.184 165.484 66.568 165.484 63.928V52.408C165.484 51.544 165.436 50.728 165.34 50.056C165.964 48.52 167.5 45.688 170.572 45.688C174.508 45.688 175.804 48.376 175.804 52.6V63.928C175.804 66.376 175.708 66.088 173.884 66.616V67H180.124V66.616C178.444 66.184 178.156 66.568 178.156 63.928ZM193.668 44.392C186.372 44.392 182.964 49.576 182.964 55.912C182.964 62.2 186.372 67.432 193.668 67.432C201.012 67.432 204.372 62.2 204.372 55.912C204.372 49.576 201.012 44.392 193.668 44.392ZM193.668 67C189.78 67 185.7 64.6 185.7 55.912C185.7 47.224 189.78 44.824 193.668 44.824C197.556 44.824 201.588 47.224 201.588 55.912C201.588 64.6 197.556 67 193.668 67ZM218.925 55.768L214.077 52.744C209.901 50.104 209.277 44.824 215.229 44.824C221.469 44.824 222.621 48.376 222.621 52.312H223.005V45.976C223.005 45.976 220.749 44.392 215.229 44.392C210.285 44.392 209.229 47.464 209.229 47.464C207.981 50.584 208.893 52.456 213.405 55.768L218.253 58.696C221.901 61.096 223.773 67 217.005 67C210.093 67 209.277 63.256 209.277 58.792H208.893V65.8C208.893 65.8 211.197 67.432 217.005 67.432C220.989 67.432 222.477 65.272 222.477 65.272C224.685 62.152 223.341 58.504 218.925 55.768ZM269.729 67V35.9981H266.334L254.861 63.1328H254.732L243.238 35.9981H239.865V67H242.615V41.5625H242.744L253.508 66.8496H256.064L266.85 41.5625H266.979V67H269.729ZM296.133 67H299.227L287.646 35.9981H284.725L273.123 67H276.238L279.676 57.5039H292.695L296.133 67ZM286.121 39.6289H286.25L291.814 54.9688H280.557L286.121 39.6289ZM305.564 38.6192H313.234C317.746 38.6192 320.475 41.0469 320.475 45.1504C320.475 49.2969 317.854 51.7031 313.342 51.7031H305.564V38.6192ZM305.564 54.3027H313.342C313.492 54.3027 313.707 54.3027 313.814 54.3027L320.947 67H324.385L316.865 53.8301C321.012 52.7559 323.504 49.4473 323.504 45.0645C323.504 39.543 319.637 35.9981 313.578 35.9981H302.643V67H305.564V54.3027ZM340.863 67.4942C347.588 67.4942 352.336 63.8633 353.432 57.8262H350.488C349.564 62.1231 345.826 64.7656 340.885 64.7656C334.289 64.7656 330.057 59.5879 330.057 51.4238C330.057 43.3672 334.289 38.2324 340.863 38.2324C345.676 38.2324 349.629 41.3692 350.488 45.8379H353.432C352.594 39.7793 347.416 35.5039 340.863 35.5039C332.441 35.5039 327.049 41.7129 327.049 51.4238C327.049 61.2422 332.42 67.4942 340.863 67.4942ZM378.375 67H381.469L369.889 35.9981H366.967L355.365 67H358.48L361.918 57.5039H374.938L378.375 67ZM368.363 39.6289H368.492L374.057 54.9688H362.799L368.363 39.6289ZM383.381 58.5781C383.703 63.9063 388.258 67.4942 394.746 67.4942C401.6 67.4942 405.982 63.9277 405.982 58.4922C405.982 54.1738 403.361 51.7891 397.131 50.2207L393.779 49.3613C389.225 48.2012 387.291 46.6328 387.291 43.9688C387.291 40.5527 390.471 38.168 394.768 38.168C399.172 38.168 402.266 40.4883 402.545 43.9902H405.488C405.316 39.0703 400.891 35.5039 394.854 35.5039C388.752 35.5039 384.24 39.0703 384.24 44.0762C384.24 48.1582 386.797 50.586 392.533 52.0469L396.379 53.0352C400.977 54.1953 402.975 55.9141 402.975 58.8145C402.975 62.2949 399.645 64.8301 395.004 64.8301C390.148 64.8301 386.646 62.2949 386.324 58.5781H383.381ZM428.743 41.848C426.439 38.44 425.767 33.64 429.607 32.152C431.863 31.288 434.455 32.008 435.895 33.544C438.727 37.096 438.631 42.76 432.103 46.6L428.743 41.848ZM424.279 63.352C419.575 57.976 423.847 51.928 426.871 50.056L430.087 48.136L438.439 60.04C435.751 66.808 428.071 67.624 424.279 63.352ZM449.671 63.544C449.719 65.08 448.423 65.752 447.319 65.752C447.319 65.752 445.399 65.656 443.815 63.4L439.975 57.976C441.511 52.456 445.207 51.736 445.207 52.888C445.255 53.368 445.303 53.608 445.831 54.04C446.599 54.664 447.703 54.568 448.327 53.848C449.191 52.936 448.663 51.784 448.135 51.4C447.511 50.872 446.551 50.776 445.687 50.968C444.487 51.208 441.463 52.024 439.639 57.544L432.343 46.936C440.023 42.328 438.727 35.992 436.279 33.304C434.887 31.768 432.439 30.904 429.463 31.384C424.087 32.296 422.503 37.96 427.735 44.776L429.799 47.752L426.583 49.768C422.599 51.928 417.223 58.696 422.599 64.648C428.119 70.696 437.383 65.8 438.727 60.424L441.799 65.032C443.575 67.672 446.407 67.432 446.407 67.432C447.703 67.432 449.911 66.328 450.007 63.544H449.671ZM19.0333 118.76C19.0333 122.12 16.2493 124.328 13.1773 124.328C8.71333 124.328 5.44933 120.248 5.44933 112.76C5.44933 104.648 10.2973 102.824 13.1773 102.824C16.2493 102.824 19.0333 105.464 19.0333 108.728V118.76ZM21.3853 122.12V89.96L16.5853 90.776V91.208C18.5533 91.208 19.0333 92.024 19.0333 93.704V104.456C17.4493 103.208 15.4813 102.392 12.9853 102.392C6.88933 102.392 2.28133 106.472 2.28133 113.672C2.28133 119.48 4.82533 125.432 12.2653 125.432C14.7613 125.432 17.5933 124.28 19.0333 122.216V124.52C19.0333 124.52 19.0333 125.624 20.3773 125.384L23.8333 124.664V124.28C21.9133 124.472 21.3853 124.472 21.3853 122.12ZM36.6025 124.472C32.2825 124.472 28.9225 121.688 28.9225 113.48H44.3305C44.3305 105.848 39.9625 102.392 35.7385 102.392C30.5065 102.392 26.0905 106.76 26.0905 114.2C26.0905 121.256 30.3145 125.432 35.9785 125.432C40.8745 125.432 43.3705 121.496 43.6105 119.48L43.3225 119.432C42.7465 121.928 39.8185 124.472 36.6025 124.472ZM28.9225 113C28.9225 105.56 33.0505 102.824 35.7385 102.824C37.6585 102.824 41.9305 105.08 41.9305 113H28.9225ZM66.412 124.568C64.684 124.136 64.444 124.568 64.444 121.928V102.824H59.644H52.636C52.636 90.44 56.188 89.624 58.924 89.624C63.052 89.624 64.204 92.84 63.004 92.552C62.668 92.456 62.14 92.456 61.708 92.696C60.796 93.224 60.508 94.28 60.988 95.192C61.468 96.008 62.572 96.344 63.484 95.864C64.06 95.528 64.492 94.76 64.492 94.088C64.732 90.152 61.228 89.24 58.924 89.24C53.788 89.24 50.236 91.784 50.236 102.824H47.116L47.164 103.256H50.236V122.216C50.236 124.664 50.188 124.376 48.364 124.616V125H55.324V124.616C53.596 124.472 52.636 124.856 52.636 122.216V103.256H59.644C61.66 103.256 62.044 103.88 62.044 105.56V121.928C62.044 124.376 61.948 124.04 60.124 124.568V125H66.412V124.568ZM87.5803 121.928V110.408C87.5803 104.648 84.4123 102.392 80.3803 102.392C77.3563 102.392 74.4763 104.648 73.5643 107.288V102.392L68.7643 103.208V103.592C70.7803 103.592 71.1643 104.312 71.1643 105.992V121.928C71.1643 124.376 71.0683 124.04 69.2443 124.568V125H75.5323V124.568C73.8043 124.136 73.5643 124.568 73.5643 121.928V108.008C74.3323 106.472 76.2043 103.688 79.2763 103.688C83.2123 103.688 85.2283 106.376 85.2283 110.6V121.928C85.2283 124.376 85.1323 124.088 83.3083 124.616V125H89.5483V124.616C87.8683 124.184 87.5803 124.568 87.5803 121.928ZM96.8815 102.392L92.1295 103.208V103.592C94.1455 103.592 94.4815 104.264 94.4815 105.944V121.928C94.4815 124.376 94.3855 124.04 92.5615 124.568V125H98.8495V124.568C97.1215 124.136 96.8815 124.568 96.8815 121.928V102.392ZM96.8335 96.632C96.8335 95.672 96.0655 94.952 95.2015 94.952C94.2895 94.952 93.6175 95.672 93.6175 96.632C93.6175 97.496 94.2895 98.216 95.2015 98.216C96.0655 98.216 96.8335 97.496 96.8335 96.632ZM131.49 121.928V110.408C131.49 104.648 129.042 102.392 124.962 102.392C121.842 102.392 119.346 104.792 118.578 107.576C117.906 103.88 115.698 102.392 112.338 102.392C109.314 102.392 106.818 104.6 106.002 107.288V102.392L101.202 103.208V103.592C103.218 103.592 103.602 104.312 103.602 105.992V121.928C103.602 124.376 103.506 124.04 101.682 124.568V125H107.97V124.568C106.242 124.136 106.002 124.568 106.002 121.928V108.008C106.674 106.472 108.162 103.688 111.234 103.688C115.218 103.688 116.466 106.376 116.466 110.6V121.928C116.466 124.376 116.37 124.088 114.546 124.616V125H120.786V124.616C119.106 124.184 118.818 124.568 118.818 121.928V110.408C118.818 109.544 118.77 108.728 118.674 108.056C119.298 106.52 120.834 103.688 123.906 103.688C127.842 103.688 129.138 106.376 129.138 110.6V121.928C129.138 124.376 129.042 124.088 127.218 124.616V125H133.458V124.616C131.778 124.184 131.49 124.568 131.49 121.928ZM147.002 102.392C139.706 102.392 136.298 107.576 136.298 113.912C136.298 120.2 139.706 125.432 147.002 125.432C154.346 125.432 157.706 120.2 157.706 113.912C157.706 107.576 154.346 102.392 147.002 102.392ZM147.002 125C143.114 125 139.034 122.6 139.034 113.912C139.034 105.224 143.114 102.824 147.002 102.824C150.89 102.824 154.922 105.224 154.922 113.912C154.922 122.6 150.89 125 147.002 125ZM172.259 113.768L167.411 110.744C163.235 108.104 162.611 102.824 168.563 102.824C174.803 102.824 175.955 106.376 175.955 110.312H176.339V103.976C176.339 103.976 174.083 102.392 168.563 102.392C163.619 102.392 162.563 105.464 162.563 105.464C161.315 108.584 162.227 110.456 166.739 113.768L171.587 116.696C175.235 119.096 177.107 125 170.339 125C163.427 125 162.611 121.256 162.611 116.792H162.227V123.8C162.227 123.8 164.531 125.432 170.339 125.432C174.323 125.432 175.811 123.272 175.811 123.272C178.019 120.152 176.675 116.504 172.259 113.768ZM211.912 122.336H196.121V110.434H211.117V107.813H196.121V96.6621H211.912V93.9981H193.199V125H211.912V122.336ZM214.941 116.578C215.264 121.906 219.818 125.494 226.307 125.494C233.16 125.494 237.543 121.928 237.543 116.492C237.543 112.174 234.922 109.789 228.691 108.221L225.34 107.361C220.785 106.201 218.852 104.633 218.852 101.969C218.852 98.5527 222.031 96.168 226.328 96.168C230.732 96.168 233.826 98.4883 234.105 101.99H237.049C236.877 97.0703 232.451 93.5039 226.414 93.5039C220.312 93.5039 215.801 97.0703 215.801 102.076C215.801 106.158 218.357 108.586 224.094 110.047L227.939 111.035C232.537 112.195 234.535 113.914 234.535 116.814C234.535 120.295 231.205 122.83 226.564 122.83C221.709 122.83 218.207 120.295 217.885 116.578H214.941ZM252.711 125V96.6621H262.959V93.9981H239.541V96.6621H249.768V125H252.711ZM269.598 96.6192H277.268C281.779 96.6192 284.508 99.0469 284.508 103.15C284.508 107.297 281.887 109.703 277.375 109.703H269.598V96.6192ZM269.598 112.303H277.375C277.525 112.303 277.74 112.303 277.848 112.303L284.98 125H288.418L280.898 111.83C285.045 110.756 287.537 107.447 287.537 103.064C287.537 97.543 283.67 93.9981 277.611 93.9981H266.676V125H269.598V112.303ZM312.932 125H316.025L304.445 93.9981H301.523L289.922 125H293.037L296.475 115.504H309.494L312.932 125ZM302.92 97.6289H303.049L308.613 112.969H297.355L302.92 97.6289ZM326.145 125V96.6621H336.393V93.9981H312.975V96.6621H323.201V125H326.145ZM358.822 122.336H343.031V110.434H358.027V107.813H343.031V96.6621H358.822V93.9981H340.109V125H358.822V122.336ZM389.373 112.41V109.424H376.826V112.002H386.451V113.098C386.451 118.941 382.498 122.766 376.504 122.766C369.865 122.766 365.59 117.502 365.59 109.316C365.59 101.238 369.779 96.2324 376.504 96.2324C381.23 96.2324 384.861 98.8965 386.129 103.322H389.18C388.02 97.3926 383.014 93.5039 376.504 93.5039C368.039 93.5039 362.582 99.7129 362.582 109.316C362.582 119.092 368.104 125.494 376.504 125.494C384.561 125.494 389.373 120.596 389.373 112.41ZM397.043 125V93.9981H394.121V125H397.043ZM423.447 125H426.541L414.961 93.9981H412.039L400.438 125H403.553L406.99 115.504H420.01L423.447 125ZM413.436 97.6289H413.564L419.129 112.969H407.871L413.436 97.6289ZM428.453 116.578C428.775 121.906 433.33 125.494 439.818 125.494C446.672 125.494 451.055 121.928 451.055 116.492C451.055 112.174 448.434 109.789 442.203 108.221L438.852 107.361C434.297 106.201 432.363 104.633 432.363 101.969C432.363 98.5527 435.543 96.168 439.84 96.168C444.244 96.168 447.338 98.4883 447.617 101.99H450.561C450.389 97.0703 445.963 93.5039 439.926 93.5039C433.824 93.5039 429.312 97.0703 429.312 102.076C429.312 106.158 431.869 108.586 437.605 110.047L441.451 111.035C446.049 112.195 448.047 113.914 448.047 116.814C448.047 120.295 444.717 122.83 440.076 122.83C435.221 122.83 431.719 120.295 431.396 116.578H428.453ZM482.42 118.76C482.42 122.12 479.636 124.328 476.564 124.328C472.1 124.328 468.836 120.248 468.836 112.76C468.836 104.648 473.684 102.824 476.564 102.824C479.636 102.824 482.42 105.464 482.42 108.728V118.76ZM484.772 122.12V89.96L479.972 90.776V91.208C481.94 91.208 482.42 92.024 482.42 93.704V104.456C480.836 103.208 478.868 102.392 476.372 102.392C470.276 102.392 465.668 106.472 465.668 113.672C465.668 119.48 468.212 125.432 475.652 125.432C478.148 125.432 480.98 124.28 482.42 122.216V124.52C482.42 124.52 482.42 125.624 483.764 125.384L487.22 124.664V124.28C485.3 124.472 484.772 124.472 484.772 122.12ZM499.989 124.472C495.669 124.472 492.309 121.688 492.309 113.48H507.717C507.717 105.848 503.349 102.392 499.125 102.392C493.893 102.392 489.477 106.76 489.477 114.2C489.477 121.256 493.701 125.432 499.365 125.432C504.261 125.432 506.757 121.496 506.997 119.48L506.709 119.432C506.133 121.928 503.205 124.472 499.989 124.472ZM492.309 113C492.309 105.56 496.437 102.824 499.125 102.824C501.045 102.824 505.317 105.08 505.317 113H492.309ZM78.8618 157.848C76.5578 154.44 75.8858 149.64 79.7258 148.152C81.9818 147.288 84.5738 148.008 86.0138 149.544C88.8458 153.096 88.7498 158.76 82.2218 162.6L78.8618 157.848ZM74.3978 179.352C69.6938 173.976 73.9658 167.928 76.9898 166.056L80.2058 164.136L88.5578 176.04C85.8698 182.808 78.1898 183.624 74.3978 179.352ZM99.7898 179.544C99.8378 181.08 98.5418 181.752 97.4378 181.752C97.4378 181.752 95.5178 181.656 93.9338 179.4L90.0938 173.976C91.6298 168.456 95.3258 167.736 95.3258 168.888C95.3738 169.368 95.4218 169.608 95.9498 170.04C96.7178 170.664 97.8218 170.568 98.4458 169.848C99.3098 168.936 98.7818 167.784 98.2538 167.4C97.6298 166.872 96.6698 166.776 95.8058 166.968C94.6058 167.208 91.5818 168.024 89.7578 173.544L82.4618 162.936C90.1418 158.328 88.8458 151.992 86.3978 149.304C85.0058 147.768 82.5578 146.904 79.5818 147.384C74.2058 148.296 72.6218 153.96 77.8538 160.776L79.9178 163.752L76.7018 165.768C72.7178 167.928 67.3418 174.696 72.7178 180.648C78.2378 186.696 87.5018 181.8 88.8458 176.424L91.9178 181.032C93.6938 183.672 96.5258 183.432 96.5258 183.432C97.8218 183.432 100.03 182.328 100.126 179.544H99.7898ZM129.639 183.494C136.363 183.494 141.111 179.863 142.207 173.826H139.264C138.34 178.123 134.602 180.766 129.66 180.766C123.064 180.766 118.832 175.588 118.832 167.424C118.832 159.367 123.064 154.232 129.639 154.232C134.451 154.232 138.404 157.369 139.264 161.838H142.207C141.369 155.779 136.191 151.504 129.639 151.504C121.217 151.504 115.824 157.713 115.824 167.424C115.824 177.242 121.195 183.494 129.639 183.494ZM159.373 151.504C150.736 151.504 145.301 157.691 145.301 167.51C145.301 177.328 150.736 183.494 159.373 183.494C168.031 183.494 173.467 177.328 173.467 167.51C173.467 157.691 168.01 151.504 159.373 151.504ZM159.373 154.232C166.162 154.232 170.459 159.367 170.459 167.51C170.459 175.631 166.162 180.766 159.373 180.766C152.584 180.766 148.309 175.631 148.309 167.51C148.309 159.367 152.584 154.232 159.373 154.232ZM207.906 183V151.998H204.512L193.039 179.133H192.91L181.416 151.998H178.043V183H180.793V157.563H180.922L191.686 182.85H194.242L205.027 157.563H205.156V183H207.906ZM216.629 151.998H213.707V172.172C213.707 178.854 218.24 183.494 225.695 183.494C233.15 183.494 237.705 178.854 237.705 172.172V151.998H234.762V172C234.762 177.199 231.389 180.766 225.695 180.766C220.023 180.766 216.629 177.199 216.629 172V151.998ZM246.385 183V157.09H246.535L264.775 183H267.611V151.998H264.711V177.887H264.561L246.385 151.998H243.484V183H246.385ZM276.355 183V151.998H273.434V183H276.355ZM294.725 183.494C301.449 183.494 306.197 179.863 307.293 173.826H304.35C303.426 178.123 299.688 180.766 294.746 180.766C288.15 180.766 283.918 175.588 283.918 167.424C283.918 159.367 288.15 154.232 294.725 154.232C299.537 154.232 303.49 157.369 304.35 161.838H307.293C306.455 155.779 301.277 151.504 294.725 151.504C286.303 151.504 280.91 157.713 280.91 167.424C280.91 177.242 286.281 183.494 294.725 183.494ZM332.236 183H335.33L323.75 151.998H320.828L309.227 183H312.342L315.779 173.504H328.799L332.236 183ZM322.225 155.629H322.354L327.918 170.969H316.66L322.225 155.629ZM350.326 183.494C357.051 183.494 361.799 179.863 362.895 173.826H359.951C359.027 178.123 355.289 180.766 350.348 180.766C343.752 180.766 339.52 175.588 339.52 167.424C339.52 159.367 343.752 154.232 350.326 154.232C355.139 154.232 359.092 157.369 359.951 161.838H362.895C362.057 155.779 356.879 151.504 350.326 151.504C341.904 151.504 336.512 157.713 336.512 167.424C336.512 177.242 341.883 183.494 350.326 183.494ZM370.156 183V151.998H367.234V183H370.156ZM388.783 151.504C380.146 151.504 374.711 157.691 374.711 167.51C374.711 177.328 380.146 183.494 388.783 183.494C397.441 183.494 402.877 177.328 402.877 167.51C402.877 157.691 397.42 151.504 388.783 151.504ZM388.783 154.232C395.572 154.232 399.869 159.367 399.869 167.51C399.869 175.631 395.572 180.766 388.783 180.766C381.994 180.766 377.719 175.631 377.719 167.51C377.719 159.367 381.994 154.232 388.783 154.232ZM390.201 149.527L396.088 143.34H392.844L387.602 149.527H390.201ZM410.354 183V157.09H410.504L428.744 183H431.58V151.998H428.68V177.887H428.529L410.354 151.998H407.453V183H410.354ZM440.406 181.656C440.406 180.696 439.638 179.976 438.774 179.976C437.862 179.976 437.19 180.696 437.19 181.656C437.19 182.52 437.862 183.24 438.774 183.24C439.638 183.24 440.406 182.52 440.406 181.656Z" fill="black"/>
<path d="M0.361328 129.8H178.979V132.2H0.361328V129.8Z" fill="black"/>
</svg>
