<svg width="84" height="28" viewBox="0 0 84 28" fill="none" xmlns="http://www.w3.org/2000/svg">
<path d="M34.6195 23.9149C42.368 24.8834 50.2461 24.9203 58.0075 24.0244C64.5295 23.2275 71.6894 21.6469 76.3405 17.483C79.3437 14.7947 80.2367 10.6046 75.9046 8.66053C71.429 6.64646 65.9753 6.03348 61.0213 5.21909C55.2027 4.24011 49.3104 3.58623 43.3847 3.26194C33.5618 2.78469 23.6166 3.06491 14.3517 6.00283C11.3432 6.95733 2.65775 9.58438 6.24036 13.4155C10.3279 17.7939 18.636 19.9131 24.8444 21.0821C36.8442 23.3399 49.3521 22.9747 61.1277 20.0225" stroke="black" stroke-width="0.5" stroke-linecap="round" stroke-linejoin="round"/>
<path d="M25.2559 15.2112H22.0626V13.4338H25.0753V12.301H22.0626V10.6018H25.2559V9.38599H20.588V16.4319H25.2559V15.2112ZM28.7315 16.4319V11.8176H28.7755L32.0714 16.4319H33.2921V9.38599H31.8809V13.9758H31.8419L28.5508 9.38599H27.3204V16.4319H28.7315ZM39.1651 16.4319L41.5333 9.38599H39.9268L38.3155 14.9133H38.2813L36.67 9.38599H35.0196L37.3878 16.4319H39.1651ZM44.7305 16.4319V9.38599H43.2559V16.4319H44.7305ZM51.5167 16.4319H53.084L50.6329 9.38599H48.8995L46.4532 16.4319H47.9669L48.504 14.7229H50.9796L51.5167 16.4319ZM49.7247 10.7336H49.7589L50.6622 13.6194H48.8214L49.7247 10.7336ZM56.2813 10.5383H57.5362C58.2686 10.5383 58.7276 10.9778 58.7276 11.6614C58.7276 12.3596 58.293 12.7844 57.5508 12.7844H56.2813V10.5383ZM56.2813 13.8538H57.463L58.7764 16.4319H60.4464L58.962 13.634C59.7725 13.3167 60.2413 12.5354 60.2413 11.6321C60.2413 10.2405 59.3135 9.38599 57.6924 9.38599H54.8067V16.4319H56.2813V13.8538Z" fill="black"/>
</svg>
