<svg width="84" height="28" viewBox="0 0 84 28" fill="none" xmlns="http://www.w3.org/2000/svg">
<path d="M34.6194 23.9149C42.3679 24.8834 50.246 24.9202 58.0074 24.0244C64.5294 23.2275 71.6893 21.6469 76.3403 17.483C79.3436 14.7947 80.2366 10.6045 75.9045 8.6605C71.4289 6.64643 65.9752 6.03345 61.0212 5.21906C55.2026 4.24008 49.3103 3.5862 43.3846 3.26191C33.5616 2.78466 23.6164 3.06488 14.3516 6.0028C11.3431 6.9573 2.65762 9.58435 6.24024 13.4155C10.3278 17.7939 18.6359 19.913 24.8443 21.0821C36.8441 23.3399 49.352 22.9746 61.1275 20.0225" stroke="black" stroke-width="0.5" stroke-linecap="round" stroke-linejoin="round"/>
<path d="M26.7196 14.425C26.7636 15.7483 27.8427 16.554 29.537 16.554C31.2851 16.554 32.3935 15.6897 32.3935 14.3225C32.3935 13.2483 31.7782 12.6428 30.3671 12.3401L29.5126 12.1594C28.7021 11.9739 28.3603 11.7297 28.3603 11.2952C28.3603 10.7727 28.8486 10.426 29.5761 10.426C30.3134 10.426 30.8359 10.7874 30.8847 11.3831H32.2665C32.2421 10.1086 31.2118 9.26392 29.5712 9.26392C27.9989 9.26392 26.8759 10.1233 26.8759 11.4221C26.8759 12.4524 27.5155 13.1116 28.8144 13.3899L29.7323 13.5901C30.582 13.7805 30.9189 14.0344 30.9189 14.4934C30.9189 15.011 30.3818 15.387 29.5956 15.387C28.8144 15.387 28.2089 15.0061 28.1405 14.425H26.7196ZM38.9696 15.2112H35.7763V13.4338H38.789V12.301H35.7763V10.6018H38.9696V9.38599H34.3017V16.4319H38.9696V15.2112ZM42.4452 16.4319V11.8176H42.4892L45.7851 16.4319H47.0058V9.38599H45.5946V13.9758H45.5556L42.2646 9.38599H41.0341V16.4319H42.4452ZM49.1825 9.38599V16.4319H51.873C53.9872 16.4319 55.2323 15.1184 55.2323 12.8821C55.2323 10.6458 53.9872 9.38599 51.873 9.38599H49.1825ZM50.6571 10.6018H51.6972C52.996 10.6018 53.7284 11.4124 53.7284 12.887C53.7284 14.4104 53.0155 15.2112 51.6972 15.2112H50.6571V10.6018Z" fill="black"/>
</svg>
