<svg width="112" height="21" viewBox="0 0 112 21" fill="none" xmlns="http://www.w3.org/2000/svg">
<path d="M0 12.3565C0 10.5265 1.41022 9.40268 3.91662 9.26146L6.80224 9.09082V8.2847C6.80224 7.11965 6.00825 6.42533 4.68691 6.42533C3.43667 6.42533 2.65453 7.01962 2.46492 7.95519H0.420696C0.539202 6.0664 2.16273 4.67188 4.76987 4.67188C7.32367 4.67188 8.95905 6.01345 8.95905 8.11406V15.3279H6.8852V13.6098H6.83779C6.22749 14.7748 4.8943 15.5104 3.5137 15.5104C1.43985 15.5104 0 14.2394 0 12.3565ZM6.80224 11.4091V10.5854L4.20696 10.7442C2.91525 10.8325 2.18051 11.4033 2.18051 12.2976C2.18051 13.2097 2.93895 13.8099 4.10623 13.8099C5.61718 13.8099 6.80224 12.7743 6.80224 11.4091Z" fill="black"/>
<path d="M20.9637 10.2971C20.9637 13.1509 19.275 15.5221 15.9213 15.5221C12.5853 15.5221 10.8551 13.145 10.8551 10.2971C10.8551 7.41976 12.5853 5.06613 15.9213 5.06613C19.275 5.07201 20.9637 7.42564 20.9637 10.2971ZM18.7062 10.2971C18.7062 6.35474 17.5863 5.35445 15.9213 5.35445C14.2326 5.35445 13.089 6.35474 13.089 10.2971C13.089 14.2394 14.2266 15.2397 15.9213 15.2397C17.5863 15.2456 18.7062 14.2394 18.7062 10.2971ZM14.1852 2.93609C14.754 2.93609 15.2162 2.47713 15.2162 1.91226C15.2162 1.34739 14.754 0.888428 14.1852 0.888428C13.6163 0.888428 13.1779 1.34739 13.1779 1.91226C13.1779 2.47713 13.6163 2.93609 14.1852 2.93609ZM17.6989 2.93609C18.2499 2.93609 18.7062 2.47713 18.7062 1.91226C18.7062 1.34739 18.244 0.888428 17.6989 0.888428C17.13 0.888428 16.6916 1.34739 16.6916 1.91226C16.6856 2.47713 17.1241 2.93609 17.6989 2.93609Z" fill="black"/>
<path d="M22.9368 4.86593H24.9988V6.6488H25.0462C25.3958 5.42491 26.3379 4.70117 27.5823 4.70117C27.8904 4.70117 28.1629 4.74824 28.3229 4.78355V6.78414C28.1511 6.71353 27.7719 6.66646 27.3512 6.66646C25.9587 6.66646 25.0996 7.59026 25.0996 9.07305V15.3396H22.9368V4.86593Z" fill="black"/>
<path d="M29.028 12.3565C29.028 10.5265 30.4383 9.40268 32.9447 9.26146L35.8303 9.09082V8.2847C35.8303 7.11965 35.0363 6.42533 33.715 6.42533C32.4647 6.42533 31.6826 7.01962 31.493 7.95519H29.4487C29.5672 6.0664 31.1908 4.67188 33.7979 4.67188C36.3517 4.67188 37.9871 6.01345 37.9871 8.11406V15.3279H35.9132V13.6098H35.8658C35.2555 14.7748 33.9223 15.5104 32.5417 15.5104C30.4679 15.5104 29.028 14.2394 29.028 12.3565ZM35.8303 11.4091V10.5854L33.235 10.7442C31.9433 10.8325 31.2086 11.4033 31.2086 12.2976C31.2086 13.2097 31.9729 13.8099 33.1343 13.8099C34.6452 13.8099 35.8303 12.7743 35.8303 11.4091Z" fill="black"/>
<path d="M54.0743 14.1571L54.335 14.2689C54.2046 14.922 53.458 15.7517 52.3145 15.7517C52.3145 15.7517 50.5843 15.7929 50.448 13.9217C50.1399 14.9691 48.8659 15.7517 47.3313 15.7517C47.3313 15.7517 44.8308 15.7517 44.8308 13.5098C44.8308 11.3327 46.6973 10.8502 50.448 9.89112V8.62604C50.448 6.38421 49.3103 5.11913 47.5505 5.92525C46.6973 6.33714 46.561 6.75491 46.6973 6.77256C46.958 6.81375 47.2009 6.92554 47.3787 7.16679C47.7105 7.60221 47.6216 8.25535 47.1594 8.58486C46.721 8.93202 46.087 8.84375 45.7552 8.39068C45.5122 8.06117 45.4707 7.62575 45.6426 7.32566C45.7966 6.99615 46.1699 6.34302 47.355 5.71342C48.2971 5.23681 49.3755 5.30154 49.3755 5.30154C51.7693 5.30154 52.427 7.06676 52.427 9.65576V13.3568C52.427 13.3568 52.4033 14.7278 53.4166 14.7278C53.4166 14.7278 53.9202 14.7278 54.0743 14.1571ZM46.7921 13.0509C46.7921 13.6805 47.1891 14.769 48.5223 14.769C49.6836 14.769 50.2347 13.9394 50.4539 13.4157C50.4539 13.3922 50.4539 10.1677 50.4539 10.1677C47.912 10.7855 46.7921 11.7387 46.7921 13.0509Z" fill="black"/>
<path d="M64.645 6.73133C64.4672 6.51362 64.3843 6.25472 64.4495 6.01347C64.4909 5.83695 63.8154 5.92521 63.4185 6.49596C63.9695 7.04318 64.2302 7.84342 64.2302 8.63189C64.2302 10.3971 62.6719 11.9858 60.1062 11.9858C59.253 11.9858 58.5953 11.8564 58.0205 11.6151C56.9895 11.7916 55.8933 14.0335 58.4827 14.0335H61.1135C62.6245 14.0335 65.279 13.9452 64.8879 16.799C64.8879 16.799 64.8228 18.4995 62.5178 19.7822C59.5137 21.4592 56.0711 21.1356 55.1704 19.4763C54.3587 17.9935 55.3245 16.3812 56.7703 15.5751C56.1363 15.2691 55.7807 14.6807 55.7807 13.8981C55.7807 13.8981 55.6919 12.0682 57.7361 11.4798C56.5747 10.9796 56.0059 9.77928 56.0059 8.626C56.0059 6.86078 57.588 5.29561 60.1062 5.29561C61.4216 5.29561 62.5 5.68984 63.2229 6.31944C63.7917 5.47213 64.6687 5.16616 65.196 5.10144C65.5456 5.0779 65.9663 5.1897 66.2033 5.47213C66.5352 5.90756 66.4641 6.5195 66.0493 6.86666C65.6108 7.20794 64.9768 7.16675 64.645 6.73133ZM62.3638 19.541C64.0762 18.4936 63.9221 17.1226 63.9221 17.1226C63.9221 17.1226 63.8332 16.0105 61.949 16.0105H58.9212C58.6782 16.0105 57.825 16.0341 57.0547 15.7281C54.969 17.0991 56.6814 18.9938 56.6399 18.9526C57.6709 20.1706 60.4143 20.7354 62.3638 19.541ZM60.1062 5.57805C59.01 5.57805 57.9139 6.18999 57.9139 8.626C57.9139 11.0679 59.1404 11.6975 60.1062 11.6975C61.1135 11.6975 62.3223 11.0679 62.3223 8.626C62.3223 6.18411 61.0483 5.57805 60.1062 5.57805Z" fill="black"/>
<path d="M76.5785 12.4801C76.2764 14.3924 74.4573 15.7516 72.0398 15.7516C68.9468 15.7516 67.0744 13.6745 67.0744 10.3677C67.0744 7.08437 68.9764 4.89549 71.9509 4.89549C74.878 4.89549 76.6971 6.94315 76.6971 10.1147V10.8502H69.2549V10.9796C69.2549 12.7978 70.357 14.0041 72.0872 14.0041C73.3196 14.0041 74.2321 13.3862 74.5225 12.4742H76.5785V12.4801ZM69.2608 9.35562H74.5284C74.481 7.75515 73.4559 6.63129 71.945 6.63129C70.434 6.63129 69.3734 7.77281 69.2608 9.35562ZM70.1437 2.93609C70.7125 2.93609 71.1747 2.47713 71.1747 1.91226C71.1747 1.34739 70.7125 0.888428 70.1437 0.888428C69.5748 0.888428 69.1364 1.34739 69.1364 1.91226C69.1364 2.47713 69.5748 2.93609 70.1437 2.93609ZM73.6515 2.93609C74.2025 2.93609 74.6587 2.47713 74.6587 1.91226C74.6587 1.34739 74.1966 0.888428 73.6515 0.888428C73.0826 0.888428 72.6441 1.34739 72.6441 1.91226C72.6441 2.47713 73.0826 2.93609 73.6515 2.93609Z" fill="black"/>
<path d="M87.8248 15.5516H84.1392V15.2927C84.9747 15.0515 85.0162 14.6396 85.0162 13.5275V8.84376C85.0162 7.36097 84.2281 6.38421 82.7764 6.38421C81.6388 6.38421 80.7144 7.47277 80.5367 8.25535V13.551C80.5367 14.7514 80.6492 15.075 81.4373 15.2692V15.5516H77.7518V15.2692C78.5872 15.0279 78.605 14.6572 78.605 13.551V7.47276C78.605 6.70783 78.4272 6.4254 77.5088 6.19004V5.92525L80.5367 5.29565V7.58456C80.9988 6.31948 82.5098 5.29565 83.8904 5.29565C85.668 5.29565 86.9182 6.14296 86.9182 8.77903V13.5275C86.9182 14.7278 87.0486 15.0985 87.8189 15.2927V15.5516H87.8248Z" fill="black"/>
<path d="M98.2237 12.8744C97.9807 13.9629 96.8668 15.7517 94.1648 15.7517C91.7058 15.7517 89.3831 13.7452 89.3831 10.5443C89.3831 7.867 91.3562 5.29565 94.7159 5.29565C96.8668 5.29565 97.5245 6.2783 97.72 6.62546C97.8978 6.93143 97.9393 7.34332 97.7437 7.69048C97.4593 8.14944 96.8016 8.34361 96.3394 8.06117C95.8358 7.77874 95.6817 7.14914 95.9661 6.69018C96.1202 6.43128 96.3631 6.25476 96.5824 6.23122C96.7779 6.19004 96.1854 5.57809 94.7159 5.57809C93.839 5.57809 91.4273 6.23122 91.4273 10.303C91.4273 13.198 93.0746 14.3983 94.627 14.5513C96.2269 14.6808 97.5897 13.6569 97.9807 12.7626L98.2237 12.8744Z" fill="black"/>
<path d="M109.541 5.48975V5.74865C108.771 5.74865 108.03 5.94282 106.732 9.23202L103.331 18.4465C102.893 19.7116 102.3 20.2117 101.992 20.4706C101.684 20.7119 101.092 20.8178 100.677 20.6236C100.084 20.3647 99.8413 19.688 100.084 19.0996C100.369 18.5112 101.05 18.2523 101.619 18.5112C101.927 18.6407 102.123 18.9231 102.211 19.2114C102.3 19.5174 102.762 19.2114 103.065 18.4053L104.054 15.6398C101.441 9.90869 99.9539 6.86074 99.9539 6.86074C99.5154 5.86044 98.7451 5.77218 98.4192 5.74865V5.48975H102.958V5.74865C101.53 5.74865 102.3 7.33735 102.3 7.33735L105.02 13.1332L106.466 9.1673C106.466 9.1673 107.846 5.72511 105.304 5.74865V5.48975H109.541Z" fill="black"/>
<path d="M110.969 15.3926C111.538 15.3926 112 14.9337 112 14.3688C112 13.8039 111.538 13.345 110.969 13.345C110.4 13.345 109.962 13.8039 109.962 14.3688C109.962 14.9337 110.4 15.3926 110.969 15.3926Z" fill="black"/>
</svg>
