<svg width="54" height="21" viewBox="0 0 54 21" fill="none" xmlns="http://www.w3.org/2000/svg">
<path d="M0 16.0553C0 13.4934 1.97683 11.92 5.49027 11.7223L9.53529 11.4834V10.3548C9.53529 8.72375 8.42228 7.7517 6.57005 7.7517C4.81748 7.7517 3.72109 8.5837 3.4553 9.8935H0.589726C0.755846 7.24919 3.03169 5.29686 6.68633 5.29686C10.2662 5.29686 12.5587 7.17506 12.5587 10.1159V20.2154H9.65157V17.8099H9.58512C8.72961 19.441 6.86076 20.4707 4.92546 20.4707C2.01836 20.4707 0 18.6914 0 16.0553ZM9.53529 14.729V13.5758L5.89726 13.7982C4.08655 13.9217 3.05661 14.7208 3.05661 15.9729C3.05661 17.2498 4.11978 18.09 5.75606 18.09C7.87409 18.09 9.53529 16.6402 9.53529 14.729Z" fill="black"/>
<path d="M29.3866 13.1721C29.3866 17.1674 27.0194 20.4872 22.3182 20.4872C17.6419 20.4872 15.2166 17.1592 15.2166 13.1721C15.2166 9.14387 17.6419 5.84878 22.3182 5.84878C27.0194 5.85702 29.3866 9.1521 29.3866 13.1721ZM26.222 13.1721C26.222 7.65284 24.6522 6.25243 22.3182 6.25243C19.951 6.25243 18.3479 7.65284 18.3479 13.1721C18.3479 18.6914 19.9427 20.0918 22.3182 20.0918C24.6522 20.1 26.222 18.6914 26.222 13.1721ZM19.8846 2.86673C20.6819 2.86673 21.3298 2.22418 21.3298 1.43336C21.3298 0.642542 20.6819 0 19.8846 0C19.0872 0 18.4725 0.642542 18.4725 1.43336C18.4725 2.22418 19.0872 2.86673 19.8846 2.86673ZM24.81 2.86673C25.5825 2.86673 26.222 2.22418 26.222 1.43336C26.222 0.642542 25.5742 0 24.81 0C24.0126 0 23.398 0.642542 23.398 1.43336C23.3897 2.22418 24.0043 2.86673 24.81 2.86673Z" fill="black"/>
<path d="M32.1525 5.5687H35.043V8.06472H35.1095C35.5995 6.35128 36.9202 5.33804 38.6644 5.33804C39.0963 5.33804 39.4784 5.40394 39.7027 5.45337V8.25419C39.4618 8.15534 38.9302 8.08944 38.3405 8.08944C36.3886 8.08944 35.1842 9.38276 35.1842 11.4587V20.2318H32.1525V5.5687Z" fill="black"/>
<path d="M40.6911 16.0553C40.6911 13.4934 42.6679 11.92 46.1813 11.7223L50.2264 11.4834V10.3548C50.2264 8.72375 49.1134 7.7517 47.2611 7.7517C45.5086 7.7517 44.4122 8.5837 44.1464 9.8935H41.2808C41.4469 7.24919 43.7228 5.29686 47.3774 5.29686C50.9573 5.29686 53.2498 7.17506 53.2498 10.1159V20.2154H50.3427V17.8099H50.2762C49.4207 19.441 47.5518 20.4707 45.6165 20.4707C42.7094 20.4707 40.6911 18.6914 40.6911 16.0553ZM50.2264 14.729V13.5758L46.5883 13.7982C44.7776 13.9217 43.7477 14.7208 43.7477 15.9729C43.7477 17.2498 44.8192 18.09 46.4471 18.09C48.5652 18.09 50.2264 16.6402 50.2264 14.729Z" fill="black"/>
</svg>
