<svg width="95" height="29" viewBox="0 0 95 29" fill="none" xmlns="http://www.w3.org/2000/svg">
<path d="M12.9574 18.576L13.3228 18.7326C13.1401 19.647 12.0935 20.8085 10.4905 20.8085C10.4905 20.8085 8.06512 20.8661 7.87408 18.2465C7.44217 19.7129 5.65638 20.8085 3.50513 20.8085C3.50513 20.8085 0 20.8085 0 17.6699C0 14.6219 2.61639 13.9465 7.87408 12.6037V10.8326C7.87408 7.69403 6.27933 5.92292 3.81245 7.05148C2.61639 7.62812 2.42535 8.213 2.61638 8.23772C2.98185 8.29538 3.3224 8.4519 3.57158 8.78964C4.03671 9.39923 3.91212 10.3136 3.26425 10.7749C2.64961 11.261 1.76087 11.1374 1.29573 10.5031C0.955188 10.0418 0.897044 9.43218 1.13792 9.01206C1.35387 8.55075 1.87715 7.63636 3.53835 6.75493C4.859 6.08767 6.3707 6.17829 6.3707 6.17829C9.72632 6.17829 10.6483 8.6496 10.6483 12.2742V17.4557C10.6483 17.4557 10.6151 19.3751 12.0354 19.3751C12.0354 19.3751 12.7414 19.3751 12.9574 18.576ZM2.74928 17.0274C2.74928 17.9088 3.30578 19.4328 5.17463 19.4328C6.80261 19.4328 7.57507 18.2713 7.88239 17.5381C7.88239 17.5051 7.88239 12.9909 7.88239 12.9909C4.31912 13.8558 2.74928 15.1903 2.74928 17.0274Z" fill="black"/>
<path d="M27.7752 8.18005C27.5261 7.87526 27.4098 7.5128 27.5011 7.17505C27.5593 6.92792 26.6124 7.05148 26.0559 7.85054C26.8284 8.61665 27.1938 9.73698 27.1938 10.8408C27.1938 13.3121 25.0094 15.5363 21.4129 15.5363C20.2168 15.5363 19.2948 15.3551 18.4891 15.0174C17.0439 15.2645 15.5073 18.4031 19.137 18.4031H22.8249C24.9429 18.4031 28.664 18.2795 28.1158 22.2748C28.1158 22.2748 28.0244 24.6555 24.7934 26.4513C20.5823 28.7991 15.7565 28.346 14.494 26.0229C13.356 23.947 14.7099 21.6899 16.7366 20.5613C15.8478 20.133 15.3495 19.3092 15.3495 18.2136C15.3495 18.2136 15.2249 15.6517 18.0905 14.8279C16.4625 14.1277 15.6651 12.4472 15.6651 10.8326C15.6651 8.36128 17.8828 6.17005 21.4129 6.17005C23.2568 6.17005 24.7685 6.72198 25.7818 7.60341C26.5792 6.41718 27.8085 5.98882 28.5477 5.8982C29.0378 5.86525 29.6275 6.02177 29.9597 6.41718C30.4249 7.02677 30.3252 7.88349 29.7438 8.36952C29.1291 8.84731 28.2404 8.78964 27.7752 8.18005ZM24.5774 26.1136C26.9779 24.6472 26.7619 22.7279 26.7619 22.7279C26.7619 22.7279 26.6373 21.1709 23.996 21.1709H19.7517C19.4111 21.1709 18.215 21.2039 17.1353 20.7755C14.2116 22.6949 16.612 25.3475 16.5538 25.2898C17.9991 26.995 21.8448 27.7858 24.5774 26.1136ZM21.4129 6.56546C19.8762 6.56546 18.3396 7.42218 18.3396 10.8326C18.3396 14.2512 20.059 15.1327 21.4129 15.1327C22.8249 15.1327 24.5193 14.2512 24.5193 10.8326C24.5193 7.41394 22.7335 6.56546 21.4129 6.56546Z" fill="black"/>
<path d="M44.5036 16.2283C44.0799 18.9056 41.53 20.8085 38.1412 20.8085C33.8054 20.8085 31.1807 17.9006 31.1807 13.271C31.1807 8.67432 33.847 5.60988 38.0166 5.60988C42.1197 5.60988 44.6697 8.47661 44.6697 12.9167V13.9465H34.2373V14.1277C34.2373 16.6731 35.7823 18.3619 38.2076 18.3619C39.9353 18.3619 41.2144 17.4969 41.6214 16.2201H44.5036V16.2283ZM34.2456 11.8541H41.6297C41.5632 9.61342 40.1263 8.04001 38.0083 8.04001C35.8902 8.04001 34.4035 9.63813 34.2456 11.8541ZM35.4832 2.86673C36.2806 2.86673 36.9285 2.22418 36.9285 1.43336C36.9285 0.642542 36.2806 0 35.4832 0C34.6859 0 34.0712 0.642542 34.0712 1.43336C34.0712 2.22418 34.6859 2.86673 35.4832 2.86673ZM40.4004 2.86673C41.1728 2.86673 41.8124 2.22418 41.8124 1.43336C41.8124 0.642542 41.1645 0 40.4004 0C39.603 0 38.9884 0.642542 38.9884 1.43336C38.9884 2.22418 39.603 2.86673 40.4004 2.86673Z" fill="black"/>
<path d="M60.2683 20.5284H55.102V20.1659C56.2731 19.8282 56.3313 19.2515 56.3313 17.6946V11.1374C56.3313 9.06149 55.2266 7.69403 53.1916 7.69403C51.5969 7.69403 50.3011 9.21801 50.0519 10.3136V17.7276C50.0519 19.4081 50.2098 19.8611 51.3145 20.133V20.5284H46.1481V20.133C47.3193 19.7952 47.3442 19.2763 47.3442 17.7276V9.21801C47.3442 8.1471 47.095 7.75169 45.8076 7.42218V7.05149L50.0519 6.17005V9.37452C50.6998 7.60341 52.8178 6.17005 54.7531 6.17005C57.2449 6.17005 58.9975 7.35628 58.9975 11.0468V17.6946C58.9975 19.3751 59.1802 19.8941 60.26 20.1659V20.5284H60.2683Z" fill="black"/>
<path d="M74.8454 16.7802C74.5048 18.3042 72.9433 20.8085 69.1558 20.8085C65.7088 20.8085 62.4528 17.9994 62.4528 13.5181C62.4528 9.76993 65.2187 6.17005 69.9282 6.17005C72.9433 6.17005 73.8653 7.54575 74.1394 8.03178C74.3885 8.46014 74.4467 9.03678 74.1726 9.5228C73.7739 10.1653 72.8519 10.4372 72.2041 10.0418C71.498 9.64637 71.2821 8.76493 71.6808 8.12239C71.8967 7.75993 72.2373 7.5128 72.5446 7.47985C72.8187 7.42218 71.9881 6.56546 69.9282 6.56546C68.6989 6.56546 65.3184 7.47985 65.3184 13.1804C65.3184 17.2333 67.6274 18.9138 69.8036 19.128C72.0462 19.3092 73.9566 17.8758 74.5048 16.6237L74.8454 16.7802Z" fill="black"/>
<path d="M90.7098 6.44189V6.80435C89.63 6.80435 88.5918 7.07619 86.7728 11.6811L82.0051 24.5813C81.3905 26.3525 80.5599 27.0527 80.128 27.4151C79.6961 27.7529 78.8655 27.9011 78.284 27.6293C77.4534 27.2668 77.1129 26.3195 77.4534 25.4957C77.8521 24.672 78.8073 24.3095 79.6047 24.672C80.0366 24.8532 80.3107 25.2486 80.4353 25.6522C80.5599 26.0806 81.2078 25.6522 81.6314 24.5237L83.0185 20.652C79.3555 12.6284 77.2707 8.36128 77.2707 8.36128C76.6561 6.96087 75.5763 6.8373 75.1195 6.80435V6.44189H81.4818V6.80435C79.4801 6.80435 80.5599 9.02853 80.5599 9.02853L84.3723 17.1427L86.399 11.5905C86.399 11.5905 88.3343 6.7714 84.771 6.80435V6.44189H90.7098Z" fill="black"/>
<path d="M92.7116 20.306C93.5089 20.306 94.1568 19.6634 94.1568 18.8726C94.1568 18.0818 93.5089 17.4392 92.7116 17.4392C91.9142 17.4392 91.2995 18.0818 91.2995 18.8726C91.2995 19.6634 91.9142 20.306 92.7116 20.306Z" fill="black"/>
</svg>
