<svg width="508" height="71" viewBox="0 0 508 71" fill="none" xmlns="http://www.w3.org/2000/svg">
<path d="M12.0783 54.848C9.19825 54.848 7.08625 53.184 7.08625 46.592V27.008H14.5103L14.6383 26.432H7.08625V16.384L3.88625 16.768V26.432H0.55825L0.62225 27.008H3.88625V46.784C3.88625 54.528 6.57425 56.576 10.7983 56.576C13.9343 56.576 15.8542 54.4 16.3663 51.776L15.9823 51.648C15.5343 53.376 13.9343 54.848 12.0783 54.848ZM43.7118 51.904V36.544C43.7118 28.864 39.4878 25.856 34.1118 25.856C29.6958 25.856 25.5358 29.504 24.7678 33.408V9.28L18.3678 10.368V10.944C21.0558 10.944 21.5677 11.84 21.5677 14.08V51.904C21.5677 55.168 21.4398 54.72 19.0078 55.424V56H27.3918V55.424C25.0878 54.848 24.7678 55.424 24.7678 51.904V33.984C25.4718 32.192 28.0958 27.584 32.6398 27.584C37.8878 27.584 40.5758 31.168 40.5758 36.8V51.904C40.5758 55.168 40.4478 54.784 38.0158 55.488V56H46.3358V55.488C44.0958 54.912 43.7118 55.424 43.7118 51.904ZM64.0403 55.296C58.2803 55.296 53.8003 51.584 53.8003 40.64H74.3443C74.3443 30.464 68.5203 25.856 62.8883 25.856C55.9123 25.856 50.0243 31.68 50.0243 41.6C50.0243 51.008 55.6562 56.576 63.2083 56.576C69.7363 56.576 73.0643 51.328 73.3843 48.64L73.0003 48.576C72.2323 51.904 68.3283 55.296 64.0403 55.296ZM53.8003 40C53.8003 30.08 59.3043 26.432 62.8883 26.432C65.4483 26.432 71.1443 29.44 71.1443 40H53.8003ZM133.057 51.904V36.544C133.057 28.864 129.793 25.856 124.353 25.856C120.193 25.856 116.865 29.056 115.841 32.768C114.945 27.84 112.001 25.856 107.521 25.856C103.489 25.856 100.161 28.8 99.0728 32.384V25.856L92.6728 26.944V27.456C95.3608 27.456 95.8728 28.416 95.8728 30.656V51.904C95.8728 55.168 95.7448 54.72 93.3128 55.424V56H101.697V55.424C99.3928 54.848 99.0728 55.424 99.0728 51.904V33.344C99.9688 31.296 101.953 27.584 106.049 27.584C111.361 27.584 113.025 31.168 113.025 36.8V51.904C113.025 55.168 112.897 54.784 110.465 55.488V56H118.785V55.488C116.545 54.912 116.161 55.424 116.161 51.904V36.544C116.161 35.392 116.097 34.304 115.969 33.408C116.801 31.36 118.849 27.584 122.945 27.584C128.193 27.584 129.921 31.168 129.921 36.8V51.904C129.921 55.168 129.793 54.784 127.361 55.488V56H135.681V55.488C133.441 54.912 133.057 55.424 133.057 51.904ZM153.74 25.856C144.012 25.856 139.468 32.768 139.468 41.216C139.468 49.6 144.012 56.576 153.74 56.576C163.532 56.576 168.012 49.6 168.012 41.216C168.012 32.768 163.532 25.856 153.74 25.856ZM153.74 56C148.556 56 143.116 52.8 143.116 41.216C143.116 29.632 148.556 26.432 153.74 26.432C158.924 26.432 164.3 29.632 164.3 41.216C164.3 52.8 158.924 56 153.74 56ZM212.119 51.904V36.544C212.119 28.864 208.855 25.856 203.415 25.856C199.255 25.856 195.927 29.056 194.903 32.768C194.007 27.84 191.063 25.856 186.583 25.856C182.551 25.856 179.223 28.8 178.135 32.384V25.856L171.735 26.944V27.456C174.423 27.456 174.935 28.416 174.935 30.656V51.904C174.935 55.168 174.807 54.72 172.375 55.424V56H180.759V55.424C178.455 54.848 178.135 55.424 178.135 51.904V33.344C179.031 31.296 181.015 27.584 185.111 27.584C190.423 27.584 192.087 31.168 192.087 36.8V51.904C192.087 55.168 191.959 54.784 189.527 55.488V56H197.847V55.488C195.607 54.912 195.223 55.424 195.223 51.904V36.544C195.223 35.392 195.159 34.304 195.031 33.408C195.863 31.36 197.911 27.584 202.007 27.584C207.255 27.584 208.983 31.168 208.983 36.8V51.904C208.983 55.168 208.855 54.784 206.423 55.488V56H214.743V55.488C212.503 54.912 212.119 55.424 212.119 51.904ZM232.29 55.296C226.53 55.296 222.05 51.584 222.05 40.64H242.594C242.594 30.464 236.77 25.856 231.138 25.856C224.162 25.856 218.274 31.68 218.274 41.6C218.274 51.008 223.906 56.576 231.458 56.576C237.986 56.576 241.314 51.328 241.634 48.64L241.25 48.576C240.482 51.904 236.578 55.296 232.29 55.296ZM222.05 40C222.05 30.08 227.554 26.432 231.138 26.432C233.698 26.432 239.394 29.44 239.394 40H222.05ZM270.948 51.904V36.544C270.948 28.864 266.724 25.856 261.348 25.856C257.316 25.856 253.476 28.864 252.26 32.384V25.856L245.86 26.944V27.456C248.548 27.456 249.06 28.416 249.06 30.656V51.904C249.06 55.168 248.932 54.72 246.5 55.424V56H254.884V55.424C252.58 54.848 252.26 55.424 252.26 51.904V33.344C253.284 31.296 255.78 27.584 259.876 27.584C265.124 27.584 267.812 31.168 267.812 36.8V51.904C267.812 55.168 267.684 54.784 265.252 55.488V56H273.572V55.488C271.332 54.912 270.948 55.424 270.948 51.904ZM287.766 54.848C284.886 54.848 282.774 53.184 282.774 46.592V27.008H290.198L290.326 26.432H282.774V16.384L279.574 16.768V26.432H276.246L276.31 27.008H279.574V46.784C279.574 54.528 282.262 56.576 286.486 56.576C289.622 56.576 291.542 54.4 292.054 51.776L291.67 51.648C291.222 53.376 289.622 54.848 287.766 54.848ZM316.35 25.856L310.014 26.944V27.456C312.702 27.456 313.15 28.352 313.15 30.592V51.904C313.15 55.168 313.022 54.72 310.59 55.424V56H318.974V55.424C316.67 54.848 316.35 55.424 316.35 51.904V25.856ZM316.286 18.176C316.286 16.896 315.262 15.936 314.11 15.936C312.894 15.936 311.998 16.896 311.998 18.176C311.998 19.328 312.894 20.288 314.11 20.288C315.262 20.288 316.286 19.328 316.286 18.176ZM337.79 41.024L331.326 36.992C325.758 33.472 324.926 26.432 332.862 26.432C341.182 26.432 342.718 31.168 342.718 36.416H343.23V27.968C343.23 27.968 340.222 25.856 332.862 25.856C326.27 25.856 324.862 29.952 324.862 29.952C323.198 34.112 324.414 36.608 330.43 41.024L336.894 44.928C341.758 48.128 344.254 56 335.23 56C326.014 56 324.926 51.008 324.926 45.056H324.414V54.4C324.414 54.4 327.486 56.576 335.23 56.576C340.542 56.576 342.526 53.696 342.526 53.696C345.47 49.536 343.678 44.672 337.79 41.024ZM370.281 56V18.3125H370.5L397.031 56H401.156V10.9062H396.938V48.5625H396.719L370.281 10.9062H366.062V56H370.281ZM428.281 10.1875C415.719 10.1875 407.812 19.1875 407.812 33.4688C407.812 47.75 415.719 56.7188 428.281 56.7188C440.875 56.7188 448.781 47.75 448.781 33.4688C448.781 19.1875 440.844 10.1875 428.281 10.1875ZM428.281 14.1562C438.156 14.1562 444.406 21.625 444.406 33.4688C444.406 45.2812 438.156 52.75 428.281 52.75C418.406 52.75 412.188 45.2812 412.188 33.4688C412.188 21.625 418.406 14.1562 428.281 14.1562ZM422.969 6.375C424.531 6.375 425.812 5.09375 425.812 3.5C425.812 1.9375 424.531 0.65625 422.969 0.65625C421.406 0.65625 420.094 1.9375 420.094 3.5C420.094 5.09375 421.406 6.375 422.969 6.375ZM433.594 6.375C435.156 6.375 436.469 5.09375 436.469 3.5C436.469 1.9375 435.156 0.65625 433.594 0.65625C432.031 0.65625 430.75 1.9375 430.75 3.5C430.75 5.09375 432.031 6.375 433.594 6.375ZM478.5 18.2188H478.75L489.844 56H493.781L506.219 10.9062H501.75L491.844 49.4375H491.625L480.75 10.9062H476.5L465.594 49.4375H465.406L455.469 10.9062H451.031L463.438 56H467.406L478.5 18.2188Z" fill="black"/>
<path d="M361.844 67.5312H507.594V70.5H361.844V67.5312Z" fill="black"/>
</svg>
