<svg width="318" height="34" viewBox="0 0 318 34" fill="none" xmlns="http://www.w3.org/2000/svg">
<path d="M8.65769 32.582C5.23769 32.582 2.57769 30.378 2.57769 23.88H14.7757C14.7757 17.838 11.3177 15.102 7.97369 15.102C3.83169 15.102 0.335688 18.56 0.335688 24.45C0.335688 30.036 3.67969 33.342 8.16369 33.342C12.0397 33.342 14.0157 30.226 14.2057 28.63L13.9777 28.592C13.5217 30.568 11.2037 32.582 8.65769 32.582ZM2.57769 23.5C2.57769 17.61 5.84569 15.444 7.97369 15.444C9.49369 15.444 12.8757 17.23 12.8757 23.5H2.57769ZM20.9709 5.26L17.1709 5.906V6.248C18.7669 6.248 19.0709 6.78 19.0709 8.11V30.568C19.0709 32.506 18.9949 32.24 17.5509 32.658V33H22.5289V32.658C21.1609 32.316 20.9709 32.658 20.9709 30.568V5.26ZM57.1323 30.568V21.448C57.1323 16.888 55.1943 15.102 51.9643 15.102C49.4943 15.102 47.5183 17.002 46.9103 19.206C46.3783 16.28 44.6303 15.102 41.9703 15.102C39.5763 15.102 37.6003 16.85 36.9543 18.978V15.102L33.1543 15.748V16.052C34.7503 16.052 35.0543 16.622 35.0543 17.952V30.568C35.0543 32.506 34.9783 32.24 33.5343 32.658V33H38.5123V32.658C37.1443 32.316 36.9543 32.658 36.9543 30.568V19.548C37.4863 18.332 38.6643 16.128 41.0963 16.128C44.2503 16.128 45.2383 18.256 45.2383 21.6V30.568C45.2383 32.506 45.1623 32.278 43.7183 32.696V33H48.6583V32.696C47.3283 32.354 47.1003 32.658 47.1003 30.568V21.448C47.1003 20.764 47.0623 20.118 46.9863 19.586C47.4803 18.37 48.6963 16.128 51.1283 16.128C54.2443 16.128 55.2703 18.256 55.2703 21.6V30.568C55.2703 32.506 55.1943 32.278 53.7503 32.696V33H58.6903V32.696C57.3603 32.354 57.1323 32.658 57.1323 30.568ZM69.4129 15.102C63.6369 15.102 60.9389 19.206 60.9389 24.222C60.9389 29.2 63.6369 33.342 69.4129 33.342C75.2269 33.342 77.8869 29.2 77.8869 24.222C77.8869 19.206 75.2269 15.102 69.4129 15.102ZM69.4129 33C66.3349 33 63.1049 31.1 63.1049 24.222C63.1049 17.344 66.3349 15.444 69.4129 15.444C72.4909 15.444 75.6829 17.344 75.6829 24.222C75.6829 31.1 72.4909 33 69.4129 33ZM104.076 30.568V21.448C104.076 16.888 102.138 15.102 98.9077 15.102C96.4377 15.102 94.4617 17.002 93.8537 19.206C93.3217 16.28 91.5737 15.102 88.9137 15.102C86.5197 15.102 84.5437 16.85 83.8977 18.978V15.102L80.0977 15.748V16.052C81.6937 16.052 81.9977 16.622 81.9977 17.952V30.568C81.9977 32.506 81.9217 32.24 80.4777 32.658V33H85.4557V32.658C84.0877 32.316 83.8977 32.658 83.8977 30.568V19.548C84.4297 18.332 85.6077 16.128 88.0397 16.128C91.1937 16.128 92.1817 18.256 92.1817 21.6V30.568C92.1817 32.506 92.1057 32.278 90.6617 32.696V33H95.6017V32.696C94.2717 32.354 94.0437 32.658 94.0437 30.568V21.448C94.0437 20.764 94.0057 20.118 93.9297 19.586C94.4237 18.37 95.6397 16.128 98.0717 16.128C101.188 16.128 102.214 18.256 102.214 21.6V30.568C102.214 32.506 102.138 32.278 100.694 32.696V33H105.634V32.696C104.304 32.354 104.076 32.658 104.076 30.568ZM116.052 32.582C112.632 32.582 109.972 30.378 109.972 23.88H122.17C122.17 17.838 118.712 15.102 115.368 15.102C111.226 15.102 107.73 18.56 107.73 24.45C107.73 30.036 111.074 33.342 115.558 33.342C119.434 33.342 121.41 30.226 121.6 28.63L121.372 28.592C120.916 30.568 118.598 32.582 116.052 32.582ZM109.972 23.5C109.972 17.61 113.24 15.444 115.368 15.444C116.888 15.444 120.27 17.23 120.27 23.5H109.972ZM139.005 30.568V21.448C139.005 16.888 136.497 15.102 133.305 15.102C130.911 15.102 128.631 16.888 127.909 18.978V15.102L124.109 15.748V16.052C125.705 16.052 126.009 16.622 126.009 17.952V30.568C126.009 32.506 125.933 32.24 124.489 32.658V33H129.467V32.658C128.099 32.316 127.909 32.658 127.909 30.568V19.548C128.517 18.332 129.999 16.128 132.431 16.128C135.547 16.128 137.143 18.256 137.143 21.6V30.568C137.143 32.506 137.067 32.278 135.623 32.696V33H140.563V32.696C139.233 32.354 139.005 32.658 139.005 30.568ZM148.991 32.316C147.281 32.316 146.027 31.328 146.027 27.414V15.786H150.435L150.511 15.444H146.027V9.478L144.127 9.706V15.444H142.151L142.189 15.786H144.127V27.528C144.127 32.126 145.723 33.342 148.231 33.342C150.093 33.342 151.233 32.05 151.537 30.492L151.309 30.416C151.043 31.442 150.093 32.316 148.991 32.316ZM162.149 15.102C156.373 15.102 153.675 19.206 153.675 24.222C153.675 29.2 156.373 33.342 162.149 33.342C167.963 33.342 170.623 29.2 170.623 24.222C170.623 19.206 167.963 15.102 162.149 15.102ZM162.149 33C159.071 33 155.841 31.1 155.841 24.222C155.841 17.344 159.071 15.444 162.149 15.444C165.227 15.444 168.419 17.344 168.419 24.222C168.419 31.1 165.227 33 162.149 33ZM191.087 32.582C187.667 32.582 185.007 30.378 185.007 23.88H197.205C197.205 17.838 193.747 15.102 190.403 15.102C186.261 15.102 182.765 18.56 182.765 24.45C182.765 30.036 186.109 33.342 190.593 33.342C194.469 33.342 196.445 30.226 196.635 28.63L196.407 28.592C195.951 30.568 193.633 32.582 191.087 32.582ZM185.007 23.5C185.007 17.61 188.275 15.444 190.403 15.444C191.923 15.444 195.305 17.23 195.305 23.5H185.007ZM208.455 24.108L204.617 21.714C201.311 19.624 200.817 15.444 205.529 15.444C210.469 15.444 211.381 18.256 211.381 21.372H211.685V16.356C211.685 16.356 209.899 15.102 205.529 15.102C201.615 15.102 200.779 17.534 200.779 17.534C199.791 20.004 200.513 21.486 204.085 24.108L207.923 26.426C210.811 28.326 212.293 33 206.935 33C201.463 33 200.817 30.036 200.817 26.502H200.513V32.05C200.513 32.05 202.337 33.342 206.935 33.342C210.089 33.342 211.267 31.632 211.267 31.632C213.015 29.162 211.951 26.274 208.455 24.108ZM243.035 33H245.707L235.706 6.22559H233.183L223.163 33H225.854L228.822 24.7988H240.066L243.035 33ZM234.389 9.36133H234.5L239.306 22.6094H229.583L234.389 9.36133ZM258.881 5.79883C251.422 5.79883 246.728 11.1426 246.728 19.6221C246.728 28.1016 251.422 33.4268 258.881 33.4268C266.358 33.4268 271.053 28.1016 271.053 19.6221C271.053 11.1426 266.34 5.79883 258.881 5.79883ZM258.881 8.15527C264.744 8.15527 268.455 12.5898 268.455 19.6221C268.455 26.6357 264.744 31.0703 258.881 31.0703C253.018 31.0703 249.325 26.6357 249.325 19.6221C249.325 12.5898 253.018 8.15527 258.881 8.15527ZM255.727 3.53516C256.654 3.53516 257.415 2.77441 257.415 1.82812C257.415 0.900391 256.654 0.139648 255.727 0.139648C254.799 0.139648 254.02 0.900391 254.02 1.82812C254.02 2.77441 254.799 3.53516 255.727 3.53516ZM262.035 3.53516C262.963 3.53516 263.742 2.77441 263.742 1.82812C263.742 0.900391 262.963 0.139648 262.035 0.139648C261.107 0.139648 260.347 0.900391 260.347 1.82812C260.347 2.77441 261.107 3.53516 262.035 3.53516ZM277.528 8.48926H284.152C288.049 8.48926 290.405 10.5859 290.405 14.1299C290.405 17.7109 288.142 19.7891 284.245 19.7891H277.528V8.48926ZM277.528 22.0342H284.245C284.375 22.0342 284.561 22.0342 284.653 22.0342L290.813 33H293.782L287.288 21.626C290.869 20.6982 293.021 17.8408 293.021 14.0557C293.021 9.28711 289.682 6.22559 284.449 6.22559H275.005V33H277.528V22.0342ZM314.953 33H317.625L307.624 6.22559H305.101L295.081 33H297.771L300.74 24.7988H311.984L314.953 33ZM306.307 9.36133H306.418L311.224 22.6094H301.501L306.307 9.36133Z" fill="black"/>
<path d="M222.736 39.8467H318.07V41.6094H222.736V39.8467Z" fill="black"/>
</svg>
