<svg width="206" height="47" viewBox="0 0 206 47" fill="none" xmlns="http://www.w3.org/2000/svg">
<path d="M17.533 39C11.821 39 5.67695 35.544 5.67695 22.344C5.67695 9.192 11.821 5.208 17.533 5.208C23.197 5.208 29.293 9.192 29.293 22.344C29.293 35.544 23.197 39 17.533 39ZM17.533 4.776C6.97295 4.776 2.89295 12.84 2.89295 22.344C2.89295 31.896 6.97295 39.432 17.533 39.432C28.093 39.432 32.173 31.896 32.173 22.344C32.173 12.84 28.093 4.776 17.533 4.776ZM54.2166 35.4V16.392L49.5606 17.256V17.64C51.8166 17.64 51.8166 17.688 51.8166 20.616V33.912C51.1446 36.024 49.4646 38.184 46.0566 38.184C43.2726 38.184 40.2006 36.696 40.2006 32.136V16.392L35.2086 17.256V17.64C37.8966 17.64 37.8966 17.64 37.8966 20.952V32.28C37.8966 38.472 42.4086 39.432 45.5286 39.432C48.9846 39.432 51.2886 37.272 51.8166 34.92V38.856C51.8166 38.856 51.7686 39.624 52.8246 39.384L56.6646 38.76V38.376C54.6486 38.136 54.2166 37.704 54.2166 35.4ZM70.2688 16.44C67.5328 16.104 64.0288 18.504 63.0208 21V16.392L58.2208 17.208V17.592C60.2368 17.592 60.6208 18.264 60.6208 19.944V35.928C60.6208 38.376 60.5248 38.04 58.7008 38.568V39H64.9888V38.568C63.2608 38.136 63.0208 38.568 63.0208 35.928V21.96C64.2688 18.408 68.8288 16.632 68.3968 17.688C68.2528 18.12 68.2528 18.6 68.3968 19.032C68.8288 19.992 69.9328 20.424 70.8448 20.04C71.8048 19.608 72.2368 18.6 71.8528 17.64C71.5168 16.968 70.9408 16.536 70.2688 16.44ZM104.051 13.0254H104.223L111.85 39H114.557L123.107 7.99805H120.035L113.225 34.4883H113.074L105.598 7.99805H102.676L95.1777 34.4883H95.0488L88.2168 7.99805H85.166L93.6953 39H96.4238L104.051 13.0254ZM138.705 7.50391C130.068 7.50391 124.633 13.6914 124.633 23.5098C124.633 33.3281 130.068 39.4941 138.705 39.4941C147.363 39.4941 152.799 33.3281 152.799 23.5098C152.799 13.6914 147.342 7.50391 138.705 7.50391ZM138.705 10.2324C145.494 10.2324 149.791 15.3672 149.791 23.5098C149.791 31.6309 145.494 36.7656 138.705 36.7656C131.916 36.7656 127.641 31.6309 127.641 23.5098C127.641 15.3672 131.916 10.2324 138.705 10.2324ZM135.053 4.88281C136.127 4.88281 137.008 4.00195 137.008 2.90625C137.008 1.83203 136.127 0.951172 135.053 0.951172C133.979 0.951172 133.076 1.83203 133.076 2.90625C133.076 4.00195 133.979 4.88281 135.053 4.88281ZM142.357 4.88281C143.432 4.88281 144.334 4.00195 144.334 2.90625C144.334 1.83203 143.432 0.951172 142.357 0.951172C141.283 0.951172 140.402 1.83203 140.402 2.90625C140.402 4.00195 141.283 4.88281 142.357 4.88281ZM160.297 10.6191H167.967C172.479 10.6191 175.207 13.0469 175.207 17.1504C175.207 21.2969 172.586 23.7031 168.074 23.7031H160.297V10.6191ZM160.297 26.3027H168.074C168.225 26.3027 168.439 26.3027 168.547 26.3027L175.68 39H179.117L171.598 25.8301C175.744 24.7559 178.236 21.4473 178.236 17.0645C178.236 11.543 174.369 7.99805 168.311 7.99805H157.375V39H160.297V26.3027ZM185.949 39V27.9355L189.773 23.7891L202.084 39H205.844L191.836 21.7051L204.576 7.99805H200.859L186.121 24.0684H185.949V7.99805H183.027V39H185.949Z" fill="black"/>
<path d="M0.876953 43.8H72.9088V46.2H0.876953V43.8Z" fill="black"/>
</svg>
