<svg width="105" height="75" viewBox="0 0 105 75" fill="none" xmlns="http://www.w3.org/2000/svg">
<path d="M32.1674 28C27.6454 28 22.7814 25.264 22.7814 14.814C22.7814 4.402 27.6454 1.248 32.1674 1.248C36.6514 1.248 41.4774 4.402 41.4774 14.814C41.4774 25.264 36.6514 28 32.1674 28ZM32.1674 0.905998C23.8074 0.905998 20.5774 7.29 20.5774 14.814C20.5774 22.376 23.8074 28.342 32.1674 28.342C40.5274 28.342 43.7574 22.376 43.7574 14.814C43.7574 7.29 40.5274 0.905998 32.1674 0.905998ZM61.2086 25.15V10.102L57.5226 10.786V11.09C59.3086 11.09 59.3086 11.128 59.3086 13.446V23.972C58.7766 25.644 57.4466 27.354 54.7486 27.354C52.5446 27.354 50.1126 26.176 50.1126 22.566V10.102L46.1606 10.786V11.09C48.2886 11.09 48.2886 11.09 48.2886 13.712V22.68C48.2886 27.582 51.8606 28.342 54.3306 28.342C57.0666 28.342 58.8906 26.632 59.3086 24.77V27.886C59.3086 27.886 59.2706 28.494 60.1066 28.304L63.1466 27.81V27.506C61.5506 27.316 61.2086 26.974 61.2086 25.15ZM73.9167 10.14C71.7507 9.874 68.9767 11.774 68.1787 13.75V10.102L64.3787 10.748V11.052C65.9747 11.052 66.2787 11.584 66.2787 12.914V25.568C66.2787 27.506 66.2027 27.24 64.7587 27.658V28H69.7367V27.658C68.3687 27.316 68.1787 27.658 68.1787 25.568V14.51C69.1667 11.698 72.7767 10.292 72.4347 11.128C72.3207 11.47 72.3207 11.85 72.4347 12.192C72.7767 12.952 73.6507 13.294 74.3727 12.99C75.1327 12.648 75.4747 11.85 75.1707 11.09C74.9047 10.558 74.4487 10.216 73.9167 10.14ZM16.458 51.5674H16.6064L23.1934 74H25.5312L32.916 47.2256H30.2627L24.3809 70.1035H24.251L17.7939 47.2256H15.2705L8.79492 70.1035H8.68359L2.7832 47.2256H0.148438L7.51465 74H9.87109L16.458 51.5674ZM46.3867 46.7988C38.9277 46.7988 34.2334 52.1426 34.2334 60.6221C34.2334 69.1016 38.9277 74.4268 46.3867 74.4268C53.8643 74.4268 58.5586 69.1016 58.5586 60.6221C58.5586 52.1426 53.8457 46.7988 46.3867 46.7988ZM46.3867 49.1553C52.25 49.1553 55.9609 53.5898 55.9609 60.6221C55.9609 67.6357 52.25 72.0703 46.3867 72.0703C40.5234 72.0703 36.8311 67.6357 36.8311 60.6221C36.8311 53.5898 40.5234 49.1553 46.3867 49.1553ZM43.2324 44.5352C44.1602 44.5352 44.9209 43.7744 44.9209 42.8281C44.9209 41.9004 44.1602 41.1396 43.2324 41.1396C42.3047 41.1396 41.5254 41.9004 41.5254 42.8281C41.5254 43.7744 42.3047 44.5352 43.2324 44.5352ZM49.541 44.5352C50.4688 44.5352 51.248 43.7744 51.248 42.8281C51.248 41.9004 50.4688 41.1396 49.541 41.1396C48.6133 41.1396 47.8525 41.9004 47.8525 42.8281C47.8525 43.7744 48.6133 44.5352 49.541 44.5352ZM65.0342 49.4893H71.6582C75.5547 49.4893 77.9111 51.5859 77.9111 55.1299C77.9111 58.7109 75.6475 60.7891 71.751 60.7891H65.0342V49.4893ZM65.0342 63.0342H71.751C71.8809 63.0342 72.0664 63.0342 72.1592 63.0342L78.3193 74H81.2881L74.7939 62.626C78.375 61.6982 80.5273 58.8408 80.5273 55.0557C80.5273 50.2871 77.1875 47.2256 71.9551 47.2256H62.5107V74H65.0342V63.0342ZM87.1885 74V64.4443L90.4912 60.8633L101.123 74H104.37L92.2725 59.0635L103.275 47.2256H100.065L87.3369 61.1045H87.1885V47.2256H84.665V74H87.1885Z" fill="black"/>
<path d="M18.9814 31.8H76.0067V33.7H18.9814V31.8Z" fill="black"/>
</svg>
