<svg width="114" height="59" viewBox="0 0 114 59" fill="none" xmlns="http://www.w3.org/2000/svg">
<g clip-path="url(#clip0)">
<path d="M45.9349 45.1999C57.541 45.2162 68.9606 44.1613 80.4616 41.4929C90.0374 39.2712 100.504 35.8198 107.112 29.0665C111.378 24.7066 112.442 18.538 105.935 16.4551C99.2043 14.3001 91.1191 14.2958 83.7964 13.9671C75.0775 13.5759 66.4479 13.4943 57.6153 14.0642C43.0895 15.0014 28.429 17.0156 14.9053 22.8046C10.5614 24.6641 -2.07331 29.8751 3.42442 34.793C9.72656 40.4305 22.1087 42.0878 31.3697 42.7347C49.1488 43.9766 67.8259 41.4001 84.7936 35.2277" stroke="#1D1D1B" stroke-linecap="round" stroke-linejoin="round"/>
<g filter="url(#filter0_d)">
<path d="M8.39557 26.3067H9.44049C10.0801 26.3067 10.4952 26.712 10.4952 27.3126C10.4952 27.9229 10.1046 28.3087 9.44537 28.3087H8.39557V26.3067ZM8.39557 29.5342H9.30865L10.5196 32.0001H12.5313L11.1202 29.2706C11.8917 28.9337 12.3262 28.1426 12.3262 27.2784C12.3262 25.8233 11.379 24.9542 9.62115 24.9542H6.60358V32.0001H8.39557V29.5342ZM19.0538 30.5547H16.0167V29.1192H18.8731V27.8008H16.0167V26.3995H19.0538V24.9542H14.2247V32.0001H19.0538V30.5547ZM24.2921 32.1221C26.1085 32.1221 27.4073 31.0186 27.4903 29.3438H25.7667C25.6544 30.169 25.0831 30.6866 24.2969 30.6866C23.3106 30.6866 22.6954 29.8516 22.6954 28.4698C22.6954 27.1026 23.3155 26.2676 24.2921 26.2676C25.0782 26.2676 25.669 26.8145 25.7569 27.6446H27.4805C27.4268 25.9796 26.0743 24.8321 24.2921 24.8321C22.1924 24.8321 20.8692 26.1749 20.8692 28.4747C20.8692 30.7794 22.1827 32.1221 24.2921 32.1221ZM31.1221 32.0001V24.9542H29.3301V32.0001H31.1221ZM36.5557 32.0001C38.0645 32.0001 39.0167 31.2042 39.0167 29.9688C39.0167 29.0313 38.2647 28.3233 37.3126 28.2794V28.2403C38.0938 28.1329 38.6895 27.503 38.6895 26.712C38.6895 25.6231 37.8546 24.9542 36.4678 24.9542H33.1915V32.0001H36.5557ZM34.9835 26.2237H35.9942C36.5948 26.2237 36.9464 26.5167 36.9464 27.0098C36.9464 27.5176 36.5557 27.8253 35.9063 27.8253H34.9835V26.2237ZM34.9835 30.7305V28.9141H36.0381C36.7755 28.9141 37.1954 29.2364 37.1954 29.8126C37.1954 30.4083 36.7852 30.7305 36.0479 30.7305H34.9835ZM42.5655 32.0001V24.9542H40.7735V32.0001H42.5655ZM46.4268 26.3067H47.4717C48.1114 26.3067 48.5264 26.712 48.5264 27.3126C48.5264 27.9229 48.1358 28.3087 47.4766 28.3087H46.4268V26.3067ZM46.4268 29.5342H47.3399L48.5508 32.0001H50.5626L49.1514 29.2706C49.9229 28.9337 50.3575 28.1426 50.3575 27.2784C50.3575 25.8233 49.4102 24.9542 47.6524 24.9542H44.6348V32.0001H46.4268V29.5342ZM59.9063 30.5547H56.9913V24.9542H55.1993V32.0001H59.9063V30.5547ZM66.4337 30.5547H63.5186V24.9542H61.7266V32.0001H66.4337V30.5547ZM72.8878 32.0001H74.7921L72.4239 24.9542H70.2315L67.8633 32.0001H69.6895L70.1387 30.4522H72.4434L72.8878 32.0001ZM71.2715 26.4483H71.3106L72.0919 29.1631H70.4854L71.2715 26.4483ZM84.2051 32.0001V24.9542H82.1348L80.3575 29.4805H80.3184L78.5411 24.9542H76.4708V32.0001H78.0479V27.6006H78.087L79.8253 31.9268H80.8506L82.5938 27.6006H82.628V32.0001H84.2051ZM90.9034 32.0001H92.8077L90.4395 24.9542H88.2471L85.879 32.0001H87.7051L88.1544 30.4522H90.459L90.9034 32.0001ZM89.2872 26.4483H89.3262L90.1075 29.1631H88.501L89.2872 26.4483ZM94.4864 24.9542V32.0001H97.3477C99.4717 32.0001 100.727 30.6866 100.727 28.4356C100.727 26.1895 99.4766 24.9542 97.3477 24.9542H94.4864ZM96.2784 26.3995H97.1133C98.2462 26.3995 98.9053 27.1172 98.9053 28.4405C98.9053 29.8467 98.2803 30.5547 97.1133 30.5547H96.2784V26.3995ZM106.878 32.0001H108.782L106.414 24.9542H104.222L101.854 32.0001H103.68L104.129 30.4522H106.434L106.878 32.0001ZM105.262 26.4483H105.301L106.082 29.1631H104.476L105.262 26.4483Z" fill="#1D1D1B"/>
</g>
</g>
<defs>
<filter id="filter0_d" x="2.60358" y="24.8321" width="110.179" height="15.29" filterUnits="userSpaceOnUse" color-interpolation-filters="sRGB">
<feFlood flood-opacity="0" result="BackgroundImageFix"/>
<feColorMatrix in="SourceAlpha" type="matrix" values="0 0 0 0 0 0 0 0 0 0 0 0 0 0 0 0 0 0 127 0" result="hardAlpha"/>
<feOffset dy="4"/>
<feGaussianBlur stdDeviation="2"/>
<feComposite in2="hardAlpha" operator="out"/>
<feColorMatrix type="matrix" values="0 0 0 0 0 0 0 0 0 0 0 0 0 0 0 0 0 0 0.25 0"/>
<feBlend mode="normal" in2="BackgroundImageFix" result="effect1_dropShadow"/>
<feBlend mode="normal" in="SourceGraphic" in2="effect1_dropShadow" result="shape"/>
</filter>
<clipPath id="clip0">
<rect width="113.214" height="57.993" fill="white" transform="translate(0.261108 0.302612)"/>
</clipPath>
</defs>
</svg>
