<svg width="116" height="60" viewBox="0 0 116 60" fill="none" xmlns="http://www.w3.org/2000/svg">
<path d="M38.3857 32.8195C40.2021 32.8195 41.501 31.7159 41.584 30.0411H39.8604C39.748 30.8663 39.1768 31.3839 38.3906 31.3839C37.4043 31.3839 36.7891 30.549 36.7891 29.1671C36.7891 27.7999 37.4092 26.965 38.3857 26.965C39.1719 26.965 39.7627 27.5118 39.8506 28.3419H41.5742C41.5205 26.6769 40.168 25.5294 38.3857 25.5294C36.2861 25.5294 34.9629 26.8722 34.9629 29.172C34.9629 31.4767 36.2764 32.8195 38.3857 32.8195ZM47.6865 32.6974H49.5908L47.2227 25.6515H45.0303L42.6621 32.6974H44.4883L44.9375 31.1495H47.2422L47.6865 32.6974ZM46.0703 27.1456H46.1094L46.8906 29.8605H45.2842L46.0703 27.1456ZM55.9766 31.2521H53.0615V25.6515H51.2695V32.6974H55.9766V31.2521ZM62.5039 31.2521H59.5889V25.6515H57.7969V32.6974H62.5039V31.2521ZM75.002 32.6974V25.6515H72.9316L71.1543 30.1779H71.1152L69.3379 25.6515H67.2676V32.6974H68.8447V28.298H68.8838L70.6221 32.6241H71.6475L73.3906 28.298H73.4248V32.6974H75.002ZM81.8955 31.2521H78.8584V29.8165H81.7148V28.4982H78.8584V27.0968H81.8955V25.6515H77.0664V32.6974H81.8955V31.2521Z" fill="#1D1D1B"/>
<path d="M46.9348 45.8972C58.5409 45.9135 69.9604 44.8586 81.4614 42.1902C91.0373 39.9685 101.504 36.5172 108.112 29.7639C112.378 25.4039 113.441 19.2353 106.935 17.1524C100.204 14.9974 92.119 14.9931 84.7963 14.6645C76.0774 14.2732 67.4478 14.1917 58.6152 14.7615C44.0894 15.6987 29.4289 17.713 15.9051 23.502C11.5613 25.3614 -1.07343 30.5725 4.4243 35.4904C10.7264 41.1278 23.1085 42.7851 32.3696 43.432C50.1486 44.6739 68.8258 42.0974 85.7935 35.925" stroke="#1D1D1B" stroke-linecap="round" stroke-linejoin="round"/>
</svg>
