<svg width="301" height="86" viewBox="0 0 301 86" fill="none" xmlns="http://www.w3.org/2000/svg">
<path d="M19.2422 29V16.8125L29.3398 0.816406H26.293L17.9531 14.1953H17.8555L9.51562 0.816406H6.46875L16.5664 16.8125V29H19.2422ZM42.5234 0.367188C34.6719 0.367188 29.7305 5.99219 29.7305 14.918C29.7305 23.8438 34.6719 29.4492 42.5234 29.4492C50.3945 29.4492 55.3359 23.8438 55.3359 14.918C55.3359 5.99219 50.375 0.367188 42.5234 0.367188ZM42.5234 2.84766C48.6953 2.84766 52.6016 7.51562 52.6016 14.918C52.6016 22.3008 48.6953 26.9688 42.5234 26.9688C36.3516 26.9688 32.4648 22.3008 32.4648 14.918C32.4648 7.51562 36.3516 2.84766 42.5234 2.84766ZM62.1523 0.816406H59.4961V19.1562C59.4961 25.2305 63.6172 29.4492 70.3945 29.4492C77.1719 29.4492 81.3125 25.2305 81.3125 19.1562V0.816406H78.6367V19C78.6367 23.7266 75.5703 26.9688 70.3945 26.9688C65.2383 26.9688 62.1523 23.7266 62.1523 19V0.816406ZM89.2227 3.19922H96.1953C100.297 3.19922 102.777 5.40625 102.777 9.13672C102.777 12.9062 100.395 15.0938 96.293 15.0938H89.2227V3.19922ZM89.2227 17.457H96.293C96.4297 17.457 96.625 17.457 96.7227 17.457L103.207 29H106.332L99.4961 17.0273C103.266 16.0508 105.531 13.043 105.531 9.05859C105.531 4.03906 102.016 0.816406 96.5078 0.816406H86.5664V29H89.2227V17.457ZM128.285 29C134.242 29 137.816 26.0703 137.816 21.2656C137.816 17.3594 135.102 14.7227 131.195 14.2539V14.1172C134.203 13.5703 136.352 10.8945 136.352 7.76953C136.352 3.60938 133.07 0.816406 128.227 0.816406H118.09V29H128.285ZM120.746 3.17969H127.66C131.41 3.17969 133.656 4.99609 133.656 8.0625C133.656 11.3828 131.156 13.3359 126.879 13.3359H120.746V3.17969ZM120.746 26.6367V15.6406H127.562C132.426 15.6406 135.082 17.6133 135.082 21.1289C135.082 24.625 132.523 26.6367 127.914 26.6367H120.746ZM144.301 3.19922H151.273C155.375 3.19922 157.855 5.40625 157.855 9.13672C157.855 12.9062 155.473 15.0938 151.371 15.0938H144.301V3.19922ZM144.301 17.457H151.371C151.508 17.457 151.703 17.457 151.801 17.457L158.285 29H161.41L154.574 17.0273C158.344 16.0508 160.609 13.043 160.609 9.05859C160.609 4.03906 157.094 0.816406 151.586 0.816406H141.645V29H144.301V17.457ZM183.695 29H186.508L175.98 0.816406H173.324L162.777 29H165.609L168.734 20.3672H180.57L183.695 29ZM174.594 4.11719H174.711L179.77 18.0625H169.535L174.594 4.11719ZM192.25 29V5.44531H192.387L208.969 29H211.547V0.816406H208.91V24.3516H208.773L192.25 0.816406H189.613V29H192.25ZM216.84 0.816406V29H225.98C234.438 29 239.34 23.8242 239.34 14.8984C239.34 5.99219 234.418 0.816406 225.98 0.816406H216.84ZM219.516 3.23828H225.824C232.758 3.23828 236.625 7.41797 236.625 14.918C236.625 22.3984 232.758 26.5781 225.824 26.5781H219.516V3.23828ZM255.418 10.16L251.458 10.84V11.16C253.138 11.16 253.418 11.72 253.418 13.12V26.44C253.418 28.48 253.338 28.2 251.818 28.64V29H257.058V28.64C255.618 28.28 255.418 28.64 255.418 26.44V10.16ZM255.378 5.36C255.378 4.56 254.738 3.96 254.018 3.96C253.258 3.96 252.698 4.56 252.698 5.36C252.698 6.08 253.258 6.68 254.018 6.68C254.738 6.68 255.378 6.08 255.378 5.36ZM268.818 19.64L264.778 17.12C261.298 14.92 260.778 10.52 265.738 10.52C270.938 10.52 271.898 13.48 271.898 16.76H272.218V11.48C272.218 11.48 270.338 10.16 265.738 10.16C261.618 10.16 260.738 12.72 260.738 12.72C259.698 15.32 260.458 16.88 264.218 19.64L268.258 22.08C271.298 24.08 272.858 29 267.218 29C261.458 29 260.778 25.88 260.778 22.16H260.458V28C260.458 28 262.378 29.36 267.218 29.36C270.538 29.36 271.778 27.56 271.778 27.56C273.618 24.96 272.498 21.92 268.818 19.64ZM16.12 72.44V62.84C16.12 58.04 13.48 56.16 10.12 56.16C7.6 56.16 5.2 58.04 4.44 60.24V56.16L0.44 56.84V57.16C2.12 57.16 2.44 57.76 2.44 59.16V72.44C2.44 74.48 2.36 74.2 0.84 74.64V75H6.08V74.64C4.64 74.28 4.44 74.64 4.44 72.44V60.84C5.08 59.56 6.64 57.24 9.2 57.24C12.48 57.24 14.16 59.48 14.16 63V72.44C14.16 74.48 14.08 74.24 12.56 74.68V75H17.76V74.68C16.36 74.32 16.12 74.64 16.12 72.44ZM29.2709 56.16C23.1909 56.16 20.3509 60.48 20.3509 65.76C20.3509 71 23.1909 75.36 29.2709 75.36C35.3909 75.36 38.1909 71 38.1909 65.76C38.1909 60.48 35.3909 56.16 29.2709 56.16ZM29.2709 75C26.0309 75 22.6309 73 22.6309 65.76C22.6309 58.52 26.0309 56.52 29.2709 56.52C32.5109 56.52 35.8709 58.52 35.8709 65.76C35.8709 73 32.5109 75 29.2709 75ZM59.2738 56.52V56.84C62.8738 56.84 61.8338 60.24 61.8338 60.24L57.9938 72.32L52.9138 59.24C52.9138 59.24 51.7938 56.84 54.4338 56.84V56.52H48.5138V56.84C49.0738 56.92 50.0338 57.24 50.8338 59.32C50.8338 59.32 50.9938 59.68 52.2338 62.76L49.0738 72.32L43.9138 59.04C43.9138 59.04 42.9938 56.84 45.1538 56.84V56.52H39.2338V56.84C39.7938 56.92 41.0738 57.24 41.9138 59.32C41.9138 59.32 42.2338 60 48.2738 75.36H48.4738L52.4338 63.32C53.3538 65.68 54.8738 69.44 57.2338 75.36H57.3938L62.1137 60.52C63.1938 57.12 64.3538 56.84 65.6338 56.84V56.52H59.2738ZM80.3553 56.16L76.3953 56.84V57.16C78.0753 57.16 78.3553 57.72 78.3553 59.12V72.44C78.3553 74.48 78.2753 74.2 76.7553 74.64V75H81.9953V74.64C80.5553 74.28 80.3553 74.64 80.3553 72.44V56.16ZM80.3153 51.36C80.3153 50.56 79.6753 49.96 78.9553 49.96C78.1953 49.96 77.6353 50.56 77.6353 51.36C77.6353 52.08 78.1953 52.68 78.9553 52.68C79.6753 52.68 80.3153 52.08 80.3153 51.36ZM99.6356 72.44V62.84C99.6356 58.04 96.9956 56.16 93.6356 56.16C91.1156 56.16 88.7156 58.04 87.9556 60.24V56.16L83.9556 56.84V57.16C85.6356 57.16 85.9556 57.76 85.9556 59.16V72.44C85.9556 74.48 85.8756 74.2 84.3556 74.64V75H89.5956V74.64C88.1556 74.28 87.9556 74.64 87.9556 72.44V60.84C88.5956 59.56 90.1556 57.24 92.7156 57.24C95.9956 57.24 97.6756 59.48 97.6756 63V72.44C97.6756 74.48 97.5956 74.24 96.0756 74.68V75H101.276V74.68C99.8756 74.32 99.6356 74.64 99.6356 72.44ZM131.881 56.68C131.561 56.24 131.001 56.04 130.441 56.04C129.481 56.04 127.921 56.72 127.001 58.12C125.681 56.92 123.561 56.16 121.441 56.16C117.121 56.16 114.161 59.16 114.161 62.4C114.161 64.52 114.961 66.8 117.201 67.8C113.641 68.48 113.921 71.56 113.921 71.56C113.921 72.64 114.201 73.72 115.441 74.32C112.521 76.28 111.401 79 112.961 81.52C114.681 84.32 120.001 85.12 125.321 82.12C129.521 79.76 129.601 76.88 129.601 76.88C130.241 72.44 125.241 73.04 122.481 73.04H118.481C113.241 73.04 114.841 68.12 117.481 67.96C118.601 68.44 119.881 68.68 121.441 68.68C125.841 68.68 128.761 65.64 128.761 62.4C128.761 60.96 128.241 59.32 127.201 58.32C127.961 57.04 129.521 56.92 129.401 57.24C129.281 57.6 129.361 58 129.601 58.32C130.001 58.96 130.881 59.04 131.521 58.6C132.121 58.16 132.281 57.32 131.881 56.68ZM115.761 74.52C117.001 74.96 118.521 75 118.961 75H124.601C128.561 75 128.481 76.92 128.481 76.92C128.481 76.92 128.721 79.52 125.121 81.8C121.761 83.96 116.601 82.88 115.041 81.04C115.201 81.2 111.841 77.44 115.761 74.52ZM121.441 68.36C119.681 68.36 116.441 66.88 116.441 62.4C116.441 57.92 119.441 56.52 121.441 56.52C123.161 56.52 126.481 57.92 126.481 62.4C126.481 66.88 123.281 68.36 121.441 68.36ZM142.747 56.16C136.668 56.16 133.828 60.48 133.828 65.76C133.828 71 136.668 75.36 142.747 75.36C148.868 75.36 151.668 71 151.668 65.76C151.668 60.48 148.868 56.16 142.747 56.16ZM142.747 75C139.508 75 136.108 73 136.108 65.76C136.108 58.52 139.508 56.52 142.747 56.52C145.988 56.52 149.348 58.52 149.348 65.76C149.348 73 145.988 75 142.747 75ZM164.115 56.16C158.035 56.16 155.195 60.48 155.195 65.76C155.195 71 158.035 75.36 164.115 75.36C170.235 75.36 173.035 71 173.035 65.76C173.035 60.48 170.235 56.16 164.115 56.16ZM164.115 75C160.875 75 157.475 73 157.475 65.76C157.475 58.52 160.875 56.52 164.115 56.52C167.355 56.52 170.715 58.52 170.715 65.76C170.715 73 167.355 75 164.115 75ZM190.482 69.8C190.482 72.6 188.162 74.44 185.602 74.44C181.882 74.44 179.162 71.04 179.162 64.8C179.162 58.04 183.202 56.52 185.602 56.52C188.162 56.52 190.482 58.72 190.482 61.44V69.8ZM192.442 72.6V45.8L188.442 46.48V46.84C190.082 46.84 190.482 47.52 190.482 48.92V57.88C189.162 56.84 187.522 56.16 185.442 56.16C180.362 56.16 176.522 59.56 176.522 65.56C176.522 70.4 178.642 75.36 184.842 75.36C186.922 75.36 189.282 74.4 190.482 72.68V74.6C190.482 74.6 190.482 75.52 191.602 75.32L194.482 74.72V74.4C192.882 74.56 192.442 74.56 192.442 72.6ZM220.777 72.44V62.84C220.777 58.04 218.137 56.16 214.777 56.16C212.017 56.16 209.417 58.44 208.937 60.88V45.8L204.937 46.48V46.84C206.617 46.84 206.937 47.4 206.937 48.8V72.44C206.937 74.48 206.857 74.2 205.337 74.64V75H210.577V74.64C209.137 74.28 208.937 74.64 208.937 72.44V61.24C209.377 60.12 211.017 57.24 213.857 57.24C217.137 57.24 218.817 59.48 218.817 63V72.44C218.817 74.48 218.737 74.24 217.217 74.68V75H222.417V74.68C221.017 74.32 220.777 74.64 220.777 72.44ZM234.962 71.28C234.522 72.24 233.442 74.2 230.602 74.2C228.322 74.2 226.882 72.88 226.882 70.56C226.882 67.76 229.642 66.12 234.962 64.8V71.28ZM238.802 74.04C237.122 74.04 237.122 71.8 237.122 71.8V64.16C237.122 59.4 236.202 56.16 232.722 56.16C232.722 56.16 230.842 56.12 229.202 56.92C227.082 58.08 226.282 59.4 226.082 59.88C225.882 60.36 226.002 60.96 226.362 61.4C226.882 62.04 227.762 62.08 228.362 61.56C228.962 61 229.042 60.08 228.522 59.48C228.242 59.16 227.922 59.04 227.562 58.96C227.362 58.92 227.682 58.04 229.522 57.16C233.162 55.64 234.962 58.2 234.962 62.28V64.44C228.282 66.2 224.882 67.56 224.882 71.2C224.882 75.4 229.402 75.36 229.402 75.36C232.162 75.36 234.442 73.96 234.962 71.88C234.962 75.56 237.722 75.36 237.722 75.36C239.402 75.36 240.242 73.92 240.442 72.76L240.122 72.64C239.842 74.04 238.802 74.04 238.802 74.04ZM257.175 72.44V62.84C257.175 58.04 254.535 56.16 251.175 56.16C248.655 56.16 246.255 58.04 245.495 60.24V56.16L241.495 56.84V57.16C243.175 57.16 243.495 57.76 243.495 59.16V72.44C243.495 74.48 243.415 74.2 241.895 74.64V75H247.135V74.64C245.695 74.28 245.495 74.64 245.495 72.44V60.84C246.135 59.56 247.695 57.24 250.255 57.24C253.535 57.24 255.215 59.48 255.215 63V72.44C255.215 74.48 255.135 74.24 253.615 74.68V75H258.815V74.68C257.415 74.32 257.175 74.64 257.175 72.44ZM275.326 69.8C275.326 72.6 273.006 74.44 270.446 74.44C266.726 74.44 264.006 71.04 264.006 64.8C264.006 58.04 268.046 56.52 270.446 56.52C273.006 56.52 275.326 58.72 275.326 61.44V69.8ZM277.286 72.6V45.8L273.286 46.48V46.84C274.926 46.84 275.326 47.52 275.326 48.92V57.88C274.006 56.84 272.366 56.16 270.286 56.16C265.206 56.16 261.366 59.56 261.366 65.56C261.366 70.4 263.486 75.36 269.686 75.36C271.766 75.36 274.126 74.4 275.326 72.68V74.6C275.326 74.6 275.326 75.52 276.446 75.32L279.326 74.72V74.4C277.726 74.56 277.286 74.56 277.286 72.6ZM289.967 65.64L285.927 63.12C282.447 60.92 281.927 56.52 286.887 56.52C292.087 56.52 293.047 59.48 293.047 62.76H293.367V57.48C293.367 57.48 291.487 56.16 286.887 56.16C282.767 56.16 281.887 58.72 281.887 58.72C280.847 61.32 281.607 62.88 285.367 65.64L289.407 68.08C292.447 70.08 294.007 75 288.367 75C282.607 75 281.927 71.88 281.927 68.16H281.607V74C281.607 74 283.527 75.36 288.367 75.36C291.687 75.36 292.927 73.56 292.927 73.56C294.767 70.96 293.647 67.92 289.967 65.64ZM300.506 73.88C300.506 73.08 299.866 72.48 299.146 72.48C298.386 72.48 297.826 73.08 297.826 73.88C297.826 74.6 298.386 75.2 299.146 75.2C299.866 75.2 300.506 74.6 300.506 73.88Z" fill="white"/>
</svg>
