<svg width="227" height="122" viewBox="0 0 227 122" fill="none" xmlns="http://www.w3.org/2000/svg">
<path d="M18.7148 29V3.23828H28.0312V0.816406H6.74219V3.23828H16.0391V29H18.7148ZM34.0664 0.816406H31.4102V19.1562C31.4102 25.2305 35.5312 29.4492 42.3086 29.4492C49.0859 29.4492 53.2266 25.2305 53.2266 19.1562V0.816406H50.5508V19C50.5508 23.7266 47.4844 26.9688 42.3086 26.9688C37.1523 26.9688 34.0664 23.7266 34.0664 19V0.816406ZM93.832 29V0.816406H90.7461L80.3164 25.4844H80.1992L69.75 0.816406H66.6836V29H69.1836V5.875H69.3008L79.0859 28.8633H81.4102L91.2148 5.875H91.332V29H93.832ZM117.836 29H120.648L110.121 0.816406H107.465L96.918 29H99.75L102.875 20.3672H114.711L117.836 29ZM108.734 4.11719H108.852L113.91 18.0625H103.676L108.734 4.11719ZM126.41 3.19922H133.383C137.484 3.19922 139.965 5.40625 139.965 9.13672C139.965 12.9062 137.582 15.0938 133.48 15.0938H126.41V3.19922ZM126.41 17.457H133.48C133.617 17.457 133.812 17.457 133.91 17.457L140.395 29H143.52L136.684 17.0273C140.453 16.0508 142.719 13.043 142.719 9.05859C142.719 4.03906 139.203 0.816406 133.695 0.816406H123.754V29H126.41V17.457ZM158.5 29.4492C164.613 29.4492 168.93 26.1484 169.926 20.6602H167.25C166.41 24.5664 163.012 26.9688 158.52 26.9688C152.523 26.9688 148.676 22.2617 148.676 14.8398C148.676 7.51562 152.523 2.84766 158.5 2.84766C162.875 2.84766 166.469 5.69922 167.25 9.76172H169.926C169.164 4.25391 164.457 0.367188 158.5 0.367188C150.844 0.367188 145.941 6.01172 145.941 14.8398C145.941 23.7656 150.824 29.4492 158.5 29.4492ZM192.602 29H195.414L184.887 0.816406H182.23L171.684 29H174.516L177.641 20.3672H189.477L192.602 29ZM183.5 4.11719H183.617L188.676 18.0625H178.441L183.5 4.11719ZM16.48 72.44V62.84C16.48 58.04 13.84 56.16 10.48 56.16C7.72 56.16 5.12 58.44 4.64 60.88V45.8L0.64 46.48V46.84C2.32 46.84 2.64 47.4 2.64 48.8V72.44C2.64 74.48 2.56 74.2 1.04 74.64V75H6.28V74.64C4.84 74.28 4.64 74.64 4.64 72.44V61.24C5.08 60.12 6.72 57.24 9.56 57.24C12.84 57.24 14.52 59.48 14.52 63V72.44C14.52 74.48 14.44 74.24 12.92 74.68V75H18.12V74.68C16.72 74.32 16.48 74.64 16.48 72.44ZM30.6653 71.28C30.2253 72.24 29.1453 74.2 26.3053 74.2C24.0253 74.2 22.5853 72.88 22.5853 70.56C22.5853 67.76 25.3453 66.12 30.6653 64.8V71.28ZM34.5053 74.04C32.8253 74.04 32.8253 71.8 32.8253 71.8V64.16C32.8253 59.4 31.9053 56.16 28.4253 56.16C28.4253 56.16 26.5453 56.12 24.9053 56.92C22.7853 58.08 21.9853 59.4 21.7853 59.88C21.5853 60.36 21.7053 60.96 22.0653 61.4C22.5853 62.04 23.4653 62.08 24.0653 61.56C24.6653 61 24.7453 60.08 24.2253 59.48C23.9453 59.16 23.6253 59.04 23.2653 58.96C23.0653 58.92 23.3853 58.04 25.2253 57.16C28.8653 55.64 30.6653 58.2 30.6653 62.28V64.44C23.9853 66.2 20.5853 67.56 20.5853 71.2C20.5853 75.4 25.1053 75.36 25.1053 75.36C27.8653 75.36 30.1453 73.96 30.6653 71.88C30.6653 75.56 33.4253 75.36 33.4253 75.36C35.1053 75.36 35.9453 73.92 36.1453 72.76L35.8253 72.64C35.5453 74.04 34.5053 74.04 34.5053 74.04ZM51.0919 45.8L47.0919 46.48V46.84C48.7719 46.84 49.0919 47.4 49.0919 48.8V72.44C49.0919 74.48 49.0119 74.2 47.4919 74.64V75H52.7319V74.64C51.2919 74.28 51.0919 74.64 51.0919 72.44V45.8ZM58.9825 45.8L54.9825 46.48V46.84C56.6625 46.84 56.9825 47.4 56.9825 48.8V72.44C56.9825 74.48 56.9025 74.2 55.3825 74.64V75H60.6225V74.64C59.1825 74.28 58.9825 74.64 58.9825 72.44V45.8ZM72.1931 74.56C68.5931 74.56 65.7931 72.24 65.7931 65.4H78.6331C78.6331 59.04 74.9931 56.16 71.4731 56.16C67.1131 56.16 63.4331 59.8 63.4331 66C63.4331 71.88 66.9531 75.36 71.6731 75.36C75.7531 75.36 77.8331 72.08 78.0331 70.4L77.7931 70.36C77.3131 72.44 74.8731 74.56 72.1931 74.56ZM65.7931 65C65.7931 58.8 69.2331 56.52 71.4731 56.52C73.0731 56.52 76.6331 58.4 76.6331 65H65.7931ZM100.474 56.68C100.154 56.24 99.5944 56.04 99.0344 56.04C98.0744 56.04 96.5144 56.72 95.5944 58.12C94.2744 56.92 92.1544 56.16 90.0344 56.16C85.7144 56.16 82.7544 59.16 82.7544 62.4C82.7544 64.52 83.5544 66.8 85.7944 67.8C82.2344 68.48 82.5144 71.56 82.5144 71.56C82.5144 72.64 82.7944 73.72 84.0344 74.32C81.1144 76.28 79.9944 79 81.5544 81.52C83.2744 84.32 88.5944 85.12 93.9144 82.12C98.1144 79.76 98.1944 76.88 98.1944 76.88C98.8344 72.44 93.8344 73.04 91.0744 73.04H87.0744C81.8344 73.04 83.4344 68.12 86.0744 67.96C87.1944 68.44 88.4744 68.68 90.0344 68.68C94.4344 68.68 97.3544 65.64 97.3544 62.4C97.3544 60.96 96.8344 59.32 95.7944 58.32C96.5544 57.04 98.1144 56.92 97.9944 57.24C97.8744 57.6 97.9544 58 98.1944 58.32C98.5944 58.96 99.4744 59.04 100.114 58.6C100.714 58.16 100.874 57.32 100.474 56.68ZM84.3544 74.52C85.5944 74.96 87.1144 75 87.5544 75H93.1944C97.1544 75 97.0744 76.92 97.0744 76.92C97.0744 76.92 97.3144 79.52 93.7144 81.8C90.3544 83.96 85.1944 82.88 83.6344 81.04C83.7944 81.2 80.4344 77.44 84.3544 74.52ZM90.0344 68.36C88.2744 68.36 85.0344 66.88 85.0344 62.4C85.0344 57.92 88.0344 56.52 90.0344 56.52C91.7544 56.52 95.0744 57.92 95.0744 62.4C95.0744 66.88 91.8744 68.36 90.0344 68.36ZM112.501 71.28C112.061 72.24 110.981 74.2 108.141 74.2C105.861 74.2 104.421 72.88 104.421 70.56C104.421 67.76 107.181 66.12 112.501 64.8V71.28ZM116.341 74.04C114.661 74.04 114.661 71.8 114.661 71.8V64.16C114.661 59.4 113.741 56.16 110.261 56.16C110.261 56.16 108.381 56.12 106.741 56.92C104.621 58.08 103.821 59.4 103.621 59.88C103.421 60.36 103.541 60.96 103.901 61.4C104.421 62.04 105.301 62.08 105.901 61.56C106.501 61 106.581 60.08 106.061 59.48C105.781 59.16 105.461 59.04 105.101 58.96C104.901 58.92 105.221 58.04 107.061 57.16C110.701 55.64 112.501 58.2 112.501 62.28V64.44C105.821 66.2 102.421 67.56 102.421 71.2C102.421 75.4 106.941 75.36 106.941 75.36C109.701 75.36 111.981 73.96 112.501 71.88C112.501 75.56 115.261 75.36 115.261 75.36C116.941 75.36 117.781 73.92 117.981 72.76L117.661 72.64C117.381 74.04 116.341 74.04 116.341 74.04ZM134.154 69.8C134.154 72.6 131.834 74.44 129.274 74.44C125.554 74.44 122.834 71.04 122.834 64.8C122.834 58.04 126.874 56.52 129.274 56.52C131.834 56.52 134.154 58.72 134.154 61.44V69.8ZM136.114 72.6V45.8L132.114 46.48V46.84C133.754 46.84 134.154 47.52 134.154 48.92V57.88C132.834 56.84 131.194 56.16 129.114 56.16C124.034 56.16 120.194 59.56 120.194 65.56C120.194 70.4 122.314 75.36 128.514 75.36C130.594 75.36 132.954 74.4 134.154 72.68V74.6C134.154 74.6 134.154 75.52 135.274 75.32L138.154 74.72V74.4C136.554 74.56 136.114 74.56 136.114 72.6ZM149.115 56.16C143.035 56.16 140.195 60.48 140.195 65.76C140.195 71 143.035 75.36 149.115 75.36C155.235 75.36 158.035 71 158.035 65.76C158.035 60.48 155.235 56.16 149.115 56.16ZM149.115 75C145.875 75 142.475 73 142.475 65.76C142.475 58.52 145.875 56.52 149.115 56.52C152.355 56.52 155.715 58.52 155.715 65.76C155.715 73 152.355 75 149.115 75ZM181.056 71.28C180.616 72.24 179.536 74.2 176.696 74.2C174.416 74.2 172.976 72.88 172.976 70.56C172.976 67.76 175.736 66.12 181.056 64.8V71.28ZM184.896 74.04C183.216 74.04 183.216 71.8 183.216 71.8V64.16C183.216 59.4 182.296 56.16 178.816 56.16C178.816 56.16 176.936 56.12 175.296 56.92C173.176 58.08 172.376 59.4 172.176 59.88C171.976 60.36 172.096 60.96 172.456 61.4C172.976 62.04 173.856 62.08 174.456 61.56C175.056 61 175.136 60.08 174.616 59.48C174.336 59.16 174.016 59.04 173.656 58.96C173.456 58.92 173.776 58.04 175.616 57.16C179.256 55.64 181.056 58.2 181.056 62.28V64.44C174.376 66.2 170.976 67.56 170.976 71.2C170.976 75.4 175.496 75.36 175.496 75.36C178.256 75.36 180.536 73.96 181.056 71.88C181.056 75.56 183.816 75.36 183.816 75.36C185.496 75.36 186.336 73.92 186.536 72.76L186.216 72.64C185.936 74.04 184.896 74.04 184.896 74.04ZM9.6 121C6.48 121 4.56 118.68 4.56 115.44V108.4C4.56 105.12 6.52 103.08 9.6 103.08C13.32 103.08 16 106.48 16 112.6C16 119.24 12 121 9.6 121ZM10.36 102.16C8.16 102.16 5.72 103.2 4.56 105.12V91.8L0.56 92.48V92.84C2.24 92.84 2.6 93.4 2.6 94.76V120.8C2.6 121.44 3.68 120.36 4.4 119.4C5.76 120.56 7.48 121.36 9.76 121.36C14.84 121.36 18.64 117.72 18.64 111.84C18.64 107.16 16.52 102.16 10.36 102.16ZM36.9106 118V102.16L33.0306 102.88V103.2C34.9106 103.2 34.9106 103.24 34.9106 105.68V116.76C34.3506 118.52 32.9506 120.32 30.1106 120.32C27.7906 120.32 25.2306 119.08 25.2306 115.28V102.16L21.0706 102.88V103.2C23.3106 103.2 23.3106 103.2 23.3106 105.96V115.4C23.3106 120.56 27.0706 121.36 29.6706 121.36C32.5506 121.36 34.4706 119.56 34.9106 117.6V120.88C34.9106 120.88 34.8706 121.52 35.7506 121.32L38.9506 120.8V120.48C37.2706 120.28 36.9106 119.92 36.9106 118ZM49.9275 120.56C46.3275 120.56 43.5275 118.24 43.5275 111.4H56.3675C56.3675 105.04 52.7275 102.16 49.2075 102.16C44.8475 102.16 41.1675 105.8 41.1675 112C41.1675 117.88 44.6875 121.36 49.4075 121.36C53.4875 121.36 55.5675 118.08 55.7675 116.4L55.5275 116.36C55.0475 118.44 52.6075 120.56 49.9275 120.56ZM43.5275 111C43.5275 104.8 46.9675 102.52 49.2075 102.52C50.8075 102.52 54.3675 104.4 54.3675 111H43.5275ZM74.0888 118.44V108.84C74.0888 104.04 71.4488 102.16 68.0888 102.16C65.5688 102.16 63.1688 104.04 62.4088 106.24V102.16L58.4088 102.84V103.16C60.0888 103.16 60.4088 103.76 60.4088 105.16V118.44C60.4088 120.48 60.3288 120.2 58.8088 120.64V121H64.0488V120.64C62.6088 120.28 62.4088 120.64 62.4088 118.44V106.84C63.0488 105.56 64.6088 103.24 67.1688 103.24C70.4488 103.24 72.1288 105.48 72.1288 109V118.44C72.1288 120.48 72.0488 120.24 70.5288 120.68V121H75.7288V120.68C74.3288 120.32 74.0888 120.64 74.0888 118.44ZM88.3997 117.28C87.9597 118.24 86.8797 120.2 84.0397 120.2C81.7597 120.2 80.3197 118.88 80.3197 116.56C80.3197 113.76 83.0797 112.12 88.3997 110.8V117.28ZM92.2397 120.04C90.5597 120.04 90.5597 117.8 90.5597 117.8V110.16C90.5597 105.4 89.6397 102.16 86.1597 102.16C86.1597 102.16 84.2797 102.12 82.6397 102.92C80.5197 104.08 79.7197 105.4 79.5197 105.88C79.3197 106.36 79.4397 106.96 79.7997 107.4C80.3197 108.04 81.1997 108.08 81.7997 107.56C82.3997 107 82.4797 106.08 81.9597 105.48C81.6797 105.16 81.3597 105.04 80.9997 104.96C80.7997 104.92 81.1197 104.04 82.9597 103.16C86.5997 101.64 88.3997 104.2 88.3997 108.28V110.44C81.7197 112.2 78.3197 113.56 78.3197 117.2C78.3197 121.4 82.8397 121.36 82.8397 121.36C85.5997 121.36 87.8797 119.96 88.3997 117.88C88.3997 121.56 91.1597 121.36 91.1597 121.36C92.8397 121.36 93.6797 119.92 93.8797 118.76L93.5597 118.64C93.2797 120.04 92.2397 120.04 92.2397 120.04ZM104.732 111.64L100.692 109.12C97.2122 106.92 96.6922 102.52 101.652 102.52C106.852 102.52 107.812 105.48 107.812 108.76H108.132V103.48C108.132 103.48 106.252 102.16 101.652 102.16C97.5322 102.16 96.6522 104.72 96.6522 104.72C95.6122 107.32 96.3722 108.88 100.132 111.64L104.172 114.08C107.212 116.08 108.772 121 103.132 121C97.3722 121 96.6922 117.88 96.6922 114.16H96.3722V120C96.3722 120 98.2922 121.36 103.132 121.36C106.452 121.36 107.692 119.56 107.692 119.56C109.532 116.96 108.412 113.92 104.732 111.64ZM145.446 118.44V108.84C145.446 104.04 143.406 102.16 140.006 102.16C137.406 102.16 135.326 104.16 134.686 106.48C134.126 103.4 132.286 102.16 129.486 102.16C126.966 102.16 124.886 104 124.206 106.24V102.16L120.206 102.84V103.16C121.886 103.16 122.206 103.76 122.206 105.16V118.44C122.206 120.48 122.126 120.2 120.606 120.64V121H125.846V120.64C124.406 120.28 124.206 120.64 124.206 118.44V106.84C124.766 105.56 126.006 103.24 128.566 103.24C131.886 103.24 132.926 105.48 132.926 109V118.44C132.926 120.48 132.846 120.24 131.326 120.68V121H136.526V120.68C135.126 120.32 134.886 120.64 134.886 118.44V108.84C134.886 108.12 134.846 107.44 134.766 106.88C135.286 105.6 136.566 103.24 139.126 103.24C142.406 103.24 143.486 105.48 143.486 109V118.44C143.486 120.48 143.406 120.24 141.886 120.68V121H147.086V120.68C145.686 120.32 145.446 120.64 145.446 118.44ZM159.533 117.28C159.093 118.24 158.013 120.2 155.173 120.2C152.893 120.2 151.453 118.88 151.453 116.56C151.453 113.76 154.213 112.12 159.533 110.8V117.28ZM163.373 120.04C161.693 120.04 161.693 117.8 161.693 117.8V110.16C161.693 105.4 160.773 102.16 157.293 102.16C157.293 102.16 155.413 102.12 153.773 102.92C151.653 104.08 150.853 105.4 150.653 105.88C150.452 106.36 150.573 106.96 150.933 107.4C151.453 108.04 152.333 108.08 152.933 107.56C153.533 107 153.613 106.08 153.092 105.48C152.812 105.16 152.493 105.04 152.133 104.96C151.933 104.92 152.253 104.04 154.093 103.16C157.733 101.64 159.533 104.2 159.533 108.28V110.44C152.853 112.2 149.453 113.56 149.453 117.2C149.453 121.4 153.973 121.36 153.973 121.36C156.733 121.36 159.013 119.96 159.533 117.88C159.533 121.56 162.293 121.36 162.293 121.36C163.973 121.36 164.813 119.92 165.013 118.76L164.693 118.64C164.413 120.04 163.373 120.04 163.373 120.04ZM181.745 118.44V108.84C181.745 104.04 179.105 102.16 175.745 102.16C173.225 102.16 170.825 104.04 170.065 106.24V102.16L166.065 102.84V103.16C167.745 103.16 168.065 103.76 168.065 105.16V118.44C168.065 120.48 167.985 120.2 166.465 120.64V121H171.705V120.64C170.265 120.28 170.065 120.64 170.065 118.44V106.84C170.705 105.56 172.265 103.24 174.825 103.24C178.105 103.24 179.785 105.48 179.785 109V118.44C179.785 120.48 179.705 120.24 178.185 120.68V121H183.385V120.68C181.985 120.32 181.745 120.64 181.745 118.44ZM194.896 102.16C188.816 102.16 185.976 106.48 185.976 111.76C185.976 117 188.816 121.36 194.896 121.36C201.016 121.36 203.816 117 203.816 111.76C203.816 106.48 201.016 102.16 194.896 102.16ZM194.896 121C191.656 121 188.256 119 188.256 111.76C188.256 104.52 191.656 102.52 194.896 102.52C198.136 102.52 201.496 104.52 201.496 111.76C201.496 119 198.136 121 194.896 121ZM215.943 111.64L211.903 109.12C208.423 106.92 207.903 102.52 212.863 102.52C218.063 102.52 219.023 105.48 219.023 108.76H219.343V103.48C219.343 103.48 217.463 102.16 212.863 102.16C208.743 102.16 207.863 104.72 207.863 104.72C206.823 107.32 207.583 108.88 211.343 111.64L215.383 114.08C218.423 116.08 219.983 121 214.343 121C208.583 121 207.903 117.88 207.903 114.16H207.583V120C207.583 120 209.503 121.36 214.343 121.36C217.663 121.36 218.903 119.56 218.903 119.56C220.743 116.96 219.623 113.92 215.943 111.64ZM226.483 119.88C226.483 119.08 225.843 118.48 225.123 118.48C224.363 118.48 223.803 119.08 223.803 119.88C223.803 120.6 224.363 121.2 225.123 121.2C225.843 121.2 226.483 120.6 226.483 119.88Z" fill="white"/>
</svg>
