<svg width="295" height="358" viewBox="0 0 295 358" fill="none" xmlns="http://www.w3.org/2000/svg">
<path d="M16.2364 13.376L10.6044 9.696C5.13237 6.144 9.13238 1.472 12.5884 1.472C18.1244 1.472 18.6684 3.424 18.6684 8.032H18.9884V2.656C18.9884 2.656 16.3964 1.184 12.5884 1.184C8.71638 1.184 7.14838 3.712 7.14838 3.712C4.87637 7.808 9.03638 10.4 10.5724 11.584L16.2364 15.36C19.8524 17.824 19.5964 24 13.2924 24C8.10838 24 7.08438 22.368 7.08438 16.512H6.82838V22.656C6.82838 22.656 9.10038 24.288 13.3244 24.288C18.0924 24.288 19.3084 21.664 19.3084 21.664C20.2684 19.872 20.5884 16.256 16.2364 13.376ZM29.9636 8.928C25.0996 8.928 22.8276 12.384 22.8276 16.608C22.8276 20.8 25.0996 24.288 29.9636 24.288C34.8596 24.288 37.0996 20.8 37.0996 16.608C37.0996 12.384 34.8596 8.928 29.9636 8.928ZM29.9636 24C27.3716 24 24.6516 22.4 24.6516 16.608C24.6516 10.816 27.3716 9.216 29.9636 9.216C32.5556 9.216 35.2436 10.816 35.2436 16.608C35.2436 22.4 32.5556 24 29.9636 24ZM59.1534 21.952V14.272C59.1534 10.432 57.5214 8.928 54.8014 8.928C52.7214 8.928 51.0574 10.528 50.5454 12.384C50.0974 9.92 48.6254 8.928 46.3854 8.928C44.3694 8.928 42.7054 10.4 42.1614 12.192V8.928L38.9614 9.472V9.728C40.3054 9.728 40.5614 10.208 40.5614 11.328V21.952C40.5614 23.584 40.4974 23.36 39.2814 23.712V24H43.4734V23.712C42.3214 23.424 42.1614 23.712 42.1614 21.952V12.672C42.6094 11.648 43.6014 9.792 45.6494 9.792C48.3054 9.792 49.1374 11.584 49.1374 14.4V21.952C49.1374 23.584 49.0734 23.392 47.8574 23.744V24H52.0174V23.744C50.8974 23.456 50.7054 23.712 50.7054 21.952V14.272C50.7054 13.696 50.6734 13.152 50.6094 12.704C51.0254 11.68 52.0494 9.792 54.0974 9.792C56.7214 9.792 57.5854 11.584 57.5854 14.4V21.952C57.5854 23.584 57.5214 23.392 56.3054 23.744V24H60.4654V23.744C59.3454 23.456 59.1534 23.712 59.1534 21.952ZM69.4949 8.928C64.6309 8.928 62.3589 12.384 62.3589 16.608C62.3589 20.8 64.6309 24.288 69.4949 24.288C74.3909 24.288 76.6309 20.8 76.6309 16.608C76.6309 12.384 74.3909 8.928 69.4949 8.928ZM69.4949 24C66.9029 24 64.1829 22.4 64.1829 16.608C64.1829 10.816 66.9029 9.216 69.4949 9.216C72.0869 9.216 74.7749 10.816 74.7749 16.608C74.7749 22.4 72.0869 24 69.4949 24ZM86.3326 16.512L83.1006 14.496C80.3166 12.736 79.9006 9.216 83.8686 9.216C88.0286 9.216 88.7966 11.584 88.7966 14.208H89.0526V9.984C89.0526 9.984 87.5486 8.928 83.8686 8.928C80.5726 8.928 79.8686 10.976 79.8686 10.976C79.0366 13.056 79.6446 14.304 82.6526 16.512L85.8846 18.464C88.3166 20.064 89.5646 24 85.0526 24C80.4446 24 79.9006 21.504 79.9006 18.528H79.6446V23.2C79.6446 23.2 81.1806 24.288 85.0526 24.288C87.7086 24.288 88.7006 22.848 88.7006 22.848C90.1726 20.768 89.2766 18.336 86.3326 16.512ZM102.594 1.45312H100.469V16.125C100.469 20.9844 103.766 24.3594 109.188 24.3594C114.609 24.3594 117.922 20.9844 117.922 16.125V1.45312H115.781V16C115.781 19.7812 113.328 22.375 109.188 22.375C105.062 22.375 102.594 19.7812 102.594 16V1.45312ZM124.234 24V5.15625H124.344L137.609 24H139.672V1.45312H137.562V20.2812H137.453L124.234 1.45312H122.125V24H124.234ZM164.078 22.0625H152.594V13.4062H163.5V11.5H152.594V3.39062H164.078V1.45312H150.469V24H164.078V22.0625ZM177.047 24.3594C178.609 24.3594 180 24.0781 181.25 23.5469L183.516 26.6406H185.922L182.984 22.6094C185.734 20.6562 187.297 17.2031 187.297 12.7344C187.297 5.59375 183.328 1.09375 177.047 1.09375C170.766 1.09375 166.812 5.59375 166.812 12.7344C166.812 19.875 170.75 24.3594 177.047 24.3594ZM177.047 22.375C172.125 22.375 169 18.6406 169 12.7344C169 6.8125 172.109 3.07812 177.047 3.07812C181.984 3.07812 185.094 6.8125 185.094 12.7344C185.094 16.4062 183.891 19.2812 181.734 20.8906L179.5 17.8281H177.094L180.016 21.8438C179.125 22.1875 178.125 22.375 177.047 22.375ZM192.75 1.45312H190.625V16.125C190.625 20.9844 193.922 24.3594 199.344 24.3594C204.766 24.3594 208.078 20.9844 208.078 16.125V1.45312H205.938V16C205.938 19.7812 203.484 22.375 199.344 22.375C195.219 22.375 192.75 19.7812 192.75 16V1.45312ZM214.406 24V1.45312H212.281V24H214.406ZM218.625 1.45312V24H220.75V15.5H226.281C230.578 15.5 233.531 12.6562 233.531 8.46875C233.531 4.28125 230.609 1.45312 226.297 1.45312H218.625ZM220.75 3.35938H225.797C229.281 3.35938 231.344 5.26562 231.344 8.46875C231.344 11.6719 229.266 13.5938 225.797 13.5938H220.75V3.35938ZM245.922 1.09375C239.641 1.09375 235.688 5.59375 235.688 12.7344C235.688 19.875 239.641 24.3594 245.922 24.3594C252.219 24.3594 256.172 19.875 256.172 12.7344C256.172 5.59375 252.203 1.09375 245.922 1.09375ZM245.922 3.07812C250.859 3.07812 253.984 6.8125 253.984 12.7344C253.984 18.6406 250.859 22.375 245.922 22.375C240.984 22.375 237.875 18.6406 237.875 12.7344C237.875 6.8125 240.984 3.07812 245.922 3.07812ZM277.37 19.84C277.37 22.08 275.514 23.552 273.466 23.552C270.49 23.552 268.314 20.832 268.314 15.84C268.314 10.432 271.546 9.216 273.466 9.216C275.514 9.216 277.37 10.976 277.37 13.152V19.84ZM278.938 22.08V0.639999L275.738 1.184V1.472C277.05 1.472 277.37 2.016 277.37 3.136V10.304C276.314 9.472 275.002 8.928 273.338 8.928C269.274 8.928 266.202 11.648 266.202 16.448C266.202 20.32 267.898 24.288 272.858 24.288C274.522 24.288 276.41 23.52 277.37 22.144V23.68C277.37 23.68 277.37 24.416 278.266 24.256L280.57 23.776V23.52C279.29 23.648 278.938 23.648 278.938 22.08ZM289.083 23.648C286.203 23.648 283.963 21.792 283.963 16.32H294.235C294.235 11.232 291.323 8.928 288.507 8.928C285.019 8.928 282.075 11.84 282.075 16.8C282.075 21.504 284.891 24.288 288.667 24.288C291.931 24.288 293.595 21.664 293.755 20.32L293.563 20.288C293.179 21.952 291.227 23.648 289.083 23.648ZM283.963 16C283.963 11.04 286.715 9.216 288.507 9.216C289.787 9.216 292.635 10.72 292.635 16H283.963ZM66.9531 61.3594C71.8438 61.3594 75.2969 58.7188 76.0938 54.3281H73.9531C73.2812 57.4531 70.5625 59.375 66.9688 59.375C62.1719 59.375 59.0938 55.6094 59.0938 49.6719C59.0938 43.8125 62.1719 40.0781 66.9531 40.0781C70.4531 40.0781 73.3281 42.3594 73.9531 45.6094H76.0938C75.4844 41.2031 71.7188 38.0938 66.9531 38.0938C60.8281 38.0938 56.9062 42.6094 56.9062 49.6719C56.9062 56.8125 60.8125 61.3594 66.9531 61.3594ZM81.375 40.3594H86.9531C90.2344 40.3594 92.2188 42.125 92.2188 45.1094C92.2188 48.125 90.3125 49.875 87.0312 49.875H81.375V40.3594ZM81.375 51.7656H87.0312C87.1406 51.7656 87.2969 51.7656 87.375 51.7656L92.5625 61H95.0625L89.5938 51.4219C92.6094 50.6406 94.4219 48.2344 94.4219 45.0469C94.4219 41.0312 91.6094 38.4531 87.2031 38.4531H79.25V61H81.375V51.7656ZM111.516 59.0625H100.031V50.4062H110.938V48.5H100.031V40.3906H111.516V38.4531H97.9062V61H111.516V59.0625ZM130.141 61H132.391L123.969 38.4531H121.844L113.406 61H115.672L118.172 54.0938H127.641L130.141 61ZM122.859 41.0938H122.953L127 52.25H118.812L122.859 41.0938ZM139.75 61V40.3906H147.203V38.4531H130.172V40.3906H137.609V61H139.75ZM152.031 61V38.4531H149.906V61H152.031ZM165.062 61L173.5 38.4531H171.25L164.047 58.3438H163.953L156.766 38.4531H154.5L162.938 61H165.062ZM184.984 38.0938C178.703 38.0938 174.75 42.5938 174.75 49.7344C174.75 56.875 178.703 61.3594 184.984 61.3594C191.281 61.3594 195.234 56.875 195.234 49.7344C195.234 42.5938 191.266 38.0938 184.984 38.0938ZM184.984 40.0781C189.922 40.0781 193.047 43.8125 193.047 49.7344C193.047 55.6406 189.922 59.375 184.984 59.375C180.047 59.375 176.938 55.6406 176.938 49.7344C176.938 43.8125 180.047 40.0781 184.984 40.0781ZM197.469 54.875C197.703 58.75 201.016 61.3594 205.734 61.3594C210.719 61.3594 213.906 58.7656 213.906 54.8125C213.906 51.6719 212 49.9375 207.469 48.7969L205.031 48.1719C201.719 47.3281 200.312 46.1875 200.312 44.25C200.312 41.7656 202.625 40.0312 205.75 40.0312C208.953 40.0312 211.203 41.7188 211.406 44.2656H213.547C213.422 40.6875 210.203 38.0938 205.812 38.0938C201.375 38.0938 198.094 40.6875 198.094 44.3281C198.094 47.2969 199.953 49.0625 204.125 50.125L206.922 50.8438C210.266 51.6875 211.719 52.9375 211.719 55.0469C211.719 57.5781 209.297 59.4219 205.922 59.4219C202.391 59.4219 199.844 57.5781 199.609 54.875H197.469ZM232.693 46.216V46.472C236.405 46.408 234.517 51.656 234.517 51.656L231.957 58.984L227.413 49.16C227.413 49.16 226.037 46.472 228.501 46.472V46.216H222.805V46.472C223.317 46.536 224.533 46.792 225.301 48.456C225.301 48.456 225.557 48.712 231.221 61L229.557 65.8C229.173 66.856 228.565 67.528 228.437 66.984C228.373 66.728 228.149 66.408 227.829 66.28C227.253 66.024 226.581 66.28 226.293 66.888C226.069 67.464 226.293 68.136 226.901 68.424C227.317 68.616 227.925 68.52 228.245 68.264C228.565 68.008 229.301 67.4 229.781 65.896L234.805 51.72C236.501 46.952 237.237 46.472 238.805 46.472V46.216H232.693ZM71.1562 96.0625H59.6719V87.4062H70.5781V85.5H59.6719V77.3906H71.1562V75.4531H57.5469V98H71.1562V96.0625ZM73.3594 91.875C73.5938 95.75 76.9062 98.3594 81.625 98.3594C86.6094 98.3594 89.7969 95.7656 89.7969 91.8125C89.7969 88.6719 87.8906 86.9375 83.3594 85.7969L80.9219 85.1719C77.6094 84.3281 76.2031 83.1875 76.2031 81.25C76.2031 78.7656 78.5156 77.0312 81.6406 77.0312C84.8438 77.0312 87.0938 78.7188 87.2969 81.2656H89.4375C89.3125 77.6875 86.0938 75.0938 81.7031 75.0938C77.2656 75.0938 73.9844 77.6875 73.9844 81.3281C73.9844 84.2969 75.8438 86.0625 80.0156 87.125L82.8125 87.8438C86.1562 88.6875 87.6094 89.9375 87.6094 92.0469C87.6094 94.5781 85.1875 96.4219 81.8125 96.4219C78.2812 96.4219 75.7344 94.5781 75.5 91.875H73.3594ZM100.828 98V77.3906H108.281V75.4531H91.25V77.3906H98.6875V98H100.828ZM113.109 77.3594H118.688C121.969 77.3594 123.953 79.125 123.953 82.1094C123.953 85.125 122.047 86.875 118.766 86.875H113.109V77.3594ZM113.109 88.7656H118.766C118.875 88.7656 119.031 88.7656 119.109 88.7656L124.297 98H126.797L121.328 88.4219C124.344 87.6406 126.156 85.2344 126.156 82.0469C126.156 78.0312 123.344 75.4531 118.938 75.4531H110.984V98H113.109V88.7656ZM144.625 98H146.875L138.453 75.4531H136.328L127.891 98H130.156L132.656 91.0938H142.125L144.625 98ZM137.344 78.0938H137.438L141.484 89.25H133.297L137.344 78.0938ZM154.234 98V77.3906H161.688V75.4531H144.656V77.3906H152.094V98H154.234ZM178 96.0625H166.516V87.4062H177.422V85.5H166.516V77.3906H178V75.4531H164.391V98H178V96.0625ZM200.219 88.8438V86.6719H191.094V88.5469H198.094V89.3438C198.094 93.5938 195.219 96.375 190.859 96.375C186.031 96.375 182.922 92.5469 182.922 86.5938C182.922 80.7188 185.969 77.0781 190.859 77.0781C194.297 77.0781 196.938 79.0156 197.859 82.2344H200.078C199.234 77.9219 195.594 75.0938 190.859 75.0938C184.703 75.0938 180.734 79.6094 180.734 86.5938C180.734 93.7031 184.75 98.3594 190.859 98.3594C196.719 98.3594 200.219 94.7969 200.219 88.8438ZM218.469 98H220.719L212.297 75.4531H210.172L201.734 98H204L206.5 91.0938H215.969L218.469 98ZM211.188 78.0938H211.281L215.328 89.25H207.141L211.188 78.0938ZM222.109 91.875C222.344 95.75 225.656 98.3594 230.375 98.3594C235.359 98.3594 238.547 95.7656 238.547 91.8125C238.547 88.6719 236.641 86.9375 232.109 85.7969L229.672 85.1719C226.359 84.3281 224.953 83.1875 224.953 81.25C224.953 78.7656 227.266 77.0312 230.391 77.0312C233.594 77.0312 235.844 78.7188 236.047 81.2656H238.188C238.062 77.6875 234.844 75.0938 230.453 75.0938C226.016 75.0938 222.734 77.6875 222.734 81.3281C222.734 84.2969 224.594 86.0625 228.766 87.125L231.562 87.8438C234.906 88.6875 236.359 89.9375 236.359 92.0469C236.359 94.5781 233.938 96.4219 230.562 96.4219C227.031 96.4219 224.484 94.5781 224.25 91.875H222.109ZM56.0655 119.928L52.8975 120.472V120.728C54.2415 120.728 54.4655 121.176 54.4655 122.296V132.952C54.4655 134.584 54.4015 134.36 53.1855 134.712V135H57.3775V134.712C56.2255 134.424 56.0655 134.712 56.0655 132.952V119.928ZM56.0335 116.088C56.0335 115.448 55.5215 114.968 54.9455 114.968C54.3375 114.968 53.8895 115.448 53.8895 116.088C53.8895 116.664 54.3375 117.144 54.9455 117.144C55.5215 117.144 56.0335 116.664 56.0335 116.088ZM71.4898 132.952V125.272C71.4898 121.432 69.3778 119.928 66.6898 119.928C64.6738 119.928 62.7538 121.432 62.1458 123.192V119.928L58.9458 120.472V120.728C60.2898 120.728 60.5458 121.208 60.5458 122.328V132.952C60.5458 134.584 60.4818 134.36 59.2658 134.712V135H63.4578V134.712C62.3058 134.424 62.1458 134.712 62.1458 132.952V123.672C62.6578 122.648 63.9058 120.792 65.9538 120.792C68.5778 120.792 69.9218 122.584 69.9218 125.4V132.952C69.9218 134.584 69.8578 134.392 68.6418 134.744V135H72.8018V134.744C71.6818 134.456 71.4898 134.712 71.4898 132.952ZM86.0105 130.84C86.0105 133.08 84.1545 134.552 82.1065 134.552C79.1305 134.552 76.9545 131.832 76.9545 126.84C76.9545 121.432 80.1865 120.216 82.1065 120.216C84.1545 120.216 86.0105 121.976 86.0105 124.152V130.84ZM87.5785 133.08V111.64L84.3785 112.184V112.472C85.6905 112.472 86.0105 113.016 86.0105 114.136V121.304C84.9545 120.472 83.6425 119.928 81.9785 119.928C77.9145 119.928 74.8425 122.648 74.8425 127.448C74.8425 131.32 76.5385 135.288 81.4985 135.288C83.1625 135.288 85.0505 134.52 86.0105 133.144V134.68C86.0105 134.68 86.0105 135.416 86.9065 135.256L89.2105 134.776V134.52C87.9305 134.648 87.5785 134.648 87.5785 133.08ZM97.7233 134.648C94.8433 134.648 92.6033 132.792 92.6033 127.32H102.875C102.875 122.232 99.9633 119.928 97.1473 119.928C93.6593 119.928 90.7153 122.84 90.7153 127.8C90.7153 132.504 93.5312 135.288 97.3073 135.288C100.571 135.288 102.235 132.664 102.395 131.32L102.203 131.288C101.819 132.952 99.8673 134.648 97.7233 134.648ZM92.6033 127C92.6033 122.04 95.3553 120.216 97.1473 120.216C98.4273 120.216 101.275 121.72 101.275 127H92.6033ZM111.932 135C109.532 135 107.996 133.304 107.9 130.84V124.664C108.028 122.2 109.564 120.664 111.932 120.664C114.876 120.664 117.052 123.352 117.052 128.344C117.052 133.752 113.852 135 111.932 135ZM112.54 119.928C110.78 119.928 108.828 120.792 107.9 122.296V119.928L104.7 120.472V120.728C106.044 120.728 106.3 121.208 106.3 122.328V141.432C106.3 143.064 106.236 142.84 105.02 143.192V143.48H109.212V143.192C108.06 142.904 107.9 143.192 107.9 141.432V133.848C108.956 134.712 110.3 135.288 112.06 135.288C116.124 135.288 119.164 132.536 119.164 127.736C119.164 123.896 117.468 119.928 112.54 119.928ZM128.911 134.648C126.031 134.648 123.791 132.792 123.791 127.32H134.063C134.063 122.232 131.151 119.928 128.335 119.928C124.847 119.928 121.903 122.84 121.903 127.8C121.903 132.504 124.719 135.288 128.495 135.288C131.759 135.288 133.423 132.664 133.583 131.32L133.391 131.288C133.007 132.952 131.055 134.648 128.911 134.648ZM123.791 127C123.791 122.04 126.543 120.216 128.335 120.216C129.615 120.216 132.463 121.72 132.463 127H123.791ZM148.24 132.952V125.272C148.24 121.432 146.128 119.928 143.44 119.928C141.424 119.928 139.504 121.432 138.896 123.192V119.928L135.696 120.472V120.728C137.04 120.728 137.296 121.208 137.296 122.328V132.952C137.296 134.584 137.232 134.36 136.016 134.712V135H140.208V134.712C139.056 134.424 138.896 134.712 138.896 132.952V123.672C139.408 122.648 140.656 120.792 142.704 120.792C145.328 120.792 146.672 122.584 146.672 125.4V132.952C146.672 134.584 146.608 134.392 145.392 134.744V135H149.552V134.744C148.432 134.456 148.24 134.712 148.24 132.952ZM162.761 130.84C162.761 133.08 160.905 134.552 158.857 134.552C155.881 134.552 153.705 131.832 153.705 126.84C153.705 121.432 156.937 120.216 158.857 120.216C160.905 120.216 162.761 121.976 162.761 124.152V130.84ZM164.329 133.08V111.64L161.129 112.184V112.472C162.441 112.472 162.761 113.016 162.761 114.136V121.304C161.705 120.472 160.393 119.928 158.729 119.928C154.665 119.928 151.593 122.648 151.593 127.448C151.593 131.32 153.289 135.288 158.249 135.288C159.913 135.288 161.801 134.52 162.761 133.144V134.68C162.761 134.68 162.761 135.416 163.657 135.256L165.961 134.776V134.52C164.681 134.648 164.329 134.648 164.329 133.08ZM170.409 119.928L167.241 120.472V120.728C168.585 120.728 168.809 121.176 168.809 122.296V132.952C168.809 134.584 168.745 134.36 167.529 134.712V135H171.721V134.712C170.569 134.424 170.409 134.712 170.409 132.952V119.928ZM170.377 116.088C170.377 115.448 169.865 114.968 169.289 114.968C168.681 114.968 168.233 115.448 168.233 116.088C168.233 116.664 168.681 117.144 169.289 117.144C169.865 117.144 170.377 116.664 170.377 116.088ZM181.13 134.648C178.25 134.648 176.01 132.792 176.01 127.32H186.282C186.282 122.232 183.37 119.928 180.554 119.928C177.066 119.928 174.122 122.84 174.122 127.8C174.122 132.504 176.938 135.288 180.714 135.288C183.978 135.288 185.642 132.664 185.802 131.32L185.61 131.288C185.226 132.952 183.274 134.648 181.13 134.648ZM176.01 127C176.01 122.04 178.762 120.216 180.554 120.216C181.834 120.216 184.682 121.72 184.682 127H176.01ZM200.459 132.952V125.272C200.459 121.432 198.347 119.928 195.659 119.928C193.643 119.928 191.723 121.432 191.115 123.192V119.928L187.915 120.472V120.728C189.259 120.728 189.515 121.208 189.515 122.328V132.952C189.515 134.584 189.451 134.36 188.235 134.712V135H192.427V134.712C191.275 134.424 191.115 134.712 191.115 132.952V123.672C191.627 122.648 192.875 120.792 194.923 120.792C197.547 120.792 198.891 122.584 198.891 125.4V132.952C198.891 134.584 198.827 134.392 197.611 134.744V135H201.771V134.744C200.651 134.456 200.459 134.712 200.459 132.952ZM208.867 134.424C207.427 134.424 206.371 133.592 206.371 130.296V120.504H210.083L210.147 120.216H206.371V115.192L204.771 115.384V120.216H203.107L203.139 120.504H204.771V130.392C204.771 134.264 206.115 135.288 208.227 135.288C209.795 135.288 210.755 134.2 211.011 132.888L210.819 132.824C210.595 133.688 209.795 134.424 208.867 134.424ZM219.692 134.648C216.812 134.648 214.572 132.792 214.572 127.32H224.844C224.844 122.232 221.932 119.928 219.116 119.928C215.628 119.928 212.684 122.84 212.684 127.8C212.684 132.504 215.5 135.288 219.276 135.288C222.54 135.288 224.204 132.664 224.364 131.32L224.172 131.288C223.788 132.952 221.836 134.648 219.692 134.648ZM214.572 127C214.572 122.04 217.324 120.216 219.116 120.216C220.396 120.216 223.244 121.72 223.244 127H214.572ZM234.317 127.512L231.085 125.496C228.301 123.736 227.885 120.216 231.853 120.216C236.013 120.216 236.781 122.584 236.781 125.208H237.037V120.984C237.037 120.984 235.533 119.928 231.853 119.928C228.557 119.928 227.853 121.976 227.853 121.976C227.021 124.056 227.629 125.304 230.637 127.512L233.869 129.464C236.301 131.064 237.549 135 233.037 135C228.429 135 227.885 132.504 227.885 129.528H227.629V134.2C227.629 134.2 229.165 135.288 233.037 135.288C235.693 135.288 236.685 133.848 236.685 133.848C238.157 131.768 237.261 129.336 234.317 127.512ZM242.749 134.104C242.749 133.464 242.237 132.984 241.661 132.984C241.053 132.984 240.605 133.464 240.605 134.104C240.605 134.68 241.053 135.16 241.661 135.16C242.237 135.16 242.749 134.68 242.749 134.104ZM28.671 168.384V152.576C28.671 150.176 29.759 149.76 31.135 149.76V149.472H26.847L20.511 169.472L11.615 149.472H6.943V149.76C7.679 149.792 9.279 149.76 10.463 151.776V164.16C10.463 171.36 9.311 171.712 6.207 171.712V172H14.623V171.712C11.903 171.712 10.751 171.552 10.751 164.16V152.32L19.647 172.288H19.903L26.847 150.4V168.384C26.847 171.392 25.887 171.712 24.543 171.712V172H31.263V171.712C29.887 171.712 28.671 171.392 28.671 168.384ZM41.376 169.024C41.024 169.792 40.16 171.36 37.888 171.36C36.064 171.36 34.912 170.304 34.912 168.448C34.912 166.208 37.12 164.896 41.376 163.84V169.024ZM44.448 171.232C43.104 171.232 43.104 169.44 43.104 169.44V163.328C43.104 159.52 42.368 156.928 39.584 156.928C39.584 156.928 38.08 156.896 36.768 157.536C35.072 158.464 34.432 159.52 34.272 159.904C34.112 160.288 34.208 160.768 34.496 161.12C34.912 161.632 35.616 161.664 36.096 161.248C36.576 160.8 36.64 160.064 36.224 159.584C36 159.328 35.744 159.232 35.456 159.168C35.296 159.136 35.552 158.432 37.024 157.728C39.936 156.512 41.376 158.56 41.376 161.824V163.552C36.032 164.96 33.312 166.048 33.312 168.96C33.312 172.32 36.928 172.288 36.928 172.288C39.136 172.288 40.96 171.168 41.376 169.504C41.376 172.448 43.584 172.288 43.584 172.288C44.928 172.288 45.6 171.136 45.76 170.208L45.504 170.112C45.28 171.232 44.448 171.232 44.448 171.232ZM52.586 171.424C51.146 171.424 50.09 170.592 50.09 167.296V157.504H53.802L53.866 157.216H50.09V152.192L48.49 152.384V157.216H46.826L46.858 157.504H48.49V167.392C48.49 171.264 49.834 172.288 51.946 172.288C53.514 172.288 54.474 171.2 54.73 169.888L54.538 169.824C54.314 170.688 53.514 171.424 52.586 171.424ZM63.4108 171.648C60.5308 171.648 58.2908 169.792 58.2908 164.32H68.5628C68.5628 159.232 65.6508 156.928 62.8348 156.928C59.3468 156.928 56.4028 159.84 56.4028 164.8C56.4028 169.504 59.2188 172.288 62.9948 172.288C66.2588 172.288 67.9228 169.664 68.0828 168.32L67.8908 168.288C67.5068 169.952 65.5548 171.648 63.4108 171.648ZM58.2908 164C58.2908 159.04 61.0428 157.216 62.8348 157.216C64.1148 157.216 66.9628 158.72 66.9628 164H58.2908ZM78.3238 156.96C76.4998 156.736 74.1638 158.336 73.4918 160V156.928L70.2918 157.472V157.728C71.6358 157.728 71.8918 158.176 71.8918 159.296V169.952C71.8918 171.584 71.8278 171.36 70.6118 171.712V172H74.8038V171.712C73.6518 171.424 73.4918 171.712 73.4918 169.952V160.64C74.3238 158.272 77.3638 157.088 77.0758 157.792C76.9798 158.08 76.9798 158.4 77.0758 158.688C77.3638 159.328 78.0998 159.616 78.7078 159.36C79.3478 159.072 79.6358 158.4 79.3798 157.76C79.1558 157.312 78.7718 157.024 78.3238 156.96ZM84.2218 156.928L81.0538 157.472V157.728C82.3978 157.728 82.6218 158.176 82.6218 159.296V169.952C82.6218 171.584 82.5578 171.36 81.3418 171.712V172H85.5338V171.712C84.3818 171.424 84.2218 171.712 84.2218 169.952V156.928ZM84.1898 153.088C84.1898 152.448 83.6778 151.968 83.1018 151.968C82.4938 151.968 82.0458 152.448 82.0458 153.088C82.0458 153.664 82.4938 154.144 83.1018 154.144C83.6778 154.144 84.1898 153.664 84.1898 153.088ZM96.126 169.024C95.774 169.792 94.91 171.36 92.638 171.36C90.814 171.36 89.662 170.304 89.662 168.448C89.662 166.208 91.87 164.896 96.126 163.84V169.024ZM99.198 171.232C97.854 171.232 97.854 169.44 97.854 169.44V163.328C97.854 159.52 97.118 156.928 94.334 156.928C94.334 156.928 92.83 156.896 91.518 157.536C89.822 158.464 89.182 159.52 89.022 159.904C88.862 160.288 88.958 160.768 89.246 161.12C89.662 161.632 90.366 161.664 90.846 161.248C91.326 160.8 91.39 160.064 90.974 159.584C90.75 159.328 90.494 159.232 90.206 159.168C90.046 159.136 90.302 158.432 91.774 157.728C94.686 156.512 96.126 158.56 96.126 161.824V163.552C90.782 164.96 88.062 166.048 88.062 168.96C88.062 172.32 91.678 172.288 91.678 172.288C93.886 172.288 95.71 171.168 96.126 169.504C96.126 172.448 98.334 172.288 98.334 172.288C99.678 172.288 100.35 171.136 100.51 170.208L100.254 170.112C100.03 171.232 99.198 171.232 99.198 171.232ZM104.936 148.64L101.736 149.184V149.472C103.08 149.472 103.336 149.92 103.336 151.04V169.952C103.336 171.584 103.272 171.36 102.056 171.712V172H106.248V171.712C105.096 171.424 104.936 171.712 104.936 169.952V148.64ZM111.441 156.928L108.273 157.472V157.728C109.617 157.728 109.841 158.176 109.841 159.296V169.952C109.841 171.584 109.777 171.36 108.561 171.712V172H112.753V171.712C111.601 171.424 111.441 171.712 111.441 169.952V156.928ZM111.409 153.088C111.409 152.448 110.897 151.968 110.321 151.968C109.713 151.968 109.265 152.448 109.265 153.088C109.265 153.664 109.713 154.144 110.321 154.144C110.897 154.144 111.409 153.664 111.409 153.088ZM125.169 157.216H115.089L114.929 161.44H115.249C115.505 157.536 118.929 157.472 123.217 157.472L114.993 172H124.913L125.201 167.136H124.881C124.465 171.584 121.937 171.744 117.137 171.744L125.169 157.216ZM136.439 169.024C136.087 169.792 135.223 171.36 132.951 171.36C131.127 171.36 129.975 170.304 129.975 168.448C129.975 166.208 132.183 164.896 136.439 163.84V169.024ZM139.511 171.232C138.167 171.232 138.167 169.44 138.167 169.44V163.328C138.167 159.52 137.431 156.928 134.647 156.928C134.647 156.928 133.143 156.896 131.831 157.536C130.135 158.464 129.495 159.52 129.335 159.904C129.174 160.288 129.271 160.768 129.559 161.12C129.975 161.632 130.679 161.664 131.159 161.248C131.639 160.8 131.703 160.064 131.286 159.584C131.062 159.328 130.807 159.232 130.519 159.168C130.359 159.136 130.615 158.432 132.087 157.728C134.999 156.512 136.439 158.56 136.439 161.824V163.552C131.095 164.96 128.375 166.048 128.375 168.96C128.375 172.32 131.991 172.288 131.991 172.288C134.199 172.288 136.023 171.168 136.439 169.504C136.439 172.448 138.647 172.288 138.647 172.288C139.991 172.288 140.663 171.136 140.823 170.208L140.567 170.112C140.343 171.232 139.511 171.232 139.511 171.232ZM161.857 169.952V162.272C161.857 158.432 160.225 156.928 157.505 156.928C155.425 156.928 153.761 158.528 153.249 160.384C152.801 157.92 151.329 156.928 149.089 156.928C147.073 156.928 145.409 158.4 144.865 160.192V156.928L141.665 157.472V157.728C143.009 157.728 143.265 158.208 143.265 159.328V169.952C143.265 171.584 143.201 171.36 141.985 171.712V172H146.177V171.712C145.025 171.424 144.865 171.712 144.865 169.952V160.672C145.312 159.648 146.305 157.792 148.353 157.792C151.009 157.792 151.841 159.584 151.841 162.4V169.952C151.841 171.584 151.777 171.392 150.561 171.744V172H154.721V171.744C153.601 171.456 153.409 171.712 153.409 169.952V162.272C153.409 161.696 153.377 161.152 153.313 160.704C153.729 159.68 154.753 157.792 156.801 157.792C159.425 157.792 160.289 159.584 160.289 162.4V169.952C160.289 171.584 160.225 171.392 159.009 171.744V172H163.169V171.744C162.049 171.456 161.857 171.712 161.857 169.952ZM172.198 156.928C167.334 156.928 165.062 160.384 165.062 164.608C165.062 168.8 167.334 172.288 172.198 172.288C177.094 172.288 179.334 168.8 179.334 164.608C179.334 160.384 177.094 156.928 172.198 156.928ZM172.198 172C169.606 172 166.886 170.4 166.886 164.608C166.886 158.816 169.606 157.216 172.198 157.216C174.79 157.216 177.478 158.816 177.478 164.608C177.478 170.4 174.79 172 172.198 172ZM189.036 164.512L185.804 162.496C183.02 160.736 182.604 157.216 186.572 157.216C190.732 157.216 191.5 159.584 191.5 162.208H191.756V157.984C191.756 157.984 190.252 156.928 186.572 156.928C183.276 156.928 182.572 158.976 182.572 158.976C181.74 161.056 182.348 162.304 185.356 164.512L188.588 166.464C191.02 168.064 192.268 172 187.756 172C183.148 172 182.604 169.504 182.604 166.528H182.348V171.2C182.348 171.2 183.884 172.288 187.756 172.288C190.412 172.288 191.404 170.848 191.404 170.848C192.876 168.768 191.98 166.336 189.036 164.512ZM205.191 156.928L202.023 157.472V157.728C203.367 157.728 203.591 158.176 203.591 159.296V169.952C203.591 171.584 203.527 171.36 202.311 171.712V172H206.503V171.712C205.351 171.424 205.191 171.712 205.191 169.952V156.928ZM205.159 153.088C205.159 152.448 204.647 151.968 204.071 151.968C203.463 151.968 203.015 152.448 203.015 153.088C203.015 153.664 203.463 154.144 204.071 154.144C204.647 154.144 205.159 153.664 205.159 153.088ZM220.167 167.84C220.167 170.08 218.311 171.552 216.263 171.552C213.287 171.552 211.111 168.832 211.111 163.84C211.111 158.432 214.343 157.216 216.263 157.216C218.311 157.216 220.167 158.976 220.167 161.152V167.84ZM221.735 170.08V148.64L218.535 149.184V149.472C219.847 149.472 220.167 150.016 220.167 151.136V158.304C219.111 157.472 217.799 156.928 216.135 156.928C212.071 156.928 208.999 159.648 208.999 164.448C208.999 168.32 210.695 172.288 215.655 172.288C217.319 172.288 219.207 171.52 220.167 170.144V171.68C220.167 171.68 220.167 172.416 221.063 172.256L223.367 171.776V171.52C222.087 171.648 221.735 171.648 221.735 170.08ZM231.88 171.648C229 171.648 226.76 169.792 226.76 164.32H237.032C237.032 159.232 234.12 156.928 231.304 156.928C227.816 156.928 224.872 159.84 224.872 164.8C224.872 169.504 227.688 172.288 231.464 172.288C234.728 172.288 236.392 169.664 236.552 168.32L236.36 168.288C235.976 169.952 234.024 171.648 231.88 171.648ZM226.76 164C226.76 159.04 229.512 157.216 231.304 157.216C232.584 157.216 235.432 158.72 235.432 164H226.76ZM247.689 169.024C247.337 169.792 246.473 171.36 244.201 171.36C242.377 171.36 241.225 170.304 241.225 168.448C241.225 166.208 243.433 164.896 247.689 163.84V169.024ZM250.761 171.232C249.417 171.232 249.417 169.44 249.417 169.44V163.328C249.417 159.52 248.681 156.928 245.897 156.928C245.897 156.928 244.393 156.896 243.081 157.536C241.385 158.464 240.745 159.52 240.585 159.904C240.424 160.288 240.521 160.768 240.809 161.12C241.225 161.632 241.929 161.664 242.409 161.248C242.889 160.8 242.953 160.064 242.536 159.584C242.312 159.328 242.057 159.232 241.769 159.168C241.609 159.136 241.865 158.432 243.337 157.728C246.249 156.512 247.689 158.56 247.689 161.824V163.552C242.345 164.96 239.625 166.048 239.625 168.96C239.625 172.32 243.241 172.288 243.241 172.288C245.449 172.288 247.273 171.168 247.689 169.504C247.689 172.448 249.897 172.288 249.897 172.288C251.241 172.288 251.913 171.136 252.073 170.208L251.817 170.112C251.593 171.232 250.761 171.232 250.761 171.232ZM260.755 164.512L257.523 162.496C254.739 160.736 254.323 157.216 258.291 157.216C262.451 157.216 263.219 159.584 263.219 162.208H263.475V157.984C263.475 157.984 261.97 156.928 258.291 156.928C254.995 156.928 254.291 158.976 254.291 158.976C253.459 161.056 254.067 162.304 257.075 164.512L260.307 166.464C262.739 168.064 263.987 172 259.475 172C254.867 172 254.323 169.504 254.323 166.528H254.067V171.2C254.067 171.2 255.603 172.288 259.475 172.288C262.131 172.288 263.123 170.848 263.123 170.848C264.595 168.768 263.699 166.336 260.755 164.512ZM283.021 157.216V157.472C286.733 157.408 284.845 162.656 284.845 162.656L282.285 169.984L277.741 160.16C277.741 160.16 276.365 157.472 278.829 157.472V157.216H273.133V157.472C273.645 157.536 274.861 157.792 275.629 159.456C275.629 159.456 275.885 159.712 281.549 172L279.885 176.8C279.501 177.856 278.893 178.528 278.765 177.984C278.701 177.728 278.477 177.408 278.157 177.28C277.581 177.024 276.909 177.28 276.621 177.888C276.397 178.464 276.621 179.136 277.229 179.424C277.645 179.616 278.253 179.52 278.573 179.264C278.893 179.008 279.629 178.4 280.109 176.896L285.133 162.72C286.829 157.952 287.565 157.472 289.133 157.472V157.216H283.021ZM86.5625 209.359C91.4531 209.359 94.9062 206.719 95.7031 202.328H93.5625C92.8906 205.453 90.1719 207.375 86.5781 207.375C81.7812 207.375 78.7031 203.609 78.7031 197.672C78.7031 191.812 81.7812 188.078 86.5625 188.078C90.0625 188.078 92.9375 190.359 93.5625 193.609H95.7031C95.0938 189.203 91.3281 186.094 86.5625 186.094C80.4375 186.094 76.5156 190.609 76.5156 197.672C76.5156 204.812 80.4219 209.359 86.5625 209.359ZM100.984 188.359H106.562C109.844 188.359 111.828 190.125 111.828 193.109C111.828 196.125 109.922 197.875 106.641 197.875H100.984V188.359ZM100.984 199.766H106.641C106.75 199.766 106.906 199.766 106.984 199.766L112.172 209H114.672L109.203 199.422C112.219 198.641 114.031 196.234 114.031 193.047C114.031 189.031 111.219 186.453 106.812 186.453H98.8594V209H100.984V199.766ZM131.125 207.062H119.641V198.406H130.547V196.5H119.641V188.391H131.125V186.453H117.516V209H131.125V207.062ZM149.75 209H152L143.578 186.453H141.453L133.016 209H135.281L137.781 202.094H147.25L149.75 209ZM142.469 189.094H142.562L146.609 200.25H138.422L142.469 189.094ZM176.203 209V186.453H173.734L165.391 206.188H165.297L156.938 186.453H154.484V209H156.484V190.5H156.578L164.406 208.891H166.266L174.109 190.5H174.203V209H176.203ZM189.75 186.094C183.469 186.094 179.516 190.594 179.516 197.734C179.516 204.875 183.469 209.359 189.75 209.359C196.047 209.359 200 204.875 200 197.734C200 190.594 196.031 186.094 189.75 186.094ZM189.75 188.078C194.688 188.078 197.812 191.812 197.812 197.734C197.812 203.641 194.688 207.375 189.75 207.375C184.812 207.375 181.703 203.641 181.703 197.734C181.703 191.812 184.812 188.078 189.75 188.078ZM202.234 202.875C202.469 206.75 205.781 209.359 210.5 209.359C215.484 209.359 218.672 206.766 218.672 202.812C218.672 199.672 216.766 197.938 212.234 196.797L209.797 196.172C206.484 195.328 205.078 194.188 205.078 192.25C205.078 189.766 207.391 188.031 210.516 188.031C213.719 188.031 215.969 189.719 216.172 192.266H218.312C218.188 188.688 214.969 186.094 210.578 186.094C206.141 186.094 202.859 188.688 202.859 192.328C202.859 195.297 204.719 197.062 208.891 198.125L211.688 198.844C215.031 199.688 216.484 200.938 216.484 203.047C216.484 205.578 214.062 207.422 210.688 207.422C207.156 207.422 204.609 205.578 204.375 202.875H202.234ZM10.4062 246.359C15.2969 246.359 18.75 243.719 19.5469 239.328H17.4062C16.7344 242.453 14.0156 244.375 10.4219 244.375C5.625 244.375 2.54688 240.609 2.54688 234.672C2.54688 228.812 5.625 225.078 10.4062 225.078C13.9062 225.078 16.7812 227.359 17.4062 230.609H19.5469C18.9375 226.203 15.1719 223.094 10.4062 223.094C4.28125 223.094 0.359375 227.609 0.359375 234.672C0.359375 241.812 4.26562 246.359 10.4062 246.359ZM32.0312 223.094C25.75 223.094 21.7969 227.594 21.7969 234.734C21.7969 241.875 25.75 246.359 32.0312 246.359C38.3281 246.359 42.2812 241.875 42.2812 234.734C42.2812 227.594 38.3125 223.094 32.0312 223.094ZM32.0312 225.078C36.9688 225.078 40.0938 228.812 40.0938 234.734C40.0938 240.641 36.9688 244.375 32.0312 244.375C27.0938 244.375 23.9844 240.641 23.9844 234.734C23.9844 228.812 27.0938 225.078 32.0312 225.078ZM47.7188 246V227.156H47.8281L61.0938 246H63.1562V223.453H61.0469V242.281H60.9375L47.7188 223.453H45.6094V246H47.7188ZM76.5312 246.359C81.4219 246.359 84.875 243.719 85.6719 239.328H83.5312C82.8594 242.453 80.1406 244.375 76.5469 244.375C71.75 244.375 68.6719 240.609 68.6719 234.672C68.6719 228.812 71.75 225.078 76.5312 225.078C80.0312 225.078 82.9062 227.359 83.5312 230.609H85.6719C85.0625 226.203 81.2969 223.094 76.5312 223.094C70.4062 223.094 66.4844 227.609 66.4844 234.672C66.4844 241.812 70.3906 246.359 76.5312 246.359ZM102.438 244.062H90.9531V235.406H101.859V233.5H90.9531V225.391H102.438V223.453H88.8281V246H102.438V244.062ZM106.078 223.453V246H108.203V237.5H113.734C118.031 237.5 120.984 234.656 120.984 230.469C120.984 226.281 118.062 223.453 113.75 223.453H106.078ZM108.203 225.359H113.25C116.734 225.359 118.797 227.266 118.797 230.469C118.797 233.672 116.719 235.594 113.25 235.594H108.203V225.359ZM132.109 246V225.391H139.562V223.453H122.531V225.391H129.969V246H132.109ZM150.094 223.094C143.812 223.094 139.859 227.594 139.859 234.734C139.859 241.875 143.812 246.359 150.094 246.359C156.391 246.359 160.344 241.875 160.344 234.734C160.344 227.594 156.375 223.094 150.094 223.094ZM150.094 225.078C155.031 225.078 158.156 228.812 158.156 234.734C158.156 240.641 155.031 244.375 150.094 244.375C145.156 244.375 142.047 240.641 142.047 234.734C142.047 228.812 145.156 225.078 150.094 225.078ZM162.578 239.875C162.812 243.75 166.125 246.359 170.844 246.359C175.828 246.359 179.016 243.766 179.016 239.812C179.016 236.672 177.109 234.938 172.578 233.797L170.141 233.172C166.828 232.328 165.422 231.188 165.422 229.25C165.422 226.766 167.734 225.031 170.859 225.031C174.062 225.031 176.312 226.719 176.516 229.266H178.656C178.531 225.688 175.312 223.094 170.922 223.094C166.484 223.094 163.203 225.688 163.203 229.328C163.203 232.297 165.062 234.062 169.234 235.125L172.031 235.844C175.375 236.688 176.828 237.938 176.828 240.047C176.828 242.578 174.406 244.422 171.031 244.422C167.5 244.422 164.953 242.578 164.719 239.875H162.578ZM195.339 246C192.939 246 191.403 244.304 191.307 241.84V235.664C191.435 233.2 192.971 231.664 195.339 231.664C198.283 231.664 200.459 234.352 200.459 239.344C200.459 244.752 197.259 246 195.339 246ZM195.947 230.928C194.187 230.928 192.235 231.792 191.307 233.296V230.928L188.107 231.472V231.728C189.451 231.728 189.707 232.208 189.707 233.328V252.432C189.707 254.064 189.643 253.84 188.427 254.192V254.48H192.619V254.192C191.467 253.904 191.307 254.192 191.307 252.432V244.848C192.363 245.712 193.707 246.288 195.467 246.288C199.531 246.288 202.571 243.536 202.571 238.736C202.571 234.896 200.875 230.928 195.947 230.928ZM213.501 243.024C213.149 243.792 212.285 245.36 210.013 245.36C208.189 245.36 207.037 244.304 207.037 242.448C207.037 240.208 209.245 238.896 213.501 237.84V243.024ZM216.573 245.232C215.229 245.232 215.229 243.44 215.229 243.44V237.328C215.229 233.52 214.493 230.928 211.709 230.928C211.709 230.928 210.205 230.896 208.893 231.536C207.197 232.464 206.557 233.52 206.397 233.904C206.237 234.288 206.333 234.768 206.621 235.12C207.037 235.632 207.741 235.664 208.221 235.248C208.701 234.8 208.765 234.064 208.349 233.584C208.125 233.328 207.869 233.232 207.581 233.168C207.421 233.136 207.677 232.432 209.149 231.728C212.061 230.512 213.501 232.56 213.501 235.824V237.552C208.157 238.96 205.437 240.048 205.437 242.96C205.437 246.32 209.053 246.288 209.053 246.288C211.261 246.288 213.085 245.168 213.501 243.504C213.501 246.448 215.709 246.288 215.709 246.288C217.053 246.288 217.725 245.136 217.885 244.208L217.629 244.112C217.405 245.232 216.573 245.232 216.573 245.232ZM226.855 230.96C225.031 230.736 222.695 232.336 222.023 234V230.928L218.823 231.472V231.728C220.167 231.728 220.423 232.176 220.423 233.296V243.952C220.423 245.584 220.359 245.36 219.143 245.712V246H223.335V245.712C222.183 245.424 222.023 245.712 222.023 243.952V234.64C222.855 232.272 225.895 231.088 225.607 231.792C225.511 232.08 225.511 232.4 225.607 232.688C225.895 233.328 226.631 233.616 227.239 233.36C227.879 233.072 228.167 232.4 227.911 231.76C227.687 231.312 227.303 231.024 226.855 230.96ZM237.22 243.024C236.868 243.792 236.004 245.36 233.732 245.36C231.908 245.36 230.756 244.304 230.756 242.448C230.756 240.208 232.964 238.896 237.22 237.84V243.024ZM240.292 245.232C238.948 245.232 238.948 243.44 238.948 243.44V237.328C238.948 233.52 238.212 230.928 235.428 230.928C235.428 230.928 233.924 230.896 232.612 231.536C230.916 232.464 230.276 233.52 230.116 233.904C229.956 234.288 230.052 234.768 230.34 235.12C230.756 235.632 231.46 235.664 231.94 235.248C232.42 234.8 232.484 234.064 232.068 233.584C231.844 233.328 231.588 233.232 231.3 233.168C231.14 233.136 231.396 232.432 232.868 231.728C235.78 230.512 237.22 232.56 237.22 235.824V237.552C231.876 238.96 229.156 240.048 229.156 242.96C229.156 246.32 232.772 246.288 232.772 246.288C234.98 246.288 236.804 245.168 237.22 243.504C237.22 246.448 239.428 246.288 239.428 246.288C240.772 246.288 241.444 245.136 241.604 244.208L241.348 244.112C241.124 245.232 240.292 245.232 240.292 245.232ZM262.009 242.256C261.785 244.272 260.025 245.552 258.105 245.552C255.129 245.552 252.985 242.832 252.985 237.84C252.985 232.432 256.185 231.216 258.105 231.216C260.057 231.216 261.785 232.72 262.009 234.704V242.256ZM263.609 252.432V231.344C263.609 230.832 262.457 231.536 262.105 232.336C261.017 231.472 259.641 230.928 257.977 230.928C253.913 230.928 250.873 233.648 250.873 238.448C250.873 242.288 252.569 246.288 257.497 246.288C259.161 246.288 261.049 245.52 262.009 244.144V252.432C262.009 254.064 261.945 253.84 260.729 254.192V254.48H264.921V254.192C263.769 253.904 263.609 254.192 263.609 252.432ZM278.997 243.6V230.928L275.893 231.504V231.76C277.397 231.76 277.397 231.792 277.397 233.744V242.608C276.949 244.016 275.829 245.456 273.557 245.456C271.701 245.456 269.653 244.464 269.653 241.424V230.928L266.325 231.504V231.76C268.117 231.76 268.117 231.76 268.117 233.968V241.52C268.117 245.648 271.125 246.288 273.205 246.288C275.509 246.288 277.045 244.848 277.397 243.28V245.904C277.397 245.904 277.365 246.416 278.069 246.256L280.629 245.84V245.584C279.285 245.424 278.997 245.136 278.997 243.6ZM289.411 245.648C286.531 245.648 284.291 243.792 284.291 238.32H294.563C294.563 233.232 291.651 230.928 288.835 230.928C285.347 230.928 282.403 233.84 282.403 238.8C282.403 243.504 285.219 246.288 288.995 246.288C292.259 246.288 293.923 243.664 294.083 242.32L293.891 242.288C293.507 243.952 291.555 245.648 289.411 245.648ZM284.291 238C284.291 233.04 287.043 231.216 288.835 231.216C290.115 231.216 292.963 232.72 292.963 238H284.291ZM21.8266 259.64L18.6266 260.184V260.472C19.9706 260.472 20.2266 260.92 20.2266 262.04V280.952C20.2266 282.584 20.1626 282.36 18.9466 282.712V283H23.1386V282.712C21.9866 282.424 21.8266 282.712 21.8266 280.952V259.64ZM33.5791 280.024C33.2271 280.792 32.3631 282.36 30.0911 282.36C28.2671 282.36 27.1151 281.304 27.1151 279.448C27.1151 277.208 29.3231 275.896 33.5791 274.84V280.024ZM36.6511 282.232C35.3071 282.232 35.3071 280.44 35.3071 280.44V274.328C35.3071 270.52 34.5711 267.928 31.7871 267.928C31.7871 267.928 30.2831 267.896 28.9711 268.536C27.2751 269.464 26.6351 270.52 26.4751 270.904C26.3151 271.288 26.4111 271.768 26.6991 272.12C27.1151 272.632 27.8191 272.664 28.2991 272.248C28.7791 271.8 28.8431 271.064 28.4271 270.584C28.2031 270.328 27.9471 270.232 27.6591 270.168C27.4991 270.136 27.7551 269.432 29.2271 268.728C32.1391 267.512 33.5791 269.56 33.5791 272.824V274.552C28.2351 275.96 25.5151 277.048 25.5151 279.96C25.5151 283.32 29.1311 283.288 29.1311 283.288C31.3391 283.288 33.1631 282.168 33.5791 280.504C33.5791 283.448 35.7871 283.288 35.7871 283.288C37.1311 283.288 37.8031 282.136 37.9631 281.208L37.7071 281.112C37.4831 282.232 36.6511 282.232 36.6511 282.232ZM46.6451 275.512L43.4131 273.496C40.6291 271.736 40.2131 268.216 44.1811 268.216C48.3411 268.216 49.1091 270.584 49.1091 273.208H49.3651V268.984C49.3651 268.984 47.8611 267.928 44.1811 267.928C40.8851 267.928 40.1811 269.976 40.1811 269.976C39.3491 272.056 39.9571 273.304 42.9651 275.512L46.1971 277.464C48.6291 279.064 49.8771 283 45.3651 283C40.7571 283 40.2131 280.504 40.2131 277.528H39.9571V282.2C39.9571 282.2 41.4931 283.288 45.3651 283.288C48.0211 283.288 49.0131 281.848 49.0131 281.848C50.4851 279.768 49.5891 277.336 46.6451 275.512ZM79.2159 280.952V273.272C79.2159 269.432 77.5839 267.928 74.8639 267.928C72.7839 267.928 71.1199 269.528 70.6079 271.384C70.1599 268.92 68.6879 267.928 66.4479 267.928C64.4319 267.928 62.7679 269.4 62.2239 271.192V267.928L59.0239 268.472V268.728C60.3679 268.728 60.6239 269.208 60.6239 270.328V280.952C60.6239 282.584 60.5599 282.36 59.3439 282.712V283H63.5359V282.712C62.3839 282.424 62.2239 282.712 62.2239 280.952V271.672C62.6719 270.648 63.6639 268.792 65.7119 268.792C68.3679 268.792 69.1999 270.584 69.1999 273.4V280.952C69.1999 282.584 69.1359 282.392 67.9199 282.744V283H72.0799V282.744C70.9599 282.456 70.7679 282.712 70.7679 280.952V273.272C70.7679 272.696 70.7359 272.152 70.6719 271.704C71.0879 270.68 72.1119 268.792 74.1599 268.792C76.7839 268.792 77.6479 270.584 77.6479 273.4V280.952C77.6479 282.584 77.5839 282.392 76.3679 282.744V283H80.5279V282.744C79.4079 282.456 79.2159 282.712 79.2159 280.952ZM90.4854 280.024C90.1334 280.792 89.2694 282.36 86.9974 282.36C85.1734 282.36 84.0214 281.304 84.0214 279.448C84.0214 277.208 86.2294 275.896 90.4854 274.84V280.024ZM93.5574 282.232C92.2134 282.232 92.2134 280.44 92.2134 280.44V274.328C92.2134 270.52 91.4774 267.928 88.6934 267.928C88.6934 267.928 87.1894 267.896 85.8774 268.536C84.1814 269.464 83.5414 270.52 83.3814 270.904C83.2214 271.288 83.3174 271.768 83.6054 272.12C84.0214 272.632 84.7254 272.664 85.2054 272.248C85.6854 271.8 85.7494 271.064 85.3334 270.584C85.1094 270.328 84.8534 270.232 84.5654 270.168C84.4054 270.136 84.6614 269.432 86.1334 268.728C89.0454 267.512 90.4854 269.56 90.4854 272.824V274.552C85.1414 275.96 82.4214 277.048 82.4214 279.96C82.4214 283.32 86.0374 283.288 86.0374 283.288C88.2454 283.288 90.0694 282.168 90.4854 280.504C90.4854 283.448 92.6934 283.288 92.6934 283.288C94.0374 283.288 94.7094 282.136 94.8694 281.208L94.6134 281.112C94.3894 282.232 93.5574 282.232 93.5574 282.232ZM103.839 267.96C102.015 267.736 99.6794 269.336 99.0074 271V267.928L95.8074 268.472V268.728C97.1514 268.728 97.4074 269.176 97.4074 270.296V280.952C97.4074 282.584 97.3434 282.36 96.1274 282.712V283H100.319V282.712C99.1674 282.424 99.0074 282.712 99.0074 280.952V271.64C99.8394 269.272 102.879 268.088 102.591 268.792C102.495 269.08 102.495 269.4 102.591 269.688C102.879 270.328 103.615 270.616 104.223 270.36C104.863 270.072 105.151 269.4 104.895 268.76C104.671 268.312 104.287 268.024 103.839 267.96ZM119.177 278.936C118.761 280.472 117.321 282.584 114.249 282.584C111.913 282.584 108.969 280.664 108.969 275.576C108.969 269.144 112.905 268.216 114.313 268.216C117.289 268.216 118.377 269.528 118.057 269.432C117.897 269.368 117.577 269.368 117.257 269.496C116.713 269.752 116.521 270.392 116.809 270.968C117.033 271.48 117.769 271.608 118.281 271.384C118.665 271.16 118.857 270.808 118.857 270.392C118.857 269.848 118.313 267.928 114.313 267.928C109.993 267.928 107.049 271.544 107.049 275.704C107.049 281.368 110.985 283.288 113.929 283.288C117.801 283.288 119.145 280.536 119.401 278.968L119.177 278.936ZM129.86 280.024C129.508 280.792 128.644 282.36 126.372 282.36C124.548 282.36 123.396 281.304 123.396 279.448C123.396 277.208 125.604 275.896 129.86 274.84V280.024ZM132.932 282.232C131.588 282.232 131.588 280.44 131.588 280.44V274.328C131.588 270.52 130.852 267.928 128.068 267.928C128.068 267.928 126.564 267.896 125.252 268.536C123.556 269.464 122.916 270.52 122.756 270.904C122.596 271.288 122.692 271.768 122.98 272.12C123.396 272.632 124.1 272.664 124.58 272.248C125.06 271.8 125.124 271.064 124.708 270.584C124.484 270.328 124.228 270.232 123.94 270.168C123.78 270.136 124.036 269.432 125.508 268.728C128.42 267.512 129.86 269.56 129.86 272.824V274.552C124.516 275.96 121.796 277.048 121.796 279.96C121.796 283.32 125.412 283.288 125.412 283.288C127.62 283.288 129.444 282.168 129.86 280.504C129.86 283.448 132.068 283.288 132.068 283.288C133.412 283.288 134.084 282.136 134.244 281.208L133.988 281.112C133.764 282.232 132.932 282.232 132.932 282.232ZM142.926 275.512L139.694 273.496C136.91 271.736 136.494 268.216 140.462 268.216C144.622 268.216 145.39 270.584 145.39 273.208H145.646V268.984C145.646 268.984 144.142 267.928 140.462 267.928C137.166 267.928 136.462 269.976 136.462 269.976C135.63 272.056 136.238 273.304 139.246 275.512L142.478 277.464C144.91 279.064 146.158 283 141.646 283C137.038 283 136.494 280.504 136.494 277.528H136.238V282.2C136.238 282.2 137.774 283.288 141.646 283.288C144.302 283.288 145.294 281.848 145.294 281.848C146.766 279.768 145.87 277.336 142.926 275.512ZM161.289 282.424C159.849 282.424 158.793 281.592 158.793 278.296V268.504H162.505L162.569 268.216H158.793V263.192L157.193 263.384V268.216H155.529L155.561 268.504H157.193V278.392C157.193 282.264 158.537 283.288 160.649 283.288C162.217 283.288 163.177 282.2 163.433 280.888L163.241 280.824C163.017 281.688 162.217 282.424 161.289 282.424ZM172.114 282.648C169.234 282.648 166.994 280.792 166.994 275.32H177.266C177.266 270.232 174.354 267.928 171.538 267.928C168.05 267.928 165.106 270.84 165.106 275.8C165.106 280.504 167.922 283.288 171.698 283.288C174.962 283.288 176.626 280.664 176.786 279.32L176.594 279.288C176.21 280.952 174.258 282.648 172.114 282.648ZM166.994 275C166.994 270.04 169.746 268.216 171.538 268.216C172.818 268.216 175.666 269.72 175.666 275H166.994ZM191.443 280.952V273.272C191.443 269.432 189.331 267.928 186.643 267.928C184.627 267.928 182.707 269.432 182.099 271.192V267.928L178.899 268.472V268.728C180.243 268.728 180.499 269.208 180.499 270.328V280.952C180.499 282.584 180.435 282.36 179.219 282.712V283H183.411V282.712C182.259 282.424 182.099 282.712 182.099 280.952V271.672C182.611 270.648 183.859 268.792 185.907 268.792C188.531 268.792 189.875 270.584 189.875 273.4V280.952C189.875 282.584 189.811 282.392 188.595 282.744V283H192.755V282.744C191.635 282.456 191.443 282.712 191.443 280.952ZM209.708 268.344C209.452 267.992 209.004 267.832 208.556 267.832C207.788 267.832 206.54 268.376 205.804 269.496C204.748 268.536 203.052 267.928 201.356 267.928C197.9 267.928 195.532 270.328 195.532 272.92C195.532 274.616 196.172 276.44 197.964 277.24C195.116 277.784 195.34 280.248 195.34 280.248C195.34 281.112 195.564 281.976 196.556 282.456C194.22 284.024 193.324 286.2 194.572 288.216C195.948 290.456 200.204 291.096 204.46 288.696C207.82 286.808 207.884 284.504 207.884 284.504C208.396 280.952 204.396 281.432 202.188 281.432H198.988C194.796 281.432 196.076 277.496 198.188 277.368C199.084 277.752 200.108 277.944 201.356 277.944C204.876 277.944 207.212 275.512 207.212 272.92C207.212 271.768 206.796 270.456 205.964 269.656C206.572 268.632 207.82 268.536 207.724 268.792C207.628 269.08 207.692 269.4 207.884 269.656C208.204 270.168 208.908 270.232 209.42 269.88C209.9 269.528 210.028 268.856 209.708 268.344ZM196.812 282.616C197.804 282.968 199.02 283 199.372 283H203.884C207.052 283 206.988 284.536 206.988 284.536C206.988 284.536 207.18 286.616 204.3 288.44C201.612 290.168 197.484 289.304 196.236 287.832C196.364 287.96 193.676 284.952 196.812 282.616ZM201.356 277.688C199.948 277.688 197.356 276.504 197.356 272.92C197.356 269.336 199.756 268.216 201.356 268.216C202.732 268.216 205.388 269.336 205.388 272.92C205.388 276.504 202.828 277.688 201.356 277.688ZM219.329 280.024C218.977 280.792 218.113 282.36 215.841 282.36C214.017 282.36 212.865 281.304 212.865 279.448C212.865 277.208 215.073 275.896 219.329 274.84V280.024ZM222.401 282.232C221.057 282.232 221.057 280.44 221.057 280.44V274.328C221.057 270.52 220.321 267.928 217.537 267.928C217.537 267.928 216.033 267.896 214.721 268.536C213.025 269.464 212.385 270.52 212.225 270.904C212.065 271.288 212.161 271.768 212.449 272.12C212.865 272.632 213.569 272.664 214.049 272.248C214.529 271.8 214.593 271.064 214.177 270.584C213.953 270.328 213.697 270.232 213.409 270.168C213.249 270.136 213.505 269.432 214.977 268.728C217.889 267.512 219.329 269.56 219.329 272.824V274.552C213.985 275.96 211.265 277.048 211.265 279.96C211.265 283.32 214.881 283.288 214.881 283.288C217.089 283.288 218.913 282.168 219.329 280.504C219.329 283.448 221.537 283.288 221.537 283.288C222.881 283.288 223.553 282.136 223.713 281.208L223.457 281.112C223.233 282.232 222.401 282.232 222.401 282.232ZM237.099 280.952V273.272C237.099 269.432 234.987 267.928 232.299 267.928C230.283 267.928 228.363 269.432 227.755 271.192V267.928L224.555 268.472V268.728C225.899 268.728 226.155 269.208 226.155 270.328V280.952C226.155 282.584 226.091 282.36 224.875 282.712V283H229.067V282.712C227.915 282.424 227.755 282.712 227.755 280.952V271.672C228.267 270.648 229.515 268.792 231.563 268.792C234.187 268.792 235.531 270.584 235.531 273.4V280.952C235.531 282.584 235.467 282.392 234.251 282.744V283H238.411V282.744C237.291 282.456 237.099 282.712 237.099 280.952ZM259.919 280.6V267.928L256.815 268.504V268.76C258.319 268.76 258.319 268.792 258.319 270.744V279.608C257.871 281.016 256.751 282.456 254.479 282.456C252.623 282.456 250.575 281.464 250.575 278.424V267.928L247.247 268.504V268.76C249.039 268.76 249.039 268.76 249.039 270.968V278.52C249.039 282.648 252.047 283.288 254.127 283.288C256.431 283.288 257.967 281.848 258.319 280.28V282.904C258.319 282.904 258.287 283.416 258.991 283.256L261.551 282.84V282.584C260.207 282.424 259.919 282.136 259.919 280.6ZM275.037 280.952V273.272C275.037 269.432 272.925 267.928 270.237 267.928C268.221 267.928 266.301 269.432 265.693 271.192V267.928L262.493 268.472V268.728C263.837 268.728 264.093 269.208 264.093 270.328V280.952C264.093 282.584 264.029 282.36 262.813 282.712V283H267.005V282.712C265.853 282.424 265.693 282.712 265.693 280.952V271.672C266.205 270.648 267.453 268.792 269.501 268.792C272.125 268.792 273.469 270.584 273.469 273.4V280.952C273.469 282.584 273.405 282.392 272.189 282.744V283H276.349V282.744C275.229 282.456 275.037 282.712 275.037 280.952ZM22.8951 312.512L19.6631 310.496C16.8791 308.736 16.4631 305.216 20.4311 305.216C24.5911 305.216 25.3591 307.584 25.3591 310.208H25.6151V305.984C25.6151 305.984 24.1111 304.928 20.4311 304.928C17.1351 304.928 16.4311 306.976 16.4311 306.976C15.5991 309.056 16.2071 310.304 19.2151 312.512L22.4471 314.464C24.8791 316.064 26.1271 320 21.6151 320C17.0071 320 16.4631 317.504 16.4631 314.528H16.2071V319.2C16.2071 319.2 17.7431 320.288 21.6151 320.288C24.2711 320.288 25.2631 318.848 25.2631 318.848C26.7351 316.768 25.8391 314.336 22.8951 312.512ZM35.5826 319.648C32.7026 319.648 30.4626 317.792 30.4626 312.32H40.7346C40.7346 307.232 37.8226 304.928 35.0066 304.928C31.5186 304.928 28.5746 307.84 28.5746 312.8C28.5746 317.504 31.3906 320.288 35.1666 320.288C38.4306 320.288 40.0946 317.664 40.2546 316.32L40.0626 316.288C39.6786 317.952 37.7266 319.648 35.5826 319.648ZM30.4626 312C30.4626 307.04 33.2146 305.216 35.0066 305.216C36.2866 305.216 39.1346 306.72 39.1346 312H30.4626ZM54.9116 317.952V310.272C54.9116 306.432 52.7996 304.928 50.1116 304.928C48.0956 304.928 46.1756 306.432 45.5676 308.192V304.928L42.3676 305.472V305.728C43.7116 305.728 43.9676 306.208 43.9676 307.328V317.952C43.9676 319.584 43.9036 319.36 42.6876 319.712V320H46.8796V319.712C45.7276 319.424 45.5676 319.712 45.5676 317.952V308.672C46.0796 307.648 47.3276 305.792 49.3756 305.792C51.9996 305.792 53.3436 307.584 53.3436 310.4V317.952C53.3436 319.584 53.2796 319.392 52.0636 319.744V320H56.2236V319.744C55.1036 319.456 54.9116 319.712 54.9116 317.952ZM63.3204 319.424C61.8804 319.424 60.8244 318.592 60.8244 315.296V305.504H64.5364L64.6004 305.216H60.8244V300.192L59.2244 300.384V305.216H57.5604L57.5924 305.504H59.2244V315.392C59.2244 319.264 60.5684 320.288 62.6804 320.288C64.2484 320.288 65.2084 319.2 65.4644 317.888L65.2724 317.824C65.0484 318.688 64.2484 319.424 63.3204 319.424ZM70.0811 304.928L66.9131 305.472V305.728C68.2571 305.728 68.4811 306.176 68.4811 307.296V317.952C68.4811 319.584 68.4171 319.36 67.2011 319.712V320H71.3931V319.712C70.2411 319.424 70.0811 319.712 70.0811 317.952V304.928ZM70.0491 301.088C70.0491 300.448 69.5371 299.968 68.9611 299.968C68.3531 299.968 67.9051 300.448 67.9051 301.088C67.9051 301.664 68.3531 302.144 68.9611 302.144C69.5371 302.144 70.0491 301.664 70.0491 301.088ZM85.0574 315.84C85.0574 318.08 83.2014 319.552 81.1534 319.552C78.1774 319.552 76.0014 316.832 76.0014 311.84C76.0014 306.432 79.2334 305.216 81.1534 305.216C83.2014 305.216 85.0574 306.976 85.0574 309.152V315.84ZM86.6254 318.08V296.64L83.4254 297.184V297.472C84.7374 297.472 85.0574 298.016 85.0574 299.136V306.304C84.0014 305.472 82.6894 304.928 81.0254 304.928C76.9614 304.928 73.8894 307.648 73.8894 312.448C73.8894 316.32 75.5854 320.288 80.5454 320.288C82.2094 320.288 84.0974 319.52 85.0574 318.144V319.68C85.0574 319.68 85.0574 320.416 85.9534 320.256L88.2574 319.776V319.52C86.9774 319.648 86.6254 319.648 86.6254 318.08ZM97.0261 304.928C92.1621 304.928 89.8901 308.384 89.8901 312.608C89.8901 316.8 92.1621 320.288 97.0261 320.288C101.922 320.288 104.162 316.8 104.162 312.608C104.162 308.384 101.922 304.928 97.0261 304.928ZM97.0261 320C94.4341 320 91.7141 318.4 91.7141 312.608C91.7141 306.816 94.4341 305.216 97.0261 305.216C99.6181 305.216 102.306 306.816 102.306 312.608C102.306 318.4 99.6181 320 97.0261 320ZM133.747 317.952V310.272C133.747 306.432 132.115 304.928 129.395 304.928C127.315 304.928 125.651 306.528 125.139 308.384C124.691 305.92 123.219 304.928 120.979 304.928C118.963 304.928 117.299 306.4 116.755 308.192V304.928L113.555 305.472V305.728C114.899 305.728 115.155 306.208 115.155 307.328V317.952C115.155 319.584 115.091 319.36 113.875 319.712V320H118.067V319.712C116.915 319.424 116.755 319.712 116.755 317.952V308.672C117.203 307.648 118.195 305.792 120.243 305.792C122.899 305.792 123.731 307.584 123.731 310.4V317.952C123.731 319.584 123.667 319.392 122.451 319.744V320H126.611V319.744C125.491 319.456 125.299 319.712 125.299 317.952V310.272C125.299 309.696 125.267 309.152 125.203 308.704C125.619 307.68 126.643 305.792 128.691 305.792C131.315 305.792 132.179 307.584 132.179 310.4V317.952C132.179 319.584 132.115 319.392 130.899 319.744V320H135.059V319.744C133.939 319.456 133.747 319.712 133.747 317.952ZM139.417 302.592H139.641L146.873 297.92L144.985 297.472L139.417 302.592ZM145.017 317.024C144.665 317.792 143.801 319.36 141.529 319.36C139.705 319.36 138.553 318.304 138.553 316.448C138.553 314.208 140.761 312.896 145.017 311.84V317.024ZM148.089 319.232C146.745 319.232 146.745 317.44 146.745 317.44V311.328C146.745 307.52 146.009 304.928 143.225 304.928C143.225 304.928 141.721 304.896 140.409 305.536C138.713 306.464 138.073 307.52 137.913 307.904C137.753 308.288 137.849 308.768 138.137 309.12C138.553 309.632 139.257 309.664 139.737 309.248C140.217 308.8 140.281 308.064 139.865 307.584C139.641 307.328 139.385 307.232 139.097 307.168C138.937 307.136 139.193 306.432 140.665 305.728C143.577 304.512 145.017 306.56 145.017 309.824V311.552C139.673 312.96 136.953 314.048 136.953 316.96C136.953 320.32 140.569 320.288 140.569 320.288C142.777 320.288 144.601 319.168 145.017 317.504C145.017 320.448 147.225 320.288 147.225 320.288C148.569 320.288 149.241 319.136 149.401 318.208L149.145 318.112C148.921 319.232 148.089 319.232 148.089 319.232ZM158.083 312.512L154.851 310.496C152.067 308.736 151.651 305.216 155.619 305.216C159.779 305.216 160.547 307.584 160.547 310.208H160.803V305.984C160.803 305.984 159.299 304.928 155.619 304.928C152.323 304.928 151.619 306.976 151.619 306.976C150.787 309.056 151.395 310.304 154.403 312.512L157.635 314.464C160.067 316.064 161.315 320 156.803 320C152.195 320 151.651 317.504 151.651 314.528H151.395V319.2C151.395 319.2 152.931 320.288 156.803 320.288C159.459 320.288 160.451 318.848 160.451 318.848C161.923 316.768 161.027 314.336 158.083 312.512ZM179.485 317.024C179.133 317.792 178.269 319.36 175.997 319.36C174.173 319.36 173.021 318.304 173.021 316.448C173.021 314.208 175.229 312.896 179.485 311.84V317.024ZM182.557 319.232C181.213 319.232 181.213 317.44 181.213 317.44V311.328C181.213 307.52 180.477 304.928 177.693 304.928C177.693 304.928 176.189 304.896 174.877 305.536C173.181 306.464 172.541 307.52 172.381 307.904C172.221 308.288 172.317 308.768 172.605 309.12C173.021 309.632 173.725 309.664 174.205 309.248C174.685 308.8 174.749 308.064 174.333 307.584C174.109 307.328 173.853 307.232 173.565 307.168C173.405 307.136 173.661 306.432 175.133 305.728C178.045 304.512 179.485 306.56 179.485 309.824V311.552C174.141 312.96 171.421 314.048 171.421 316.96C171.421 320.32 175.037 320.288 175.037 320.288C177.245 320.288 179.069 319.168 179.485 317.504C179.485 320.448 181.693 320.288 181.693 320.288C183.037 320.288 183.709 319.136 183.869 318.208L183.613 318.112C183.389 319.232 182.557 319.232 182.557 319.232ZM188.295 296.64L185.095 297.184V297.472C186.439 297.472 186.695 297.92 186.695 299.04V317.952C186.695 319.584 186.631 319.36 185.415 319.712V320H189.607V319.712C188.455 319.424 188.295 319.712 188.295 317.952V296.64ZM194.608 296.64L191.408 297.184V297.472C192.752 297.472 193.008 297.92 193.008 299.04V317.952C193.008 319.584 192.944 319.36 191.728 319.712V320H195.92V319.712C194.768 319.424 194.608 319.712 194.608 317.952V296.64ZM200.76 302.592H200.984L208.216 297.92L206.328 297.472L200.76 302.592ZM206.36 317.024C206.008 317.792 205.144 319.36 202.872 319.36C201.048 319.36 199.896 318.304 199.896 316.448C199.896 314.208 202.104 312.896 206.36 311.84V317.024ZM209.432 319.232C208.088 319.232 208.088 317.44 208.088 317.44V311.328C208.088 307.52 207.352 304.928 204.568 304.928C204.568 304.928 203.064 304.896 201.752 305.536C200.056 306.464 199.416 307.52 199.256 307.904C199.096 308.288 199.192 308.768 199.48 309.12C199.896 309.632 200.6 309.664 201.08 309.248C201.56 308.8 201.624 308.064 201.208 307.584C200.984 307.328 200.728 307.232 200.44 307.168C200.28 307.136 200.536 306.432 202.008 305.728C204.92 304.512 206.36 306.56 206.36 309.824V311.552C201.016 312.96 198.296 314.048 198.296 316.96C198.296 320.32 201.912 320.288 201.912 320.288C204.12 320.288 205.944 319.168 206.36 317.504C206.36 320.448 208.568 320.288 208.568 320.288C209.912 320.288 210.584 319.136 210.744 318.208L210.488 318.112C210.264 319.232 209.432 319.232 209.432 319.232ZM231.214 315.84C231.214 318.08 229.358 319.552 227.31 319.552C224.334 319.552 222.158 316.832 222.158 311.84C222.158 306.432 225.39 305.216 227.31 305.216C229.358 305.216 231.214 306.976 231.214 309.152V315.84ZM232.782 318.08V296.64L229.582 297.184V297.472C230.894 297.472 231.214 298.016 231.214 299.136V306.304C230.158 305.472 228.846 304.928 227.182 304.928C223.118 304.928 220.046 307.648 220.046 312.448C220.046 316.32 221.742 320.288 226.702 320.288C228.366 320.288 230.254 319.52 231.214 318.144V319.68C231.214 319.68 231.214 320.416 232.11 320.256L234.414 319.776V319.52C233.134 319.648 232.782 319.648 232.782 318.08ZM242.926 319.648C240.046 319.648 237.806 317.792 237.806 312.32H248.078C248.078 307.232 245.166 304.928 242.35 304.928C238.862 304.928 235.918 307.84 235.918 312.8C235.918 317.504 238.734 320.288 242.51 320.288C245.774 320.288 247.438 317.664 247.598 316.32L247.406 316.288C247.022 317.952 245.07 319.648 242.926 319.648ZM237.806 312C237.806 307.04 240.558 305.216 242.35 305.216C243.63 305.216 246.478 306.72 246.478 312H237.806ZM260.827 296.64L257.627 297.184V297.472C258.971 297.472 259.227 297.92 259.227 299.04V317.952C259.227 319.584 259.163 319.36 257.947 319.712V320H262.139V319.712C260.987 319.424 260.827 319.712 260.827 317.952V296.64ZM271.651 304.928C266.787 304.928 264.515 308.384 264.515 312.608C264.515 316.8 266.787 320.288 271.651 320.288C276.547 320.288 278.787 316.8 278.787 312.608C278.787 308.384 276.547 304.928 271.651 304.928ZM271.651 320C269.059 320 266.339 318.4 266.339 312.608C266.339 306.816 269.059 305.216 271.651 305.216C274.243 305.216 276.931 306.816 276.931 312.608C276.931 318.4 274.243 320 271.651 320ZM97.6618 352.936C97.2458 354.472 95.8058 356.584 92.7338 356.584C90.3978 356.584 87.4538 354.664 87.4538 349.576C87.4538 343.144 91.3898 342.216 92.7978 342.216C95.7738 342.216 96.8618 343.528 96.5418 343.432C96.3818 343.368 96.0618 343.368 95.7418 343.496C95.1978 343.752 95.0058 344.392 95.2938 344.968C95.5178 345.48 96.2538 345.608 96.7658 345.384C97.1498 345.16 97.3418 344.808 97.3418 344.392C97.3418 343.848 96.7978 341.928 92.7978 341.928C88.4778 341.928 85.5338 345.544 85.5338 349.704C85.5338 355.368 89.4698 357.288 92.4138 357.288C96.2858 357.288 97.6298 354.536 97.8858 352.968L97.6618 352.936ZM107.417 341.928C102.553 341.928 100.281 345.384 100.281 349.608C100.281 353.8 102.553 357.288 107.417 357.288C112.313 357.288 114.553 353.8 114.553 349.608C114.553 345.384 112.313 341.928 107.417 341.928ZM107.417 357C104.825 357 102.105 355.4 102.105 349.608C102.105 343.816 104.825 342.216 107.417 342.216C110.009 342.216 112.697 343.816 112.697 349.608C112.697 355.4 110.009 357 107.417 357ZM136.607 354.952V347.272C136.607 343.432 134.975 341.928 132.255 341.928C130.175 341.928 128.511 343.528 127.999 345.384C127.551 342.92 126.079 341.928 123.839 341.928C121.823 341.928 120.159 343.4 119.615 345.192V341.928L116.415 342.472V342.728C117.759 342.728 118.015 343.208 118.015 344.328V354.952C118.015 356.584 117.951 356.36 116.735 356.712V357H120.927V356.712C119.775 356.424 119.615 356.712 119.615 354.952V345.672C120.062 344.648 121.055 342.792 123.103 342.792C125.759 342.792 126.591 344.584 126.591 347.4V354.952C126.591 356.584 126.527 356.392 125.311 356.744V357H129.471V356.744C128.351 356.456 128.159 356.712 128.159 354.952V347.272C128.159 346.696 128.127 346.152 128.063 345.704C128.479 344.68 129.503 342.792 131.551 342.792C134.175 342.792 135.039 344.584 135.039 347.4V354.952C135.039 356.584 134.975 356.392 133.759 356.744V357H137.919V356.744C136.799 356.456 136.607 356.712 136.607 354.952ZM146.692 356.648C143.812 356.648 141.572 354.792 141.572 349.32H151.844C151.844 344.232 148.932 341.928 146.116 341.928C142.628 341.928 139.684 344.84 139.684 349.8C139.684 354.504 142.5 357.288 146.276 357.288C149.54 357.288 151.204 354.664 151.364 353.32L151.172 353.288C150.788 354.952 148.836 356.648 146.692 356.648ZM141.572 349C141.572 344.04 144.324 342.216 146.116 342.216C147.396 342.216 150.244 343.72 150.244 349H141.572ZM161.605 341.96C159.781 341.736 157.445 343.336 156.773 345V341.928L153.573 342.472V342.728C154.917 342.728 155.173 343.176 155.173 344.296V354.952C155.173 356.584 155.109 356.36 153.893 356.712V357H158.085V356.712C156.933 356.424 156.773 356.712 156.773 354.952V345.64C157.605 343.272 160.645 342.088 160.357 342.792C160.261 343.08 160.261 343.4 160.357 343.688C160.645 344.328 161.381 344.616 161.989 344.36C162.629 344.072 162.917 343.4 162.661 342.76C162.437 342.312 162.053 342.024 161.605 341.96ZM176.943 352.936C176.527 354.472 175.087 356.584 172.015 356.584C169.679 356.584 166.735 354.664 166.735 349.576C166.735 343.144 170.671 342.216 172.079 342.216C175.055 342.216 176.143 343.528 175.823 343.432C175.663 343.368 175.343 343.368 175.023 343.496C174.479 343.752 174.287 344.392 174.575 344.968C174.799 345.48 175.535 345.608 176.047 345.384C176.431 345.16 176.623 344.808 176.623 344.392C176.623 343.848 176.079 341.928 172.079 341.928C167.759 341.928 164.815 345.544 164.815 349.704C164.815 355.368 168.751 357.288 171.695 357.288C175.567 357.288 176.911 354.536 177.167 352.968L176.943 352.936ZM182.378 341.928L179.21 342.472V342.728C180.554 342.728 180.778 343.176 180.778 344.296V354.952C180.778 356.584 180.714 356.36 179.498 356.712V357H183.69V356.712C182.538 356.424 182.378 356.712 182.378 354.952V341.928ZM182.346 338.088C182.346 337.448 181.834 336.968 181.258 336.968C180.65 336.968 180.202 337.448 180.202 338.088C180.202 338.664 180.65 339.144 181.258 339.144C181.834 339.144 182.346 338.664 182.346 338.088ZM194.282 354.024C193.93 354.792 193.066 356.36 190.794 356.36C188.97 356.36 187.818 355.304 187.818 353.448C187.818 351.208 190.026 349.896 194.282 348.84V354.024ZM197.354 356.232C196.01 356.232 196.01 354.44 196.01 354.44V348.328C196.01 344.52 195.274 341.928 192.49 341.928C192.49 341.928 190.986 341.896 189.674 342.536C187.978 343.464 187.338 344.52 187.178 344.904C187.018 345.288 187.114 345.768 187.402 346.12C187.818 346.632 188.522 346.664 189.002 346.248C189.482 345.8 189.546 345.064 189.13 344.584C188.906 344.328 188.65 344.232 188.362 344.168C188.202 344.136 188.458 343.432 189.93 342.728C192.842 341.512 194.282 343.56 194.282 346.824V348.552C188.938 349.96 186.218 351.048 186.218 353.96C186.218 357.32 189.834 357.288 189.834 357.288C192.042 357.288 193.866 356.168 194.282 354.504C194.282 357.448 196.49 357.288 196.49 357.288C197.834 357.288 198.506 356.136 198.666 355.208L198.41 355.112C198.186 356.232 197.354 356.232 197.354 356.232ZM203.092 333.64L199.892 334.184V334.472C201.236 334.472 201.492 334.92 201.492 336.04V354.952C201.492 356.584 201.428 356.36 200.212 356.712V357H204.404V356.712C203.252 356.424 203.092 356.712 203.092 354.952V333.64ZM209.405 356.104C209.405 355.464 208.893 354.984 208.317 354.984C207.709 354.984 207.261 355.464 207.261 356.104C207.261 356.68 207.709 357.16 208.317 357.16C208.893 357.16 209.405 356.68 209.405 356.104Z" fill="white"/>
<path d="M154.953 286.2H277.117V287.8H154.953V286.2ZM14.7031 323.2H105.666V324.8H14.7031V323.2Z" fill="white"/>
</svg>
