<svg width="372" height="42" viewBox="0 0 372 42" fill="none" xmlns="http://www.w3.org/2000/svg">
<path d="M22.4453 0.207997V0.591998C28.4453 0.591998 28.4453 2.992 28.4453 11.92V29.92L6.2693 0.207997H0.269297V0.591998C1.5173 0.688 2.9093 0.591998 5.9813 4.432L8.0453 7.168V22.24C8.0453 30.88 7.9973 33.568 1.3733 33.568V34H14.5253V33.568C8.5253 33.568 8.4773 30.736 8.4773 22.24V7.744L28.3493 34H28.8773V11.92C28.8773 2.992 28.6853 0.591998 35.3093 0.591998V0.207997H22.4453ZM55.7127 30.4V11.392L51.0567 12.256V12.64C53.3127 12.64 53.3127 12.688 53.3127 15.616V28.912C52.6407 31.024 50.9607 33.184 47.5527 33.184C44.7687 33.184 41.6967 31.696 41.6967 27.136V11.392L36.7047 12.256V12.64C39.3927 12.64 39.3927 12.64 39.3927 15.952V27.28C39.3927 33.472 43.9047 34.432 47.0247 34.432C50.4807 34.432 52.7847 32.272 53.3127 29.92V33.856C53.3127 33.856 53.2647 34.624 54.3207 34.384L58.1607 33.76V33.376C56.1447 33.136 55.7127 32.704 55.7127 30.4ZM71.3329 33.472C67.0129 33.472 63.6529 30.688 63.6529 22.48H79.0609C79.0609 14.848 74.6929 11.392 70.4689 11.392C65.2369 11.392 60.8209 15.76 60.8209 23.2C60.8209 30.256 65.0449 34.432 70.7089 34.432C75.6049 34.432 78.1009 30.496 78.3409 28.48L78.0529 28.432C77.4769 30.928 74.5489 33.472 71.3329 33.472ZM63.6529 22C63.6529 14.56 67.7809 11.824 70.4689 11.824C72.3889 11.824 76.6609 14.08 76.6609 22H63.6529ZM93.2704 22.768L88.4224 19.744C84.2464 17.104 83.6224 11.824 89.5744 11.824C95.8144 11.824 96.9664 15.376 96.9664 19.312H97.3504V12.976C97.3504 12.976 95.0944 11.392 89.5744 11.392C84.6304 11.392 83.5744 14.464 83.5744 14.464C82.3264 17.584 83.2384 19.456 87.7504 22.768L92.5984 25.696C96.2464 28.096 98.1184 34 91.3504 34C84.4384 34 83.6224 30.256 83.6224 25.792H83.2384V32.8C83.2384 32.8 85.5424 34.432 91.3504 34.432C95.3344 34.432 96.8224 32.272 96.8224 32.272C99.0304 29.152 97.6864 25.504 93.2704 22.768ZM109.518 33.136C107.358 33.136 105.774 31.888 105.774 26.944V12.256H111.342L111.438 11.824H105.774V4.288L103.374 4.576V11.824H100.878L100.926 12.256H103.374V27.088C103.374 32.896 105.39 34.432 108.558 34.432C110.91 34.432 112.35 32.8 112.734 30.832L112.446 30.736C112.11 32.032 110.91 33.136 109.518 33.136ZM126.187 11.44C123.451 11.104 119.947 13.504 118.939 16V11.392L114.139 12.208V12.592C116.155 12.592 116.539 13.264 116.539 14.944V30.928C116.539 33.376 116.443 33.04 114.619 33.568V34H120.907V33.568C119.179 33.136 118.939 33.568 118.939 30.928V16.96C120.187 13.408 124.747 11.632 124.315 12.688C124.171 13.12 124.171 13.6 124.315 14.032C124.747 14.992 125.851 15.424 126.763 15.04C127.723 14.608 128.155 13.6 127.771 12.64C127.435 11.968 126.859 11.536 126.187 11.44ZM141.514 11.392C134.218 11.392 130.81 16.576 130.81 22.912C130.81 29.2 134.218 34.432 141.514 34.432C148.858 34.432 152.218 29.2 152.218 22.912C152.218 16.576 148.858 11.392 141.514 11.392ZM141.514 34C137.626 34 133.546 31.6 133.546 22.912C133.546 14.224 137.626 11.824 141.514 11.824C145.402 11.824 149.434 14.224 149.434 22.912C149.434 31.6 145.402 34 141.514 34ZM166.77 22.768L161.922 19.744C157.746 17.104 157.122 11.824 163.074 11.824C169.314 11.824 170.466 15.376 170.466 19.312H170.85V12.976C170.85 12.976 168.594 11.392 163.074 11.392C158.13 11.392 157.074 14.464 157.074 14.464C155.826 17.584 156.738 19.456 161.25 22.768L166.098 25.696C169.746 28.096 171.618 34 164.85 34C157.938 34 157.122 30.256 157.122 25.792H156.738V32.8C156.738 32.8 159.042 34.432 164.85 34.432C168.834 34.432 170.322 32.272 170.322 32.272C172.53 29.152 171.186 25.504 166.77 22.768ZM200.279 34.4941C207.004 34.4941 211.752 30.8633 212.848 24.8262H209.904C208.98 29.123 205.242 31.7656 200.301 31.7656C193.705 31.7656 189.473 26.5879 189.473 18.4238C189.473 10.3672 193.705 5.23242 200.279 5.23242C205.092 5.23242 209.045 8.36914 209.904 12.8379H212.848C212.01 6.7793 206.832 2.50391 200.279 2.50391C191.857 2.50391 186.465 8.71289 186.465 18.4238C186.465 28.2422 191.836 34.4941 200.279 34.4941ZM235.643 31.3359H220.109V2.99805H217.188V34H235.643V31.3359ZM242.711 34V2.99805H239.789V34H242.711ZM267.225 31.3359H251.434V19.4336H266.43V16.8125H251.434V5.66211H267.225V2.99805H248.512V34H267.225V31.3359ZM275.131 34V8.08984H275.281L293.521 34H296.357V2.99805H293.457V28.8867H293.307L275.131 2.99805H272.23V34H275.131ZM313.266 34V5.66211H323.514V2.99805H300.096V5.66211H310.322V34H313.266ZM345.943 31.3359H330.152V19.4336H345.148V16.8125H330.152V5.66211H345.943V2.99805H327.23V34H345.943V31.3359ZM348.973 25.5781C349.295 30.9062 353.85 34.4941 360.338 34.4941C367.191 34.4941 371.574 30.9277 371.574 25.4922C371.574 21.1738 368.953 18.7891 362.723 17.2207L359.371 16.3613C354.816 15.2012 352.883 13.6328 352.883 10.9688C352.883 7.55273 356.062 5.16797 360.359 5.16797C364.764 5.16797 367.857 7.48828 368.137 10.9902H371.08C370.908 6.07031 366.482 2.50391 360.445 2.50391C354.344 2.50391 349.832 6.07031 349.832 11.0762C349.832 15.1582 352.389 17.5859 358.125 19.0469L361.971 20.0352C366.568 21.1953 368.566 22.9141 368.566 25.8145C368.566 29.2949 365.236 31.8301 360.596 31.8301C355.74 31.8301 352.238 29.2949 351.916 25.5781H348.973Z" fill="black"/>
<path d="M0.0292969 38.8H173.49V41.2H0.0292969V38.8Z" fill="black"/>
</svg>
