<svg width="177" height="73" viewBox="0 0 177 73" fill="none" xmlns="http://www.w3.org/2000/svg">
<path d="M37.5751 0.247998V0.551998C42.3251 0.551998 42.3251 2.452 42.3251 9.52V23.77L24.7691 0.247998H20.0191V0.551998C21.0071 0.628 22.1091 0.551998 24.5411 3.592L26.1751 5.758V17.69C26.1751 24.53 26.1371 26.658 20.8931 26.658V27H31.3051V26.658C26.5551 26.658 26.5171 24.416 26.5171 17.69V6.214L42.2491 27H42.6671V9.52C42.6671 2.452 42.5151 0.551998 47.7591 0.551998V0.247998H37.5751ZM63.9118 24.15V9.102L60.2258 9.786V10.09C62.0118 10.09 62.0118 10.128 62.0118 12.446V22.972C61.4798 24.644 60.1498 26.354 57.4518 26.354C55.2478 26.354 52.8158 25.176 52.8158 21.566V9.102L48.8638 9.786V10.09C50.9918 10.09 50.9918 10.09 50.9918 12.712V21.68C50.9918 26.582 54.5638 27.342 57.0338 27.342C59.7698 27.342 61.5938 25.632 62.0118 23.77V26.886C62.0118 26.886 61.9738 27.494 62.8098 27.304L65.8498 26.81V26.506C64.2538 26.316 63.9118 25.974 63.9118 24.15ZM76.2778 26.582C72.8578 26.582 70.1978 24.378 70.1978 17.88H82.3958C82.3958 11.838 78.9378 9.102 75.5938 9.102C71.4518 9.102 67.9558 12.56 67.9558 18.45C67.9558 24.036 71.2998 27.342 75.7838 27.342C79.6598 27.342 81.6358 24.226 81.8258 22.63L81.5978 22.592C81.1418 24.568 78.8238 26.582 76.2778 26.582ZM70.1978 17.5C70.1978 11.61 73.4658 9.444 75.5938 9.444C77.1138 9.444 80.4958 11.23 80.4958 17.5H70.1978ZM93.645 18.108L89.807 15.714C86.501 13.624 86.007 9.444 90.719 9.444C95.659 9.444 96.571 12.256 96.571 15.372H96.875V10.356C96.875 10.356 95.089 9.102 90.719 9.102C86.805 9.102 85.969 11.534 85.969 11.534C84.981 14.004 85.703 15.486 89.275 18.108L93.113 20.426C96.001 22.326 97.483 27 92.125 27C86.653 27 86.007 24.036 86.007 20.502H85.703V26.05C85.703 26.05 87.527 27.342 92.125 27.342C95.279 27.342 96.457 25.632 96.457 25.632C98.205 23.162 97.141 20.274 93.645 18.108ZM106.507 26.316C104.797 26.316 103.543 25.328 103.543 21.414V9.786H107.951L108.027 9.444H103.543V3.478L101.643 3.706V9.444H99.6674L99.7054 9.786H101.643V21.528C101.643 26.126 103.239 27.342 105.747 27.342C107.609 27.342 108.749 26.05 109.053 24.492L108.825 24.416C108.559 25.442 107.609 26.316 106.507 26.316ZM119.704 9.14C117.538 8.874 114.764 10.774 113.966 12.75V9.102L110.166 9.748V10.052C111.762 10.052 112.066 10.584 112.066 11.914V24.568C112.066 26.506 111.99 26.24 110.546 26.658V27H115.524V26.658C114.156 26.316 113.966 26.658 113.966 24.568V13.51C114.954 10.698 118.564 9.292 118.222 10.128C118.108 10.47 118.108 10.85 118.222 11.192C118.564 11.952 119.438 12.294 120.16 11.99C120.92 11.648 121.262 10.85 120.958 10.09C120.692 9.558 120.236 9.216 119.704 9.14ZM131.838 9.102C126.062 9.102 123.364 13.206 123.364 18.222C123.364 23.2 126.062 27.342 131.838 27.342C137.652 27.342 140.312 23.2 140.312 18.222C140.312 13.206 137.652 9.102 131.838 9.102ZM131.838 27C128.76 27 125.53 25.1 125.53 18.222C125.53 11.344 128.76 9.444 131.838 9.444C134.916 9.444 138.108 11.344 138.108 18.222C138.108 25.1 134.916 27 131.838 27ZM151.832 18.108L147.994 15.714C144.688 13.624 144.194 9.444 148.906 9.444C153.846 9.444 154.758 12.256 154.758 15.372H155.062V10.356C155.062 10.356 153.276 9.102 148.906 9.102C144.992 9.102 144.156 11.534 144.156 11.534C143.168 14.004 143.89 15.486 147.462 18.108L151.3 20.426C154.188 22.326 155.67 27 150.312 27C144.84 27 144.194 24.036 144.194 20.502H143.89V26.05C143.89 26.05 145.714 27.342 150.312 27.342C153.466 27.342 154.644 25.632 154.644 25.632C156.392 23.162 155.328 20.274 151.832 18.108ZM0.884766 64.7266C1.16309 69.3281 5.09668 72.4268 10.7002 72.4268C16.6191 72.4268 20.4043 69.3467 20.4043 64.6523C20.4043 60.9229 18.1406 58.8633 12.7598 57.5088L9.86523 56.7666C5.93164 55.7646 4.26172 54.4102 4.26172 52.1094C4.26172 49.1592 7.00781 47.0996 10.7188 47.0996C14.5225 47.0996 17.1943 49.1035 17.4355 52.1279H19.9775C19.8291 47.8789 16.0068 44.7988 10.793 44.7988C5.52344 44.7988 1.62695 47.8789 1.62695 52.2021C1.62695 55.7275 3.83496 57.8242 8.78906 59.0859L12.1104 59.9395C16.0811 60.9414 17.8066 62.4258 17.8066 64.9307C17.8066 67.9365 14.9307 70.126 10.9229 70.126C6.72949 70.126 3.70508 67.9365 3.42676 64.7266H0.884766ZM40.2764 69.6992H26.6387V59.4199H39.5898V57.1562H26.6387V47.5264H40.2764V45.2256H24.1152V72H40.2764V69.6992ZM47.123 47.4893H53.7471C57.6436 47.4893 60 49.5859 60 53.1299C60 56.7109 57.7363 58.7891 53.8398 58.7891H47.123V47.4893ZM47.123 61.0342H53.8398C53.9697 61.0342 54.1553 61.0342 54.248 61.0342L60.4082 72H63.377L56.8828 60.626C60.4639 59.6982 62.6162 56.8408 62.6162 53.0557C62.6162 48.2871 59.2764 45.2256 54.0439 45.2256H44.5996V72H47.123V61.0342ZM77.2188 72L87.2383 45.2256H84.5664L76.0127 68.8457H75.9014L67.3662 45.2256H64.6758L74.6953 72H77.2188ZM92.6934 72V45.2256H90.1699V72H92.6934ZM108.558 72.4268C114.365 72.4268 118.466 69.291 119.412 64.0771H116.87C116.072 67.7881 112.844 70.0703 108.576 70.0703C102.88 70.0703 99.2246 65.5986 99.2246 58.5479C99.2246 51.5898 102.88 47.1553 108.558 47.1553C112.714 47.1553 116.128 49.8643 116.87 53.7236H119.412C118.688 48.4912 114.217 44.7988 108.558 44.7988C101.284 44.7988 96.627 50.1611 96.627 58.5479C96.627 67.0273 101.266 72.4268 108.558 72.4268ZM125.684 72V45.2256H123.16V72H125.684ZM141.771 44.7988C134.312 44.7988 129.617 50.1426 129.617 58.6221C129.617 67.1016 134.312 72.4268 141.771 72.4268C149.248 72.4268 153.942 67.1016 153.942 58.6221C153.942 50.1426 149.229 44.7988 141.771 44.7988ZM141.771 47.1553C147.634 47.1553 151.345 51.5898 151.345 58.6221C151.345 65.6357 147.634 70.0703 141.771 70.0703C135.907 70.0703 132.215 65.6357 132.215 58.6221C132.215 51.5898 135.907 47.1553 141.771 47.1553ZM156.596 64.7266C156.874 69.3281 160.808 72.4268 166.411 72.4268C172.33 72.4268 176.115 69.3467 176.115 64.6523C176.115 60.9229 173.852 58.8633 168.471 57.5088L165.576 56.7666C161.643 55.7646 159.973 54.4102 159.973 52.1094C159.973 49.1592 162.719 47.0996 166.43 47.0996C170.233 47.0996 172.905 49.1035 173.146 52.1279H175.688C175.54 47.8789 171.718 44.7988 166.504 44.7988C161.234 44.7988 157.338 47.8789 157.338 52.2021C157.338 55.7275 159.546 57.8242 164.5 59.0859L167.821 59.9395C171.792 60.9414 173.518 62.4258 173.518 64.9307C173.518 67.9365 170.642 70.126 166.634 70.126C162.44 70.126 159.416 67.9365 159.138 64.7266H156.596Z" fill="white"/>
<path d="M19.8291 30.8H157.152V32.7H19.8291V30.8Z" fill="white"/>
</svg>
