<svg width="390" height="42" viewBox="0 0 390 42" fill="none" xmlns="http://www.w3.org/2000/svg">
<path d="M22.6797 0.207997V0.591998C28.6797 0.591998 28.6797 2.992 28.6797 11.92V29.92L6.50367 0.207997H0.503672V0.591998C1.75167 0.688 3.14367 0.591998 6.21567 4.432L8.27967 7.168V22.24C8.27967 30.88 8.23167 33.568 1.60767 33.568V34H14.7597V33.568C8.75967 33.568 8.71167 30.736 8.71167 22.24V7.744L28.5837 34H29.1117V11.92C29.1117 2.992 28.9197 0.591998 35.5437 0.591998V0.207997H22.6797ZM55.947 30.4V11.392L51.291 12.256V12.64C53.547 12.64 53.547 12.688 53.547 15.616V28.912C52.875 31.024 51.195 33.184 47.787 33.184C45.003 33.184 41.931 31.696 41.931 27.136V11.392L36.939 12.256V12.64C39.627 12.64 39.627 12.64 39.627 15.952V27.28C39.627 33.472 44.139 34.432 47.259 34.432C50.715 34.432 53.019 32.272 53.547 29.92V33.856C53.547 33.856 53.499 34.624 54.555 34.384L58.395 33.76V33.376C56.379 33.136 55.947 32.704 55.947 30.4ZM71.5673 33.472C67.2473 33.472 63.8873 30.688 63.8873 22.48H79.2953C79.2953 14.848 74.9273 11.392 70.7033 11.392C65.4713 11.392 61.0553 15.76 61.0553 23.2C61.0553 30.256 65.2793 34.432 70.9433 34.432C75.8393 34.432 78.3353 30.496 78.5753 28.48L78.2873 28.432C77.7113 30.928 74.7833 33.472 71.5673 33.472ZM63.8873 22C63.8873 14.56 68.0153 11.824 70.7033 11.824C72.6233 11.824 76.8953 14.08 76.8953 22H63.8873ZM93.5048 22.768L88.6568 19.744C84.4808 17.104 83.8568 11.824 89.8088 11.824C96.0488 11.824 97.2008 15.376 97.2008 19.312H97.5848V12.976C97.5848 12.976 95.3288 11.392 89.8088 11.392C84.8648 11.392 83.8088 14.464 83.8088 14.464C82.5608 17.584 83.4728 19.456 87.9848 22.768L92.8328 25.696C96.4808 28.096 98.3528 34 91.5848 34C84.6728 34 83.8568 30.256 83.8568 25.792H83.4728V32.8C83.4728 32.8 85.7768 34.432 91.5848 34.432C95.5688 34.432 97.0568 32.272 97.0568 32.272C99.2648 29.152 97.9208 25.504 93.5048 22.768ZM109.752 33.136C107.592 33.136 106.008 31.888 106.008 26.944V12.256H111.576L111.672 11.824H106.008V4.288L103.608 4.576V11.824H101.112L101.16 12.256H103.608V27.088C103.608 32.896 105.624 34.432 108.792 34.432C111.144 34.432 112.584 32.8 112.968 30.832L112.68 30.736C112.344 32.032 111.144 33.136 109.752 33.136ZM126.421 11.44C123.685 11.104 120.181 13.504 119.173 16V11.392L114.373 12.208V12.592C116.389 12.592 116.773 13.264 116.773 14.944V30.928C116.773 33.376 116.677 33.04 114.853 33.568V34H121.141V33.568C119.413 33.136 119.173 33.568 119.173 30.928V16.96C120.421 13.408 124.981 11.632 124.549 12.688C124.405 13.12 124.405 13.6 124.549 14.032C124.981 14.992 126.085 15.424 126.997 15.04C127.957 14.608 128.389 13.6 128.005 12.64C127.669 11.968 127.093 11.536 126.421 11.44ZM141.748 11.392C134.452 11.392 131.044 16.576 131.044 22.912C131.044 29.2 134.452 34.432 141.748 34.432C149.092 34.432 152.452 29.2 152.452 22.912C152.452 16.576 149.092 11.392 141.748 11.392ZM141.748 34C137.86 34 133.78 31.6 133.78 22.912C133.78 14.224 137.86 11.824 141.748 11.824C145.636 11.824 149.668 14.224 149.668 22.912C149.668 31.6 145.636 34 141.748 34ZM167.005 22.768L162.157 19.744C157.981 17.104 157.357 11.824 163.309 11.824C169.549 11.824 170.701 15.376 170.701 19.312H171.085V12.976C171.085 12.976 168.829 11.392 163.309 11.392C158.365 11.392 157.309 14.464 157.309 14.464C156.061 17.584 156.973 19.456 161.485 22.768L166.333 25.696C169.981 28.096 171.853 34 165.085 34C158.173 34 157.357 30.256 157.357 25.792H156.973V32.8C156.973 32.8 159.277 34.432 165.085 34.432C169.069 34.432 170.557 32.272 170.557 32.272C172.765 29.152 171.421 25.504 167.005 22.768ZM186.441 25.5781C186.764 30.9062 191.318 34.4941 197.807 34.4941C204.66 34.4941 209.043 30.9277 209.043 25.4922C209.043 21.1738 206.422 18.7891 200.191 17.2207L196.84 16.3613C192.285 15.2012 190.352 13.6328 190.352 10.9688C190.352 7.55273 193.531 5.16797 197.828 5.16797C202.232 5.16797 205.326 7.48828 205.605 10.9902H208.549C208.377 6.07031 203.951 2.50391 197.914 2.50391C191.812 2.50391 187.301 6.07031 187.301 11.0762C187.301 15.1582 189.857 17.5859 195.594 19.0469L199.439 20.0352C204.037 21.1953 206.035 22.9141 206.035 25.8145C206.035 29.2949 202.705 31.8301 198.064 31.8301C193.209 31.8301 189.707 29.2949 189.385 25.5781H186.441ZM232.053 31.3359H216.262V19.4336H231.258V16.8125H216.262V5.66211H232.053V2.99805H213.34V34H232.053V31.3359ZM239.98 5.61914H247.65C252.162 5.61914 254.891 8.04688 254.891 12.1504C254.891 16.2969 252.27 18.7031 247.758 18.7031H239.98V5.61914ZM239.98 21.3027H247.758C247.908 21.3027 248.123 21.3027 248.23 21.3027L255.363 34H258.801L251.281 20.8301C255.428 19.7559 257.92 16.4473 257.92 12.0645C257.92 6.54297 254.053 2.99805 247.994 2.99805H237.059V34H239.98V21.3027ZM274.828 34L286.43 2.99805H283.336L273.432 30.3477H273.303L263.42 2.99805H260.305L271.906 34H274.828ZM292.746 34V2.99805H289.824V34H292.746ZM311.115 34.4941C317.84 34.4941 322.588 30.8633 323.684 24.8262H320.74C319.816 29.123 316.078 31.7656 311.137 31.7656C304.541 31.7656 300.309 26.5879 300.309 18.4238C300.309 10.3672 304.541 5.23242 311.115 5.23242C315.928 5.23242 319.881 8.36914 320.74 12.8379H323.684C322.846 6.7793 317.668 2.50391 311.115 2.50391C302.693 2.50391 297.301 8.71289 297.301 18.4238C297.301 28.2422 302.672 34.4941 311.115 34.4941ZM330.945 34V2.99805H328.023V34H330.945ZM349.572 2.50391C340.936 2.50391 335.5 8.69141 335.5 18.5098C335.5 28.3281 340.936 34.4941 349.572 34.4941C358.23 34.4941 363.666 28.3281 363.666 18.5098C363.666 8.69141 358.209 2.50391 349.572 2.50391ZM349.572 5.23242C356.361 5.23242 360.658 10.3672 360.658 18.5098C360.658 26.6309 356.361 31.7656 349.572 31.7656C342.783 31.7656 338.508 26.6309 338.508 18.5098C338.508 10.3672 342.783 5.23242 349.572 5.23242ZM366.738 25.5781C367.061 30.9062 371.615 34.4941 378.104 34.4941C384.957 34.4941 389.34 30.9277 389.34 25.4922C389.34 21.1738 386.719 18.7891 380.488 17.2207L377.137 16.3613C372.582 15.2012 370.648 13.6328 370.648 10.9688C370.648 7.55273 373.828 5.16797 378.125 5.16797C382.529 5.16797 385.623 7.48828 385.902 10.9902H388.846C388.674 6.07031 384.248 2.50391 378.211 2.50391C372.109 2.50391 367.598 6.07031 367.598 11.0762C367.598 15.1582 370.154 17.5859 375.891 19.0469L379.736 20.0352C384.334 21.1953 386.332 22.9141 386.332 25.8145C386.332 29.2949 383.002 31.8301 378.361 31.8301C373.506 31.8301 370.004 29.2949 369.682 25.5781H366.738Z" fill="white"/>
<path d="M0.263672 38.8H173.725V41.2H0.263672V38.8Z" fill="white"/>
</svg>
