<svg width="708" height="277" viewBox="0 0 708 277" fill="none" xmlns="http://www.w3.org/2000/svg">
<path d="M69.7173 23.72L62.6773 19.12C55.8373 14.68 60.8373 8.84 65.1573 8.84C72.0773 8.84 72.7573 11.28 72.7573 17.04H73.1573V10.32C73.1573 10.32 69.9173 8.48 65.1573 8.48C60.3173 8.48 58.3573 11.64 58.3573 11.64C55.5173 16.76 60.7173 20 62.6373 21.48L69.7173 26.2C74.2373 29.28 73.9173 37 66.0373 37C59.5573 37 58.2773 34.96 58.2773 27.64H57.9573V35.32C57.9573 35.32 60.7973 37.36 66.0773 37.36C72.0373 37.36 73.5573 34.08 73.5573 34.08C74.7573 31.84 75.1573 27.32 69.7173 23.72ZM86.8764 18.16C80.7964 18.16 77.9564 22.48 77.9564 27.76C77.9564 33 80.7964 37.36 86.8764 37.36C92.9964 37.36 95.7964 33 95.7964 27.76C95.7964 22.48 92.9964 18.16 86.8764 18.16ZM86.8764 37C83.6364 37 80.2364 35 80.2364 27.76C80.2364 20.52 83.6364 18.52 86.8764 18.52C90.1164 18.52 93.4764 20.52 93.4764 27.76C93.4764 35 90.1164 37 86.8764 37ZM123.364 34.44V24.84C123.364 20.04 121.324 18.16 117.924 18.16C115.324 18.16 113.244 20.16 112.604 22.48C112.044 19.4 110.204 18.16 107.404 18.16C104.884 18.16 102.804 20 102.124 22.24V18.16L98.1236 18.84V19.16C99.8036 19.16 100.124 19.76 100.124 21.16V34.44C100.124 36.48 100.044 36.2 98.5236 36.64V37H103.764V36.64C102.324 36.28 102.124 36.64 102.124 34.44V22.84C102.684 21.56 103.924 19.24 106.484 19.24C109.804 19.24 110.844 21.48 110.844 25V34.44C110.844 36.48 110.764 36.24 109.244 36.68V37H114.444V36.68C113.044 36.32 112.804 36.64 112.804 34.44V24.84C112.804 24.12 112.764 23.44 112.684 22.88C113.204 21.6 114.484 19.24 117.044 19.24C120.324 19.24 121.404 21.48 121.404 25V34.44C121.404 36.48 121.324 36.24 119.804 36.68V37H125.004V36.68C123.604 36.32 123.364 36.64 123.364 34.44ZM136.29 18.16C130.21 18.16 127.37 22.48 127.37 27.76C127.37 33 130.21 37.36 136.29 37.36C142.41 37.36 145.21 33 145.21 27.76C145.21 22.48 142.41 18.16 136.29 18.16ZM136.29 37C133.05 37 129.65 35 129.65 27.76C129.65 20.52 133.05 18.52 136.29 18.52C139.53 18.52 142.89 20.52 142.89 27.76C142.89 35 139.53 37 136.29 37ZM157.338 27.64L153.298 25.12C149.818 22.92 149.298 18.52 154.258 18.52C159.458 18.52 160.418 21.48 160.418 24.76H160.738V19.48C160.738 19.48 158.858 18.16 154.258 18.16C150.138 18.16 149.258 20.72 149.258 20.72C148.218 23.32 148.978 24.88 152.738 27.64L156.778 30.08C159.818 32.08 161.378 37 155.738 37C149.978 37 149.298 33.88 149.298 30.16H148.978V36C148.978 36 150.898 37.36 155.738 37.36C159.058 37.36 160.298 35.56 160.298 35.56C162.138 32.96 161.018 29.92 157.338 27.64ZM177.664 8.81641H175.008V27.1562C175.008 33.2305 179.129 37.4492 185.906 37.4492C192.684 37.4492 196.824 33.2305 196.824 27.1562V8.81641H194.148V27C194.148 31.7266 191.082 34.9688 185.906 34.9688C180.75 34.9688 177.664 31.7266 177.664 27V8.81641ZM204.715 37V13.4453H204.852L221.434 37H224.012V8.81641H221.375V32.3516H221.238L204.715 8.81641H202.078V37H204.715ZM254.52 34.5781H240.164V23.7578H253.797V21.375H240.164V11.2383H254.52V8.81641H237.508V37H254.52V34.5781ZM270.73 37.4492C272.684 37.4492 274.422 37.0977 275.984 36.4336L278.816 40.3008H281.824L278.152 35.2617C281.59 32.8203 283.543 28.5039 283.543 22.918C283.543 13.9922 278.582 8.36719 270.73 8.36719C262.879 8.36719 257.938 13.9922 257.938 22.918C257.938 31.8438 262.859 37.4492 270.73 37.4492ZM270.73 34.9688C264.578 34.9688 260.672 30.3008 260.672 22.918C260.672 15.5156 264.559 10.8477 270.73 10.8477C276.902 10.8477 280.789 15.5156 280.789 22.918C280.789 27.5078 279.285 31.1016 276.59 33.1133L273.797 29.2852H270.789L274.441 34.3047C273.328 34.7344 272.078 34.9688 270.73 34.9688ZM290.359 8.81641H287.703V27.1562C287.703 33.2305 291.824 37.4492 298.602 37.4492C305.379 37.4492 309.52 33.2305 309.52 27.1562V8.81641H306.844V27C306.844 31.7266 303.777 34.9688 298.602 34.9688C293.445 34.9688 290.359 31.7266 290.359 27V8.81641ZM317.43 37V8.81641H314.773V37H317.43ZM322.703 8.81641V37H325.359V26.375H332.273C337.645 26.375 341.336 22.8203 341.336 17.5859C341.336 12.3516 337.684 8.81641 332.293 8.81641H322.703ZM325.359 11.1992H331.668C336.023 11.1992 338.602 13.582 338.602 17.5859C338.602 21.5898 336.004 23.9922 331.668 23.9922H325.359V11.1992ZM356.824 8.36719C348.973 8.36719 344.031 13.9922 344.031 22.918C344.031 31.8438 348.973 37.4492 356.824 37.4492C364.695 37.4492 369.637 31.8438 369.637 22.918C369.637 13.9922 364.676 8.36719 356.824 8.36719ZM356.824 10.8477C362.996 10.8477 366.902 15.5156 366.902 22.918C366.902 30.3008 362.996 34.9688 356.824 34.9688C350.652 34.9688 346.766 30.3008 346.766 22.918C346.766 15.5156 350.652 10.8477 356.824 10.8477ZM396.134 31.8C396.134 34.6 393.814 36.44 391.254 36.44C387.534 36.44 384.814 33.04 384.814 26.8C384.814 20.04 388.854 18.52 391.254 18.52C393.814 18.52 396.134 20.72 396.134 23.44V31.8ZM398.094 34.6V7.8L394.094 8.48V8.84C395.734 8.84 396.134 9.52 396.134 10.92V19.88C394.814 18.84 393.174 18.16 391.094 18.16C386.014 18.16 382.174 21.56 382.174 27.56C382.174 32.4 384.294 37.36 390.494 37.36C392.574 37.36 394.934 36.4 396.134 34.68V36.6C396.134 36.6 396.134 37.52 397.254 37.32L400.134 36.72V36.4C398.534 36.56 398.094 36.56 398.094 34.6ZM410.775 36.56C407.175 36.56 404.375 34.24 404.375 27.4H417.215C417.215 21.04 413.575 18.16 410.055 18.16C405.695 18.16 402.015 21.8 402.015 28C402.015 33.88 405.535 37.36 410.255 37.36C414.335 37.36 416.415 34.08 416.615 32.4L416.375 32.36C415.895 34.44 413.455 36.56 410.775 36.56ZM404.375 27C404.375 20.8 407.815 18.52 410.055 18.52C411.655 18.52 415.215 20.4 415.215 27H404.375ZM442.293 37.4492C448.406 37.4492 452.723 34.1484 453.719 28.6602H451.043C450.203 32.5664 446.805 34.9688 442.312 34.9688C436.316 34.9688 432.469 30.2617 432.469 22.8398C432.469 15.5156 436.316 10.8477 442.293 10.8477C446.668 10.8477 450.262 13.6992 451.043 17.7617H453.719C452.957 12.2539 448.25 8.36719 442.293 8.36719C434.637 8.36719 429.734 14.0117 429.734 22.8398C429.734 31.7656 434.617 37.4492 442.293 37.4492ZM460.32 11.1992H467.293C471.395 11.1992 473.875 13.4062 473.875 17.1367C473.875 20.9062 471.492 23.0938 467.391 23.0938H460.32V11.1992ZM460.32 25.457H467.391C467.527 25.457 467.723 25.457 467.82 25.457L474.305 37H477.43L470.594 25.0273C474.363 24.0508 476.629 21.043 476.629 17.0586C476.629 12.0391 473.113 8.81641 467.605 8.81641H457.664V37H460.32V25.457ZM497.996 34.5781H483.641V23.7578H497.273V21.375H483.641V11.2383H497.996V8.81641H480.984V37H497.996V34.5781ZM521.277 37H524.09L513.562 8.81641H510.906L500.359 37H503.191L506.316 28.3672H518.152L521.277 37ZM512.176 12.1172H512.293L517.352 26.0625H507.117L512.176 12.1172ZM533.289 37V11.2383H542.605V8.81641H521.316V11.2383H530.613V37H533.289ZM548.641 37V8.81641H545.984V37H548.641ZM564.93 37L575.477 8.81641H572.664L563.66 33.6797H563.543L554.559 8.81641H551.727L562.273 37H564.93ZM589.832 8.36719C581.98 8.36719 577.039 13.9922 577.039 22.918C577.039 31.8438 581.98 37.4492 589.832 37.4492C597.703 37.4492 602.645 31.8438 602.645 22.918C602.645 13.9922 597.684 8.36719 589.832 8.36719ZM589.832 10.8477C596.004 10.8477 599.91 15.5156 599.91 22.918C599.91 30.3008 596.004 34.9688 589.832 34.9688C583.66 34.9688 579.773 30.3008 579.773 22.918C579.773 15.5156 583.66 10.8477 589.832 10.8477ZM605.438 29.3438C605.73 34.1875 609.871 37.4492 615.77 37.4492C622 37.4492 625.984 34.207 625.984 29.2656C625.984 25.3398 623.602 23.1719 617.938 21.7461L614.891 20.9648C610.75 19.9102 608.992 18.4844 608.992 16.0625C608.992 12.957 611.883 10.7891 615.789 10.7891C619.793 10.7891 622.605 12.8984 622.859 16.082H625.535C625.379 11.6094 621.355 8.36719 615.867 8.36719C610.32 8.36719 606.219 11.6094 606.219 16.1602C606.219 19.8711 608.543 22.0781 613.758 23.4062L617.254 24.3047C621.434 25.3594 623.25 26.9219 623.25 29.5586C623.25 32.7227 620.223 35.0273 616.004 35.0273C611.59 35.0273 608.406 32.7227 608.113 29.3438H605.438ZM649.468 18.52V18.84C654.108 18.76 651.748 25.32 651.748 25.32L648.548 34.48L642.868 22.2C642.868 22.2 641.148 18.84 644.228 18.84V18.52H637.108V18.84C637.748 18.92 639.268 19.24 640.228 21.32C640.228 21.32 640.548 21.64 647.628 37L645.548 43C645.068 44.32 644.308 45.16 644.148 44.48C644.068 44.16 643.788 43.76 643.388 43.6C642.668 43.28 641.828 43.6 641.468 44.36C641.188 45.08 641.468 45.92 642.228 46.28C642.748 46.52 643.508 46.4 643.908 46.08C644.308 45.76 645.228 45 645.828 43.12L652.108 25.4C654.228 19.44 655.148 18.84 657.108 18.84V18.52H649.468ZM59.5273 80.5781H45.1719V69.7578H58.8047V67.375H45.1719V57.2383H59.5273V54.8164H42.5156V83H59.5273V80.5781ZM62.2812 75.3438C62.5742 80.1875 66.7148 83.4492 72.6133 83.4492C78.8438 83.4492 82.8281 80.207 82.8281 75.2656C82.8281 71.3398 80.4453 69.1719 74.7812 67.7461L71.7344 66.9648C67.5938 65.9102 65.8359 64.4844 65.8359 62.0625C65.8359 58.957 68.7266 56.7891 72.6328 56.7891C76.6367 56.7891 79.4492 58.8984 79.7031 62.082H82.3789C82.2227 57.6094 78.1992 54.3672 72.7109 54.3672C67.1641 54.3672 63.0625 57.6094 63.0625 62.1602C63.0625 65.8711 65.3867 68.0781 70.6016 69.4062L74.0977 70.3047C78.2773 71.3594 80.0938 72.9219 80.0938 75.5586C80.0938 78.7227 77.0664 81.0273 72.8477 81.0273C68.4336 81.0273 65.25 78.7227 64.957 75.3438H62.2812ZM96.6172 83V57.2383H105.934V54.8164H84.6445V57.2383H93.9414V83H96.6172ZM111.969 57.1992H118.941C123.043 57.1992 125.523 59.4062 125.523 63.1367C125.523 66.9062 123.141 69.0938 119.039 69.0938H111.969V57.1992ZM111.969 71.457H119.039C119.176 71.457 119.371 71.457 119.469 71.457L125.953 83H129.078L122.242 71.0273C126.012 70.0508 128.277 67.043 128.277 63.0586C128.277 58.0391 124.762 54.8164 119.254 54.8164H109.312V83H111.969V71.457ZM151.363 83H154.176L143.648 54.8164H140.992L130.445 83H133.277L136.402 74.3672H148.238L151.363 83ZM142.262 58.1172H142.379L147.438 72.0625H137.203L142.262 58.1172ZM163.375 83V57.2383H172.691V54.8164H151.402V57.2383H160.699V83H163.375ZM193.082 80.5781H178.727V69.7578H192.359V67.375H178.727V57.2383H193.082V54.8164H176.07V83H193.082V80.5781ZM220.855 71.5547V68.8398H209.449V71.1836H218.199V72.1797C218.199 77.4922 214.605 80.9688 209.156 80.9688C203.121 80.9688 199.234 76.1836 199.234 68.7422C199.234 61.3984 203.043 56.8477 209.156 56.8477C213.453 56.8477 216.754 59.2695 217.906 63.293H220.68C219.625 57.9023 215.074 54.3672 209.156 54.3672C201.461 54.3672 196.5 60.0117 196.5 68.7422C196.5 77.6289 201.52 83.4492 209.156 83.4492C216.48 83.4492 220.855 78.9961 220.855 71.5547ZM243.668 83H246.48L235.953 54.8164H233.297L222.75 83H225.582L228.707 74.3672H240.543L243.668 83ZM234.566 58.1172H234.684L239.742 72.0625H229.508L234.566 58.1172ZM248.219 75.3438C248.512 80.1875 252.652 83.4492 258.551 83.4492C264.781 83.4492 268.766 80.207 268.766 75.2656C268.766 71.3398 266.383 69.1719 260.719 67.7461L257.672 66.9648C253.531 65.9102 251.773 64.4844 251.773 62.0625C251.773 58.957 254.664 56.7891 258.57 56.7891C262.574 56.7891 265.387 58.8984 265.641 62.082H268.316C268.16 57.6094 264.137 54.3672 258.648 54.3672C253.102 54.3672 249 57.6094 249 62.1602C249 65.8711 251.324 68.0781 256.539 69.4062L260.035 70.3047C264.215 71.3594 266.031 72.9219 266.031 75.5586C266.031 78.7227 263.004 81.0273 258.785 81.0273C254.371 81.0273 251.188 78.7227 250.895 75.3438H248.219ZM284.609 64.16L280.649 64.84V65.16C282.329 65.16 282.609 65.72 282.609 67.12V80.44C282.609 82.48 282.529 82.2 281.009 82.64V83H286.249V82.64C284.809 82.28 284.609 82.64 284.609 80.44V64.16ZM284.569 59.36C284.569 58.56 283.929 57.96 283.209 57.96C282.449 57.96 281.889 58.56 281.889 59.36C281.889 60.08 282.449 60.68 283.209 60.68C283.929 60.68 284.569 60.08 284.569 59.36ZM303.89 80.44V70.84C303.89 66.04 301.25 64.16 297.89 64.16C295.37 64.16 292.97 66.04 292.21 68.24V64.16L288.21 64.84V65.16C289.89 65.16 290.21 65.76 290.21 67.16V80.44C290.21 82.48 290.13 82.2 288.61 82.64V83H293.85V82.64C292.41 82.28 292.21 82.64 292.21 80.44V68.84C292.85 67.56 294.41 65.24 296.97 65.24C300.25 65.24 301.93 67.48 301.93 71V80.44C301.93 82.48 301.85 82.24 300.33 82.68V83H305.53V82.68C304.13 82.32 303.89 82.64 303.89 80.44ZM322.04 77.8C322.04 80.6 319.72 82.44 317.16 82.44C313.44 82.44 310.72 79.04 310.72 72.8C310.72 66.04 314.76 64.52 317.16 64.52C319.72 64.52 322.04 66.72 322.04 69.44V77.8ZM324 80.6V53.8L320 54.48V54.84C321.64 54.84 322.04 55.52 322.04 56.92V65.88C320.72 64.84 319.08 64.16 317 64.16C311.92 64.16 308.08 67.56 308.08 73.56C308.08 78.4 310.2 83.36 316.4 83.36C318.48 83.36 320.84 82.4 322.04 80.68V82.6C322.04 82.6 322.04 83.52 323.16 83.32L326.04 82.72V82.4C324.44 82.56 324 82.56 324 80.6ZM336.681 82.56C333.081 82.56 330.281 80.24 330.281 73.4H343.121C343.121 67.04 339.481 64.16 335.961 64.16C331.601 64.16 327.921 67.8 327.921 74C327.921 79.88 331.441 83.36 336.161 83.36C340.241 83.36 342.321 80.08 342.521 78.4L342.281 78.36C341.801 80.44 339.361 82.56 336.681 82.56ZM330.281 73C330.281 66.8 333.721 64.52 335.961 64.52C337.561 64.52 341.121 66.4 341.121 73H330.281ZM354.443 83C351.443 83 349.523 80.88 349.403 77.8V70.08C349.563 67 351.483 65.08 354.443 65.08C358.123 65.08 360.843 68.44 360.843 74.68C360.843 81.44 356.843 83 354.443 83ZM355.203 64.16C353.003 64.16 350.563 65.24 349.403 67.12V64.16L345.403 64.84V65.16C347.083 65.16 347.403 65.76 347.403 67.16V91.04C347.403 93.08 347.323 92.8 345.803 93.24V93.6H351.043V93.24C349.603 92.88 349.403 93.24 349.403 91.04V81.56C350.723 82.64 352.403 83.36 354.603 83.36C359.683 83.36 363.483 79.92 363.483 73.92C363.483 69.12 361.363 64.16 355.203 64.16ZM375.666 82.56C372.066 82.56 369.266 80.24 369.266 73.4H382.106C382.106 67.04 378.466 64.16 374.946 64.16C370.586 64.16 366.906 67.8 366.906 74C366.906 79.88 370.426 83.36 375.146 83.36C379.226 83.36 381.306 80.08 381.506 78.4L381.266 78.36C380.786 80.44 378.346 82.56 375.666 82.56ZM369.266 73C369.266 66.8 372.706 64.52 374.946 64.52C376.546 64.52 380.106 66.4 380.106 73H369.266ZM399.827 80.44V70.84C399.827 66.04 397.187 64.16 393.827 64.16C391.307 64.16 388.907 66.04 388.147 68.24V64.16L384.147 64.84V65.16C385.827 65.16 386.147 65.76 386.147 67.16V80.44C386.147 82.48 386.067 82.2 384.547 82.64V83H389.787V82.64C388.347 82.28 388.147 82.64 388.147 80.44V68.84C388.787 67.56 390.347 65.24 392.907 65.24C396.187 65.24 397.867 67.48 397.867 71V80.44C397.867 82.48 397.787 82.24 396.267 82.68V83H401.467V82.68C400.067 82.32 399.827 82.64 399.827 80.44ZM417.978 77.8C417.978 80.6 415.658 82.44 413.098 82.44C409.378 82.44 406.658 79.04 406.658 72.8C406.658 66.04 410.698 64.52 413.098 64.52C415.658 64.52 417.978 66.72 417.978 69.44V77.8ZM419.938 80.6V53.8L415.938 54.48V54.84C417.578 54.84 417.978 55.52 417.978 56.92V65.88C416.658 64.84 415.018 64.16 412.938 64.16C407.858 64.16 404.018 67.56 404.018 73.56C404.018 78.4 406.138 83.36 412.338 83.36C414.418 83.36 416.778 82.4 417.978 80.68V82.6C417.978 82.6 417.978 83.52 419.098 83.32L421.978 82.72V82.4C420.378 82.56 419.938 82.56 419.938 80.6ZM427.539 64.16L423.579 64.84V65.16C425.259 65.16 425.539 65.72 425.539 67.12V80.44C425.539 82.48 425.459 82.2 423.939 82.64V83H429.179V82.64C427.739 82.28 427.539 82.64 427.539 80.44V64.16ZM427.499 59.36C427.499 58.56 426.859 57.96 426.139 57.96C425.379 57.96 424.819 58.56 424.819 59.36C424.819 60.08 425.379 60.68 426.139 60.68C426.859 60.68 427.499 60.08 427.499 59.36ZM440.939 82.56C437.339 82.56 434.539 80.24 434.539 73.4H447.379C447.379 67.04 443.739 64.16 440.219 64.16C435.859 64.16 432.179 67.8 432.179 74C432.179 79.88 435.699 83.36 440.419 83.36C444.499 83.36 446.579 80.08 446.779 78.4L446.539 78.36C446.059 80.44 443.619 82.56 440.939 82.56ZM434.539 73C434.539 66.8 437.979 64.52 440.219 64.52C441.819 64.52 445.379 66.4 445.379 73H434.539ZM465.1 80.44V70.84C465.1 66.04 462.46 64.16 459.1 64.16C456.58 64.16 454.18 66.04 453.42 68.24V64.16L449.42 64.84V65.16C451.1 65.16 451.42 65.76 451.42 67.16V80.44C451.42 82.48 451.34 82.2 449.82 82.64V83H455.06V82.64C453.62 82.28 453.42 82.64 453.42 80.44V68.84C454.06 67.56 455.62 65.24 458.18 65.24C461.46 65.24 463.14 67.48 463.14 71V80.44C463.14 82.48 463.06 82.24 461.54 82.68V83H466.74V82.68C465.34 82.32 465.1 82.64 465.1 80.44ZM475.611 82.28C473.811 82.28 472.491 81.24 472.491 77.12V64.88H477.131L477.211 64.52H472.491V58.24L470.491 58.48V64.52H468.411L468.451 64.88H470.491V77.24C470.491 82.08 472.171 83.36 474.811 83.36C476.771 83.36 477.971 82 478.291 80.36L478.051 80.28C477.771 81.36 476.771 82.28 475.611 82.28ZM489.142 82.56C485.542 82.56 482.742 80.24 482.742 73.4H495.582C495.582 67.04 491.942 64.16 488.422 64.16C484.062 64.16 480.382 67.8 480.382 74C480.382 79.88 483.902 83.36 488.622 83.36C492.702 83.36 494.782 80.08 494.982 78.4L494.742 78.36C494.262 80.44 491.822 82.56 489.142 82.56ZM482.742 73C482.742 66.8 486.182 64.52 488.422 64.52C490.022 64.52 493.582 66.4 493.582 73H482.742ZM507.424 73.64L503.384 71.12C499.904 68.92 499.384 64.52 504.344 64.52C509.544 64.52 510.504 67.48 510.504 70.76H510.824V65.48C510.824 65.48 508.944 64.16 504.344 64.16C500.224 64.16 499.344 66.72 499.344 66.72C498.304 69.32 499.064 70.88 502.824 73.64L506.864 76.08C509.904 78.08 511.464 83 505.824 83C500.064 83 499.384 79.88 499.384 76.16H499.064V82C499.064 82 500.984 83.36 505.824 83.36C509.144 83.36 510.384 81.56 510.384 81.56C512.224 78.96 511.104 75.92 507.424 73.64ZM517.963 81.88C517.963 81.08 517.323 80.48 516.603 80.48C515.843 80.48 515.283 81.08 515.283 81.88C515.283 82.6 515.843 83.2 516.603 83.2C517.323 83.2 517.963 82.6 517.963 81.88ZM551.41 74.8C551.41 82.64 544.89 83 543.25 83C539.45 83 532.41 82.48 532.41 68.92C532.41 55.72 539.33 54.84 543.25 54.84C545.13 54.84 551.41 55.2 551.41 63H551.77L552.13 56.92C549.61 54.88 547.37 54.48 543.25 54.48C535.21 54.48 529.37 58.88 529.37 68.92C529.37 78.76 535.21 83.36 543.25 83.36C547.53 83.36 549.17 82.84 552.13 80.88L551.77 74.8H551.41ZM564.541 64.2C562.261 63.92 559.341 65.92 558.501 68V64.16L554.501 64.84V65.16C556.181 65.16 556.501 65.72 556.501 67.12V80.44C556.501 82.48 556.421 82.2 554.901 82.64V83H560.141V82.64C558.701 82.28 558.501 82.64 558.501 80.44V68.8C559.541 65.84 563.341 64.36 562.981 65.24C562.861 65.6 562.861 66 562.981 66.36C563.341 67.16 564.261 67.52 565.021 67.2C565.821 66.84 566.181 66 565.861 65.2C565.581 64.64 565.101 64.28 564.541 64.2ZM576.994 82.56C573.394 82.56 570.594 80.24 570.594 73.4H583.434C583.434 67.04 579.794 64.16 576.274 64.16C571.914 64.16 568.234 67.8 568.234 74C568.234 79.88 571.754 83.36 576.474 83.36C580.554 83.36 582.634 80.08 582.834 78.4L582.594 78.36C582.114 80.44 579.674 82.56 576.994 82.56ZM570.594 73C570.594 66.8 574.034 64.52 576.274 64.52C577.874 64.52 581.434 66.4 581.434 73H570.594ZM596.755 79.28C596.315 80.24 595.235 82.2 592.395 82.2C590.115 82.2 588.675 80.88 588.675 78.56C588.675 75.76 591.435 74.12 596.755 72.8V79.28ZM600.595 82.04C598.915 82.04 598.915 79.8 598.915 79.8V72.16C598.915 67.4 597.995 64.16 594.515 64.16C594.515 64.16 592.635 64.12 590.995 64.92C588.875 66.08 588.075 67.4 587.875 67.88C587.675 68.36 587.795 68.96 588.155 69.4C588.675 70.04 589.555 70.08 590.155 69.56C590.755 69 590.835 68.08 590.315 67.48C590.035 67.16 589.715 67.04 589.355 66.96C589.155 66.92 589.475 66.04 591.315 65.16C594.955 63.64 596.755 66.2 596.755 70.28V72.44C590.075 74.2 586.675 75.56 586.675 79.2C586.675 83.4 591.195 83.36 591.195 83.36C593.955 83.36 596.235 81.96 596.755 79.88C596.755 83.56 599.515 83.36 599.515 83.36C601.195 83.36 602.035 81.92 602.235 80.76L601.915 80.64C601.635 82.04 600.595 82.04 600.595 82.04ZM628.528 80.44V70.84C628.528 66.04 626.488 64.16 623.088 64.16C620.488 64.16 618.408 66.16 617.768 68.48C617.208 65.4 615.368 64.16 612.568 64.16C610.048 64.16 607.968 66 607.288 68.24V64.16L603.288 64.84V65.16C604.968 65.16 605.288 65.76 605.288 67.16V80.44C605.288 82.48 605.208 82.2 603.688 82.64V83H608.928V82.64C607.488 82.28 607.288 82.64 607.288 80.44V68.84C607.848 67.56 609.088 65.24 611.648 65.24C614.968 65.24 616.008 67.48 616.008 71V80.44C616.008 82.48 615.928 82.24 614.408 82.68V83H619.608V82.68C618.208 82.32 617.968 82.64 617.968 80.44V70.84C617.968 70.12 617.928 69.44 617.848 68.88C618.368 67.6 619.648 65.24 622.208 65.24C625.488 65.24 626.568 67.48 626.568 71V80.44C626.568 82.48 626.488 82.24 624.968 82.68V83H630.168V82.68C628.768 82.32 628.528 82.64 628.528 80.44ZM641.455 64.16C635.375 64.16 632.535 68.48 632.535 73.76C632.535 79 635.375 83.36 641.455 83.36C647.575 83.36 650.375 79 650.375 73.76C650.375 68.48 647.575 64.16 641.455 64.16ZM641.455 83C638.215 83 634.815 81 634.815 73.76C634.815 66.52 638.215 64.52 641.455 64.52C644.695 64.52 648.055 66.52 648.055 73.76C648.055 81 644.695 83 641.455 83ZM662.502 73.64L658.462 71.12C654.982 68.92 654.462 64.52 659.422 64.52C664.622 64.52 665.582 67.48 665.582 70.76H665.902V65.48C665.902 65.48 664.022 64.16 659.422 64.16C655.302 64.16 654.422 66.72 654.422 66.72C653.382 69.32 654.142 70.88 657.902 73.64L661.942 76.08C664.982 78.08 666.542 83 660.902 83C655.142 83 654.462 79.88 654.462 76.16H654.142V82C654.142 82 656.062 83.36 660.902 83.36C664.222 83.36 665.462 81.56 665.462 81.56C667.302 78.96 666.182 75.92 662.502 73.64ZM54.0941 126.44V116.84C54.0941 112.04 52.0541 110.16 48.6541 110.16C46.0541 110.16 43.9741 112.16 43.3341 114.48C42.7741 111.4 40.9341 110.16 38.1341 110.16C35.6141 110.16 33.5341 112 32.8541 114.24V110.16L28.8541 110.84V111.16C30.5341 111.16 30.8541 111.76 30.8541 113.16V126.44C30.8541 128.48 30.7741 128.2 29.2541 128.64V129H34.4941V128.64C33.0541 128.28 32.8541 128.64 32.8541 126.44V114.84C33.4141 113.56 34.6541 111.24 37.2141 111.24C40.5341 111.24 41.5741 113.48 41.5741 117V126.44C41.5741 128.48 41.4941 128.24 39.9741 128.68V129H45.1741V128.68C43.7741 128.32 43.5341 128.64 43.5341 126.44V116.84C43.5341 116.12 43.4941 115.44 43.4141 114.88C43.9341 113.6 45.2141 111.24 47.7741 111.24C51.0541 111.24 52.1341 113.48 52.1341 117V126.44C52.1341 128.48 52.0541 128.24 50.5341 128.68V129H55.7341V128.68C54.3341 128.32 54.0941 128.64 54.0941 126.44ZM68.1809 125.28C67.7409 126.24 66.6609 128.2 63.8209 128.2C61.5409 128.2 60.1009 126.88 60.1009 124.56C60.1009 121.76 62.8609 120.12 68.1809 118.8V125.28ZM72.0209 128.04C70.3409 128.04 70.3409 125.8 70.3409 125.8V118.16C70.3409 113.4 69.4209 110.16 65.9409 110.16C65.9409 110.16 64.0609 110.12 62.4209 110.92C60.3009 112.08 59.5009 113.4 59.3009 113.88C59.1009 114.36 59.2209 114.96 59.5809 115.4C60.1009 116.04 60.9809 116.08 61.5809 115.56C62.1809 115 62.2609 114.08 61.7409 113.48C61.4609 113.16 61.1409 113.04 60.7809 112.96C60.5809 112.92 60.9009 112.04 62.7409 111.16C66.3809 109.64 68.1809 112.2 68.1809 116.28V118.44C61.5009 120.2 58.1009 121.56 58.1009 125.2C58.1009 129.4 62.6209 129.36 62.6209 129.36C65.3809 129.36 67.6609 127.96 68.1809 125.88C68.1809 129.56 70.9409 129.36 70.9409 129.36C72.6209 129.36 73.4609 127.92 73.6609 126.76L73.3409 126.64C73.0609 128.04 72.0209 128.04 72.0209 128.04ZM84.8734 110.2C82.5934 109.92 79.6734 111.92 78.8334 114V110.16L74.8334 110.84V111.16C76.5134 111.16 76.8334 111.72 76.8334 113.12V126.44C76.8334 128.48 76.7534 128.2 75.2334 128.64V129H80.4734V128.64C79.0334 128.28 78.8334 128.64 78.8334 126.44V114.8C79.8734 111.84 83.6734 110.36 83.3134 111.24C83.1934 111.6 83.1934 112 83.3134 112.36C83.6734 113.16 84.5934 113.52 85.3534 113.2C86.1534 112.84 86.5134 112 86.1934 111.2C85.9134 110.64 85.4334 110.28 84.8734 110.2ZM104.046 123.92C103.526 125.84 101.726 128.48 97.8859 128.48C94.9659 128.48 91.2859 126.08 91.2859 119.72C91.2859 111.68 96.2059 110.52 97.9659 110.52C101.686 110.52 103.046 112.16 102.646 112.04C102.446 111.96 102.046 111.96 101.646 112.12C100.966 112.44 100.726 113.24 101.086 113.96C101.366 114.6 102.286 114.76 102.926 114.48C103.406 114.2 103.646 113.76 103.646 113.24C103.646 112.56 102.966 110.16 97.9659 110.16C92.5659 110.16 88.8859 114.68 88.8859 119.88C88.8859 126.96 93.8059 129.36 97.4859 129.36C102.326 129.36 104.006 125.92 104.326 123.96L104.046 123.92ZM117.4 125.28C116.96 126.24 115.88 128.2 113.04 128.2C110.76 128.2 109.32 126.88 109.32 124.56C109.32 121.76 112.08 120.12 117.4 118.8V125.28ZM121.24 128.04C119.56 128.04 119.56 125.8 119.56 125.8V118.16C119.56 113.4 118.64 110.16 115.16 110.16C115.16 110.16 113.28 110.12 111.64 110.92C109.52 112.08 108.72 113.4 108.52 113.88C108.32 114.36 108.44 114.96 108.8 115.4C109.32 116.04 110.2 116.08 110.8 115.56C111.4 115 111.48 114.08 110.96 113.48C110.68 113.16 110.36 113.04 110 112.96C109.8 112.92 110.12 112.04 111.96 111.16C115.6 109.64 117.4 112.2 117.4 116.28V118.44C110.72 120.2 107.32 121.56 107.32 125.2C107.32 129.4 111.84 129.36 111.84 129.36C114.6 129.36 116.88 127.96 117.4 125.88C117.4 129.56 120.16 129.36 120.16 129.36C121.84 129.36 122.68 127.92 122.88 126.76L122.56 126.64C122.28 128.04 121.24 128.04 121.24 128.04ZM133.732 119.64L129.692 117.12C126.212 114.92 125.692 110.52 130.652 110.52C135.852 110.52 136.812 113.48 136.812 116.76H137.132V111.48C137.132 111.48 135.252 110.16 130.652 110.16C126.532 110.16 125.652 112.72 125.652 112.72C124.612 115.32 125.372 116.88 129.132 119.64L133.172 122.08C136.212 124.08 137.772 129 132.132 129C126.372 129 125.692 125.88 125.692 122.16H125.372V128C125.372 128 127.292 129.36 132.132 129.36C135.452 129.36 136.692 127.56 136.692 127.56C138.532 124.96 137.412 121.92 133.732 119.64ZM143.912 126.88C143.392 126.32 142.512 126.32 141.952 126.88C141.432 127.44 141.392 128.36 141.992 128.84C142.352 129.12 142.632 129.12 142.952 129.2C143.592 129.32 144.512 131.6 141.432 133.64L141.512 133.76C143.152 132.92 143.512 132.12 143.952 131.4C144.832 129.76 144.752 127.68 143.912 126.88ZM159.545 99.8L155.545 100.48V100.84C157.225 100.84 157.545 101.4 157.545 102.8V126.44C157.545 128.48 157.465 128.2 155.945 128.64V129H161.185V128.64C159.745 128.28 159.545 128.64 159.545 126.44V99.8ZM174.236 125.28C173.796 126.24 172.716 128.2 169.876 128.2C167.596 128.2 166.156 126.88 166.156 124.56C166.156 121.76 168.916 120.12 174.236 118.8V125.28ZM178.076 128.04C176.396 128.04 176.396 125.8 176.396 125.8V118.16C176.396 113.4 175.476 110.16 171.996 110.16C171.996 110.16 170.116 110.12 168.476 110.92C166.356 112.08 165.556 113.4 165.356 113.88C165.156 114.36 165.276 114.96 165.636 115.4C166.156 116.04 167.036 116.08 167.636 115.56C168.236 115 168.316 114.08 167.796 113.48C167.516 113.16 167.196 113.04 166.836 112.96C166.636 112.92 166.956 112.04 168.796 111.16C172.436 109.64 174.236 112.2 174.236 116.28V118.44C167.556 120.2 164.156 121.56 164.156 125.2C164.156 129.4 168.676 129.36 168.676 129.36C171.436 129.36 173.716 127.96 174.236 125.88C174.236 129.56 176.996 129.36 176.996 129.36C178.676 129.36 179.516 127.92 179.716 126.76L179.396 126.64C179.116 128.04 178.076 128.04 178.076 128.04ZM190.568 119.64L186.528 117.12C183.048 114.92 182.528 110.52 187.488 110.52C192.688 110.52 193.648 113.48 193.648 116.76H193.968V111.48C193.968 111.48 192.088 110.16 187.488 110.16C183.368 110.16 182.488 112.72 182.488 112.72C181.448 115.32 182.208 116.88 185.968 119.64L190.008 122.08C193.048 124.08 194.608 129 188.968 129C183.208 129 182.528 125.88 182.528 122.16H182.208V128C182.208 128 184.128 129.36 188.968 129.36C192.288 129.36 193.528 127.56 193.528 127.56C195.368 124.96 194.248 121.92 190.568 119.64ZM222.562 123.92C222.042 125.84 220.242 128.48 216.402 128.48C213.482 128.48 209.802 126.08 209.802 119.72C209.802 111.68 214.722 110.52 216.482 110.52C220.202 110.52 221.562 112.16 221.162 112.04C220.962 111.96 220.562 111.96 220.162 112.12C219.482 112.44 219.242 113.24 219.602 113.96C219.882 114.6 220.802 114.76 221.442 114.48C221.922 114.2 222.162 113.76 222.162 113.24C222.162 112.56 221.482 110.16 216.482 110.16C211.082 110.16 207.402 114.68 207.402 119.88C207.402 126.96 212.322 129.36 216.002 129.36C220.842 129.36 222.522 125.92 222.842 123.96L222.562 123.92ZM234.755 110.16C228.675 110.16 225.835 114.48 225.835 119.76C225.835 125 228.675 129.36 234.755 129.36C240.875 129.36 243.675 125 243.675 119.76C243.675 114.48 240.875 110.16 234.755 110.16ZM234.755 129C231.515 129 228.115 127 228.115 119.76C228.115 112.52 231.515 110.52 234.755 110.52C237.995 110.52 241.355 112.52 241.355 119.76C241.355 127 237.995 129 234.755 129ZM261.683 126.44V116.84C261.683 112.04 259.043 110.16 255.683 110.16C253.163 110.16 250.763 112.04 250.003 114.24V110.16L246.003 110.84V111.16C247.683 111.16 248.003 111.76 248.003 113.16V126.44C248.003 128.48 247.923 128.2 246.403 128.64V129H251.643V128.64C250.203 128.28 250.003 128.64 250.003 126.44V114.84C250.643 113.56 252.203 111.24 254.763 111.24C258.043 111.24 259.723 113.48 259.723 117V126.44C259.723 128.48 259.643 128.24 258.123 128.68V129H263.323V128.68C261.923 128.32 261.683 128.64 261.683 126.44ZM275.943 110.52V110.84C280.343 110.84 278.543 115.48 278.543 115.48L274.623 126.56L268.623 113.4C268.623 113.4 267.263 110.84 270.343 110.84V110.52H263.183V110.84C263.823 110.92 265.023 110.88 266.023 112.76C266.023 112.76 266.703 114 273.783 129.36H273.983L279.143 114.92C280.783 110.88 281.463 110.84 283.583 110.84V110.52H275.943ZM292.599 128.56C288.999 128.56 286.199 126.24 286.199 119.4H299.039C299.039 113.04 295.399 110.16 291.879 110.16C287.519 110.16 283.839 113.8 283.839 120C283.839 125.88 287.359 129.36 292.079 129.36C296.159 129.36 298.239 126.08 298.439 124.4L298.199 124.36C297.719 126.44 295.279 128.56 292.599 128.56ZM286.199 119C286.199 112.8 289.639 110.52 291.879 110.52C293.479 110.52 297.039 112.4 297.039 119H286.199ZM311.241 110.2C308.961 109.92 306.041 111.92 305.201 114V110.16L301.201 110.84V111.16C302.881 111.16 303.201 111.72 303.201 113.12V126.44C303.201 128.48 303.121 128.2 301.601 128.64V129H306.841V128.64C305.401 128.28 305.201 128.64 305.201 126.44V114.8C306.241 111.84 310.041 110.36 309.681 111.24C309.561 111.6 309.561 112 309.681 112.36C310.041 113.16 310.961 113.52 311.721 113.2C312.521 112.84 312.881 112 312.561 111.2C312.281 110.64 311.801 110.28 311.241 110.2ZM321.373 128.28C319.573 128.28 318.253 127.24 318.253 123.12V110.88H322.893L322.973 110.52H318.253V104.24L316.253 104.48V110.52H314.173L314.213 110.88H316.253V123.24C316.253 128.08 317.933 129.36 320.573 129.36C322.533 129.36 323.733 128 324.053 126.36L323.813 126.28C323.533 127.36 322.533 128.28 321.373 128.28ZM329.824 110.16L325.864 110.84V111.16C327.544 111.16 327.824 111.72 327.824 113.12V126.44C327.824 128.48 327.744 128.2 326.224 128.64V129H331.464V128.64C330.024 128.28 329.824 128.64 329.824 126.44V110.16ZM329.784 105.36C329.784 104.56 329.144 103.96 328.424 103.96C327.664 103.96 327.104 104.56 327.104 105.36C327.104 106.08 327.664 106.68 328.424 106.68C329.144 106.68 329.784 106.08 329.784 105.36ZM358.664 126.44V116.84C358.664 112.04 356.624 110.16 353.224 110.16C350.624 110.16 348.544 112.16 347.904 114.48C347.344 111.4 345.504 110.16 342.704 110.16C340.184 110.16 338.104 112 337.424 114.24V110.16L333.424 110.84V111.16C335.104 111.16 335.424 111.76 335.424 113.16V126.44C335.424 128.48 335.344 128.2 333.824 128.64V129H339.064V128.64C337.624 128.28 337.424 128.64 337.424 126.44V114.84C337.984 113.56 339.224 111.24 341.784 111.24C345.104 111.24 346.144 113.48 346.144 117V126.44C346.144 128.48 346.064 128.24 344.544 128.68V129H349.744V128.68C348.344 128.32 348.104 128.64 348.104 126.44V116.84C348.104 116.12 348.064 115.44 347.984 114.88C348.504 113.6 349.784 111.24 352.344 111.24C355.624 111.24 356.704 113.48 356.704 117V126.44C356.704 128.48 356.624 128.24 355.104 128.68V129H360.304V128.68C358.904 128.32 358.664 128.64 358.664 126.44ZM371.591 110.16C365.511 110.16 362.671 114.48 362.671 119.76C362.671 125 365.511 129.36 371.591 129.36C377.711 129.36 380.511 125 380.511 119.76C380.511 114.48 377.711 110.16 371.591 110.16ZM371.591 129C368.351 129 364.951 127 364.951 119.76C364.951 112.52 368.351 110.52 371.591 110.52C374.831 110.52 378.191 112.52 378.191 119.76C378.191 127 374.831 129 371.591 129ZM392.638 119.64L388.598 117.12C385.118 114.92 384.598 110.52 389.558 110.52C394.758 110.52 395.718 113.48 395.718 116.76H396.038V111.48C396.038 111.48 394.158 110.16 389.558 110.16C385.438 110.16 384.558 112.72 384.558 112.72C383.518 115.32 384.278 116.88 388.038 119.64L392.078 122.08C395.118 124.08 396.678 129 391.038 129C385.278 129 384.598 125.88 384.598 122.16H384.278V128C384.278 128 386.198 129.36 391.038 129.36C394.358 129.36 395.598 127.56 395.598 127.56C397.438 124.96 396.318 121.92 392.638 119.64ZM417.912 128.56C414.312 128.56 411.512 126.24 411.512 119.4H424.352C424.352 113.04 420.712 110.16 417.192 110.16C412.832 110.16 409.152 113.8 409.152 120C409.152 125.88 412.672 129.36 417.392 129.36C421.472 129.36 423.552 126.08 423.752 124.4L423.512 124.36C423.032 126.44 420.592 128.56 417.912 128.56ZM411.512 119C411.512 112.8 414.952 110.52 417.192 110.52C418.792 110.52 422.352 112.4 422.352 119H411.512ZM442.073 126.44V116.84C442.073 112.04 439.433 110.16 436.073 110.16C433.553 110.16 431.153 112.04 430.393 114.24V110.16L426.393 110.84V111.16C428.073 111.16 428.393 111.76 428.393 113.16V126.44C428.393 128.48 428.313 128.2 426.793 128.64V129H432.033V128.64C430.593 128.28 430.393 128.64 430.393 126.44V114.84C431.033 113.56 432.593 111.24 435.153 111.24C438.433 111.24 440.113 113.48 440.113 117V126.44C440.113 128.48 440.033 128.24 438.513 128.68V129H443.713V128.68C442.313 128.32 442.073 128.64 442.073 126.44ZM464.318 128.56C460.718 128.56 457.918 126.24 457.918 119.4H470.758C470.758 113.04 467.118 110.16 463.598 110.16C459.238 110.16 455.558 113.8 455.558 120C455.558 125.88 459.078 129.36 463.798 129.36C467.878 129.36 469.958 126.08 470.158 124.4L469.918 124.36C469.438 126.44 466.998 128.56 464.318 128.56ZM457.918 119C457.918 112.8 461.358 110.52 463.598 110.52C465.198 110.52 468.758 112.4 468.758 119H457.918ZM487.096 126.24L482.096 119.04L483.416 117.12C487.536 110.72 488.816 110.84 491.056 110.84V110.52H483.056V110.84C487.176 110.84 485.776 112.68 483.136 116.88L481.896 118.72L478.576 113.92C476.856 111.44 477.816 110.84 478.816 110.84V110.52H472.136V110.84C473.616 110.84 474.096 111.24 475.776 113.36L480.816 120.6L479.536 122.48C475.096 129.04 473.496 128.68 471.776 128.68V129H478.976V128.68C475.936 128.68 476.296 128 479.816 122.68L481.056 120.88L484.536 125.84C484.536 125.84 486.696 128.68 484.496 128.68V129H490.896V128.68C490.136 128.6 488.696 128.64 487.096 126.24ZM501.142 129C498.142 129 496.222 126.88 496.102 123.8V116.08C496.262 113 498.182 111.08 501.142 111.08C504.822 111.08 507.542 114.44 507.542 120.68C507.542 127.44 503.542 129 501.142 129ZM501.902 110.16C499.702 110.16 497.262 111.24 496.102 113.12V110.16L492.102 110.84V111.16C493.782 111.16 494.102 111.76 494.102 113.16V137.04C494.102 139.08 494.022 138.8 492.502 139.24V139.6H497.742V139.24C496.302 138.88 496.102 139.24 496.102 137.04V127.56C497.422 128.64 499.102 129.36 501.302 129.36C506.382 129.36 510.182 125.92 510.182 119.92C510.182 115.12 508.062 110.16 501.902 110.16ZM522.365 128.56C518.765 128.56 515.965 126.24 515.965 119.4H528.805C528.805 113.04 525.165 110.16 521.645 110.16C517.285 110.16 513.605 113.8 513.605 120C513.605 125.88 517.125 129.36 521.845 129.36C525.925 129.36 528.005 126.08 528.205 124.4L527.965 124.36C527.485 126.44 525.045 128.56 522.365 128.56ZM515.965 119C515.965 112.8 519.405 110.52 521.645 110.52C523.245 110.52 526.805 112.4 526.805 119H515.965ZM541.006 110.2C538.726 109.92 535.806 111.92 534.966 114V110.16L530.966 110.84V111.16C532.646 111.16 532.966 111.72 532.966 113.12V126.44C532.966 128.48 532.886 128.2 531.366 128.64V129H536.606V128.64C535.166 128.28 534.966 128.64 534.966 126.44V114.8C536.006 111.84 539.806 110.36 539.446 111.24C539.326 111.6 539.326 112 539.446 112.36C539.806 113.16 540.726 113.52 541.486 113.2C542.286 112.84 542.646 112 542.326 111.2C542.046 110.64 541.566 110.28 541.006 110.2ZM548.379 110.16L544.419 110.84V111.16C546.099 111.16 546.379 111.72 546.379 113.12V126.44C546.379 128.48 546.299 128.2 544.779 128.64V129H550.019V128.64C548.579 128.28 548.379 128.64 548.379 126.44V110.16ZM548.339 105.36C548.339 104.56 547.699 103.96 546.979 103.96C546.219 103.96 545.659 104.56 545.659 105.36C545.659 106.08 546.219 106.68 546.979 106.68C547.699 106.68 548.339 106.08 548.339 105.36ZM561.779 128.56C558.179 128.56 555.379 126.24 555.379 119.4H568.219C568.219 113.04 564.579 110.16 561.059 110.16C556.699 110.16 553.019 113.8 553.019 120C553.019 125.88 556.539 129.36 561.259 129.36C565.339 129.36 567.419 126.08 567.619 124.4L567.379 124.36C566.899 126.44 564.459 128.56 561.779 128.56ZM555.379 119C555.379 112.8 558.819 110.52 561.059 110.52C562.659 110.52 566.219 112.4 566.219 119H555.379ZM585.94 126.44V116.84C585.94 112.04 583.3 110.16 579.94 110.16C577.42 110.16 575.02 112.04 574.26 114.24V110.16L570.26 110.84V111.16C571.94 111.16 572.26 111.76 572.26 113.16V126.44C572.26 128.48 572.18 128.2 570.66 128.64V129H575.9V128.64C574.46 128.28 574.26 128.64 574.26 126.44V114.84C574.9 113.56 576.46 111.24 579.02 111.24C582.3 111.24 583.98 113.48 583.98 117V126.44C583.98 128.48 583.9 128.24 582.38 128.68V129H587.58V128.68C586.18 128.32 585.94 128.64 585.94 126.44ZM605.491 123.92C604.971 125.84 603.171 128.48 599.331 128.48C596.411 128.48 592.731 126.08 592.731 119.72C592.731 111.68 597.651 110.52 599.411 110.52C603.131 110.52 604.491 112.16 604.091 112.04C603.891 111.96 603.491 111.96 603.091 112.12C602.411 112.44 602.171 113.24 602.531 113.96C602.811 114.6 603.731 114.76 604.371 114.48C604.851 114.2 605.091 113.76 605.091 113.24C605.091 112.56 604.411 110.16 599.411 110.16C594.011 110.16 590.331 114.68 590.331 119.88C590.331 126.96 595.251 129.36 598.931 129.36C603.771 129.36 605.451 125.92 605.771 123.96L605.491 123.92ZM612.285 110.16L608.325 110.84V111.16C610.005 111.16 610.285 111.72 610.285 113.12V126.44C610.285 128.48 610.205 128.2 608.685 128.64V129H613.925V128.64C612.485 128.28 612.285 128.64 612.285 126.44V110.16ZM612.245 105.36C612.245 104.56 611.605 103.96 610.885 103.96C610.125 103.96 609.565 104.56 609.565 105.36C609.565 106.08 610.125 106.68 610.885 106.68C611.605 106.68 612.245 106.08 612.245 105.36ZM627.165 125.28C626.725 126.24 625.645 128.2 622.805 128.2C620.525 128.2 619.085 126.88 619.085 124.56C619.085 121.76 621.845 120.12 627.165 118.8V125.28ZM631.005 128.04C629.325 128.04 629.325 125.8 629.325 125.8V118.16C629.325 113.4 628.405 110.16 624.925 110.16C624.925 110.16 623.045 110.12 621.405 110.92C619.285 112.08 618.485 113.4 618.285 113.88C618.085 114.36 618.205 114.96 618.565 115.4C619.085 116.04 619.965 116.08 620.565 115.56C621.165 115 621.245 114.08 620.725 113.48C620.445 113.16 620.125 113.04 619.765 112.96C619.565 112.92 619.885 112.04 621.725 111.16C625.365 109.64 627.165 112.2 627.165 116.28V118.44C620.485 120.2 617.085 121.56 617.085 125.2C617.085 129.4 621.605 129.36 621.605 129.36C624.365 129.36 626.645 127.96 627.165 125.88C627.165 129.56 629.925 129.36 629.925 129.36C631.605 129.36 632.445 127.92 632.645 126.76L632.325 126.64C632.045 128.04 631.005 128.04 631.005 128.04ZM643.498 119.64L639.458 117.12C635.978 114.92 635.458 110.52 640.418 110.52C645.618 110.52 646.578 113.48 646.578 116.76H646.898V111.48C646.898 111.48 645.018 110.16 640.418 110.16C636.298 110.16 635.418 112.72 635.418 112.72C634.378 115.32 635.138 116.88 638.898 119.64L642.938 122.08C645.978 124.08 647.538 129 641.898 129C636.138 129 635.458 125.88 635.458 122.16H635.138V128C635.138 128 637.058 129.36 641.898 129.36C645.218 129.36 646.458 127.56 646.458 127.56C648.298 124.96 647.178 121.92 643.498 119.64ZM671.331 110.52V110.84C675.971 110.76 673.611 117.32 673.611 117.32L670.411 126.48L664.731 114.2C664.731 114.2 663.011 110.84 666.091 110.84V110.52H658.971V110.84C659.611 110.92 661.131 111.24 662.091 113.32C662.091 113.32 662.411 113.64 669.491 129L667.411 135C666.931 136.32 666.171 137.16 666.011 136.48C665.931 136.16 665.651 135.76 665.251 135.6C664.531 135.28 663.691 135.6 663.331 136.36C663.051 137.08 663.331 137.92 664.091 138.28C664.611 138.52 665.371 138.4 665.771 138.08C666.171 137.76 667.091 137 667.691 135.12L673.971 117.4C676.091 111.44 677.011 110.84 678.971 110.84V110.52H671.331ZM58.9288 169.92C58.4088 171.84 56.6088 174.48 52.7688 174.48C49.8488 174.48 46.1688 172.08 46.1688 165.72C46.1688 157.68 51.0888 156.52 52.8488 156.52C56.5688 156.52 57.9288 158.16 57.5288 158.04C57.3288 157.96 56.9288 157.96 56.5288 158.12C55.8488 158.44 55.6088 159.24 55.9688 159.96C56.2488 160.6 57.1688 160.76 57.8088 160.48C58.2888 160.2 58.5288 159.76 58.5288 159.24C58.5288 158.56 57.8488 156.16 52.8488 156.16C47.4488 156.16 43.7688 160.68 43.7688 165.88C43.7688 172.96 48.6888 175.36 52.3688 175.36C57.2088 175.36 58.8888 171.92 59.2088 169.96L58.9288 169.92ZM71.1225 156.16C65.0425 156.16 62.2025 160.48 62.2025 165.76C62.2025 171 65.0425 175.36 71.1225 175.36C77.2425 175.36 80.0425 171 80.0425 165.76C80.0425 160.48 77.2425 156.16 71.1225 156.16ZM71.1225 175C67.8825 175 64.4825 173 64.4825 165.76C64.4825 158.52 67.8825 156.52 71.1225 156.52C74.3625 156.52 77.7225 158.52 77.7225 165.76C77.7225 173 74.3625 175 71.1225 175ZM107.61 172.44V162.84C107.61 158.04 105.57 156.16 102.17 156.16C99.5697 156.16 97.4897 158.16 96.8497 160.48C96.2897 157.4 94.4497 156.16 91.6497 156.16C89.1297 156.16 87.0497 158 86.3697 160.24V156.16L82.3697 156.84V157.16C84.0497 157.16 84.3697 157.76 84.3697 159.16V172.44C84.3697 174.48 84.2897 174.2 82.7697 174.64V175H88.0097V174.64C86.5697 174.28 86.3697 174.64 86.3697 172.44V160.84C86.9297 159.56 88.1697 157.24 90.7297 157.24C94.0497 157.24 95.0897 159.48 95.0897 163V172.44C95.0897 174.48 95.0097 174.24 93.4897 174.68V175H98.6897V174.68C97.2897 174.32 97.0497 174.64 97.0497 172.44V162.84C97.0497 162.12 97.0097 161.44 96.9297 160.88C97.4497 159.6 98.7297 157.24 101.29 157.24C104.57 157.24 105.65 159.48 105.65 163V172.44C105.65 174.48 105.57 174.24 104.05 174.68V175H109.25V174.68C107.85 174.32 107.61 174.64 107.61 172.44ZM126.028 172V156.16L122.148 156.88V157.2C124.028 157.2 124.028 157.24 124.028 159.68V170.76C123.468 172.52 122.068 174.32 119.228 174.32C116.908 174.32 114.348 173.08 114.348 169.28V156.16L110.188 156.88V157.2C112.428 157.2 112.428 157.2 112.428 159.96V169.4C112.428 174.56 116.188 175.36 118.788 175.36C121.668 175.36 123.588 173.56 124.028 171.6V174.88C124.028 174.88 123.988 175.52 124.868 175.32L128.068 174.8V174.48C126.388 174.28 126.028 173.92 126.028 172ZM144.925 172.44V162.84C144.925 158.04 142.285 156.16 138.925 156.16C136.405 156.16 134.005 158.04 133.245 160.24V156.16L129.245 156.84V157.16C130.925 157.16 131.245 157.76 131.245 159.16V172.44C131.245 174.48 131.165 174.2 129.645 174.64V175H134.885V174.64C133.445 174.28 133.245 174.64 133.245 172.44V160.84C133.885 159.56 135.445 157.24 138.005 157.24C141.285 157.24 142.965 159.48 142.965 163V172.44C142.965 174.48 142.885 174.24 141.365 174.68V175H146.565V174.68C145.165 174.32 144.925 174.64 144.925 172.44ZM152.676 156.16L148.716 156.84V157.16C150.396 157.16 150.676 157.72 150.676 159.12V172.44C150.676 174.48 150.596 174.2 149.076 174.64V175H154.316V174.64C152.876 174.28 152.676 174.64 152.676 172.44V156.16ZM152.636 151.36C152.636 150.56 151.996 149.96 151.276 149.96C150.516 149.96 149.956 150.56 149.956 151.36C149.956 152.08 150.516 152.68 151.276 152.68C151.996 152.68 152.636 152.08 152.636 151.36ZM172.796 169.92C172.276 171.84 170.476 174.48 166.636 174.48C163.716 174.48 160.036 172.08 160.036 165.72C160.036 157.68 164.956 156.52 166.716 156.52C170.436 156.52 171.796 158.16 171.396 158.04C171.196 157.96 170.796 157.96 170.396 158.12C169.716 158.44 169.476 159.24 169.836 159.96C170.116 160.6 171.036 160.76 171.676 160.48C172.156 160.2 172.396 159.76 172.396 159.24C172.396 158.56 171.716 156.16 166.716 156.16C161.316 156.16 157.636 160.68 157.636 165.88C157.636 172.96 162.556 175.36 166.236 175.36C171.076 175.36 172.756 171.92 173.076 169.96L172.796 169.92ZM186.15 171.28C185.71 172.24 184.63 174.2 181.79 174.2C179.51 174.2 178.07 172.88 178.07 170.56C178.07 167.76 180.83 166.12 186.15 164.8V171.28ZM189.99 174.04C188.31 174.04 188.31 171.8 188.31 171.8V164.16C188.31 159.4 187.39 156.16 183.91 156.16C183.91 156.16 182.03 156.12 180.39 156.92C178.27 158.08 177.47 159.4 177.27 159.88C177.07 160.36 177.19 160.96 177.55 161.4C178.07 162.04 178.95 162.08 179.55 161.56C180.15 161 180.23 160.08 179.71 159.48C179.43 159.16 179.11 159.04 178.75 158.96C178.55 158.92 178.87 158.04 180.71 157.16C184.35 155.64 186.15 158.2 186.15 162.28V164.44C179.47 166.2 176.07 167.56 176.07 171.2C176.07 175.4 180.59 175.36 180.59 175.36C183.35 175.36 185.63 173.96 186.15 171.88C186.15 175.56 188.91 175.36 188.91 175.36C190.59 175.36 191.43 173.92 191.63 172.76L191.31 172.64C191.03 174.04 189.99 174.04 189.99 174.04ZM217.922 172.44V162.84C217.922 158.04 215.882 156.16 212.482 156.16C209.882 156.16 207.802 158.16 207.162 160.48C206.602 157.4 204.762 156.16 201.962 156.16C199.442 156.16 197.362 158 196.682 160.24V156.16L192.682 156.84V157.16C194.362 157.16 194.682 157.76 194.682 159.16V172.44C194.682 174.48 194.602 174.2 193.082 174.64V175H198.322V174.64C196.882 174.28 196.682 174.64 196.682 172.44V160.84C197.242 159.56 198.482 157.24 201.042 157.24C204.362 157.24 205.402 159.48 205.402 163V172.44C205.402 174.48 205.322 174.24 203.802 174.68V175H209.002V174.68C207.602 174.32 207.362 174.64 207.362 172.44V162.84C207.362 162.12 207.322 161.44 207.242 160.88C207.762 159.6 209.042 157.24 211.602 157.24C214.882 157.24 215.962 159.48 215.962 163V172.44C215.962 174.48 215.882 174.24 214.362 174.68V175H219.562V174.68C218.162 174.32 217.922 174.64 217.922 172.44ZM230.849 156.16C224.769 156.16 221.929 160.48 221.929 165.76C221.929 171 224.769 175.36 230.849 175.36C236.969 175.36 239.769 171 239.769 165.76C239.769 160.48 236.969 156.16 230.849 156.16ZM230.849 175C227.609 175 224.209 173 224.209 165.76C224.209 158.52 227.609 156.52 230.849 156.52C234.089 156.52 237.449 158.52 237.449 165.76C237.449 173 234.089 175 230.849 175ZM251.896 165.64L247.856 163.12C244.376 160.92 243.856 156.52 248.816 156.52C254.016 156.52 254.976 159.48 254.976 162.76H255.296V157.48C255.296 157.48 253.416 156.16 248.816 156.16C244.696 156.16 243.816 158.72 243.816 158.72C242.776 161.32 243.536 162.88 247.296 165.64L251.336 168.08C254.376 170.08 255.936 175 250.296 175C244.536 175 243.856 171.88 243.856 168.16H243.536V174C243.536 174 245.456 175.36 250.296 175.36C253.616 175.36 254.856 173.56 254.856 173.56C256.696 170.96 255.576 167.92 251.896 165.64ZM268.199 167.344C268.492 172.188 272.633 175.449 278.531 175.449C284.762 175.449 288.746 172.207 288.746 167.266C288.746 163.34 286.363 161.172 280.699 159.746L277.652 158.965C273.512 157.91 271.754 156.484 271.754 154.062C271.754 150.957 274.645 148.789 278.551 148.789C282.555 148.789 285.367 150.898 285.621 154.082H288.297C288.141 149.609 284.117 146.367 278.629 146.367C273.082 146.367 268.98 149.609 268.98 154.16C268.98 157.871 271.305 160.078 276.52 161.406L280.016 162.305C284.195 163.359 286.012 164.922 286.012 167.559C286.012 170.723 282.984 173.027 278.766 173.027C274.352 173.027 271.168 170.723 270.875 167.344H268.199ZM295.309 146.816H292.652V165.156C292.652 171.23 296.773 175.449 303.551 175.449C310.328 175.449 314.469 171.23 314.469 165.156V146.816H311.793V165C311.793 169.727 308.727 172.969 303.551 172.969C298.395 172.969 295.309 169.727 295.309 165V146.816ZM349.742 175V146.816H347.066V159.355H330.582V146.816H327.926V175H330.582V161.777H347.066V175H349.742ZM357.691 175V146.816H355.035V175H357.691ZM361.598 167.344C361.891 172.188 366.031 175.449 371.93 175.449C378.16 175.449 382.145 172.207 382.145 167.266C382.145 163.34 379.762 161.172 374.098 159.746L371.051 158.965C366.91 157.91 365.152 156.484 365.152 154.062C365.152 150.957 368.043 148.789 371.949 148.789C375.953 148.789 378.766 150.898 379.02 154.082H381.695C381.539 149.609 377.516 146.367 372.027 146.367C366.48 146.367 362.379 149.609 362.379 154.16C362.379 157.871 364.703 160.078 369.918 161.406L373.414 162.305C377.594 163.359 379.41 164.922 379.41 167.559C379.41 170.723 376.383 173.027 372.164 173.027C367.75 173.027 364.566 170.723 364.273 167.344H361.598ZM395.934 175V149.238H405.25V146.816H383.961V149.238H393.258V175H395.934ZM418.414 146.367C410.562 146.367 405.621 151.992 405.621 160.918C405.621 169.844 410.562 175.449 418.414 175.449C426.285 175.449 431.227 169.844 431.227 160.918C431.227 151.992 426.266 146.367 418.414 146.367ZM418.414 148.848C424.586 148.848 428.492 153.516 428.492 160.918C428.492 168.301 424.586 172.969 418.414 172.969C412.242 172.969 408.355 168.301 408.355 160.918C408.355 153.516 412.242 148.848 418.414 148.848ZM438.043 149.199H445.016C449.117 149.199 451.598 151.406 451.598 155.137C451.598 158.906 449.215 161.094 445.113 161.094H438.043V149.199ZM438.043 163.457H445.113C445.25 163.457 445.445 163.457 445.543 163.457L452.027 175H455.152L448.316 163.027C452.086 162.051 454.352 159.043 454.352 155.059C454.352 150.039 450.836 146.816 445.328 146.816H435.387V175H438.043V163.457ZM461.363 175V146.816H458.707V175H461.363ZM485.367 175H488.18L477.652 146.816H474.996L464.449 175H467.281L470.406 166.367H482.242L485.367 175ZM476.266 150.117H476.383L481.441 164.062H471.207L476.266 150.117ZM509.783 171.28C509.343 172.24 508.263 174.2 505.423 174.2C503.143 174.2 501.703 172.88 501.703 170.56C501.703 167.76 504.463 166.12 509.783 164.8V171.28ZM513.623 174.04C511.943 174.04 511.943 171.8 511.943 171.8V164.16C511.943 159.4 511.023 156.16 507.543 156.16C507.543 156.16 505.663 156.12 504.023 156.92C501.903 158.08 501.103 159.4 500.903 159.88C500.702 160.36 500.823 160.96 501.183 161.4C501.703 162.04 502.583 162.08 503.183 161.56C503.783 161 503.863 160.08 503.342 159.48C503.062 159.16 502.743 159.04 502.383 158.96C502.183 158.92 502.503 158.04 504.343 157.16C507.983 155.64 509.783 158.2 509.783 162.28V164.44C503.103 166.2 499.703 167.56 499.703 171.2C499.703 175.4 504.223 175.36 504.223 175.36C506.983 175.36 509.263 173.96 509.783 171.88C509.783 175.56 512.543 175.36 512.543 175.36C514.223 175.36 515.063 173.92 515.263 172.76L514.943 172.64C514.663 174.04 513.623 174.04 513.623 174.04ZM533.209 174.28C531.409 174.28 530.089 173.24 530.089 169.12V156.88H534.729L534.809 156.52H530.089V150.24L528.089 150.48V156.52H526.009L526.049 156.88H528.089V169.24C528.089 174.08 529.769 175.36 532.409 175.36C534.369 175.36 535.569 174 535.889 172.36L535.649 172.28C535.369 173.36 534.369 174.28 533.209 174.28ZM547.1 156.2C544.82 155.92 541.9 157.92 541.06 160V156.16L537.06 156.84V157.16C538.74 157.16 539.06 157.72 539.06 159.12V172.44C539.06 174.48 538.98 174.2 537.46 174.64V175H542.7V174.64C541.26 174.28 541.06 174.64 541.06 172.44V160.8C542.1 157.84 545.9 156.36 545.54 157.24C545.42 157.6 545.42 158 545.54 158.36C545.9 159.16 546.82 159.52 547.58 159.2C548.38 158.84 548.74 158 548.42 157.2C548.14 156.64 547.66 156.28 547.1 156.2ZM560.056 171.28C559.616 172.24 558.536 174.2 555.696 174.2C553.416 174.2 551.976 172.88 551.976 170.56C551.976 167.76 554.736 166.12 560.056 164.8V171.28ZM563.896 174.04C562.216 174.04 562.216 171.8 562.216 171.8V164.16C562.216 159.4 561.296 156.16 557.816 156.16C557.816 156.16 555.936 156.12 554.296 156.92C552.176 158.08 551.376 159.4 551.176 159.88C550.976 160.36 551.096 160.96 551.456 161.4C551.976 162.04 552.856 162.08 553.456 161.56C554.056 161 554.136 160.08 553.616 159.48C553.336 159.16 553.016 159.04 552.656 158.96C552.456 158.92 552.776 158.04 554.616 157.16C558.256 155.64 560.056 158.2 560.056 162.28V164.44C553.376 166.2 549.976 167.56 549.976 171.2C549.976 175.4 554.496 175.36 554.496 175.36C557.256 175.36 559.536 173.96 560.056 171.88C560.056 175.56 562.816 175.36 562.816 175.36C564.496 175.36 565.336 173.92 565.536 172.76L565.216 172.64C564.936 174.04 563.896 174.04 563.896 174.04ZM577.818 156.52V156.84C582.218 156.84 580.418 161.48 580.418 161.48L576.498 172.56L570.498 159.4C570.498 159.4 569.138 156.84 572.218 156.84V156.52H565.058V156.84C565.698 156.92 566.898 156.88 567.898 158.76C567.898 158.76 568.578 160 575.658 175.36H575.858L581.018 160.92C582.658 156.88 583.338 156.84 585.458 156.84V156.52H577.818ZM588.954 153.24H589.234L598.274 147.4L595.914 146.84L588.954 153.24ZM594.474 174.56C590.874 174.56 588.074 172.24 588.074 165.4H600.914C600.914 159.04 597.274 156.16 593.754 156.16C589.394 156.16 585.714 159.8 585.714 166C585.714 171.88 589.234 175.36 593.954 175.36C598.034 175.36 600.114 172.08 600.314 170.4L600.074 170.36C599.594 172.44 597.154 174.56 594.474 174.56ZM588.074 165C588.074 158.8 591.514 156.52 593.754 156.52C595.354 156.52 598.914 158.4 598.914 165H588.074ZM612.756 165.64L608.716 163.12C605.236 160.92 604.716 156.52 609.676 156.52C614.876 156.52 615.836 159.48 615.836 162.76H616.156V157.48C616.156 157.48 614.276 156.16 609.676 156.16C605.556 156.16 604.676 158.72 604.676 158.72C603.636 161.32 604.396 162.88 608.156 165.64L612.196 168.08C615.236 170.08 616.796 175 611.156 175C605.396 175 604.716 171.88 604.716 168.16H604.396V174C604.396 174 606.316 175.36 611.156 175.36C614.476 175.36 615.716 173.56 615.716 173.56C617.556 170.96 616.436 167.92 612.756 165.64ZM643.349 169.8C643.349 172.6 641.029 174.44 638.469 174.44C634.749 174.44 632.029 171.04 632.029 164.8C632.029 158.04 636.069 156.52 638.469 156.52C641.029 156.52 643.349 158.72 643.349 161.44V169.8ZM645.309 172.6V145.8L641.309 146.48V146.84C642.949 146.84 643.349 147.52 643.349 148.92V157.88C642.029 156.84 640.389 156.16 638.309 156.16C633.229 156.16 629.389 159.56 629.389 165.56C629.389 170.4 631.509 175.36 637.709 175.36C639.789 175.36 642.149 174.4 643.349 172.68V174.6C643.349 174.6 643.349 175.52 644.469 175.32L647.349 174.72V174.4C645.749 174.56 645.309 174.56 645.309 172.6ZM657.99 174.56C654.39 174.56 651.59 172.24 651.59 165.4H664.43C664.43 159.04 660.79 156.16 657.27 156.16C652.91 156.16 649.23 159.8 649.23 166C649.23 171.88 652.75 175.36 657.47 175.36C661.55 175.36 663.63 172.08 663.83 170.4L663.59 170.36C663.11 172.44 660.67 174.56 657.99 174.56ZM651.59 165C651.59 158.8 655.03 156.52 657.27 156.52C658.87 156.52 662.43 158.4 662.43 165H651.59ZM43.4783 211.64L39.4383 209.12C35.9583 206.92 35.4383 202.52 40.3983 202.52C45.5983 202.52 46.5583 205.48 46.5583 208.76H46.8783V203.48C46.8783 203.48 44.9983 202.16 40.3983 202.16C36.2783 202.16 35.3983 204.72 35.3983 204.72C34.3583 207.32 35.1183 208.88 38.8783 211.64L42.9183 214.08C45.9583 216.08 47.5183 221 41.8783 221C36.1183 221 35.4383 217.88 35.4383 214.16H35.1183V220C35.1183 220 37.0383 221.36 41.8783 221.36C45.1983 221.36 46.4383 219.56 46.4383 219.56C48.2783 216.96 47.1583 213.92 43.4783 211.64ZM59.6577 202.16C53.5777 202.16 50.7377 206.48 50.7377 211.76C50.7377 217 53.5777 221.36 59.6577 221.36C65.7777 221.36 68.5777 217 68.5777 211.76C68.5777 206.48 65.7777 202.16 59.6577 202.16ZM59.6577 221C56.4177 221 53.0177 219 53.0177 211.76C53.0177 204.52 56.4177 202.52 59.6577 202.52C62.8977 202.52 66.2577 204.52 66.2577 211.76C66.2577 219 62.8977 221 59.6577 221ZM75.3848 191.8L71.3848 192.48V192.84C73.0648 192.84 73.3848 193.4 73.3848 194.8V218.44C73.3848 220.48 73.3048 220.2 71.7848 220.64V221H77.0248V220.64C75.5848 220.28 75.3848 220.64 75.3848 218.44V191.8ZM94.8755 218V202.16L90.9955 202.88V203.2C92.8755 203.2 92.8755 203.24 92.8755 205.68V216.76C92.3155 218.52 90.9155 220.32 88.0755 220.32C85.7555 220.32 83.1955 219.08 83.1955 215.28V202.16L79.0355 202.88V203.2C81.2755 203.2 81.2755 203.2 81.2755 205.96V215.4C81.2755 220.56 85.0355 221.36 87.6355 221.36C90.5155 221.36 92.4355 219.56 92.8755 217.6V220.88C92.8755 220.88 92.8355 221.52 93.7155 221.32L96.9155 220.8V220.48C95.2355 220.28 94.8755 219.92 94.8755 218ZM114.612 215.92C114.092 217.84 112.292 220.48 108.452 220.48C105.532 220.48 101.852 218.08 101.852 211.72C101.852 203.68 106.772 202.52 108.532 202.52C112.252 202.52 113.612 204.16 113.212 204.04C113.012 203.96 112.612 203.96 112.212 204.12C111.532 204.44 111.292 205.24 111.652 205.96C111.932 206.6 112.852 206.76 113.492 206.48C113.972 206.2 114.212 205.76 114.212 205.24C114.212 204.56 113.532 202.16 108.532 202.16C103.132 202.16 99.4523 206.68 99.4523 211.88C99.4523 218.96 104.372 221.36 108.052 221.36C112.892 221.36 114.572 217.92 114.892 215.96L114.612 215.92ZM121.406 202.16L117.446 202.84V203.16C119.126 203.16 119.406 203.72 119.406 205.12V218.44C119.406 220.48 119.326 220.2 117.806 220.64V221H123.046V220.64C121.606 220.28 121.406 220.64 121.406 218.44V202.16ZM121.366 197.36C121.366 196.56 120.726 195.96 120.006 195.96C119.246 195.96 118.686 196.56 118.686 197.36C118.686 198.08 119.246 198.68 120.006 198.68C120.726 198.68 121.366 198.08 121.366 197.36ZM135.126 202.16C129.046 202.16 126.206 206.48 126.206 211.76C126.206 217 129.046 221.36 135.126 221.36C141.246 221.36 144.046 217 144.046 211.76C144.046 206.48 141.246 202.16 135.126 202.16ZM135.126 221C131.886 221 128.486 219 128.486 211.76C128.486 204.52 131.886 202.52 135.126 202.52C138.366 202.52 141.726 204.52 141.726 211.76C141.726 219 138.366 221 135.126 221ZM162.054 218.44V208.84C162.054 204.04 159.414 202.16 156.054 202.16C153.534 202.16 151.134 204.04 150.374 206.24V202.16L146.374 202.84V203.16C148.054 203.16 148.374 203.76 148.374 205.16V218.44C148.374 220.48 148.294 220.2 146.774 220.64V221H152.014V220.64C150.574 220.28 150.374 220.64 150.374 218.44V206.84C151.014 205.56 152.574 203.24 155.134 203.24C158.414 203.24 160.094 205.48 160.094 209V218.44C160.094 220.48 160.014 220.24 158.494 220.68V221H163.694V220.68C162.294 220.32 162.054 220.64 162.054 218.44ZM174.885 220.56C171.285 220.56 168.485 218.24 168.485 211.4H181.325C181.325 205.04 177.685 202.16 174.165 202.16C169.805 202.16 166.125 205.8 166.125 212C166.125 217.88 169.645 221.36 174.365 221.36C178.445 221.36 180.525 218.08 180.725 216.4L180.485 216.36C180.005 218.44 177.565 220.56 174.885 220.56ZM168.485 211C168.485 204.8 171.925 202.52 174.165 202.52C175.765 202.52 179.325 204.4 179.325 211H168.485ZM193.166 211.64L189.126 209.12C185.646 206.92 185.126 202.52 190.086 202.52C195.286 202.52 196.246 205.48 196.246 208.76H196.566V203.48C196.566 203.48 194.686 202.16 190.086 202.16C185.966 202.16 185.086 204.72 185.086 204.72C184.046 207.32 184.806 208.88 188.566 211.64L192.606 214.08C195.646 216.08 197.206 221 191.566 221C185.806 221 185.126 217.88 185.126 214.16H184.806V220C184.806 220 186.726 221.36 191.566 221.36C194.886 221.36 196.126 219.56 196.126 219.56C197.966 216.96 196.846 213.92 193.166 211.64ZM213.079 199.24H213.359L222.399 193.4L220.039 192.84L213.079 199.24ZM224.719 218V202.16L220.839 202.88V203.2C222.719 203.2 222.719 203.24 222.719 205.68V216.76C222.159 218.52 220.759 220.32 217.919 220.32C215.599 220.32 213.039 219.08 213.039 215.28V202.16L208.879 202.88V203.2C211.119 203.2 211.119 203.2 211.119 205.96V215.4C211.119 220.56 214.879 221.36 217.479 221.36C220.359 221.36 222.279 219.56 222.719 217.6V220.88C222.719 220.88 222.679 221.52 223.559 221.32L226.759 220.8V220.48C225.079 220.28 224.719 219.92 224.719 218ZM243.616 218.44V208.84C243.616 204.04 240.976 202.16 237.616 202.16C235.096 202.16 232.696 204.04 231.936 206.24V202.16L227.936 202.84V203.16C229.616 203.16 229.936 203.76 229.936 205.16V218.44C229.936 220.48 229.856 220.2 228.336 220.64V221H233.576V220.64C232.136 220.28 231.936 220.64 231.936 218.44V206.84C232.576 205.56 234.136 203.24 236.696 203.24C239.976 203.24 241.656 205.48 241.656 209V218.44C241.656 220.48 241.576 220.24 240.056 220.68V221H245.256V220.68C243.856 220.32 243.616 220.64 243.616 218.44ZM251.367 202.16L247.407 202.84V203.16C249.087 203.16 249.367 203.72 249.367 205.12V218.44C249.367 220.48 249.287 220.2 247.767 220.64V221H253.007V220.64C251.567 220.28 251.367 220.64 251.367 218.44V202.16ZM251.327 197.36C251.327 196.56 250.687 195.96 249.967 195.96C249.207 195.96 248.647 196.56 248.647 197.36C248.647 198.08 249.207 198.68 249.967 198.68C250.687 198.68 251.327 198.08 251.327 197.36ZM271.487 215.92C270.967 217.84 269.167 220.48 265.327 220.48C262.407 220.48 258.727 218.08 258.727 211.72C258.727 203.68 263.647 202.52 265.407 202.52C269.127 202.52 270.487 204.16 270.087 204.04C269.887 203.96 269.487 203.96 269.087 204.12C268.407 204.44 268.167 205.24 268.527 205.96C268.807 206.6 269.727 206.76 270.367 206.48C270.847 206.2 271.087 205.76 271.087 205.24C271.087 204.56 270.407 202.16 265.407 202.16C260.007 202.16 256.327 206.68 256.327 211.88C256.327 218.96 261.247 221.36 264.927 221.36C269.767 221.36 271.447 217.92 271.767 215.96L271.487 215.92ZM284.841 217.28C284.401 218.24 283.321 220.2 280.481 220.2C278.201 220.2 276.761 218.88 276.761 216.56C276.761 213.76 279.521 212.12 284.841 210.8V217.28ZM288.681 220.04C287.001 220.04 287.001 217.8 287.001 217.8V210.16C287.001 205.4 286.081 202.16 282.601 202.16C282.601 202.16 280.721 202.12 279.081 202.92C276.961 204.08 276.161 205.4 275.961 205.88C275.761 206.36 275.881 206.96 276.241 207.4C276.761 208.04 277.641 208.08 278.241 207.56C278.841 207 278.921 206.08 278.401 205.48C278.121 205.16 277.801 205.04 277.441 204.96C277.241 204.92 277.561 204.04 279.401 203.16C283.041 201.64 284.841 204.2 284.841 208.28V210.44C278.161 212.2 274.761 213.56 274.761 217.2C274.761 221.4 279.281 221.36 279.281 221.36C282.041 221.36 284.321 219.96 284.841 217.88C284.841 221.56 287.601 221.36 287.601 221.36C289.281 221.36 290.121 219.92 290.321 218.76L290.001 218.64C289.721 220.04 288.681 220.04 288.681 220.04ZM301.174 211.64L297.134 209.12C293.654 206.92 293.134 202.52 298.094 202.52C303.294 202.52 304.254 205.48 304.254 208.76H304.574V203.48C304.574 203.48 302.694 202.16 298.094 202.16C293.974 202.16 293.094 204.72 293.094 204.72C292.054 207.32 292.814 208.88 296.574 211.64L300.614 214.08C303.654 216.08 305.214 221 299.574 221C293.814 221 293.134 217.88 293.134 214.16H292.814V220C292.814 220 294.734 221.36 299.574 221.36C302.894 221.36 304.134 219.56 304.134 219.56C305.974 216.96 304.854 213.92 301.174 211.64ZM331.687 216.32C331.407 218.84 329.207 220.44 326.807 220.44C323.087 220.44 320.407 217.04 320.407 210.8C320.407 204.04 324.407 202.52 326.807 202.52C329.247 202.52 331.407 204.4 331.687 206.88V216.32ZM333.687 229.04V202.68C333.687 202.04 332.247 202.92 331.807 203.92C330.447 202.84 328.727 202.16 326.647 202.16C321.567 202.16 317.767 205.56 317.767 211.56C317.767 216.36 319.887 221.36 326.047 221.36C328.127 221.36 330.487 220.4 331.687 218.68V229.04C331.687 231.08 331.607 230.8 330.087 231.24V231.6H335.327V231.24C333.887 230.88 333.687 231.24 333.687 229.04ZM352.922 218V202.16L349.042 202.88V203.2C350.922 203.2 350.922 203.24 350.922 205.68V216.76C350.362 218.52 348.962 220.32 346.122 220.32C343.802 220.32 341.242 219.08 341.242 215.28V202.16L337.082 202.88V203.2C339.322 203.2 339.322 203.2 339.322 205.96V215.4C339.322 220.56 343.082 221.36 345.682 221.36C348.562 221.36 350.482 219.56 350.922 217.6V220.88C350.922 220.88 350.882 221.52 351.762 221.32L354.962 220.8V220.48C353.282 220.28 352.922 219.92 352.922 218ZM365.939 220.56C362.339 220.56 359.539 218.24 359.539 211.4H372.379C372.379 205.04 368.739 202.16 365.219 202.16C360.859 202.16 357.179 205.8 357.179 212C357.179 217.88 360.699 221.36 365.419 221.36C369.499 221.36 371.579 218.08 371.779 216.4L371.539 216.36C371.059 218.44 368.619 220.56 365.939 220.56ZM359.539 211C359.539 204.8 362.979 202.52 365.219 202.52C366.819 202.52 370.379 204.4 370.379 211H359.539ZM403.635 202.68C403.315 202.24 402.755 202.04 402.195 202.04C401.235 202.04 399.675 202.72 398.755 204.12C397.435 202.92 395.315 202.16 393.195 202.16C388.875 202.16 385.915 205.16 385.915 208.4C385.915 210.52 386.715 212.8 388.955 213.8C385.395 214.48 385.675 217.56 385.675 217.56C385.675 218.64 385.955 219.72 387.195 220.32C384.275 222.28 383.155 225 384.715 227.52C386.435 230.32 391.755 231.12 397.075 228.12C401.275 225.76 401.355 222.88 401.355 222.88C401.995 218.44 396.995 219.04 394.235 219.04H390.235C384.995 219.04 386.595 214.12 389.235 213.96C390.355 214.44 391.635 214.68 393.195 214.68C397.595 214.68 400.515 211.64 400.515 208.4C400.515 206.96 399.995 205.32 398.955 204.32C399.715 203.04 401.275 202.92 401.155 203.24C401.035 203.6 401.115 204 401.355 204.32C401.755 204.96 402.635 205.04 403.275 204.6C403.875 204.16 404.035 203.32 403.635 202.68ZM387.515 220.52C388.755 220.96 390.275 221 390.715 221H396.355C400.315 221 400.235 222.92 400.235 222.92C400.235 222.92 400.475 225.52 396.875 227.8C393.515 229.96 388.355 228.88 386.795 227.04C386.955 227.2 383.595 223.44 387.515 220.52ZM393.195 214.36C391.435 214.36 388.195 212.88 388.195 208.4C388.195 203.92 391.195 202.52 393.195 202.52C394.915 202.52 398.235 203.92 398.235 208.4C398.235 212.88 395.035 214.36 393.195 214.36ZM409.101 202.16L405.141 202.84V203.16C406.821 203.16 407.101 203.72 407.101 205.12V218.44C407.101 220.48 407.021 220.2 405.501 220.64V221H410.741V220.64C409.301 220.28 409.101 220.64 409.101 218.44V202.16ZM409.061 197.36C409.061 196.56 408.421 195.96 407.701 195.96C406.941 195.96 406.381 196.56 406.381 197.36C406.381 198.08 406.941 198.68 407.701 198.68C408.421 198.68 409.061 198.08 409.061 197.36ZM422.862 202.2C420.582 201.92 417.662 203.92 416.822 206V202.16L412.822 202.84V203.16C414.502 203.16 414.822 203.72 414.822 205.12V218.44C414.822 220.48 414.742 220.2 413.222 220.64V221H418.462V220.64C417.022 220.28 416.822 220.64 416.822 218.44V206.8C417.862 203.84 421.662 202.36 421.302 203.24C421.182 203.6 421.182 204 421.302 204.36C421.662 205.16 422.582 205.52 423.342 205.2C424.142 204.84 424.502 204 424.182 203.2C423.902 202.64 423.422 202.28 422.862 202.2ZM435.818 217.28C435.378 218.24 434.298 220.2 431.458 220.2C429.178 220.2 427.738 218.88 427.738 216.56C427.738 213.76 430.498 212.12 435.818 210.8V217.28ZM439.658 220.04C437.978 220.04 437.978 217.8 437.978 217.8V210.16C437.978 205.4 437.058 202.16 433.578 202.16C433.578 202.16 431.698 202.12 430.058 202.92C427.938 204.08 427.138 205.4 426.938 205.88C426.738 206.36 426.858 206.96 427.218 207.4C427.738 208.04 428.618 208.08 429.218 207.56C429.818 207 429.898 206.08 429.378 205.48C429.098 205.16 428.778 205.04 428.418 204.96C428.218 204.92 428.538 204.04 430.378 203.16C434.018 201.64 435.818 204.2 435.818 208.28V210.44C429.138 212.2 425.738 213.56 425.738 217.2C425.738 221.4 430.258 221.36 430.258 221.36C433.018 221.36 435.298 219.96 435.818 217.88C435.818 221.56 438.578 221.36 438.578 221.36C440.258 221.36 441.098 219.92 441.298 218.76L440.978 218.64C440.698 220.04 439.658 220.04 439.658 220.04ZM458.03 218.44V208.84C458.03 204.04 455.39 202.16 452.03 202.16C449.51 202.16 447.11 204.04 446.35 206.24V202.16L442.35 202.84V203.16C444.03 203.16 444.35 203.76 444.35 205.16V218.44C444.35 220.48 444.27 220.2 442.75 220.64V221H447.99V220.64C446.55 220.28 446.35 220.64 446.35 218.44V206.84C446.99 205.56 448.55 203.24 451.11 203.24C454.39 203.24 456.07 205.48 456.07 209V218.44C456.07 220.48 455.99 220.24 454.47 220.68V221H459.67V220.68C458.27 220.32 458.03 220.64 458.03 218.44ZM481.755 217.28C481.315 218.24 480.235 220.2 477.395 220.2C475.115 220.2 473.675 218.88 473.675 216.56C473.675 213.76 476.435 212.12 481.755 210.8V217.28ZM485.595 220.04C483.915 220.04 483.915 217.8 483.915 217.8V210.16C483.915 205.4 482.995 202.16 479.515 202.16C479.515 202.16 477.635 202.12 475.995 202.92C473.875 204.08 473.075 205.4 472.875 205.88C472.675 206.36 472.795 206.96 473.155 207.4C473.675 208.04 474.555 208.08 475.155 207.56C475.755 207 475.835 206.08 475.315 205.48C475.035 205.16 474.715 205.04 474.355 204.96C474.155 204.92 474.475 204.04 476.315 203.16C479.955 201.64 481.755 204.2 481.755 208.28V210.44C475.075 212.2 471.675 213.56 471.675 217.2C471.675 221.4 476.195 221.36 476.195 221.36C478.955 221.36 481.235 219.96 481.755 217.88C481.755 221.56 484.515 221.36 484.515 221.36C486.195 221.36 487.035 219.92 487.235 218.76L486.915 218.64C486.635 220.04 485.595 220.04 485.595 220.04ZM492.768 191.8L488.768 192.48V192.84C490.448 192.84 490.768 193.4 490.768 194.8V218.44C490.768 220.48 490.688 220.2 489.168 220.64V221H494.408V220.64C492.968 220.28 492.768 220.64 492.768 218.44V191.8ZM506.338 202.2C504.058 201.92 501.138 203.92 500.298 206V202.16L496.298 202.84V203.16C497.978 203.16 498.298 203.72 498.298 205.12V218.44C498.298 220.48 498.218 220.2 496.698 220.64V221H501.938V220.64C500.498 220.28 500.298 220.64 500.298 218.44V206.8C501.338 203.84 505.138 202.36 504.778 203.24C504.658 203.6 504.658 204 504.778 204.36C505.138 205.16 506.058 205.52 506.818 205.2C507.618 204.84 507.978 204 507.658 203.2C507.378 202.64 506.898 202.28 506.338 202.2ZM518.791 220.56C515.191 220.56 512.391 218.24 512.391 211.4H525.231C525.231 205.04 521.591 202.16 518.071 202.16C513.711 202.16 510.031 205.8 510.031 212C510.031 217.88 513.551 221.36 518.271 221.36C522.351 221.36 524.431 218.08 524.631 216.4L524.391 216.36C523.911 218.44 521.471 220.56 518.791 220.56ZM512.391 211C512.391 204.8 515.831 202.52 518.071 202.52C519.671 202.52 523.231 204.4 523.231 211H512.391ZM542.392 215.8C542.392 218.6 540.072 220.44 537.512 220.44C533.792 220.44 531.072 217.04 531.072 210.8C531.072 204.04 535.112 202.52 537.512 202.52C540.072 202.52 542.392 204.72 542.392 207.44V215.8ZM544.352 218.6V191.8L540.352 192.48V192.84C541.992 192.84 542.392 193.52 542.392 194.92V203.88C541.072 202.84 539.432 202.16 537.352 202.16C532.272 202.16 528.432 205.56 528.432 211.56C528.432 216.4 530.552 221.36 536.752 221.36C538.832 221.36 541.192 220.4 542.392 218.68V220.6C542.392 220.6 542.392 221.52 543.512 221.32L546.392 220.72V220.4C544.792 220.56 544.352 220.56 544.352 218.6ZM557.033 220.56C553.433 220.56 550.633 218.24 550.633 211.4H563.473C563.473 205.04 559.833 202.16 556.313 202.16C551.953 202.16 548.273 205.8 548.273 212C548.273 217.88 551.793 221.36 556.513 221.36C560.593 221.36 562.673 218.08 562.873 216.4L562.633 216.36C562.153 218.44 559.713 220.56 557.033 220.56ZM550.633 211C550.633 204.8 554.073 202.52 556.313 202.52C557.913 202.52 561.473 204.4 561.473 211H550.633ZM580.634 215.8C580.634 218.6 578.314 220.44 575.754 220.44C572.034 220.44 569.314 217.04 569.314 210.8C569.314 204.04 573.354 202.52 575.754 202.52C578.314 202.52 580.634 204.72 580.634 207.44V215.8ZM582.594 218.6V191.8L578.594 192.48V192.84C580.234 192.84 580.634 193.52 580.634 194.92V203.88C579.314 202.84 577.674 202.16 575.594 202.16C570.514 202.16 566.674 205.56 566.674 211.56C566.674 216.4 568.794 221.36 574.994 221.36C577.074 221.36 579.434 220.4 580.634 218.68V220.6C580.634 220.6 580.634 221.52 581.754 221.32L584.634 220.72V220.4C583.034 220.56 582.594 220.56 582.594 218.6ZM595.595 202.16C589.515 202.16 586.675 206.48 586.675 211.76C586.675 217 589.515 221.36 595.595 221.36C601.715 221.36 604.515 217 604.515 211.76C604.515 206.48 601.715 202.16 595.595 202.16ZM595.595 221C592.355 221 588.955 219 588.955 211.76C588.955 204.52 592.355 202.52 595.595 202.52C598.835 202.52 602.195 204.52 602.195 211.76C602.195 219 598.835 221 595.595 221ZM617.002 202.2C614.722 201.92 611.802 203.92 610.962 206V202.16L606.962 202.84V203.16C608.642 203.16 608.962 203.72 608.962 205.12V218.44C608.962 220.48 608.882 220.2 607.362 220.64V221H612.602V220.64C611.162 220.28 610.962 220.64 610.962 218.44V206.8C612.002 203.84 615.802 202.36 615.442 203.24C615.322 203.6 615.322 204 615.442 204.36C615.802 205.16 616.722 205.52 617.482 205.2C618.282 204.84 618.642 204 618.322 203.2C618.042 202.64 617.562 202.28 617.002 202.2ZM644.189 215.8C644.189 218.6 641.869 220.44 639.309 220.44C635.589 220.44 632.869 217.04 632.869 210.8C632.869 204.04 636.909 202.52 639.309 202.52C641.869 202.52 644.189 204.72 644.189 207.44V215.8ZM646.149 218.6V191.8L642.149 192.48V192.84C643.789 192.84 644.189 193.52 644.189 194.92V203.88C642.869 202.84 641.229 202.16 639.149 202.16C634.069 202.16 630.229 205.56 630.229 211.56C630.229 216.4 632.349 221.36 638.549 221.36C640.629 221.36 642.989 220.4 644.189 218.68V220.6C644.189 220.6 644.189 221.52 645.309 221.32L648.189 220.72V220.4C646.589 220.56 646.149 220.56 646.149 218.6ZM658.83 220.56C655.23 220.56 652.43 218.24 652.43 211.4H665.27C665.27 205.04 661.63 202.16 658.11 202.16C653.75 202.16 650.07 205.8 650.07 212C650.07 217.88 653.59 221.36 658.31 221.36C662.39 221.36 664.47 218.08 664.67 216.4L664.43 216.36C663.95 218.44 661.51 220.56 658.83 220.56ZM652.43 211C652.43 204.8 655.87 202.52 658.11 202.52C659.71 202.52 663.27 204.4 663.27 211H652.43ZM671.791 191.8L667.791 192.48V192.84C669.471 192.84 669.791 193.4 669.791 194.8V218.44C669.791 220.48 669.711 220.2 668.191 220.64V221H673.431V220.64C671.991 220.28 671.791 220.64 671.791 218.44V191.8ZM133.629 238.816V267H142.77C151.227 267 156.129 261.824 156.129 252.898C156.129 243.992 151.207 238.816 142.77 238.816H133.629ZM136.305 241.238H142.613C149.547 241.238 153.414 245.418 153.414 252.918C153.414 260.398 149.547 264.578 142.613 264.578H136.305V241.238ZM162.926 267V238.816H160.27V267H162.926ZM166.832 259.344C167.125 264.188 171.266 267.449 177.164 267.449C183.395 267.449 187.379 264.207 187.379 259.266C187.379 255.34 184.996 253.172 179.332 251.746L176.285 250.965C172.145 249.91 170.387 248.484 170.387 246.062C170.387 242.957 173.277 240.789 177.184 240.789C181.188 240.789 184 242.898 184.254 246.082H186.93C186.773 241.609 182.75 238.367 177.262 238.367C171.715 238.367 167.613 241.609 167.613 246.16C167.613 249.871 169.938 252.078 175.152 253.406L178.648 254.305C182.828 255.359 184.645 256.922 184.645 259.559C184.645 262.723 181.617 265.027 177.398 265.027C172.984 265.027 169.801 262.723 169.508 259.344H166.832ZM208.297 264.578H193.941V253.758H207.574V251.375H193.941V241.238H208.297V238.816H191.285V267H208.297V264.578ZM215.484 267V243.445H215.621L232.203 267H234.781V238.816H232.145V262.352H232.008L215.484 238.816H212.848V267H215.484ZM226.402 236.297C228.453 236.297 229.781 234.5 229.781 231.648H227.945C227.945 233.504 227.418 234.539 226.422 234.539C224.762 234.539 223.922 231.473 221.227 231.473C219.117 231.473 217.828 233.191 217.828 236.102H219.664C219.605 234.285 220.152 233.23 221.207 233.23C222.926 233.23 223.824 236.297 226.402 236.297ZM251.734 238.367C243.883 238.367 238.941 243.992 238.941 252.918C238.941 261.844 243.883 267.449 251.734 267.449C259.605 267.449 264.547 261.844 264.547 252.918C264.547 243.992 259.586 238.367 251.734 238.367ZM251.734 240.848C257.906 240.848 261.812 245.516 261.812 252.918C261.812 260.301 257.906 264.969 251.734 264.969C245.562 264.969 241.676 260.301 241.676 252.918C241.676 245.516 245.562 240.848 251.734 240.848ZM288.284 248.52V248.84C292.924 248.76 290.564 255.32 290.564 255.32L287.364 264.48L281.684 252.2C281.684 252.2 279.964 248.84 283.044 248.84V248.52H275.924V248.84C276.564 248.92 278.084 249.24 279.044 251.32C279.044 251.32 279.364 251.64 286.444 267L284.364 273C283.884 274.32 283.124 275.16 282.964 274.48C282.884 274.16 282.604 273.76 282.204 273.6C281.484 273.28 280.644 273.6 280.284 274.36C280.004 275.08 280.284 275.92 281.044 276.28C281.564 276.52 282.324 276.4 282.724 276.08C283.124 275.76 284.044 275 284.644 273.12L290.924 255.4C293.044 249.44 293.964 248.84 295.924 248.84V248.52H288.284ZM310.873 237.8L306.873 238.48V238.84C308.553 238.84 308.873 239.4 308.873 240.8V264.44C308.873 266.48 308.793 266.2 307.273 266.64V267H312.513V266.64C311.073 266.28 310.873 266.64 310.873 264.44V237.8ZM325.564 263.28C325.124 264.24 324.044 266.2 321.204 266.2C318.924 266.2 317.484 264.88 317.484 262.56C317.484 259.76 320.244 258.12 325.564 256.8V263.28ZM329.404 266.04C327.724 266.04 327.724 263.8 327.724 263.8V256.16C327.724 251.4 326.804 248.16 323.324 248.16C323.324 248.16 321.444 248.12 319.804 248.92C317.684 250.08 316.884 251.4 316.684 251.88C316.484 252.36 316.604 252.96 316.964 253.4C317.484 254.04 318.364 254.08 318.964 253.56C319.564 253 319.644 252.08 319.124 251.48C318.844 251.16 318.524 251.04 318.164 250.96C317.964 250.92 318.284 250.04 320.124 249.16C323.764 247.64 325.564 250.2 325.564 254.28V256.44C318.884 258.2 315.484 259.56 315.484 263.2C315.484 267.4 320.004 267.36 320.004 267.36C322.764 267.36 325.044 265.96 325.564 263.88C325.564 267.56 328.324 267.36 328.324 267.36C330.004 267.36 330.844 265.92 331.044 264.76L330.724 264.64C330.444 266.04 329.404 266.04 329.404 266.04ZM346.363 267V238.816H343.707V267H346.363ZM354.273 267V243.445H354.41L370.992 267H373.57V238.816H370.934V262.352H370.797L354.273 238.816H351.637V267H354.273ZM381.5 267V243.445H381.637L398.219 267H400.797V238.816H398.16V262.352H398.023L381.5 238.816H378.863V267H381.5ZM417.75 238.367C409.898 238.367 404.957 243.992 404.957 252.918C404.957 261.844 409.898 267.449 417.75 267.449C425.621 267.449 430.562 261.844 430.562 252.918C430.562 243.992 425.602 238.367 417.75 238.367ZM417.75 240.848C423.922 240.848 427.828 245.516 427.828 252.918C427.828 260.301 423.922 264.969 417.75 264.969C411.578 264.969 407.691 260.301 407.691 252.918C407.691 245.516 411.578 240.848 417.75 240.848ZM444.684 267L455.23 238.816H452.418L443.414 263.68H443.297L434.312 238.816H431.48L442.027 267H444.684ZM474.078 267H476.891L466.363 238.816H463.707L453.16 267H455.992L459.117 258.367H470.953L474.078 267ZM464.977 242.117H465.094L470.152 256.062H459.918L464.977 242.117ZM490.523 267.449C496.637 267.449 500.953 264.148 501.949 258.66H499.273C498.434 262.566 495.035 264.969 490.543 264.969C484.547 264.969 480.699 260.262 480.699 252.84C480.699 245.516 484.547 240.848 490.523 240.848C494.898 240.848 498.492 243.699 499.273 247.762H501.949C501.188 242.254 496.48 238.367 490.523 238.367C482.867 238.367 477.965 244.012 477.965 252.84C477.965 261.766 482.848 267.449 490.523 267.449ZM508.551 267V238.816H505.895V267H508.551ZM525.484 238.367C517.633 238.367 512.691 243.992 512.691 252.918C512.691 261.844 517.633 267.449 525.484 267.449C533.355 267.449 538.297 261.844 538.297 252.918C538.297 243.992 533.336 238.367 525.484 238.367ZM525.484 240.848C531.656 240.848 535.562 245.516 535.562 252.918C535.562 260.301 531.656 264.969 525.484 264.969C519.312 264.969 515.426 260.301 515.426 252.918C515.426 245.516 519.312 240.848 525.484 240.848ZM526.773 236.57L532.125 230.945H529.176L524.41 236.57H526.773ZM545.094 267V243.445H545.23L561.812 267H564.391V238.816H561.754V262.352H561.617L545.094 238.816H542.457V267H545.094ZM572.027 267.176C573.043 267.176 573.844 266.375 573.844 265.359C573.844 264.324 573.043 263.523 572.027 263.523C571.012 263.523 570.191 264.324 570.191 265.359C570.191 266.375 571.012 267.176 572.027 267.176Z" fill="white"/>
<path d="M205.602 133H649.098V135H205.602V133ZM33.2383 225H198.766V227H33.2383V225Z" fill="white"/>
<path d="M605.822 221.474C610.565 227.651 608.057 236.558 603.027 242.319C599.804 246.01 593.771 248.835 589.169 250.624" stroke="white" stroke-linecap="round" stroke-linejoin="round"/>
<path d="M592.083 242.807C591.532 247.22 588.99 248.525 586.635 252.034C585.226 254.131 589.735 256.356 591.488 257.599" stroke="white" stroke-linecap="round" stroke-linejoin="round"/>
<path d="M264.839 183.563C253.06 182.037 241.724 182.346 230.685 185.371C221.495 187.89 211.691 192.372 206.581 202.933C203.282 209.751 203.66 220.041 210.752 224.401C218.09 228.913 226.293 229.964 233.8 231.465C242.738 233.252 251.512 234.504 260.339 234.681C274.854 234.973 289.252 233.461 301.606 225.423C305.574 222.841 317.162 215.664 310.424 206.642C302.699 196.3 289.746 191.9 280.197 189.61C261.867 185.216 243.527 187.159 227.769 195.401" stroke="white" stroke-linecap="round" stroke-linejoin="round"/>
</svg>
