<svg width="261" height="374" viewBox="0 0 261 374" fill="none" xmlns="http://www.w3.org/2000/svg">
<path d="M50.1693 1.288V1.54C53.2493 1.54 52.8293 2.856 51.2333 8.204L47.5373 19.18L42.3293 3.108C42.2453 2.716 41.9933 1.54 44.4573 1.54V1.288H38.3253V1.54C39.4733 1.54 40.4253 1.876 41.0973 3.64L42.4133 7.812L38.8853 19.096L33.2853 3.108C33.1453 2.716 32.9493 1.54 35.4133 1.54V1.288H29.2533V1.54C30.4293 1.54 31.3533 1.876 32.0253 3.64L38.2413 21H38.5773L42.5533 8.176L46.8653 21H47.1733L51.5133 8.232C53.5293 2.212 53.3333 1.54 56.1333 1.54V1.288H50.1693ZM61.1856 20.692C58.6656 20.692 56.7056 19.068 56.7056 14.28H65.6936C65.6936 9.828 63.1456 7.812 60.6816 7.812C57.6296 7.812 55.0536 10.36 55.0536 14.7C55.0536 18.816 57.5176 21.252 60.8216 21.252C63.6776 21.252 65.1336 18.956 65.2736 17.78L65.1056 17.752C64.7696 19.208 63.0616 20.692 61.1856 20.692ZM56.7056 14C56.7056 9.66 59.1136 8.064 60.6816 8.064C61.8016 8.064 64.2936 9.38 64.2936 14H56.7056ZM81.6083 18.396C81.3003 19.068 80.5443 20.44 78.5563 20.44C76.9603 20.44 75.9523 19.516 75.9523 17.892C75.9523 15.932 77.8843 14.784 81.6083 13.86V18.396ZM84.2963 20.328C83.1203 20.328 83.1203 18.76 83.1203 18.76V13.412C83.1203 10.08 82.4763 7.812 80.0403 7.812C80.0403 7.812 78.7243 7.784 77.5763 8.344C76.0923 9.156 75.5323 10.08 75.3923 10.416C75.2523 10.752 75.3363 11.172 75.5883 11.48C75.9523 11.928 76.5683 11.956 76.9883 11.592C77.4083 11.2 77.4643 10.556 77.1003 10.136C76.9043 9.912 76.6803 9.828 76.4283 9.772C76.2883 9.744 76.5123 9.128 77.8003 8.512C80.3483 7.448 81.6083 9.24 81.6083 12.096V13.608C76.9323 14.84 74.5523 15.792 74.5523 18.34C74.5523 21.28 77.7163 21.252 77.7163 21.252C79.6483 21.252 81.2443 20.272 81.6083 18.816C81.6083 21.392 83.5403 21.252 83.5403 21.252C84.7163 21.252 85.3043 20.244 85.4443 19.432L85.2203 19.348C85.0243 20.328 84.2963 20.328 84.2963 20.328ZM93.293 7.84C91.697 7.644 89.653 9.044 89.065 10.5V7.812L86.265 8.288V8.512C87.441 8.512 87.665 8.904 87.665 9.884V19.208C87.665 20.636 87.609 20.44 86.545 20.748V21H90.213V20.748C89.205 20.496 89.065 20.748 89.065 19.208V11.06C89.793 8.988 92.453 7.952 92.201 8.568C92.117 8.82 92.117 9.1 92.201 9.352C92.453 9.912 93.097 10.164 93.629 9.94C94.189 9.688 94.441 9.1 94.217 8.54C94.021 8.148 93.685 7.896 93.293 7.84ZM102.01 20.692C99.4898 20.692 97.5298 19.068 97.5298 14.28H106.518C106.518 9.828 103.97 7.812 101.506 7.812C98.4538 7.812 95.8778 10.36 95.8778 14.7C95.8778 18.816 98.3418 21.252 101.646 21.252C104.502 21.252 105.958 18.956 106.098 17.78L105.93 17.752C105.594 19.208 103.886 20.692 102.01 20.692ZM97.5298 14C97.5298 9.66 99.9378 8.064 101.506 8.064C102.626 8.064 105.118 9.38 105.118 14H97.5298ZM129.186 21H131.154L123.785 1.27148H121.926L114.543 21H116.525L118.713 14.957H126.998L129.186 21ZM122.814 3.58203H122.896L126.438 13.3438H119.273L122.814 3.58203ZM146.125 21V2.9668H152.646V1.27148H137.744V2.9668H144.252V21H146.125ZM166.92 19.3047H156.871V11.7305H166.414V10.0625H156.871V2.9668H166.92V1.27148H155.012V21H166.92V19.3047ZM183.217 21H185.186L177.816 1.27148H175.957L168.574 21H170.557L172.744 14.957H181.029L183.217 21ZM176.846 3.58203H176.928L180.469 13.3438H173.305L176.846 3.58203ZM206.363 21V1.27148H204.203L196.902 18.5391H196.82L189.506 1.27148H187.359V21H189.109V4.8125H189.191L196.041 20.9043H197.668L204.531 4.8125H204.613V21H206.363ZM222.191 7.812C217.935 7.812 215.947 10.836 215.947 14.532C215.947 18.2 217.935 21.252 222.191 21.252C226.475 21.252 228.435 18.2 228.435 14.532C228.435 10.836 226.475 7.812 222.191 7.812ZM222.191 21C219.923 21 217.543 19.6 217.543 14.532C217.543 9.464 219.923 8.064 222.191 8.064C224.459 8.064 226.811 9.464 226.811 14.532C226.811 19.6 224.459 21 222.191 21ZM237.876 0.924C237.652 0.643998 236.756 0.195999 235.72 0.195999C232.696 0.195999 231.912 2.324 231.912 8.064H230.092L230.12 8.316H231.912V19.376C231.912 20.664 231.884 20.636 230.82 20.776V21H234.88V20.776C233.872 20.664 233.312 20.776 233.312 19.376V8.316H236.532L236.588 8.064H233.312C233.312 1.512 234.124 0.42 235.72 0.42C236.308 0.42 236.756 0.812 236.616 0.895998C236.42 0.979999 236.224 1.204 236.14 1.484C235.944 2.072 236.28 2.632 236.84 2.8C237.4 2.968 237.988 2.66 238.156 2.1C238.268 1.708 238.128 1.204 237.876 0.924ZM57.5391 53.3145C61.8184 53.3145 64.8398 51.0039 65.5371 47.1621H63.6641C63.0762 49.8965 60.6973 51.5781 57.5527 51.5781C53.3555 51.5781 50.6621 48.2832 50.6621 43.0879C50.6621 37.9609 53.3555 34.6934 57.5391 34.6934C60.6016 34.6934 63.1172 36.6895 63.6641 39.5332H65.5371C65.0039 35.6777 61.709 32.957 57.5391 32.957C52.1797 32.957 48.748 36.9082 48.748 43.0879C48.748 49.3359 52.166 53.3145 57.5391 53.3145ZM70.1582 34.9395H75.0391C77.9102 34.9395 79.6465 36.4844 79.6465 39.0957C79.6465 41.7344 77.9785 43.2656 75.1074 43.2656H70.1582V34.9395ZM70.1582 44.9199H75.1074C75.2031 44.9199 75.3398 44.9199 75.4082 44.9199L79.9473 53H82.1348L77.3496 44.6191C79.9883 43.9355 81.5742 41.8301 81.5742 39.041C81.5742 35.5273 79.1133 33.2715 75.2578 33.2715H68.2988V53H70.1582V44.9199ZM96.5312 51.3047H86.4824V43.7305H96.0254V42.0625H86.4824V34.9668H96.5312V33.2715H84.623V53H96.5312V51.3047ZM112.828 53H114.797L107.428 33.2715H105.568L98.1855 53H100.168L102.355 46.957H110.641L112.828 53ZM106.457 35.582H106.539L110.08 45.3438H102.916L106.457 35.582ZM121.236 53V34.9668H127.758V33.2715H112.855V34.9668H119.363V53H121.236ZM131.982 53V33.2715H130.123V53H131.982ZM143.385 53L150.768 33.2715H148.799L142.496 50.6758H142.414L136.125 33.2715H134.143L141.525 53H143.385ZM164.836 51.3047H154.787V43.7305H164.33V42.0625H154.787V34.9668H164.836V33.2715H152.928V53H164.836V51.3047ZM180.97 50.396C180.662 51.068 179.906 52.44 177.918 52.44C176.322 52.44 175.314 51.516 175.314 49.892C175.314 47.932 177.246 46.784 180.97 45.86V50.396ZM183.658 52.328C182.482 52.328 182.482 50.76 182.482 50.76V45.412C182.482 42.08 181.838 39.812 179.402 39.812C179.402 39.812 178.086 39.784 176.938 40.344C175.454 41.156 174.894 42.08 174.754 42.416C174.614 42.752 174.698 43.172 174.95 43.48C175.314 43.928 175.93 43.956 176.35 43.592C176.77 43.2 176.826 42.556 176.462 42.136C176.266 41.912 176.042 41.828 175.79 41.772C175.65 41.744 175.874 41.128 177.162 40.512C179.71 39.448 180.97 41.24 180.97 44.096V45.608C176.294 46.84 173.914 47.792 173.914 50.34C173.914 53.28 177.078 53.252 177.078 53.252C179.01 53.252 180.606 52.272 180.97 50.816C180.97 53.392 182.902 53.252 182.902 53.252C184.078 53.252 184.666 52.244 184.806 51.432L184.582 51.348C184.386 52.328 183.658 52.328 183.658 52.328ZM196.518 51.208V44.488C196.518 41.128 194.67 39.812 192.318 39.812C190.554 39.812 188.874 41.128 188.342 42.668V39.812L185.542 40.288V40.512C186.718 40.512 186.942 40.932 186.942 41.912V51.208C186.942 52.636 186.886 52.44 185.822 52.748V53H189.49V52.748C188.482 52.496 188.342 52.748 188.342 51.208V43.088C188.79 42.192 189.882 40.568 191.674 40.568C193.97 40.568 195.146 42.136 195.146 44.6V51.208C195.146 52.636 195.09 52.468 194.026 52.776V53H197.666V52.776C196.686 52.524 196.518 52.748 196.518 51.208ZM209.224 49.36C209.224 51.32 207.6 52.608 205.808 52.608C203.204 52.608 201.3 50.228 201.3 45.86C201.3 41.128 204.128 40.064 205.808 40.064C207.6 40.064 209.224 41.604 209.224 43.508V49.36ZM210.596 51.32V32.56L207.796 33.036V33.288C208.944 33.288 209.224 33.764 209.224 34.744V41.016C208.3 40.288 207.152 39.812 205.696 39.812C202.14 39.812 199.452 42.192 199.452 46.392C199.452 49.78 200.936 53.252 205.276 53.252C206.732 53.252 208.384 52.58 209.224 51.376V52.72C209.224 52.72 209.224 53.364 210.008 53.224L212.024 52.804V52.58C210.904 52.692 210.596 52.692 210.596 51.32ZM66.7155 71.812L63.9435 72.288V72.512C65.1195 72.512 65.3155 72.904 65.3155 73.884V83.208C65.3155 84.636 65.2595 84.44 64.1955 84.748V85H67.8635V84.748C66.8555 84.496 66.7155 84.748 66.7155 83.208V71.812ZM66.6875 68.452C66.6875 67.892 66.2395 67.472 65.7355 67.472C65.2035 67.472 64.8115 67.892 64.8115 68.452C64.8115 68.956 65.2035 69.376 65.7355 69.376C66.2395 69.376 66.6875 68.956 66.6875 68.452ZM80.2117 83.208V76.488C80.2117 73.128 78.3637 71.812 76.0117 71.812C74.2477 71.812 72.5677 73.128 72.0357 74.668V71.812L69.2357 72.288V72.512C70.4117 72.512 70.6357 72.932 70.6357 73.912V83.208C70.6357 84.636 70.5797 84.44 69.5157 84.748V85H73.1837V84.748C72.1757 84.496 72.0357 84.748 72.0357 83.208V75.088C72.4837 74.192 73.5757 72.568 75.3677 72.568C77.6637 72.568 78.8397 74.136 78.8397 76.6V83.208C78.8397 84.636 78.7837 84.468 77.7197 84.776V85H81.3597V84.776C80.3797 84.524 80.2117 84.748 80.2117 83.208ZM92.9174 81.36C92.9174 83.32 91.2934 84.608 89.5014 84.608C86.8974 84.608 84.9934 82.228 84.9934 77.86C84.9934 73.128 87.8214 72.064 89.5014 72.064C91.2934 72.064 92.9174 73.604 92.9174 75.508V81.36ZM94.2894 83.32V64.56L91.4894 65.036V65.288C92.6374 65.288 92.9174 65.764 92.9174 66.744V73.016C91.9934 72.288 90.8454 71.812 89.3894 71.812C85.8334 71.812 83.1454 74.192 83.1454 78.392C83.1454 81.78 84.6294 85.252 88.9694 85.252C90.4254 85.252 92.0774 84.58 92.9174 83.376V84.72C92.9174 84.72 92.9174 85.364 93.7014 85.224L95.7174 84.804V84.58C94.5974 84.692 94.2894 84.692 94.2894 83.32ZM103.166 84.692C100.646 84.692 98.686 83.068 98.686 78.28H107.674C107.674 73.828 105.126 71.812 102.662 71.812C99.61 71.812 97.034 74.36 97.034 78.7C97.034 82.816 99.498 85.252 102.802 85.252C105.658 85.252 107.114 82.956 107.254 81.78L107.086 81.752C106.75 83.208 105.042 84.692 103.166 84.692ZM98.686 78C98.686 73.66 101.094 72.064 102.662 72.064C103.782 72.064 106.274 73.38 106.274 78H98.686ZM115.599 85C113.499 85 112.155 83.516 112.071 81.36V75.956C112.183 73.8 113.527 72.456 115.599 72.456C118.175 72.456 120.079 74.808 120.079 79.176C120.079 83.908 117.279 85 115.599 85ZM116.131 71.812C114.591 71.812 112.883 72.568 112.071 73.884V71.812L109.271 72.288V72.512C110.447 72.512 110.671 72.932 110.671 73.912V90.628C110.671 92.056 110.615 91.86 109.551 92.168V92.42H113.219V92.168C112.211 91.916 112.071 92.168 112.071 90.628V83.992C112.995 84.748 114.171 85.252 115.711 85.252C119.267 85.252 121.927 82.844 121.927 78.644C121.927 75.284 120.443 71.812 116.131 71.812ZM130.455 84.692C127.935 84.692 125.975 83.068 125.975 78.28H134.963C134.963 73.828 132.415 71.812 129.951 71.812C126.899 71.812 124.323 74.36 124.323 78.7C124.323 82.816 126.787 85.252 130.091 85.252C132.947 85.252 134.403 82.956 134.543 81.78L134.375 81.752C134.039 83.208 132.331 84.692 130.455 84.692ZM125.975 78C125.975 73.66 128.383 72.064 129.951 72.064C131.071 72.064 133.563 73.38 133.563 78H125.975ZM147.368 83.208V76.488C147.368 73.128 145.52 71.812 143.168 71.812C141.404 71.812 139.724 73.128 139.192 74.668V71.812L136.392 72.288V72.512C137.568 72.512 137.792 72.932 137.792 73.912V83.208C137.792 84.636 137.736 84.44 136.672 84.748V85H140.34V84.748C139.332 84.496 139.192 84.748 139.192 83.208V75.088C139.64 74.192 140.732 72.568 142.524 72.568C144.82 72.568 145.996 74.136 145.996 76.6V83.208C145.996 84.636 145.94 84.468 144.876 84.776V85H148.516V84.776C147.536 84.524 147.368 84.748 147.368 83.208ZM160.074 81.36C160.074 83.32 158.45 84.608 156.658 84.608C154.054 84.608 152.15 82.228 152.15 77.86C152.15 73.128 154.978 72.064 156.658 72.064C158.45 72.064 160.074 73.604 160.074 75.508V81.36ZM161.446 83.32V64.56L158.646 65.036V65.288C159.794 65.288 160.074 65.764 160.074 66.744V73.016C159.15 72.288 158.002 71.812 156.546 71.812C152.99 71.812 150.302 74.192 150.302 78.392C150.302 81.78 151.786 85.252 156.126 85.252C157.582 85.252 159.234 84.58 160.074 83.376V84.72C160.074 84.72 160.074 85.364 160.858 85.224L162.874 84.804V84.58C161.754 84.692 161.446 84.692 161.446 83.32ZM170.322 84.692C167.802 84.692 165.842 83.068 165.842 78.28H174.83C174.83 73.828 172.282 71.812 169.818 71.812C166.766 71.812 164.19 74.36 164.19 78.7C164.19 82.816 166.654 85.252 169.958 85.252C172.814 85.252 174.27 82.956 174.41 81.78L174.242 81.752C173.906 83.208 172.198 84.692 170.322 84.692ZM165.842 78C165.842 73.66 168.25 72.064 169.818 72.064C170.938 72.064 173.43 73.38 173.43 78H165.842ZM187.235 83.208V76.488C187.235 73.128 185.387 71.812 183.035 71.812C181.271 71.812 179.591 73.128 179.059 74.668V71.812L176.259 72.288V72.512C177.435 72.512 177.659 72.932 177.659 73.912V83.208C177.659 84.636 177.603 84.44 176.539 84.748V85H180.207V84.748C179.199 84.496 179.059 84.748 179.059 83.208V75.088C179.507 74.192 180.599 72.568 182.391 72.568C184.687 72.568 185.863 74.136 185.863 76.6V83.208C185.863 84.636 185.807 84.468 184.743 84.776V85H188.383V84.776C187.403 84.524 187.235 84.748 187.235 83.208ZM194.593 84.496C193.333 84.496 192.409 83.768 192.409 80.884V72.316H195.657L195.713 72.064H192.409V67.668L191.009 67.836V72.064H189.553L189.581 72.316H191.009V80.968C191.009 84.356 192.185 85.252 194.033 85.252C195.405 85.252 196.245 84.3 196.469 83.152L196.301 83.096C196.105 83.852 195.405 84.496 194.593 84.496ZM24.4941 111.641C24.6992 115.031 27.5977 117.314 31.7266 117.314C36.0879 117.314 38.877 115.045 38.877 111.586C38.877 108.838 37.209 107.32 33.2441 106.322L31.1113 105.775C28.2129 105.037 26.9824 104.039 26.9824 102.344C26.9824 100.17 29.0059 98.6523 31.7402 98.6523C34.543 98.6523 36.5117 100.129 36.6895 102.357H38.5625C38.4531 99.2266 35.6367 96.957 31.7949 96.957C27.9121 96.957 25.041 99.2266 25.041 102.412C25.041 105.01 26.668 106.555 30.3184 107.484L32.7656 108.113C35.6914 108.852 36.9629 109.945 36.9629 111.791C36.9629 114.006 34.8438 115.619 31.8906 115.619C28.8008 115.619 26.5723 114.006 26.3672 111.641H24.4941ZM48.5293 117V98.9668H55.0508V97.2715H40.1484V98.9668H46.6562V117H48.5293ZM59.2754 98.9395H64.1562C67.0273 98.9395 68.7637 100.484 68.7637 103.096C68.7637 105.734 67.0957 107.266 64.2246 107.266H59.2754V98.9395ZM59.2754 108.92H64.2246C64.3203 108.92 64.457 108.92 64.5254 108.92L69.0645 117H71.252L66.4668 108.619C69.1055 107.936 70.6914 105.83 70.6914 103.041C70.6914 99.5273 68.2305 97.2715 64.375 97.2715H57.416V117H59.2754V108.92ZM86.8516 117H88.8203L81.4512 97.2715H79.5918L72.209 117H74.1914L76.3789 110.957H84.6641L86.8516 117ZM80.4805 99.582H80.5625L84.1035 109.344H76.9395L80.4805 99.582ZM95.2598 117V98.9668H101.781V97.2715H86.8789V98.9668H93.3867V117H95.2598ZM116.055 115.305H106.006V107.73H115.549V106.062H106.006V98.9668H116.055V97.2715H104.146V117H116.055V115.305ZM135.496 108.988V107.088H127.512V108.729H133.637V109.426C133.637 113.145 131.121 115.578 127.307 115.578C123.082 115.578 120.361 112.229 120.361 107.02C120.361 101.879 123.027 98.6934 127.307 98.6934C130.314 98.6934 132.625 100.389 133.432 103.205H135.373C134.635 99.4316 131.449 96.957 127.307 96.957C121.92 96.957 118.447 100.908 118.447 107.02C118.447 113.24 121.961 117.314 127.307 117.314C132.434 117.314 135.496 114.197 135.496 108.988ZM140.377 117V97.2715H138.518V117H140.377ZM143.111 111.641C143.316 115.031 146.215 117.314 150.344 117.314C154.705 117.314 157.494 115.045 157.494 111.586C157.494 108.838 155.826 107.32 151.861 106.322L149.729 105.775C146.83 105.037 145.6 104.039 145.6 102.344C145.6 100.17 147.623 98.6523 150.357 98.6523C153.16 98.6523 155.129 100.129 155.307 102.357H157.18C157.07 99.2266 154.254 96.957 150.412 96.957C146.529 96.957 143.658 99.2266 143.658 102.412C143.658 105.01 145.285 106.555 148.936 107.484L151.383 108.113C154.309 108.852 155.58 109.945 155.58 111.791C155.58 114.006 153.461 115.619 150.508 115.619C147.418 115.619 145.189 114.006 144.984 111.641H143.111ZM167.146 117V98.9668H173.668V97.2715H158.766V98.9668H165.273V117H167.146ZM174.939 111.641C175.145 115.031 178.043 117.314 182.172 117.314C186.533 117.314 189.322 115.045 189.322 111.586C189.322 108.838 187.654 107.32 183.689 106.322L181.557 105.775C178.658 105.037 177.428 104.039 177.428 102.344C177.428 100.17 179.451 98.6523 182.186 98.6523C184.988 98.6523 186.957 100.129 187.135 102.357H189.008C188.898 99.2266 186.082 96.957 182.24 96.957C178.357 96.957 175.486 99.2266 175.486 102.412C175.486 105.01 177.113 106.555 180.764 107.484L183.211 108.113C186.137 108.852 187.408 109.945 187.408 111.791C187.408 114.006 185.289 115.619 182.336 115.619C179.246 115.619 177.018 114.006 176.812 111.641H174.939ZM193.655 116.216C193.655 115.656 193.207 115.236 192.703 115.236C192.171 115.236 191.779 115.656 191.779 116.216C191.779 116.72 192.171 117.14 192.703 117.14C193.207 117.14 193.655 116.72 193.655 116.216ZM219.749 97.288V97.54C222.829 97.54 222.409 98.856 220.813 104.204L217.117 115.18L211.909 99.108C211.825 98.716 211.573 97.54 214.037 97.54V97.288H207.905V97.54C209.053 97.54 210.005 97.876 210.677 99.64L211.993 103.812L208.465 115.096L202.865 99.108C202.725 98.716 202.529 97.54 204.993 97.54V97.288H198.833V97.54C200.009 97.54 200.933 97.876 201.605 99.64L207.821 117H208.157L212.133 104.176L216.445 117H216.753L221.093 104.232C223.109 98.212 222.913 97.54 225.713 97.54V97.288H219.749ZM230.766 116.692C228.246 116.692 226.286 115.068 226.286 110.28H235.274C235.274 105.828 232.726 103.812 230.262 103.812C227.21 103.812 224.634 106.36 224.634 110.7C224.634 114.816 227.098 117.252 230.402 117.252C233.258 117.252 234.714 114.956 234.854 113.78L234.686 113.752C234.35 115.208 232.642 116.692 230.766 116.692ZM226.286 110C226.286 105.66 228.694 104.064 230.262 104.064C231.382 104.064 233.874 105.38 233.874 110H226.286ZM10.9091 145.444C10.5451 146.788 9.28511 148.636 6.59711 148.636C4.55311 148.636 1.97711 146.956 1.97711 142.504C1.97711 136.876 5.42111 136.064 6.65311 136.064C9.25711 136.064 10.2091 137.212 9.92911 137.128C9.78911 137.072 9.50911 137.072 9.22911 137.184C8.75311 137.408 8.58511 137.968 8.83711 138.472C9.03311 138.92 9.67711 139.032 10.1251 138.836C10.4611 138.64 10.6291 138.332 10.6291 137.968C10.6291 137.492 10.1531 135.812 6.65311 135.812C2.87311 135.812 0.297109 138.976 0.297109 142.616C0.297109 147.572 3.74111 149.252 6.31711 149.252C9.70511 149.252 10.8811 146.844 11.1051 145.472L10.9091 145.444ZM19.4727 135.84C17.8767 135.644 15.8327 137.044 15.2447 138.5V135.812L12.4447 136.288V136.512C13.6207 136.512 13.8447 136.904 13.8447 137.884V147.208C13.8447 148.636 13.7887 148.44 12.7247 148.748V149H16.3927V148.748C15.3847 148.496 15.2447 148.748 15.2447 147.208V139.06C15.9727 136.988 18.6327 135.952 18.3807 136.568C18.2967 136.82 18.2967 137.1 18.3807 137.352C18.6327 137.912 19.2767 138.164 19.8087 137.94C20.3687 137.688 20.6207 137.1 20.3967 136.54C20.2007 136.148 19.8647 135.896 19.4727 135.84ZM28.1895 148.692C25.6695 148.692 23.7095 147.068 23.7095 142.28H32.6975C32.6975 137.828 30.1495 135.812 27.6855 135.812C24.6335 135.812 22.0575 138.36 22.0575 142.7C22.0575 146.816 24.5215 149.252 27.8255 149.252C30.6815 149.252 32.1375 146.956 32.2775 145.78L32.1095 145.752C31.7735 147.208 30.0655 148.692 28.1895 148.692ZM23.7095 142C23.7095 137.66 26.1175 136.064 27.6855 136.064C28.8055 136.064 31.2975 137.38 31.2975 142H23.7095ZM42.0224 146.396C41.7144 147.068 40.9584 148.44 38.9704 148.44C37.3744 148.44 36.3664 147.516 36.3664 145.892C36.3664 143.932 38.2984 142.784 42.0224 141.86V146.396ZM44.7104 148.328C43.5344 148.328 43.5344 146.76 43.5344 146.76V141.412C43.5344 138.08 42.8904 135.812 40.4544 135.812C40.4544 135.812 39.1384 135.784 37.9904 136.344C36.5064 137.156 35.9464 138.08 35.8064 138.416C35.6664 138.752 35.7504 139.172 36.0024 139.48C36.3664 139.928 36.9824 139.956 37.4024 139.592C37.8224 139.2 37.8784 138.556 37.5144 138.136C37.3184 137.912 37.0944 137.828 36.8424 137.772C36.7024 137.744 36.9264 137.128 38.2144 136.512C40.7624 135.448 42.0224 137.24 42.0224 140.096V141.608C37.3464 142.84 34.9664 143.792 34.9664 146.34C34.9664 149.28 38.1304 149.252 38.1304 149.252C40.0624 149.252 41.6584 148.272 42.0224 146.816C42.0224 149.392 43.9544 149.252 43.9544 149.252C45.1304 149.252 45.7184 148.244 45.8584 147.432L45.6344 147.348C45.4384 148.328 44.7104 148.328 44.7104 148.328ZM51.8311 148.496C50.5711 148.496 49.6471 147.768 49.6471 144.884V136.316H52.8951L52.9511 136.064H49.6471V131.668L48.2471 131.836V136.064H46.7911L46.8191 136.316H48.2471V144.968C48.2471 148.356 49.4231 149.252 51.2711 149.252C52.6431 149.252 53.4831 148.3 53.7071 147.152L53.5391 147.096C53.3431 147.852 52.6431 148.496 51.8311 148.496ZM61.3028 148.692C58.7828 148.692 56.8228 147.068 56.8228 142.28H65.8108C65.8108 137.828 63.2628 135.812 60.7988 135.812C57.7468 135.812 55.1708 138.36 55.1708 142.7C55.1708 146.816 57.6348 149.252 60.9388 149.252C63.7948 149.252 65.2508 146.956 65.3908 145.78L65.2228 145.752C64.8868 147.208 63.1788 148.692 61.3028 148.692ZM56.8228 142C56.8228 137.66 59.2308 136.064 60.7988 136.064C61.9188 136.064 64.4108 137.38 64.4108 142H56.8228ZM80.2415 149C78.0575 149 76.7135 147.376 76.7135 145.108V140.18C76.7135 137.884 78.0855 136.456 80.2415 136.456C82.8455 136.456 84.7215 138.836 84.7215 143.12C84.7215 147.768 81.9215 149 80.2415 149ZM80.7735 135.812C79.2335 135.812 77.5255 136.54 76.7135 137.884V128.56L73.9135 129.036V129.288C75.0895 129.288 75.3415 129.68 75.3415 130.632V148.86C75.3415 149.308 76.0975 148.552 76.6015 147.88C77.5535 148.692 78.7575 149.252 80.3535 149.252C83.9095 149.252 86.5695 146.704 86.5695 142.588C86.5695 139.312 85.0855 135.812 80.7735 135.812ZM95.2149 135.84C93.6189 135.644 91.5749 137.044 90.9869 138.5V135.812L88.1869 136.288V136.512C89.3629 136.512 89.5869 136.904 89.5869 137.884V147.208C89.5869 148.636 89.5309 148.44 88.4669 148.748V149H92.1349V148.748C91.1269 148.496 90.9869 148.748 90.9869 147.208V139.06C91.7149 136.988 94.3749 135.952 94.1229 136.568C94.0389 136.82 94.0389 137.1 94.1229 137.352C94.3749 137.912 95.0189 138.164 95.5509 137.94C96.1109 137.688 96.3629 137.1 96.1389 136.54C95.9429 136.148 95.6069 135.896 95.2149 135.84ZM104.284 146.396C103.976 147.068 103.22 148.44 101.232 148.44C99.6361 148.44 98.6281 147.516 98.6281 145.892C98.6281 143.932 100.56 142.784 104.284 141.86V146.396ZM106.972 148.328C105.796 148.328 105.796 146.76 105.796 146.76V141.412C105.796 138.08 105.152 135.812 102.716 135.812C102.716 135.812 101.4 135.784 100.252 136.344C98.7681 137.156 98.2081 138.08 98.0681 138.416C97.9281 138.752 98.0121 139.172 98.2641 139.48C98.6281 139.928 99.2441 139.956 99.6641 139.592C100.084 139.2 100.14 138.556 99.7761 138.136C99.5801 137.912 99.3561 137.828 99.1041 137.772C98.9641 137.744 99.1881 137.128 100.476 136.512C103.024 135.448 104.284 137.24 104.284 140.096V141.608C99.6081 142.84 97.2281 143.792 97.2281 146.34C97.2281 149.28 100.392 149.252 100.392 149.252C102.324 149.252 103.92 148.272 104.284 146.816C104.284 149.392 106.216 149.252 106.216 149.252C107.392 149.252 107.98 148.244 108.12 147.432L107.896 147.348C107.7 148.328 106.972 148.328 106.972 148.328ZM119.833 147.208V140.488C119.833 137.128 117.985 135.812 115.633 135.812C113.869 135.812 112.189 137.128 111.657 138.668V135.812L108.857 136.288V136.512C110.033 136.512 110.257 136.932 110.257 137.912V147.208C110.257 148.636 110.201 148.44 109.137 148.748V149H112.805V148.748C111.797 148.496 111.657 148.748 111.657 147.208V139.088C112.105 138.192 113.197 136.568 114.989 136.568C117.285 136.568 118.461 138.136 118.461 140.6V147.208C118.461 148.636 118.405 148.468 117.341 148.776V149H120.981V148.776C120.001 148.524 119.833 148.748 119.833 147.208ZM132.538 145.36C132.538 147.32 130.914 148.608 129.122 148.608C126.518 148.608 124.614 146.228 124.614 141.86C124.614 137.128 127.442 136.064 129.122 136.064C130.914 136.064 132.538 137.604 132.538 139.508V145.36ZM133.91 147.32V128.56L131.11 129.036V129.288C132.258 129.288 132.538 129.764 132.538 130.744V137.016C131.614 136.288 130.466 135.812 129.01 135.812C125.454 135.812 122.766 138.192 122.766 142.392C122.766 145.78 124.25 149.252 128.59 149.252C130.046 149.252 131.698 148.58 132.538 147.376V148.72C132.538 148.72 132.538 149.364 133.322 149.224L135.338 148.804V148.58C134.218 148.692 133.91 148.692 133.91 147.32ZM142.787 142.448L139.959 140.684C137.523 139.144 137.159 136.064 140.631 136.064C144.271 136.064 144.943 138.136 144.943 140.432H145.167V136.736C145.167 136.736 143.851 135.812 140.631 135.812C137.747 135.812 137.131 137.604 137.131 137.604C136.403 139.424 136.935 140.516 139.567 142.448L142.395 144.156C144.523 145.556 145.615 149 141.667 149C137.635 149 137.159 146.816 137.159 144.212H136.935V148.3C136.935 148.3 138.279 149.252 141.667 149.252C143.991 149.252 144.859 147.992 144.859 147.992C146.147 146.172 145.363 144.044 142.787 142.448ZM149.913 147.516C149.549 147.124 148.933 147.124 148.541 147.516C148.177 147.908 148.149 148.552 148.569 148.888C148.821 149.084 149.017 149.084 149.241 149.14C149.689 149.224 150.333 150.82 148.177 152.248L148.233 152.332C149.381 151.744 149.633 151.184 149.941 150.68C150.557 149.532 150.501 148.076 149.913 147.516ZM162.956 148.496C161.696 148.496 160.772 147.768 160.772 144.884V136.316H164.02L164.076 136.064H160.772V131.668L159.372 131.836V136.064H157.916L157.944 136.316H159.372V144.968C159.372 148.356 160.548 149.252 162.396 149.252C163.768 149.252 164.608 148.3 164.832 147.152L164.664 147.096C164.468 147.852 163.768 148.496 162.956 148.496ZM176.824 146.9V135.812L174.108 136.316V136.54C175.424 136.54 175.424 136.568 175.424 138.276V146.032C175.032 147.264 174.052 148.524 172.064 148.524C170.44 148.524 168.648 147.656 168.648 144.996V135.812L165.736 136.316V136.54C167.304 136.54 167.304 136.54 167.304 138.472V145.08C167.304 148.692 169.936 149.252 171.756 149.252C173.772 149.252 175.116 147.992 175.424 146.62V148.916C175.424 148.916 175.396 149.364 176.012 149.224L178.252 148.86V148.636C177.076 148.496 176.824 148.244 176.824 146.9ZM186.188 135.84C184.592 135.644 182.548 137.044 181.96 138.5V135.812L179.16 136.288V136.512C180.336 136.512 180.56 136.904 180.56 137.884V147.208C180.56 148.636 180.504 148.44 179.44 148.748V149H183.108V148.748C182.1 148.496 181.96 148.748 181.96 147.208V139.06C182.688 136.988 185.348 135.952 185.096 136.568C185.012 136.82 185.012 137.1 185.096 137.352C185.348 137.912 185.992 138.164 186.524 137.94C187.084 137.688 187.336 137.1 187.112 136.54C186.916 136.148 186.58 135.896 186.188 135.84ZM199.02 147.208V140.488C199.02 137.128 197.172 135.812 194.82 135.812C193.056 135.812 191.376 137.128 190.844 138.668V135.812L188.044 136.288V136.512C189.22 136.512 189.444 136.932 189.444 137.912V147.208C189.444 148.636 189.388 148.44 188.324 148.748V149H191.992V148.748C190.984 148.496 190.844 148.748 190.844 147.208V139.088C191.292 138.192 192.384 136.568 194.176 136.568C196.472 136.568 197.648 138.136 197.648 140.6V147.208C197.648 148.636 197.592 148.468 196.528 148.776V149H200.168V148.776C199.188 148.524 199.02 148.748 199.02 147.208ZM212.968 148.496C211.708 148.496 210.784 147.768 210.784 144.884V136.316H214.032L214.088 136.064H210.784V131.668L209.384 131.836V136.064H207.928L207.956 136.316H209.384V144.968C209.384 148.356 210.56 149.252 212.408 149.252C213.78 149.252 214.62 148.3 214.844 147.152L214.676 147.096C214.48 147.852 213.78 148.496 212.968 148.496ZM226.807 147.208V140.488C226.807 137.128 224.959 135.812 222.607 135.812C220.675 135.812 218.855 137.408 218.519 139.116V128.56L215.719 129.036V129.288C216.895 129.288 217.119 129.68 217.119 130.66V147.208C217.119 148.636 217.063 148.44 215.999 148.748V149H219.667V148.748C218.659 148.496 218.519 148.748 218.519 147.208V139.368C218.827 138.584 219.975 136.568 221.963 136.568C224.259 136.568 225.435 138.136 225.435 140.6V147.208C225.435 148.636 225.379 148.468 224.315 148.776V149H227.955V148.776C226.975 148.524 226.807 148.748 226.807 147.208ZM235.701 148.692C233.181 148.692 231.221 147.068 231.221 142.28H240.209C240.209 137.828 237.661 135.812 235.197 135.812C232.145 135.812 229.569 138.36 229.569 142.7C229.569 146.816 232.033 149.252 235.337 149.252C238.193 149.252 239.649 146.956 239.789 145.78L239.621 145.752C239.285 147.208 237.577 148.692 235.701 148.692ZM231.221 142C231.221 137.66 233.629 136.064 235.197 136.064C236.317 136.064 238.809 137.38 238.809 142H231.221ZM259.306 147.208V140.488C259.306 137.128 257.878 135.812 255.498 135.812C253.678 135.812 252.222 137.212 251.774 138.836C251.382 136.68 250.094 135.812 248.134 135.812C246.37 135.812 244.914 137.1 244.438 138.668V135.812L241.638 136.288V136.512C242.814 136.512 243.038 136.932 243.038 137.912V147.208C243.038 148.636 242.982 148.44 241.918 148.748V149H245.586V148.748C244.578 148.496 244.438 148.748 244.438 147.208V139.088C244.83 138.192 245.698 136.568 247.49 136.568C249.814 136.568 250.542 138.136 250.542 140.6V147.208C250.542 148.636 250.486 148.468 249.422 148.776V149H253.062V148.776C252.082 148.524 251.914 148.748 251.914 147.208V140.488C251.914 139.984 251.886 139.508 251.83 139.116C252.194 138.22 253.09 136.568 254.882 136.568C257.178 136.568 257.934 138.136 257.934 140.6V147.208C257.934 148.636 257.878 148.468 256.814 148.776V149H260.454V148.776C259.474 148.524 259.306 148.748 259.306 147.208ZM20.8737 167.812L18.1017 168.288V168.512C19.2777 168.512 19.4737 168.904 19.4737 169.884V179.208C19.4737 180.636 19.4177 180.44 18.3537 180.748V181H22.0217V180.748C21.0137 180.496 20.8737 180.748 20.8737 179.208V167.812ZM20.8457 164.452C20.8457 163.892 20.3977 163.472 19.8937 163.472C19.3617 163.472 18.9697 163.892 18.9697 164.452C18.9697 164.956 19.3617 165.376 19.8937 165.376C20.3977 165.376 20.8457 164.956 20.8457 164.452ZM34.3699 179.208V172.488C34.3699 169.128 32.5219 167.812 30.1699 167.812C28.4059 167.812 26.7259 169.128 26.1939 170.668V167.812L23.3939 168.288V168.512C24.5699 168.512 24.7939 168.932 24.7939 169.912V179.208C24.7939 180.636 24.7379 180.44 23.6739 180.748V181H27.3419V180.748C26.3339 180.496 26.1939 180.748 26.1939 179.208V171.088C26.6419 170.192 27.7339 168.568 29.5259 168.568C31.8219 168.568 32.9979 170.136 32.9979 172.6V179.208C32.9979 180.636 32.9419 180.468 31.8779 180.776V181H35.5179V180.776C34.5379 180.524 34.3699 180.748 34.3699 179.208ZM41.7276 180.496C40.4676 180.496 39.5436 179.768 39.5436 176.884V168.316H42.7916L42.8476 168.064H39.5436V163.668L38.1436 163.836V168.064H36.6876L36.7156 168.316H38.1436V176.968C38.1436 180.356 39.3196 181.252 41.1676 181.252C42.5396 181.252 43.3796 180.3 43.6036 179.152L43.4356 179.096C43.2396 179.852 42.5396 180.496 41.7276 180.496ZM51.4232 167.812C47.1673 167.812 45.1793 170.836 45.1793 174.532C45.1793 178.2 47.1673 181.252 51.4232 181.252C55.7073 181.252 57.6673 178.2 57.6673 174.532C57.6673 170.836 55.7073 167.812 51.4232 167.812ZM51.4232 181C49.1553 181 46.7753 179.6 46.7753 174.532C46.7753 169.464 49.1553 168.064 51.4232 168.064C53.6913 168.064 56.0433 169.464 56.0433 174.532C56.0433 179.6 53.6913 181 51.4232 181ZM72.7461 180.692C70.2261 180.692 68.2661 179.068 68.2661 174.28H77.2541C77.2541 169.828 74.7061 167.812 72.2421 167.812C69.1901 167.812 66.6141 170.36 66.6141 174.7C66.6141 178.816 69.0781 181.252 72.3821 181.252C75.2381 181.252 76.6941 178.956 76.8341 177.78L76.6661 177.752C76.3301 179.208 74.6221 180.692 72.7461 180.692ZM68.2661 174C68.2661 169.66 70.6741 168.064 72.2421 168.064C73.3621 168.064 75.8541 169.38 75.8541 174H68.2661ZM88.6908 179.068L85.1908 174.028L86.1148 172.684C88.9988 168.204 89.8948 168.288 91.4628 168.288V168.064H85.8628V168.288C88.7468 168.288 87.7668 169.576 85.9188 172.516L85.0508 173.804L82.7268 170.444C81.5228 168.708 82.1948 168.288 82.8948 168.288V168.064H78.2188V168.288C79.2548 168.288 79.5908 168.568 80.7668 170.052L84.2948 175.12L83.3988 176.436C80.2908 181.028 79.1708 180.776 77.9668 180.776V181H83.0068V180.776C80.8788 180.776 81.1308 180.3 83.5948 176.576L84.4628 175.316L86.8988 178.788C86.8988 178.788 88.4108 180.776 86.8708 180.776V181H91.3508V180.776C90.8188 180.72 89.8108 180.748 88.6908 179.068ZM98.5228 181C96.4228 181 95.0788 179.516 94.9948 177.36V171.956C95.1068 169.8 96.4508 168.456 98.5228 168.456C101.099 168.456 103.003 170.808 103.003 175.176C103.003 179.908 100.203 181 98.5228 181ZM99.0548 167.812C97.5148 167.812 95.8068 168.568 94.9948 169.884V167.812L92.1948 168.288V168.512C93.3708 168.512 93.5948 168.932 93.5948 169.912V186.628C93.5948 188.056 93.5388 187.86 92.4748 188.168V188.42H96.1428V188.168C95.1348 187.916 94.9948 188.168 94.9948 186.628V179.992C95.9188 180.748 97.0948 181.252 98.6348 181.252C102.191 181.252 104.851 178.844 104.851 174.644C104.851 171.284 103.367 167.812 99.0548 167.812ZM113.379 180.692C110.859 180.692 108.899 179.068 108.899 174.28H117.887C117.887 169.828 115.339 167.812 112.875 167.812C109.823 167.812 107.247 170.36 107.247 174.7C107.247 178.816 109.711 181.252 113.015 181.252C115.871 181.252 117.327 178.956 117.467 177.78L117.299 177.752C116.963 179.208 115.255 180.692 113.379 180.692ZM108.899 174C108.899 169.66 111.307 168.064 112.875 168.064C113.995 168.064 116.487 169.38 116.487 174H108.899ZM126.428 167.84C124.832 167.644 122.788 169.044 122.2 170.5V167.812L119.4 168.288V168.512C120.576 168.512 120.8 168.904 120.8 169.884V179.208C120.8 180.636 120.744 180.44 119.68 180.748V181H123.348V180.748C122.34 180.496 122.2 180.748 122.2 179.208V171.06C122.928 168.988 125.588 167.952 125.336 168.568C125.252 168.82 125.252 169.1 125.336 169.352C125.588 169.912 126.232 170.164 126.764 169.94C127.324 169.688 127.576 169.1 127.352 168.54C127.156 168.148 126.82 167.896 126.428 167.84ZM131.589 167.812L128.817 168.288V168.512C129.993 168.512 130.189 168.904 130.189 169.884V179.208C130.189 180.636 130.133 180.44 129.069 180.748V181H132.737V180.748C131.729 180.496 131.589 180.748 131.589 179.208V167.812ZM131.561 164.452C131.561 163.892 131.113 163.472 130.609 163.472C130.077 163.472 129.685 163.892 129.685 164.452C129.685 164.956 130.077 165.376 130.609 165.376C131.113 165.376 131.561 164.956 131.561 164.452ZM140.969 180.692C138.449 180.692 136.489 179.068 136.489 174.28H145.477C145.477 169.828 142.929 167.812 140.465 167.812C137.413 167.812 134.837 170.36 134.837 174.7C134.837 178.816 137.301 181.252 140.605 181.252C143.461 181.252 144.917 178.956 145.057 177.78L144.889 177.752C144.553 179.208 142.845 180.692 140.969 180.692ZM136.489 174C136.489 169.66 138.897 168.064 140.465 168.064C141.585 168.064 144.077 169.38 144.077 174H136.489ZM157.882 179.208V172.488C157.882 169.128 156.034 167.812 153.682 167.812C151.918 167.812 150.238 169.128 149.706 170.668V167.812L146.906 168.288V168.512C148.082 168.512 148.306 168.932 148.306 169.912V179.208C148.306 180.636 148.25 180.44 147.186 180.748V181H150.854V180.748C149.846 180.496 149.706 180.748 149.706 179.208V171.088C150.154 170.192 151.246 168.568 153.038 168.568C155.334 168.568 156.51 170.136 156.51 172.6V179.208C156.51 180.636 156.454 180.468 155.39 180.776V181H159.03V180.776C158.05 180.524 157.882 180.748 157.882 179.208ZM171.567 177.444C171.203 178.788 169.943 180.636 167.255 180.636C165.211 180.636 162.635 178.956 162.635 174.504C162.635 168.876 166.079 168.064 167.311 168.064C169.915 168.064 170.867 169.212 170.587 169.128C170.447 169.072 170.167 169.072 169.887 169.184C169.411 169.408 169.243 169.968 169.495 170.472C169.691 170.92 170.335 171.032 170.783 170.836C171.119 170.64 171.287 170.332 171.287 169.968C171.287 169.492 170.811 167.812 167.311 167.812C163.531 167.812 160.955 170.976 160.955 174.616C160.955 179.572 164.399 181.252 166.975 181.252C170.363 181.252 171.539 178.844 171.763 177.472L171.567 177.444ZM179.879 180.692C177.359 180.692 175.399 179.068 175.399 174.28H184.387C184.387 169.828 181.839 167.812 179.375 167.812C176.323 167.812 173.747 170.36 173.747 174.7C173.747 178.816 176.211 181.252 179.515 181.252C182.371 181.252 183.827 178.956 183.967 177.78L183.799 177.752C183.463 179.208 181.755 180.692 179.879 180.692ZM175.399 174C175.399 169.66 177.807 168.064 179.375 168.064C180.495 168.064 182.987 169.38 182.987 174H175.399ZM192.676 174.448L189.848 172.684C187.412 171.144 187.048 168.064 190.52 168.064C194.16 168.064 194.832 170.136 194.832 172.432H195.056V168.736C195.056 168.736 193.74 167.812 190.52 167.812C187.636 167.812 187.02 169.604 187.02 169.604C186.292 171.424 186.824 172.516 189.456 174.448L192.284 176.156C194.412 177.556 195.504 181 191.556 181C187.524 181 187.048 178.816 187.048 176.212H186.824V180.3C186.824 180.3 188.168 181.252 191.556 181.252C193.88 181.252 194.748 179.992 194.748 179.992C196.036 178.172 195.252 176.044 192.676 174.448ZM211.403 178.396C211.095 179.068 210.339 180.44 208.351 180.44C206.755 180.44 205.747 179.516 205.747 177.892C205.747 175.932 207.679 174.784 211.403 173.86V178.396ZM214.091 180.328C212.915 180.328 212.915 178.76 212.915 178.76V173.412C212.915 170.08 212.271 167.812 209.835 167.812C209.835 167.812 208.519 167.784 207.371 168.344C205.887 169.156 205.327 170.08 205.187 170.416C205.047 170.752 205.131 171.172 205.383 171.48C205.747 171.928 206.363 171.956 206.783 171.592C207.203 171.2 207.259 170.556 206.895 170.136C206.699 169.912 206.475 169.828 206.223 169.772C206.083 169.744 206.307 169.128 207.595 168.512C210.143 167.448 211.403 169.24 211.403 172.096V173.608C206.727 174.84 204.347 175.792 204.347 178.34C204.347 181.28 207.511 181.252 207.511 181.252C209.443 181.252 211.039 180.272 211.403 178.816C211.403 181.392 213.335 181.252 213.335 181.252C214.511 181.252 215.099 180.244 215.239 179.432L215.015 179.348C214.819 180.328 214.091 180.328 214.091 180.328ZM226.952 179.208V172.488C226.952 169.128 225.104 167.812 222.752 167.812C220.988 167.812 219.308 169.128 218.776 170.668V167.812L215.976 168.288V168.512C217.152 168.512 217.376 168.932 217.376 169.912V179.208C217.376 180.636 217.32 180.44 216.256 180.748V181H219.924V180.748C218.916 180.496 218.776 180.748 218.776 179.208V171.088C219.224 170.192 220.316 168.568 222.108 168.568C224.404 168.568 225.58 170.136 225.58 172.6V179.208C225.58 180.636 225.524 180.468 224.46 180.776V181H228.1V180.776C227.12 180.524 226.952 180.748 226.952 179.208ZM239.658 177.36C239.658 179.32 238.034 180.608 236.242 180.608C233.638 180.608 231.734 178.228 231.734 173.86C231.734 169.128 234.562 168.064 236.242 168.064C238.034 168.064 239.658 169.604 239.658 171.508V177.36ZM241.03 179.32V160.56L238.23 161.036V161.288C239.378 161.288 239.658 161.764 239.658 162.744V169.016C238.734 168.288 237.586 167.812 236.13 167.812C232.574 167.812 229.886 170.192 229.886 174.392C229.886 177.78 231.37 181.252 235.71 181.252C237.166 181.252 238.818 180.58 239.658 179.376V180.72C239.658 180.72 239.658 181.364 240.442 181.224L242.458 180.804V180.58C241.338 180.692 241.03 180.692 241.03 179.32ZM29.8993 209.444C29.5353 210.788 28.2753 212.636 25.5873 212.636C23.5433 212.636 20.9673 210.956 20.9673 206.504C20.9673 200.876 24.4113 200.064 25.6433 200.064C28.2473 200.064 29.1993 201.212 28.9193 201.128C28.7793 201.072 28.4993 201.072 28.2193 201.184C27.7433 201.408 27.5753 201.968 27.8273 202.472C28.0233 202.92 28.6673 203.032 29.1153 202.836C29.4513 202.64 29.6193 202.332 29.6193 201.968C29.6193 201.492 29.1433 199.812 25.6433 199.812C21.8633 199.812 19.2873 202.976 19.2873 206.616C19.2873 211.572 22.7313 213.252 25.3073 213.252C28.6953 213.252 29.8713 210.844 30.0953 209.472L29.8993 209.444ZM38.435 199.812C34.179 199.812 32.191 202.836 32.191 206.532C32.191 210.2 34.179 213.252 38.435 213.252C42.719 213.252 44.679 210.2 44.679 206.532C44.679 202.836 42.719 199.812 38.435 199.812ZM38.435 213C36.167 213 33.787 211.6 33.787 206.532C33.787 201.464 36.167 200.064 38.435 200.064C40.703 200.064 43.055 201.464 43.055 206.532C43.055 211.6 40.703 213 38.435 213ZM63.976 211.208V204.488C63.976 201.128 62.548 199.812 60.168 199.812C58.348 199.812 56.892 201.212 56.444 202.836C56.052 200.68 54.764 199.812 52.804 199.812C51.04 199.812 49.584 201.1 49.108 202.668V199.812L46.308 200.288V200.512C47.484 200.512 47.708 200.932 47.708 201.912V211.208C47.708 212.636 47.652 212.44 46.588 212.748V213H50.256V212.748C49.248 212.496 49.108 212.748 49.108 211.208V203.088C49.5 202.192 50.368 200.568 52.16 200.568C54.484 200.568 55.212 202.136 55.212 204.6V211.208C55.212 212.636 55.156 212.468 54.092 212.776V213H57.732V212.776C56.752 212.524 56.584 212.748 56.584 211.208V204.488C56.584 203.984 56.556 203.508 56.5 203.116C56.864 202.22 57.76 200.568 59.552 200.568C61.848 200.568 62.604 202.136 62.604 204.6V211.208C62.604 212.636 62.548 212.468 61.484 212.776V213H65.124V212.776C64.144 212.524 63.976 212.748 63.976 211.208ZM83.6088 211.208V204.488C83.6088 201.128 82.1808 199.812 79.8008 199.812C77.9808 199.812 76.5248 201.212 76.0768 202.836C75.6848 200.68 74.3968 199.812 72.4368 199.812C70.6728 199.812 69.2168 201.1 68.7408 202.668V199.812L65.9408 200.288V200.512C67.1168 200.512 67.3408 200.932 67.3408 201.912V211.208C67.3408 212.636 67.2848 212.44 66.2208 212.748V213H69.8888V212.748C68.8808 212.496 68.7408 212.748 68.7408 211.208V203.088C69.1328 202.192 70.0008 200.568 71.7928 200.568C74.1168 200.568 74.8448 202.136 74.8448 204.6V211.208C74.8448 212.636 74.7888 212.468 73.7248 212.776V213H77.3648V212.776C76.3848 212.524 76.2168 212.748 76.2168 211.208V204.488C76.2168 203.984 76.1888 203.508 76.1328 203.116C76.4968 202.22 77.3928 200.568 79.1848 200.568C81.4808 200.568 82.2368 202.136 82.2368 204.6V211.208C82.2368 212.636 82.1808 212.468 81.1168 212.776V213H84.7568V212.776C83.7768 212.524 83.6088 212.748 83.6088 211.208ZM96.5015 210.9V199.812L93.7855 200.316V200.54C95.1015 200.54 95.1015 200.568 95.1015 202.276V210.032C94.7095 211.264 93.7295 212.524 91.7415 212.524C90.1175 212.524 88.3255 211.656 88.3255 208.996V199.812L85.4135 200.316V200.54C86.9815 200.54 86.9815 200.54 86.9815 202.472V209.08C86.9815 212.692 89.6135 213.252 91.4335 213.252C93.4495 213.252 94.7935 211.992 95.1015 210.62V212.916C95.1015 212.916 95.0735 213.364 95.6895 213.224L97.9295 212.86V212.636C96.7535 212.496 96.5015 212.244 96.5015 210.9ZM109.729 211.208V204.488C109.729 201.128 107.881 199.812 105.529 199.812C103.765 199.812 102.085 201.128 101.553 202.668V199.812L98.7533 200.288V200.512C99.9293 200.512 100.153 200.932 100.153 201.912V211.208C100.153 212.636 100.097 212.44 99.0333 212.748V213H102.701V212.748C101.693 212.496 101.553 212.748 101.553 211.208V203.088C102.001 202.192 103.093 200.568 104.885 200.568C107.181 200.568 108.357 202.136 108.357 204.6V211.208C108.357 212.636 108.301 212.468 107.237 212.776V213H110.877V212.776C109.897 212.524 109.729 212.748 109.729 211.208ZM115.155 199.812L112.383 200.288V200.512C113.559 200.512 113.755 200.904 113.755 201.884V211.208C113.755 212.636 113.699 212.44 112.635 212.748V213H116.303V212.748C115.295 212.496 115.155 212.748 115.155 211.208V199.812ZM115.127 196.452C115.127 195.892 114.679 195.472 114.175 195.472C113.643 195.472 113.251 195.892 113.251 196.452C113.251 196.956 113.643 197.376 114.175 197.376C114.679 197.376 115.127 196.956 115.127 196.452ZM129.239 209.444C128.875 210.788 127.615 212.636 124.927 212.636C122.883 212.636 120.307 210.956 120.307 206.504C120.307 200.876 123.751 200.064 124.983 200.064C127.587 200.064 128.539 201.212 128.259 201.128C128.119 201.072 127.839 201.072 127.559 201.184C127.083 201.408 126.915 201.968 127.167 202.472C127.363 202.92 128.007 203.032 128.455 202.836C128.791 202.64 128.959 202.332 128.959 201.968C128.959 201.492 128.483 199.812 124.983 199.812C121.203 199.812 118.627 202.976 118.627 206.616C118.627 211.572 122.071 213.252 124.647 213.252C128.035 213.252 129.211 210.844 129.435 209.472L129.239 209.444ZM138.587 210.396C138.279 211.068 137.523 212.44 135.535 212.44C133.939 212.44 132.931 211.516 132.931 209.892C132.931 207.932 134.863 206.784 138.587 205.86V210.396ZM141.275 212.328C140.099 212.328 140.099 210.76 140.099 210.76V205.412C140.099 202.08 139.455 199.812 137.019 199.812C137.019 199.812 135.703 199.784 134.555 200.344C133.071 201.156 132.511 202.08 132.371 202.416C132.231 202.752 132.315 203.172 132.567 203.48C132.931 203.928 133.547 203.956 133.967 203.592C134.387 203.2 134.443 202.556 134.079 202.136C133.883 201.912 133.659 201.828 133.407 201.772C133.267 201.744 133.491 201.128 134.779 200.512C137.327 199.448 138.587 201.24 138.587 204.096V205.608C133.911 206.84 131.531 207.792 131.531 210.34C131.531 213.28 134.695 213.252 134.695 213.252C136.627 213.252 138.223 212.272 138.587 210.816C138.587 213.392 140.519 213.252 140.519 213.252C141.695 213.252 142.283 212.244 142.423 211.432L142.199 211.348C142.003 212.328 141.275 212.328 141.275 212.328ZM148.396 212.496C147.136 212.496 146.212 211.768 146.212 208.884V200.316H149.46L149.516 200.064H146.212V195.668L144.812 195.836V200.064H143.356L143.384 200.316H144.812V208.968C144.812 212.356 145.988 213.252 147.836 213.252C149.208 213.252 150.048 212.3 150.272 211.152L150.104 211.096C149.908 211.852 149.208 212.496 148.396 212.496ZM157.867 212.692C155.347 212.692 153.387 211.068 153.387 206.28H162.375C162.375 201.828 159.827 199.812 157.363 199.812C154.311 199.812 151.735 202.36 151.735 206.7C151.735 210.816 154.199 213.252 157.503 213.252C160.359 213.252 161.815 210.956 161.955 209.78L161.787 209.752C161.451 211.208 159.743 212.692 157.867 212.692ZM153.387 206C153.387 201.66 155.795 200.064 157.363 200.064C158.483 200.064 160.975 201.38 160.975 206H153.387ZM178.986 213V194.967H185.508V193.271H170.605V194.967H177.113V213H178.986ZM203.145 213V193.271H201.271V202.049H189.732V193.271H187.873V213H189.732V203.744H201.271V213H203.145ZM218.758 211.305H208.709V203.73H218.252V202.062H208.709V194.967H218.758V193.271H206.85V213H218.758V211.305ZM223.803 213V193.271H221.943V213H223.803ZM229.354 194.939H234.234C237.105 194.939 238.842 196.484 238.842 199.096C238.842 201.734 237.174 203.266 234.303 203.266H229.354V194.939ZM229.354 204.92H234.303C234.398 204.92 234.535 204.92 234.604 204.92L239.143 213H241.33L236.545 204.619C239.184 203.936 240.77 201.83 240.77 199.041C240.77 195.527 238.309 193.271 234.453 193.271H227.494V213H229.354V204.92ZM46.6152 245V225.271H44.7422V234.049H33.2031V225.271H31.3438V245H33.2031V235.744H44.7422V245H46.6152ZM52.1797 245V225.271H50.3203V245H52.1797ZM54.9141 239.641C55.1191 243.031 58.0176 245.314 62.1465 245.314C66.5078 245.314 69.2969 243.045 69.2969 239.586C69.2969 236.838 67.6289 235.32 63.6641 234.322L61.5312 233.775C58.6328 233.037 57.4023 232.039 57.4023 230.344C57.4023 228.17 59.4258 226.652 62.1602 226.652C64.9629 226.652 66.9316 228.129 67.1094 230.357H68.9824C68.873 227.227 66.0566 224.957 62.2148 224.957C58.332 224.957 55.4609 227.227 55.4609 230.412C55.4609 233.01 57.0879 234.555 60.7383 235.484L63.1855 236.113C66.1113 236.852 67.3828 237.945 67.3828 239.791C67.3828 242.006 65.2637 243.619 62.3105 243.619C59.2207 243.619 56.9922 242.006 56.7871 239.641H54.9141ZM78.9492 245V226.967H85.4707V225.271H70.5684V226.967H77.0762V245H78.9492ZM94.6855 224.957C89.1895 224.957 85.7305 228.895 85.7305 235.143C85.7305 241.391 89.1895 245.314 94.6855 245.314C100.195 245.314 103.654 241.391 103.654 235.143C103.654 228.895 100.182 224.957 94.6855 224.957ZM94.6855 226.693C99.0059 226.693 101.74 229.961 101.74 235.143C101.74 240.311 99.0059 243.578 94.6855 243.578C90.3652 243.578 87.6445 240.311 87.6445 235.143C87.6445 229.961 90.3652 226.693 94.6855 226.693ZM108.426 226.939H113.307C116.178 226.939 117.914 228.484 117.914 231.096C117.914 233.734 116.246 235.266 113.375 235.266H108.426V226.939ZM108.426 236.92H113.375C113.471 236.92 113.607 236.92 113.676 236.92L118.215 245H120.402L115.617 236.619C118.256 235.936 119.842 233.83 119.842 231.041C119.842 227.527 117.381 225.271 113.525 225.271H106.566V245H108.426V236.92ZM130.314 245V236.469L137.383 225.271H135.25L129.412 234.637H129.344L123.506 225.271H121.373L128.441 236.469V245H130.314ZM149.858 244.496C148.598 244.496 147.674 243.768 147.674 240.884V232.316H150.922L150.978 232.064H147.674V227.668L146.274 227.836V232.064H144.818L144.846 232.316H146.274V240.968C146.274 244.356 147.45 245.252 149.298 245.252C150.67 245.252 151.51 244.3 151.734 243.152L151.566 243.096C151.37 243.852 150.67 244.496 149.858 244.496ZM163.698 243.208V236.488C163.698 233.128 161.85 231.812 159.498 231.812C157.566 231.812 155.746 233.408 155.41 235.116V224.56L152.61 225.036V225.288C153.786 225.288 154.01 225.68 154.01 226.66V243.208C154.01 244.636 153.954 244.44 152.89 244.748V245H156.558V244.748C155.55 244.496 155.41 244.748 155.41 243.208V235.368C155.718 234.584 156.866 232.568 158.854 232.568C161.15 232.568 162.326 234.136 162.326 236.6V243.208C162.326 244.636 162.27 244.468 161.206 244.776V245H164.846V244.776C163.866 244.524 163.698 244.748 163.698 243.208ZM172.844 231.84C171.248 231.644 169.204 233.044 168.616 234.5V231.812L165.816 232.288V232.512C166.992 232.512 167.216 232.904 167.216 233.884V243.208C167.216 244.636 167.16 244.44 166.096 244.748V245H169.764V244.748C168.756 244.496 168.616 244.748 168.616 243.208V235.06C169.344 232.988 172.004 231.952 171.752 232.568C171.668 232.82 171.668 233.1 171.752 233.352C172.004 233.912 172.648 234.164 173.18 233.94C173.74 233.688 173.992 233.1 173.768 232.54C173.572 232.148 173.236 231.896 172.844 231.84ZM181.785 231.812C177.529 231.812 175.541 234.836 175.541 238.532C175.541 242.2 177.529 245.252 181.785 245.252C186.069 245.252 188.029 242.2 188.029 238.532C188.029 234.836 186.069 231.812 181.785 231.812ZM181.785 245C179.517 245 177.137 243.6 177.137 238.532C177.137 233.464 179.517 232.064 181.785 232.064C184.053 232.064 186.405 233.464 186.405 238.532C186.405 243.6 184.053 245 181.785 245ZM200.914 242.9V231.812L198.198 232.316V232.54C199.514 232.54 199.514 232.568 199.514 234.276V242.032C199.122 243.264 198.142 244.524 196.154 244.524C194.53 244.524 192.738 243.656 192.738 240.996V231.812L189.826 232.316V232.54C191.394 232.54 191.394 232.54 191.394 234.472V241.08C191.394 244.692 194.026 245.252 195.846 245.252C197.862 245.252 199.206 243.992 199.514 242.62V244.916C199.514 244.916 199.486 245.364 200.102 245.224L202.342 244.86V244.636C201.166 244.496 200.914 244.244 200.914 242.9ZM217.025 232.176C216.801 231.868 216.409 231.728 216.017 231.728C215.345 231.728 214.253 232.204 213.609 233.184C212.685 232.344 211.201 231.812 209.717 231.812C206.693 231.812 204.621 233.912 204.621 236.18C204.621 237.664 205.181 239.26 206.749 239.96C204.257 240.436 204.453 242.592 204.453 242.592C204.453 243.348 204.649 244.104 205.517 244.524C203.473 245.896 202.689 247.8 203.781 249.564C204.985 251.524 208.709 252.084 212.433 249.984C215.373 248.332 215.429 246.316 215.429 246.316C215.877 243.208 212.377 243.628 210.445 243.628H207.645C203.977 243.628 205.097 240.184 206.945 240.072C207.729 240.408 208.625 240.576 209.717 240.576C212.797 240.576 214.841 238.448 214.841 236.18C214.841 235.172 214.477 234.024 213.749 233.324C214.281 232.428 215.373 232.344 215.289 232.568C215.205 232.82 215.261 233.1 215.429 233.324C215.709 233.772 216.325 233.828 216.773 233.52C217.193 233.212 217.305 232.624 217.025 232.176ZM205.741 244.664C206.609 244.972 207.673 245 207.981 245H211.929C214.701 245 214.645 246.344 214.645 246.344C214.645 246.344 214.813 248.164 212.293 249.76C209.941 251.272 206.329 250.516 205.237 249.228C205.349 249.34 202.997 246.708 205.741 244.664ZM209.717 240.352C208.485 240.352 206.217 239.316 206.217 236.18C206.217 233.044 208.317 232.064 209.717 232.064C210.921 232.064 213.245 233.044 213.245 236.18C213.245 239.316 211.005 240.352 209.717 240.352ZM228.776 243.208V236.488C228.776 233.128 226.928 231.812 224.576 231.812C222.644 231.812 220.824 233.408 220.488 235.116V224.56L217.688 225.036V225.288C218.864 225.288 219.088 225.68 219.088 226.66V243.208C219.088 244.636 219.032 244.44 217.968 244.748V245H221.636V244.748C220.628 244.496 220.488 244.748 220.488 243.208V235.368C220.796 234.584 221.944 232.568 223.932 232.568C226.228 232.568 227.404 234.136 227.404 236.6V243.208C227.404 244.636 227.348 244.468 226.284 244.776V245H229.924V244.776C228.944 244.524 228.776 244.748 228.776 243.208ZM28.8667 274.9V263.812L26.1507 264.316V264.54C27.4667 264.54 27.4667 264.568 27.4667 266.276V274.032C27.0747 275.264 26.0947 276.524 24.1067 276.524C22.4827 276.524 20.6907 275.656 20.6907 272.996V263.812L17.7787 264.316V264.54C19.3467 264.54 19.3467 264.54 19.3467 266.472V273.08C19.3467 276.692 21.9787 277.252 23.7987 277.252C25.8147 277.252 27.1587 275.992 27.4667 274.62V276.916C27.4667 276.916 27.4387 277.364 28.0547 277.224L30.2947 276.86V276.636C29.1187 276.496 28.8667 276.244 28.8667 274.9ZM42.0945 275.208V268.488C42.0945 265.128 40.2465 263.812 37.8945 263.812C36.1305 263.812 34.4505 265.128 33.9185 266.668V263.812L31.1185 264.288V264.512C32.2945 264.512 32.5185 264.932 32.5185 265.912V275.208C32.5185 276.636 32.4625 276.44 31.3985 276.748V277H35.0665V276.748C34.0585 276.496 33.9185 276.748 33.9185 275.208V267.088C34.3665 266.192 35.4585 264.568 37.2505 264.568C39.5465 264.568 40.7225 266.136 40.7225 268.6V275.208C40.7225 276.636 40.6665 276.468 39.6025 276.776V277H43.2425V276.776C42.2625 276.524 42.0945 276.748 42.0945 275.208ZM47.5202 263.812L44.7482 264.288V264.512C45.9242 264.512 46.1202 264.904 46.1202 265.884V275.208C46.1202 276.636 46.0642 276.44 45.0002 276.748V277H48.6682V276.748C47.6602 276.496 47.5202 276.748 47.5202 275.208V263.812ZM47.4922 260.452C47.4922 259.892 47.0442 259.472 46.5402 259.472C46.0082 259.472 45.6162 259.892 45.6162 260.452C45.6162 260.956 46.0082 261.376 46.5402 261.376C47.0442 261.376 47.4922 260.956 47.4922 260.452ZM60.5684 273.724C60.3724 275.488 58.8324 276.608 57.1524 276.608C54.5484 276.608 52.6724 274.228 52.6724 269.86C52.6724 265.128 55.4724 264.064 57.1524 264.064C58.8604 264.064 60.3724 265.38 60.5684 267.116V273.724ZM61.9684 282.628V264.176C61.9684 263.728 60.9604 264.344 60.6524 265.044C59.7004 264.288 58.4964 263.812 57.0404 263.812C53.4844 263.812 50.8244 266.192 50.8244 270.392C50.8244 273.752 52.3084 277.252 56.6204 277.252C58.0764 277.252 59.7284 276.58 60.5684 275.376V282.628C60.5684 284.056 60.5124 283.86 59.4484 284.168V284.42H63.1164V284.168C62.1084 283.916 61.9684 284.168 61.9684 282.628ZM75.4331 274.9V263.812L72.7171 264.316V264.54C74.0331 264.54 74.0331 264.568 74.0331 266.276V274.032C73.6411 275.264 72.6611 276.524 70.6731 276.524C69.0491 276.524 67.2571 275.656 67.2571 272.996V263.812L64.3451 264.316V264.54C65.9131 264.54 65.9131 264.54 65.9131 266.472V273.08C65.9131 276.692 68.5451 277.252 70.3651 277.252C72.3811 277.252 73.7251 275.992 74.0331 274.62V276.916C74.0331 276.916 74.0051 277.364 74.6211 277.224L76.8611 276.86V276.636C75.6851 276.496 75.4331 276.244 75.4331 274.9ZM84.545 276.692C82.025 276.692 80.065 275.068 80.065 270.28H89.053C89.053 265.828 86.505 263.812 84.041 263.812C80.989 263.812 78.413 266.36 78.413 270.7C78.413 274.816 80.877 277.252 84.181 277.252C87.037 277.252 88.493 274.956 88.633 273.78L88.465 273.752C88.129 275.208 86.421 276.692 84.545 276.692ZM80.065 270C80.065 265.66 82.473 264.064 84.041 264.064C85.161 264.064 87.653 265.38 87.653 270H80.065ZM103.932 270.448L101.104 268.684C98.6677 267.144 98.3037 264.064 101.776 264.064C105.416 264.064 106.088 266.136 106.088 268.432H106.312V264.736C106.312 264.736 104.996 263.812 101.776 263.812C98.8917 263.812 98.2757 265.604 98.2757 265.604C97.5477 267.424 98.0797 268.516 100.712 270.448L103.54 272.156C105.668 273.556 106.76 277 102.812 277C98.7797 277 98.3037 274.816 98.3037 272.212H98.0797V276.3C98.0797 276.3 99.4237 277.252 102.812 277.252C105.136 277.252 106.004 275.992 106.004 275.992C107.292 274.172 106.508 272.044 103.932 270.448ZM115.257 263.812C111.001 263.812 109.013 266.836 109.013 270.532C109.013 274.2 111.001 277.252 115.257 277.252C119.541 277.252 121.501 274.2 121.501 270.532C121.501 266.836 119.541 263.812 115.257 263.812ZM115.257 277C112.989 277 110.609 275.6 110.609 270.532C110.609 265.464 112.989 264.064 115.257 264.064C117.525 264.064 119.877 265.464 119.877 270.532C119.877 275.6 117.525 277 115.257 277ZM126.266 256.56L123.466 257.036V257.288C124.642 257.288 124.866 257.68 124.866 258.66V275.208C124.866 276.636 124.81 276.44 123.746 276.748V277H127.414V276.748C126.406 276.496 126.266 276.748 126.266 275.208V256.56ZM139.91 274.9V263.812L137.194 264.316V264.54C138.51 264.54 138.51 264.568 138.51 266.276V274.032C138.118 275.264 137.138 276.524 135.15 276.524C133.526 276.524 131.734 275.656 131.734 272.996V263.812L128.822 264.316V264.54C130.39 264.54 130.39 264.54 130.39 266.472V273.08C130.39 276.692 133.022 277.252 134.842 277.252C136.858 277.252 138.202 275.992 138.51 274.62V276.916C138.51 276.916 138.482 277.364 139.098 277.224L141.338 276.86V276.636C140.162 276.496 139.91 276.244 139.91 274.9ZM147.398 276.496C146.138 276.496 145.214 275.768 145.214 272.884V264.316H148.462L148.518 264.064H145.214V259.668L143.814 259.836V264.064H142.358L142.386 264.316H143.814V272.968C143.814 276.356 144.99 277.252 146.838 277.252C148.21 277.252 149.05 276.3 149.274 275.152L149.106 275.096C148.91 275.852 148.21 276.496 147.398 276.496ZM153.313 263.812L150.541 264.288V264.512C151.717 264.512 151.913 264.904 151.913 265.884V275.208C151.913 276.636 151.857 276.44 150.793 276.748V277H154.461V276.748C153.453 276.496 153.313 276.748 153.313 275.208V263.812ZM153.285 260.452C153.285 259.892 152.837 259.472 152.333 259.472C151.801 259.472 151.409 259.892 151.409 260.452C151.409 260.956 151.801 261.376 152.333 261.376C152.837 261.376 153.285 260.956 153.285 260.452ZM162.917 263.812C158.661 263.812 156.673 266.836 156.673 270.532C156.673 274.2 158.661 277.252 162.917 277.252C167.201 277.252 169.161 274.2 169.161 270.532C169.161 266.836 167.201 263.812 162.917 263.812ZM162.917 277C160.649 277 158.269 275.6 158.269 270.532C158.269 265.464 160.649 264.064 162.917 264.064C165.185 264.064 167.537 265.464 167.537 270.532C167.537 275.6 165.185 277 162.917 277ZM181.766 275.208V268.488C181.766 265.128 179.918 263.812 177.566 263.812C175.802 263.812 174.122 265.128 173.59 266.668V263.812L170.79 264.288V264.512C171.966 264.512 172.19 264.932 172.19 265.912V275.208C172.19 276.636 172.134 276.44 171.07 276.748V277H174.738V276.748C173.73 276.496 173.59 276.748 173.59 275.208V267.088C174.038 266.192 175.13 264.568 176.922 264.568C179.218 264.568 180.394 266.136 180.394 268.6V275.208C180.394 276.636 180.338 276.468 179.274 276.776V277H182.914V276.776C181.934 276.524 181.766 276.748 181.766 275.208ZM190.748 270.448L187.92 268.684C185.484 267.144 185.12 264.064 188.592 264.064C192.232 264.064 192.904 266.136 192.904 268.432H193.128V264.736C193.128 264.736 191.812 263.812 188.592 263.812C185.708 263.812 185.092 265.604 185.092 265.604C184.364 267.424 184.896 268.516 187.528 270.448L190.356 272.156C192.484 273.556 193.576 277 189.628 277C185.596 277 185.12 274.816 185.12 272.212H184.896V276.3C184.896 276.3 186.24 277.252 189.628 277.252C191.952 277.252 192.82 275.992 192.82 275.992C194.108 274.172 193.324 272.044 190.748 270.448ZM206.815 276.496C205.555 276.496 204.631 275.768 204.631 272.884V264.316H207.879L207.935 264.064H204.631V259.668L203.231 259.836V264.064H201.775L201.803 264.316H203.231V272.968C203.231 276.356 204.407 277.252 206.255 277.252C207.627 277.252 208.467 276.3 208.691 275.152L208.523 275.096C208.327 275.852 207.627 276.496 206.815 276.496ZM220.655 275.208V268.488C220.655 265.128 218.807 263.812 216.455 263.812C214.523 263.812 212.703 265.408 212.367 267.116V256.56L209.567 257.036V257.288C210.743 257.288 210.967 257.68 210.967 258.66V275.208C210.967 276.636 210.911 276.44 209.847 276.748V277H213.515V276.748C212.507 276.496 212.367 276.748 212.367 275.208V267.368C212.675 266.584 213.823 264.568 215.811 264.568C218.107 264.568 219.283 266.136 219.283 268.6V275.208C219.283 276.636 219.227 276.468 218.163 276.776V277H221.803V276.776C220.823 276.524 220.655 276.748 220.655 275.208ZM230.585 274.396C230.277 275.068 229.521 276.44 227.533 276.44C225.937 276.44 224.929 275.516 224.929 273.892C224.929 271.932 226.861 270.784 230.585 269.86V274.396ZM233.273 276.328C232.097 276.328 232.097 274.76 232.097 274.76V269.412C232.097 266.08 231.453 263.812 229.017 263.812C229.017 263.812 227.701 263.784 226.553 264.344C225.069 265.156 224.509 266.08 224.369 266.416C224.229 266.752 224.313 267.172 224.565 267.48C224.929 267.928 225.545 267.956 225.965 267.592C226.385 267.2 226.441 266.556 226.077 266.136C225.881 265.912 225.657 265.828 225.405 265.772C225.265 265.744 225.489 265.128 226.777 264.512C229.325 263.448 230.585 265.24 230.585 268.096V269.608C225.909 270.84 223.529 271.792 223.529 274.34C223.529 277.28 226.693 277.252 226.693 277.252C228.625 277.252 230.221 276.272 230.585 274.816C230.585 277.392 232.517 277.252 232.517 277.252C233.693 277.252 234.281 276.244 234.421 275.432L234.197 275.348C234.001 276.328 233.273 276.328 233.273 276.328ZM240.394 276.496C239.134 276.496 238.21 275.768 238.21 272.884V264.316H241.458L241.514 264.064H238.21V259.668L236.81 259.836V264.064H235.354L235.382 264.316H236.81V272.968C236.81 276.356 237.986 277.252 239.834 277.252C241.206 277.252 242.046 276.3 242.27 275.152L242.102 275.096C241.906 275.852 241.206 276.496 240.394 276.496ZM55.0333 295.84C53.4373 295.644 51.3933 297.044 50.8053 298.5V295.812L48.0053 296.288V296.512C49.1813 296.512 49.4053 296.904 49.4053 297.884V307.208C49.4053 308.636 49.3493 308.44 48.2853 308.748V309H51.9533V308.748C50.9453 308.496 50.8053 308.748 50.8053 307.208V299.06C51.5333 296.988 54.1933 295.952 53.9413 296.568C53.8573 296.82 53.8573 297.1 53.9413 297.352C54.1933 297.912 54.8373 298.164 55.3693 297.94C55.9293 297.688 56.1813 297.1 55.9573 296.54C55.7613 296.148 55.4253 295.896 55.0333 295.84ZM63.75 308.692C61.23 308.692 59.27 307.068 59.27 302.28H68.258C68.258 297.828 65.71 295.812 63.246 295.812C60.194 295.812 57.618 298.36 57.618 302.7C57.618 306.816 60.082 309.252 63.386 309.252C66.242 309.252 67.698 306.956 67.838 305.78L67.67 305.752C67.334 307.208 65.626 308.692 63.75 308.692ZM59.27 302C59.27 297.66 61.678 296.064 63.246 296.064C64.366 296.064 66.858 297.38 66.858 302H59.27ZM77.5473 296.064V296.288C80.6273 296.288 79.3673 299.536 79.3673 299.536L76.6233 307.292L72.4233 298.08C72.4233 298.08 71.4713 296.288 73.6273 296.288V296.064H68.6153V296.288C69.0633 296.344 69.9033 296.316 70.6033 297.632C70.6033 297.632 71.0793 298.5 76.0353 309.252H76.1753L79.7873 299.144C80.9353 296.316 81.4113 296.288 82.8953 296.288V296.064H77.5473ZM89.4311 295.812C85.1751 295.812 83.1871 298.836 83.1871 302.532C83.1871 306.2 85.1751 309.252 89.4311 309.252C93.7151 309.252 95.6751 306.2 95.6751 302.532C95.6751 298.836 93.7151 295.812 89.4311 295.812ZM89.4311 309C87.1631 309 84.7831 307.6 84.7831 302.532C84.7831 297.464 87.1631 296.064 89.4311 296.064C91.6991 296.064 94.0511 297.464 94.0511 302.532C94.0511 307.6 91.6991 309 89.4311 309ZM100.44 288.56L97.6401 289.036V289.288C98.8161 289.288 99.0401 289.68 99.0401 290.66V307.208C99.0401 308.636 98.9841 308.44 97.9201 308.748V309H101.588V308.748C100.58 308.496 100.44 308.748 100.44 307.208V288.56ZM111.536 296.064V296.288C114.616 296.288 113.356 299.536 113.356 299.536L110.612 307.292L106.412 298.08C106.412 298.08 105.46 296.288 107.616 296.288V296.064H102.604V296.288C103.052 296.344 103.892 296.316 104.592 297.632C104.592 297.632 105.068 298.5 110.024 309.252H110.164L113.776 299.144C114.924 296.316 115.4 296.288 116.884 296.288V296.064H111.536ZM123.195 308.692C120.675 308.692 118.715 307.068 118.715 302.28H127.703C127.703 297.828 125.155 295.812 122.691 295.812C119.639 295.812 117.063 298.36 117.063 302.7C117.063 306.816 119.527 309.252 122.831 309.252C125.687 309.252 127.143 306.956 127.283 305.78L127.115 305.752C126.779 307.208 125.071 308.692 123.195 308.692ZM118.715 302C118.715 297.66 121.123 296.064 122.691 296.064C123.811 296.064 126.303 297.38 126.303 302H118.715ZM143.618 306.396C143.31 307.068 142.554 308.44 140.566 308.44C138.97 308.44 137.962 307.516 137.962 305.892C137.962 303.932 139.894 302.784 143.618 301.86V306.396ZM146.306 308.328C145.13 308.328 145.13 306.76 145.13 306.76V301.412C145.13 298.08 144.486 295.812 142.05 295.812C142.05 295.812 140.734 295.784 139.586 296.344C138.102 297.156 137.542 298.08 137.402 298.416C137.262 298.752 137.346 299.172 137.598 299.48C137.962 299.928 138.578 299.956 138.998 299.592C139.418 299.2 139.474 298.556 139.11 298.136C138.914 297.912 138.69 297.828 138.438 297.772C138.298 297.744 138.522 297.128 139.81 296.512C142.358 295.448 143.618 297.24 143.618 300.096V301.608C138.942 302.84 136.562 303.792 136.562 306.34C136.562 309.28 139.726 309.252 139.726 309.252C141.658 309.252 143.254 308.272 143.618 306.816C143.618 309.392 145.55 309.252 145.55 309.252C146.726 309.252 147.314 308.244 147.454 307.432L147.23 307.348C147.034 308.328 146.306 308.328 146.306 308.328ZM155.303 295.84C153.707 295.644 151.663 297.044 151.075 298.5V295.812L148.275 296.288V296.512C149.451 296.512 149.675 296.904 149.675 297.884V307.208C149.675 308.636 149.619 308.44 148.555 308.748V309H152.223V308.748C151.215 308.496 151.075 308.748 151.075 307.208V299.06C151.803 296.988 154.463 295.952 154.211 296.568C154.127 296.82 154.127 297.1 154.211 297.352C154.463 297.912 155.107 298.164 155.639 297.94C156.199 297.688 156.451 297.1 156.227 296.54C156.031 296.148 155.695 295.896 155.303 295.84ZM164.244 295.812C159.988 295.812 158 298.836 158 302.532C158 306.2 159.988 309.252 164.244 309.252C168.528 309.252 170.488 306.2 170.488 302.532C170.488 298.836 168.528 295.812 164.244 295.812ZM164.244 309C161.976 309 159.596 307.6 159.596 302.532C159.596 297.464 161.976 296.064 164.244 296.064C166.512 296.064 168.864 297.464 168.864 302.532C168.864 307.6 166.512 309 164.244 309ZM183.373 306.9V295.812L180.657 296.316V296.54C181.973 296.54 181.973 296.568 181.973 298.276V306.032C181.581 307.264 180.601 308.524 178.613 308.524C176.989 308.524 175.197 307.656 175.197 304.996V295.812L172.285 296.316V296.54C173.853 296.54 173.853 296.54 173.853 298.472V305.08C173.853 308.692 176.485 309.252 178.305 309.252C180.321 309.252 181.665 307.992 181.973 306.62V308.916C181.973 308.916 181.945 309.364 182.561 309.224L184.801 308.86V308.636C183.625 308.496 183.373 308.244 183.373 306.9ZM196.6 307.208V300.488C196.6 297.128 194.752 295.812 192.4 295.812C190.636 295.812 188.956 297.128 188.424 298.668V295.812L185.624 296.288V296.512C186.8 296.512 187.024 296.932 187.024 297.912V307.208C187.024 308.636 186.968 308.44 185.904 308.748V309H189.572V308.748C188.564 308.496 188.424 308.748 188.424 307.208V299.088C188.872 298.192 189.964 296.568 191.756 296.568C194.052 296.568 195.228 298.136 195.228 300.6V307.208C195.228 308.636 195.172 308.468 194.108 308.776V309H197.748V308.776C196.768 308.524 196.6 308.748 196.6 307.208ZM209.306 305.36C209.306 307.32 207.682 308.608 205.89 308.608C203.286 308.608 201.382 306.228 201.382 301.86C201.382 297.128 204.21 296.064 205.89 296.064C207.682 296.064 209.306 297.604 209.306 299.508V305.36ZM210.678 307.32V288.56L207.878 289.036V289.288C209.026 289.288 209.306 289.764 209.306 290.744V297.016C208.382 296.288 207.234 295.812 205.778 295.812C202.222 295.812 199.534 298.192 199.534 302.392C199.534 305.78 201.018 309.252 205.358 309.252C206.814 309.252 208.466 308.58 209.306 307.376V308.72C209.306 308.72 209.306 309.364 210.09 309.224L212.106 308.804V308.58C210.986 308.692 210.678 308.692 210.678 307.32ZM62.0371 321.271V341H68.4355C74.3555 341 77.7871 337.377 77.7871 331.129C77.7871 324.895 74.3418 321.271 68.4355 321.271H62.0371ZM63.9102 322.967H68.3262C73.1797 322.967 75.8867 325.893 75.8867 331.143C75.8867 336.379 73.1797 339.305 68.3262 339.305H63.9102V322.967ZM92.5938 339.305H82.5449V331.73H92.0879V330.062H82.5449V322.967H92.5938V321.271H80.6855V341H92.5938V339.305ZM94.5215 335.641C94.7266 339.031 97.625 341.314 101.754 341.314C106.115 341.314 108.904 339.045 108.904 335.586C108.904 332.838 107.236 331.32 103.271 330.322L101.139 329.775C98.2402 329.037 97.0098 328.039 97.0098 326.344C97.0098 324.17 99.0332 322.652 101.768 322.652C104.57 322.652 106.539 324.129 106.717 326.357H108.59C108.48 323.227 105.664 320.957 101.822 320.957C97.9395 320.957 95.0684 323.227 95.0684 326.412C95.0684 329.01 96.6953 330.555 100.346 331.484L102.793 332.113C105.719 332.852 106.99 333.945 106.99 335.791C106.99 338.006 104.871 339.619 101.918 339.619C98.8281 339.619 96.5996 338.006 96.3945 335.641H94.5215ZM113.498 341V321.271H111.639V341H113.498ZM133.445 332.988V331.088H125.461V332.729H131.586V333.426C131.586 337.145 129.07 339.578 125.256 339.578C121.031 339.578 118.311 336.229 118.311 331.02C118.311 325.879 120.977 322.693 125.256 322.693C128.264 322.693 130.574 324.389 131.381 327.205H133.322C132.584 323.432 129.398 320.957 125.256 320.957C119.869 320.957 116.396 324.908 116.396 331.02C116.396 337.24 119.91 341.314 125.256 341.314C130.383 341.314 133.445 338.197 133.445 332.988ZM138.312 341V324.512H138.408L150.016 341H151.82V321.271H149.975V337.746H149.879L138.312 321.271H136.467V341H138.312ZM168.474 338.396C168.166 339.068 167.41 340.44 165.422 340.44C163.826 340.44 162.818 339.516 162.818 337.892C162.818 335.932 164.75 334.784 168.474 333.86V338.396ZM171.162 340.328C169.986 340.328 169.986 338.76 169.986 338.76V333.412C169.986 330.08 169.342 327.812 166.906 327.812C166.906 327.812 165.59 327.784 164.442 328.344C162.958 329.156 162.398 330.08 162.258 330.416C162.118 330.752 162.202 331.172 162.454 331.48C162.818 331.928 163.434 331.956 163.854 331.592C164.274 331.2 164.33 330.556 163.966 330.136C163.77 329.912 163.546 329.828 163.294 329.772C163.154 329.744 163.378 329.128 164.666 328.512C167.214 327.448 168.474 329.24 168.474 332.096V333.608C163.798 334.84 161.418 335.792 161.418 338.34C161.418 341.28 164.582 341.252 164.582 341.252C166.514 341.252 168.11 340.272 168.474 338.816C168.474 341.392 170.406 341.252 170.406 341.252C171.582 341.252 172.17 340.244 172.31 339.432L172.086 339.348C171.89 340.328 171.162 340.328 171.162 340.328ZM184.022 339.208V332.488C184.022 329.128 182.174 327.812 179.822 327.812C178.058 327.812 176.378 329.128 175.846 330.668V327.812L173.046 328.288V328.512C174.222 328.512 174.446 328.932 174.446 329.912V339.208C174.446 340.636 174.39 340.44 173.326 340.748V341H176.994V340.748C175.986 340.496 175.846 340.748 175.846 339.208V331.088C176.294 330.192 177.386 328.568 179.178 328.568C181.474 328.568 182.65 330.136 182.65 332.6V339.208C182.65 340.636 182.594 340.468 181.53 340.776V341H185.17V340.776C184.19 340.524 184.022 340.748 184.022 339.208ZM196.728 337.36C196.728 339.32 195.104 340.608 193.312 340.608C190.708 340.608 188.804 338.228 188.804 333.86C188.804 329.128 191.632 328.064 193.312 328.064C195.104 328.064 196.728 329.604 196.728 331.508V337.36ZM198.1 339.32V320.56L195.3 321.036V321.288C196.448 321.288 196.728 321.764 196.728 322.744V329.016C195.804 328.288 194.656 327.812 193.2 327.812C189.644 327.812 186.956 330.192 186.956 334.392C186.956 337.78 188.44 341.252 192.78 341.252C194.236 341.252 195.888 340.58 196.728 339.376V340.72C196.728 340.72 196.728 341.364 197.512 341.224L199.528 340.804V340.58C198.408 340.692 198.1 340.692 198.1 339.32ZM54.7227 373V353.271H52.8633V373H54.7227ZM60.2598 373V356.512H60.3555L71.9629 373H73.7676V353.271H71.9219V369.746H71.8262L60.2598 353.271H58.4141V373H60.2598ZM79.3184 373V356.512H79.4141L91.0215 373H92.8262V353.271H90.9805V369.746H90.8848L79.3184 353.271H77.4727V373H79.3184ZM104.693 352.957C99.1973 352.957 95.7383 356.895 95.7383 363.143C95.7383 369.391 99.1973 373.314 104.693 373.314C110.203 373.314 113.662 369.391 113.662 363.143C113.662 356.895 110.189 352.957 104.693 352.957ZM104.693 354.693C109.014 354.693 111.748 357.961 111.748 363.143C111.748 368.311 109.014 371.578 104.693 371.578C100.373 371.578 97.6523 368.311 97.6523 363.143C97.6523 357.961 100.373 354.693 104.693 354.693ZM123.547 373L130.93 353.271H128.961L122.658 370.676H122.576L116.287 353.271H114.305L121.688 373H123.547ZM144.123 373H146.092L138.723 353.271H136.863L129.48 373H131.463L133.65 366.957H141.936L144.123 373ZM137.752 355.582H137.834L141.375 365.344H134.211L137.752 355.582ZM152.531 373V354.967H159.053V353.271H144.15V354.967H150.658V373H152.531ZM163.277 373V353.271H161.418V373H163.277ZM175.131 352.957C169.635 352.957 166.176 356.895 166.176 363.143C166.176 369.391 169.635 373.314 175.131 373.314C180.641 373.314 184.1 369.391 184.1 363.143C184.1 356.895 180.627 352.957 175.131 352.957ZM175.131 354.693C179.451 354.693 182.186 357.961 182.186 363.143C182.186 368.311 179.451 371.578 175.131 371.578C170.811 371.578 168.09 368.311 168.09 363.143C168.09 357.961 170.811 354.693 175.131 354.693ZM188.857 373V356.512H188.953L200.561 373H202.365V353.271H200.52V369.746H200.424L188.857 353.271H187.012V373H188.857ZM207.669 372.216C207.669 371.656 207.221 371.236 206.717 371.236C206.185 371.236 205.793 371.656 205.793 372.216C205.793 372.72 206.185 373.14 206.717 373.14C207.221 373.14 207.669 372.72 207.669 372.216Z" fill="white"/>
<path d="M157.412 151.8H260.958V153.2H157.412V151.8ZM17.2617 183.8H196.596V185.2H17.2617V183.8ZM96.7637 279.8H194.668V281.2H96.7637V279.8Z" fill="white"/>
</svg>
