<svg width="256" height="79" viewBox="0 0 256 79" fill="none" xmlns="http://www.w3.org/2000/svg">
<path d="M5.26562 12V1.69531H8.99219V0.726562H0.476562V1.69531H4.19531V12H5.26562ZM8.47656 12H9.50781V6.9375C9.50781 5.625 10.2422 4.72656 11.3984 4.72656C11.75 4.72656 12.0391 4.78125 12.1719 4.84375V3.82812C12.0469 3.79688 11.8047 3.74219 11.5312 3.74219C10.5312 3.74219 9.77344 4.32812 9.47656 5.32031H9.45312V3.875H8.47656V12ZM15.6562 11.2422C14.5547 11.2422 13.7969 10.6328 13.7969 9.75C13.7969 8.85156 14.5078 8.29688 15.7891 8.21094L18.1953 8.04688V8.94531C18.1953 10.2344 17.0781 11.2422 15.6562 11.2422ZM15.4453 12.1328C16.6562 12.1328 17.7656 11.4609 18.2188 10.4531H18.2422V12H19.2266V6.4375C19.2266 4.78125 18.0625 3.74219 16.2109 3.74219C14.3594 3.74219 13.1641 4.77344 13.0469 6.22656H14.0469C14.2266 5.24219 14.9922 4.65625 16.1875 4.65625C17.4531 4.65625 18.1953 5.35938 18.1953 6.53125V7.23438L15.6641 7.39062C13.7891 7.51562 12.75 8.35938 12.75 9.75C12.75 11.1719 13.8438 12.1328 15.4453 12.1328ZM24.8672 12.1328C26.9141 12.1328 28.3047 10.4688 28.3047 7.9375C28.3047 5.40625 26.9141 3.74219 24.875 3.74219C23.6016 3.74219 22.5547 4.45312 22.0938 5.57031H22.0703V0.726562H21.0312V12H22.0234V10.2812H22.0469C22.5312 11.4219 23.5703 12.1328 24.8672 12.1328ZM24.6719 4.65625C26.2344 4.65625 27.2422 5.95312 27.2422 7.9375C27.2422 9.92969 26.2344 11.2188 24.6719 11.2188C23.1406 11.2188 22.0625 9.89062 22.0625 7.9375C22.0625 5.99219 23.1484 4.65625 24.6719 4.65625ZM32.3125 11.2422C31.2109 11.2422 30.4531 10.6328 30.4531 9.75C30.4531 8.85156 31.1641 8.29688 32.4453 8.21094L34.8516 8.04688V8.94531C34.8516 10.2344 33.7344 11.2422 32.3125 11.2422ZM32.1016 12.1328C33.3125 12.1328 34.4219 11.4609 34.875 10.4531H34.8984V12H35.8828V6.4375C35.8828 4.78125 34.7188 3.74219 32.8672 3.74219C31.0156 3.74219 29.8203 4.77344 29.7031 6.22656H30.7031C30.8828 5.24219 31.6484 4.65625 32.8438 4.65625C34.1094 4.65625 34.8516 5.35938 34.8516 6.53125V7.23438L32.3203 7.39062C30.4453 7.51562 29.4062 8.35938 29.4062 9.75C29.4062 11.1719 30.5 12.1328 32.1016 12.1328ZM38.7188 3.875H37.6875V12.5312C37.6875 13.5156 37.3047 13.8906 36.3438 13.8906C36.3359 13.8906 36.1406 13.8906 36.1328 13.8906V14.7656C36.1406 14.7734 36.3594 14.7734 36.3828 14.7734C37.9688 14.7734 38.7188 14.0938 38.7188 12.5156V3.875ZM38.2031 2.23438C38.5859 2.23438 38.8984 1.92969 38.8984 1.54688C38.8984 1.17188 38.5859 0.867188 38.2031 0.867188C37.8281 0.867188 37.5156 1.17188 37.5156 1.54688C37.5156 1.92969 37.8281 2.23438 38.2031 2.23438ZM43.1875 11.2422C42.0859 11.2422 41.3281 10.6328 41.3281 9.75C41.3281 8.85156 42.0391 8.29688 43.3203 8.21094L45.7266 8.04688V8.94531C45.7266 10.2344 44.6094 11.2422 43.1875 11.2422ZM42.9766 12.1328C44.1875 12.1328 45.2969 11.4609 45.75 10.4531H45.7734V12H46.7578V6.4375C46.7578 4.78125 45.5938 3.74219 43.7422 3.74219C41.8906 3.74219 40.6953 4.77344 40.5781 6.22656H41.5781C41.7578 5.24219 42.5234 4.65625 43.7188 4.65625C44.9844 4.65625 45.7266 5.35938 45.7266 6.53125V7.23438L43.1953 7.39062C41.3203 7.51562 40.2812 8.35938 40.2812 9.75C40.2812 11.1719 41.375 12.1328 42.9766 12.1328ZM48.4922 12H49.5234V7.00781C49.5234 5.625 50.3828 4.66406 51.5781 4.66406C52.6875 4.66406 53.4375 5.42188 53.4375 6.58594V12H54.4766V6.88281C54.4766 5.58594 55.3047 4.66406 56.5078 4.66406C57.6875 4.66406 58.3906 5.42188 58.3906 6.67969V12H59.4219V6.44531C59.4219 4.80469 58.3828 3.74219 56.7969 3.74219C55.5703 3.74219 54.6172 4.45312 54.2344 5.45312H54.2109C53.9062 4.42969 53.0469 3.74219 51.8594 3.74219C50.6797 3.74219 49.8438 4.42188 49.4922 5.375H49.4688V3.875H48.4922V12ZM64.4609 12.1328C66.6719 12.1328 68.1641 10.5156 68.1641 7.9375C68.1641 5.35156 66.6719 3.74219 64.4609 3.74219C62.2578 3.74219 60.7578 5.35156 60.7578 7.9375C60.7578 10.5156 62.25 12.1328 64.4609 12.1328ZM64.4609 11.2188C62.8672 11.2188 61.8125 10 61.8125 7.9375C61.8125 5.875 62.8672 4.65625 64.4609 4.65625C66.0547 4.65625 67.1172 5.875 67.1172 7.9375C67.1172 10 66.0547 11.2188 64.4609 11.2188ZM69.375 6.04688C69.375 7.125 70.0781 7.82031 71.5469 8.1875L72.8672 8.51562C73.9531 8.78125 74.3594 9.15625 74.3594 9.85938C74.3594 10.7109 73.5547 11.2812 72.3359 11.2812C71.1172 11.2812 70.3203 10.6875 70.1719 9.72656H69.1406C69.2734 11.1562 70.5312 12.1328 72.2734 12.1328C74.1094 12.1328 75.3984 11.1562 75.3984 9.78125C75.3984 8.61719 74.7891 8.02344 73.1641 7.61719L71.9609 7.32812C70.875 7.0625 70.3984 6.65625 70.3984 5.99219C70.3984 5.17969 71.1562 4.59375 72.2656 4.59375C73.3906 4.59375 74.1328 5.1875 74.2578 6.14844H75.25C75.1484 4.71875 73.9609 3.74219 72.2969 3.74219C70.5781 3.74219 69.375 4.70312 69.375 6.04688ZM80.0703 12H81.1016V7.00781C81.1016 5.625 81.9609 4.66406 83.1562 4.66406C84.2656 4.66406 85.0156 5.42188 85.0156 6.58594V12H86.0547V6.88281C86.0547 5.58594 86.8828 4.66406 88.0859 4.66406C89.2656 4.66406 89.9688 5.42188 89.9688 6.67969V12H91V6.44531C91 4.80469 89.9609 3.74219 88.375 3.74219C87.1484 3.74219 86.1953 4.45312 85.8125 5.45312H85.7891C85.4844 4.42969 84.625 3.74219 83.4375 3.74219C82.2578 3.74219 81.4219 4.42188 81.0703 5.375H81.0469V3.875H80.0703V12ZM95.3594 11.2422C94.2578 11.2422 93.5 10.6328 93.5 9.75C93.5 8.85156 94.2109 8.29688 95.4922 8.21094L97.8984 8.04688V8.94531C97.8984 10.2344 96.7812 11.2422 95.3594 11.2422ZM95.1484 12.1328C96.3594 12.1328 97.4688 11.4609 97.9219 10.4531H97.9453V12H98.9297V6.4375C98.9297 4.78125 97.7656 3.74219 95.9141 3.74219C94.0625 3.74219 92.8672 4.77344 92.75 6.22656H93.75C93.9297 5.24219 94.6953 4.65625 95.8906 4.65625C97.1562 4.65625 97.8984 5.35938 97.8984 6.53125V7.23438L95.3672 7.39062C93.4922 7.51562 92.4531 8.35938 92.4531 9.75C92.4531 11.1719 93.5469 12.1328 95.1484 12.1328ZM100.664 12H101.695V7.1875C101.695 5.67969 102.641 4.66406 104.047 4.66406C105.406 4.66406 106.188 5.47656 106.188 6.89844V12H107.219V6.73438C107.219 4.89062 106.125 3.74219 104.344 3.74219C103.031 3.74219 102.078 4.39062 101.664 5.375H101.641V3.875H100.664V12ZM112.258 12.1328C114.469 12.1328 115.961 10.5156 115.961 7.9375C115.961 5.35156 114.469 3.74219 112.258 3.74219C110.055 3.74219 108.555 5.35156 108.555 7.9375C108.555 10.5156 110.047 12.1328 112.258 12.1328ZM112.258 11.2188C110.664 11.2188 109.609 10 109.609 7.9375C109.609 5.875 110.664 4.65625 112.258 4.65625C113.852 4.65625 114.914 5.875 114.914 7.9375C114.914 10 113.852 11.2188 112.258 11.2188ZM123.234 11.2422C122.133 11.2422 121.375 10.6328 121.375 9.75C121.375 8.85156 122.086 8.29688 123.367 8.21094L125.773 8.04688V8.94531C125.773 10.2344 124.656 11.2422 123.234 11.2422ZM123.023 12.1328C124.234 12.1328 125.344 11.4609 125.797 10.4531H125.82V12H126.805V6.4375C126.805 4.78125 125.641 3.74219 123.789 3.74219C121.938 3.74219 120.742 4.77344 120.625 6.22656H121.625C121.805 5.24219 122.57 4.65625 123.766 4.65625C125.031 4.65625 125.773 5.35938 125.773 6.53125V7.23438L123.242 7.39062C121.367 7.51562 120.328 8.35938 120.328 9.75C120.328 11.1719 121.422 12.1328 123.023 12.1328ZM131.82 12H132.852V7.00781C132.852 5.625 133.711 4.66406 134.906 4.66406C136.016 4.66406 136.766 5.42188 136.766 6.58594V12H137.805V6.88281C137.805 5.58594 138.633 4.66406 139.836 4.66406C141.016 4.66406 141.719 5.42188 141.719 6.67969V12H142.75V6.44531C142.75 4.80469 141.711 3.74219 140.125 3.74219C138.898 3.74219 137.945 4.45312 137.562 5.45312H137.539C137.234 4.42969 136.375 3.74219 135.188 3.74219C134.008 3.74219 133.172 4.42188 132.82 5.375H132.797V3.875H131.82V12ZM147.109 11.2422C146.008 11.2422 145.25 10.6328 145.25 9.75C145.25 8.85156 145.961 8.29688 147.242 8.21094L149.648 8.04688V8.94531C149.648 10.2344 148.531 11.2422 147.109 11.2422ZM146.898 12.1328C148.109 12.1328 149.219 11.4609 149.672 10.4531H149.695V12H150.68V6.4375C150.68 4.78125 149.516 3.74219 147.664 3.74219C145.812 3.74219 144.617 4.77344 144.5 6.22656H145.5C145.68 5.24219 146.445 4.65625 147.641 4.65625C148.906 4.65625 149.648 5.35938 149.648 6.53125V7.23438L147.117 7.39062C145.242 7.51562 144.203 8.35938 144.203 9.75C144.203 11.1719 145.297 12.1328 146.898 12.1328ZM152.414 12H153.445V7.1875C153.445 5.67969 154.391 4.66406 155.797 4.66406C157.156 4.66406 157.938 5.47656 157.938 6.89844V12H158.969V6.73438C158.969 4.89062 157.875 3.74219 156.094 3.74219C154.781 3.74219 153.828 4.39062 153.414 5.375H153.391V3.875H152.414V12ZM164.008 12.1328C166.219 12.1328 167.711 10.5156 167.711 7.9375C167.711 5.35156 166.219 3.74219 164.008 3.74219C161.805 3.74219 160.305 5.35156 160.305 7.9375C160.305 10.5156 161.797 12.1328 164.008 12.1328ZM164.008 11.2188C162.414 11.2188 161.359 10 161.359 7.9375C161.359 5.875 162.414 4.65625 164.008 4.65625C165.602 4.65625 166.664 5.875 166.664 7.9375C166.664 10 165.602 11.2188 164.008 11.2188ZM178.977 6.44531C178.773 4.99219 177.547 3.74219 175.633 3.74219C173.422 3.74219 171.961 5.375 171.961 7.9375C171.961 10.5391 173.422 12.1328 175.641 12.1328C177.438 12.1328 178.758 11.0391 178.984 9.48438H177.961C177.727 10.5391 176.875 11.2188 175.648 11.2188C174.062 11.2188 173.016 9.97656 173.016 7.9375C173.016 5.92969 174.055 4.65625 175.641 4.65625C176.922 4.65625 177.742 5.44531 177.961 6.44531H178.977ZM183.57 12.1328C185.781 12.1328 187.273 10.5156 187.273 7.9375C187.273 5.35156 185.781 3.74219 183.57 3.74219C181.367 3.74219 179.867 5.35156 179.867 7.9375C179.867 10.5156 181.359 12.1328 183.57 12.1328ZM183.57 11.2188C181.977 11.2188 180.922 10 180.922 7.9375C180.922 5.875 181.977 4.65625 183.57 4.65625C185.164 4.65625 186.227 5.875 186.227 7.9375C186.227 10 185.164 11.2188 183.57 11.2188ZM188.648 12H189.68V7.1875C189.68 5.67969 190.625 4.66406 192.031 4.66406C193.391 4.66406 194.172 5.47656 194.172 6.89844V12H195.203V6.73438C195.203 4.89062 194.109 3.74219 192.328 3.74219C191.016 3.74219 190.062 4.39062 189.648 5.375H189.625V3.875H188.648V12ZM200.227 12H201.258V7.1875C201.258 5.67969 202.203 4.66406 203.609 4.66406C204.969 4.66406 205.75 5.47656 205.75 6.89844V12H206.781V6.73438C206.781 4.89062 205.688 3.74219 203.906 3.74219C202.594 3.74219 201.641 4.39062 201.227 5.375H201.203V3.875H200.227V12ZM215.039 3.875H214.008V8.69531C214.008 10.2188 213.055 11.2109 211.641 11.2109C210.281 11.2109 209.516 10.4141 209.516 8.97656V3.875H208.477V9.15625C208.477 10.9844 209.578 12.1328 211.344 12.1328C212.633 12.1328 213.609 11.4922 214.039 10.4922H214.062V12H215.039V3.875ZM220.031 4.64844C221.5 4.64844 222.477 5.76562 222.5 7.36719H217.484C217.57 5.76562 218.578 4.64844 220.031 4.64844ZM222.438 9.69531C222.211 10.5859 221.359 11.2266 220.133 11.2266C218.516 11.2266 217.477 10.0859 217.477 8.25V8.1875H223.562V7.75C223.562 5.32812 222.203 3.74219 220.047 3.74219C217.844 3.74219 216.414 5.4375 216.414 7.96094C216.414 10.5391 217.828 12.1328 220.109 12.1328C221.898 12.1328 223.219 11.1016 223.461 9.69531H222.438ZM224.781 6.04688C224.781 7.125 225.484 7.82031 226.953 8.1875L228.273 8.51562C229.359 8.78125 229.766 9.15625 229.766 9.85938C229.766 10.7109 228.961 11.2812 227.742 11.2812C226.523 11.2812 225.727 10.6875 225.578 9.72656H224.547C224.68 11.1562 225.938 12.1328 227.68 12.1328C229.516 12.1328 230.805 11.1562 230.805 9.78125C230.805 8.61719 230.195 8.02344 228.57 7.61719L227.367 7.32812C226.281 7.0625 225.805 6.65625 225.805 5.99219C225.805 5.17969 226.562 4.59375 227.672 4.59375C228.797 4.59375 229.539 5.1875 229.664 6.14844H230.656C230.555 4.71875 229.367 3.74219 227.703 3.74219C225.984 3.74219 224.781 4.70312 224.781 6.04688ZM232.641 1.84375V3.875H231.43V4.73438H232.641V10C232.641 11.4688 233.188 12.0469 234.547 12.0469C234.766 12.0469 235.203 12.0234 235.312 12V11.1172C235.25 11.1328 234.859 11.1484 234.75 11.1484C234 11.1484 233.672 10.7891 233.672 9.95312V4.73438H235.273V3.875H233.672V1.84375H232.641ZM236.742 12H237.773V6.9375C237.773 5.625 238.508 4.72656 239.664 4.72656C240.016 4.72656 240.305 4.78125 240.438 4.84375V3.82812C240.312 3.79688 240.07 3.74219 239.797 3.74219C238.797 3.74219 238.039 4.32812 237.742 5.32031H237.719V3.875H236.742V12ZM244.383 12.1328C246.594 12.1328 248.086 10.5156 248.086 7.9375C248.086 5.35156 246.594 3.74219 244.383 3.74219C242.18 3.74219 240.68 5.35156 240.68 7.9375C240.68 10.5156 242.172 12.1328 244.383 12.1328ZM244.383 11.2188C242.789 11.2188 241.734 10 241.734 7.9375C241.734 5.875 242.789 4.65625 244.383 4.65625C245.977 4.65625 247.039 5.875 247.039 7.9375C247.039 10 245.977 11.2188 244.383 11.2188ZM249.297 6.04688C249.297 7.125 250 7.82031 251.469 8.1875L252.789 8.51562C253.875 8.78125 254.281 9.15625 254.281 9.85938C254.281 10.7109 253.477 11.2812 252.258 11.2812C251.039 11.2812 250.242 10.6875 250.094 9.72656H249.062C249.195 11.1562 250.453 12.1328 252.195 12.1328C254.031 12.1328 255.32 11.1562 255.32 9.78125C255.32 8.61719 254.711 8.02344 253.086 7.61719L251.883 7.32812C250.797 7.0625 250.32 6.65625 250.32 5.99219C250.32 5.17969 251.078 4.59375 252.188 4.59375C253.312 4.59375 254.055 5.1875 254.18 6.14844H255.172C255.07 4.71875 253.883 3.74219 252.219 3.74219C250.5 3.74219 249.297 4.70312 249.297 6.04688ZM7.03125 28.4453C6.82812 26.9922 5.60156 25.7422 3.6875 25.7422C1.47656 25.7422 0.015625 27.375 0.015625 29.9375C0.015625 32.5391 1.47656 34.1328 3.69531 34.1328C5.49219 34.1328 6.8125 33.0391 7.03906 31.4844H6.01562C5.78125 32.5391 4.92969 33.2188 3.70312 33.2188C2.11719 33.2188 1.07031 31.9766 1.07031 29.9375C1.07031 27.9297 2.10938 26.6562 3.69531 26.6562C4.97656 26.6562 5.79688 27.4453 6.01562 28.4453H7.03125ZM8.39844 34H9.42969V22.7266H8.39844V34ZM11.3516 34H12.3828V25.875H11.3516V34ZM11.8672 24.2344C12.25 24.2344 12.5625 23.9297 12.5625 23.5469C12.5625 23.1719 12.25 22.8672 11.8672 22.8672C11.4922 22.8672 11.1797 23.1719 11.1797 23.5469C11.1797 23.9297 11.4922 24.2344 11.8672 24.2344ZM17.4453 26.6484C18.9141 26.6484 19.8906 27.7656 19.9141 29.3672H14.8984C14.9844 27.7656 15.9922 26.6484 17.4453 26.6484ZM19.8516 31.6953C19.625 32.5859 18.7734 33.2266 17.5469 33.2266C15.9297 33.2266 14.8906 32.0859 14.8906 30.25V30.1875H20.9766V29.75C20.9766 27.3281 19.6172 25.7422 17.4609 25.7422C15.2578 25.7422 13.8281 27.4375 13.8281 29.9609C13.8281 32.5391 15.2422 34.1328 17.5234 34.1328C19.3125 34.1328 20.6328 33.1016 20.875 31.6953H19.8516ZM22.3594 34H23.3906V29.1875C23.3906 27.6797 24.3359 26.6641 25.7422 26.6641C27.1016 26.6641 27.8828 27.4766 27.8828 28.8984V34H28.9141V28.7344C28.9141 26.8906 27.8203 25.7422 26.0391 25.7422C24.7266 25.7422 23.7734 26.3906 23.3594 27.375H23.3359V25.875H22.3594V34ZM31.1016 23.8438V25.875H29.8906V26.7344H31.1016V32C31.1016 33.4688 31.6484 34.0469 33.0078 34.0469C33.2266 34.0469 33.6641 34.0234 33.7734 34V33.1172C33.7109 33.1328 33.3203 33.1484 33.2109 33.1484C32.4609 33.1484 32.1328 32.7891 32.1328 31.9531V26.7344H33.7344V25.875H32.1328V23.8438H31.1016ZM38.1328 26.6484C39.6016 26.6484 40.5781 27.7656 40.6016 29.3672H35.5859C35.6719 27.7656 36.6797 26.6484 38.1328 26.6484ZM40.5391 31.6953C40.3125 32.5859 39.4609 33.2266 38.2344 33.2266C36.6172 33.2266 35.5781 32.0859 35.5781 30.25V30.1875H41.6641V29.75C41.6641 27.3281 40.3047 25.7422 38.1484 25.7422C35.9453 25.7422 34.5156 27.4375 34.5156 29.9609C34.5156 32.5391 35.9297 34.1328 38.2109 34.1328C40 34.1328 41.3203 33.1016 41.5625 31.6953H40.5391ZM42.8828 28.0469C42.8828 29.125 43.5859 29.8203 45.0547 30.1875L46.375 30.5156C47.4609 30.7812 47.8672 31.1562 47.8672 31.8594C47.8672 32.7109 47.0625 33.2812 45.8438 33.2812C44.625 33.2812 43.8281 32.6875 43.6797 31.7266H42.6484C42.7812 33.1562 44.0391 34.1328 45.7812 34.1328C47.6172 34.1328 48.9062 33.1562 48.9062 31.7812C48.9062 30.6172 48.2969 30.0234 46.6719 29.6172L45.4688 29.3281C44.3828 29.0625 43.9062 28.6562 43.9062 27.9922C43.9062 27.1797 44.6641 26.5938 45.7734 26.5938C46.8984 26.5938 47.6406 27.1875 47.7656 28.1484H48.7578C48.6562 26.7188 47.4688 25.7422 45.8047 25.7422C44.0859 25.7422 42.8828 26.7031 42.8828 28.0469ZM57.3828 25.7422C56.0625 25.7422 55.0312 26.5156 54.5859 27.5938H54.5547V25.875H53.5781V36.6875H54.6094V32.3281H54.6406C55.0703 33.3828 56.0938 34.1328 57.4062 34.1328C59.4453 34.1328 60.8438 32.4688 60.8438 29.9375C60.8438 27.4141 59.4375 25.7422 57.3828 25.7422ZM57.2031 33.2188C55.6641 33.2188 54.6094 31.8984 54.6094 29.9375C54.6094 27.9844 55.6641 26.6562 57.2031 26.6562C58.7734 26.6562 59.7891 27.9609 59.7891 29.9375C59.7891 31.9219 58.7734 33.2188 57.2031 33.2188ZM64.8516 33.2422C63.75 33.2422 62.9922 32.6328 62.9922 31.75C62.9922 30.8516 63.7031 30.2969 64.9844 30.2109L67.3906 30.0469V30.9453C67.3906 32.2344 66.2734 33.2422 64.8516 33.2422ZM64.6406 34.1328C65.8516 34.1328 66.9609 33.4609 67.4141 32.4531H67.4375V34H68.4219V28.4375C68.4219 26.7812 67.2578 25.7422 65.4062 25.7422C63.5547 25.7422 62.3594 26.7734 62.2422 28.2266H63.2422C63.4219 27.2422 64.1875 26.6562 65.3828 26.6562C66.6484 26.6562 67.3906 27.3594 67.3906 28.5312V29.2344L64.8594 29.3906C62.9844 29.5156 61.9453 30.3594 61.9453 31.75C61.9453 33.1719 63.0391 34.1328 64.6406 34.1328ZM70.1562 34H71.1875V28.9375C71.1875 27.625 71.9219 26.7266 73.0781 26.7266C73.4297 26.7266 73.7188 26.7812 73.8516 26.8438V25.8281C73.7266 25.7969 73.4844 25.7422 73.2109 25.7422C72.2109 25.7422 71.4531 26.3281 71.1562 27.3203H71.1328V25.875H70.1562V34ZM77.3359 33.2422C76.2344 33.2422 75.4766 32.6328 75.4766 31.75C75.4766 30.8516 76.1875 30.2969 77.4688 30.2109L79.875 30.0469V30.9453C79.875 32.2344 78.7578 33.2422 77.3359 33.2422ZM77.125 34.1328C78.3359 34.1328 79.4453 33.4609 79.8984 32.4531H79.9219V34H80.9062V28.4375C80.9062 26.7812 79.7422 25.7422 77.8906 25.7422C76.0391 25.7422 74.8438 26.7734 74.7266 28.2266H75.7266C75.9062 27.2422 76.6719 26.6562 77.8672 26.6562C79.1328 26.6562 79.875 27.3594 79.875 28.5312V29.2344L77.3438 29.3906C75.4688 29.5156 74.4297 30.3594 74.4297 31.75C74.4297 33.1719 75.5234 34.1328 77.125 34.1328ZM85.9922 34H87.0234V22.7266H85.9922V34ZM92.1719 34.1328C94.3828 34.1328 95.875 32.5156 95.875 29.9375C95.875 27.3516 94.3828 25.7422 92.1719 25.7422C89.9688 25.7422 88.4688 27.3516 88.4688 29.9375C88.4688 32.5156 89.9609 34.1328 92.1719 34.1328ZM92.1719 33.2188C90.5781 33.2188 89.5234 32 89.5234 29.9375C89.5234 27.875 90.5781 26.6562 92.1719 26.6562C93.7656 26.6562 94.8281 27.875 94.8281 29.9375C94.8281 32 93.7656 33.2188 92.1719 33.2188ZM100.461 33.1641C98.9297 33.1641 97.9062 31.8828 97.9062 29.9219C97.9062 27.9453 98.9297 26.6562 100.461 26.6562C102.023 26.6562 103.078 27.9688 103.078 29.9141C103.078 31.8594 102.023 33.1641 100.461 33.1641ZM100.562 37.0078C102.734 37.0078 104.117 35.7578 104.117 33.8672V25.875H103.133V27.5938H103.109C102.633 26.4844 101.594 25.7422 100.297 25.7422C98.2188 25.7422 96.8438 27.3906 96.8438 29.9141C96.8438 32.4297 98.2188 34.0781 100.273 34.0781C101.57 34.0781 102.617 33.3203 103.055 32.2734H103.078V33.9062C103.078 35.2344 102.133 36.1172 100.609 36.1172C99.4297 36.1172 98.5625 35.5469 98.2969 34.75H97.2266C97.4531 36.0312 98.7891 37.0078 100.562 37.0078ZM105.906 34H106.938V28.9375C106.938 27.625 107.672 26.7266 108.828 26.7266C109.18 26.7266 109.469 26.7812 109.602 26.8438V25.8281C109.477 25.7969 109.234 25.7422 108.961 25.7422C107.961 25.7422 107.203 26.3281 106.906 27.3203H106.883V25.875H105.906V34ZM113.086 33.2422C111.984 33.2422 111.227 32.6328 111.227 31.75C111.227 30.8516 111.938 30.2969 113.219 30.2109L115.625 30.0469V30.9453C115.625 32.2344 114.508 33.2422 113.086 33.2422ZM112.875 34.1328C114.086 34.1328 115.195 33.4609 115.648 32.4531H115.672V34H116.656V28.4375C116.656 26.7812 115.492 25.7422 113.641 25.7422C111.789 25.7422 110.594 26.7734 110.477 28.2266H111.477C111.656 27.2422 112.422 26.6562 113.617 26.6562C114.883 26.6562 115.625 27.3594 115.625 28.5312V29.2344L113.094 29.3906C111.219 29.5156 110.18 30.3594 110.18 31.75C110.18 33.1719 111.273 34.1328 112.875 34.1328ZM118.391 34H119.422V28.9375C119.422 27.625 120.156 26.7266 121.312 26.7266C121.664 26.7266 121.953 26.7812 122.086 26.8438V25.8281C121.961 25.7969 121.719 25.7422 121.445 25.7422C120.445 25.7422 119.688 26.3281 119.391 27.3203H119.367V25.875H118.391V34ZM133.094 28.4453C132.891 26.9922 131.664 25.7422 129.75 25.7422C127.539 25.7422 126.078 27.375 126.078 29.9375C126.078 32.5391 127.539 34.1328 129.758 34.1328C131.555 34.1328 132.875 33.0391 133.102 31.4844H132.078C131.844 32.5391 130.992 33.2188 129.766 33.2188C128.18 33.2188 127.133 31.9766 127.133 29.9375C127.133 27.9297 128.172 26.6562 129.758 26.6562C131.039 26.6562 131.859 27.4453 132.078 28.4453H133.094ZM137.688 34.1328C139.898 34.1328 141.391 32.5156 141.391 29.9375C141.391 27.3516 139.898 25.7422 137.688 25.7422C135.484 25.7422 133.984 27.3516 133.984 29.9375C133.984 32.5156 135.477 34.1328 137.688 34.1328ZM137.688 33.2188C136.094 33.2188 135.039 32 135.039 29.9375C135.039 27.875 136.094 26.6562 137.688 26.6562C139.281 26.6562 140.344 27.875 140.344 29.9375C140.344 32 139.281 33.2188 137.688 33.2188ZM142.766 34H143.797V29.1875C143.797 27.6797 144.742 26.6641 146.148 26.6641C147.508 26.6641 148.289 27.4766 148.289 28.8984V34H149.32V28.7344C149.32 26.8906 148.227 25.7422 146.445 25.7422C145.133 25.7422 144.18 26.3906 143.766 27.375H143.742V25.875H142.766V34ZM151.508 23.8438V25.875H150.297V26.7344H151.508V32C151.508 33.4688 152.055 34.0469 153.414 34.0469C153.633 34.0469 154.07 34.0234 154.18 34V33.1172C154.117 33.1328 153.727 33.1484 153.617 33.1484C152.867 33.1484 152.539 32.7891 152.539 31.9531V26.7344H154.141V25.875H152.539V23.8438H151.508ZM157.992 33.2422C156.891 33.2422 156.133 32.6328 156.133 31.75C156.133 30.8516 156.844 30.2969 158.125 30.2109L160.531 30.0469V30.9453C160.531 32.2344 159.414 33.2422 157.992 33.2422ZM157.781 34.1328C158.992 34.1328 160.102 33.4609 160.555 32.4531H160.578V34H161.562V28.4375C161.562 26.7812 160.398 25.7422 158.547 25.7422C156.695 25.7422 155.5 26.7734 155.383 28.2266H156.383C156.562 27.2422 157.328 26.6562 158.523 26.6562C159.789 26.6562 160.531 27.3594 160.531 28.5312V29.2344L158 29.3906C156.125 29.5156 155.086 30.3594 155.086 31.75C155.086 33.1719 156.18 34.1328 157.781 34.1328ZM163.297 34H164.328V28.9375C164.328 27.625 165.062 26.7266 166.219 26.7266C166.57 26.7266 166.859 26.7812 166.992 26.8438V25.8281C166.867 25.7969 166.625 25.7422 166.352 25.7422C165.352 25.7422 164.594 26.3281 164.297 27.3203H164.273V25.875H163.297V34ZM171.227 28.0469C171.227 29.125 171.93 29.8203 173.398 30.1875L174.719 30.5156C175.805 30.7812 176.211 31.1562 176.211 31.8594C176.211 32.7109 175.406 33.2812 174.188 33.2812C172.969 33.2812 172.172 32.6875 172.023 31.7266H170.992C171.125 33.1562 172.383 34.1328 174.125 34.1328C175.961 34.1328 177.25 33.1562 177.25 31.7812C177.25 30.6172 176.641 30.0234 175.016 29.6172L173.812 29.3281C172.727 29.0625 172.25 28.6562 172.25 27.9922C172.25 27.1797 173.008 26.5938 174.117 26.5938C175.242 26.5938 175.984 27.1875 176.109 28.1484H177.102C177 26.7188 175.812 25.7422 174.148 25.7422C172.43 25.7422 171.227 26.7031 171.227 28.0469ZM185.156 25.875H184.125V30.6953C184.125 32.2188 183.172 33.2109 181.758 33.2109C180.398 33.2109 179.633 32.4141 179.633 30.9766V25.875H178.594V31.1562C178.594 32.9844 179.695 34.1328 181.461 34.1328C182.75 34.1328 183.727 33.4922 184.156 32.4922H184.18V34H185.156V25.875ZM190.289 34H191.328V29.2188C191.328 27.6875 192.273 26.6641 193.734 26.6641C195.109 26.6641 195.898 27.5156 195.898 28.9219V34H196.938V28.75C196.938 26.9297 195.812 25.7422 194.031 25.7422C192.734 25.7422 191.766 26.375 191.352 27.375H191.328V22.7266H190.289V34ZM198.742 34H199.773V25.875H198.742V34ZM199.258 24.2344C199.641 24.2344 199.953 23.9297 199.953 23.5469C199.953 23.1719 199.641 22.8672 199.258 22.8672C198.883 22.8672 198.57 23.1719 198.57 23.5469C198.57 23.9297 198.883 24.2344 199.258 24.2344ZM201.461 28.0469C201.461 29.125 202.164 29.8203 203.633 30.1875L204.953 30.5156C206.039 30.7812 206.445 31.1562 206.445 31.8594C206.445 32.7109 205.641 33.2812 204.422 33.2812C203.203 33.2812 202.406 32.6875 202.258 31.7266H201.227C201.359 33.1562 202.617 34.1328 204.359 34.1328C206.195 34.1328 207.484 33.1562 207.484 31.7812C207.484 30.6172 206.875 30.0234 205.25 29.6172L204.047 29.3281C202.961 29.0625 202.484 28.6562 202.484 27.9922C202.484 27.1797 203.242 26.5938 204.352 26.5938C205.477 26.5938 206.219 27.1875 206.344 28.1484H207.336C207.234 26.7188 206.047 25.7422 204.383 25.7422C202.664 25.7422 201.461 26.7031 201.461 28.0469ZM209.32 23.8438V25.875H208.109V26.7344H209.32V32C209.32 33.4688 209.867 34.0469 211.227 34.0469C211.445 34.0469 211.883 34.0234 211.992 34V33.1172C211.93 33.1328 211.539 33.1484 211.43 33.1484C210.68 33.1484 210.352 32.7891 210.352 31.9531V26.7344H211.953V25.875H210.352V23.8438H209.32ZM216.438 34.1328C218.648 34.1328 220.141 32.5156 220.141 29.9375C220.141 27.3516 218.648 25.7422 216.438 25.7422C214.234 25.7422 212.734 27.3516 212.734 29.9375C212.734 32.5156 214.227 34.1328 216.438 34.1328ZM216.438 33.2188C214.844 33.2188 213.789 32 213.789 29.9375C213.789 27.875 214.844 26.6562 216.438 26.6562C218.031 26.6562 219.094 27.875 219.094 29.9375C219.094 32 218.031 33.2188 216.438 33.2188ZM221.516 34H222.547V28.9375C222.547 27.625 223.281 26.7266 224.438 26.7266C224.789 26.7266 225.078 26.7812 225.211 26.8438V25.8281C225.086 25.7969 224.844 25.7422 224.57 25.7422C223.57 25.7422 222.812 26.3281 222.516 27.3203H222.492V25.875H221.516V34ZM226.398 34H227.43V25.875H226.398V34ZM226.914 24.2344C227.297 24.2344 227.609 23.9297 227.609 23.5469C227.609 23.1719 227.297 22.8672 226.914 22.8672C226.539 22.8672 226.227 23.1719 226.227 23.5469C226.227 23.9297 226.539 24.2344 226.914 24.2344ZM231.898 33.2422C230.797 33.2422 230.039 32.6328 230.039 31.75C230.039 30.8516 230.75 30.2969 232.031 30.2109L234.438 30.0469V30.9453C234.438 32.2344 233.32 33.2422 231.898 33.2422ZM231.688 34.1328C232.898 34.1328 234.008 33.4609 234.461 32.4531H234.484V34H235.469V28.4375C235.469 26.7812 234.305 25.7422 232.453 25.7422C230.602 25.7422 229.406 26.7734 229.289 28.2266H230.289C230.469 27.2422 231.234 26.6562 232.43 26.6562C233.695 26.6562 234.438 27.3594 234.438 28.5312V29.2344L231.906 29.3906C230.031 29.5156 228.992 30.3594 228.992 31.75C228.992 33.1719 230.086 34.1328 231.688 34.1328ZM243.555 34.1328C244.867 34.1328 245.906 33.375 246.367 32.2812H246.391V34H247.375V22.7266H246.336V27.5469H246.312C245.883 26.4922 244.844 25.7422 243.531 25.7422C241.492 25.7422 240.078 27.4062 240.078 29.9375C240.078 32.4609 241.5 34.1328 243.555 34.1328ZM243.734 26.6562C245.281 26.6562 246.344 27.9766 246.344 29.9375C246.344 31.9062 245.281 33.2188 243.734 33.2188C242.172 33.2188 241.141 31.9219 241.141 29.9375C241.141 27.9531 242.172 26.6562 243.734 26.6562ZM252.445 26.6484C253.914 26.6484 254.891 27.7656 254.914 29.3672H249.898C249.984 27.7656 250.992 26.6484 252.445 26.6484ZM254.852 31.6953C254.625 32.5859 253.773 33.2266 252.547 33.2266C250.93 33.2266 249.891 32.0859 249.891 30.25V30.1875H255.977V29.75C255.977 27.3281 254.617 25.7422 252.461 25.7422C250.258 25.7422 248.828 27.4375 248.828 29.9609C248.828 32.5391 250.242 34.1328 252.523 34.1328C254.312 34.1328 255.633 33.1016 255.875 31.6953H254.852ZM6.21875 56H7.25V51.0078C7.25 49.625 8.10938 48.6641 9.30469 48.6641C10.4141 48.6641 11.1641 49.4219 11.1641 50.5859V56H12.2031V50.8828C12.2031 49.5859 13.0312 48.6641 14.2344 48.6641C15.4141 48.6641 16.1172 49.4219 16.1172 50.6797V56H17.1484V50.4453C17.1484 48.8047 16.1094 47.7422 14.5234 47.7422C13.2969 47.7422 12.3438 48.4531 11.9609 49.4531H11.9375C11.6328 48.4297 10.7734 47.7422 9.58594 47.7422C8.40625 47.7422 7.57031 48.4219 7.21875 49.375H7.19531V47.875H6.21875V56ZM21.5078 55.2422C20.4062 55.2422 19.6484 54.6328 19.6484 53.75C19.6484 52.8516 20.3594 52.2969 21.6406 52.2109L24.0469 52.0469V52.9453C24.0469 54.2344 22.9297 55.2422 21.5078 55.2422ZM21.2969 56.1328C22.5078 56.1328 23.6172 55.4609 24.0703 54.4531H24.0938V56H25.0781V50.4375C25.0781 48.7812 23.9141 47.7422 22.0625 47.7422C20.2109 47.7422 19.0156 48.7734 18.8984 50.2266H19.8984C20.0781 49.2422 20.8438 48.6562 22.0391 48.6562C23.3047 48.6562 24.0469 49.3594 24.0469 50.5312V51.2344L21.5156 51.3906C19.6406 51.5156 18.6016 52.3594 18.6016 53.75C18.6016 55.1719 19.6953 56.1328 21.2969 56.1328ZM26.8125 56H27.8438V51.1875C27.8438 49.6797 28.7891 48.6641 30.1953 48.6641C31.5547 48.6641 32.3359 49.4766 32.3359 50.8984V56H33.3672V50.7344C33.3672 48.8906 32.2734 47.7422 30.4922 47.7422C29.1797 47.7422 28.2266 48.3906 27.8125 49.375H27.7891V47.875H26.8125V56ZM38.3203 48.6484C39.7891 48.6484 40.7656 49.7656 40.7891 51.3672H35.7734C35.8594 49.7656 36.8672 48.6484 38.3203 48.6484ZM40.7266 53.6953C40.5 54.5859 39.6484 55.2266 38.4219 55.2266C36.8047 55.2266 35.7656 54.0859 35.7656 52.25V52.1875H41.8516V51.75C41.8516 49.3281 40.4922 47.7422 38.3359 47.7422C36.1328 47.7422 34.7031 49.4375 34.7031 51.9609C34.7031 54.5391 36.1172 56.1328 38.3984 56.1328C40.1875 56.1328 41.5078 55.1016 41.75 53.6953H40.7266ZM43.2344 56H44.2656V50.9375C44.2656 49.625 45 48.7266 46.1562 48.7266C46.5078 48.7266 46.7969 48.7812 46.9297 48.8438V47.8281C46.8047 47.7969 46.5625 47.7422 46.2891 47.7422C45.2891 47.7422 44.5312 48.3281 44.2344 49.3203H44.2109V47.875H43.2344V56ZM50.4141 55.2422C49.3125 55.2422 48.5547 54.6328 48.5547 53.75C48.5547 52.8516 49.2656 52.2969 50.5469 52.2109L52.9531 52.0469V52.9453C52.9531 54.2344 51.8359 55.2422 50.4141 55.2422ZM50.2031 56.1328C51.4141 56.1328 52.5234 55.4609 52.9766 54.4531H53V56H53.9844V50.4375C53.9844 48.7812 52.8203 47.7422 50.9688 47.7422C49.1172 47.7422 47.9219 48.7734 47.8047 50.2266H48.8047C48.9844 49.2422 49.75 48.6562 50.9453 48.6562C52.2109 48.6562 52.9531 49.3594 52.9531 50.5312V51.2344L50.4219 51.3906C48.5469 51.5156 47.5078 52.3594 47.5078 53.75C47.5078 55.1719 48.6016 56.1328 50.2031 56.1328ZM62.2109 48.6484C63.6797 48.6484 64.6562 49.7656 64.6797 51.3672H59.6641C59.75 49.7656 60.7578 48.6484 62.2109 48.6484ZM64.6172 53.6953C64.3906 54.5859 63.5391 55.2266 62.3125 55.2266C60.6953 55.2266 59.6562 54.0859 59.6562 52.25V52.1875H65.7422V51.75C65.7422 49.3281 64.3828 47.7422 62.2266 47.7422C60.0234 47.7422 58.5938 49.4375 58.5938 51.9609C58.5938 54.5391 60.0078 56.1328 62.2891 56.1328C64.0781 56.1328 65.3984 55.1016 65.6406 53.6953H64.6172ZM67.5391 56H68.5781V48.7344H70.3203V47.875H68.5703V46.8672C68.5703 45.9609 68.9844 45.5625 69.7656 45.5625C69.9844 45.5625 70.2031 45.5859 70.3672 45.6172V44.7656C70.1953 44.7344 69.8984 44.7031 69.6172 44.7031C68.2578 44.7031 67.5391 45.375 67.5391 46.8438V47.875H66.4062V48.7344H67.5391V56ZM74.4141 48.6484C75.8828 48.6484 76.8594 49.7656 76.8828 51.3672H71.8672C71.9531 49.7656 72.9609 48.6484 74.4141 48.6484ZM76.8203 53.6953C76.5938 54.5859 75.7422 55.2266 74.5156 55.2266C72.8984 55.2266 71.8594 54.0859 71.8594 52.25V52.1875H77.9453V51.75C77.9453 49.3281 76.5859 47.7422 74.4297 47.7422C72.2266 47.7422 70.7969 49.4375 70.7969 51.9609C70.7969 54.5391 72.2109 56.1328 74.4922 56.1328C76.2812 56.1328 77.6016 55.1016 77.8438 53.6953H76.8203ZM85.9375 50.4453C85.7344 48.9922 84.5078 47.7422 82.5938 47.7422C80.3828 47.7422 78.9219 49.375 78.9219 51.9375C78.9219 54.5391 80.3828 56.1328 82.6016 56.1328C84.3984 56.1328 85.7188 55.0391 85.9453 53.4844H84.9219C84.6875 54.5391 83.8359 55.2188 82.6094 55.2188C81.0234 55.2188 79.9766 53.9766 79.9766 51.9375C79.9766 49.9297 81.0156 48.6562 82.6016 48.6562C83.8828 48.6562 84.7031 49.4453 84.9219 50.4453H85.9375ZM87.6797 45.8438V47.875H86.4688V48.7344H87.6797V54C87.6797 55.4688 88.2266 56.0469 89.5859 56.0469C89.8047 56.0469 90.2422 56.0234 90.3516 56V55.1172C90.2891 55.1328 89.8984 55.1484 89.7891 55.1484C89.0391 55.1484 88.7109 54.7891 88.7109 53.9531V48.7344H90.3125V47.875H88.7109V45.8438H87.6797ZM91.8516 56H92.8828V47.875H91.8516V56ZM92.3672 46.2344C92.75 46.2344 93.0625 45.9297 93.0625 45.5469C93.0625 45.1719 92.75 44.8672 92.3672 44.8672C91.9922 44.8672 91.6797 45.1719 91.6797 45.5469C91.6797 45.9297 91.9922 46.2344 92.3672 46.2344ZM101.109 47.875H100.031L97.5547 54.9141H97.5312L95.0625 47.875H93.9688L96.9922 56H98.0938L101.109 47.875ZM104.555 55.2422C103.453 55.2422 102.695 54.6328 102.695 53.75C102.695 52.8516 103.406 52.2969 104.688 52.2109L107.094 52.0469V52.9453C107.094 54.2344 105.977 55.2422 104.555 55.2422ZM104.344 56.1328C105.555 56.1328 106.664 55.4609 107.117 54.4531H107.141V56H108.125V50.4375C108.125 48.7812 106.961 47.7422 105.109 47.7422C103.258 47.7422 102.062 48.7734 101.945 50.2266H102.945C103.125 49.2422 103.891 48.6562 105.086 48.6562C106.352 48.6562 107.094 49.3594 107.094 50.5312V51.2344L104.562 51.3906C102.688 51.5156 101.648 52.3594 101.648 53.75C101.648 55.1719 102.742 56.1328 104.344 56.1328ZM113.719 58.9375C115.055 58.9375 115.633 58.4062 116.344 56.4922L119.539 47.875H118.453L115.977 54.9688H115.953L113.484 47.875H112.375L115.422 56.0547L115.203 56.6641C114.844 57.6797 114.438 58.0547 113.695 58.0547C113.531 58.0547 113.328 58.0391 113.203 58.0078V58.8906C113.32 58.9141 113.555 58.9375 113.719 58.9375ZM127.141 56.1328C129.352 56.1328 130.844 54.5156 130.844 51.9375C130.844 49.3516 129.352 47.7422 127.141 47.7422C124.938 47.7422 123.438 49.3516 123.438 51.9375C123.438 54.5156 124.93 56.1328 127.141 56.1328ZM127.141 55.2188C125.547 55.2188 124.492 54 124.492 51.9375C124.492 49.875 125.547 48.6562 127.141 48.6562C128.734 48.6562 129.797 49.875 129.797 51.9375C129.797 54 128.734 55.2188 127.141 55.2188ZM136.125 56.1328C138.172 56.1328 139.562 54.4688 139.562 51.9375C139.562 49.4062 138.172 47.7422 136.133 47.7422C134.859 47.7422 133.812 48.4531 133.352 49.5703H133.328V44.7266H132.289V56H133.281V54.2812H133.305C133.789 55.4219 134.828 56.1328 136.125 56.1328ZM135.93 48.6562C137.492 48.6562 138.5 49.9531 138.5 51.9375C138.5 53.9297 137.492 55.2188 135.93 55.2188C134.398 55.2188 133.32 53.8906 133.32 51.9375C133.32 49.9922 134.406 48.6562 135.93 48.6562ZM141.398 45.8438V47.875H140.188V48.7344H141.398V54C141.398 55.4688 141.945 56.0469 143.305 56.0469C143.523 56.0469 143.961 56.0234 144.07 56V55.1172C144.008 55.1328 143.617 55.1484 143.508 55.1484C142.758 55.1484 142.43 54.7891 142.43 53.9531V48.7344H144.031V47.875H142.43V45.8438H141.398ZM148.43 48.6484C149.898 48.6484 150.875 49.7656 150.898 51.3672H145.883C145.969 49.7656 146.977 48.6484 148.43 48.6484ZM150.836 53.6953C150.609 54.5859 149.758 55.2266 148.531 55.2266C146.914 55.2266 145.875 54.0859 145.875 52.25V52.1875H151.961V51.75C151.961 49.3281 150.602 47.7422 148.445 47.7422C146.242 47.7422 144.812 49.4375 144.812 51.9609C144.812 54.5391 146.227 56.1328 148.508 56.1328C150.297 56.1328 151.617 55.1016 151.859 53.6953H150.836ZM153.344 56H154.375V51.1875C154.375 49.6797 155.32 48.6641 156.727 48.6641C158.086 48.6641 158.867 49.4766 158.867 50.8984V56H159.898V50.7344C159.898 48.8906 158.805 47.7422 157.023 47.7422C155.711 47.7422 154.758 48.3906 154.344 49.375H154.32V47.875H153.344V56ZM164.852 48.6484C166.32 48.6484 167.297 49.7656 167.32 51.3672H162.305C162.391 49.7656 163.398 48.6484 164.852 48.6484ZM167.258 53.6953C167.031 54.5859 166.18 55.2266 164.953 55.2266C163.336 55.2266 162.297 54.0859 162.297 52.25V52.1875H168.383V51.75C168.383 49.3281 167.023 47.7422 164.867 47.7422C162.664 47.7422 161.234 49.4375 161.234 51.9609C161.234 54.5391 162.648 56.1328 164.93 56.1328C166.719 56.1328 168.039 55.1016 168.281 53.6953H167.258ZM169.766 56H170.797V50.9375C170.797 49.625 171.531 48.7266 172.688 48.7266C173.039 48.7266 173.328 48.7812 173.461 48.8438V47.8281C173.336 47.7969 173.094 47.7422 172.82 47.7422C171.82 47.7422 171.062 48.3281 170.766 49.3203H170.742V47.875H169.766V56ZM177.93 56H178.961V44.7266H177.93V56ZM184.109 56.1328C186.32 56.1328 187.812 54.5156 187.812 51.9375C187.812 49.3516 186.32 47.7422 184.109 47.7422C181.906 47.7422 180.406 49.3516 180.406 51.9375C180.406 54.5156 181.898 56.1328 184.109 56.1328ZM184.109 55.2188C182.516 55.2188 181.461 54 181.461 51.9375C181.461 49.875 182.516 48.6562 184.109 48.6562C185.703 48.6562 186.766 49.875 186.766 51.9375C186.766 54 185.703 55.2188 184.109 55.2188ZM189.023 50.0469C189.023 51.125 189.727 51.8203 191.195 52.1875L192.516 52.5156C193.602 52.7812 194.008 53.1562 194.008 53.8594C194.008 54.7109 193.203 55.2812 191.984 55.2812C190.766 55.2812 189.969 54.6875 189.82 53.7266H188.789C188.922 55.1562 190.18 56.1328 191.922 56.1328C193.758 56.1328 195.047 55.1562 195.047 53.7812C195.047 52.6172 194.438 52.0234 192.812 51.6172L191.609 51.3281C190.523 51.0625 190.047 50.6562 190.047 49.9922C190.047 49.1797 190.805 48.5938 191.914 48.5938C193.039 48.5938 193.781 49.1875 193.906 50.1484H194.898C194.797 48.7188 193.609 47.7422 191.945 47.7422C190.227 47.7422 189.023 48.7031 189.023 50.0469ZM199.719 56H200.75V51.0078C200.75 49.625 201.609 48.6641 202.805 48.6641C203.914 48.6641 204.664 49.4219 204.664 50.5859V56H205.703V50.8828C205.703 49.5859 206.531 48.6641 207.734 48.6641C208.914 48.6641 209.617 49.4219 209.617 50.6797V56H210.648V50.4453C210.648 48.8047 209.609 47.7422 208.023 47.7422C206.797 47.7422 205.844 48.4531 205.461 49.4531H205.438C205.133 48.4297 204.273 47.7422 203.086 47.7422C201.906 47.7422 201.07 48.4219 200.719 49.375H200.695V47.875H199.719V56ZM215.602 48.6484C217.07 48.6484 218.047 49.7656 218.07 51.3672H213.055C213.141 49.7656 214.148 48.6484 215.602 48.6484ZM218.008 53.6953C217.781 54.5859 216.93 55.2266 215.703 55.2266C214.086 55.2266 213.047 54.0859 213.047 52.25V52.1875H219.133V51.75C219.133 49.3281 217.773 47.7422 215.617 47.7422C213.414 47.7422 211.984 49.4375 211.984 51.9609C211.984 54.5391 213.398 56.1328 215.68 56.1328C217.469 56.1328 218.789 55.1016 219.031 53.6953H218.008ZM221.617 47.875H220.586V56.5312C220.586 57.5156 220.203 57.8906 219.242 57.8906C219.234 57.8906 219.039 57.8906 219.031 57.8906V58.7656C219.039 58.7734 219.258 58.7734 219.281 58.7734C220.867 58.7734 221.617 58.0938 221.617 56.5156V47.875ZM221.102 46.2344C221.484 46.2344 221.797 45.9297 221.797 45.5469C221.797 45.1719 221.484 44.8672 221.102 44.8672C220.727 44.8672 220.414 45.1719 220.414 45.5469C220.414 45.9297 220.727 46.2344 221.102 46.2344ZM226.766 56.1328C228.977 56.1328 230.469 54.5156 230.469 51.9375C230.469 49.3516 228.977 47.7422 226.766 47.7422C224.562 47.7422 223.062 49.3516 223.062 51.9375C223.062 54.5156 224.555 56.1328 226.766 56.1328ZM226.766 55.2188C225.172 55.2188 224.117 54 224.117 51.9375C224.117 49.875 225.172 48.6562 226.766 48.6562C228.359 48.6562 229.422 49.875 229.422 51.9375C229.422 54 228.359 55.2188 226.766 55.2188ZM231.844 56H232.875V50.9375C232.875 49.625 233.609 48.7266 234.766 48.7266C235.117 48.7266 235.406 48.7812 235.539 48.8438V47.8281C235.414 47.7969 235.172 47.7422 234.898 47.7422C233.898 47.7422 233.141 48.3281 232.844 49.3203H232.82V47.875H231.844V56ZM239.398 48.6484C240.867 48.6484 241.844 49.7656 241.867 51.3672H236.852C236.938 49.7656 237.945 48.6484 239.398 48.6484ZM241.805 53.6953C241.578 54.5859 240.727 55.2266 239.5 55.2266C237.883 55.2266 236.844 54.0859 236.844 52.25V52.1875H242.93V51.75C242.93 49.3281 241.57 47.7422 239.414 47.7422C237.211 47.7422 235.781 49.4375 235.781 51.9609C235.781 54.5391 237.195 56.1328 239.477 56.1328C241.266 56.1328 242.586 55.1016 242.828 53.6953H241.805ZM244.148 50.0469C244.148 51.125 244.852 51.8203 246.32 52.1875L247.641 52.5156C248.727 52.7812 249.133 53.1562 249.133 53.8594C249.133 54.7109 248.328 55.2812 247.109 55.2812C245.891 55.2812 245.094 54.6875 244.945 53.7266H243.914C244.047 55.1562 245.305 56.1328 247.047 56.1328C248.883 56.1328 250.172 55.1562 250.172 53.7812C250.172 52.6172 249.562 52.0234 247.938 51.6172L246.734 51.3281C245.648 51.0625 245.172 50.6562 245.172 49.9922C245.172 49.1797 245.93 48.5938 247.039 48.5938C248.164 48.5938 248.906 49.1875 249.031 50.1484H250.023C249.922 48.7188 248.734 47.7422 247.07 47.7422C245.352 47.7422 244.148 48.7031 244.148 50.0469ZM93.1953 78H94.2266V72.9375C94.2266 71.625 94.9609 70.7266 96.1172 70.7266C96.4688 70.7266 96.7578 70.7812 96.8906 70.8438V69.8281C96.7656 69.7969 96.5234 69.7422 96.25 69.7422C95.25 69.7422 94.4922 70.3281 94.1953 71.3203H94.1719V69.875H93.1953V78ZM100.75 70.6484C102.219 70.6484 103.195 71.7656 103.219 73.3672H98.2031C98.2891 71.7656 99.2969 70.6484 100.75 70.6484ZM103.156 75.6953C102.93 76.5859 102.078 77.2266 100.852 77.2266C99.2344 77.2266 98.1953 76.0859 98.1953 74.25V74.1875H104.281V73.75C104.281 71.3281 102.922 69.7422 100.766 69.7422C98.5625 69.7422 97.1328 71.4375 97.1328 73.9609C97.1328 76.5391 98.5469 78.1328 100.828 78.1328C102.617 78.1328 103.938 77.1016 104.18 75.6953H103.156ZM105.5 72.0469C105.5 73.125 106.203 73.8203 107.672 74.1875L108.992 74.5156C110.078 74.7812 110.484 75.1562 110.484 75.8594C110.484 76.7109 109.68 77.2812 108.461 77.2812C107.242 77.2812 106.445 76.6875 106.297 75.7266H105.266C105.398 77.1562 106.656 78.1328 108.398 78.1328C110.234 78.1328 111.523 77.1562 111.523 75.7812C111.523 74.6172 110.914 74.0234 109.289 73.6172L108.086 73.3281C107 73.0625 106.523 72.6562 106.523 71.9922C106.523 71.1797 107.281 70.5938 108.391 70.5938C109.516 70.5938 110.258 71.1875 110.383 72.1484H111.375C111.273 70.7188 110.086 69.7422 108.422 69.7422C106.703 69.7422 105.5 70.7031 105.5 72.0469ZM119.43 69.875H118.398V74.6953C118.398 76.2188 117.445 77.2109 116.031 77.2109C114.672 77.2109 113.906 76.4141 113.906 74.9766V69.875H112.867V75.1562C112.867 76.9844 113.969 78.1328 115.734 78.1328C117.023 78.1328 118 77.4922 118.43 76.4922H118.453V78H119.43V69.875ZM121.281 78H122.312V66.7266H121.281V78ZM124.609 67.8438V69.875H123.398V70.7344H124.609V76C124.609 77.4688 125.156 78.0469 126.516 78.0469C126.734 78.0469 127.172 78.0234 127.281 78V77.1172C127.219 77.1328 126.828 77.1484 126.719 77.1484C125.969 77.1484 125.641 76.7891 125.641 75.9531V70.7344H127.242V69.875H125.641V67.8438H124.609ZM131.094 77.2422C129.992 77.2422 129.234 76.6328 129.234 75.75C129.234 74.8516 129.945 74.2969 131.227 74.2109L133.633 74.0469V74.9453C133.633 76.2344 132.516 77.2422 131.094 77.2422ZM130.883 78.1328C132.094 78.1328 133.203 77.4609 133.656 76.4531H133.68V78H134.664V72.4375C134.664 70.7812 133.5 69.7422 131.648 69.7422C129.797 69.7422 128.602 70.7734 128.484 72.2266H129.484C129.664 71.2422 130.43 70.6562 131.625 70.6562C132.891 70.6562 133.633 71.3594 133.633 72.5312V73.2344L131.102 73.3906C129.227 73.5156 128.188 74.3594 128.188 75.75C128.188 77.1719 129.281 78.1328 130.883 78.1328ZM139.469 78.1328C140.781 78.1328 141.82 77.375 142.281 76.2812H142.305V78H143.289V66.7266H142.25V71.5469H142.227C141.797 70.4922 140.758 69.7422 139.445 69.7422C137.406 69.7422 135.992 71.4062 135.992 73.9375C135.992 76.4609 137.414 78.1328 139.469 78.1328ZM139.648 70.6562C141.195 70.6562 142.258 71.9766 142.258 73.9375C142.258 75.9062 141.195 77.2188 139.648 77.2188C138.086 77.2188 137.055 75.9219 137.055 73.9375C137.055 71.9531 138.086 70.6562 139.648 70.6562ZM148.445 78.1328C150.656 78.1328 152.148 76.5156 152.148 73.9375C152.148 71.3516 150.656 69.7422 148.445 69.7422C146.242 69.7422 144.742 71.3516 144.742 73.9375C144.742 76.5156 146.234 78.1328 148.445 78.1328ZM148.445 77.2188C146.852 77.2188 145.797 76 145.797 73.9375C145.797 71.875 146.852 70.6562 148.445 70.6562C150.039 70.6562 151.102 71.875 151.102 73.9375C151.102 76 150.039 77.2188 148.445 77.2188ZM153.359 72.0469C153.359 73.125 154.062 73.8203 155.531 74.1875L156.852 74.5156C157.938 74.7812 158.344 75.1562 158.344 75.8594C158.344 76.7109 157.539 77.2812 156.32 77.2812C155.102 77.2812 154.305 76.6875 154.156 75.7266H153.125C153.258 77.1562 154.516 78.1328 156.258 78.1328C158.094 78.1328 159.383 77.1562 159.383 75.7812C159.383 74.6172 158.773 74.0234 157.148 73.6172L155.945 73.3281C154.859 73.0625 154.383 72.6562 154.383 71.9922C154.383 71.1797 155.141 70.5938 156.25 70.5938C157.375 70.5938 158.117 71.1875 158.242 72.1484H159.234C159.133 70.7188 157.945 69.7422 156.281 69.7422C154.562 69.7422 153.359 70.7031 153.359 72.0469ZM161.703 78.0703C162.109 78.0703 162.43 77.75 162.43 77.3438C162.43 76.9297 162.109 76.6094 161.703 76.6094C161.297 76.6094 160.969 76.9297 160.969 77.3438C160.969 77.75 161.297 78.0703 161.703 78.0703Z" fill="white"/>
</svg>
