<svg width="708" height="268" viewBox="0 0 708 268" fill="none" xmlns="http://www.w3.org/2000/svg">
<path d="M116.991 8.84V9.2C121.391 9.2 120.791 11.08 118.511 18.72L113.231 34.4L105.791 11.44C105.671 10.88 105.311 9.2 108.831 9.2V8.84H100.071V9.2C101.711 9.2 103.071 9.68 104.031 12.2L105.911 18.16L100.871 34.28L92.8708 11.44C92.6708 10.88 92.3908 9.2 95.9108 9.2V8.84H87.1108V9.2C88.7908 9.2 90.1108 9.68 91.0708 12.2L99.9508 37H100.431L106.111 18.68L112.271 37H112.711L118.911 18.76C121.791 10.16 121.511 9.2 125.511 9.2V8.84H116.991ZM132.728 36.56C129.128 36.56 126.328 34.24 126.328 27.4H139.168C139.168 21.04 135.528 18.16 132.008 18.16C127.648 18.16 123.968 21.8 123.968 28C123.968 33.88 127.488 37.36 132.208 37.36C136.288 37.36 138.368 34.08 138.568 32.4L138.328 32.36C137.848 34.44 135.408 36.56 132.728 36.56ZM126.328 27C126.328 20.8 129.768 18.52 132.008 18.52C133.608 18.52 137.168 20.4 137.168 27H126.328ZM161.904 33.28C161.464 34.24 160.384 36.2 157.544 36.2C155.264 36.2 153.824 34.88 153.824 32.56C153.824 29.76 156.584 28.12 161.904 26.8V33.28ZM165.744 36.04C164.064 36.04 164.064 33.8 164.064 33.8V26.16C164.064 21.4 163.144 18.16 159.664 18.16C159.664 18.16 157.784 18.12 156.144 18.92C154.024 20.08 153.224 21.4 153.024 21.88C152.824 22.36 152.944 22.96 153.304 23.4C153.824 24.04 154.704 24.08 155.304 23.56C155.904 23 155.984 22.08 155.464 21.48C155.184 21.16 154.864 21.04 154.504 20.96C154.304 20.92 154.624 20.04 156.464 19.16C160.104 17.64 161.904 20.2 161.904 24.28V26.44C155.224 28.2 151.824 29.56 151.824 33.2C151.824 37.4 156.344 37.36 156.344 37.36C159.104 37.36 161.384 35.96 161.904 33.88C161.904 37.56 164.664 37.36 164.664 37.36C166.344 37.36 167.184 35.92 167.384 34.76L167.064 34.64C166.784 36.04 165.744 36.04 165.744 36.04ZM178.596 18.2C176.316 17.92 173.396 19.92 172.556 22V18.16L168.556 18.84V19.16C170.236 19.16 170.556 19.72 170.556 21.12V34.44C170.556 36.48 170.476 36.2 168.956 36.64V37H174.196V36.64C172.756 36.28 172.556 36.64 172.556 34.44V22.8C173.596 19.84 177.396 18.36 177.036 19.24C176.916 19.6 176.916 20 177.036 20.36C177.396 21.16 178.316 21.52 179.076 21.2C179.876 20.84 180.236 20 179.916 19.2C179.636 18.64 179.156 18.28 178.596 18.2ZM191.049 36.56C187.449 36.56 184.649 34.24 184.649 27.4H197.489C197.489 21.04 193.849 18.16 190.329 18.16C185.969 18.16 182.289 21.8 182.289 28C182.289 33.88 185.809 37.36 190.529 37.36C194.609 37.36 196.689 34.08 196.889 32.4L196.649 32.36C196.169 34.44 193.729 36.56 191.049 36.56ZM184.649 27C184.649 20.8 188.089 18.52 190.329 18.52C191.929 18.52 195.489 20.4 195.489 27H184.649ZM229.871 37H232.684L222.156 8.81641H219.5L208.953 37H211.785L214.91 28.3672H226.746L229.871 37ZM220.77 12.1172H220.887L225.945 26.0625H215.711L220.77 12.1172ZM254.07 37V11.2383H263.387V8.81641H242.098V11.2383H251.395V37H254.07ZM283.777 34.5781H269.422V23.7578H283.055V21.375H269.422V11.2383H283.777V8.81641H266.766V37H283.777V34.5781ZM307.059 37H309.871L299.344 8.81641H296.688L286.141 37H288.973L292.098 28.3672H303.934L307.059 37ZM297.957 12.1172H298.074L303.133 26.0625H292.898L297.957 12.1172ZM340.125 37V8.81641H337.039L326.609 33.4844H326.492L316.043 8.81641H312.977V37H315.477V13.875H315.594L325.379 36.8633H327.703L337.508 13.875H337.625V37H340.125ZM362.736 18.16C356.656 18.16 353.816 22.48 353.816 27.76C353.816 33 356.656 37.36 362.736 37.36C368.856 37.36 371.656 33 371.656 27.76C371.656 22.48 368.856 18.16 362.736 18.16ZM362.736 37C359.496 37 356.096 35 356.096 27.76C356.096 20.52 359.496 18.52 362.736 18.52C365.976 18.52 369.336 20.52 369.336 27.76C369.336 35 365.976 37 362.736 37ZM385.143 8.32C384.823 7.92 383.543 7.28 382.063 7.28C377.743 7.28 376.623 10.32 376.623 18.52H374.023L374.063 18.88H376.623V34.68C376.623 36.52 376.583 36.48 375.063 36.68V37H380.863V36.68C379.423 36.52 378.623 36.68 378.623 34.68V18.88H383.223L383.303 18.52H378.623C378.623 9.16 379.783 7.6 382.063 7.6C382.903 7.6 383.543 8.16 383.343 8.28C383.063 8.4 382.783 8.72 382.663 9.12C382.383 9.96 382.863 10.76 383.663 11C384.463 11.24 385.303 10.8 385.543 10C385.703 9.44 385.503 8.72 385.143 8.32ZM407.566 37.4492C413.68 37.4492 417.996 34.1484 418.992 28.6602H416.316C415.477 32.5664 412.078 34.9688 407.586 34.9688C401.59 34.9688 397.742 30.2617 397.742 22.8398C397.742 15.5156 401.59 10.8477 407.566 10.8477C411.941 10.8477 415.535 13.6992 416.316 17.7617H418.992C418.23 12.2539 413.523 8.36719 407.566 8.36719C399.91 8.36719 395.008 14.0117 395.008 22.8398C395.008 31.7656 399.891 37.4492 407.566 37.4492ZM425.594 11.1992H432.566C436.668 11.1992 439.148 13.4062 439.148 17.1367C439.148 20.9062 436.766 23.0938 432.664 23.0938H425.594V11.1992ZM425.594 25.457H432.664C432.801 25.457 432.996 25.457 433.094 25.457L439.578 37H442.703L435.867 25.0273C439.637 24.0508 441.902 21.043 441.902 17.0586C441.902 12.0391 438.387 8.81641 432.879 8.81641H422.938V37H425.594V25.457ZM463.27 34.5781H448.914V23.7578H462.547V21.375H448.914V11.2383H463.27V8.81641H446.258V37H463.27V34.5781ZM486.551 37H489.363L478.836 8.81641H476.18L465.633 37H468.465L471.59 28.3672H483.426L486.551 37ZM477.449 12.1172H477.566L482.625 26.0625H472.391L477.449 12.1172ZM498.562 37V11.2383H507.879V8.81641H486.59V11.2383H495.887V37H498.562ZM513.914 37V8.81641H511.258V37H513.914ZM530.203 37L540.75 8.81641H537.938L528.934 33.6797H528.816L519.832 8.81641H517L527.547 37H530.203ZM560.848 34.5781H546.492V23.7578H560.125V21.375H546.492V11.2383H560.848V8.81641H543.836V37H560.848V34.5781ZM582.685 33.28C582.245 34.24 581.165 36.2 578.325 36.2C576.045 36.2 574.605 34.88 574.605 32.56C574.605 29.76 577.365 28.12 582.685 26.8V33.28ZM586.525 36.04C584.845 36.04 584.845 33.8 584.845 33.8V26.16C584.845 21.4 583.925 18.16 580.445 18.16C580.445 18.16 578.565 18.12 576.925 18.92C574.805 20.08 574.005 21.4 573.805 21.88C573.605 22.36 573.725 22.96 574.085 23.4C574.605 24.04 575.485 24.08 576.085 23.56C576.685 23 576.765 22.08 576.245 21.48C575.965 21.16 575.645 21.04 575.285 20.96C575.085 20.92 575.405 20.04 577.245 19.16C580.885 17.64 582.685 20.2 582.685 24.28V26.44C576.005 28.2 572.605 29.56 572.605 33.2C572.605 37.4 577.125 37.36 577.125 37.36C579.885 37.36 582.165 35.96 582.685 33.88C582.685 37.56 585.445 37.36 585.445 37.36C587.125 37.36 587.965 35.92 588.165 34.76L587.845 34.64C587.565 36.04 586.525 36.04 586.525 36.04ZM604.897 34.44V24.84C604.897 20.04 602.257 18.16 598.897 18.16C596.377 18.16 593.977 20.04 593.217 22.24V18.16L589.217 18.84V19.16C590.897 19.16 591.217 19.76 591.217 21.16V34.44C591.217 36.48 591.137 36.2 589.617 36.64V37H594.857V36.64C593.417 36.28 593.217 36.64 593.217 34.44V22.84C593.857 21.56 595.417 19.24 597.977 19.24C601.257 19.24 602.937 21.48 602.937 25V34.44C602.937 36.48 602.857 36.24 601.337 36.68V37H606.537V36.68C605.137 36.32 604.897 36.64 604.897 34.44ZM623.048 31.8C623.048 34.6 620.728 36.44 618.168 36.44C614.448 36.44 611.728 33.04 611.728 26.8C611.728 20.04 615.768 18.52 618.168 18.52C620.728 18.52 623.048 20.72 623.048 23.44V31.8ZM625.008 34.6V7.8L621.008 8.48V8.84C622.648 8.84 623.048 9.52 623.048 10.92V19.88C621.728 18.84 620.088 18.16 618.008 18.16C612.928 18.16 609.088 21.56 609.088 27.56C609.088 32.4 611.208 37.36 617.408 37.36C619.488 37.36 621.848 36.4 623.048 34.68V36.6C623.048 36.6 623.048 37.52 624.168 37.32L627.048 36.72V36.4C625.448 36.56 625.008 36.56 625.008 34.6ZM53.6913 64.16L49.7313 64.84V65.16C51.4113 65.16 51.6913 65.72 51.6913 67.12V80.44C51.6913 82.48 51.6113 82.2 50.0913 82.64V83H55.3313V82.64C53.8913 82.28 53.6913 82.64 53.6913 80.44V64.16ZM53.6513 59.36C53.6513 58.56 53.0113 57.96 52.2913 57.96C51.5313 57.96 50.9713 58.56 50.9713 59.36C50.9713 60.08 51.5313 60.68 52.2913 60.68C53.0113 60.68 53.6513 60.08 53.6513 59.36ZM72.9716 80.44V70.84C72.9716 66.04 70.3316 64.16 66.9716 64.16C64.4516 64.16 62.0516 66.04 61.2916 68.24V64.16L57.2916 64.84V65.16C58.9716 65.16 59.2916 65.76 59.2916 67.16V80.44C59.2916 82.48 59.2116 82.2 57.6916 82.64V83H62.9316V82.64C61.4916 82.28 61.2916 82.64 61.2916 80.44V68.84C61.9316 67.56 63.4916 65.24 66.0516 65.24C69.3316 65.24 71.0116 67.48 71.0116 71V80.44C71.0116 82.48 70.9316 82.24 69.4116 82.68V83H74.6116V82.68C73.2116 82.32 72.9716 82.64 72.9716 80.44ZM91.1225 77.8C91.1225 80.6 88.8025 82.44 86.2425 82.44C82.5225 82.44 79.8025 79.04 79.8025 72.8C79.8025 66.04 83.8425 64.52 86.2425 64.52C88.8025 64.52 91.1225 66.72 91.1225 69.44V77.8ZM93.0825 80.6V53.8L89.0825 54.48V54.84C90.7225 54.84 91.1225 55.52 91.1225 56.92V65.88C89.8025 64.84 88.1625 64.16 86.0825 64.16C81.0025 64.16 77.1625 67.56 77.1625 73.56C77.1625 78.4 79.2825 83.36 85.4825 83.36C87.5625 83.36 89.9225 82.4 91.1225 80.68V82.6C91.1225 82.6 91.1225 83.52 92.2425 83.32L95.1225 82.72V82.4C93.5225 82.56 93.0825 82.56 93.0825 80.6ZM105.763 82.56C102.163 82.56 99.3634 80.24 99.3634 73.4H112.203C112.203 67.04 108.563 64.16 105.043 64.16C100.683 64.16 97.0034 67.8 97.0034 74C97.0034 79.88 100.523 83.36 105.243 83.36C109.323 83.36 111.403 80.08 111.603 78.4L111.363 78.36C110.883 80.44 108.443 82.56 105.763 82.56ZM99.3634 73C99.3634 66.8 102.803 64.52 105.043 64.52C106.643 64.52 110.203 66.4 110.203 73H99.3634ZM123.525 83C120.525 83 118.605 80.88 118.485 77.8V70.08C118.645 67 120.565 65.08 123.525 65.08C127.205 65.08 129.925 68.44 129.925 74.68C129.925 81.44 125.925 83 123.525 83ZM124.285 64.16C122.085 64.16 119.645 65.24 118.485 67.12V64.16L114.485 64.84V65.16C116.165 65.16 116.485 65.76 116.485 67.16V91.04C116.485 93.08 116.405 92.8 114.885 93.24V93.6H120.125V93.24C118.685 92.88 118.485 93.24 118.485 91.04V81.56C119.805 82.64 121.485 83.36 123.685 83.36C128.765 83.36 132.565 79.92 132.565 73.92C132.565 69.12 130.445 64.16 124.285 64.16ZM144.748 82.56C141.148 82.56 138.348 80.24 138.348 73.4H151.188C151.188 67.04 147.548 64.16 144.028 64.16C139.668 64.16 135.988 67.8 135.988 74C135.988 79.88 139.508 83.36 144.228 83.36C148.308 83.36 150.388 80.08 150.588 78.4L150.348 78.36C149.868 80.44 147.428 82.56 144.748 82.56ZM138.348 73C138.348 66.8 141.788 64.52 144.028 64.52C145.628 64.52 149.188 66.4 149.188 73H138.348ZM168.909 80.44V70.84C168.909 66.04 166.269 64.16 162.909 64.16C160.389 64.16 157.989 66.04 157.229 68.24V64.16L153.229 64.84V65.16C154.909 65.16 155.229 65.76 155.229 67.16V80.44C155.229 82.48 155.149 82.2 153.629 82.64V83H158.869V82.64C157.429 82.28 157.229 82.64 157.229 80.44V68.84C157.869 67.56 159.429 65.24 161.989 65.24C165.269 65.24 166.949 67.48 166.949 71V80.44C166.949 82.48 166.869 82.24 165.349 82.68V83H170.549V82.68C169.149 82.32 168.909 82.64 168.909 80.44ZM187.06 77.8C187.06 80.6 184.74 82.44 182.18 82.44C178.46 82.44 175.74 79.04 175.74 72.8C175.74 66.04 179.78 64.52 182.18 64.52C184.74 64.52 187.06 66.72 187.06 69.44V77.8ZM189.02 80.6V53.8L185.02 54.48V54.84C186.66 54.84 187.06 55.52 187.06 56.92V65.88C185.74 64.84 184.1 64.16 182.02 64.16C176.94 64.16 173.1 67.56 173.1 73.56C173.1 78.4 175.22 83.36 181.42 83.36C183.5 83.36 185.86 82.4 187.06 80.68V82.6C187.06 82.6 187.06 83.52 188.18 83.32L191.06 82.72V82.4C189.46 82.56 189.02 82.56 189.02 80.6ZM201.701 82.56C198.101 82.56 195.301 80.24 195.301 73.4H208.141C208.141 67.04 204.501 64.16 200.981 64.16C196.621 64.16 192.941 67.8 192.941 74C192.941 79.88 196.461 83.36 201.181 83.36C205.261 83.36 207.341 80.08 207.541 78.4L207.301 78.36C206.821 80.44 204.381 82.56 201.701 82.56ZM195.301 73C195.301 66.8 198.741 64.52 200.981 64.52C202.581 64.52 206.141 66.4 206.141 73H195.301ZM225.862 80.44V70.84C225.862 66.04 223.222 64.16 219.862 64.16C217.342 64.16 214.942 66.04 214.182 68.24V64.16L210.182 64.84V65.16C211.862 65.16 212.182 65.76 212.182 67.16V80.44C212.182 82.48 212.102 82.2 210.582 82.64V83H215.822V82.64C214.382 82.28 214.182 82.64 214.182 80.44V68.84C214.822 67.56 216.382 65.24 218.942 65.24C222.222 65.24 223.902 67.48 223.902 71V80.44C223.902 82.48 223.822 82.24 222.302 82.68V83H227.502V82.68C226.102 82.32 225.862 82.64 225.862 80.44ZM236.373 82.28C234.573 82.28 233.253 81.24 233.253 77.12V64.88H237.893L237.973 64.52H233.253V58.24L231.253 58.48V64.52H229.173L229.213 64.88H231.253V77.24C231.253 82.08 232.933 83.36 235.573 83.36C237.533 83.36 238.733 82 239.053 80.36L238.813 80.28C238.533 81.36 237.533 82.28 236.373 82.28ZM250.348 75.3438C250.641 80.1875 254.781 83.4492 260.68 83.4492C266.91 83.4492 270.895 80.207 270.895 75.2656C270.895 71.3398 268.512 69.1719 262.848 67.7461L259.801 66.9648C255.66 65.9102 253.902 64.4844 253.902 62.0625C253.902 58.957 256.793 56.7891 260.699 56.7891C264.703 56.7891 267.516 58.8984 267.77 62.082H270.445C270.289 57.6094 266.266 54.3672 260.777 54.3672C255.23 54.3672 251.129 57.6094 251.129 62.1602C251.129 65.8711 253.453 68.0781 258.668 69.4062L262.164 70.3047C266.344 71.3594 268.16 72.9219 268.16 75.5586C268.16 78.7227 265.133 81.0273 260.914 81.0273C256.5 81.0273 253.316 78.7227 253.023 75.3438H250.348ZM284.684 83V57.2383H294V54.8164H272.711V57.2383H282.008V83H284.684ZM300.035 57.1992H307.008C311.109 57.1992 313.59 59.4062 313.59 63.1367C313.59 66.9062 311.207 69.0938 307.105 69.0938H300.035V57.1992ZM300.035 71.457H307.105C307.242 71.457 307.438 71.457 307.535 71.457L314.02 83H317.145L310.309 71.0273C314.078 70.0508 316.344 67.043 316.344 63.0586C316.344 58.0391 312.828 54.8164 307.32 54.8164H297.379V83H300.035V71.457ZM339.43 83H342.242L331.715 54.8164H329.059L318.512 83H321.344L324.469 74.3672H336.305L339.43 83ZM330.328 58.1172H330.445L335.504 72.0625H325.27L330.328 58.1172ZM351.441 83V57.2383H360.758V54.8164H339.469V57.2383H348.766V83H351.441ZM381.148 80.5781H366.793V69.7578H380.426V67.375H366.793V57.2383H381.148V54.8164H364.137V83H381.148V80.5781ZM408.922 71.5547V68.8398H397.516V71.1836H406.266V72.1797C406.266 77.4922 402.672 80.9688 397.223 80.9688C391.188 80.9688 387.301 76.1836 387.301 68.7422C387.301 61.3984 391.109 56.8477 397.223 56.8477C401.52 56.8477 404.82 59.2695 405.973 63.293H408.746C407.691 57.9023 403.141 54.3672 397.223 54.3672C389.527 54.3672 384.566 60.0117 384.566 68.7422C384.566 77.6289 389.586 83.4492 397.223 83.4492C404.547 83.4492 408.922 78.9961 408.922 71.5547ZM415.895 83V54.8164H413.238V83H415.895ZM419.801 75.3438C420.094 80.1875 424.234 83.4492 430.133 83.4492C436.363 83.4492 440.348 80.207 440.348 75.2656C440.348 71.3398 437.965 69.1719 432.301 67.7461L429.254 66.9648C425.113 65.9102 423.355 64.4844 423.355 62.0625C423.355 58.957 426.246 56.7891 430.152 56.7891C434.156 56.7891 436.969 58.8984 437.223 62.082H439.898C439.742 57.6094 435.719 54.3672 430.23 54.3672C424.684 54.3672 420.582 57.6094 420.582 62.1602C420.582 65.8711 422.906 68.0781 428.121 69.4062L431.617 70.3047C435.797 71.3594 437.613 72.9219 437.613 75.5586C437.613 78.7227 434.586 81.0273 430.367 81.0273C425.953 81.0273 422.77 78.7227 422.477 75.3438H419.801ZM454.137 83V57.2383H463.453V54.8164H442.164V57.2383H451.461V83H454.137ZM465.27 75.3438C465.562 80.1875 469.703 83.4492 475.602 83.4492C481.832 83.4492 485.816 80.207 485.816 75.2656C485.816 71.3398 483.434 69.1719 477.77 67.7461L474.723 66.9648C470.582 65.9102 468.824 64.4844 468.824 62.0625C468.824 58.957 471.715 56.7891 475.621 56.7891C479.625 56.7891 482.438 58.8984 482.691 62.082H485.367C485.211 57.6094 481.188 54.3672 475.699 54.3672C470.152 54.3672 466.051 57.6094 466.051 62.1602C466.051 65.8711 468.375 68.0781 473.59 69.4062L477.086 70.3047C481.266 71.3594 483.082 72.9219 483.082 75.5586C483.082 78.7227 480.055 81.0273 475.836 81.0273C471.422 81.0273 468.238 78.7227 467.945 75.3438H465.27ZM492.006 81.88C492.006 81.08 491.366 80.48 490.646 80.48C489.886 80.48 489.326 81.08 489.326 81.88C489.326 82.6 489.886 83.2 490.646 83.2C491.366 83.2 492.006 82.6 492.006 81.88ZM529.284 54.84V55.2C533.684 55.2 533.084 57.08 530.804 64.72L525.524 80.4L518.084 57.44C517.964 56.88 517.604 55.2 521.124 55.2V54.84H512.364V55.2C514.004 55.2 515.364 55.68 516.324 58.2L518.204 64.16L513.164 80.28L505.164 57.44C504.964 56.88 504.684 55.2 508.204 55.2V54.84H499.404V55.2C501.084 55.2 502.404 55.68 503.364 58.2L512.244 83H512.724L518.404 64.68L524.564 83H525.004L531.204 64.76C534.084 56.16 533.804 55.2 537.804 55.2V54.84H529.284ZM545.021 82.56C541.421 82.56 538.621 80.24 538.621 73.4H551.461C551.461 67.04 547.821 64.16 544.301 64.16C539.941 64.16 536.261 67.8 536.261 74C536.261 79.88 539.781 83.36 544.501 83.36C548.581 83.36 550.661 80.08 550.861 78.4L550.621 78.36C550.141 80.44 547.701 82.56 545.021 82.56ZM538.621 73C538.621 66.8 542.061 64.52 544.301 64.52C545.901 64.52 549.461 66.4 549.461 73H538.621ZM579.437 77.92C578.917 79.84 577.117 82.48 573.277 82.48C570.357 82.48 566.677 80.08 566.677 73.72C566.677 65.68 571.597 64.52 573.357 64.52C577.077 64.52 578.437 66.16 578.037 66.04C577.837 65.96 577.437 65.96 577.037 66.12C576.357 66.44 576.117 67.24 576.477 67.96C576.757 68.6 577.677 68.76 578.317 68.48C578.797 68.2 579.037 67.76 579.037 67.24C579.037 66.56 578.357 64.16 573.357 64.16C567.957 64.16 564.277 68.68 564.277 73.88C564.277 80.96 569.197 83.36 572.877 83.36C577.717 83.36 579.397 79.92 579.717 77.96L579.437 77.92ZM591.67 64.2C589.39 63.92 586.47 65.92 585.63 68V64.16L581.63 64.84V65.16C583.31 65.16 583.63 65.72 583.63 67.12V80.44C583.63 82.48 583.55 82.2 582.03 82.64V83H587.27V82.64C585.83 82.28 585.63 82.64 585.63 80.44V68.8C586.67 65.84 590.47 64.36 590.11 65.24C589.99 65.6 589.99 66 590.11 66.36C590.47 67.16 591.39 67.52 592.15 67.2C592.95 66.84 593.31 66 592.99 65.2C592.71 64.64 592.23 64.28 591.67 64.2ZM604.123 82.56C600.523 82.56 597.723 80.24 597.723 73.4H610.563C610.563 67.04 606.923 64.16 603.403 64.16C599.043 64.16 595.363 67.8 595.363 74C595.363 79.88 598.883 83.36 603.603 83.36C607.683 83.36 609.763 80.08 609.963 78.4L609.723 78.36C609.243 80.44 606.803 82.56 604.123 82.56ZM597.723 73C597.723 66.8 601.163 64.52 603.403 64.52C605.003 64.52 608.563 66.4 608.563 73H597.723ZM623.884 79.28C623.444 80.24 622.364 82.2 619.524 82.2C617.244 82.2 615.804 80.88 615.804 78.56C615.804 75.76 618.564 74.12 623.884 72.8V79.28ZM627.724 82.04C626.044 82.04 626.044 79.8 626.044 79.8V72.16C626.044 67.4 625.124 64.16 621.644 64.16C621.644 64.16 619.764 64.12 618.124 64.92C616.004 66.08 615.204 67.4 615.004 67.88C614.804 68.36 614.924 68.96 615.284 69.4C615.804 70.04 616.684 70.08 617.284 69.56C617.884 69 617.964 68.08 617.444 67.48C617.164 67.16 616.844 67.04 616.484 66.96C616.284 66.92 616.604 66.04 618.444 65.16C622.084 63.64 623.884 66.2 623.884 70.28V72.44C617.204 74.2 613.804 75.56 613.804 79.2C613.804 83.4 618.324 83.36 618.324 83.36C621.084 83.36 623.364 81.96 623.884 79.88C623.884 83.56 626.644 83.36 626.644 83.36C628.324 83.36 629.164 81.92 629.364 80.76L629.044 80.64C628.764 82.04 627.724 82.04 627.724 82.04ZM637.897 82.28C636.097 82.28 634.777 81.24 634.777 77.12V64.88H639.417L639.497 64.52H634.777V58.24L632.777 58.48V64.52H630.697L630.737 64.88H632.777V77.24C632.777 82.08 634.457 83.36 637.097 83.36C639.057 83.36 640.257 82 640.577 80.36L640.337 80.28C640.057 81.36 639.057 82.28 637.897 82.28ZM651.428 82.56C647.828 82.56 645.028 80.24 645.028 73.4H657.868C657.868 67.04 654.228 64.16 650.708 64.16C646.348 64.16 642.668 67.8 642.668 74C642.668 79.88 646.188 83.36 650.908 83.36C654.988 83.36 657.068 80.08 657.268 78.4L657.028 78.36C656.548 80.44 654.108 82.56 651.428 82.56ZM645.028 73C645.028 66.8 648.468 64.52 650.708 64.52C652.308 64.52 655.868 66.4 655.868 73H645.028ZM63.9516 129C60.8316 129 58.9116 126.68 58.9116 123.44V116.4C58.9116 113.12 60.8716 111.08 63.9516 111.08C67.6716 111.08 70.3516 114.48 70.3516 120.6C70.3516 127.24 66.3516 129 63.9516 129ZM64.7116 110.16C62.5116 110.16 60.0716 111.2 58.9116 113.12V99.8L54.9116 100.48V100.84C56.5916 100.84 56.9516 101.4 56.9516 102.76V128.8C56.9516 129.44 58.0316 128.36 58.7516 127.4C60.1116 128.56 61.8316 129.36 64.1116 129.36C69.1916 129.36 72.9916 125.72 72.9916 119.84C72.9916 115.16 70.8716 110.16 64.7116 110.16ZM85.3422 110.2C83.0622 109.92 80.1422 111.92 79.3022 114V110.16L75.3022 110.84V111.16C76.9822 111.16 77.3022 111.72 77.3022 113.12V126.44C77.3022 128.48 77.2222 128.2 75.7022 128.64V129H80.9422V128.64C79.5022 128.28 79.3022 128.64 79.3022 126.44V114.8C80.3422 111.84 84.1422 110.36 83.7822 111.24C83.6622 111.6 83.6622 112 83.7822 112.36C84.1422 113.16 85.0622 113.52 85.8222 113.2C86.6222 112.84 86.9822 112 86.6622 111.2C86.3822 110.64 85.9022 110.28 85.3422 110.2ZM98.2981 125.28C97.8581 126.24 96.7781 128.2 93.9381 128.2C91.6581 128.2 90.2181 126.88 90.2181 124.56C90.2181 121.76 92.9781 120.12 98.2981 118.8V125.28ZM102.138 128.04C100.458 128.04 100.458 125.8 100.458 125.8V118.16C100.458 113.4 99.5381 110.16 96.0581 110.16C96.0581 110.16 94.1781 110.12 92.5381 110.92C90.4181 112.08 89.6181 113.4 89.4181 113.88C89.2181 114.36 89.3381 114.96 89.6981 115.4C90.2181 116.04 91.0981 116.08 91.6981 115.56C92.2981 115 92.3781 114.08 91.8581 113.48C91.5781 113.16 91.2581 113.04 90.8981 112.96C90.6981 112.92 91.0181 112.04 92.8581 111.16C96.4981 109.64 98.2981 112.2 98.2981 116.28V118.44C91.6181 120.2 88.2181 121.56 88.2181 125.2C88.2181 129.4 92.7381 129.36 92.7381 129.36C95.4981 129.36 97.7781 127.96 98.2981 125.88C98.2981 129.56 101.058 129.36 101.058 129.36C102.738 129.36 103.578 127.92 103.778 126.76L103.458 126.64C103.178 128.04 102.138 128.04 102.138 128.04ZM120.511 126.44V116.84C120.511 112.04 117.871 110.16 114.511 110.16C111.991 110.16 109.591 112.04 108.831 114.24V110.16L104.831 110.84V111.16C106.511 111.16 106.831 111.76 106.831 113.16V126.44C106.831 128.48 106.751 128.2 105.231 128.64V129H110.471V128.64C109.031 128.28 108.831 128.64 108.831 126.44V114.84C109.471 113.56 111.031 111.24 113.591 111.24C116.871 111.24 118.551 113.48 118.551 117V126.44C118.551 128.48 118.471 128.24 116.951 128.68V129H122.151V128.68C120.751 128.32 120.511 128.64 120.511 126.44ZM138.662 123.8C138.662 126.6 136.342 128.44 133.782 128.44C130.062 128.44 127.342 125.04 127.342 118.8C127.342 112.04 131.382 110.52 133.782 110.52C136.342 110.52 138.662 112.72 138.662 115.44V123.8ZM140.622 126.6V99.8L136.622 100.48V100.84C138.262 100.84 138.662 101.52 138.662 102.92V111.88C137.342 110.84 135.702 110.16 133.622 110.16C128.542 110.16 124.702 113.56 124.702 119.56C124.702 124.4 126.822 129.36 133.022 129.36C135.102 129.36 137.462 128.4 138.662 126.68V128.6C138.662 128.6 138.662 129.52 139.782 129.32L142.662 128.72V128.4C141.062 128.56 140.622 128.56 140.622 126.6ZM153.303 119.64L149.263 117.12C145.783 114.92 145.263 110.52 150.223 110.52C155.423 110.52 156.383 113.48 156.383 116.76H156.703V111.48C156.703 111.48 154.822 110.16 150.223 110.16C146.103 110.16 145.223 112.72 145.223 112.72C144.183 115.32 144.943 116.88 148.703 119.64L152.743 122.08C155.783 124.08 157.343 129 151.703 129C145.943 129 145.263 125.88 145.263 122.16H144.943V128C144.943 128 146.863 129.36 151.703 129.36C155.023 129.36 156.263 127.56 156.263 127.56C158.103 124.96 156.983 121.92 153.303 119.64ZM163.482 126.88C162.962 126.32 162.082 126.32 161.522 126.88C161.002 127.44 160.962 128.36 161.562 128.84C161.922 129.12 162.202 129.12 162.522 129.2C163.162 129.32 164.082 131.6 161.002 133.64L161.082 133.76C162.722 132.92 163.082 132.12 163.522 131.4C164.402 129.76 164.322 127.68 163.482 126.88ZM182.115 128.28C180.315 128.28 178.995 127.24 178.995 123.12V110.88H183.635L183.715 110.52H178.995V104.24L176.995 104.48V110.52H174.915L174.955 110.88H176.995V123.24C176.995 128.08 178.675 129.36 181.315 129.36C183.275 129.36 184.475 128 184.795 126.36L184.555 126.28C184.275 127.36 183.275 128.28 182.115 128.28ZM201.926 126V110.16L198.046 110.88V111.2C199.926 111.2 199.926 111.24 199.926 113.68V124.76C199.366 126.52 197.966 128.32 195.126 128.32C192.806 128.32 190.246 127.08 190.246 123.28V110.16L186.086 110.88V111.2C188.326 111.2 188.326 111.2 188.326 113.96V123.4C188.326 128.56 192.086 129.36 194.686 129.36C197.566 129.36 199.486 127.56 199.926 125.6V128.88C199.926 128.88 199.886 129.52 200.766 129.32L203.966 128.8V128.48C202.286 128.28 201.926 127.92 201.926 126ZM215.303 110.2C213.023 109.92 210.103 111.92 209.263 114V110.16L205.263 110.84V111.16C206.943 111.16 207.263 111.72 207.263 113.12V126.44C207.263 128.48 207.183 128.2 205.663 128.64V129H210.903V128.64C209.463 128.28 209.263 128.64 209.263 126.44V114.8C210.303 111.84 214.103 110.36 213.743 111.24C213.623 111.6 213.623 112 213.743 112.36C214.103 113.16 215.023 113.52 215.783 113.2C216.583 112.84 216.943 112 216.623 111.2C216.343 110.64 215.863 110.28 215.303 110.2ZM233.636 126.44V116.84C233.636 112.04 230.996 110.16 227.636 110.16C225.116 110.16 222.716 112.04 221.956 114.24V110.16L217.956 110.84V111.16C219.636 111.16 219.956 111.76 219.956 113.16V126.44C219.956 128.48 219.876 128.2 218.356 128.64V129H223.596V128.64C222.156 128.28 221.956 128.64 221.956 126.44V114.84C222.596 113.56 224.156 111.24 226.716 111.24C229.996 111.24 231.676 113.48 231.676 117V126.44C231.676 128.48 231.596 128.24 230.076 128.68V129H235.276V128.68C233.876 128.32 233.636 128.64 233.636 126.44ZM253.561 128.28C251.761 128.28 250.441 127.24 250.441 123.12V110.88H255.081L255.161 110.52H250.441V104.24L248.441 104.48V110.52H246.361L246.401 110.88H248.441V123.24C248.441 128.08 250.121 129.36 252.761 129.36C254.721 129.36 255.921 128 256.241 126.36L256.001 126.28C255.721 127.36 254.721 128.28 253.561 128.28ZM273.332 126.44V116.84C273.332 112.04 270.692 110.16 267.332 110.16C264.572 110.16 261.972 112.44 261.492 114.88V99.8L257.492 100.48V100.84C259.172 100.84 259.492 101.4 259.492 102.8V126.44C259.492 128.48 259.412 128.2 257.892 128.64V129H263.132V128.64C261.692 128.28 261.492 128.64 261.492 126.44V115.24C261.932 114.12 263.572 111.24 266.412 111.24C269.692 111.24 271.372 113.48 271.372 117V126.44C271.372 128.48 271.292 128.24 269.772 128.68V129H274.972V128.68C273.572 128.32 273.332 128.64 273.332 126.44ZM286.037 128.56C282.437 128.56 279.637 126.24 279.637 119.4H292.477C292.477 113.04 288.837 110.16 285.317 110.16C280.957 110.16 277.277 113.8 277.277 120C277.277 125.88 280.797 129.36 285.517 129.36C289.597 129.36 291.677 126.08 291.877 124.4L291.637 124.36C291.157 126.44 288.717 128.56 286.037 128.56ZM279.637 119C279.637 112.8 283.077 110.52 285.317 110.52C286.917 110.52 290.477 112.4 290.477 119H279.637ZM319.758 126.44V116.84C319.758 112.04 317.718 110.16 314.318 110.16C311.718 110.16 309.638 112.16 308.998 114.48C308.438 111.4 306.598 110.16 303.798 110.16C301.278 110.16 299.198 112 298.518 114.24V110.16L294.518 110.84V111.16C296.198 111.16 296.518 111.76 296.518 113.16V126.44C296.518 128.48 296.438 128.2 294.918 128.64V129H300.158V128.64C298.718 128.28 298.518 128.64 298.518 126.44V114.84C299.078 113.56 300.318 111.24 302.878 111.24C306.198 111.24 307.238 113.48 307.238 117V126.44C307.238 128.48 307.158 128.24 305.638 128.68V129H310.838V128.68C309.438 128.32 309.198 128.64 309.198 126.44V116.84C309.198 116.12 309.158 115.44 309.078 114.88C309.598 113.6 310.878 111.24 313.438 111.24C316.718 111.24 317.798 113.48 317.798 117V126.44C317.798 128.48 317.718 128.24 316.198 128.68V129H321.398V128.68C319.998 128.32 319.758 128.64 319.758 126.44ZM336.699 110.16L332.739 110.84V111.16C334.419 111.16 334.699 111.72 334.699 113.12V126.44C334.699 128.48 334.619 128.2 333.099 128.64V129H338.339V128.64C336.899 128.28 336.699 128.64 336.699 126.44V110.16ZM336.659 105.36C336.659 104.56 336.019 103.96 335.299 103.96C334.539 103.96 333.979 104.56 333.979 105.36C333.979 106.08 334.539 106.68 335.299 106.68C336.019 106.68 336.659 106.08 336.659 105.36ZM355.979 126.44V116.84C355.979 112.04 353.339 110.16 349.979 110.16C347.459 110.16 345.059 112.04 344.299 114.24V110.16L340.299 110.84V111.16C341.979 111.16 342.299 111.76 342.299 113.16V126.44C342.299 128.48 342.219 128.2 340.699 128.64V129H345.939V128.64C344.499 128.28 344.299 128.64 344.299 126.44V114.84C344.939 113.56 346.499 111.24 349.059 111.24C352.339 111.24 354.019 113.48 354.019 117V126.44C354.019 128.48 353.939 128.24 352.419 128.68V129H357.619V128.68C356.219 128.32 355.979 128.64 355.979 126.44ZM366.49 128.28C364.69 128.28 363.37 127.24 363.37 123.12V110.88H368.01L368.09 110.52H363.37V104.24L361.37 104.48V110.52H359.29L359.33 110.88H361.37V123.24C361.37 128.08 363.05 129.36 365.69 129.36C367.65 129.36 368.85 128 369.17 126.36L368.93 126.28C368.65 127.36 367.65 128.28 366.49 128.28ZM380.341 110.16C374.261 110.16 371.421 114.48 371.421 119.76C371.421 125 374.261 129.36 380.341 129.36C386.461 129.36 389.261 125 389.261 119.76C389.261 114.48 386.461 110.16 380.341 110.16ZM380.341 129C377.101 129 373.701 127 373.701 119.76C373.701 112.52 377.101 110.52 380.341 110.52C383.581 110.52 386.941 112.52 386.941 119.76C386.941 127 383.581 129 380.341 129ZM410.803 128.56C407.203 128.56 404.403 126.24 404.403 119.4H417.243C417.243 113.04 413.603 110.16 410.083 110.16C405.723 110.16 402.043 113.8 402.043 120C402.043 125.88 405.562 129.36 410.283 129.36C414.363 129.36 416.443 126.08 416.643 124.4L416.403 124.36C415.923 126.44 413.483 128.56 410.803 128.56ZM404.403 119C404.403 112.8 407.843 110.52 410.083 110.52C411.683 110.52 415.243 112.4 415.243 119H404.403ZM433.581 126.24L428.581 119.04L429.901 117.12C434.021 110.72 435.301 110.84 437.541 110.84V110.52H429.541V110.84C433.661 110.84 432.261 112.68 429.621 116.88L428.381 118.72L425.061 113.92C423.341 111.44 424.301 110.84 425.301 110.84V110.52H418.621V110.84C420.101 110.84 420.581 111.24 422.261 113.36L427.301 120.6L426.021 122.48C421.581 129.04 419.981 128.68 418.261 128.68V129H425.461V128.68C422.421 128.68 422.781 128 426.301 122.68L427.541 120.88L431.021 125.84C431.021 125.84 433.181 128.68 430.981 128.68V129H437.381V128.68C436.621 128.6 435.181 128.64 433.581 126.24ZM447.626 129C444.626 129 442.706 126.88 442.586 123.8V116.08C442.746 113 444.666 111.08 447.626 111.08C451.306 111.08 454.026 114.44 454.026 120.68C454.026 127.44 450.026 129 447.626 129ZM448.386 110.16C446.186 110.16 443.746 111.24 442.586 113.12V110.16L438.586 110.84V111.16C440.266 111.16 440.586 111.76 440.586 113.16V137.04C440.586 139.08 440.506 138.8 438.986 139.24V139.6H444.226V139.24C442.786 138.88 442.586 139.24 442.586 137.04V127.56C443.906 128.64 445.586 129.36 447.786 129.36C452.866 129.36 456.666 125.92 456.666 119.92C456.666 115.12 454.546 110.16 448.386 110.16ZM468.849 128.56C465.249 128.56 462.449 126.24 462.449 119.4H475.289C475.289 113.04 471.649 110.16 468.129 110.16C463.769 110.16 460.089 113.8 460.089 120C460.089 125.88 463.609 129.36 468.329 129.36C472.409 129.36 474.489 126.08 474.689 124.4L474.449 124.36C473.969 126.44 471.529 128.56 468.849 128.56ZM462.449 119C462.449 112.8 465.889 110.52 468.129 110.52C469.729 110.52 473.289 112.4 473.289 119H462.449ZM487.491 110.2C485.211 109.92 482.291 111.92 481.451 114V110.16L477.451 110.84V111.16C479.131 111.16 479.451 111.72 479.451 113.12V126.44C479.451 128.48 479.371 128.2 477.851 128.64V129H483.091V128.64C481.651 128.28 481.451 128.64 481.451 126.44V114.8C482.491 111.84 486.291 110.36 485.931 111.24C485.811 111.6 485.811 112 485.931 112.36C486.291 113.16 487.211 113.52 487.971 113.2C488.771 112.84 489.131 112 488.811 111.2C488.531 110.64 488.051 110.28 487.491 110.2ZM494.863 110.16L490.903 110.84V111.16C492.583 111.16 492.863 111.72 492.863 113.12V126.44C492.863 128.48 492.783 128.2 491.263 128.64V129H496.503V128.64C495.063 128.28 494.863 128.64 494.863 126.44V110.16ZM494.823 105.36C494.823 104.56 494.183 103.96 493.463 103.96C492.703 103.96 492.143 104.56 492.143 105.36C492.143 106.08 492.703 106.68 493.463 106.68C494.183 106.68 494.823 106.08 494.823 105.36ZM508.263 128.56C504.663 128.56 501.863 126.24 501.863 119.4H514.703C514.703 113.04 511.063 110.16 507.543 110.16C503.183 110.16 499.503 113.8 499.503 120C499.503 125.88 503.023 129.36 507.743 129.36C511.823 129.36 513.903 126.08 514.103 124.4L513.863 124.36C513.383 126.44 510.943 128.56 508.263 128.56ZM501.863 119C501.863 112.8 505.303 110.52 507.543 110.52C509.143 110.52 512.703 112.4 512.703 119H501.863ZM532.425 126.44V116.84C532.425 112.04 529.785 110.16 526.425 110.16C523.905 110.16 521.505 112.04 520.745 114.24V110.16L516.745 110.84V111.16C518.425 111.16 518.745 111.76 518.745 113.16V126.44C518.745 128.48 518.665 128.2 517.145 128.64V129H522.385V128.64C520.945 128.28 520.745 128.64 520.745 126.44V114.84C521.385 113.56 522.945 111.24 525.505 111.24C528.785 111.24 530.465 113.48 530.465 117V126.44C530.465 128.48 530.385 128.24 528.865 128.68V129H534.065V128.68C532.665 128.32 532.425 128.64 532.425 126.44ZM551.976 123.92C551.456 125.84 549.656 128.48 545.816 128.48C542.896 128.48 539.216 126.08 539.216 119.72C539.216 111.68 544.136 110.52 545.896 110.52C549.616 110.52 550.976 112.16 550.576 112.04C550.376 111.96 549.976 111.96 549.576 112.12C548.896 112.44 548.656 113.24 549.016 113.96C549.296 114.6 550.216 114.76 550.856 114.48C551.336 114.2 551.576 113.76 551.576 113.24C551.576 112.56 550.896 110.16 545.896 110.16C540.496 110.16 536.816 114.68 536.816 119.88C536.816 126.96 541.736 129.36 545.416 129.36C550.256 129.36 551.936 125.92 552.256 123.96L551.976 123.92ZM563.849 128.56C560.249 128.56 557.449 126.24 557.449 119.4H570.289C570.289 113.04 566.649 110.16 563.129 110.16C558.769 110.16 555.089 113.8 555.089 120C555.089 125.88 558.609 129.36 563.329 129.36C567.409 129.36 569.489 126.08 569.689 124.4L569.449 124.36C568.969 126.44 566.529 128.56 563.849 128.56ZM557.449 119C557.449 112.8 560.889 110.52 563.129 110.52C564.729 110.52 568.289 112.4 568.289 119H557.449ZM582.131 119.64L578.091 117.12C574.611 114.92 574.091 110.52 579.051 110.52C584.251 110.52 585.211 113.48 585.211 116.76H585.531V111.48C585.531 111.48 583.651 110.16 579.051 110.16C574.931 110.16 574.051 112.72 574.051 112.72C573.011 115.32 573.771 116.88 577.531 119.64L581.571 122.08C584.611 124.08 586.171 129 580.531 129C574.771 129 574.091 125.88 574.091 122.16H573.771V128C573.771 128 575.691 129.36 580.531 129.36C583.851 129.36 585.091 127.56 585.091 127.56C586.931 124.96 585.811 121.92 582.131 119.64ZM608.884 125.28C608.444 126.24 607.364 128.2 604.524 128.2C602.244 128.2 600.804 126.88 600.804 124.56C600.804 121.76 603.564 120.12 608.884 118.8V125.28ZM612.724 128.04C611.044 128.04 611.044 125.8 611.044 125.8V118.16C611.044 113.4 610.124 110.16 606.644 110.16C606.644 110.16 604.764 110.12 603.124 110.92C601.004 112.08 600.204 113.4 600.004 113.88C599.804 114.36 599.924 114.96 600.284 115.4C600.804 116.04 601.684 116.08 602.284 115.56C602.884 115 602.964 114.08 602.444 113.48C602.164 113.16 601.844 113.04 601.484 112.96C601.284 112.92 601.604 112.04 603.444 111.16C607.084 109.64 608.884 112.2 608.884 116.28V118.44C602.204 120.2 598.804 121.56 598.804 125.2C598.804 129.4 603.324 129.36 603.324 129.36C606.084 129.36 608.364 127.96 608.884 125.88C608.884 129.56 611.644 129.36 611.644 129.36C613.324 129.36 614.164 127.92 614.364 126.76L614.044 126.64C613.764 128.04 612.724 128.04 612.724 128.04ZM631.097 126.44V116.84C631.097 112.04 628.457 110.16 625.097 110.16C622.577 110.16 620.177 112.04 619.417 114.24V110.16L615.417 110.84V111.16C617.097 111.16 617.417 111.76 617.417 113.16V126.44C617.417 128.48 617.337 128.2 615.817 128.64V129H621.057V128.64C619.617 128.28 619.417 128.64 619.417 126.44V114.84C620.057 113.56 621.617 111.24 624.177 111.24C627.457 111.24 629.137 113.48 629.137 117V126.44C629.137 128.48 629.057 128.24 627.537 128.68V129H632.737V128.68C631.337 128.32 631.097 128.64 631.097 126.44ZM649.248 123.8C649.248 126.6 646.928 128.44 644.368 128.44C640.648 128.44 637.928 125.04 637.928 118.8C637.928 112.04 641.968 110.52 644.368 110.52C646.928 110.52 649.248 112.72 649.248 115.44V123.8ZM651.208 126.6V99.8L647.208 100.48V100.84C648.848 100.84 649.248 101.52 649.248 102.92V111.88C647.928 110.84 646.288 110.16 644.208 110.16C639.128 110.16 635.288 113.56 635.288 119.56C635.288 124.4 637.408 129.36 643.608 129.36C645.688 129.36 648.048 128.4 649.248 126.68V128.6C649.248 128.6 649.248 129.52 650.368 129.32L653.248 128.72V128.4C651.648 128.56 651.208 128.56 651.208 126.6ZM63.3233 169.92C62.8033 171.84 61.0033 174.48 57.1633 174.48C54.2433 174.48 50.5633 172.08 50.5633 165.72C50.5633 157.68 55.4833 156.52 57.2433 156.52C60.9633 156.52 62.3233 158.16 61.9233 158.04C61.7233 157.96 61.3233 157.96 60.9233 158.12C60.2433 158.44 60.0033 159.24 60.3633 159.96C60.6433 160.6 61.5633 160.76 62.2033 160.48C62.6833 160.2 62.9233 159.76 62.9233 159.24C62.9233 158.56 62.2433 156.16 57.2433 156.16C51.8433 156.16 48.1633 160.68 48.1633 165.88C48.1633 172.96 53.0833 175.36 56.7633 175.36C61.6033 175.36 63.2833 171.92 63.6033 169.96L63.3233 169.92ZM75.517 156.16C69.437 156.16 66.597 160.48 66.597 165.76C66.597 171 69.437 175.36 75.517 175.36C81.637 175.36 84.437 171 84.437 165.76C84.437 160.48 81.637 156.16 75.517 156.16ZM75.517 175C72.277 175 68.877 173 68.877 165.76C68.877 158.52 72.277 156.52 75.517 156.52C78.757 156.52 82.117 158.52 82.117 165.76C82.117 173 78.757 175 75.517 175ZM112.004 172.44V162.84C112.004 158.04 109.964 156.16 106.564 156.16C103.964 156.16 101.884 158.16 101.244 160.48C100.684 157.4 98.8442 156.16 96.0442 156.16C93.5242 156.16 91.4442 158 90.7642 160.24V156.16L86.7642 156.84V157.16C88.4442 157.16 88.7642 157.76 88.7642 159.16V172.44C88.7642 174.48 88.6842 174.2 87.1642 174.64V175H92.4042V174.64C90.9642 174.28 90.7642 174.64 90.7642 172.44V160.84C91.3242 159.56 92.5642 157.24 95.1242 157.24C98.4442 157.24 99.4842 159.48 99.4842 163V172.44C99.4842 174.48 99.4042 174.24 97.8842 174.68V175H103.084V174.68C101.684 174.32 101.444 174.64 101.444 172.44V162.84C101.444 162.12 101.404 161.44 101.324 160.88C101.844 159.6 103.124 157.24 105.684 157.24C108.964 157.24 110.044 159.48 110.044 163V172.44C110.044 174.48 109.964 174.24 108.444 174.68V175H113.644V174.68C112.244 174.32 112.004 174.64 112.004 172.44ZM140.051 172.44V162.84C140.051 158.04 138.011 156.16 134.611 156.16C132.011 156.16 129.931 158.16 129.291 160.48C128.731 157.4 126.891 156.16 124.091 156.16C121.571 156.16 119.491 158 118.811 160.24V156.16L114.811 156.84V157.16C116.491 157.16 116.811 157.76 116.811 159.16V172.44C116.811 174.48 116.731 174.2 115.211 174.64V175H120.451V174.64C119.011 174.28 118.811 174.64 118.811 172.44V160.84C119.371 159.56 120.611 157.24 123.171 157.24C126.491 157.24 127.531 159.48 127.531 163V172.44C127.531 174.48 127.451 174.24 125.931 174.68V175H131.131V174.68C129.731 174.32 129.491 174.64 129.491 172.44V162.84C129.491 162.12 129.451 161.44 129.371 160.88C129.891 159.6 131.171 157.24 133.731 157.24C137.011 157.24 138.091 159.48 138.091 163V172.44C138.091 174.48 138.011 174.24 136.491 174.68V175H141.691V174.68C140.291 174.32 140.051 174.64 140.051 172.44ZM158.469 172V156.16L154.589 156.88V157.2C156.469 157.2 156.469 157.24 156.469 159.68V170.76C155.909 172.52 154.509 174.32 151.669 174.32C149.349 174.32 146.789 173.08 146.789 169.28V156.16L142.629 156.88V157.2C144.869 157.2 144.869 157.2 144.869 159.96V169.4C144.869 174.56 148.629 175.36 151.229 175.36C154.109 175.36 156.029 173.56 156.469 171.6V174.88C156.469 174.88 156.429 175.52 157.309 175.32L160.509 174.8V174.48C158.829 174.28 158.469 173.92 158.469 172ZM177.366 172.44V162.84C177.366 158.04 174.726 156.16 171.366 156.16C168.846 156.16 166.446 158.04 165.686 160.24V156.16L161.686 156.84V157.16C163.366 157.16 163.686 157.76 163.686 159.16V172.44C163.686 174.48 163.606 174.2 162.086 174.64V175H167.326V174.64C165.886 174.28 165.686 174.64 165.686 172.44V160.84C166.326 159.56 167.886 157.24 170.446 157.24C173.726 157.24 175.406 159.48 175.406 163V172.44C175.406 174.48 175.326 174.24 173.806 174.68V175H179.006V174.68C177.606 174.32 177.366 174.64 177.366 172.44ZM185.117 156.16L181.157 156.84V157.16C182.837 157.16 183.117 157.72 183.117 159.12V172.44C183.117 174.48 183.037 174.2 181.517 174.64V175H186.757V174.64C185.317 174.28 185.117 174.64 185.117 172.44V156.16ZM185.077 151.36C185.077 150.56 184.437 149.96 183.717 149.96C182.957 149.96 182.397 150.56 182.397 151.36C182.397 152.08 182.957 152.68 183.717 152.68C184.437 152.68 185.077 152.08 185.077 151.36ZM205.237 169.92C204.717 171.84 202.917 174.48 199.077 174.48C196.157 174.48 192.477 172.08 192.477 165.72C192.477 157.68 197.397 156.52 199.157 156.52C202.877 156.52 204.237 158.16 203.837 158.04C203.637 157.96 203.237 157.96 202.837 158.12C202.157 158.44 201.917 159.24 202.277 159.96C202.557 160.6 203.477 160.76 204.117 160.48C204.597 160.2 204.837 159.76 204.837 159.24C204.837 158.56 204.157 156.16 199.157 156.16C193.757 156.16 190.077 160.68 190.077 165.88C190.077 172.96 194.997 175.36 198.677 175.36C203.517 175.36 205.197 171.92 205.517 169.96L205.237 169.92ZM218.591 171.28C218.151 172.24 217.071 174.2 214.231 174.2C211.951 174.2 210.511 172.88 210.511 170.56C210.511 167.76 213.271 166.12 218.591 164.8V171.28ZM222.431 174.04C220.751 174.04 220.751 171.8 220.751 171.8V164.16C220.751 159.4 219.831 156.16 216.351 156.16C216.351 156.16 214.471 156.12 212.831 156.92C210.711 158.08 209.911 159.4 209.711 159.88C209.511 160.36 209.631 160.96 209.991 161.4C210.511 162.04 211.391 162.08 211.991 161.56C212.591 161 212.671 160.08 212.151 159.48C211.871 159.16 211.551 159.04 211.191 158.96C210.991 158.92 211.311 158.04 213.151 157.16C216.791 155.64 218.591 158.2 218.591 162.28V164.44C211.911 166.2 208.511 167.56 208.511 171.2C208.511 175.4 213.031 175.36 213.031 175.36C215.791 175.36 218.071 173.96 218.591 171.88C218.591 175.56 221.351 175.36 221.351 175.36C223.031 175.36 223.871 173.92 224.071 172.76L223.751 172.64C223.471 174.04 222.431 174.04 222.431 174.04ZM232.604 174.28C230.804 174.28 229.484 173.24 229.484 169.12V156.88H234.124L234.204 156.52H229.484V150.24L227.484 150.48V156.52H225.404L225.444 156.88H227.484V169.24C227.484 174.08 229.164 175.36 231.804 175.36C233.764 175.36 234.964 174 235.284 172.36L235.044 172.28C234.764 173.36 233.764 174.28 232.604 174.28ZM246.135 174.56C242.535 174.56 239.735 172.24 239.735 165.4H252.575C252.575 159.04 248.935 156.16 245.415 156.16C241.055 156.16 237.375 159.8 237.375 166C237.375 171.88 240.895 175.36 245.615 175.36C249.695 175.36 251.775 172.08 251.975 170.4L251.735 170.36C251.255 172.44 248.815 174.56 246.135 174.56ZM239.735 165C239.735 158.8 243.175 156.52 245.415 156.52C247.015 156.52 250.575 158.4 250.575 165H239.735ZM276.305 175V149.238H285.621V146.816H264.332V149.238H273.629V175H276.305ZM310.816 175V146.816H308.141V159.355H291.656V146.816H289V175H291.656V161.777H308.141V175H310.816ZM333.121 172.578H318.766V161.758H332.398V159.375H318.766V149.238H333.121V146.816H316.109V175H333.121V172.578ZM340.328 175V146.816H337.672V175H340.328ZM348.258 149.199H355.23C359.332 149.199 361.812 151.406 361.812 155.137C361.812 158.906 359.43 161.094 355.328 161.094H348.258V149.199ZM348.258 163.457H355.328C355.465 163.457 355.66 163.457 355.758 163.457L362.242 175H365.367L358.531 163.027C362.301 162.051 364.566 159.043 364.566 155.059C364.566 150.039 361.051 146.816 355.543 146.816H345.602V175H348.258V163.457ZM398.941 175V146.816H396.266V159.355H379.781V146.816H377.125V175H379.781V161.777H396.266V175H398.941ZM406.891 175V146.816H404.234V175H406.891ZM410.797 167.344C411.09 172.188 415.23 175.449 421.129 175.449C427.359 175.449 431.344 172.207 431.344 167.266C431.344 163.34 428.961 161.172 423.297 159.746L420.25 158.965C416.109 157.91 414.352 156.484 414.352 154.062C414.352 150.957 417.242 148.789 421.148 148.789C425.152 148.789 427.965 150.898 428.219 154.082H430.895C430.738 149.609 426.715 146.367 421.227 146.367C415.68 146.367 411.578 149.609 411.578 154.16C411.578 157.871 413.902 160.078 419.117 161.406L422.613 162.305C426.793 163.359 428.609 164.922 428.609 167.559C428.609 170.723 425.582 173.027 421.363 173.027C416.949 173.027 413.766 170.723 413.473 167.344H410.797ZM445.133 175V149.238H454.449V146.816H433.16V149.238H442.457V175H445.133ZM467.613 146.367C459.762 146.367 454.82 151.992 454.82 160.918C454.82 169.844 459.762 175.449 467.613 175.449C475.484 175.449 480.426 169.844 480.426 160.918C480.426 151.992 475.465 146.367 467.613 146.367ZM467.613 148.848C473.785 148.848 477.691 153.516 477.691 160.918C477.691 168.301 473.785 172.969 467.613 172.969C461.441 172.969 457.555 168.301 457.555 160.918C457.555 153.516 461.441 148.848 467.613 148.848ZM487.242 149.199H494.215C498.316 149.199 500.797 151.406 500.797 155.137C500.797 158.906 498.414 161.094 494.312 161.094H487.242V149.199ZM487.242 163.457H494.312C494.449 163.457 494.645 163.457 494.742 163.457L501.227 175H504.352L497.516 163.027C501.285 162.051 503.551 159.043 503.551 155.059C503.551 150.039 500.035 146.816 494.527 146.816H484.586V175H487.242V163.457ZM518.512 175V162.812L528.609 146.816H525.562L517.223 160.195H517.125L508.785 146.816H505.738L515.836 162.812V175H518.512ZM546.432 174.28C544.632 174.28 543.312 173.24 543.312 169.12V156.88H547.952L548.032 156.52H543.312V150.24L541.312 150.48V156.52H539.232L539.272 156.88H541.312V169.24C541.312 174.08 542.992 175.36 545.632 175.36C547.592 175.36 548.792 174 549.112 172.36L548.872 172.28C548.592 173.36 547.592 174.28 546.432 174.28ZM566.203 172.44V162.84C566.203 158.04 563.563 156.16 560.203 156.16C557.443 156.16 554.843 158.44 554.363 160.88V145.8L550.363 146.48V146.84C552.043 146.84 552.363 147.4 552.363 148.8V172.44C552.363 174.48 552.283 174.2 550.763 174.64V175H556.003V174.64C554.563 174.28 554.363 174.64 554.363 172.44V161.24C554.803 160.12 556.443 157.24 559.283 157.24C562.563 157.24 564.243 159.48 564.243 163V172.44C564.243 174.48 564.163 174.24 562.643 174.68V175H567.843V174.68C566.443 174.32 566.203 174.64 566.203 172.44ZM579.268 156.2C576.988 155.92 574.068 157.92 573.228 160V156.16L569.228 156.84V157.16C570.908 157.16 571.228 157.72 571.228 159.12V172.44C571.228 174.48 571.148 174.2 569.628 174.64V175H574.868V174.64C573.428 174.28 573.228 174.64 573.228 172.44V160.8C574.268 157.84 578.068 156.36 577.708 157.24C577.588 157.6 577.588 158 577.708 158.36C578.068 159.16 578.988 159.52 579.748 159.2C580.548 158.84 580.908 158 580.588 157.2C580.308 156.64 579.828 156.28 579.268 156.2ZM592.04 156.16C585.96 156.16 583.12 160.48 583.12 165.76C583.12 171 585.96 175.36 592.04 175.36C598.16 175.36 600.96 171 600.96 165.76C600.96 160.48 598.16 156.16 592.04 156.16ZM592.04 175C588.8 175 585.4 173 585.4 165.76C585.4 158.52 588.8 156.52 592.04 156.52C595.28 156.52 598.64 158.52 598.64 165.76C598.64 173 595.28 175 592.04 175ZM619.368 172V156.16L615.488 156.88V157.2C617.368 157.2 617.368 157.24 617.368 159.68V170.76C616.808 172.52 615.408 174.32 612.568 174.32C610.248 174.32 607.688 173.08 607.688 169.28V156.16L603.528 156.88V157.2C605.768 157.2 605.768 157.2 605.768 159.96V169.4C605.768 174.56 609.528 175.36 612.128 175.36C615.008 175.36 616.928 173.56 617.368 171.6V174.88C617.368 174.88 617.328 175.52 618.208 175.32L621.408 174.8V174.48C619.728 174.28 619.368 173.92 619.368 172ZM642.385 156.68C642.065 156.24 641.505 156.04 640.945 156.04C639.985 156.04 638.425 156.72 637.505 158.12C636.185 156.92 634.065 156.16 631.945 156.16C627.625 156.16 624.665 159.16 624.665 162.4C624.665 164.52 625.465 166.8 627.705 167.8C624.145 168.48 624.425 171.56 624.425 171.56C624.425 172.64 624.705 173.72 625.945 174.32C623.025 176.28 621.905 179 623.465 181.52C625.185 184.32 630.505 185.12 635.825 182.12C640.025 179.76 640.105 176.88 640.105 176.88C640.745 172.44 635.745 173.04 632.985 173.04H628.985C623.745 173.04 625.345 168.12 627.985 167.96C629.105 168.44 630.385 168.68 631.945 168.68C636.345 168.68 639.265 165.64 639.265 162.4C639.265 160.96 638.745 159.32 637.705 158.32C638.465 157.04 640.025 156.92 639.905 157.24C639.785 157.6 639.865 158 640.105 158.32C640.505 158.96 641.385 159.04 642.025 158.6C642.625 158.16 642.785 157.32 642.385 156.68ZM626.265 174.52C627.505 174.96 629.025 175 629.465 175H635.105C639.065 175 638.985 176.92 638.985 176.92C638.985 176.92 639.225 179.52 635.625 181.8C632.265 183.96 627.105 182.88 625.545 181.04C625.705 181.2 622.345 177.44 626.265 174.52ZM631.945 168.36C630.185 168.36 626.945 166.88 626.945 162.4C626.945 157.92 629.945 156.52 631.945 156.52C633.665 156.52 636.985 157.92 636.985 162.4C636.985 166.88 633.785 168.36 631.945 168.36ZM659.171 172.44V162.84C659.171 158.04 656.531 156.16 653.171 156.16C650.411 156.16 647.811 158.44 647.331 160.88V145.8L643.331 146.48V146.84C645.011 146.84 645.331 147.4 645.331 148.8V172.44C645.331 174.48 645.251 174.2 643.731 174.64V175H648.971V174.64C647.531 174.28 647.331 174.64 647.331 172.44V161.24C647.771 160.12 649.411 157.24 652.251 157.24C655.531 157.24 657.211 159.48 657.211 163V172.44C657.211 174.48 657.131 174.24 655.611 174.68V175H660.811V174.68C659.411 174.32 659.171 174.64 659.171 172.44ZM87.1216 218V202.16L83.2416 202.88V203.2C85.1216 203.2 85.1216 203.24 85.1216 205.68V216.76C84.5616 218.52 83.1616 220.32 80.3216 220.32C78.0016 220.32 75.4416 219.08 75.4416 215.28V202.16L71.2816 202.88V203.2C73.5216 203.2 73.5216 203.2 73.5216 205.96V215.4C73.5216 220.56 77.2816 221.36 79.8816 221.36C82.7616 221.36 84.6816 219.56 85.1216 217.6V220.88C85.1216 220.88 85.0816 221.52 85.9616 221.32L89.1616 220.8V220.48C87.4816 220.28 87.1216 219.92 87.1216 218ZM106.018 218.44V208.84C106.018 204.04 103.378 202.16 100.018 202.16C97.4984 202.16 95.0984 204.04 94.3384 206.24V202.16L90.3384 202.84V203.16C92.0184 203.16 92.3384 203.76 92.3384 205.16V218.44C92.3384 220.48 92.2584 220.2 90.7384 220.64V221H95.9784V220.64C94.5384 220.28 94.3384 220.64 94.3384 218.44V206.84C94.9784 205.56 96.5384 203.24 99.0984 203.24C102.378 203.24 104.058 205.48 104.058 209V218.44C104.058 220.48 103.978 220.24 102.458 220.68V221H107.658V220.68C106.258 220.32 106.018 220.64 106.018 218.44ZM113.769 202.16L109.809 202.84V203.16C111.489 203.16 111.769 203.72 111.769 205.12V218.44C111.769 220.48 111.689 220.2 110.169 220.64V221H115.409V220.64C113.969 220.28 113.769 220.64 113.769 218.44V202.16ZM113.729 197.36C113.729 196.56 113.089 195.96 112.369 195.96C111.609 195.96 111.049 196.56 111.049 197.36C111.049 198.08 111.609 198.68 112.369 198.68C113.089 198.68 113.729 198.08 113.729 197.36ZM132.41 216.32C132.13 218.84 129.93 220.44 127.53 220.44C123.81 220.44 121.13 217.04 121.13 210.8C121.13 204.04 125.13 202.52 127.53 202.52C129.97 202.52 132.13 204.4 132.41 206.88V216.32ZM134.41 229.04V202.68C134.41 202.04 132.97 202.92 132.53 203.92C131.17 202.84 129.45 202.16 127.37 202.16C122.29 202.16 118.49 205.56 118.49 211.56C118.49 216.36 120.61 221.36 126.77 221.36C128.85 221.36 131.21 220.4 132.41 218.68V229.04C132.41 231.08 132.33 230.8 130.81 231.24V231.6H136.05V231.24C134.61 230.88 134.41 231.24 134.41 229.04ZM153.645 218V202.16L149.765 202.88V203.2C151.645 203.2 151.645 203.24 151.645 205.68V216.76C151.085 218.52 149.685 220.32 146.845 220.32C144.525 220.32 141.965 219.08 141.965 215.28V202.16L137.805 202.88V203.2C140.045 203.2 140.045 203.2 140.045 205.96V215.4C140.045 220.56 143.805 221.36 146.405 221.36C149.285 221.36 151.205 219.56 151.645 217.6V220.88C151.645 220.88 151.605 221.52 152.485 221.32L155.685 220.8V220.48C154.005 220.28 153.645 219.92 153.645 218ZM166.662 220.56C163.062 220.56 160.262 218.24 160.262 211.4H173.102C173.102 205.04 169.462 202.16 165.942 202.16C161.582 202.16 157.902 205.8 157.902 212C157.902 217.88 161.422 221.36 166.142 221.36C170.222 221.36 172.302 218.08 172.502 216.4L172.262 216.36C171.782 218.44 169.342 220.56 166.662 220.56ZM160.262 211C160.262 204.8 163.702 202.52 165.942 202.52C167.542 202.52 171.102 204.4 171.102 211H160.262ZM194.357 211.64L190.317 209.12C186.837 206.92 186.317 202.52 191.277 202.52C196.477 202.52 197.437 205.48 197.437 208.76H197.757V203.48C197.757 203.48 195.877 202.16 191.277 202.16C187.157 202.16 186.277 204.72 186.277 204.72C185.237 207.32 185.997 208.88 189.757 211.64L193.797 214.08C196.837 216.08 198.397 221 192.757 221C186.997 221 186.317 217.88 186.317 214.16H185.997V220C185.997 220 187.917 221.36 192.757 221.36C196.077 221.36 197.317 219.56 197.317 219.56C199.157 216.96 198.037 213.92 194.357 211.64ZM210.537 202.16C204.457 202.16 201.617 206.48 201.617 211.76C201.617 217 204.457 221.36 210.537 221.36C216.657 221.36 219.457 217 219.457 211.76C219.457 206.48 216.657 202.16 210.537 202.16ZM210.537 221C207.297 221 203.897 219 203.897 211.76C203.897 204.52 207.297 202.52 210.537 202.52C213.777 202.52 217.137 204.52 217.137 211.76C217.137 219 213.777 221 210.537 221ZM226.264 191.8L222.264 192.48V192.84C223.944 192.84 224.264 193.4 224.264 194.8V218.44C224.264 220.48 224.184 220.2 222.664 220.64V221H227.904V220.64C226.464 220.28 226.264 220.64 226.264 218.44V191.8ZM245.754 218V202.16L241.874 202.88V203.2C243.754 203.2 243.754 203.24 243.754 205.68V216.76C243.194 218.52 241.794 220.32 238.954 220.32C236.634 220.32 234.074 219.08 234.074 215.28V202.16L229.914 202.88V203.2C232.154 203.2 232.154 203.2 232.154 205.96V215.4C232.154 220.56 235.914 221.36 238.514 221.36C241.394 221.36 243.314 219.56 243.754 217.6V220.88C243.754 220.88 243.714 221.52 244.594 221.32L247.794 220.8V220.48C246.114 220.28 245.754 219.92 245.754 218ZM256.451 220.28C254.651 220.28 253.331 219.24 253.331 215.12V202.88H257.971L258.051 202.52H253.331V196.24L251.331 196.48V202.52H249.251L249.291 202.88H251.331V215.24C251.331 220.08 253.011 221.36 255.651 221.36C257.611 221.36 258.811 220 259.131 218.36L258.891 218.28C258.611 219.36 257.611 220.28 256.451 220.28ZM264.902 202.16L260.942 202.84V203.16C262.622 203.16 262.902 203.72 262.902 205.12V218.44C262.902 220.48 262.822 220.2 261.302 220.64V221H266.542V220.64C265.102 220.28 264.902 220.64 264.902 218.44V202.16ZM264.862 197.36C264.862 196.56 264.222 195.96 263.502 195.96C262.742 195.96 262.182 196.56 262.182 197.36C262.182 198.08 262.742 198.68 263.502 198.68C264.222 198.68 264.862 198.08 264.862 197.36ZM278.622 202.16C272.543 202.16 269.703 206.48 269.703 211.76C269.703 217 272.543 221.36 278.622 221.36C284.743 221.36 287.543 217 287.543 211.76C287.543 206.48 284.743 202.16 278.622 202.16ZM278.622 221C275.383 221 271.983 219 271.983 211.76C271.983 204.52 275.383 202.52 278.622 202.52C281.863 202.52 285.223 204.52 285.223 211.76C285.223 219 281.863 221 278.622 221ZM305.55 218.44V208.84C305.55 204.04 302.91 202.16 299.55 202.16C297.03 202.16 294.63 204.04 293.87 206.24V202.16L289.87 202.84V203.16C291.55 203.16 291.87 203.76 291.87 205.16V218.44C291.87 220.48 291.79 220.2 290.27 220.64V221H295.51V220.64C294.07 220.28 293.87 220.64 293.87 218.44V206.84C294.51 205.56 296.07 203.24 298.63 203.24C301.91 203.24 303.59 205.48 303.59 209V218.44C303.59 220.48 303.51 220.24 301.99 220.68V221H307.19V220.68C305.79 220.32 305.55 220.64 305.55 218.44ZM318.381 211.64L314.341 209.12C310.861 206.92 310.341 202.52 315.301 202.52C320.501 202.52 321.461 205.48 321.461 208.76H321.781V203.48C321.781 203.48 319.901 202.16 315.301 202.16C311.181 202.16 310.301 204.72 310.301 204.72C309.261 207.32 310.021 208.88 313.781 211.64L317.821 214.08C320.861 216.08 322.421 221 316.781 221C311.021 221 310.341 217.88 310.341 214.16H310.021V220C310.021 220 311.941 221.36 316.781 221.36C320.101 221.36 321.341 219.56 321.341 219.56C323.181 216.96 322.061 213.92 318.381 211.64ZM341.334 220.28C339.534 220.28 338.214 219.24 338.214 215.12V202.88H342.854L342.934 202.52H338.214V196.24L336.214 196.48V202.52H334.134L334.174 202.88H336.214V215.24C336.214 220.08 337.894 221.36 340.534 221.36C342.494 221.36 343.694 220 344.014 218.36L343.774 218.28C343.494 219.36 342.494 220.28 341.334 220.28ZM361.105 218.44V208.84C361.105 204.04 358.465 202.16 355.105 202.16C352.345 202.16 349.745 204.44 349.265 206.88V191.8L345.265 192.48V192.84C346.945 192.84 347.265 193.4 347.265 194.8V218.44C347.265 220.48 347.185 220.2 345.665 220.64V221H350.905V220.64C349.465 220.28 349.265 220.64 349.265 218.44V207.24C349.705 206.12 351.345 203.24 354.185 203.24C357.465 203.24 359.145 205.48 359.145 209V218.44C359.145 220.48 359.065 220.24 357.545 220.68V221H362.745V220.68C361.345 220.32 361.105 220.64 361.105 218.44ZM375.29 217.28C374.85 218.24 373.77 220.2 370.93 220.2C368.65 220.2 367.21 218.88 367.21 216.56C367.21 213.76 369.97 212.12 375.29 210.8V217.28ZM379.13 220.04C377.45 220.04 377.45 217.8 377.45 217.8V210.16C377.45 205.4 376.53 202.16 373.05 202.16C373.05 202.16 371.17 202.12 369.53 202.92C367.41 204.08 366.61 205.4 366.41 205.88C366.21 206.36 366.33 206.96 366.69 207.4C367.21 208.04 368.09 208.08 368.69 207.56C369.29 207 369.37 206.08 368.85 205.48C368.57 205.16 368.25 205.04 367.89 204.96C367.69 204.92 368.01 204.04 369.85 203.16C373.49 201.64 375.29 204.2 375.29 208.28V210.44C368.61 212.2 365.21 213.56 365.21 217.2C365.21 221.4 369.73 221.36 369.73 221.36C372.49 221.36 374.77 219.96 375.29 217.88C375.29 221.56 378.05 221.36 378.05 221.36C379.73 221.36 380.57 219.92 380.77 218.76L380.45 218.64C380.17 220.04 379.13 220.04 379.13 220.04ZM389.303 220.28C387.503 220.28 386.183 219.24 386.183 215.12V202.88H390.823L390.903 202.52H386.183V196.24L384.183 196.48V202.52H382.103L382.143 202.88H384.183V215.24C384.183 220.08 385.863 221.36 388.503 221.36C390.463 221.36 391.663 220 391.983 218.36L391.743 218.28C391.463 219.36 390.463 220.28 389.303 220.28ZM412.608 202.2C410.328 201.92 407.408 203.92 406.568 206V202.16L402.568 202.84V203.16C404.248 203.16 404.568 203.72 404.568 205.12V218.44C404.568 220.48 404.488 220.2 402.968 220.64V221H408.208V220.64C406.768 220.28 406.568 220.64 406.568 218.44V206.8C407.608 203.84 411.408 202.36 411.048 203.24C410.928 203.6 410.928 204 411.048 204.36C411.408 205.16 412.328 205.52 413.088 205.2C413.888 204.84 414.248 204 413.928 203.2C413.648 202.64 413.168 202.28 412.608 202.2ZM425.06 220.56C421.46 220.56 418.66 218.24 418.66 211.4H431.5C431.5 205.04 427.86 202.16 424.34 202.16C419.98 202.16 416.3 205.8 416.3 212C416.3 217.88 419.82 221.36 424.54 221.36C428.62 221.36 430.7 218.08 430.9 216.4L430.66 216.36C430.18 218.44 427.74 220.56 425.06 220.56ZM418.66 211C418.66 204.8 422.1 202.52 424.34 202.52C425.94 202.52 429.5 204.4 429.5 211H418.66ZM444.771 202.52V202.84C449.171 202.84 447.371 207.48 447.371 207.48L443.451 218.56L437.451 205.4C437.451 205.4 436.091 202.84 439.171 202.84V202.52H432.011V202.84C432.651 202.92 433.851 202.88 434.851 204.76C434.851 204.76 435.531 206 442.611 221.36H442.811L447.971 206.92C449.611 202.88 450.291 202.84 452.411 202.84V202.52H444.771ZM461.747 202.16C455.668 202.16 452.828 206.48 452.828 211.76C452.828 217 455.668 221.36 461.747 221.36C467.868 221.36 470.668 217 470.668 211.76C470.668 206.48 467.868 202.16 461.747 202.16ZM461.747 221C458.508 221 455.108 219 455.108 211.76C455.108 204.52 458.508 202.52 461.747 202.52C464.988 202.52 468.348 204.52 468.348 211.76C468.348 219 464.988 221 461.747 221ZM477.475 191.8L473.475 192.48V192.84C475.155 192.84 475.475 193.4 475.475 194.8V218.44C475.475 220.48 475.395 220.2 473.875 220.64V221H479.115V220.64C477.675 220.28 477.475 220.64 477.475 218.44V191.8ZM493.325 202.52V202.84C497.725 202.84 495.925 207.48 495.925 207.48L492.005 218.56L486.005 205.4C486.005 205.4 484.645 202.84 487.725 202.84V202.52H480.565V202.84C481.205 202.92 482.405 202.88 483.405 204.76C483.405 204.76 484.085 206 491.165 221.36H491.365L496.525 206.92C498.165 202.88 498.845 202.84 500.965 202.84V202.52H493.325ZM509.982 220.56C506.382 220.56 503.582 218.24 503.582 211.4H516.422C516.422 205.04 512.782 202.16 509.262 202.16C504.902 202.16 501.222 205.8 501.222 212C501.222 217.88 504.742 221.36 509.462 221.36C513.542 221.36 515.622 218.08 515.822 216.4L515.582 216.36C515.102 218.44 512.662 220.56 509.982 220.56ZM503.582 211C503.582 204.8 507.022 202.52 509.262 202.52C510.862 202.52 514.422 204.4 514.422 211H503.582ZM539.158 217.28C538.718 218.24 537.638 220.2 534.798 220.2C532.518 220.2 531.078 218.88 531.078 216.56C531.078 213.76 533.838 212.12 539.158 210.8V217.28ZM542.998 220.04C541.318 220.04 541.318 217.8 541.318 217.8V210.16C541.318 205.4 540.398 202.16 536.918 202.16C536.918 202.16 535.038 202.12 533.398 202.92C531.278 204.08 530.478 205.4 530.278 205.88C530.077 206.36 530.198 206.96 530.558 207.4C531.078 208.04 531.958 208.08 532.558 207.56C533.158 207 533.238 206.08 532.717 205.48C532.438 205.16 532.118 205.04 531.758 204.96C531.558 204.92 531.878 204.04 533.718 203.16C537.358 201.64 539.158 204.2 539.158 208.28V210.44C532.478 212.2 529.078 213.56 529.078 217.2C529.078 221.4 533.598 221.36 533.598 221.36C536.358 221.36 538.638 219.96 539.158 217.88C539.158 221.56 541.918 221.36 541.918 221.36C543.598 221.36 544.438 219.92 544.638 218.76L544.318 218.64C544.038 220.04 542.998 220.04 542.998 220.04ZM555.85 202.2C553.57 201.92 550.65 203.92 549.81 206V202.16L545.81 202.84V203.16C547.49 203.16 547.81 203.72 547.81 205.12V218.44C547.81 220.48 547.73 220.2 546.21 220.64V221H551.45V220.64C550.01 220.28 549.81 220.64 549.81 218.44V206.8C550.85 203.84 554.65 202.36 554.29 203.24C554.17 203.6 554.17 204 554.29 204.36C554.65 205.16 555.57 205.52 556.33 205.2C557.13 204.84 557.49 204 557.17 203.2C556.89 202.64 556.41 202.28 555.85 202.2ZM568.622 202.16C562.543 202.16 559.703 206.48 559.703 211.76C559.703 217 562.543 221.36 568.622 221.36C574.743 221.36 577.543 217 577.543 211.76C577.543 206.48 574.743 202.16 568.622 202.16ZM568.622 221C565.383 221 561.983 219 561.983 211.76C561.983 204.52 565.383 202.52 568.622 202.52C571.863 202.52 575.223 204.52 575.223 211.76C575.223 219 571.863 221 568.622 221ZM595.95 218V202.16L592.07 202.88V203.2C593.95 203.2 593.95 203.24 593.95 205.68V216.76C593.39 218.52 591.99 220.32 589.15 220.32C586.83 220.32 584.27 219.08 584.27 215.28V202.16L580.11 202.88V203.2C582.35 203.2 582.35 203.2 582.35 205.96V215.4C582.35 220.56 586.11 221.36 588.71 221.36C591.59 221.36 593.51 219.56 593.95 217.6V220.88C593.95 220.88 593.91 221.52 594.79 221.32L597.99 220.8V220.48C596.31 220.28 595.95 219.92 595.95 218ZM614.847 218.44V208.84C614.847 204.04 612.207 202.16 608.847 202.16C606.327 202.16 603.927 204.04 603.167 206.24V202.16L599.167 202.84V203.16C600.847 203.16 601.167 203.76 601.167 205.16V218.44C601.167 220.48 601.087 220.2 599.567 220.64V221H604.807V220.64C603.367 220.28 603.167 220.64 603.167 218.44V206.84C603.807 205.56 605.367 203.24 607.927 203.24C611.207 203.24 612.887 205.48 612.887 209V218.44C612.887 220.48 612.807 220.24 611.287 220.68V221H616.487V220.68C615.087 220.32 614.847 220.64 614.847 218.44ZM632.998 215.8C632.998 218.6 630.678 220.44 628.118 220.44C624.398 220.44 621.678 217.04 621.678 210.8C621.678 204.04 625.718 202.52 628.118 202.52C630.678 202.52 632.998 204.72 632.998 207.44V215.8ZM634.958 218.6V191.8L630.958 192.48V192.84C632.598 192.84 632.998 193.52 632.998 194.92V203.88C631.678 202.84 630.038 202.16 627.958 202.16C622.878 202.16 619.038 205.56 619.038 211.56C619.038 216.4 621.158 221.36 627.358 221.36C629.438 221.36 631.798 220.4 632.998 218.68V220.6C632.998 220.6 632.998 221.52 634.118 221.32L636.998 220.72V220.4C635.398 220.56 634.958 220.56 634.958 218.6ZM139.371 238.816V267H148.512C156.969 267 161.871 261.824 161.871 252.898C161.871 243.992 156.949 238.816 148.512 238.816H139.371ZM142.047 241.238H148.355C155.289 241.238 159.156 245.418 159.156 252.918C159.156 260.398 155.289 264.578 148.355 264.578H142.047V241.238ZM183.023 264.578H168.668V253.758H182.301V251.375H168.668V241.238H183.023V238.816H166.012V267H183.023V264.578ZM185.777 259.344C186.07 264.188 190.211 267.449 196.109 267.449C202.34 267.449 206.324 264.207 206.324 259.266C206.324 255.34 203.941 253.172 198.277 251.746L195.23 250.965C191.09 249.91 189.332 248.484 189.332 246.062C189.332 242.957 192.223 240.789 196.129 240.789C200.133 240.789 202.945 242.898 203.199 246.082H205.875C205.719 241.609 201.695 238.367 196.207 238.367C190.66 238.367 186.559 241.609 186.559 246.16C186.559 249.871 188.883 252.078 194.098 253.406L197.594 254.305C201.773 255.359 203.59 256.922 203.59 259.559C203.59 262.723 200.562 265.027 196.344 265.027C191.93 265.027 188.746 262.723 188.453 259.344H185.777ZM212.887 267V238.816H210.23V267H212.887ZM241.383 255.555V252.84H229.977V255.184H238.727V256.18C238.727 261.492 235.133 264.969 229.684 264.969C223.648 264.969 219.762 260.184 219.762 252.742C219.762 245.398 223.57 240.848 229.684 240.848C233.98 240.848 237.281 243.27 238.434 247.293H241.207C240.152 241.902 235.602 238.367 229.684 238.367C221.988 238.367 217.027 244.012 217.027 252.742C217.027 261.629 222.047 267.449 229.684 267.449C237.008 267.449 241.383 262.996 241.383 255.555ZM248.336 267V243.445H248.473L265.055 267H267.633V238.816H264.996V262.352H264.859L248.336 238.816H245.699V267H248.336ZM291.423 263.28C290.983 264.24 289.903 266.2 287.063 266.2C284.783 266.2 283.343 264.88 283.343 262.56C283.343 259.76 286.103 258.12 291.423 256.8V263.28ZM295.263 266.04C293.583 266.04 293.583 263.8 293.583 263.8V256.16C293.583 251.4 292.663 248.16 289.183 248.16C289.183 248.16 287.303 248.12 285.663 248.92C283.543 250.08 282.743 251.4 282.543 251.88C282.343 252.36 282.463 252.96 282.823 253.4C283.343 254.04 284.223 254.08 284.823 253.56C285.423 253 285.503 252.08 284.983 251.48C284.703 251.16 284.383 251.04 284.023 250.96C283.823 250.92 284.143 250.04 285.983 249.16C289.623 247.64 291.423 250.2 291.423 254.28V256.44C284.743 258.2 281.343 259.56 281.343 263.2C281.343 267.4 285.863 267.36 285.863 267.36C288.623 267.36 290.903 265.96 291.423 263.88C291.423 267.56 294.183 267.36 294.183 267.36C295.863 267.36 296.703 265.92 296.903 264.76L296.583 264.64C296.303 266.04 295.263 266.04 295.263 266.04ZM313.636 264.44V254.84C313.636 250.04 310.996 248.16 307.636 248.16C305.116 248.16 302.716 250.04 301.956 252.24V248.16L297.956 248.84V249.16C299.636 249.16 299.956 249.76 299.956 251.16V264.44C299.956 266.48 299.876 266.2 298.356 266.64V267H303.596V266.64C302.156 266.28 301.956 266.64 301.956 264.44V252.84C302.596 251.56 304.156 249.24 306.716 249.24C309.996 249.24 311.676 251.48 311.676 255V264.44C311.676 266.48 311.596 266.24 310.076 266.68V267H315.276V266.68C313.876 266.32 313.636 266.64 313.636 264.44ZM331.787 261.8C331.787 264.6 329.467 266.44 326.907 266.44C323.187 266.44 320.467 263.04 320.467 256.8C320.467 250.04 324.507 248.52 326.907 248.52C329.467 248.52 331.787 250.72 331.787 253.44V261.8ZM333.747 264.6V237.8L329.747 238.48V238.84C331.387 238.84 331.787 239.52 331.787 240.92V249.88C330.467 248.84 328.827 248.16 326.747 248.16C321.667 248.16 317.827 251.56 317.827 257.56C317.827 262.4 319.947 267.36 326.147 267.36C328.227 267.36 330.587 266.4 331.787 264.68V266.6C331.787 266.6 331.787 267.52 332.907 267.32L335.787 266.72V266.4C334.187 266.56 333.747 266.56 333.747 264.6ZM350.895 267V238.816H348.238V267H350.895ZM358.805 267V243.445H358.941L375.523 267H378.102V238.816H375.465V262.352H375.328L358.805 238.816H356.168V267H358.805ZM386.031 267V243.445H386.168L402.75 267H405.328V238.816H402.691V262.352H402.555L386.031 238.816H383.395V267H386.031ZM422.281 238.367C414.43 238.367 409.488 243.992 409.488 252.918C409.488 261.844 414.43 267.449 422.281 267.449C430.152 267.449 435.094 261.844 435.094 252.918C435.094 243.992 430.133 238.367 422.281 238.367ZM422.281 240.848C428.453 240.848 432.359 245.516 432.359 252.918C432.359 260.301 428.453 264.969 422.281 264.969C416.109 264.969 412.223 260.301 412.223 252.918C412.223 245.516 416.109 240.848 422.281 240.848ZM449.215 267L459.762 238.816H456.949L447.945 263.68H447.828L438.844 238.816H436.012L446.559 267H449.215ZM478.609 267H481.422L470.895 238.816H468.238L457.691 267H460.523L463.648 258.367H475.484L478.609 267ZM469.508 242.117H469.625L474.684 256.062H464.449L469.508 242.117ZM490.621 267V241.238H499.938V238.816H478.648V241.238H487.945V267H490.621ZM505.973 267V238.816H503.316V267H505.973ZM522.906 238.367C515.055 238.367 510.113 243.992 510.113 252.918C510.113 261.844 515.055 267.449 522.906 267.449C530.777 267.449 535.719 261.844 535.719 252.918C535.719 243.992 530.758 238.367 522.906 238.367ZM522.906 240.848C529.078 240.848 532.984 245.516 532.984 252.918C532.984 260.301 529.078 264.969 522.906 264.969C516.734 264.969 512.848 260.301 512.848 252.918C512.848 245.516 516.734 240.848 522.906 240.848ZM542.516 267V243.445H542.652L559.234 267H561.812V238.816H559.176V262.352H559.039L542.516 238.816H539.879V267H542.516ZM569.389 265.88C569.389 265.08 568.749 264.48 568.029 264.48C567.269 264.48 566.709 265.08 566.709 265.88C566.709 266.6 567.269 267.2 568.029 267.2C568.749 267.2 569.389 266.6 569.389 265.88Z" fill="white"/>
<path d="M174.195 133H587.731V135H174.195V133ZM184.117 225H323.981V227H184.117V225Z" fill="white"/>
<path d="M598.822 230.474C603.564 236.651 601.056 245.558 596.026 251.319C592.804 255.01 586.77 257.835 582.169 259.624" stroke="white" stroke-linecap="round" stroke-linejoin="round"/>
<path d="M585.083 251.807C584.532 256.22 581.99 257.525 579.634 261.034C578.226 263.131 582.735 265.356 584.487 266.599" stroke="white" stroke-linecap="round" stroke-linejoin="round"/>
<path d="M126.839 183.242C115.06 181.716 103.724 182.024 92.6854 185.05C83.4949 187.568 73.6909 192.051 68.5809 202.612C65.2819 209.43 65.6596 219.719 72.752 224.08C80.0895 228.592 88.2933 229.643 95.7999 231.144C104.738 232.931 113.512 234.183 122.339 234.36C136.854 234.652 151.252 233.14 163.606 225.101C167.574 222.519 179.162 215.343 172.424 206.321C164.699 195.978 151.746 191.578 142.197 189.289C123.867 184.895 105.527 186.838 89.7694 195.08" stroke="white" stroke-linecap="round" stroke-linejoin="round"/>
</svg>
