<svg width="272" height="43" viewBox="0 0 272 43" fill="none" xmlns="http://www.w3.org/2000/svg">
<path d="M17.1248 35C11.4128 35 5.26875 31.544 5.26875 18.344C5.26875 5.192 11.4128 1.208 17.1248 1.208C22.7888 1.208 28.8848 5.192 28.8848 18.344C28.8848 31.544 22.7888 35 17.1248 35ZM17.1248 0.775997C6.56475 0.775997 2.48475 8.84 2.48475 18.344C2.48475 27.896 6.56475 35.432 17.1248 35.432C27.6848 35.432 31.7648 27.896 31.7648 18.344C31.7648 8.84 27.6848 0.775997 17.1248 0.775997ZM53.8084 31.4V12.392L49.1524 13.256V13.64C51.4084 13.64 51.4084 13.688 51.4084 16.616V29.912C50.7364 32.024 49.0564 34.184 45.6484 34.184C42.8644 34.184 39.7924 32.696 39.7924 28.136V12.392L34.8004 13.256V13.64C37.4884 13.64 37.4884 13.64 37.4884 16.952V28.28C37.4884 34.472 42.0004 35.432 45.1204 35.432C48.5764 35.432 50.8804 33.272 51.4084 30.92V34.856C51.4084 34.856 51.3604 35.624 52.4164 35.384L56.2564 34.76V34.376C54.2404 34.136 53.8084 33.704 53.8084 31.4ZM69.8606 12.44C67.1246 12.104 63.6206 14.504 62.6126 17V12.392L57.8126 13.208V13.592C59.8286 13.592 60.2126 14.264 60.2126 15.944V31.928C60.2126 34.376 60.1166 34.04 58.2926 34.568V35H64.5806V34.568C62.8526 34.136 62.6126 34.568 62.6126 31.928V17.96C63.8606 14.408 68.4206 12.632 67.9886 13.688C67.8446 14.12 67.8446 14.6 67.9886 15.032C68.4206 15.992 69.5246 16.424 70.4366 16.04C71.3966 15.608 71.8286 14.6 71.4446 13.64C71.1086 12.968 70.5326 12.536 69.8606 12.44ZM85.209 26.5781C85.5312 31.9062 90.0859 35.4941 96.5742 35.4941C103.428 35.4941 107.811 31.9277 107.811 26.4922C107.811 22.1738 105.189 19.7891 98.959 18.2207L95.6074 17.3613C91.0527 16.2012 89.1191 14.6328 89.1191 11.9688C89.1191 8.55273 92.2988 6.16797 96.5957 6.16797C101 6.16797 104.094 8.48828 104.373 11.9902H107.316C107.145 7.07031 102.719 3.50391 96.6816 3.50391C90.5801 3.50391 86.0684 7.07031 86.0684 12.0762C86.0684 16.1582 88.625 18.5859 94.3613 20.0469L98.207 21.0352C102.805 22.1953 104.803 23.9141 104.803 26.8145C104.803 30.2949 101.473 32.8301 96.832 32.8301C91.9766 32.8301 88.4746 30.2949 88.1523 26.5781H85.209ZM130.82 32.3359H115.029V20.4336H130.025V17.8125H115.029V6.66211H130.82V3.99805H112.107V35H130.82V32.3359ZM138.748 6.61914H146.418C150.93 6.61914 153.658 9.04688 153.658 13.1504C153.658 17.2969 151.037 19.7031 146.525 19.7031H138.748V6.61914ZM138.748 22.3027H146.525C146.676 22.3027 146.891 22.3027 146.998 22.3027L154.131 35H157.568L150.049 21.8301C154.195 20.7559 156.688 17.4473 156.688 13.0645C156.688 7.54297 152.82 3.99805 146.762 3.99805H135.826V35H138.748V22.3027ZM173.596 35L185.197 3.99805H182.104L172.199 31.3477H172.07L162.188 3.99805H159.072L170.674 35H173.596ZM191.514 35V3.99805H188.592V35H191.514ZM209.883 35.4941C216.607 35.4941 221.355 31.8633 222.451 25.8262H219.508C218.584 30.123 214.846 32.7656 209.904 32.7656C203.309 32.7656 199.076 27.5879 199.076 19.4238C199.076 11.3672 203.309 6.23242 209.883 6.23242C214.695 6.23242 218.648 9.36914 219.508 13.8379H222.451C221.613 7.7793 216.436 3.50391 209.883 3.50391C201.461 3.50391 196.068 9.71289 196.068 19.4238C196.068 29.2422 201.439 35.4941 209.883 35.4941ZM245.504 32.3359H229.713V20.4336H244.709V17.8125H229.713V6.66211H245.504V3.99805H226.791V35H245.504V32.3359ZM248.533 26.5781C248.855 31.9062 253.41 35.4941 259.898 35.4941C266.752 35.4941 271.135 31.9277 271.135 26.4922C271.135 22.1738 268.514 19.7891 262.283 18.2207L258.932 17.3613C254.377 16.2012 252.443 14.6328 252.443 11.9688C252.443 8.55273 255.623 6.16797 259.92 6.16797C264.324 6.16797 267.418 8.48828 267.697 11.9902H270.641C270.469 7.07031 266.043 3.50391 260.006 3.50391C253.904 3.50391 249.393 7.07031 249.393 12.0762C249.393 16.1582 251.949 18.5859 257.686 20.0469L261.531 21.0352C266.129 22.1953 268.127 23.9141 268.127 26.8145C268.127 30.2949 264.797 32.8301 260.156 32.8301C255.301 32.8301 251.799 30.2949 251.477 26.5781H248.533Z" fill="white"/>
<path d="M0.46875 39.8H72.5006V42.2H0.46875V39.8Z" fill="white"/>
</svg>
