<svg width="253" height="406" viewBox="0 0 253 406" fill="none" xmlns="http://www.w3.org/2000/svg">
<path d="M9.51933 11.704L4.59133 8.484C-0.196672 5.376 3.30333 1.288 6.32733 1.288C11.1713 1.288 11.6473 2.996 11.6473 7.028H11.9273V2.324C11.9273 2.324 9.65933 1.036 6.32733 1.036C2.93933 1.036 1.56733 3.248 1.56733 3.248C-0.420672 6.832 3.21933 9.1 4.56333 10.136L9.51933 13.44C12.6833 15.596 12.4593 21 6.94333 21C2.40733 21 1.51133 19.572 1.51133 14.448H1.28733V19.824C1.28733 19.824 3.27533 21.252 6.97133 21.252C11.1433 21.252 12.2073 18.956 12.2073 18.956C13.0473 17.388 13.3273 14.224 9.51933 11.704ZM21.5307 7.812C17.2747 7.812 15.2867 10.836 15.2867 14.532C15.2867 18.2 17.2747 21.252 21.5307 21.252C25.8147 21.252 27.7747 18.2 27.7747 14.532C27.7747 10.836 25.8147 7.812 21.5307 7.812ZM21.5307 21C19.2627 21 16.8827 19.6 16.8827 14.532C16.8827 9.464 19.2627 8.064 21.5307 8.064C23.7987 8.064 26.1507 9.464 26.1507 14.532C26.1507 19.6 23.7987 21 21.5307 21ZM47.0717 19.208V12.488C47.0717 9.128 45.6437 7.812 43.2637 7.812C41.4437 7.812 39.9877 9.212 39.5397 10.836C39.1477 8.68 37.8597 7.812 35.8997 7.812C34.1357 7.812 32.6797 9.1 32.2037 10.668V7.812L29.4037 8.288V8.512C30.5797 8.512 30.8037 8.932 30.8037 9.912V19.208C30.8037 20.636 30.7477 20.44 29.6837 20.748V21H33.3517V20.748C32.3437 20.496 32.2037 20.748 32.2037 19.208V11.088C32.5957 10.192 33.4637 8.568 35.2557 8.568C37.5797 8.568 38.3077 10.136 38.3077 12.6V19.208C38.3077 20.636 38.2517 20.468 37.1877 20.776V21H40.8277V20.776C39.8477 20.524 39.6797 20.748 39.6797 19.208V12.488C39.6797 11.984 39.6517 11.508 39.5957 11.116C39.9597 10.22 40.8557 8.568 42.6477 8.568C44.9437 8.568 45.6997 10.136 45.6997 12.6V19.208C45.6997 20.636 45.6437 20.468 44.5797 20.776V21H48.2197V20.776C47.2397 20.524 47.0717 20.748 47.0717 19.208ZM56.1205 7.812C51.8645 7.812 49.8765 10.836 49.8765 14.532C49.8765 18.2 51.8645 21.252 56.1205 21.252C60.4045 21.252 62.3645 18.2 62.3645 14.532C62.3645 10.836 60.4045 7.812 56.1205 7.812ZM56.1205 21C53.8525 21 51.4725 19.6 51.4725 14.532C51.4725 9.464 53.8525 8.064 56.1205 8.064C58.3885 8.064 60.7405 9.464 60.7405 14.532C60.7405 19.6 58.3885 21 56.1205 21ZM70.8535 14.448L68.0255 12.684C65.5895 11.144 65.2255 8.064 68.6975 8.064C72.3375 8.064 73.0095 10.136 73.0095 12.432H73.2335V8.736C73.2335 8.736 71.9175 7.812 68.6975 7.812C65.8135 7.812 65.1975 9.604 65.1975 9.604C64.4695 11.424 65.0015 12.516 67.6335 14.448L70.4615 16.156C72.5895 17.556 73.6815 21 69.7335 21C65.7015 21 65.2255 18.816 65.2255 16.212H65.0015V20.3C65.0015 20.3 66.3455 21.252 69.7335 21.252C72.0575 21.252 72.9255 19.992 72.9255 19.992C74.2135 18.172 73.4295 16.044 70.8535 14.448ZM85.082 1.27148H83.2227V14.1094C83.2227 18.3613 86.1074 21.3145 90.8516 21.3145C95.5957 21.3145 98.4941 18.3613 98.4941 14.1094V1.27148H96.6211V14C96.6211 17.3086 94.4746 19.5781 90.8516 19.5781C87.2422 19.5781 85.082 17.3086 85.082 14V1.27148ZM104.018 21V4.51172H104.113L115.721 21H117.525V1.27148H115.68V17.7461H115.584L104.018 1.27148H102.172V21H104.018ZM138.881 19.3047H128.832V11.7305H138.375V10.0625H128.832V2.9668H138.881V1.27148H126.973V21H138.881V19.3047ZM150.229 21.3145C151.596 21.3145 152.812 21.0684 153.906 20.6035L155.889 23.3105H157.994L155.424 19.7832C157.83 18.0742 159.197 15.0527 159.197 11.1426C159.197 4.89453 155.725 0.957031 150.229 0.957031C144.732 0.957031 141.273 4.89453 141.273 11.1426C141.273 17.3906 144.719 21.3145 150.229 21.3145ZM150.229 19.5781C145.922 19.5781 143.188 16.3105 143.188 11.1426C143.188 5.96094 145.908 2.69336 150.229 2.69336C154.549 2.69336 157.27 5.96094 157.27 11.1426C157.27 14.3555 156.217 16.8711 154.33 18.2793L152.375 15.5996H150.27L152.826 19.1133C152.047 19.4141 151.172 19.5781 150.229 19.5781ZM163.969 1.27148H162.109V14.1094C162.109 18.3613 164.994 21.3145 169.738 21.3145C174.482 21.3145 177.381 18.3613 177.381 14.1094V1.27148H175.508V14C175.508 17.3086 173.361 19.5781 169.738 19.5781C166.129 19.5781 163.969 17.3086 163.969 14V1.27148ZM182.918 21V1.27148H181.059V21H182.918ZM186.609 1.27148V21H188.469V13.5625H193.309C197.068 13.5625 199.652 11.0742 199.652 7.41016C199.652 3.74609 197.096 1.27148 193.322 1.27148H186.609ZM188.469 2.93945H192.885C195.934 2.93945 197.738 4.60742 197.738 7.41016C197.738 10.2129 195.92 11.8945 192.885 11.8945H188.469V2.93945ZM210.494 0.957031C204.998 0.957031 201.539 4.89453 201.539 11.1426C201.539 17.3906 204.998 21.3145 210.494 21.3145C216.004 21.3145 219.463 17.3906 219.463 11.1426C219.463 4.89453 215.99 0.957031 210.494 0.957031ZM210.494 2.69336C214.814 2.69336 217.549 5.96094 217.549 11.1426C217.549 16.3105 214.814 19.5781 210.494 19.5781C206.174 19.5781 203.453 16.3105 203.453 11.1426C203.453 5.96094 206.174 2.69336 210.494 2.69336ZM238.011 17.36C238.011 19.32 236.387 20.608 234.595 20.608C231.991 20.608 230.087 18.228 230.087 13.86C230.087 9.128 232.915 8.064 234.595 8.064C236.387 8.064 238.011 9.604 238.011 11.508V17.36ZM239.383 19.32V0.559999L236.583 1.036V1.288C237.731 1.288 238.011 1.764 238.011 2.744V9.016C237.087 8.288 235.939 7.812 234.483 7.812C230.927 7.812 228.239 10.192 228.239 14.392C228.239 17.78 229.723 21.252 234.063 21.252C235.519 21.252 237.171 20.58 238.011 19.376V20.72C238.011 20.72 238.011 21.364 238.795 21.224L240.811 20.804V20.58C239.691 20.692 239.383 20.692 239.383 19.32ZM248.26 20.692C245.74 20.692 243.78 19.068 243.78 14.28H252.768C252.768 9.828 250.22 7.812 247.756 7.812C244.704 7.812 242.128 10.36 242.128 14.7C242.128 18.816 244.592 21.252 247.896 21.252C250.752 21.252 252.208 18.956 252.348 17.78L252.18 17.752C251.844 19.208 250.136 20.692 248.26 20.692ZM243.78 14C243.78 9.66 246.188 8.064 247.756 8.064C248.876 8.064 251.368 9.38 251.368 14H243.78ZM53.5215 53.3145C57.8008 53.3145 60.8223 51.0039 61.5195 47.1621H59.6465C59.0586 49.8965 56.6797 51.5781 53.5352 51.5781C49.3379 51.5781 46.6445 48.2832 46.6445 43.0879C46.6445 37.9609 49.3379 34.6934 53.5215 34.6934C56.584 34.6934 59.0996 36.6895 59.6465 39.5332H61.5195C60.9863 35.6777 57.6914 32.957 53.5215 32.957C48.1621 32.957 44.7305 36.9082 44.7305 43.0879C44.7305 49.3359 48.1484 53.3145 53.5215 53.3145ZM66.1406 34.9395H71.0215C73.8926 34.9395 75.6289 36.4844 75.6289 39.0957C75.6289 41.7344 73.9609 43.2656 71.0898 43.2656H66.1406V34.9395ZM66.1406 44.9199H71.0898C71.1855 44.9199 71.3223 44.9199 71.3906 44.9199L75.9297 53H78.1172L73.332 44.6191C75.9707 43.9355 77.5566 41.8301 77.5566 39.041C77.5566 35.5273 75.0957 33.2715 71.2402 33.2715H64.2812V53H66.1406V44.9199ZM92.5137 51.3047H82.4648V43.7305H92.0078V42.0625H82.4648V34.9668H92.5137V33.2715H80.6055V53H92.5137V51.3047ZM108.811 53H110.779L103.41 33.2715H101.551L94.168 53H96.1504L98.3379 46.957H106.623L108.811 53ZM102.439 35.582H102.521L106.062 45.3438H98.8984L102.439 35.582ZM117.219 53V34.9668H123.74V33.2715H108.838V34.9668H115.346V53H117.219ZM127.965 53V33.2715H126.105V53H127.965ZM139.367 53L146.75 33.2715H144.781L138.479 50.6758H138.396L132.107 33.2715H130.125L137.508 53H139.367ZM156.799 32.957C151.303 32.957 147.844 36.8945 147.844 43.1426C147.844 49.3906 151.303 53.3145 156.799 53.3145C162.309 53.3145 165.768 49.3906 165.768 43.1426C165.768 36.8945 162.295 32.957 156.799 32.957ZM156.799 34.6934C161.119 34.6934 163.854 37.9609 163.854 43.1426C163.854 48.3105 161.119 51.5781 156.799 51.5781C152.479 51.5781 149.758 48.3105 149.758 43.1426C149.758 37.9609 152.479 34.6934 156.799 34.6934ZM167.723 47.6406C167.928 51.0312 170.826 53.3145 174.955 53.3145C179.316 53.3145 182.105 51.0449 182.105 47.5859C182.105 44.8379 180.438 43.3203 176.473 42.3223L174.34 41.7754C171.441 41.0371 170.211 40.0391 170.211 38.3438C170.211 36.1699 172.234 34.6523 174.969 34.6523C177.771 34.6523 179.74 36.1289 179.918 38.3574H181.791C181.682 35.2266 178.865 32.957 175.023 32.957C171.141 32.957 168.27 35.2266 168.27 38.4121C168.27 41.0098 169.896 42.5547 173.547 43.4844L175.994 44.1133C178.92 44.8516 180.191 45.9453 180.191 47.791C180.191 50.0059 178.072 51.6191 175.119 51.6191C172.029 51.6191 169.801 50.0059 169.596 47.6406H167.723ZM198.544 40.064V40.288C201.792 40.232 200.14 44.824 200.14 44.824L197.9 51.236L193.924 42.64C193.924 42.64 192.72 40.288 194.876 40.288V40.064H189.892V40.288C190.34 40.344 191.404 40.568 192.076 42.024C192.076 42.024 192.3 42.248 197.256 53L195.8 57.2C195.464 58.124 194.932 58.712 194.82 58.236C194.764 58.012 194.568 57.732 194.288 57.62C193.784 57.396 193.196 57.62 192.944 58.152C192.748 58.656 192.944 59.244 193.476 59.496C193.84 59.664 194.372 59.58 194.652 59.356C194.932 59.132 195.576 58.6 195.996 57.284L200.392 44.88C201.876 40.708 202.52 40.288 203.892 40.288V40.064H198.544ZM57.1992 83.3047H47.1504V75.7305H56.6934V74.0625H47.1504V66.9668H57.1992V65.2715H45.291V85H57.1992V83.3047ZM59.127 79.6406C59.332 83.0312 62.2305 85.3145 66.3594 85.3145C70.7207 85.3145 73.5098 83.0449 73.5098 79.5859C73.5098 76.8379 71.8418 75.3203 67.877 74.3223L65.7441 73.7754C62.8457 73.0371 61.6152 72.0391 61.6152 70.3438C61.6152 68.1699 63.6387 66.6523 66.373 66.6523C69.1758 66.6523 71.1445 68.1289 71.3223 70.3574H73.1953C73.0859 67.2266 70.2695 64.957 66.4277 64.957C62.5449 64.957 59.6738 67.2266 59.6738 70.4121C59.6738 73.0098 61.3008 74.5547 64.9512 75.4844L67.3984 76.1133C70.3242 76.8516 71.5957 77.9453 71.5957 79.791C71.5957 82.0059 69.4766 83.6191 66.5234 83.6191C63.4336 83.6191 61.2051 82.0059 61 79.6406H59.127ZM83.1621 85V66.9668H89.6836V65.2715H74.7812V66.9668H81.2891V85H83.1621ZM93.9082 66.9395H98.7891C101.66 66.9395 103.396 68.4844 103.396 71.0957C103.396 73.7344 101.729 75.2656 98.8574 75.2656H93.9082V66.9395ZM93.9082 76.9199H98.8574C98.9531 76.9199 99.0898 76.9199 99.1582 76.9199L103.697 85H105.885L101.1 76.6191C103.738 75.9355 105.324 73.8301 105.324 71.041C105.324 67.5273 102.863 65.2715 99.0078 65.2715H92.0488V85H93.9082V76.9199ZM121.484 85H123.453L116.084 65.2715H114.225L106.842 85H108.824L111.012 78.957H119.297L121.484 85ZM115.113 67.582H115.195L118.736 77.3438H111.572L115.113 67.582ZM129.893 85V66.9668H136.414V65.2715H121.512V66.9668H128.02V85H129.893ZM150.688 83.3047H140.639V75.7305H150.182V74.0625H140.639V66.9668H150.688V65.2715H138.779V85H150.688V83.3047ZM170.129 76.9883V75.0879H162.145V76.7285H168.27V77.4258C168.27 81.1445 165.754 83.5781 161.939 83.5781C157.715 83.5781 154.994 80.2285 154.994 75.0195C154.994 69.8789 157.66 66.6934 161.939 66.6934C164.947 66.6934 167.258 68.3887 168.064 71.2051H170.006C169.268 67.4316 166.082 64.957 161.939 64.957C156.553 64.957 153.08 68.9082 153.08 75.0195C153.08 81.2402 156.594 85.3145 161.939 85.3145C167.066 85.3145 170.129 82.1973 170.129 76.9883ZM186.098 85H188.066L180.697 65.2715H178.838L171.455 85H173.438L175.625 78.957H183.91L186.098 85ZM179.727 67.582H179.809L183.35 77.3438H176.186L179.727 67.582ZM189.283 79.6406C189.488 83.0312 192.387 85.3145 196.516 85.3145C200.877 85.3145 203.666 83.0449 203.666 79.5859C203.666 76.8379 201.998 75.3203 198.033 74.3223L195.9 73.7754C193.002 73.0371 191.771 72.0391 191.771 70.3438C191.771 68.1699 193.795 66.6523 196.529 66.6523C199.332 66.6523 201.301 68.1289 201.479 70.3574H203.352C203.242 67.2266 200.426 64.957 196.584 64.957C192.701 64.957 189.83 67.2266 189.83 70.4121C189.83 73.0098 191.457 74.5547 195.107 75.4844L197.555 76.1133C200.48 76.8516 201.752 77.9453 201.752 79.791C201.752 82.0059 199.633 83.6191 196.68 83.6191C193.59 83.6191 191.361 82.0059 191.156 79.6406H189.283ZM43.9948 103.812L41.2228 104.288V104.512C42.3988 104.512 42.5948 104.904 42.5948 105.884V115.208C42.5948 116.636 42.5388 116.44 41.4748 116.748V117H45.1428V116.748C44.1348 116.496 43.9948 116.748 43.9948 115.208V103.812ZM43.9668 100.452C43.9668 99.892 43.5188 99.472 43.0148 99.472C42.4828 99.472 42.0908 99.892 42.0908 100.452C42.0908 100.956 42.4828 101.376 43.0148 101.376C43.5188 101.376 43.9668 100.956 43.9668 100.452ZM57.491 115.208V108.488C57.491 105.128 55.643 103.812 53.291 103.812C51.527 103.812 49.847 105.128 49.315 106.668V103.812L46.515 104.288V104.512C47.691 104.512 47.915 104.932 47.915 105.912V115.208C47.915 116.636 47.859 116.44 46.795 116.748V117H50.463V116.748C49.455 116.496 49.315 116.748 49.315 115.208V107.088C49.763 106.192 50.855 104.568 52.647 104.568C54.943 104.568 56.119 106.136 56.119 108.6V115.208C56.119 116.636 56.063 116.468 54.999 116.776V117H58.639V116.776C57.659 116.524 57.491 116.748 57.491 115.208ZM70.1967 113.36C70.1967 115.32 68.5727 116.608 66.7807 116.608C64.1767 116.608 62.2727 114.228 62.2727 109.86C62.2727 105.128 65.1007 104.064 66.7807 104.064C68.5727 104.064 70.1967 105.604 70.1967 107.508V113.36ZM71.5687 115.32V96.56L68.7687 97.036V97.288C69.9167 97.288 70.1967 97.764 70.1967 98.744V105.016C69.2727 104.288 68.1247 103.812 66.6687 103.812C63.1127 103.812 60.4247 106.192 60.4247 110.392C60.4247 113.78 61.9087 117.252 66.2487 117.252C67.7047 117.252 69.3567 116.58 70.1967 115.376V116.72C70.1967 116.72 70.1967 117.364 70.9807 117.224L72.9967 116.804V116.58C71.8767 116.692 71.5687 116.692 71.5687 115.32ZM80.4453 116.692C77.9253 116.692 75.9653 115.068 75.9653 110.28H84.9533C84.9533 105.828 82.4053 103.812 79.9413 103.812C76.8893 103.812 74.3133 106.36 74.3133 110.7C74.3133 114.816 76.7773 117.252 80.0813 117.252C82.9373 117.252 84.3933 114.956 84.5333 113.78L84.3653 113.752C84.0293 115.208 82.3213 116.692 80.4453 116.692ZM75.9653 110C75.9653 105.66 78.3733 104.064 79.9413 104.064C81.0613 104.064 83.5533 105.38 83.5533 110H75.9653ZM92.8782 117C90.7782 117 89.4342 115.516 89.3502 113.36V107.956C89.4622 105.8 90.8062 104.456 92.8782 104.456C95.4542 104.456 97.3582 106.808 97.3582 111.176C97.3582 115.908 94.5582 117 92.8782 117ZM93.4102 103.812C91.8702 103.812 90.1622 104.568 89.3502 105.884V103.812L86.5502 104.288V104.512C87.7262 104.512 87.9502 104.932 87.9502 105.912V122.628C87.9502 124.056 87.8942 123.86 86.8302 124.168V124.42H90.4982V124.168C89.4902 123.916 89.3502 124.168 89.3502 122.628V115.992C90.2742 116.748 91.4502 117.252 92.9902 117.252C96.5462 117.252 99.2062 114.844 99.2062 110.644C99.2062 107.284 97.7222 103.812 93.4102 103.812ZM107.734 116.692C105.214 116.692 103.254 115.068 103.254 110.28H112.242C112.242 105.828 109.694 103.812 107.23 103.812C104.178 103.812 101.602 106.36 101.602 110.7C101.602 114.816 104.066 117.252 107.37 117.252C110.226 117.252 111.682 114.956 111.822 113.78L111.654 113.752C111.318 115.208 109.61 116.692 107.734 116.692ZM103.254 110C103.254 105.66 105.662 104.064 107.23 104.064C108.35 104.064 110.842 105.38 110.842 110H103.254ZM124.647 115.208V108.488C124.647 105.128 122.799 103.812 120.447 103.812C118.683 103.812 117.003 105.128 116.471 106.668V103.812L113.671 104.288V104.512C114.847 104.512 115.071 104.932 115.071 105.912V115.208C115.071 116.636 115.015 116.44 113.951 116.748V117H117.619V116.748C116.611 116.496 116.471 116.748 116.471 115.208V107.088C116.919 106.192 118.011 104.568 119.803 104.568C122.099 104.568 123.275 106.136 123.275 108.6V115.208C123.275 116.636 123.219 116.468 122.155 116.776V117H125.795V116.776C124.815 116.524 124.647 116.748 124.647 115.208ZM137.353 113.36C137.353 115.32 135.729 116.608 133.937 116.608C131.333 116.608 129.429 114.228 129.429 109.86C129.429 105.128 132.257 104.064 133.937 104.064C135.729 104.064 137.353 105.604 137.353 107.508V113.36ZM138.725 115.32V96.56L135.925 97.036V97.288C137.073 97.288 137.353 97.764 137.353 98.744V105.016C136.429 104.288 135.281 103.812 133.825 103.812C130.269 103.812 127.581 106.192 127.581 110.392C127.581 113.78 129.065 117.252 133.405 117.252C134.861 117.252 136.513 116.58 137.353 115.376V116.72C137.353 116.72 137.353 117.364 138.137 117.224L140.153 116.804V116.58C139.033 116.692 138.725 116.692 138.725 115.32ZM144.046 103.812L141.274 104.288V104.512C142.45 104.512 142.646 104.904 142.646 105.884V115.208C142.646 116.636 142.59 116.44 141.526 116.748V117H145.194V116.748C144.186 116.496 144.046 116.748 144.046 115.208V103.812ZM144.018 100.452C144.018 99.892 143.57 99.472 143.066 99.472C142.534 99.472 142.142 99.892 142.142 100.452C142.142 100.956 142.534 101.376 143.066 101.376C143.57 101.376 144.018 100.956 144.018 100.452ZM153.426 116.692C150.906 116.692 148.946 115.068 148.946 110.28H157.934C157.934 105.828 155.386 103.812 152.922 103.812C149.87 103.812 147.294 106.36 147.294 110.7C147.294 114.816 149.758 117.252 153.062 117.252C155.918 117.252 157.374 114.956 157.514 113.78L157.346 113.752C157.01 115.208 155.302 116.692 153.426 116.692ZM148.946 110C148.946 105.66 151.354 104.064 152.922 104.064C154.042 104.064 156.534 105.38 156.534 110H148.946ZM170.339 115.208V108.488C170.339 105.128 168.491 103.812 166.139 103.812C164.375 103.812 162.695 105.128 162.163 106.668V103.812L159.363 104.288V104.512C160.539 104.512 160.763 104.932 160.763 105.912V115.208C160.763 116.636 160.707 116.44 159.643 116.748V117H163.311V116.748C162.303 116.496 162.163 116.748 162.163 115.208V107.088C162.611 106.192 163.703 104.568 165.495 104.568C167.791 104.568 168.967 106.136 168.967 108.6V115.208C168.967 116.636 168.911 116.468 167.847 116.776V117H171.487V116.776C170.507 116.524 170.339 116.748 170.339 115.208ZM177.696 116.496C176.436 116.496 175.512 115.768 175.512 112.884V104.316H178.76L178.816 104.064H175.512V99.668L174.112 99.836V104.064H172.656L172.684 104.316H174.112V112.968C174.112 116.356 175.288 117.252 177.136 117.252C178.508 117.252 179.348 116.3 179.572 115.152L179.404 115.096C179.208 115.852 178.508 116.496 177.696 116.496ZM187.168 116.692C184.648 116.692 182.688 115.068 182.688 110.28H191.676C191.676 105.828 189.128 103.812 186.664 103.812C183.612 103.812 181.036 106.36 181.036 110.7C181.036 114.816 183.5 117.252 186.804 117.252C189.66 117.252 191.116 114.956 191.256 113.78L191.088 113.752C190.752 115.208 189.044 116.692 187.168 116.692ZM182.688 110C182.688 105.66 185.096 104.064 186.664 104.064C187.784 104.064 190.276 105.38 190.276 110H182.688ZM199.965 110.448L197.137 108.684C194.701 107.144 194.337 104.064 197.809 104.064C201.449 104.064 202.121 106.136 202.121 108.432H202.345V104.736C202.345 104.736 201.029 103.812 197.809 103.812C194.925 103.812 194.309 105.604 194.309 105.604C193.581 107.424 194.113 108.516 196.745 110.448L199.573 112.156C201.701 113.556 202.793 117 198.845 117C194.813 117 194.337 114.816 194.337 112.212H194.113V116.3C194.113 116.3 195.457 117.252 198.845 117.252C201.169 117.252 202.037 115.992 202.037 115.992C203.325 114.172 202.541 112.044 199.965 110.448ZM207.342 116.216C207.342 115.656 206.894 115.236 206.39 115.236C205.858 115.236 205.466 115.656 205.466 116.216C205.466 116.72 205.858 117.14 206.39 117.14C206.894 117.14 207.342 116.72 207.342 116.216ZM29.4093 143.26C29.4093 148.748 24.8453 149 23.6973 149C21.0373 149 16.1093 148.636 16.1093 139.144C16.1093 129.904 20.9533 129.288 23.6973 129.288C25.0133 129.288 29.4093 129.54 29.4093 135H29.6613L29.9133 130.744C28.1493 129.316 26.5813 129.036 23.6973 129.036C18.0693 129.036 13.9813 132.116 13.9813 139.144C13.9813 146.032 18.0693 149.252 23.6973 149.252C26.6933 149.252 27.8413 148.888 29.9133 147.516L29.6613 143.26H29.4093ZM38.6016 135.84C37.0056 135.644 34.9616 137.044 34.3736 138.5V135.812L31.5736 136.288V136.512C32.7496 136.512 32.9736 136.904 32.9736 137.884V147.208C32.9736 148.636 32.9176 148.44 31.8536 148.748V149H35.5216V148.748C34.5136 148.496 34.3736 148.748 34.3736 147.208V139.06C35.1016 136.988 37.7616 135.952 37.5096 136.568C37.4256 136.82 37.4256 137.1 37.5096 137.352C37.7616 137.912 38.4056 138.164 38.9376 137.94C39.4976 137.688 39.7496 137.1 39.5256 136.54C39.3296 136.148 38.9936 135.896 38.6016 135.84ZM47.3184 148.692C44.7984 148.692 42.8384 147.068 42.8384 142.28H51.8264C51.8264 137.828 49.2784 135.812 46.8144 135.812C43.7624 135.812 41.1864 138.36 41.1864 142.7C41.1864 146.816 43.6504 149.252 46.9544 149.252C49.8104 149.252 51.2664 146.956 51.4064 145.78L51.2384 145.752C50.9024 147.208 49.1944 148.692 47.3184 148.692ZM42.8384 142C42.8384 137.66 45.2464 136.064 46.8144 136.064C47.9344 136.064 50.4264 137.38 50.4264 142H42.8384ZM61.1513 146.396C60.8433 147.068 60.0873 148.44 58.0993 148.44C56.5033 148.44 55.4953 147.516 55.4953 145.892C55.4953 143.932 57.4273 142.784 61.1513 141.86V146.396ZM63.8393 148.328C62.6633 148.328 62.6633 146.76 62.6633 146.76V141.412C62.6633 138.08 62.0193 135.812 59.5833 135.812C59.5833 135.812 58.2673 135.784 57.1193 136.344C55.6353 137.156 55.0753 138.08 54.9353 138.416C54.7953 138.752 54.8793 139.172 55.1313 139.48C55.4953 139.928 56.1113 139.956 56.5313 139.592C56.9513 139.2 57.0073 138.556 56.6433 138.136C56.4473 137.912 56.2233 137.828 55.9713 137.772C55.8313 137.744 56.0553 137.128 57.3433 136.512C59.8913 135.448 61.1513 137.24 61.1513 140.096V141.608C56.4753 142.84 54.0953 143.792 54.0953 146.34C54.0953 149.28 57.2593 149.252 57.2593 149.252C59.1913 149.252 60.7873 148.272 61.1513 146.816C61.1513 149.392 63.0833 149.252 63.0833 149.252C64.2593 149.252 64.8473 148.244 64.9873 147.432L64.7633 147.348C64.5673 148.328 63.8393 148.328 63.8393 148.328ZM83.392 147.208V140.488C83.392 137.128 81.964 135.812 79.584 135.812C77.764 135.812 76.308 137.212 75.86 138.836C75.468 136.68 74.18 135.812 72.22 135.812C70.456 135.812 69 137.1 68.524 138.668V135.812L65.724 136.288V136.512C66.9 136.512 67.124 136.932 67.124 137.912V147.208C67.124 148.636 67.068 148.44 66.004 148.748V149H69.672V148.748C68.664 148.496 68.524 148.748 68.524 147.208V139.088C68.916 138.192 69.784 136.568 71.576 136.568C73.9 136.568 74.628 138.136 74.628 140.6V147.208C74.628 148.636 74.572 148.468 73.508 148.776V149H77.148V148.776C76.168 148.524 76 148.748 76 147.208V140.488C76 139.984 75.972 139.508 75.916 139.116C76.28 138.22 77.176 136.568 78.968 136.568C81.264 136.568 82.02 138.136 82.02 140.6V147.208C82.02 148.636 81.964 148.468 80.9 148.776V149H84.54V148.776C83.56 148.524 83.392 148.748 83.392 147.208ZM92.4408 135.812C88.1848 135.812 86.1968 138.836 86.1968 142.532C86.1968 146.2 88.1848 149.252 92.4408 149.252C96.7248 149.252 98.6848 146.2 98.6848 142.532C98.6848 138.836 96.7248 135.812 92.4408 135.812ZM92.4408 149C90.1728 149 87.7928 147.6 87.7928 142.532C87.7928 137.464 90.1728 136.064 92.4408 136.064C94.7088 136.064 97.0608 137.464 97.0608 142.532C97.0608 147.6 94.7088 149 92.4408 149ZM107.174 142.448L104.346 140.684C101.91 139.144 101.546 136.064 105.018 136.064C108.658 136.064 109.33 138.136 109.33 140.432H109.554V136.736C109.554 136.736 108.238 135.812 105.018 135.812C102.134 135.812 101.518 137.604 101.518 137.604C100.79 139.424 101.322 140.516 103.954 142.448L106.782 144.156C108.91 145.556 110.002 149 106.054 149C102.022 149 101.546 146.816 101.546 144.212H101.322V148.3C101.322 148.3 102.666 149.252 106.054 149.252C108.378 149.252 109.246 147.992 109.246 147.992C110.534 146.172 109.75 144.044 107.174 142.448ZM135.673 147.208V140.488C135.673 137.128 134.245 135.812 131.865 135.812C130.045 135.812 128.589 137.212 128.141 138.836C127.749 136.68 126.461 135.812 124.501 135.812C122.737 135.812 121.281 137.1 120.805 138.668V135.812L118.005 136.288V136.512C119.181 136.512 119.405 136.932 119.405 137.912V147.208C119.405 148.636 119.349 148.44 118.285 148.748V149H121.953V148.748C120.945 148.496 120.805 148.748 120.805 147.208V139.088C121.197 138.192 122.065 136.568 123.857 136.568C126.181 136.568 126.909 138.136 126.909 140.6V147.208C126.909 148.636 126.853 148.468 125.789 148.776V149H129.429V148.776C128.449 148.524 128.281 148.748 128.281 147.208V140.488C128.281 139.984 128.253 139.508 128.197 139.116C128.561 138.22 129.457 136.568 131.249 136.568C133.545 136.568 134.301 138.136 134.301 140.6V147.208C134.301 148.636 134.245 148.468 133.181 148.776V149H136.821V148.776C135.841 148.524 135.673 148.748 135.673 147.208ZM145.534 146.396C145.226 147.068 144.47 148.44 142.482 148.44C140.886 148.44 139.878 147.516 139.878 145.892C139.878 143.932 141.81 142.784 145.534 141.86V146.396ZM148.222 148.328C147.046 148.328 147.046 146.76 147.046 146.76V141.412C147.046 138.08 146.402 135.812 143.966 135.812C143.966 135.812 142.65 135.784 141.502 136.344C140.018 137.156 139.458 138.08 139.318 138.416C139.178 138.752 139.262 139.172 139.514 139.48C139.878 139.928 140.494 139.956 140.914 139.592C141.334 139.2 141.39 138.556 141.026 138.136C140.83 137.912 140.606 137.828 140.354 137.772C140.214 137.744 140.438 137.128 141.726 136.512C144.274 135.448 145.534 137.24 145.534 140.096V141.608C140.858 142.84 138.478 143.792 138.478 146.34C138.478 149.28 141.642 149.252 141.642 149.252C143.574 149.252 145.17 148.272 145.534 146.816C145.534 149.392 147.466 149.252 147.466 149.252C148.642 149.252 149.23 148.244 149.37 147.432L149.146 147.348C148.95 148.328 148.222 148.328 148.222 148.328ZM157.219 135.84C155.623 135.644 153.579 137.044 152.991 138.5V135.812L150.191 136.288V136.512C151.367 136.512 151.591 136.904 151.591 137.884V147.208C151.591 148.636 151.535 148.44 150.471 148.748V149H154.139V148.748C153.131 148.496 152.991 148.748 152.991 147.208V139.06C153.719 136.988 156.379 135.952 156.127 136.568C156.043 136.82 156.043 137.1 156.127 137.352C156.379 137.912 157.023 138.164 157.555 137.94C158.115 137.688 158.367 137.1 158.143 136.54C157.947 136.148 157.611 135.896 157.219 135.84ZM170.64 145.444C170.276 146.788 169.016 148.636 166.328 148.636C164.284 148.636 161.708 146.956 161.708 142.504C161.708 136.876 165.152 136.064 166.384 136.064C168.988 136.064 169.94 137.212 169.66 137.128C169.52 137.072 169.24 137.072 168.96 137.184C168.484 137.408 168.316 137.968 168.568 138.472C168.764 138.92 169.408 139.032 169.856 138.836C170.192 138.64 170.36 138.332 170.36 137.968C170.36 137.492 169.884 135.812 166.384 135.812C162.604 135.812 160.028 138.976 160.028 142.616C160.028 147.572 163.472 149.252 166.048 149.252C169.436 149.252 170.612 146.844 170.836 145.472L170.64 145.444ZM179.987 146.396C179.679 147.068 178.923 148.44 176.935 148.44C175.339 148.44 174.331 147.516 174.331 145.892C174.331 143.932 176.263 142.784 179.987 141.86V146.396ZM182.675 148.328C181.499 148.328 181.499 146.76 181.499 146.76V141.412C181.499 138.08 180.855 135.812 178.419 135.812C178.419 135.812 177.103 135.784 175.955 136.344C174.471 137.156 173.911 138.08 173.771 138.416C173.631 138.752 173.715 139.172 173.967 139.48C174.331 139.928 174.947 139.956 175.367 139.592C175.787 139.2 175.843 138.556 175.479 138.136C175.283 137.912 175.059 137.828 174.807 137.772C174.667 137.744 174.891 137.128 176.179 136.512C178.727 135.448 179.987 137.24 179.987 140.096V141.608C175.311 142.84 172.931 143.792 172.931 146.34C172.931 149.28 176.095 149.252 176.095 149.252C178.027 149.252 179.623 148.272 179.987 146.816C179.987 149.392 181.919 149.252 181.919 149.252C183.095 149.252 183.683 148.244 183.823 147.432L183.599 147.348C183.403 148.328 182.675 148.328 182.675 148.328ZM191.42 142.448L188.592 140.684C186.156 139.144 185.792 136.064 189.264 136.064C192.904 136.064 193.576 138.136 193.576 140.432H193.8V136.736C193.8 136.736 192.484 135.812 189.264 135.812C186.38 135.812 185.764 137.604 185.764 137.604C185.036 139.424 185.568 140.516 188.2 142.448L191.028 144.156C193.156 145.556 194.248 149 190.3 149C186.268 149 185.792 146.816 185.792 144.212H185.568V148.3C185.568 148.3 186.912 149.252 190.3 149.252C192.624 149.252 193.492 147.992 193.492 147.992C194.78 146.172 193.996 144.044 191.42 142.448ZM198.546 147.516C198.182 147.124 197.566 147.124 197.174 147.516C196.81 147.908 196.782 148.552 197.202 148.888C197.454 149.084 197.65 149.084 197.874 149.14C198.322 149.224 198.966 150.82 196.81 152.248L196.866 152.332C198.014 151.744 198.266 151.184 198.574 150.68C199.19 149.532 199.134 148.076 198.546 147.516ZM209.489 128.56L206.689 129.036V129.288C207.865 129.288 208.089 129.68 208.089 130.66V147.208C208.089 148.636 208.033 148.44 206.969 148.748V149H210.637V148.748C209.629 148.496 209.489 148.748 209.489 147.208V128.56ZM219.772 146.396C219.464 147.068 218.708 148.44 216.72 148.44C215.124 148.44 214.116 147.516 214.116 145.892C214.116 143.932 216.048 142.784 219.772 141.86V146.396ZM222.46 148.328C221.284 148.328 221.284 146.76 221.284 146.76V141.412C221.284 138.08 220.64 135.812 218.204 135.812C218.204 135.812 216.888 135.784 215.74 136.344C214.256 137.156 213.696 138.08 213.556 138.416C213.416 138.752 213.5 139.172 213.752 139.48C214.116 139.928 214.732 139.956 215.152 139.592C215.572 139.2 215.628 138.556 215.264 138.136C215.068 137.912 214.844 137.828 214.592 137.772C214.452 137.744 214.676 137.128 215.964 136.512C218.512 135.448 219.772 137.24 219.772 140.096V141.608C215.096 142.84 212.716 143.792 212.716 146.34C212.716 149.28 215.88 149.252 215.88 149.252C217.812 149.252 219.408 148.272 219.772 146.816C219.772 149.392 221.704 149.252 221.704 149.252C222.88 149.252 223.468 148.244 223.608 147.432L223.384 147.348C223.188 148.328 222.46 148.328 222.46 148.328ZM231.205 142.448L228.377 140.684C225.941 139.144 225.577 136.064 229.049 136.064C232.689 136.064 233.361 138.136 233.361 140.432H233.585V136.736C233.585 136.736 232.269 135.812 229.049 135.812C226.165 135.812 225.549 137.604 225.549 137.604C224.821 139.424 225.353 140.516 227.985 142.448L230.813 144.156C232.941 145.556 234.033 149 230.085 149C226.053 149 225.577 146.816 225.577 144.212H225.353V148.3C225.353 148.3 226.697 149.252 230.085 149.252C232.409 149.252 233.277 147.992 233.277 147.992C234.565 146.172 233.781 144.044 231.205 142.448ZM52.2001 177.444C51.8361 178.788 50.5761 180.636 47.8881 180.636C45.8441 180.636 43.2681 178.956 43.2681 174.504C43.2681 168.876 46.7121 168.064 47.9441 168.064C50.5481 168.064 51.5001 169.212 51.2201 169.128C51.0801 169.072 50.8001 169.072 50.5201 169.184C50.0441 169.408 49.8761 169.968 50.1281 170.472C50.3241 170.92 50.9681 171.032 51.4161 170.836C51.7521 170.64 51.9201 170.332 51.9201 169.968C51.9201 169.492 51.4441 167.812 47.9441 167.812C44.1641 167.812 41.5881 170.976 41.5881 174.616C41.5881 179.572 45.0321 181.252 47.6081 181.252C50.9961 181.252 52.1721 178.844 52.3961 177.472L52.2001 177.444ZM60.7357 167.812C56.4798 167.812 54.4918 170.836 54.4918 174.532C54.4918 178.2 56.4798 181.252 60.7357 181.252C65.0198 181.252 66.9798 178.2 66.9798 174.532C66.9798 170.836 65.0198 167.812 60.7357 167.812ZM60.7357 181C58.4678 181 56.0878 179.6 56.0878 174.532C56.0878 169.464 58.4678 168.064 60.7357 168.064C63.0038 168.064 65.3558 169.464 65.3558 174.532C65.3558 179.6 63.0038 181 60.7357 181ZM79.5848 179.208V172.488C79.5848 169.128 77.7368 167.812 75.3848 167.812C73.6208 167.812 71.9408 169.128 71.4088 170.668V167.812L68.6088 168.288V168.512C69.7848 168.512 70.0088 168.932 70.0088 169.912V179.208C70.0088 180.636 69.9528 180.44 68.8888 180.748V181H72.5568V180.748C71.5488 180.496 71.4088 180.748 71.4088 179.208V171.088C71.8568 170.192 72.9488 168.568 74.7408 168.568C77.0368 168.568 78.2128 170.136 78.2128 172.6V179.208C78.2128 180.636 78.1568 180.468 77.0928 180.776V181H80.7328V180.776C79.7528 180.524 79.5848 180.748 79.5848 179.208ZM89.5668 168.064V168.288C92.6468 168.288 91.3868 171.536 91.3868 171.536L88.6428 179.292L84.4428 170.08C84.4428 170.08 83.4908 168.288 85.6468 168.288V168.064H80.6348V168.288C81.0828 168.344 81.9228 168.316 82.6228 169.632C82.6228 169.632 83.0988 170.5 88.0548 181.252H88.1948L91.8068 171.144C92.9548 168.316 93.4308 168.288 94.9148 168.288V168.064H89.5668ZM101.227 180.692C98.7066 180.692 96.7466 179.068 96.7466 174.28H105.735C105.735 169.828 103.187 167.812 100.723 167.812C97.6706 167.812 95.0946 170.36 95.0946 174.7C95.0946 178.816 97.5586 181.252 100.863 181.252C103.719 181.252 105.175 178.956 105.315 177.78L105.147 177.752C104.811 179.208 103.103 180.692 101.227 180.692ZM96.7466 174C96.7466 169.66 99.1546 168.064 100.723 168.064C101.843 168.064 104.335 169.38 104.335 174H96.7466ZM114.275 167.84C112.679 167.644 110.635 169.044 110.047 170.5V167.812L107.247 168.288V168.512C108.423 168.512 108.647 168.904 108.647 169.884V179.208C108.647 180.636 108.591 180.44 107.527 180.748V181H111.195V180.748C110.187 180.496 110.047 180.748 110.047 179.208V171.06C110.775 168.988 113.435 167.952 113.183 168.568C113.099 168.82 113.099 169.1 113.183 169.352C113.435 169.912 114.079 170.164 114.611 169.94C115.171 169.688 115.423 169.1 115.199 168.54C115.003 168.148 114.667 167.896 114.275 167.84ZM121.368 180.496C120.108 180.496 119.184 179.768 119.184 176.884V168.316H122.432L122.488 168.064H119.184V163.668L117.784 163.836V168.064H116.328L116.356 168.316H117.784V176.968C117.784 180.356 118.96 181.252 120.808 181.252C122.18 181.252 123.02 180.3 123.244 179.152L123.076 179.096C122.88 179.852 122.18 180.496 121.368 180.496ZM127.284 167.812L124.512 168.288V168.512C125.688 168.512 125.884 168.904 125.884 169.884V179.208C125.884 180.636 125.828 180.44 124.764 180.748V181H128.432V180.748C127.424 180.496 127.284 180.748 127.284 179.208V167.812ZM127.256 164.452C127.256 163.892 126.808 163.472 126.304 163.472C125.772 163.472 125.38 163.892 125.38 164.452C125.38 164.956 125.772 165.376 126.304 165.376C126.808 165.376 127.256 164.956 127.256 164.452ZM147.472 179.208V172.488C147.472 169.128 146.044 167.812 143.664 167.812C141.844 167.812 140.388 169.212 139.94 170.836C139.548 168.68 138.26 167.812 136.3 167.812C134.536 167.812 133.08 169.1 132.604 170.668V167.812L129.804 168.288V168.512C130.98 168.512 131.204 168.932 131.204 169.912V179.208C131.204 180.636 131.148 180.44 130.084 180.748V181H133.752V180.748C132.744 180.496 132.604 180.748 132.604 179.208V171.088C132.996 170.192 133.864 168.568 135.656 168.568C137.98 168.568 138.708 170.136 138.708 172.6V179.208C138.708 180.636 138.652 180.468 137.588 180.776V181H141.228V180.776C140.248 180.524 140.08 180.748 140.08 179.208V172.488C140.08 171.984 140.052 171.508 139.996 171.116C140.36 170.22 141.256 168.568 143.048 168.568C145.344 168.568 146.1 170.136 146.1 172.6V179.208C146.1 180.636 146.044 180.468 144.98 180.776V181H148.62V180.776C147.64 180.524 147.472 180.748 147.472 179.208ZM156.521 167.812C152.265 167.812 150.277 170.836 150.277 174.532C150.277 178.2 152.265 181.252 156.521 181.252C160.805 181.252 162.765 178.2 162.765 174.532C162.765 170.836 160.805 167.812 156.521 167.812ZM156.521 181C154.253 181 151.873 179.6 151.873 174.532C151.873 169.464 154.253 168.064 156.521 168.064C158.789 168.064 161.141 169.464 161.141 174.532C161.141 179.6 158.789 181 156.521 181ZM171.254 174.448L168.426 172.684C165.99 171.144 165.626 168.064 169.098 168.064C172.738 168.064 173.41 170.136 173.41 172.432H173.634V168.736C173.634 168.736 172.318 167.812 169.098 167.812C166.214 167.812 165.598 169.604 165.598 169.604C164.87 171.424 165.402 172.516 168.034 174.448L170.862 176.156C172.99 177.556 174.082 181 170.134 181C166.102 181 165.626 178.816 165.626 176.212H165.402V180.3C165.402 180.3 166.746 181.252 170.134 181.252C172.458 181.252 173.326 179.992 173.326 179.992C174.614 178.172 173.83 176.044 171.254 174.448ZM188.945 180.692C186.425 180.692 184.465 179.068 184.465 174.28H193.453C193.453 169.828 190.905 167.812 188.441 167.812C185.389 167.812 182.813 170.36 182.813 174.7C182.813 178.816 185.277 181.252 188.581 181.252C191.437 181.252 192.893 178.956 193.033 177.78L192.865 177.752C192.529 179.208 190.821 180.692 188.945 180.692ZM184.465 174C184.465 169.66 186.873 168.064 188.441 168.064C189.561 168.064 192.053 169.38 192.053 174H184.465ZM205.858 179.208V172.488C205.858 169.128 204.01 167.812 201.658 167.812C199.894 167.812 198.214 169.128 197.682 170.668V167.812L194.882 168.288V168.512C196.058 168.512 196.282 168.932 196.282 169.912V179.208C196.282 180.636 196.226 180.44 195.162 180.748V181H198.83V180.748C197.822 180.496 197.682 180.748 197.682 179.208V171.088C198.13 170.192 199.222 168.568 201.014 168.568C203.31 168.568 204.486 170.136 204.486 172.6V179.208C204.486 180.636 204.43 180.468 203.366 180.776V181H207.006V180.776C206.026 180.524 205.858 180.748 205.858 179.208ZM52.2403 212.692C49.7203 212.692 47.7603 211.068 47.7603 206.28H56.7483C56.7483 201.828 54.2003 199.812 51.7363 199.812C48.6843 199.812 46.1083 202.36 46.1083 206.7C46.1083 210.816 48.5723 213.252 51.8763 213.252C54.7323 213.252 56.1883 210.956 56.3283 209.78L56.1603 209.752C55.8243 211.208 54.1163 212.692 52.2403 212.692ZM47.7603 206C47.7603 201.66 50.1683 200.064 51.7363 200.064C52.8563 200.064 55.3483 201.38 55.3483 206H47.7603ZM68.185 211.068L64.685 206.028L65.609 204.684C68.493 200.204 69.389 200.288 70.957 200.288V200.064H65.357V200.288C68.241 200.288 67.261 201.576 65.413 204.516L64.545 205.804L62.221 202.444C61.017 200.708 61.689 200.288 62.389 200.288V200.064H57.713V200.288C58.749 200.288 59.085 200.568 60.261 202.052L63.789 207.12L62.893 208.436C59.785 213.028 58.665 212.776 57.461 212.776V213H62.501V212.776C60.373 212.776 60.625 212.3 63.089 208.576L63.957 207.316L66.393 210.788C66.393 210.788 67.905 212.776 66.365 212.776V213H70.845V212.776C70.313 212.72 69.305 212.748 68.185 211.068ZM78.0169 213C75.9169 213 74.5729 211.516 74.4889 209.36V203.956C74.6009 201.8 75.9449 200.456 78.0169 200.456C80.5929 200.456 82.4969 202.808 82.4969 207.176C82.4969 211.908 79.6969 213 78.0169 213ZM78.5489 199.812C77.0089 199.812 75.3009 200.568 74.4889 201.884V199.812L71.6889 200.288V200.512C72.8649 200.512 73.0889 200.932 73.0889 201.912V218.628C73.0889 220.056 73.0329 219.86 71.9689 220.168V220.42H75.6369V220.168C74.6289 219.916 74.4889 220.168 74.4889 218.628V211.992C75.4129 212.748 76.5889 213.252 78.1289 213.252C81.6849 213.252 84.3449 210.844 84.3449 206.644C84.3449 203.284 82.8609 199.812 78.5489 199.812ZM92.8731 212.692C90.3531 212.692 88.3931 211.068 88.3931 206.28H97.3811C97.3811 201.828 94.8331 199.812 92.3691 199.812C89.3171 199.812 86.7411 202.36 86.7411 206.7C86.7411 210.816 89.2051 213.252 92.5091 213.252C95.3651 213.252 96.8211 210.956 96.9611 209.78L96.7931 209.752C96.4571 211.208 94.7491 212.692 92.8731 212.692ZM88.3931 206C88.3931 201.66 90.8011 200.064 92.3691 200.064C93.4891 200.064 95.9811 201.38 95.9811 206H88.3931ZM105.922 199.84C104.326 199.644 102.282 201.044 101.694 202.5V199.812L98.894 200.288V200.512C100.07 200.512 100.294 200.904 100.294 201.884V211.208C100.294 212.636 100.238 212.44 99.174 212.748V213H102.842V212.748C101.834 212.496 101.694 212.748 101.694 211.208V203.06C102.422 200.988 105.082 199.952 104.83 200.568C104.746 200.82 104.746 201.1 104.83 201.352C105.082 201.912 105.726 202.164 106.258 201.94C106.818 201.688 107.07 201.1 106.846 200.54C106.65 200.148 106.314 199.896 105.922 199.84ZM111.083 199.812L108.311 200.288V200.512C109.487 200.512 109.683 200.904 109.683 201.884V211.208C109.683 212.636 109.627 212.44 108.563 212.748V213H112.231V212.748C111.223 212.496 111.083 212.748 111.083 211.208V199.812ZM111.055 196.452C111.055 195.892 110.607 195.472 110.103 195.472C109.571 195.472 109.179 195.892 109.179 196.452C109.179 196.956 109.571 197.376 110.103 197.376C110.607 197.376 111.055 196.956 111.055 196.452ZM120.463 212.692C117.943 212.692 115.983 211.068 115.983 206.28H124.971C124.971 201.828 122.423 199.812 119.959 199.812C116.907 199.812 114.331 202.36 114.331 206.7C114.331 210.816 116.795 213.252 120.099 213.252C122.955 213.252 124.411 210.956 124.551 209.78L124.383 209.752C124.047 211.208 122.339 212.692 120.463 212.692ZM115.983 206C115.983 201.66 118.391 200.064 119.959 200.064C121.079 200.064 123.571 201.38 123.571 206H115.983ZM137.376 211.208V204.488C137.376 201.128 135.528 199.812 133.176 199.812C131.412 199.812 129.732 201.128 129.2 202.668V199.812L126.4 200.288V200.512C127.576 200.512 127.8 200.932 127.8 201.912V211.208C127.8 212.636 127.744 212.44 126.68 212.748V213H130.348V212.748C129.34 212.496 129.2 212.748 129.2 211.208V203.088C129.648 202.192 130.74 200.568 132.532 200.568C134.828 200.568 136.004 202.136 136.004 204.6V211.208C136.004 212.636 135.948 212.468 134.884 212.776V213H138.524V212.776C137.544 212.524 137.376 212.748 137.376 211.208ZM151.061 209.444C150.697 210.788 149.437 212.636 146.749 212.636C144.705 212.636 142.129 210.956 142.129 206.504C142.129 200.876 145.573 200.064 146.805 200.064C149.409 200.064 150.361 201.212 150.081 201.128C149.941 201.072 149.661 201.072 149.381 201.184C148.905 201.408 148.737 201.968 148.989 202.472C149.185 202.92 149.829 203.032 150.277 202.836C150.613 202.64 150.781 202.332 150.781 201.968C150.781 201.492 150.305 199.812 146.805 199.812C143.025 199.812 140.449 202.976 140.449 206.616C140.449 211.572 143.893 213.252 146.469 213.252C149.857 213.252 151.033 210.844 151.257 209.472L151.061 209.444ZM155.817 199.812L153.045 200.288V200.512C154.221 200.512 154.417 200.904 154.417 201.884V211.208C154.417 212.636 154.361 212.44 153.297 212.748V213H156.965V212.748C155.957 212.496 155.817 212.748 155.817 211.208V199.812ZM155.789 196.452C155.789 195.892 155.341 195.472 154.837 195.472C154.305 195.472 153.913 195.892 153.913 196.452C153.913 196.956 154.305 197.376 154.837 197.376C155.341 197.376 155.789 196.956 155.789 196.452ZM166.233 210.396C165.925 211.068 165.169 212.44 163.181 212.44C161.585 212.44 160.577 211.516 160.577 209.892C160.577 207.932 162.509 206.784 166.233 205.86V210.396ZM168.921 212.328C167.745 212.328 167.745 210.76 167.745 210.76V205.412C167.745 202.08 167.101 199.812 164.665 199.812C164.665 199.812 163.349 199.784 162.201 200.344C160.717 201.156 160.157 202.08 160.017 202.416C159.877 202.752 159.961 203.172 160.213 203.48C160.577 203.928 161.193 203.956 161.613 203.592C162.033 203.2 162.089 202.556 161.725 202.136C161.529 201.912 161.305 201.828 161.053 201.772C160.913 201.744 161.137 201.128 162.425 200.512C164.973 199.448 166.233 201.24 166.233 204.096V205.608C161.557 206.84 159.177 207.792 159.177 210.34C159.177 213.28 162.341 213.252 162.341 213.252C164.273 213.252 165.869 212.272 166.233 210.816C166.233 213.392 168.165 213.252 168.165 213.252C169.341 213.252 169.929 212.244 170.069 211.432L169.845 211.348C169.649 212.328 168.921 212.328 168.921 212.328ZM177.666 206.448L174.838 204.684C172.402 203.144 172.038 200.064 175.51 200.064C179.15 200.064 179.822 202.136 179.822 204.432H180.046V200.736C180.046 200.736 178.73 199.812 175.51 199.812C172.626 199.812 172.01 201.604 172.01 201.604C171.282 203.424 171.814 204.516 174.446 206.448L177.274 208.156C179.402 209.556 180.494 213 176.546 213C172.514 213 172.038 210.816 172.038 208.212H171.814V212.3C171.814 212.3 173.158 213.252 176.546 213.252C178.87 213.252 179.738 211.992 179.738 211.992C181.026 210.172 180.242 208.044 177.666 206.448ZM197.149 200.064V200.288C200.397 200.232 198.745 204.824 198.745 204.824L196.505 211.236L192.529 202.64C192.529 202.64 191.325 200.288 193.481 200.288V200.064H188.497V200.288C188.945 200.344 190.009 200.568 190.681 202.024C190.681 202.024 190.905 202.248 195.861 213L194.405 217.2C194.069 218.124 193.537 218.712 193.425 218.236C193.369 218.012 193.173 217.732 192.893 217.62C192.389 217.396 191.801 217.62 191.549 218.152C191.353 218.656 191.549 219.244 192.081 219.496C192.445 219.664 192.977 219.58 193.257 219.356C193.537 219.132 194.181 218.6 194.601 217.284L198.997 204.88C200.481 200.708 201.125 200.288 202.497 200.288V200.064H197.149ZM39.581 241.444C39.217 242.788 37.957 244.636 35.269 244.636C33.225 244.636 30.649 242.956 30.649 238.504C30.649 232.876 34.093 232.064 35.325 232.064C37.929 232.064 38.881 233.212 38.601 233.128C38.461 233.072 38.181 233.072 37.901 233.184C37.425 233.408 37.257 233.968 37.509 234.472C37.705 234.92 38.349 235.032 38.797 234.836C39.133 234.64 39.301 234.332 39.301 233.968C39.301 233.492 38.825 231.812 35.325 231.812C31.545 231.812 28.969 234.976 28.969 238.616C28.969 243.572 32.413 245.252 34.989 245.252C38.377 245.252 39.553 242.844 39.777 241.472L39.581 241.444ZM48.1166 231.812C43.8606 231.812 41.8726 234.836 41.8726 238.532C41.8726 242.2 43.8606 245.252 48.1166 245.252C52.4006 245.252 54.3606 242.2 54.3606 238.532C54.3606 234.836 52.4006 231.812 48.1166 231.812ZM48.1166 245C45.8486 245 43.4686 243.6 43.4686 238.532C43.4686 233.464 45.8486 232.064 48.1166 232.064C50.3846 232.064 52.7366 233.464 52.7366 238.532C52.7366 243.6 50.3846 245 48.1166 245ZM73.6576 243.208V236.488C73.6576 233.128 72.2296 231.812 69.8496 231.812C68.0296 231.812 66.5736 233.212 66.1256 234.836C65.7336 232.68 64.4456 231.812 62.4856 231.812C60.7216 231.812 59.2656 233.1 58.7896 234.668V231.812L55.9896 232.288V232.512C57.1656 232.512 57.3896 232.932 57.3896 233.912V243.208C57.3896 244.636 57.3336 244.44 56.2696 244.748V245H59.9376V244.748C58.9296 244.496 58.7896 244.748 58.7896 243.208V235.088C59.1816 234.192 60.0496 232.568 61.8416 232.568C64.1656 232.568 64.8936 234.136 64.8936 236.6V243.208C64.8936 244.636 64.8376 244.468 63.7736 244.776V245H67.4136V244.776C66.4336 244.524 66.2656 244.748 66.2656 243.208V236.488C66.2656 235.984 66.2376 235.508 66.1816 235.116C66.5456 234.22 67.4416 232.568 69.2336 232.568C71.5296 232.568 72.2856 234.136 72.2856 236.6V243.208C72.2856 244.636 72.2296 244.468 71.1656 244.776V245H74.8056V244.776C73.8256 244.524 73.6576 244.748 73.6576 243.208ZM86.5503 242.9V231.812L83.8343 232.316V232.54C85.1503 232.54 85.1503 232.568 85.1503 234.276V242.032C84.7583 243.264 83.7783 244.524 81.7903 244.524C80.1663 244.524 78.3743 243.656 78.3743 240.996V231.812L75.4623 232.316V232.54C77.0303 232.54 77.0303 232.54 77.0303 234.472V241.08C77.0303 244.692 79.6623 245.252 81.4823 245.252C83.4983 245.252 84.8423 243.992 85.1503 242.62V244.916C85.1503 244.916 85.1223 245.364 85.7383 245.224L87.9783 244.86V244.636C86.8023 244.496 86.5503 244.244 86.5503 242.9ZM99.7781 243.208V236.488C99.7781 233.128 97.9301 231.812 95.5781 231.812C93.8141 231.812 92.1341 233.128 91.6021 234.668V231.812L88.8021 232.288V232.512C89.9781 232.512 90.2021 232.932 90.2021 233.912V243.208C90.2021 244.636 90.1461 244.44 89.0821 244.748V245H92.7501V244.748C91.7421 244.496 91.6021 244.748 91.6021 243.208V235.088C92.0501 234.192 93.1421 232.568 94.9341 232.568C97.2301 232.568 98.4061 234.136 98.4061 236.6V243.208C98.4061 244.636 98.3501 244.468 97.2861 244.776V245H100.926V244.776C99.9461 244.524 99.7781 244.748 99.7781 243.208ZM105.204 231.812L102.432 232.288V232.512C103.608 232.512 103.804 232.904 103.804 233.884V243.208C103.804 244.636 103.748 244.44 102.684 244.748V245H106.352V244.748C105.344 244.496 105.204 244.748 105.204 243.208V231.812ZM105.176 228.452C105.176 227.892 104.728 227.472 104.224 227.472C103.692 227.472 103.3 227.892 103.3 228.452C103.3 228.956 103.692 229.376 104.224 229.376C104.728 229.376 105.176 228.956 105.176 228.452ZM119.288 241.444C118.924 242.788 117.664 244.636 114.976 244.636C112.932 244.636 110.356 242.956 110.356 238.504C110.356 232.876 113.8 232.064 115.032 232.064C117.636 232.064 118.588 233.212 118.308 233.128C118.168 233.072 117.888 233.072 117.608 233.184C117.132 233.408 116.964 233.968 117.216 234.472C117.412 234.92 118.056 235.032 118.504 234.836C118.84 234.64 119.008 234.332 119.008 233.968C119.008 233.492 118.532 231.812 115.032 231.812C111.252 231.812 108.676 234.976 108.676 238.616C108.676 243.572 112.12 245.252 114.696 245.252C118.084 245.252 119.26 242.844 119.484 241.472L119.288 241.444ZM128.636 242.396C128.328 243.068 127.572 244.44 125.584 244.44C123.988 244.44 122.98 243.516 122.98 241.892C122.98 239.932 124.912 238.784 128.636 237.86V242.396ZM131.324 244.328C130.148 244.328 130.148 242.76 130.148 242.76V237.412C130.148 234.08 129.504 231.812 127.068 231.812C127.068 231.812 125.752 231.784 124.604 232.344C123.12 233.156 122.56 234.08 122.42 234.416C122.28 234.752 122.364 235.172 122.616 235.48C122.98 235.928 123.596 235.956 124.016 235.592C124.436 235.2 124.492 234.556 124.128 234.136C123.932 233.912 123.708 233.828 123.456 233.772C123.316 233.744 123.54 233.128 124.828 232.512C127.376 231.448 128.636 233.24 128.636 236.096V237.608C123.96 238.84 121.58 239.792 121.58 242.34C121.58 245.28 124.744 245.252 124.744 245.252C126.676 245.252 128.272 244.272 128.636 242.816C128.636 245.392 130.568 245.252 130.568 245.252C131.744 245.252 132.332 244.244 132.472 243.432L132.248 243.348C132.052 244.328 131.324 244.328 131.324 244.328ZM150.876 243.208V236.488C150.876 233.128 149.448 231.812 147.068 231.812C145.248 231.812 143.792 233.212 143.344 234.836C142.952 232.68 141.664 231.812 139.704 231.812C137.94 231.812 136.484 233.1 136.008 234.668V231.812L133.208 232.288V232.512C134.384 232.512 134.608 232.932 134.608 233.912V243.208C134.608 244.636 134.552 244.44 133.488 244.748V245H137.156V244.748C136.148 244.496 136.008 244.748 136.008 243.208V235.088C136.4 234.192 137.268 232.568 139.06 232.568C141.384 232.568 142.112 234.136 142.112 236.6V243.208C142.112 244.636 142.056 244.468 140.992 244.776V245H144.632V244.776C143.652 244.524 143.484 244.748 143.484 243.208V236.488C143.484 235.984 143.456 235.508 143.4 235.116C143.764 234.22 144.66 232.568 146.452 232.568C148.748 232.568 149.504 234.136 149.504 236.6V243.208C149.504 244.636 149.448 244.468 148.384 244.776V245H152.024V244.776C151.044 244.524 150.876 244.748 150.876 243.208ZM159.925 231.812C155.669 231.812 153.681 234.836 153.681 238.532C153.681 242.2 155.669 245.252 159.925 245.252C164.209 245.252 166.169 242.2 166.169 238.532C166.169 234.836 164.209 231.812 159.925 231.812ZM159.925 245C157.657 245 155.277 243.6 155.277 238.532C155.277 233.464 157.657 232.064 159.925 232.064C162.193 232.064 164.545 233.464 164.545 238.532C164.545 243.6 162.193 245 159.925 245ZM174.658 238.448L171.83 236.684C169.394 235.144 169.03 232.064 172.502 232.064C176.142 232.064 176.814 234.136 176.814 236.432H177.038V232.736C177.038 232.736 175.722 231.812 172.502 231.812C169.618 231.812 169.002 233.604 169.002 233.604C168.274 235.424 168.806 236.516 171.438 238.448L174.266 240.156C176.394 241.556 177.486 245 173.538 245C169.506 245 169.03 242.816 169.03 240.212H168.806V244.3C168.806 244.3 170.15 245.252 173.538 245.252C175.862 245.252 176.73 243.992 176.73 243.992C178.018 242.172 177.234 240.044 174.658 238.448ZM186.07 239.641C186.275 243.031 189.174 245.314 193.303 245.314C197.664 245.314 200.453 243.045 200.453 239.586C200.453 236.838 198.785 235.32 194.82 234.322L192.688 233.775C189.789 233.037 188.559 232.039 188.559 230.344C188.559 228.17 190.582 226.652 193.316 226.652C196.119 226.652 198.088 228.129 198.266 230.357H200.139C200.029 227.227 197.213 224.957 193.371 224.957C189.488 224.957 186.617 227.227 186.617 230.412C186.617 233.01 188.244 234.555 191.895 235.484L194.342 236.113C197.268 236.852 198.539 237.945 198.539 239.791C198.539 242.006 196.42 243.619 193.467 243.619C190.377 243.619 188.148 242.006 187.943 239.641H186.07ZM205.047 225.271H203.188V238.109C203.188 242.361 206.072 245.314 210.816 245.314C215.561 245.314 218.459 242.361 218.459 238.109V225.271H216.586V238C216.586 241.309 214.439 243.578 210.816 243.578C207.207 243.578 205.047 241.309 205.047 238V225.271ZM21.8574 277V257.271H19.9844V266.049H8.44531V257.271H6.58594V277H8.44531V267.744H19.9844V277H21.8574ZM27.4219 277V257.271H25.5625V277H27.4219ZM30.1562 271.641C30.3613 275.031 33.2598 277.314 37.3887 277.314C41.75 277.314 44.5391 275.045 44.5391 271.586C44.5391 268.838 42.8711 267.32 38.9062 266.322L36.7734 265.775C33.875 265.037 32.6445 264.039 32.6445 262.344C32.6445 260.17 34.668 258.652 37.4023 258.652C40.2051 258.652 42.1738 260.129 42.3516 262.357H44.2246C44.1152 259.227 41.2988 256.957 37.457 256.957C33.5742 256.957 30.7031 259.227 30.7031 262.412C30.7031 265.01 32.3301 266.555 35.9805 267.484L38.4277 268.113C41.3535 268.852 42.625 269.945 42.625 271.791C42.625 274.006 40.5059 275.619 37.5527 275.619C34.4629 275.619 32.2344 274.006 32.0293 271.641H30.1562ZM54.1914 277V258.967H60.7129V257.271H45.8105V258.967H52.3184V277H54.1914ZM69.9277 256.957C64.4316 256.957 60.9727 260.895 60.9727 267.143C60.9727 273.391 64.4316 277.314 69.9277 277.314C75.4375 277.314 78.8965 273.391 78.8965 267.143C78.8965 260.895 75.4238 256.957 69.9277 256.957ZM69.9277 258.693C74.248 258.693 76.9824 261.961 76.9824 267.143C76.9824 272.311 74.248 275.578 69.9277 275.578C65.6074 275.578 62.8867 272.311 62.8867 267.143C62.8867 261.961 65.6074 258.693 69.9277 258.693ZM83.668 258.939H88.5488C91.4199 258.939 93.1562 260.484 93.1562 263.096C93.1562 265.734 91.4883 267.266 88.6172 267.266H83.668V258.939ZM83.668 268.92H88.6172C88.7129 268.92 88.8496 268.92 88.918 268.92L93.457 277H95.6445L90.8594 268.619C93.498 267.936 95.084 265.83 95.084 263.041C95.084 259.527 92.623 257.271 88.7676 257.271H81.8086V277H83.668V268.92ZM99.9922 277V257.271H98.1328V277H99.9922ZM116.795 277H118.764L111.395 257.271H109.535L102.152 277H104.135L106.322 270.957H114.607L116.795 277ZM110.424 259.582H110.506L114.047 269.344H106.883L110.424 259.582ZM133.886 274.396C133.578 275.068 132.822 276.44 130.834 276.44C129.238 276.44 128.23 275.516 128.23 273.892C128.23 271.932 130.162 270.784 133.886 269.86V274.396ZM136.574 276.328C135.398 276.328 135.398 274.76 135.398 274.76V269.412C135.398 266.08 134.754 263.812 132.318 263.812C132.318 263.812 131.002 263.784 129.854 264.344C128.37 265.156 127.81 266.08 127.67 266.416C127.53 266.752 127.614 267.172 127.866 267.48C128.23 267.928 128.846 267.956 129.266 267.592C129.686 267.2 129.742 266.556 129.378 266.136C129.182 265.912 128.958 265.828 128.706 265.772C128.566 265.744 128.79 265.128 130.078 264.512C132.626 263.448 133.886 265.24 133.886 268.096V269.608C129.21 270.84 126.83 271.792 126.83 274.34C126.83 277.28 129.994 277.252 129.994 277.252C131.926 277.252 133.522 276.272 133.886 274.816C133.886 277.392 135.818 277.252 135.818 277.252C136.994 277.252 137.582 276.244 137.722 275.432L137.498 275.348C137.302 276.328 136.574 276.328 136.574 276.328ZM150.284 276.496C149.024 276.496 148.1 275.768 148.1 272.884V264.316H151.348L151.404 264.064H148.1V259.668L146.7 259.836V264.064H145.244L145.272 264.316H146.7V272.968C146.7 276.356 147.876 277.252 149.724 277.252C151.096 277.252 151.936 276.3 152.16 275.152L151.992 275.096C151.796 275.852 151.096 276.496 150.284 276.496ZM160.008 263.84C158.412 263.644 156.368 265.044 155.78 266.5V263.812L152.98 264.288V264.512C154.156 264.512 154.38 264.904 154.38 265.884V275.208C154.38 276.636 154.324 276.44 153.26 276.748V277H156.928V276.748C155.92 276.496 155.78 276.748 155.78 275.208V267.06C156.508 264.988 159.168 263.952 158.916 264.568C158.832 264.82 158.832 265.1 158.916 265.352C159.168 265.912 159.812 266.164 160.344 265.94C160.904 265.688 161.156 265.1 160.932 264.54C160.736 264.148 160.4 263.896 160.008 263.84ZM169.077 274.396C168.769 275.068 168.013 276.44 166.025 276.44C164.429 276.44 163.421 275.516 163.421 273.892C163.421 271.932 165.353 270.784 169.077 269.86V274.396ZM171.765 276.328C170.589 276.328 170.589 274.76 170.589 274.76V269.412C170.589 266.08 169.945 263.812 167.509 263.812C167.509 263.812 166.193 263.784 165.045 264.344C163.561 265.156 163.001 266.08 162.861 266.416C162.721 266.752 162.805 267.172 163.057 267.48C163.421 267.928 164.037 267.956 164.457 267.592C164.877 267.2 164.933 266.556 164.569 266.136C164.373 265.912 164.149 265.828 163.897 265.772C163.757 265.744 163.981 265.128 165.269 264.512C167.817 263.448 169.077 265.24 169.077 268.096V269.608C164.401 270.84 162.021 271.792 162.021 274.34C162.021 277.28 165.185 277.252 165.185 277.252C167.117 277.252 168.713 276.272 169.077 274.816C169.077 277.392 171.009 277.252 171.009 277.252C172.185 277.252 172.773 276.244 172.913 275.432L172.689 275.348C172.493 276.328 171.765 276.328 171.765 276.328ZM181.51 264.064V264.288C184.59 264.288 183.33 267.536 183.33 267.536L180.586 275.292L176.386 266.08C176.386 266.08 175.434 264.288 177.59 264.288V264.064H172.578V264.288C173.026 264.344 173.866 264.316 174.566 265.632C174.566 265.632 175.042 266.5 179.998 277.252H180.138L183.75 267.144C184.898 264.316 185.374 264.288 186.858 264.288V264.064H181.51ZM189.306 261.768H189.502L195.83 257.68L194.178 257.288L189.306 261.768ZM193.17 276.692C190.65 276.692 188.69 275.068 188.69 270.28H197.678C197.678 265.828 195.13 263.812 192.666 263.812C189.614 263.812 187.038 266.36 187.038 270.7C187.038 274.816 189.502 277.252 192.806 277.252C195.662 277.252 197.118 274.956 197.258 273.78L197.09 273.752C196.754 275.208 195.046 276.692 193.17 276.692ZM188.69 270C188.69 265.66 191.098 264.064 192.666 264.064C193.786 264.064 196.278 265.38 196.278 270H188.69ZM205.967 270.448L203.139 268.684C200.703 267.144 200.339 264.064 203.811 264.064C207.451 264.064 208.123 266.136 208.123 268.432H208.347V264.736C208.347 264.736 207.031 263.812 203.811 263.812C200.927 263.812 200.311 265.604 200.311 265.604C199.583 267.424 200.115 268.516 202.747 270.448L205.575 272.156C207.703 273.556 208.795 277 204.847 277C200.815 277 200.339 274.816 200.339 272.212H200.115V276.3C200.115 276.3 201.459 277.252 204.847 277.252C207.171 277.252 208.039 275.992 208.039 275.992C209.327 274.172 208.543 272.044 205.967 270.448ZM227.382 273.36C227.382 275.32 225.758 276.608 223.966 276.608C221.362 276.608 219.458 274.228 219.458 269.86C219.458 265.128 222.286 264.064 223.966 264.064C225.758 264.064 227.382 265.604 227.382 267.508V273.36ZM228.754 275.32V256.56L225.954 257.036V257.288C227.102 257.288 227.382 257.764 227.382 258.744V265.016C226.458 264.288 225.31 263.812 223.854 263.812C220.298 263.812 217.61 266.192 217.61 270.392C217.61 273.78 219.094 277.252 223.434 277.252C224.89 277.252 226.542 276.58 227.382 275.376V276.72C227.382 276.72 227.382 277.364 228.166 277.224L230.182 276.804V276.58C229.062 276.692 228.754 276.692 228.754 275.32ZM237.631 276.692C235.111 276.692 233.151 275.068 233.151 270.28H242.139C242.139 265.828 239.591 263.812 237.127 263.812C234.075 263.812 231.499 266.36 231.499 270.7C231.499 274.816 233.963 277.252 237.267 277.252C240.123 277.252 241.579 274.956 241.719 273.78L241.551 273.752C241.215 275.208 239.507 276.692 237.631 276.692ZM233.151 270C233.151 265.66 235.559 264.064 237.127 264.064C238.247 264.064 240.739 265.38 240.739 270H233.151ZM11.9082 302.448L9.08023 300.684C6.64423 299.144 6.28023 296.064 9.75223 296.064C13.3922 296.064 14.0642 298.136 14.0642 300.432H14.2882V296.736C14.2882 296.736 12.9722 295.812 9.75223 295.812C6.86823 295.812 6.25223 297.604 6.25223 297.604C5.52423 299.424 6.05623 300.516 8.68823 302.448L11.5162 304.156C13.6442 305.556 14.7362 309 10.7882 309C6.75623 309 6.28023 306.816 6.28023 304.212H6.05623V308.3C6.05623 308.3 7.40023 309.252 10.7882 309.252C13.1122 309.252 13.9802 307.992 13.9802 307.992C15.2682 306.172 14.4842 304.044 11.9082 302.448ZM23.2338 295.812C18.9778 295.812 16.9898 298.836 16.9898 302.532C16.9898 306.2 18.9778 309.252 23.2338 309.252C27.5178 309.252 29.4778 306.2 29.4778 302.532C29.4778 298.836 27.5178 295.812 23.2338 295.812ZM23.2338 309C20.9658 309 18.5858 307.6 18.5858 302.532C18.5858 297.464 20.9658 296.064 23.2338 296.064C25.5018 296.064 27.8538 297.464 27.8538 302.532C27.8538 307.6 25.5018 309 23.2338 309ZM34.2428 288.56L31.4428 289.036V289.288C32.6188 289.288 32.8428 289.68 32.8428 290.66V307.208C32.8428 308.636 32.7868 308.44 31.7228 308.748V309H35.3908V308.748C34.3828 308.496 34.2428 308.748 34.2428 307.208V288.56ZM47.8863 306.9V295.812L45.1703 296.316V296.54C46.4863 296.54 46.4863 296.568 46.4863 298.276V306.032C46.0943 307.264 45.1143 308.524 43.1263 308.524C41.5023 308.524 39.7103 307.656 39.7103 304.996V295.812L36.7983 296.316V296.54C38.3663 296.54 38.3663 296.54 38.3663 298.472V305.08C38.3663 308.692 40.9983 309.252 42.8183 309.252C44.8343 309.252 46.1783 307.992 46.4863 306.62V308.916C46.4863 308.916 46.4583 309.364 47.0743 309.224L49.3143 308.86V308.636C48.1383 308.496 47.8863 308.244 47.8863 306.9ZM61.7021 305.444C61.3381 306.788 60.0781 308.636 57.3901 308.636C55.3461 308.636 52.7701 306.956 52.7701 302.504C52.7701 296.876 56.2141 296.064 57.4461 296.064C60.0501 296.064 61.0021 297.212 60.7221 297.128C60.5821 297.072 60.3021 297.072 60.0221 297.184C59.5461 297.408 59.3781 297.968 59.6301 298.472C59.8261 298.92 60.4701 299.032 60.9181 298.836C61.2541 298.64 61.4221 298.332 61.4221 297.968C61.4221 297.492 60.9461 295.812 57.4461 295.812C53.6661 295.812 51.0901 298.976 51.0901 302.616C51.0901 307.572 54.5341 309.252 57.1101 309.252C60.4981 309.252 61.6741 306.844 61.8981 305.472L61.7021 305.444ZM66.4577 295.812L63.6857 296.288V296.512C64.8617 296.512 65.0577 296.904 65.0577 297.884V307.208C65.0577 308.636 65.0017 308.44 63.9377 308.748V309H67.6057V308.748C66.5977 308.496 66.4577 308.748 66.4577 307.208V295.812ZM66.4297 292.452C66.4297 291.892 65.9817 291.472 65.4777 291.472C64.9457 291.472 64.5537 291.892 64.5537 292.452C64.5537 292.956 64.9457 293.376 65.4777 293.376C65.9817 293.376 66.4297 292.956 66.4297 292.452ZM76.0619 295.812C71.8059 295.812 69.8179 298.836 69.8179 302.532C69.8179 306.2 71.8059 309.252 76.0619 309.252C80.3459 309.252 82.3059 306.2 82.3059 302.532C82.3059 298.836 80.3459 295.812 76.0619 295.812ZM76.0619 309C73.7939 309 71.4139 307.6 71.4139 302.532C71.4139 297.464 73.7939 296.064 76.0619 296.064C78.3299 296.064 80.6819 297.464 80.6819 302.532C80.6819 307.6 78.3299 309 76.0619 309ZM94.911 307.208V300.488C94.911 297.128 93.063 295.812 90.711 295.812C88.947 295.812 87.267 297.128 86.735 298.668V295.812L83.935 296.288V296.512C85.111 296.512 85.335 296.932 85.335 297.912V307.208C85.335 308.636 85.279 308.44 84.215 308.748V309H87.883V308.748C86.875 308.496 86.735 308.748 86.735 307.208V299.088C87.183 298.192 88.275 296.568 90.067 296.568C92.363 296.568 93.539 298.136 93.539 300.6V307.208C93.539 308.636 93.483 308.468 92.419 308.776V309H96.059V308.776C95.079 308.524 94.911 308.748 94.911 307.208ZM103.893 308.692C101.373 308.692 99.4126 307.068 99.4126 302.28H108.401C108.401 297.828 105.853 295.812 103.389 295.812C100.337 295.812 97.7606 298.36 97.7606 302.7C97.7606 306.816 100.225 309.252 103.529 309.252C106.385 309.252 107.841 306.956 107.981 305.78L107.813 305.752C107.477 307.208 105.769 308.692 103.893 308.692ZM99.4126 302C99.4126 297.66 101.821 296.064 103.389 296.064C104.509 296.064 107.001 297.38 107.001 302H99.4126ZM116.689 302.448L113.861 300.684C111.425 299.144 111.061 296.064 114.533 296.064C118.173 296.064 118.845 298.136 118.845 300.432H119.069V296.736C119.069 296.736 117.753 295.812 114.533 295.812C111.649 295.812 111.033 297.604 111.033 297.604C110.305 299.424 110.837 300.516 113.469 302.448L116.297 304.156C118.425 305.556 119.517 309 115.569 309C111.537 309 111.061 306.816 111.061 304.212H110.837V308.3C110.837 308.3 112.181 309.252 115.569 309.252C117.893 309.252 118.761 307.992 118.761 307.992C120.049 306.172 119.265 304.044 116.689 302.448ZM130.629 293.768H130.825L137.153 289.68L135.501 289.288L130.629 293.768ZM138.777 306.9V295.812L136.061 296.316V296.54C137.377 296.54 137.377 296.568 137.377 298.276V306.032C136.985 307.264 136.005 308.524 134.017 308.524C132.393 308.524 130.601 307.656 130.601 304.996V295.812L127.689 296.316V296.54C129.257 296.54 129.257 296.54 129.257 298.472V305.08C129.257 308.692 131.889 309.252 133.709 309.252C135.725 309.252 137.069 307.992 137.377 306.62V308.916C137.377 308.916 137.349 309.364 137.965 309.224L140.205 308.86V308.636C139.029 308.496 138.777 308.244 138.777 306.9ZM152.005 307.208V300.488C152.005 297.128 150.157 295.812 147.805 295.812C146.041 295.812 144.361 297.128 143.829 298.668V295.812L141.029 296.288V296.512C142.205 296.512 142.429 296.932 142.429 297.912V307.208C142.429 308.636 142.373 308.44 141.309 308.748V309H144.977V308.748C143.969 308.496 143.829 308.748 143.829 307.208V299.088C144.277 298.192 145.369 296.568 147.161 296.568C149.457 296.568 150.633 298.136 150.633 300.6V307.208C150.633 308.636 150.577 308.468 149.513 308.776V309H153.153V308.776C152.173 308.524 152.005 308.748 152.005 307.208ZM157.43 295.812L154.658 296.288V296.512C155.834 296.512 156.03 296.904 156.03 297.884V307.208C156.03 308.636 155.974 308.44 154.91 308.748V309H158.578V308.748C157.57 308.496 157.43 308.748 157.43 307.208V295.812ZM157.402 292.452C157.402 291.892 156.954 291.472 156.45 291.472C155.918 291.472 155.526 291.892 155.526 292.452C155.526 292.956 155.918 293.376 156.45 293.376C156.954 293.376 157.402 292.956 157.402 292.452ZM171.515 305.444C171.151 306.788 169.891 308.636 167.203 308.636C165.159 308.636 162.583 306.956 162.583 302.504C162.583 296.876 166.027 296.064 167.259 296.064C169.863 296.064 170.815 297.212 170.535 297.128C170.395 297.072 170.115 297.072 169.835 297.184C169.359 297.408 169.191 297.968 169.443 298.472C169.639 298.92 170.283 299.032 170.731 298.836C171.067 298.64 171.235 298.332 171.235 297.968C171.235 297.492 170.759 295.812 167.259 295.812C163.479 295.812 160.903 298.976 160.903 302.616C160.903 307.572 164.347 309.252 166.923 309.252C170.311 309.252 171.487 306.844 171.711 305.472L171.515 305.444ZM180.862 306.396C180.554 307.068 179.798 308.44 177.81 308.44C176.214 308.44 175.206 307.516 175.206 305.892C175.206 303.932 177.138 302.784 180.862 301.86V306.396ZM183.55 308.328C182.374 308.328 182.374 306.76 182.374 306.76V301.412C182.374 298.08 181.73 295.812 179.294 295.812C179.294 295.812 177.978 295.784 176.83 296.344C175.346 297.156 174.786 298.08 174.646 298.416C174.506 298.752 174.59 299.172 174.842 299.48C175.206 299.928 175.822 299.956 176.242 299.592C176.662 299.2 176.718 298.556 176.354 298.136C176.158 297.912 175.934 297.828 175.682 297.772C175.542 297.744 175.766 297.128 177.054 296.512C179.602 295.448 180.862 297.24 180.862 300.096V301.608C176.186 302.84 173.806 303.792 173.806 306.34C173.806 309.28 176.97 309.252 176.97 309.252C178.902 309.252 180.498 308.272 180.862 306.816C180.862 309.392 182.794 309.252 182.794 309.252C183.97 309.252 184.558 308.244 184.698 307.432L184.474 307.348C184.278 308.328 183.55 308.328 183.55 308.328ZM192.295 302.448L189.467 300.684C187.031 299.144 186.667 296.064 190.139 296.064C193.779 296.064 194.451 298.136 194.451 300.432H194.675V296.736C194.675 296.736 193.359 295.812 190.139 295.812C187.255 295.812 186.639 297.604 186.639 297.604C185.911 299.424 186.443 300.516 189.075 302.448L191.903 304.156C194.031 305.556 195.123 309 191.175 309C187.143 309 186.667 306.816 186.667 304.212H186.443V308.3C186.443 308.3 187.787 309.252 191.175 309.252C193.499 309.252 194.367 307.992 194.367 307.992C195.655 306.172 194.871 304.044 192.295 302.448ZM213.654 305.724C213.458 307.488 211.918 308.608 210.238 308.608C207.634 308.608 205.758 306.228 205.758 301.86C205.758 297.128 208.558 296.064 210.238 296.064C211.946 296.064 213.458 297.38 213.654 299.116V305.724ZM215.054 314.628V296.176C215.054 295.728 214.046 296.344 213.738 297.044C212.786 296.288 211.582 295.812 210.126 295.812C206.57 295.812 203.91 298.192 203.91 302.392C203.91 305.752 205.394 309.252 209.706 309.252C211.162 309.252 212.814 308.58 213.654 307.376V314.628C213.654 316.056 213.598 315.86 212.534 316.168V316.42H216.202V316.168C215.194 315.916 215.054 316.168 215.054 314.628ZM228.519 306.9V295.812L225.803 296.316V296.54C227.119 296.54 227.119 296.568 227.119 298.276V306.032C226.727 307.264 225.747 308.524 223.759 308.524C222.135 308.524 220.343 307.656 220.343 304.996V295.812L217.431 296.316V296.54C218.999 296.54 218.999 296.54 218.999 298.472V305.08C218.999 308.692 221.631 309.252 223.451 309.252C225.467 309.252 226.811 307.992 227.119 306.62V308.916C227.119 308.916 227.091 309.364 227.707 309.224L229.947 308.86V308.636C228.771 308.496 228.519 308.244 228.519 306.9ZM237.631 308.692C235.111 308.692 233.151 307.068 233.151 302.28H242.139C242.139 297.828 239.591 295.812 237.127 295.812C234.075 295.812 231.499 298.36 231.499 302.7C231.499 306.816 233.963 309.252 237.267 309.252C240.123 309.252 241.579 306.956 241.719 305.78L241.551 305.752C241.215 307.208 239.507 308.692 237.631 308.692ZM233.151 302C233.151 297.66 235.559 296.064 237.127 296.064C238.247 296.064 240.739 297.38 240.739 302H233.151ZM36.1895 328.176C35.9655 327.868 35.5735 327.728 35.1815 327.728C34.5095 327.728 33.4175 328.204 32.7735 329.184C31.8495 328.344 30.3655 327.812 28.8815 327.812C25.8575 327.812 23.7855 329.912 23.7855 332.18C23.7855 333.664 24.3455 335.26 25.9135 335.96C23.4215 336.436 23.6175 338.592 23.6175 338.592C23.6175 339.348 23.8135 340.104 24.6815 340.524C22.6375 341.896 21.8535 343.8 22.9455 345.564C24.1495 347.524 27.8735 348.084 31.5975 345.984C34.5375 344.332 34.5935 342.316 34.5935 342.316C35.0415 339.208 31.5415 339.628 29.6095 339.628H26.8095C23.1415 339.628 24.2615 336.184 26.1095 336.072C26.8935 336.408 27.7895 336.576 28.8815 336.576C31.9615 336.576 34.0055 334.448 34.0055 332.18C34.0055 331.172 33.6415 330.024 32.9135 329.324C33.4455 328.428 34.5375 328.344 34.4535 328.568C34.3695 328.82 34.4255 329.1 34.5935 329.324C34.8735 329.772 35.4895 329.828 35.9375 329.52C36.3575 329.212 36.4695 328.624 36.1895 328.176ZM24.9055 340.664C25.7735 340.972 26.8375 341 27.1455 341H31.0935C33.8655 341 33.8095 342.344 33.8095 342.344C33.8095 342.344 33.9775 344.164 31.4575 345.76C29.1055 347.272 25.4935 346.516 24.4015 345.228C24.5135 345.34 22.1615 342.708 24.9055 340.664ZM28.8815 336.352C27.6495 336.352 25.3815 335.316 25.3815 332.18C25.3815 329.044 27.4815 328.064 28.8815 328.064C30.0855 328.064 32.4095 329.044 32.4095 332.18C32.4095 335.316 30.1695 336.352 28.8815 336.352ZM40.0163 327.812L37.2443 328.288V328.512C38.4203 328.512 38.6163 328.904 38.6163 329.884V339.208C38.6163 340.636 38.5603 340.44 37.4963 340.748V341H41.1643V340.748C40.1563 340.496 40.0163 340.748 40.0163 339.208V327.812ZM39.9883 324.452C39.9883 323.892 39.5403 323.472 39.0363 323.472C38.5043 323.472 38.1123 323.892 38.1123 324.452C38.1123 324.956 38.5043 325.376 39.0363 325.376C39.5403 325.376 39.9883 324.956 39.9883 324.452ZM49.6485 327.84C48.0525 327.644 46.0085 329.044 45.4205 330.5V327.812L42.6205 328.288V328.512C43.7965 328.512 44.0205 328.904 44.0205 329.884V339.208C44.0205 340.636 43.9645 340.44 42.9005 340.748V341H46.5685V340.748C45.5605 340.496 45.4205 340.748 45.4205 339.208V331.06C46.1485 328.988 48.8085 327.952 48.5565 328.568C48.4725 328.82 48.4725 329.1 48.5565 329.352C48.8085 329.912 49.4525 330.164 49.9845 329.94C50.5445 329.688 50.7965 329.1 50.5725 328.54C50.3765 328.148 50.0405 327.896 49.6485 327.84ZM58.7177 338.396C58.4097 339.068 57.6537 340.44 55.6657 340.44C54.0697 340.44 53.0617 339.516 53.0617 337.892C53.0617 335.932 54.9937 334.784 58.7177 333.86V338.396ZM61.4057 340.328C60.2297 340.328 60.2297 338.76 60.2297 338.76V333.412C60.2297 330.08 59.5857 327.812 57.1497 327.812C57.1497 327.812 55.8337 327.784 54.6857 328.344C53.2017 329.156 52.6417 330.08 52.5017 330.416C52.3617 330.752 52.4457 331.172 52.6977 331.48C53.0617 331.928 53.6777 331.956 54.0977 331.592C54.5177 331.2 54.5737 330.556 54.2097 330.136C54.0137 329.912 53.7897 329.828 53.5377 329.772C53.3977 329.744 53.6217 329.128 54.9097 328.512C57.4577 327.448 58.7177 329.24 58.7177 332.096V333.608C54.0417 334.84 51.6617 335.792 51.6617 338.34C51.6617 341.28 54.8257 341.252 54.8257 341.252C56.7577 341.252 58.3537 340.272 58.7177 338.816C58.7177 341.392 60.6497 341.252 60.6497 341.252C61.8257 341.252 62.4137 340.244 62.5537 339.432L62.3297 339.348C62.1337 340.328 61.4057 340.328 61.4057 340.328ZM74.2664 339.208V332.488C74.2664 329.128 72.4184 327.812 70.0664 327.812C68.3024 327.812 66.6224 329.128 66.0904 330.668V327.812L63.2904 328.288V328.512C64.4664 328.512 64.6904 328.932 64.6904 329.912V339.208C64.6904 340.636 64.6344 340.44 63.5704 340.748V341H67.2384V340.748C66.2304 340.496 66.0904 340.748 66.0904 339.208V331.088C66.5384 330.192 67.6304 328.568 69.4224 328.568C71.7184 328.568 72.8944 330.136 72.8944 332.6V339.208C72.8944 340.636 72.8384 340.468 71.7744 340.776V341H75.4144V340.776C74.4344 340.524 74.2664 340.748 74.2664 339.208ZM90.8739 338.396C90.5659 339.068 89.8099 340.44 87.8219 340.44C86.2259 340.44 85.2179 339.516 85.2179 337.892C85.2179 335.932 87.1499 334.784 90.8739 333.86V338.396ZM93.5619 340.328C92.3859 340.328 92.3859 338.76 92.3859 338.76V333.412C92.3859 330.08 91.7419 327.812 89.3059 327.812C89.3059 327.812 87.9899 327.784 86.8419 328.344C85.3579 329.156 84.7979 330.08 84.6579 330.416C84.5179 330.752 84.6019 331.172 84.8539 331.48C85.2179 331.928 85.8339 331.956 86.2539 331.592C86.6739 331.2 86.7299 330.556 86.3659 330.136C86.1699 329.912 85.9459 329.828 85.6939 329.772C85.5539 329.744 85.7779 329.128 87.0659 328.512C89.6139 327.448 90.8739 329.24 90.8739 332.096V333.608C86.1979 334.84 83.8179 335.792 83.8179 338.34C83.8179 341.28 86.9819 341.252 86.9819 341.252C88.9139 341.252 90.5099 340.272 90.8739 338.816C90.8739 341.392 92.8059 341.252 92.8059 341.252C93.9819 341.252 94.5699 340.244 94.7099 339.432L94.4859 339.348C94.2899 340.328 93.5619 340.328 93.5619 340.328ZM98.5827 320.56L95.7827 321.036V321.288C96.9587 321.288 97.1827 321.68 97.1827 322.66V339.208C97.1827 340.636 97.1267 340.44 96.0627 340.748V341H99.7307V340.748C98.7227 340.496 98.5827 340.748 98.5827 339.208V320.56ZM108.082 327.84C106.486 327.644 104.442 329.044 103.854 330.5V327.812L101.054 328.288V328.512C102.23 328.512 102.454 328.904 102.454 329.884V339.208C102.454 340.636 102.398 340.44 101.334 340.748V341H105.002V340.748C103.994 340.496 103.854 340.748 103.854 339.208V331.06C104.582 328.988 107.242 327.952 106.99 328.568C106.906 328.82 106.906 329.1 106.99 329.352C107.242 329.912 107.886 330.164 108.418 329.94C108.978 329.688 109.23 329.1 109.006 328.54C108.81 328.148 108.474 327.896 108.082 327.84ZM116.799 340.692C114.279 340.692 112.319 339.068 112.319 334.28H121.307C121.307 329.828 118.759 327.812 116.295 327.812C113.243 327.812 110.667 330.36 110.667 334.7C110.667 338.816 113.131 341.252 116.435 341.252C119.291 341.252 120.747 338.956 120.887 337.78L120.719 337.752C120.383 339.208 118.675 340.692 116.799 340.692ZM112.319 334C112.319 329.66 114.727 328.064 116.295 328.064C117.415 328.064 119.907 329.38 119.907 334H112.319ZM133.32 337.36C133.32 339.32 131.696 340.608 129.904 340.608C127.3 340.608 125.396 338.228 125.396 333.86C125.396 329.128 128.224 328.064 129.904 328.064C131.696 328.064 133.32 329.604 133.32 331.508V337.36ZM134.692 339.32V320.56L131.892 321.036V321.288C133.04 321.288 133.32 321.764 133.32 322.744V329.016C132.396 328.288 131.248 327.812 129.792 327.812C126.236 327.812 123.548 330.192 123.548 334.392C123.548 337.78 125.032 341.252 129.372 341.252C130.828 341.252 132.48 340.58 133.32 339.376V340.72C133.32 340.72 133.32 341.364 134.104 341.224L136.12 340.804V340.58C135 340.692 134.692 340.692 134.692 339.32ZM143.568 340.692C141.048 340.692 139.088 339.068 139.088 334.28H148.076C148.076 329.828 145.528 327.812 143.064 327.812C140.012 327.812 137.436 330.36 137.436 334.7C137.436 338.816 139.9 341.252 143.204 341.252C146.06 341.252 147.516 338.956 147.656 337.78L147.488 337.752C147.152 339.208 145.444 340.692 143.568 340.692ZM139.088 334C139.088 329.66 141.496 328.064 143.064 328.064C144.184 328.064 146.676 329.38 146.676 334H139.088ZM160.089 337.36C160.089 339.32 158.465 340.608 156.673 340.608C154.069 340.608 152.165 338.228 152.165 333.86C152.165 329.128 154.993 328.064 156.673 328.064C158.465 328.064 160.089 329.604 160.089 331.508V337.36ZM161.461 339.32V320.56L158.661 321.036V321.288C159.809 321.288 160.089 321.764 160.089 322.744V329.016C159.165 328.288 158.017 327.812 156.561 327.812C153.005 327.812 150.317 330.192 150.317 334.392C150.317 337.78 151.801 341.252 156.141 341.252C157.597 341.252 159.249 340.58 160.089 339.376V340.72C160.089 340.72 160.089 341.364 160.873 341.224L162.889 340.804V340.58C161.769 340.692 161.461 340.692 161.461 339.32ZM170.562 327.812C166.306 327.812 164.318 330.836 164.318 334.532C164.318 338.2 166.306 341.252 170.562 341.252C174.846 341.252 176.806 338.2 176.806 334.532C176.806 330.836 174.846 327.812 170.562 327.812ZM170.562 341C168.294 341 165.914 339.6 165.914 334.532C165.914 329.464 168.294 328.064 170.562 328.064C172.83 328.064 175.182 329.464 175.182 334.532C175.182 339.6 172.83 341 170.562 341ZM185.547 327.84C183.951 327.644 181.907 329.044 181.319 330.5V327.812L178.519 328.288V328.512C179.695 328.512 179.919 328.904 179.919 329.884V339.208C179.919 340.636 179.863 340.44 178.799 340.748V341H182.467V340.748C181.459 340.496 181.319 340.748 181.319 339.208V331.06C182.047 328.988 184.707 327.952 184.455 328.568C184.371 328.82 184.371 329.1 184.455 329.352C184.707 329.912 185.351 330.164 185.883 329.94C186.443 329.688 186.695 329.1 186.471 328.54C186.275 328.148 185.939 327.896 185.547 327.84ZM204.578 337.36C204.578 339.32 202.954 340.608 201.162 340.608C198.558 340.608 196.654 338.228 196.654 333.86C196.654 329.128 199.482 328.064 201.162 328.064C202.954 328.064 204.578 329.604 204.578 331.508V337.36ZM205.95 339.32V320.56L203.15 321.036V321.288C204.298 321.288 204.578 321.764 204.578 322.744V329.016C203.654 328.288 202.506 327.812 201.05 327.812C197.494 327.812 194.806 330.192 194.806 334.392C194.806 337.78 196.29 341.252 200.63 341.252C202.086 341.252 203.738 340.58 204.578 339.376V340.72C204.578 340.72 204.578 341.364 205.362 341.224L207.378 340.804V340.58C206.258 340.692 205.95 340.692 205.95 339.32ZM214.826 340.692C212.306 340.692 210.346 339.068 210.346 334.28H219.334C219.334 329.828 216.786 327.812 214.322 327.812C211.27 327.812 208.694 330.36 208.694 334.7C208.694 338.816 211.158 341.252 214.462 341.252C217.318 341.252 218.774 338.956 218.914 337.78L218.746 337.752C218.41 339.208 216.702 340.692 214.826 340.692ZM210.346 334C210.346 329.66 212.754 328.064 214.322 328.064C215.442 328.064 217.934 329.38 217.934 334H210.346ZM223.899 320.56L221.099 321.036V321.288C222.275 321.288 222.499 321.68 222.499 322.66V339.208C222.499 340.636 222.443 340.44 221.379 340.748V341H225.047V340.748C224.039 340.496 223.899 340.748 223.899 339.208V320.56ZM55.6133 353.271V373H62.0117C67.9316 373 71.3633 369.377 71.3633 363.129C71.3633 356.895 67.918 353.271 62.0117 353.271H55.6133ZM57.4863 354.967H61.9023C66.7559 354.967 69.4629 357.893 69.4629 363.143C69.4629 368.379 66.7559 371.305 61.9023 371.305H57.4863V354.967ZM76.1211 373V353.271H74.2617V373H76.1211ZM78.8555 367.641C79.0605 371.031 81.959 373.314 86.0879 373.314C90.4492 373.314 93.2383 371.045 93.2383 367.586C93.2383 364.838 91.5703 363.32 87.6055 362.322L85.4727 361.775C82.5742 361.037 81.3438 360.039 81.3438 358.344C81.3438 356.17 83.3672 354.652 86.1016 354.652C88.9043 354.652 90.873 356.129 91.0508 358.357H92.9238C92.8145 355.227 89.998 352.957 86.1562 352.957C82.2734 352.957 79.4023 355.227 79.4023 358.412C79.4023 361.01 81.0293 362.555 84.6797 363.484L87.127 364.113C90.0527 364.852 91.3242 365.945 91.3242 367.791C91.3242 370.006 89.2051 371.619 86.252 371.619C83.1621 371.619 80.9336 370.006 80.7285 367.641H78.8555ZM107.881 371.305H97.832V363.73H107.375V362.062H97.832V354.967H107.881V353.271H95.9727V373H107.881V371.305ZM112.912 373V356.512H113.008L124.615 373H126.42V353.271H124.574V369.746H124.479L112.912 353.271H111.066V373H112.912ZM120.555 351.508C121.99 351.508 122.92 350.25 122.92 348.254H121.635C121.635 349.553 121.266 350.277 120.568 350.277C119.406 350.277 118.818 348.131 116.932 348.131C115.455 348.131 114.553 349.334 114.553 351.371H115.838C115.797 350.1 116.18 349.361 116.918 349.361C118.121 349.361 118.75 351.508 120.555 351.508ZM138.287 352.957C132.791 352.957 129.332 356.895 129.332 363.143C129.332 369.391 132.791 373.314 138.287 373.314C143.797 373.314 147.256 369.391 147.256 363.143C147.256 356.895 143.783 352.957 138.287 352.957ZM138.287 354.693C142.607 354.693 145.342 357.961 145.342 363.143C145.342 368.311 142.607 371.578 138.287 371.578C133.967 371.578 131.246 368.311 131.246 363.143C131.246 357.961 133.967 354.693 138.287 354.693ZM163.872 360.064V360.288C167.12 360.232 165.468 364.824 165.468 364.824L163.228 371.236L159.252 362.64C159.252 362.64 158.048 360.288 160.204 360.288V360.064H155.22V360.288C155.668 360.344 156.732 360.568 157.404 362.024C157.404 362.024 157.628 362.248 162.584 373L161.128 377.2C160.792 378.124 160.26 378.712 160.148 378.236C160.092 378.012 159.896 377.732 159.616 377.62C159.112 377.396 158.524 377.62 158.272 378.152C158.076 378.656 158.272 379.244 158.804 379.496C159.168 379.664 159.7 379.58 159.98 379.356C160.26 379.132 160.904 378.6 161.324 377.284L165.72 364.88C167.204 360.708 167.848 360.288 169.22 360.288V360.064H163.872ZM179.684 352.56L176.884 353.036V353.288C178.06 353.288 178.284 353.68 178.284 354.66V371.208C178.284 372.636 178.228 372.44 177.164 372.748V373H180.832V372.748C179.824 372.496 179.684 372.748 179.684 371.208V352.56ZM189.968 370.396C189.66 371.068 188.904 372.44 186.916 372.44C185.32 372.44 184.312 371.516 184.312 369.892C184.312 367.932 186.244 366.784 189.968 365.86V370.396ZM192.656 372.328C191.48 372.328 191.48 370.76 191.48 370.76V365.412C191.48 362.08 190.836 359.812 188.4 359.812C188.4 359.812 187.084 359.784 185.936 360.344C184.452 361.156 183.892 362.08 183.752 362.416C183.612 362.752 183.696 363.172 183.948 363.48C184.312 363.928 184.928 363.956 185.348 363.592C185.768 363.2 185.824 362.556 185.46 362.136C185.264 361.912 185.04 361.828 184.788 361.772C184.648 361.744 184.872 361.128 186.16 360.512C188.708 359.448 189.968 361.24 189.968 364.096V365.608C185.292 366.84 182.912 367.792 182.912 370.34C182.912 373.28 186.076 373.252 186.076 373.252C188.008 373.252 189.604 372.272 189.968 370.816C189.968 373.392 191.9 373.252 191.9 373.252C193.076 373.252 193.664 372.244 193.804 371.432L193.58 371.348C193.384 372.328 192.656 372.328 192.656 372.328ZM45.127 405V385.271H43.2676V405H45.127ZM50.6641 405V388.512H50.7598L62.3672 405H64.1719V385.271H62.3262V401.746H62.2305L50.6641 385.271H48.8184V405H50.6641ZM69.7227 405V388.512H69.8184L81.4258 405H83.2305V385.271H81.3848V401.746H81.2891L69.7227 385.271H67.877V405H69.7227ZM95.0977 384.957C89.6016 384.957 86.1426 388.895 86.1426 395.143C86.1426 401.391 89.6016 405.314 95.0977 405.314C100.607 405.314 104.066 401.391 104.066 395.143C104.066 388.895 100.594 384.957 95.0977 384.957ZM95.0977 386.693C99.418 386.693 102.152 389.961 102.152 395.143C102.152 400.311 99.418 403.578 95.0977 403.578C90.7773 403.578 88.0566 400.311 88.0566 395.143C88.0566 389.961 90.7773 386.693 95.0977 386.693ZM113.951 405L121.334 385.271H119.365L113.062 402.676H112.98L106.691 385.271H104.709L112.092 405H113.951ZM134.527 405H136.496L129.127 385.271H127.268L119.885 405H121.867L124.055 398.957H132.34L134.527 405ZM128.156 387.582H128.238L131.779 397.344H124.615L128.156 387.582ZM146.039 405.314C150.318 405.314 153.34 403.004 154.037 399.162H152.164C151.576 401.896 149.197 403.578 146.053 403.578C141.855 403.578 139.162 400.283 139.162 395.088C139.162 389.961 141.855 386.693 146.039 386.693C149.102 386.693 151.617 388.689 152.164 391.533H154.037C153.504 387.678 150.209 384.957 146.039 384.957C140.68 384.957 137.248 388.908 137.248 395.088C137.248 401.336 140.666 405.314 146.039 405.314ZM158.658 405V385.271H156.799V405H158.658ZM170.512 384.957C165.016 384.957 161.557 388.895 161.557 395.143C161.557 401.391 165.016 405.314 170.512 405.314C176.021 405.314 179.48 401.391 179.48 395.143C179.48 388.895 176.008 384.957 170.512 384.957ZM170.512 386.693C174.832 386.693 177.566 389.961 177.566 395.143C177.566 400.311 174.832 403.578 170.512 403.578C166.191 403.578 163.471 400.311 163.471 395.143C163.471 389.961 166.191 386.693 170.512 386.693ZM171.414 383.699L175.16 379.762H173.096L169.76 383.699H171.414ZM184.238 405V388.512H184.334L195.941 405H197.746V385.271H195.9V401.746H195.805L184.238 385.271H182.393V405H184.238ZM203.092 405.123C203.803 405.123 204.363 404.562 204.363 403.852C204.363 403.127 203.803 402.566 203.092 402.566C202.381 402.566 201.807 403.127 201.807 403.852C201.807 404.562 202.381 405.123 203.092 405.123Z" fill="white"/>
<path d="M40.3281 183.8H207.678V185.2H40.3281V183.8ZM45.0723 215.8H181.586V217.2H45.0723V215.8ZM4.74023 311.8H120.609V313.2H4.74023V311.8Z" fill="white"/>
</svg>
