<svg width="494" height="38" viewBox="0 0 494 38" fill="none" xmlns="http://www.w3.org/2000/svg">
<path d="M0.507812 9.41406C0.523438 11.0703 1.80469 12.2344 3.60938 12.2344C5.63281 12.2344 6.83594 10.9844 6.83594 8.91406V0.726562H5.77344V8.89844C5.77344 10.4062 4.98438 11.2422 3.60938 11.2422C2.44531 11.2422 1.60938 10.4922 1.5625 9.41406H0.507812ZM15.3047 3.875H14.2734V8.69531C14.2734 10.2188 13.3203 11.2109 11.9062 11.2109C10.5469 11.2109 9.78125 10.4141 9.78125 8.97656V3.875H8.74219V9.15625C8.74219 10.9844 9.84375 12.1328 11.6094 12.1328C12.8984 12.1328 13.875 11.4922 14.3047 10.4922H14.3281V12H15.3047V3.875ZM16.9219 6.04688C16.9219 7.125 17.625 7.82031 19.0938 8.1875L20.4141 8.51562C21.5 8.78125 21.9062 9.15625 21.9062 9.85938C21.9062 10.7109 21.1016 11.2812 19.8828 11.2812C18.6641 11.2812 17.8672 10.6875 17.7188 9.72656H16.6875C16.8203 11.1562 18.0781 12.1328 19.8203 12.1328C21.6562 12.1328 22.9453 11.1562 22.9453 9.78125C22.9453 8.61719 22.3359 8.02344 20.7109 7.61719L19.5078 7.32812C18.4219 7.0625 17.9453 6.65625 17.9453 5.99219C17.9453 5.17969 18.7031 4.59375 19.8125 4.59375C20.9375 4.59375 21.6797 5.1875 21.8047 6.14844H22.7969C22.6953 4.71875 21.5078 3.74219 19.8438 3.74219C18.125 3.74219 16.9219 4.70312 16.9219 6.04688ZM24.7812 1.84375V3.875H23.5703V4.73438H24.7812V10C24.7812 11.4688 25.3281 12.0469 26.6875 12.0469C26.9062 12.0469 27.3438 12.0234 27.4531 12V11.1172C27.3906 11.1328 27 11.1484 26.8906 11.1484C26.1406 11.1484 25.8125 10.7891 25.8125 9.95312V4.73438H27.4141V3.875H25.8125V1.84375H24.7812ZM32.2344 12H33.2656V0.726562H32.2344V12ZM35.1875 12H36.2188V3.875H35.1875V12ZM35.7031 2.23438C36.0859 2.23438 36.3984 1.92969 36.3984 1.54688C36.3984 1.17188 36.0859 0.867188 35.7031 0.867188C35.3281 0.867188 35.0156 1.17188 35.0156 1.54688C35.0156 1.92969 35.3281 2.23438 35.7031 2.23438ZM39.1797 7.71875V0.726562H38.1406V12H39.1797V8.85156L40.0859 8.01562L43.3359 12H44.5469L40.8281 7.38281L44.4766 3.875H43.1953L39.1797 7.71875ZM48.3438 4.64844C49.8125 4.64844 50.7891 5.76562 50.8125 7.36719H45.7969C45.8828 5.76562 46.8906 4.64844 48.3438 4.64844ZM50.75 9.69531C50.5234 10.5859 49.6719 11.2266 48.4453 11.2266C46.8281 11.2266 45.7891 10.0859 45.7891 8.25V8.1875H51.875V7.75C51.875 5.32812 50.5156 3.74219 48.3594 3.74219C46.1562 3.74219 44.7266 5.4375 44.7266 7.96094C44.7266 10.5391 46.1406 12.1328 48.4219 12.1328C50.2109 12.1328 51.5312 11.1016 51.7734 9.69531H50.75ZM59.8359 12.1328C62.0469 12.1328 63.5391 10.5156 63.5391 7.9375C63.5391 5.35156 62.0469 3.74219 59.8359 3.74219C57.6328 3.74219 56.1328 5.35156 56.1328 7.9375C56.1328 10.5156 57.625 12.1328 59.8359 12.1328ZM59.8359 11.2188C58.2422 11.2188 57.1875 10 57.1875 7.9375C57.1875 5.875 58.2422 4.65625 59.8359 4.65625C61.4297 4.65625 62.4922 5.875 62.4922 7.9375C62.4922 10 61.4297 11.2188 59.8359 11.2188ZM71.4297 3.875H70.3984V8.69531C70.3984 10.2188 69.4453 11.2109 68.0312 11.2109C66.6719 11.2109 65.9062 10.4141 65.9062 8.97656V3.875H64.8672V9.15625C64.8672 10.9844 65.9688 12.1328 67.7344 12.1328C69.0234 12.1328 70 11.4922 70.4297 10.4922H70.4531V12H71.4297V3.875ZM73.2109 12H74.2422V6.9375C74.2422 5.625 74.9766 4.72656 76.1328 4.72656C76.4844 4.72656 76.7734 4.78125 76.9062 4.84375V3.82812C76.7812 3.79688 76.5391 3.74219 76.2656 3.74219C75.2656 3.74219 74.5078 4.32812 74.2109 5.32031H74.1875V3.875H73.2109V12ZM87.9141 6.44531C87.7109 4.99219 86.4844 3.74219 84.5703 3.74219C82.3594 3.74219 80.8984 5.375 80.8984 7.9375C80.8984 10.5391 82.3594 12.1328 84.5781 12.1328C86.375 12.1328 87.6953 11.0391 87.9219 9.48438H86.8984C86.6641 10.5391 85.8125 11.2188 84.5859 11.2188C83 11.2188 81.9531 9.97656 81.9531 7.9375C81.9531 5.92969 82.9922 4.65625 84.5781 4.65625C85.8594 4.65625 86.6797 5.44531 86.8984 6.44531H87.9141ZM89.2812 12H90.3125V0.726562H89.2812V12ZM92.2344 12H93.2656V3.875H92.2344V12ZM92.75 2.23438C93.1328 2.23438 93.4453 1.92969 93.4453 1.54688C93.4453 1.17188 93.1328 0.867188 92.75 0.867188C92.375 0.867188 92.0625 1.17188 92.0625 1.54688C92.0625 1.92969 92.375 2.23438 92.75 2.23438ZM98.3281 4.64844C99.7969 4.64844 100.773 5.76562 100.797 7.36719H95.7812C95.8672 5.76562 96.875 4.64844 98.3281 4.64844ZM100.734 9.69531C100.508 10.5859 99.6562 11.2266 98.4297 11.2266C96.8125 11.2266 95.7734 10.0859 95.7734 8.25V8.1875H101.859V7.75C101.859 5.32812 100.5 3.74219 98.3438 3.74219C96.1406 3.74219 94.7109 5.4375 94.7109 7.96094C94.7109 10.5391 96.125 12.1328 98.4062 12.1328C100.195 12.1328 101.516 11.1016 101.758 9.69531H100.734ZM103.242 12H104.273V7.1875C104.273 5.67969 105.219 4.66406 106.625 4.66406C107.984 4.66406 108.766 5.47656 108.766 6.89844V12H109.797V6.73438C109.797 4.89062 108.703 3.74219 106.922 3.74219C105.609 3.74219 104.656 4.39062 104.242 5.375H104.219V3.875H103.242V12ZM111.984 1.84375V3.875H110.773V4.73438H111.984V10C111.984 11.4688 112.531 12.0469 113.891 12.0469C114.109 12.0469 114.547 12.0234 114.656 12V11.1172C114.594 11.1328 114.203 11.1484 114.094 11.1484C113.344 11.1484 113.016 10.7891 113.016 9.95312V4.73438H114.617V3.875H113.016V1.84375H111.984ZM115.922 6.04688C115.922 7.125 116.625 7.82031 118.094 8.1875L119.414 8.51562C120.5 8.78125 120.906 9.15625 120.906 9.85938C120.906 10.7109 120.102 11.2812 118.883 11.2812C117.664 11.2812 116.867 10.6875 116.719 9.72656H115.688C115.82 11.1562 117.078 12.1328 118.82 12.1328C120.656 12.1328 121.945 11.1562 121.945 9.78125C121.945 8.61719 121.336 8.02344 119.711 7.61719L118.508 7.32812C117.422 7.0625 116.945 6.65625 116.945 5.99219C116.945 5.17969 117.703 4.59375 118.812 4.59375C119.938 4.59375 120.68 5.1875 120.805 6.14844H121.797C121.695 4.71875 120.508 3.74219 118.844 3.74219C117.125 3.74219 115.922 4.70312 115.922 6.04688ZM123.938 14.1562L124.922 10.3906H123.82L123.07 14.1562H123.938ZM139.523 3.875H138.484L136.664 10.8438H136.641L134.617 3.875H133.57L131.547 10.8438H131.523L129.703 3.875H128.656L130.969 12H132.062L134.078 5.25781H134.102L136.125 12H137.219L139.523 3.875ZM143.781 4.64844C145.25 4.64844 146.227 5.76562 146.25 7.36719H141.234C141.32 5.76562 142.328 4.64844 143.781 4.64844ZM146.188 9.69531C145.961 10.5859 145.109 11.2266 143.883 11.2266C142.266 11.2266 141.227 10.0859 141.227 8.25V8.1875H147.312V7.75C147.312 5.32812 145.953 3.74219 143.797 3.74219C141.594 3.74219 140.164 5.4375 140.164 7.96094C140.164 10.5391 141.578 12.1328 143.859 12.1328C145.648 12.1328 146.969 11.1016 147.211 9.69531H146.188ZM152.047 12H153.086V7.21875C153.086 5.6875 154.031 4.66406 155.492 4.66406C156.867 4.66406 157.656 5.51562 157.656 6.92188V12H158.695V6.75C158.695 4.92969 157.57 3.74219 155.789 3.74219C154.492 3.74219 153.523 4.375 153.109 5.375H153.086V0.726562H152.047V12ZM163.047 11.2422C161.945 11.2422 161.188 10.6328 161.188 9.75C161.188 8.85156 161.898 8.29688 163.18 8.21094L165.586 8.04688V8.94531C165.586 10.2344 164.469 11.2422 163.047 11.2422ZM162.836 12.1328C164.047 12.1328 165.156 11.4609 165.609 10.4531H165.633V12H166.617V6.4375C166.617 4.78125 165.453 3.74219 163.602 3.74219C161.75 3.74219 160.555 4.77344 160.438 6.22656H161.438C161.617 5.24219 162.383 4.65625 163.578 4.65625C164.844 4.65625 165.586 5.35938 165.586 6.53125V7.23438L163.055 7.39062C161.18 7.51562 160.141 8.35938 160.141 9.75C160.141 11.1719 161.234 12.1328 162.836 12.1328ZM174.727 3.875H173.648L171.172 10.9141H171.148L168.68 3.875H167.586L170.609 12H171.711L174.727 3.875ZM178.781 4.64844C180.25 4.64844 181.227 5.76562 181.25 7.36719H176.234C176.32 5.76562 177.328 4.64844 178.781 4.64844ZM181.188 9.69531C180.961 10.5859 180.109 11.2266 178.883 11.2266C177.266 11.2266 176.227 10.0859 176.227 8.25V8.1875H182.312V7.75C182.312 5.32812 180.953 3.74219 178.797 3.74219C176.594 3.74219 175.164 5.4375 175.164 7.96094C175.164 10.5391 176.578 12.1328 178.859 12.1328C180.648 12.1328 181.969 11.1016 182.211 9.69531H181.188ZM186.812 6.04688C186.812 7.125 187.516 7.82031 188.984 8.1875L190.305 8.51562C191.391 8.78125 191.797 9.15625 191.797 9.85938C191.797 10.7109 190.992 11.2812 189.773 11.2812C188.555 11.2812 187.758 10.6875 187.609 9.72656H186.578C186.711 11.1562 187.969 12.1328 189.711 12.1328C191.547 12.1328 192.836 11.1562 192.836 9.78125C192.836 8.61719 192.227 8.02344 190.602 7.61719L189.398 7.32812C188.312 7.0625 187.836 6.65625 187.836 5.99219C187.836 5.17969 188.594 4.59375 189.703 4.59375C190.828 4.59375 191.57 5.1875 191.695 6.14844H192.688C192.586 4.71875 191.398 3.74219 189.734 3.74219C188.016 3.74219 186.812 4.70312 186.812 6.04688ZM194.672 1.84375V3.875H193.461V4.73438H194.672V10C194.672 11.4688 195.219 12.0469 196.578 12.0469C196.797 12.0469 197.234 12.0234 197.344 12V11.1172C197.281 11.1328 196.891 11.1484 196.781 11.1484C196.031 11.1484 195.703 10.7891 195.703 9.95312V4.73438H197.305V3.875H195.703V1.84375H194.672ZM198.773 12H199.805V6.9375C199.805 5.625 200.539 4.72656 201.695 4.72656C202.047 4.72656 202.336 4.78125 202.469 4.84375V3.82812C202.344 3.79688 202.102 3.74219 201.828 3.74219C200.828 3.74219 200.07 4.32812 199.773 5.32031H199.75V3.875H198.773V12ZM206.414 12.1328C208.625 12.1328 210.117 10.5156 210.117 7.9375C210.117 5.35156 208.625 3.74219 206.414 3.74219C204.211 3.74219 202.711 5.35156 202.711 7.9375C202.711 10.5156 204.203 12.1328 206.414 12.1328ZM206.414 11.2188C204.82 11.2188 203.766 10 203.766 7.9375C203.766 5.875 204.82 4.65625 206.414 4.65625C208.008 4.65625 209.07 5.875 209.07 7.9375C209.07 10 208.008 11.2188 206.414 11.2188ZM211.492 12H212.523V7.1875C212.523 5.67969 213.469 4.66406 214.875 4.66406C216.234 4.66406 217.016 5.47656 217.016 6.89844V12H218.047V6.73438C218.047 4.89062 216.953 3.74219 215.172 3.74219C213.859 3.74219 212.906 4.39062 212.492 5.375H212.469V3.875H211.492V12ZM223 11.1641C221.469 11.1641 220.445 9.88281 220.445 7.92188C220.445 5.94531 221.469 4.65625 223 4.65625C224.562 4.65625 225.617 5.96875 225.617 7.91406C225.617 9.85938 224.562 11.1641 223 11.1641ZM223.102 15.0078C225.273 15.0078 226.656 13.7578 226.656 11.8672V3.875H225.672V5.59375H225.648C225.172 4.48438 224.133 3.74219 222.836 3.74219C220.758 3.74219 219.383 5.39062 219.383 7.91406C219.383 10.4297 220.758 12.0781 222.812 12.0781C224.109 12.0781 225.156 11.3203 225.594 10.2734H225.617V11.9062C225.617 13.2344 224.672 14.1172 223.148 14.1172C221.969 14.1172 221.102 13.5469 220.836 12.75H219.766C219.992 14.0312 221.328 15.0078 223.102 15.0078ZM238.336 6.44531C238.133 4.99219 236.906 3.74219 234.992 3.74219C232.781 3.74219 231.32 5.375 231.32 7.9375C231.32 10.5391 232.781 12.1328 235 12.1328C236.797 12.1328 238.117 11.0391 238.344 9.48438H237.32C237.086 10.5391 236.234 11.2188 235.008 11.2188C233.422 11.2188 232.375 9.97656 232.375 7.9375C232.375 5.92969 233.414 4.65625 235 4.65625C236.281 4.65625 237.102 5.44531 237.32 6.44531H238.336ZM242.93 12.1328C245.141 12.1328 246.633 10.5156 246.633 7.9375C246.633 5.35156 245.141 3.74219 242.93 3.74219C240.727 3.74219 239.227 5.35156 239.227 7.9375C239.227 10.5156 240.719 12.1328 242.93 12.1328ZM242.93 11.2188C241.336 11.2188 240.281 10 240.281 7.9375C240.281 5.875 241.336 4.65625 242.93 4.65625C244.523 4.65625 245.586 5.875 245.586 7.9375C245.586 10 244.523 11.2188 242.93 11.2188ZM248.008 12H249.039V7.1875C249.039 5.67969 249.984 4.66406 251.391 4.66406C252.75 4.66406 253.531 5.47656 253.531 6.89844V12H254.562V6.73438C254.562 4.89062 253.469 3.74219 251.688 3.74219C250.375 3.74219 249.422 4.39062 249.008 5.375H248.984V3.875H248.008V12ZM262.68 3.875H261.602L259.125 10.9141H259.102L256.633 3.875H255.539L258.562 12H259.664L262.68 3.875ZM263.766 12H264.797V3.875H263.766V12ZM264.281 2.23438C264.664 2.23438 264.977 1.92969 264.977 1.54688C264.977 1.17188 264.664 0.867188 264.281 0.867188C263.906 0.867188 263.594 1.17188 263.594 1.54688C263.594 1.92969 263.906 2.23438 264.281 2.23438ZM273.258 6.44531C273.055 4.99219 271.828 3.74219 269.914 3.74219C267.703 3.74219 266.242 5.375 266.242 7.9375C266.242 10.5391 267.703 12.1328 269.922 12.1328C271.719 12.1328 273.039 11.0391 273.266 9.48438H272.242C272.008 10.5391 271.156 11.2188 269.93 11.2188C268.344 11.2188 267.297 9.97656 267.297 7.9375C267.297 5.92969 268.336 4.65625 269.922 4.65625C271.203 4.65625 272.023 5.44531 272.242 6.44531H273.258ZM275 1.84375V3.875H273.789V4.73438H275V10C275 11.4688 275.547 12.0469 276.906 12.0469C277.125 12.0469 277.562 12.0234 277.672 12V11.1172C277.609 11.1328 277.219 11.1484 277.109 11.1484C276.359 11.1484 276.031 10.7891 276.031 9.95312V4.73438H277.633V3.875H276.031V1.84375H275ZM279.172 12H280.203V3.875H279.172V12ZM279.688 2.23438C280.07 2.23438 280.383 1.92969 280.383 1.54688C280.383 1.17188 280.07 0.867188 279.688 0.867188C279.312 0.867188 279 1.17188 279 1.54688C279 1.92969 279.312 2.23438 279.688 2.23438ZM285.352 12.1328C287.562 12.1328 289.055 10.5156 289.055 7.9375C289.055 5.35156 287.562 3.74219 285.352 3.74219C283.148 3.74219 281.648 5.35156 281.648 7.9375C281.648 10.5156 283.141 12.1328 285.352 12.1328ZM285.352 11.2188C283.758 11.2188 282.703 10 282.703 7.9375C282.703 5.875 283.758 4.65625 285.352 4.65625C286.945 4.65625 288.008 5.875 288.008 7.9375C288.008 10 286.945 11.2188 285.352 11.2188ZM290.43 12H291.461V7.1875C291.461 5.67969 292.406 4.66406 293.812 4.66406C295.172 4.66406 295.953 5.47656 295.953 6.89844V12H296.984V6.73438C296.984 4.89062 295.891 3.74219 294.109 3.74219C292.797 3.74219 291.844 4.39062 291.43 5.375H291.406V3.875H290.43V12ZM298.562 6.04688C298.562 7.125 299.266 7.82031 300.734 8.1875L302.055 8.51562C303.141 8.78125 303.547 9.15625 303.547 9.85938C303.547 10.7109 302.742 11.2812 301.523 11.2812C300.305 11.2812 299.508 10.6875 299.359 9.72656H298.328C298.461 11.1562 299.719 12.1328 301.461 12.1328C303.297 12.1328 304.586 11.1562 304.586 9.78125C304.586 8.61719 303.977 8.02344 302.352 7.61719L301.148 7.32812C300.062 7.0625 299.586 6.65625 299.586 5.99219C299.586 5.17969 300.344 4.59375 301.453 4.59375C302.578 4.59375 303.32 5.1875 303.445 6.14844H304.438C304.336 4.71875 303.148 3.74219 301.484 3.74219C299.766 3.74219 298.562 4.70312 298.562 6.04688ZM306.906 12.0703C307.312 12.0703 307.633 11.75 307.633 11.3438C307.633 10.9297 307.312 10.6094 306.906 10.6094C306.5 10.6094 306.172 10.9297 306.172 11.3438C306.172 11.75 306.5 12.0703 306.906 12.0703ZM318.359 2.55469H318.422L321.195 12H322.18L325.289 0.726562H324.172L321.695 10.3594H321.641L318.922 0.726562H317.859L315.133 10.3594H315.086L312.602 0.726562H311.492L314.594 12H315.586L318.359 2.55469ZM328.875 4.64844C330.344 4.64844 331.32 5.76562 331.344 7.36719H326.328C326.414 5.76562 327.422 4.64844 328.875 4.64844ZM331.281 9.69531C331.055 10.5859 330.203 11.2266 328.977 11.2266C327.359 11.2266 326.32 10.0859 326.32 8.25V8.1875H332.406V7.75C332.406 5.32812 331.047 3.74219 328.891 3.74219C326.688 3.74219 325.258 5.4375 325.258 7.96094C325.258 10.5391 326.672 12.1328 328.953 12.1328C330.742 12.1328 332.062 11.1016 332.305 9.69531H331.281ZM340.977 12.1328C343.023 12.1328 344.414 10.4688 344.414 7.9375C344.414 5.40625 343.023 3.74219 340.984 3.74219C339.711 3.74219 338.664 4.45312 338.203 5.57031H338.18V0.726562H337.141V12H338.133V10.2812H338.156C338.641 11.4219 339.68 12.1328 340.977 12.1328ZM340.781 4.65625C342.344 4.65625 343.352 5.95312 343.352 7.9375C343.352 9.92969 342.344 11.2188 340.781 11.2188C339.25 11.2188 338.172 9.89062 338.172 7.9375C338.172 5.99219 339.258 4.65625 340.781 4.65625ZM349.016 4.64844C350.484 4.64844 351.461 5.76562 351.484 7.36719H346.469C346.555 5.76562 347.562 4.64844 349.016 4.64844ZM351.422 9.69531C351.195 10.5859 350.344 11.2266 349.117 11.2266C347.5 11.2266 346.461 10.0859 346.461 8.25V8.1875H352.547V7.75C352.547 5.32812 351.188 3.74219 349.031 3.74219C346.828 3.74219 345.398 5.4375 345.398 7.96094C345.398 10.5391 346.812 12.1328 349.094 12.1328C350.883 12.1328 352.203 11.1016 352.445 9.69531H351.422ZM354 12H355.031V0.726562H354V12ZM356.953 12H357.984V3.875H356.953V12ZM357.469 2.23438C357.852 2.23438 358.164 1.92969 358.164 1.54688C358.164 1.17188 357.852 0.867188 357.469 0.867188C357.094 0.867188 356.781 1.17188 356.781 1.54688C356.781 1.92969 357.094 2.23438 357.469 2.23438ZM363.047 4.64844C364.516 4.64844 365.492 5.76562 365.516 7.36719H360.5C360.586 5.76562 361.594 4.64844 363.047 4.64844ZM365.453 9.69531C365.227 10.5859 364.375 11.2266 363.148 11.2266C361.531 11.2266 360.492 10.0859 360.492 8.25V8.1875H366.578V7.75C366.578 5.32812 365.219 3.74219 363.062 3.74219C360.859 3.74219 359.43 5.4375 359.43 7.96094C359.43 10.5391 360.844 12.1328 363.125 12.1328C364.914 12.1328 366.234 11.1016 366.477 9.69531H365.453ZM374.336 3.875H373.258L370.781 10.9141H370.758L368.289 3.875H367.195L370.219 12H371.32L374.336 3.875ZM378.391 4.64844C379.859 4.64844 380.836 5.76562 380.859 7.36719H375.844C375.93 5.76562 376.938 4.64844 378.391 4.64844ZM380.797 9.69531C380.57 10.5859 379.719 11.2266 378.492 11.2266C376.875 11.2266 375.836 10.0859 375.836 8.25V8.1875H381.922V7.75C381.922 5.32812 380.562 3.74219 378.406 3.74219C376.203 3.74219 374.773 5.4375 374.773 7.96094C374.773 10.5391 376.188 12.1328 378.469 12.1328C380.258 12.1328 381.578 11.1016 381.82 9.69531H380.797ZM386.656 12H387.688V3.875H386.656V12ZM387.172 2.23438C387.555 2.23438 387.867 1.92969 387.867 1.54688C387.867 1.17188 387.555 0.867188 387.172 0.867188C386.797 0.867188 386.484 1.17188 386.484 1.54688C386.484 1.92969 386.797 2.23438 387.172 2.23438ZM389.539 12H390.57V7.1875C390.57 5.67969 391.516 4.66406 392.922 4.66406C394.281 4.66406 395.062 5.47656 395.062 6.89844V12H396.094V6.73438C396.094 4.89062 395 3.74219 393.219 3.74219C391.906 3.74219 390.953 4.39062 390.539 5.375H390.516V3.875H389.539V12ZM405.023 12.1328C407.07 12.1328 408.461 10.4688 408.461 7.9375C408.461 5.40625 407.07 3.74219 405.031 3.74219C403.758 3.74219 402.711 4.45312 402.25 5.57031H402.227V0.726562H401.188V12H402.18V10.2812H402.203C402.688 11.4219 403.727 12.1328 405.023 12.1328ZM404.828 4.65625C406.391 4.65625 407.398 5.95312 407.398 7.9375C407.398 9.92969 406.391 11.2188 404.828 11.2188C403.297 11.2188 402.219 9.89062 402.219 7.9375C402.219 5.99219 403.305 4.65625 404.828 4.65625ZM409.852 12H410.883V6.9375C410.883 5.625 411.617 4.72656 412.773 4.72656C413.125 4.72656 413.414 4.78125 413.547 4.84375V3.82812C413.422 3.79688 413.18 3.74219 412.906 3.74219C411.906 3.74219 411.148 4.32812 410.852 5.32031H410.828V3.875H409.852V12ZM417.031 11.2422C415.93 11.2422 415.172 10.6328 415.172 9.75C415.172 8.85156 415.883 8.29688 417.164 8.21094L419.57 8.04688V8.94531C419.57 10.2344 418.453 11.2422 417.031 11.2422ZM416.82 12.1328C418.031 12.1328 419.141 11.4609 419.594 10.4531H419.617V12H420.602V6.4375C420.602 4.78125 419.438 3.74219 417.586 3.74219C415.734 3.74219 414.539 4.77344 414.422 6.22656H415.422C415.602 5.24219 416.367 4.65625 417.562 4.65625C418.828 4.65625 419.57 5.35938 419.57 6.53125V7.23438L417.039 7.39062C415.164 7.51562 414.125 8.35938 414.125 9.75C414.125 11.1719 415.219 12.1328 416.82 12.1328ZM428.711 3.875H427.633L425.156 10.9141H425.133L422.664 3.875H421.57L424.594 12H425.695L428.711 3.875ZM432.766 4.64844C434.234 4.64844 435.211 5.76562 435.234 7.36719H430.219C430.305 5.76562 431.312 4.64844 432.766 4.64844ZM435.172 9.69531C434.945 10.5859 434.094 11.2266 432.867 11.2266C431.25 11.2266 430.211 10.0859 430.211 8.25V8.1875H436.297V7.75C436.297 5.32812 434.938 3.74219 432.781 3.74219C430.578 3.74219 429.148 5.4375 429.148 7.96094C429.148 10.5391 430.562 12.1328 432.844 12.1328C434.633 12.1328 435.953 11.1016 436.195 9.69531H435.172ZM447.57 6.44531C447.367 4.99219 446.141 3.74219 444.227 3.74219C442.016 3.74219 440.555 5.375 440.555 7.9375C440.555 10.5391 442.016 12.1328 444.234 12.1328C446.031 12.1328 447.352 11.0391 447.578 9.48438H446.555C446.32 10.5391 445.469 11.2188 444.242 11.2188C442.656 11.2188 441.609 9.97656 441.609 7.9375C441.609 5.92969 442.648 4.65625 444.234 4.65625C445.516 4.65625 446.336 5.44531 446.555 6.44531H447.57ZM448.938 12H449.977V7.21875C449.977 5.6875 450.922 4.66406 452.383 4.66406C453.758 4.66406 454.547 5.51562 454.547 6.92188V12H455.586V6.75C455.586 4.92969 454.461 3.74219 452.68 3.74219C451.383 3.74219 450.414 4.375 450 5.375H449.977V0.726562H448.938V12ZM460.617 12.1328C462.828 12.1328 464.32 10.5156 464.32 7.9375C464.32 5.35156 462.828 3.74219 460.617 3.74219C458.414 3.74219 456.914 5.35156 456.914 7.9375C456.914 10.5156 458.406 12.1328 460.617 12.1328ZM460.617 11.2188C459.023 11.2188 457.969 10 457.969 7.9375C457.969 5.875 459.023 4.65625 460.617 4.65625C462.211 4.65625 463.273 5.875 463.273 7.9375C463.273 10 462.211 11.2188 460.617 11.2188ZM465.766 12H466.797V3.875H465.766V12ZM466.281 2.23438C466.664 2.23438 466.977 1.92969 466.977 1.54688C466.977 1.17188 466.664 0.867188 466.281 0.867188C465.906 0.867188 465.594 1.17188 465.594 1.54688C465.594 1.92969 465.906 2.23438 466.281 2.23438ZM475.258 6.44531C475.055 4.99219 473.828 3.74219 471.914 3.74219C469.703 3.74219 468.242 5.375 468.242 7.9375C468.242 10.5391 469.703 12.1328 471.922 12.1328C473.719 12.1328 475.039 11.0391 475.266 9.48438H474.242C474.008 10.5391 473.156 11.2188 471.93 11.2188C470.344 11.2188 469.297 9.97656 469.297 7.9375C469.297 5.92969 470.336 4.65625 471.922 4.65625C473.203 4.65625 474.023 5.44531 474.242 6.44531H475.258ZM479.766 4.64844C481.234 4.64844 482.211 5.76562 482.234 7.36719H477.219C477.305 5.76562 478.312 4.64844 479.766 4.64844ZM482.172 9.69531C481.945 10.5859 481.094 11.2266 479.867 11.2266C478.25 11.2266 477.211 10.0859 477.211 8.25V8.1875H483.297V7.75C483.297 5.32812 481.938 3.74219 479.781 3.74219C477.578 3.74219 476.148 5.4375 476.148 7.96094C476.148 10.5391 477.562 12.1328 479.844 12.1328C481.633 12.1328 482.953 11.1016 483.195 9.69531H482.172ZM484.516 6.04688C484.516 7.125 485.219 7.82031 486.688 8.1875L488.008 8.51562C489.094 8.78125 489.5 9.15625 489.5 9.85938C489.5 10.7109 488.695 11.2812 487.477 11.2812C486.258 11.2812 485.461 10.6875 485.312 9.72656H484.281C484.414 11.1562 485.672 12.1328 487.414 12.1328C489.25 12.1328 490.539 11.1562 490.539 9.78125C490.539 8.61719 489.93 8.02344 488.305 7.61719L487.102 7.32812C486.016 7.0625 485.539 6.65625 485.539 5.99219C485.539 5.17969 486.297 4.59375 487.406 4.59375C488.531 4.59375 489.273 5.1875 489.398 6.14844H490.391C490.289 4.71875 489.102 3.74219 487.438 3.74219C485.719 3.74219 484.516 4.70312 484.516 6.04688ZM492.859 12.0703C493.266 12.0703 493.586 11.75 493.586 11.3438C493.586 10.9297 493.266 10.6094 492.859 10.6094C492.453 10.6094 492.125 10.9297 492.125 11.3438C492.125 11.75 492.453 12.0703 492.859 12.0703ZM37.7031 30.9375C37.8203 32.875 39.4766 34.1797 41.8359 34.1797C44.3281 34.1797 45.9219 32.8828 45.9219 30.9062C45.9219 29.3359 44.9688 28.4688 42.7031 27.8984L41.4844 27.5859C39.8281 27.1641 39.125 26.5938 39.125 25.625C39.125 24.3828 40.2812 23.5156 41.8438 23.5156C43.4453 23.5156 44.5703 24.3594 44.6719 25.6328H45.7422C45.6797 23.8438 44.0703 22.5469 41.875 22.5469C39.6562 22.5469 38.0156 23.8438 38.0156 25.6641C38.0156 27.1484 38.9453 28.0312 41.0312 28.5625L42.4297 28.9219C44.1016 29.3438 44.8281 29.9688 44.8281 31.0234C44.8281 32.2891 43.6172 33.2109 41.9297 33.2109C40.1641 33.2109 38.8906 32.2891 38.7734 30.9375H37.7031ZM47.8906 23.8438V25.875H46.6797V26.7344H47.8906V32C47.8906 33.4688 48.4375 34.0469 49.7969 34.0469C50.0156 34.0469 50.4531 34.0234 50.5625 34V33.1172C50.5 33.1328 50.1094 33.1484 50 33.1484C49.25 33.1484 48.9219 32.7891 48.9219 31.9531V26.7344H50.5234V25.875H48.9219V23.8438H47.8906ZM51.9922 34H53.0234V28.9375C53.0234 27.625 53.7578 26.7266 54.9141 26.7266C55.2656 26.7266 55.5547 26.7812 55.6875 26.8438V25.8281C55.5625 25.7969 55.3203 25.7422 55.0469 25.7422C54.0469 25.7422 53.2891 26.3281 52.9922 27.3203H52.9688V25.875H51.9922V34ZM56.875 34H57.9062V25.875H56.875V34ZM57.3906 24.2344C57.7734 24.2344 58.0859 23.9297 58.0859 23.5469C58.0859 23.1719 57.7734 22.8672 57.3906 22.8672C57.0156 22.8672 56.7031 23.1719 56.7031 23.5469C56.7031 23.9297 57.0156 24.2344 57.3906 24.2344ZM63.5625 25.7422C62.2422 25.7422 61.2109 26.5156 60.7656 27.5938H60.7344V25.875H59.7578V36.6875H60.7891V32.3281H60.8203C61.25 33.3828 62.2734 34.1328 63.5859 34.1328C65.625 34.1328 67.0234 32.4688 67.0234 29.9375C67.0234 27.4141 65.6172 25.7422 63.5625 25.7422ZM63.3828 33.2188C61.8438 33.2188 60.7891 31.8984 60.7891 29.9375C60.7891 27.9844 61.8438 26.6562 63.3828 26.6562C64.9531 26.6562 65.9688 27.9609 65.9688 29.9375C65.9688 31.9219 64.9531 33.2188 63.3828 33.2188ZM74.3125 33.2422C73.2109 33.2422 72.4531 32.6328 72.4531 31.75C72.4531 30.8516 73.1641 30.2969 74.4453 30.2109L76.8516 30.0469V30.9453C76.8516 32.2344 75.7344 33.2422 74.3125 33.2422ZM74.1016 34.1328C75.3125 34.1328 76.4219 33.4609 76.875 32.4531H76.8984V34H77.8828V28.4375C77.8828 26.7812 76.7188 25.7422 74.8672 25.7422C73.0156 25.7422 71.8203 26.7734 71.7031 28.2266H72.7031C72.8828 27.2422 73.6484 26.6562 74.8438 26.6562C76.1094 26.6562 76.8516 27.3594 76.8516 28.5312V29.2344L74.3203 29.3906C72.4453 29.5156 71.4062 30.3594 71.4062 31.75C71.4062 33.1719 72.5 34.1328 74.1016 34.1328ZM89.7422 25.875H88.7031L86.8828 32.8438H86.8594L84.8359 25.875H83.7891L81.7656 32.8438H81.7422L79.9219 25.875H78.875L81.1875 34H82.2812L84.2969 27.2578H84.3203L86.3438 34H87.4375L89.7422 25.875ZM93.25 33.2422C92.1484 33.2422 91.3906 32.6328 91.3906 31.75C91.3906 30.8516 92.1016 30.2969 93.3828 30.2109L95.7891 30.0469V30.9453C95.7891 32.2344 94.6719 33.2422 93.25 33.2422ZM93.0391 34.1328C94.25 34.1328 95.3594 33.4609 95.8125 32.4531H95.8359V34H96.8203V28.4375C96.8203 26.7812 95.6562 25.7422 93.8047 25.7422C91.9531 25.7422 90.7578 26.7734 90.6406 28.2266H91.6406C91.8203 27.2422 92.5859 26.6562 93.7812 26.6562C95.0469 26.6562 95.7891 27.3594 95.7891 28.5312V29.2344L93.2578 29.3906C91.3828 29.5156 90.3438 30.3594 90.3438 31.75C90.3438 33.1719 91.4375 34.1328 93.0391 34.1328ZM99.1328 36.9375C100.469 36.9375 101.047 36.4062 101.758 34.4922L104.953 25.875H103.867L101.391 32.9688H101.367L98.8984 25.875H97.7891L100.836 34.0547L100.617 34.6641C100.258 35.6797 99.8516 36.0547 99.1094 36.0547C98.9453 36.0547 98.7422 36.0391 98.6172 36.0078V36.8906C98.7344 36.9141 98.9688 36.9375 99.1328 36.9375ZM112.469 26.6484C113.938 26.6484 114.914 27.7656 114.938 29.3672H109.922C110.008 27.7656 111.016 26.6484 112.469 26.6484ZM114.875 31.6953C114.648 32.5859 113.797 33.2266 112.57 33.2266C110.953 33.2266 109.914 32.0859 109.914 30.25V30.1875H116V29.75C116 27.3281 114.641 25.7422 112.484 25.7422C110.281 25.7422 108.852 27.4375 108.852 29.9609C108.852 32.5391 110.266 34.1328 112.547 34.1328C114.336 34.1328 115.656 33.1016 115.898 31.6953H114.875ZM123.758 25.875H122.68L120.203 32.9141H120.18L117.711 25.875H116.617L119.641 34H120.742L123.758 25.875ZM127.812 26.6484C129.281 26.6484 130.258 27.7656 130.281 29.3672H125.266C125.352 27.7656 126.359 26.6484 127.812 26.6484ZM130.219 31.6953C129.992 32.5859 129.141 33.2266 127.914 33.2266C126.297 33.2266 125.258 32.0859 125.258 30.25V30.1875H131.344V29.75C131.344 27.3281 129.984 25.7422 127.828 25.7422C125.625 25.7422 124.195 27.4375 124.195 29.9609C124.195 32.5391 125.609 34.1328 127.891 34.1328C129.68 34.1328 131 33.1016 131.242 31.6953H130.219ZM132.727 34H133.758V28.9375C133.758 27.625 134.492 26.7266 135.648 26.7266C136 26.7266 136.289 26.7812 136.422 26.8438V25.8281C136.297 25.7969 136.055 25.7422 135.781 25.7422C134.781 25.7422 134.023 26.3281 133.727 27.3203H133.703V25.875H132.727V34ZM138.117 36.9375C139.453 36.9375 140.031 36.4062 140.742 34.4922L143.938 25.875H142.852L140.375 32.9688H140.352L137.883 25.875H136.773L139.82 34.0547L139.602 34.6641C139.242 35.6797 138.836 36.0547 138.094 36.0547C137.93 36.0547 137.727 36.0391 137.602 36.0078V36.8906C137.719 36.9141 137.953 36.9375 138.117 36.9375ZM145.406 23.8438V25.875H144.195V26.7344H145.406V32C145.406 33.4688 145.953 34.0469 147.312 34.0469C147.531 34.0469 147.969 34.0234 148.078 34V33.1172C148.016 33.1328 147.625 33.1484 147.516 33.1484C146.766 33.1484 146.438 32.7891 146.438 31.9531V26.7344H148.039V25.875H146.438V23.8438H145.406ZM149.578 34H150.617V29.2188C150.617 27.6875 151.562 26.6641 153.023 26.6641C154.398 26.6641 155.188 27.5156 155.188 28.9219V34H156.227V28.75C156.227 26.9297 155.102 25.7422 153.32 25.7422C152.023 25.7422 151.055 26.375 150.641 27.375H150.617V22.7266H149.578V34ZM158.031 34H159.062V25.875H158.031V34ZM158.547 24.2344C158.93 24.2344 159.242 23.9297 159.242 23.5469C159.242 23.1719 158.93 22.8672 158.547 22.8672C158.172 22.8672 157.859 23.1719 157.859 23.5469C157.859 23.9297 158.172 24.2344 158.547 24.2344ZM160.914 34H161.945V29.1875C161.945 27.6797 162.891 26.6641 164.297 26.6641C165.656 26.6641 166.438 27.4766 166.438 28.8984V34H167.469V28.7344C167.469 26.8906 166.375 25.7422 164.594 25.7422C163.281 25.7422 162.328 26.3906 161.914 27.375H161.891V25.875H160.914V34ZM172.422 33.1641C170.891 33.1641 169.867 31.8828 169.867 29.9219C169.867 27.9453 170.891 26.6562 172.422 26.6562C173.984 26.6562 175.039 27.9688 175.039 29.9141C175.039 31.8594 173.984 33.1641 172.422 33.1641ZM172.523 37.0078C174.695 37.0078 176.078 35.7578 176.078 33.8672V25.875H175.094V27.5938H175.07C174.594 26.4844 173.555 25.7422 172.258 25.7422C170.18 25.7422 168.805 27.3906 168.805 29.9141C168.805 32.4297 170.18 34.0781 172.234 34.0781C173.531 34.0781 174.578 33.3203 175.016 32.2734H175.039V33.9062C175.039 35.2344 174.094 36.1172 172.57 36.1172C171.391 36.1172 170.523 35.5469 170.258 34.75H169.188C169.414 36.0312 170.75 37.0078 172.523 37.0078ZM181.594 23.8438V25.875H180.383V26.7344H181.594V32C181.594 33.4688 182.141 34.0469 183.5 34.0469C183.719 34.0469 184.156 34.0234 184.266 34V33.1172C184.203 33.1328 183.812 33.1484 183.703 33.1484C182.953 33.1484 182.625 32.7891 182.625 31.9531V26.7344H184.227V25.875H182.625V23.8438H181.594ZM185.766 34H186.805V29.2188C186.805 27.6875 187.75 26.6641 189.211 26.6641C190.586 26.6641 191.375 27.5156 191.375 28.9219V34H192.414V28.75C192.414 26.9297 191.289 25.7422 189.508 25.7422C188.211 25.7422 187.242 26.375 186.828 27.375H186.805V22.7266H185.766V34ZM196.766 33.2422C195.664 33.2422 194.906 32.6328 194.906 31.75C194.906 30.8516 195.617 30.2969 196.898 30.2109L199.305 30.0469V30.9453C199.305 32.2344 198.188 33.2422 196.766 33.2422ZM196.555 34.1328C197.766 34.1328 198.875 33.4609 199.328 32.4531H199.352V34H200.336V28.4375C200.336 26.7812 199.172 25.7422 197.32 25.7422C195.469 25.7422 194.273 26.7734 194.156 28.2266H195.156C195.336 27.2422 196.102 26.6562 197.297 26.6562C198.562 26.6562 199.305 27.3594 199.305 28.5312V29.2344L196.773 29.3906C194.898 29.5156 193.859 30.3594 193.859 31.75C193.859 33.1719 194.953 34.1328 196.555 34.1328ZM202.516 23.8438V25.875H201.305V26.7344H202.516V32C202.516 33.4688 203.062 34.0469 204.422 34.0469C204.641 34.0469 205.078 34.0234 205.188 34V33.1172C205.125 33.1328 204.734 33.1484 204.625 33.1484C203.875 33.1484 203.547 32.7891 203.547 31.9531V26.7344H205.148V25.875H203.547V23.8438H202.516ZM209.969 34H211V25.875H209.969V34ZM210.484 24.2344C210.867 24.2344 211.18 23.9297 211.18 23.5469C211.18 23.1719 210.867 22.8672 210.484 22.8672C210.109 22.8672 209.797 23.1719 209.797 23.5469C209.797 23.9297 210.109 24.2344 210.484 24.2344ZM212.688 28.0469C212.688 29.125 213.391 29.8203 214.859 30.1875L216.18 30.5156C217.266 30.7812 217.672 31.1562 217.672 31.8594C217.672 32.7109 216.867 33.2812 215.648 33.2812C214.43 33.2812 213.633 32.6875 213.484 31.7266H212.453C212.586 33.1562 213.844 34.1328 215.586 34.1328C217.422 34.1328 218.711 33.1562 218.711 31.7812C218.711 30.6172 218.102 30.0234 216.477 29.6172L215.273 29.3281C214.188 29.0625 213.711 28.6562 213.711 27.9922C213.711 27.1797 214.469 26.5938 215.578 26.5938C216.703 26.5938 217.445 27.1875 217.57 28.1484H218.562C218.461 26.7188 217.273 25.7422 215.609 25.7422C213.891 25.7422 212.688 26.7031 212.688 28.0469ZM223.383 34H224.414V29.1875C224.414 27.6797 225.359 26.6641 226.766 26.6641C228.125 26.6641 228.906 27.4766 228.906 28.8984V34H229.938V28.7344C229.938 26.8906 228.844 25.7422 227.062 25.7422C225.75 25.7422 224.797 26.3906 224.383 27.375H224.359V25.875H223.383V34ZM234.977 34.1328C237.188 34.1328 238.68 32.5156 238.68 29.9375C238.68 27.3516 237.188 25.7422 234.977 25.7422C232.773 25.7422 231.273 27.3516 231.273 29.9375C231.273 32.5156 232.766 34.1328 234.977 34.1328ZM234.977 33.2188C233.383 33.2188 232.328 32 232.328 29.9375C232.328 27.875 233.383 26.6562 234.977 26.6562C236.57 26.6562 237.633 27.875 237.633 29.9375C237.633 32 236.57 33.2188 234.977 33.2188ZM240.5 23.8438V25.875H239.289V26.7344H240.5V32C240.5 33.4688 241.047 34.0469 242.406 34.0469C242.625 34.0469 243.062 34.0234 243.172 34V33.1172C243.109 33.1328 242.719 33.1484 242.609 33.1484C241.859 33.1484 241.531 32.7891 241.531 31.9531V26.7344H243.133V25.875H241.531V23.8438H240.5ZM247.883 34H248.914V28.9375C248.914 27.625 249.648 26.7266 250.805 26.7266C251.156 26.7266 251.445 26.7812 251.578 26.8438V25.8281C251.453 25.7969 251.211 25.7422 250.938 25.7422C249.938 25.7422 249.18 26.3281 248.883 27.3203H248.859V25.875H247.883V34ZM255.438 26.6484C256.906 26.6484 257.883 27.7656 257.906 29.3672H252.891C252.977 27.7656 253.984 26.6484 255.438 26.6484ZM257.844 31.6953C257.617 32.5859 256.766 33.2266 255.539 33.2266C253.922 33.2266 252.883 32.0859 252.883 30.25V30.1875H258.969V29.75C258.969 27.3281 257.609 25.7422 255.453 25.7422C253.25 25.7422 251.82 27.4375 251.82 29.9609C251.82 32.5391 253.234 34.1328 255.516 34.1328C257.305 34.1328 258.625 33.1016 258.867 31.6953H257.844ZM260.422 34H261.453V22.7266H260.422V34ZM266.516 26.6484C267.984 26.6484 268.961 27.7656 268.984 29.3672H263.969C264.055 27.7656 265.062 26.6484 266.516 26.6484ZM268.922 31.6953C268.695 32.5859 267.844 33.2266 266.617 33.2266C265 33.2266 263.961 32.0859 263.961 30.25V30.1875H270.047V29.75C270.047 27.3281 268.688 25.7422 266.531 25.7422C264.328 25.7422 262.898 27.4375 262.898 29.9609C262.898 32.5391 264.312 34.1328 266.594 34.1328C268.383 34.1328 269.703 33.1016 269.945 31.6953H268.922ZM277.805 25.875H276.727L274.25 32.9141H274.227L271.758 25.875H270.664L273.688 34H274.789L277.805 25.875ZM281.25 33.2422C280.148 33.2422 279.391 32.6328 279.391 31.75C279.391 30.8516 280.102 30.2969 281.383 30.2109L283.789 30.0469V30.9453C283.789 32.2344 282.672 33.2422 281.25 33.2422ZM281.039 34.1328C282.25 34.1328 283.359 33.4609 283.812 32.4531H283.836V34H284.82V28.4375C284.82 26.7812 283.656 25.7422 281.805 25.7422C279.953 25.7422 278.758 26.7734 278.641 28.2266H279.641C279.82 27.2422 280.586 26.6562 281.781 26.6562C283.047 26.6562 283.789 27.3594 283.789 28.5312V29.2344L281.258 29.3906C279.383 29.5156 278.344 30.3594 278.344 31.75C278.344 33.1719 279.438 34.1328 281.039 34.1328ZM286.555 34H287.586V29.1875C287.586 27.6797 288.531 26.6641 289.938 26.6641C291.297 26.6641 292.078 27.4766 292.078 28.8984V34H293.109V28.7344C293.109 26.8906 292.016 25.7422 290.234 25.7422C288.922 25.7422 287.969 26.3906 287.555 27.375H287.531V25.875H286.555V34ZM295.297 23.8438V25.875H294.086V26.7344H295.297V32C295.297 33.4688 295.844 34.0469 297.203 34.0469C297.422 34.0469 297.859 34.0234 297.969 34V33.1172C297.906 33.1328 297.516 33.1484 297.406 33.1484C296.656 33.1484 296.328 32.7891 296.328 31.9531V26.7344H297.93V25.875H296.328V23.8438H295.297ZM305.297 33.2422C304.195 33.2422 303.438 32.6328 303.438 31.75C303.438 30.8516 304.148 30.2969 305.43 30.2109L307.836 30.0469V30.9453C307.836 32.2344 306.719 33.2422 305.297 33.2422ZM305.086 34.1328C306.297 34.1328 307.406 33.4609 307.859 32.4531H307.883V34H308.867V28.4375C308.867 26.7812 307.703 25.7422 305.852 25.7422C304 25.7422 302.805 26.7734 302.688 28.2266H303.688C303.867 27.2422 304.633 26.6562 305.828 26.6562C307.094 26.6562 307.836 27.3594 307.836 28.5312V29.2344L305.305 29.3906C303.43 29.5156 302.391 30.3594 302.391 31.75C302.391 33.1719 303.484 34.1328 305.086 34.1328ZM310.602 34H311.633V29.1875C311.633 27.6797 312.578 26.6641 313.984 26.6641C315.344 26.6641 316.125 27.4766 316.125 28.8984V34H317.156V28.7344C317.156 26.8906 316.062 25.7422 314.281 25.7422C312.969 25.7422 312.016 26.3906 311.602 27.375H311.578V25.875H310.602V34ZM321.969 34.1328C323.281 34.1328 324.32 33.375 324.781 32.2812H324.805V34H325.789V22.7266H324.75V27.5469H324.727C324.297 26.4922 323.258 25.7422 321.945 25.7422C319.906 25.7422 318.492 27.4062 318.492 29.9375C318.492 32.4609 319.914 34.1328 321.969 34.1328ZM322.148 26.6562C323.695 26.6562 324.758 27.9766 324.758 29.9375C324.758 31.9062 323.695 33.2188 322.148 33.2188C320.586 33.2188 319.555 31.9219 319.555 29.9375C319.555 27.9531 320.586 26.6562 322.148 26.6562ZM334.836 34.1328C336.883 34.1328 338.273 32.4688 338.273 29.9375C338.273 27.4062 336.883 25.7422 334.844 25.7422C333.57 25.7422 332.523 26.4531 332.062 27.5703H332.039V22.7266H331V34H331.992V32.2812H332.016C332.5 33.4219 333.539 34.1328 334.836 34.1328ZM334.641 26.6562C336.203 26.6562 337.211 27.9531 337.211 29.9375C337.211 31.9297 336.203 33.2188 334.641 33.2188C333.109 33.2188 332.031 31.8906 332.031 29.9375C332.031 27.9922 333.117 26.6562 334.641 26.6562ZM346.18 25.875H345.148V30.6953C345.148 32.2188 344.195 33.2109 342.781 33.2109C341.422 33.2109 340.656 32.4141 340.656 30.9766V25.875H339.617V31.1562C339.617 32.9844 340.719 34.1328 342.484 34.1328C343.773 34.1328 344.75 33.4922 345.18 32.4922H345.203V34H346.18V25.875ZM348.031 34H349.062V25.875H348.031V34ZM348.547 24.2344C348.93 24.2344 349.242 23.9297 349.242 23.5469C349.242 23.1719 348.93 22.8672 348.547 22.8672C348.172 22.8672 347.859 23.1719 347.859 23.5469C347.859 23.9297 348.172 24.2344 348.547 24.2344ZM350.984 34H352.016V22.7266H350.984V34ZM356.938 34.1328C358.25 34.1328 359.289 33.375 359.75 32.2812H359.773V34H360.758V22.7266H359.719V27.5469H359.695C359.266 26.4922 358.227 25.7422 356.914 25.7422C354.875 25.7422 353.461 27.4062 353.461 29.9375C353.461 32.4609 354.883 34.1328 356.938 34.1328ZM357.117 26.6562C358.664 26.6562 359.727 27.9766 359.727 29.9375C359.727 31.9062 358.664 33.2188 357.117 33.2188C355.555 33.2188 354.523 31.9219 354.523 29.9375C354.523 27.9531 355.555 26.6562 357.117 26.6562ZM368.516 33.2422C367.414 33.2422 366.656 32.6328 366.656 31.75C366.656 30.8516 367.367 30.2969 368.648 30.2109L371.055 30.0469V30.9453C371.055 32.2344 369.938 33.2422 368.516 33.2422ZM368.305 34.1328C369.516 34.1328 370.625 33.4609 371.078 32.4531H371.102V34H372.086V28.4375C372.086 26.7812 370.922 25.7422 369.07 25.7422C367.219 25.7422 366.023 26.7734 365.906 28.2266H366.906C367.086 27.2422 367.852 26.6562 369.047 26.6562C370.312 26.6562 371.055 27.3594 371.055 28.5312V29.2344L368.523 29.3906C366.648 29.5156 365.609 30.3594 365.609 31.75C365.609 33.1719 366.703 34.1328 368.305 34.1328ZM377.172 34H378.203V22.7266H377.172V34ZM382.672 33.2422C381.57 33.2422 380.812 32.6328 380.812 31.75C380.812 30.8516 381.523 30.2969 382.805 30.2109L385.211 30.0469V30.9453C385.211 32.2344 384.094 33.2422 382.672 33.2422ZM382.461 34.1328C383.672 34.1328 384.781 33.4609 385.234 32.4531H385.258V34H386.242V28.4375C386.242 26.7812 385.078 25.7422 383.227 25.7422C381.375 25.7422 380.18 26.7734 380.062 28.2266H381.062C381.242 27.2422 382.008 26.6562 383.203 26.6562C384.469 26.6562 385.211 27.3594 385.211 28.5312V29.2344L382.68 29.3906C380.805 29.5156 379.766 30.3594 379.766 31.75C379.766 33.1719 380.859 34.1328 382.461 34.1328ZM387.812 28.0469C387.812 29.125 388.516 29.8203 389.984 30.1875L391.305 30.5156C392.391 30.7812 392.797 31.1562 392.797 31.8594C392.797 32.7109 391.992 33.2812 390.773 33.2812C389.555 33.2812 388.758 32.6875 388.609 31.7266H387.578C387.711 33.1562 388.969 34.1328 390.711 34.1328C392.547 34.1328 393.836 33.1562 393.836 31.7812C393.836 30.6172 393.227 30.0234 391.602 29.6172L390.398 29.3281C389.312 29.0625 388.836 28.6562 388.836 27.9922C388.836 27.1797 389.594 26.5938 390.703 26.5938C391.828 26.5938 392.57 27.1875 392.695 28.1484H393.688C393.586 26.7188 392.398 25.7422 390.734 25.7422C389.016 25.7422 387.812 26.7031 387.812 28.0469ZM395.672 23.8438V25.875H394.461V26.7344H395.672V32C395.672 33.4688 396.219 34.0469 397.578 34.0469C397.797 34.0469 398.234 34.0234 398.344 34V33.1172C398.281 33.1328 397.891 33.1484 397.781 33.1484C397.031 33.1484 396.703 32.7891 396.703 31.9531V26.7344H398.305V25.875H396.703V23.8438H395.672ZM399.844 34H400.875V25.875H399.844V34ZM400.359 24.2344C400.742 24.2344 401.055 23.9297 401.055 23.5469C401.055 23.1719 400.742 22.8672 400.359 22.8672C399.984 22.8672 399.672 23.1719 399.672 23.5469C399.672 23.9297 399.984 24.2344 400.359 24.2344ZM402.727 34H403.758V29.1875C403.758 27.6797 404.703 26.6641 406.109 26.6641C407.469 26.6641 408.25 27.4766 408.25 28.8984V34H409.281V28.7344C409.281 26.8906 408.188 25.7422 406.406 25.7422C405.094 25.7422 404.141 26.3906 403.727 27.375H403.703V25.875H402.727V34ZM414.234 33.1641C412.703 33.1641 411.68 31.8828 411.68 29.9219C411.68 27.9453 412.703 26.6562 414.234 26.6562C415.797 26.6562 416.852 27.9688 416.852 29.9141C416.852 31.8594 415.797 33.1641 414.234 33.1641ZM414.336 37.0078C416.508 37.0078 417.891 35.7578 417.891 33.8672V25.875H416.906V27.5938H416.883C416.406 26.4844 415.367 25.7422 414.07 25.7422C411.992 25.7422 410.617 27.3906 410.617 29.9141C410.617 32.4297 411.992 34.0781 414.047 34.0781C415.344 34.0781 416.391 33.3203 416.828 32.2734H416.852V33.9062C416.852 35.2344 415.906 36.1172 414.383 36.1172C413.203 36.1172 412.336 35.5469 412.07 34.75H411C411.227 36.0312 412.562 37.0078 414.336 37.0078ZM422.797 28.0469C422.797 29.125 423.5 29.8203 424.969 30.1875L426.289 30.5156C427.375 30.7812 427.781 31.1562 427.781 31.8594C427.781 32.7109 426.977 33.2812 425.758 33.2812C424.539 33.2812 423.742 32.6875 423.594 31.7266H422.562C422.695 33.1562 423.953 34.1328 425.695 34.1328C427.531 34.1328 428.82 33.1562 428.82 31.7812C428.82 30.6172 428.211 30.0234 426.586 29.6172L425.383 29.3281C424.297 29.0625 423.82 28.6562 423.82 27.9922C423.82 27.1797 424.578 26.5938 425.688 26.5938C426.812 26.5938 427.555 27.1875 427.68 28.1484H428.672C428.57 26.7188 427.383 25.7422 425.719 25.7422C424 25.7422 422.797 26.7031 422.797 28.0469ZM430.656 23.8438V25.875H429.445V26.7344H430.656V32C430.656 33.4688 431.203 34.0469 432.562 34.0469C432.781 34.0469 433.219 34.0234 433.328 34V33.1172C433.266 33.1328 432.875 33.1484 432.766 33.1484C432.016 33.1484 431.688 32.7891 431.688 31.9531V26.7344H433.289V25.875H431.688V23.8438H430.656ZM437.773 34.1328C439.984 34.1328 441.477 32.5156 441.477 29.9375C441.477 27.3516 439.984 25.7422 437.773 25.7422C435.57 25.7422 434.07 27.3516 434.07 29.9375C434.07 32.5156 435.562 34.1328 437.773 34.1328ZM437.773 33.2188C436.18 33.2188 435.125 32 435.125 29.9375C435.125 27.875 436.18 26.6562 437.773 26.6562C439.367 26.6562 440.43 27.875 440.43 29.9375C440.43 32 439.367 33.2188 437.773 33.2188ZM442.852 34H443.883V28.9375C443.883 27.625 444.617 26.7266 445.773 26.7266C446.125 26.7266 446.414 26.7812 446.547 26.8438V25.8281C446.422 25.7969 446.18 25.7422 445.906 25.7422C444.906 25.7422 444.148 26.3281 443.852 27.3203H443.828V25.875H442.852V34ZM448.242 36.9375C449.578 36.9375 450.156 36.4062 450.867 34.4922L454.062 25.875H452.977L450.5 32.9688H450.477L448.008 25.875H446.898L449.945 34.0547L449.727 34.6641C449.367 35.6797 448.961 36.0547 448.219 36.0547C448.055 36.0547 447.852 36.0391 447.727 36.0078V36.8906C447.844 36.9141 448.078 36.9375 448.242 36.9375ZM454.812 34.0703C455.219 34.0703 455.539 33.75 455.539 33.3438C455.539 32.9297 455.219 32.6094 454.812 32.6094C454.406 32.6094 454.078 32.9297 454.078 33.3438C454.078 33.75 454.406 34.0703 454.812 34.0703Z" fill="white"/>
</svg>
