<svg width="161" height="73" viewBox="0 0 161 73" fill="none" xmlns="http://www.w3.org/2000/svg">
<path d="M29.5751 0.247998V0.551998C34.3251 0.551998 34.3251 2.452 34.3251 9.52V23.77L16.7691 0.247998H12.0191V0.551998C13.0071 0.628 14.1091 0.551998 16.5411 3.592L18.1751 5.758V17.69C18.1751 24.53 18.1371 26.658 12.8931 26.658V27H23.3051V26.658C18.5551 26.658 18.5171 24.416 18.5171 17.69V6.214L34.2491 27H34.6671V9.52C34.6671 2.452 34.5151 0.551998 39.7591 0.551998V0.247998H29.5751ZM55.9118 24.15V9.102L52.2258 9.786V10.09C54.0118 10.09 54.0118 10.128 54.0118 12.446V22.972C53.4798 24.644 52.1498 26.354 49.4518 26.354C47.2478 26.354 44.8158 25.176 44.8158 21.566V9.102L40.8638 9.786V10.09C42.9918 10.09 42.9918 10.09 42.9918 12.712V21.68C42.9918 26.582 46.5638 27.342 49.0338 27.342C51.7698 27.342 53.5938 25.632 54.0118 23.77V26.886C54.0118 26.886 53.9738 27.494 54.8098 27.304L57.8498 26.81V26.506C56.2538 26.316 55.9118 25.974 55.9118 24.15ZM68.2778 26.582C64.8578 26.582 62.1978 24.378 62.1978 17.88H74.3958C74.3958 11.838 70.9378 9.102 67.5938 9.102C63.4518 9.102 59.9558 12.56 59.9558 18.45C59.9558 24.036 63.2998 27.342 67.7838 27.342C71.6598 27.342 73.6358 24.226 73.8258 22.63L73.5978 22.592C73.1418 24.568 70.8238 26.582 68.2778 26.582ZM62.1978 17.5C62.1978 11.61 65.4658 9.444 67.5938 9.444C69.1138 9.444 72.4958 11.23 72.4958 17.5H62.1978ZM85.645 18.108L81.807 15.714C78.501 13.624 78.007 9.444 82.719 9.444C87.659 9.444 88.571 12.256 88.571 15.372H88.875V10.356C88.875 10.356 87.089 9.102 82.719 9.102C78.805 9.102 77.969 11.534 77.969 11.534C76.981 14.004 77.703 15.486 81.275 18.108L85.113 20.426C88.001 22.326 89.483 27 84.125 27C78.653 27 78.007 24.036 78.007 20.502H77.703V26.05C77.703 26.05 79.527 27.342 84.125 27.342C87.279 27.342 88.457 25.632 88.457 25.632C90.205 23.162 89.141 20.274 85.645 18.108ZM98.5074 26.316C96.7974 26.316 95.5434 25.328 95.5434 21.414V9.786H99.9514L100.027 9.444H95.5434V3.478L93.6434 3.706V9.444H91.6674L91.7054 9.786H93.6434V21.528C93.6434 26.126 95.2394 27.342 97.7474 27.342C99.6094 27.342 100.749 26.05 101.053 24.492L100.825 24.416C100.559 25.442 99.6094 26.316 98.5074 26.316ZM111.704 9.14C109.538 8.874 106.764 10.774 105.966 12.75V9.102L102.166 9.748V10.052C103.762 10.052 104.066 10.584 104.066 11.914V24.568C104.066 26.506 103.99 26.24 102.546 26.658V27H107.524V26.658C106.156 26.316 105.966 26.658 105.966 24.568V13.51C106.954 10.698 110.564 9.292 110.222 10.128C110.108 10.47 110.108 10.85 110.222 11.192C110.564 11.952 111.438 12.294 112.16 11.99C112.92 11.648 113.262 10.85 112.958 10.09C112.692 9.558 112.236 9.216 111.704 9.14ZM123.838 9.102C118.062 9.102 115.364 13.206 115.364 18.222C115.364 23.2 118.062 27.342 123.838 27.342C129.652 27.342 132.312 23.2 132.312 18.222C132.312 13.206 129.652 9.102 123.838 9.102ZM123.838 27C120.76 27 117.53 25.1 117.53 18.222C117.53 11.344 120.76 9.444 123.838 9.444C126.916 9.444 130.108 11.344 130.108 18.222C130.108 25.1 126.916 27 123.838 27ZM143.832 18.108L139.994 15.714C136.688 13.624 136.194 9.444 140.906 9.444C145.846 9.444 146.758 12.256 146.758 15.372H147.062V10.356C147.062 10.356 145.276 9.102 140.906 9.102C136.992 9.102 136.156 11.534 136.156 11.534C135.168 14.004 135.89 15.486 139.462 18.108L143.3 20.426C146.188 22.326 147.67 27 142.312 27C136.84 27 136.194 24.036 136.194 20.502H135.89V26.05C135.89 26.05 137.714 27.342 142.312 27.342C145.466 27.342 146.644 25.632 146.644 25.632C148.392 23.162 147.328 20.274 143.832 18.108ZM12.6084 72.4268C18.416 72.4268 22.5166 69.291 23.4629 64.0771H20.9209C20.123 67.7881 16.8945 70.0703 12.627 70.0703C6.93066 70.0703 3.27539 65.5986 3.27539 58.5479C3.27539 51.5898 6.93066 47.1553 12.6084 47.1553C16.7646 47.1553 20.1787 49.8643 20.9209 53.7236H23.4629C22.7393 48.4912 18.2676 44.7988 12.6084 44.7988C5.33496 44.7988 0.677734 50.1611 0.677734 58.5479C0.677734 67.0273 5.31641 72.4268 12.6084 72.4268ZM43.1494 69.6992H29.7344V45.2256H27.2109V72H43.1494V69.6992ZM49.2539 72V45.2256H46.7305V72H49.2539ZM70.4248 69.6992H56.7871V59.4199H69.7383V57.1562H56.7871V47.5264H70.4248V45.2256H54.2637V72H70.4248V69.6992ZM77.2529 72V49.623H77.3828L93.1357 72H95.585V45.2256H93.0801V67.584H92.9502L77.2529 45.2256H74.748V72H77.2529ZM110.188 72V47.5264H119.038V45.2256H98.8135V47.5264H107.646V72H110.188ZM138.409 69.6992H124.771V59.4199H137.723V57.1562H124.771V47.5264H138.409V45.2256H122.248V72H138.409V69.6992ZM141.025 64.7266C141.304 69.3281 145.237 72.4268 150.841 72.4268C156.76 72.4268 160.545 69.3467 160.545 64.6523C160.545 60.9229 158.281 58.8633 152.9 57.5088L150.006 56.7666C146.072 55.7646 144.402 54.4102 144.402 52.1094C144.402 49.1592 147.148 47.0996 150.859 47.0996C154.663 47.0996 157.335 49.1035 157.576 52.1279H160.118C159.97 47.8789 156.147 44.7988 150.934 44.7988C145.664 44.7988 141.768 47.8789 141.768 52.2021C141.768 55.7275 143.976 57.8242 148.93 59.0859L152.251 59.9395C156.222 60.9414 157.947 62.4258 157.947 64.9307C157.947 67.9365 155.071 70.126 151.063 70.126C146.87 70.126 143.846 67.9365 143.567 64.7266H141.025Z" fill="black"/>
<path d="M11.8291 30.8H149.152V32.7H11.8291V30.8Z" fill="black"/>
</svg>
