<svg width="161" height="74" viewBox="0 0 161 74" fill="none" xmlns="http://www.w3.org/2000/svg">
<path d="M65.3149 28C60.7929 28 55.9289 25.264 55.9289 14.814C55.9289 4.402 60.7929 1.248 65.3149 1.248C69.7989 1.248 74.6249 4.402 74.6249 14.814C74.6249 25.264 69.7989 28 65.3149 28ZM65.3149 0.905998C56.9549 0.905998 53.7249 7.29 53.7249 14.814C53.7249 22.376 56.9549 28.342 65.3149 28.342C73.6749 28.342 76.9049 22.376 76.9049 14.814C76.9049 7.29 73.6749 0.905998 65.3149 0.905998ZM94.3561 25.15V10.102L90.6701 10.786V11.09C92.4561 11.09 92.4561 11.128 92.4561 13.446V23.972C91.9241 25.644 90.5941 27.354 87.8961 27.354C85.6921 27.354 83.2601 26.176 83.2601 22.566V10.102L79.3081 10.786V11.09C81.4361 11.09 81.4361 11.09 81.4361 13.712V22.68C81.4361 27.582 85.0081 28.342 87.4781 28.342C90.2141 28.342 92.0381 26.632 92.4561 24.77V27.886C92.4561 27.886 92.4181 28.494 93.2541 28.304L96.2941 27.81V27.506C94.6981 27.316 94.3561 26.974 94.3561 25.15ZM107.064 10.14C104.898 9.874 102.124 11.774 101.326 13.75V10.102L97.5262 10.748V11.052C99.1222 11.052 99.4262 11.584 99.4262 12.914V25.568C99.4262 27.506 99.3502 27.24 97.9062 27.658V28H102.884V27.658C101.516 27.316 101.326 27.658 101.326 25.568V14.51C102.314 11.698 105.924 10.292 105.582 11.128C105.468 11.47 105.468 11.85 105.582 12.192C105.924 12.952 106.798 13.294 107.52 12.99C108.28 12.648 108.622 11.85 108.318 11.09C108.052 10.558 107.596 10.216 107.064 10.14ZM0.361351 65.7266C0.639671 70.3281 4.57327 73.4268 10.1768 73.4268C16.0957 73.4268 19.8809 70.3467 19.8809 65.6523C19.8809 61.9229 17.6172 59.8633 12.2364 58.5088L9.34182 57.7666C5.40823 56.7646 3.7383 55.4102 3.7383 53.1094C3.7383 50.1592 6.4844 48.0996 10.1953 48.0996C13.999 48.0996 16.6709 50.1035 16.9121 53.1279H19.4541C19.3057 48.8789 15.4834 45.7988 10.2696 45.7988C5.00002 45.7988 1.10354 48.8789 1.10354 53.2021C1.10354 56.7275 3.31155 58.8242 8.26565 60.0859L11.5869 60.9395C15.5576 61.9414 17.2832 63.4258 17.2832 65.9307C17.2832 68.9365 14.4072 71.126 10.3994 71.126C6.20608 71.126 3.18166 68.9365 2.90334 65.7266H0.361351ZM39.753 70.6992H26.1153V60.4199H39.0664V58.1562H26.1153V48.5264H39.753V46.2256H23.5918V73H39.753V70.6992ZM46.5996 48.4893H53.2237C57.1201 48.4893 59.4766 50.5859 59.4766 54.1299C59.4766 57.7109 57.2129 59.7891 53.3164 59.7891H46.5996V48.4893ZM46.5996 62.0342H53.3164C53.4463 62.0342 53.6319 62.0342 53.7246 62.0342L59.8848 73H62.8535L56.3594 61.626C59.9405 60.6982 62.0928 57.8408 62.0928 54.0557C62.0928 49.2871 58.753 46.2256 53.5205 46.2256H44.0762V73H46.5996V62.0342ZM76.6953 73L86.7149 46.2256H84.043L75.4893 69.8457H75.378L66.8428 46.2256H64.1524L74.1719 73H76.6953ZM92.1699 73V46.2256H89.6465V73H92.1699ZM108.034 73.4268C113.842 73.4268 117.942 70.291 118.889 65.0771H116.347C115.549 68.7881 112.32 71.0703 108.053 71.0703C102.356 71.0703 98.7012 66.5986 98.7012 59.5479C98.7012 52.5898 102.356 48.1553 108.034 48.1553C112.19 48.1553 115.605 50.8643 116.347 54.7236H118.889C118.165 49.4912 113.693 45.7988 108.034 45.7988C100.761 45.7988 96.1035 51.1611 96.1035 59.5479C96.1035 68.0273 100.742 73.4268 108.034 73.4268ZM138.798 70.6992H125.16V60.4199H138.111V58.1562H125.16V48.5264H138.798V46.2256H122.637V73H138.798V70.6992ZM141.414 65.7266C141.692 70.3281 145.626 73.4268 151.23 73.4268C157.148 73.4268 160.934 70.3467 160.934 65.6523C160.934 61.9229 158.67 59.8633 153.289 58.5088L150.395 57.7666C146.461 56.7646 144.791 55.4102 144.791 53.1094C144.791 50.1592 147.537 48.0996 151.248 48.0996C155.052 48.0996 157.724 50.1035 157.965 53.1279H160.507C160.358 48.8789 156.536 45.7988 151.322 45.7988C146.053 45.7988 142.156 48.8789 142.156 53.2021C142.156 56.7275 144.364 58.8242 149.318 60.0859L152.64 60.9395C156.61 61.9414 158.336 63.4258 158.336 65.9307C158.336 68.9365 155.46 71.126 151.452 71.126C147.259 71.126 144.234 68.9365 143.956 65.7266H141.414Z" fill="white"/>
<path d="M52.1289 31.8H109.154V33.7H52.1289V31.8Z" fill="white"/>
</svg>
